%FSLAX45Y45*%
G04 Gerber Fmt 4.5, Leading zero omitted, Abs format (unit mm)*
G04 Created by KiCad (PCBNEW (6.0.1-0)) date 2023-03-21 08:55:24*
%MOMM*%
%LPD*%
G01*
G04 APERTURE LIST*
%TA.AperFunction,Profile*%
%ADD10C,0.050000*%
%TD*%
%ADD11C,0.200000*%
%ADD12C,0.350000*%
%ADD13C,0.400000*%
G04 APERTURE END LIST*
D10*
X6477000Y-9399000D02*
X6477000Y-4999000D01*
X7645400Y-9699000D02*
X6777000Y-9699000D01*
X6777000Y-4699000D02*
X21177000Y-4699000D01*
X6777000Y-4699000D02*
G75*
G03*
X6477000Y-4999000I0J-300000D01*
G01*
X9956800Y-9880600D02*
G75*
G03*
X10033000Y-9804400I0J76200D01*
G01*
X10033000Y-9804400D02*
X10033000Y-9775200D01*
X7797800Y-9880600D02*
X9956800Y-9880600D01*
X21177000Y-9699000D02*
X10109200Y-9699000D01*
X10109200Y-9699000D02*
G75*
G03*
X10033000Y-9775200I0J-76200D01*
G01*
X21477000Y-4999000D02*
G75*
G03*
X21177000Y-4699000I-300000J0D01*
G01*
X21177000Y-9699000D02*
G75*
G03*
X21477000Y-9399000I0J300000D01*
G01*
X6477000Y-9399000D02*
G75*
G03*
X6777000Y-9699000I300000J0D01*
G01*
X21477000Y-4999000D02*
X21477000Y-9399000D01*
X7721600Y-9804400D02*
G75*
G03*
X7797800Y-9880600I76200J0D01*
G01*
X7721600Y-9775200D02*
G75*
G03*
X7645400Y-9699000I-76200J0D01*
G01*
X7721600Y-9775200D02*
X7721600Y-9804400D01*
D11*
D12*
X7502000Y-5024000D02*
X7852000Y-5374000D01*
X7852000Y-5024000D02*
X7502000Y-5374000D01*
X9902000Y-5024000D02*
X10252000Y-5374000D01*
X10252000Y-5024000D02*
X9902000Y-5374000D01*
D13*
X7177000Y-7199000D02*
G75*
G03*
X7177000Y-7199000I-200000J0D01*
G01*
X21177000Y-7999000D02*
G75*
G03*
X21177000Y-7999000I-200000J0D01*
G01*
D11*
X6732119Y-10193576D02*
X6732119Y-9993576D01*
X6779738Y-9993576D01*
X6808309Y-10003100D01*
X6827357Y-10022148D01*
X6836881Y-10041195D01*
X6846405Y-10079290D01*
X6846405Y-10107862D01*
X6836881Y-10145957D01*
X6827357Y-10165005D01*
X6808309Y-10184052D01*
X6779738Y-10193576D01*
X6732119Y-10193576D01*
X6932119Y-10193576D02*
X6932119Y-10060243D01*
X6932119Y-10098338D02*
X6941643Y-10079290D01*
X6951167Y-10069767D01*
X6970214Y-10060243D01*
X6989262Y-10060243D01*
X7055928Y-10193576D02*
X7055928Y-10060243D01*
X7055928Y-9993576D02*
X7046405Y-10003100D01*
X7055928Y-10012624D01*
X7065452Y-10003100D01*
X7055928Y-9993576D01*
X7055928Y-10012624D01*
X7179738Y-10193576D02*
X7160690Y-10184052D01*
X7151167Y-10165005D01*
X7151167Y-9993576D01*
X7284500Y-10193576D02*
X7265452Y-10184052D01*
X7255928Y-10165005D01*
X7255928Y-9993576D01*
X7513071Y-10193576D02*
X7513071Y-9993576D01*
X7579738Y-10136433D01*
X7646405Y-9993576D01*
X7646405Y-10193576D01*
X7827357Y-10193576D02*
X7827357Y-10088814D01*
X7817833Y-10069767D01*
X7798786Y-10060243D01*
X7760690Y-10060243D01*
X7741643Y-10069767D01*
X7827357Y-10184052D02*
X7808309Y-10193576D01*
X7760690Y-10193576D01*
X7741643Y-10184052D01*
X7732119Y-10165005D01*
X7732119Y-10145957D01*
X7741643Y-10126910D01*
X7760690Y-10117386D01*
X7808309Y-10117386D01*
X7827357Y-10107862D01*
X7922595Y-10060243D02*
X7922595Y-10260243D01*
X7922595Y-10069767D02*
X7941643Y-10060243D01*
X7979738Y-10060243D01*
X7998786Y-10069767D01*
X8008309Y-10079290D01*
X8017833Y-10098338D01*
X8017833Y-10155481D01*
X8008309Y-10174529D01*
X7998786Y-10184052D01*
X7979738Y-10193576D01*
X7941643Y-10193576D01*
X7922595Y-10184052D01*
X8103548Y-10174529D02*
X8113071Y-10184052D01*
X8103548Y-10193576D01*
X8094024Y-10184052D01*
X8103548Y-10174529D01*
X8103548Y-10193576D01*
X8103548Y-10069767D02*
X8113071Y-10079290D01*
X8103548Y-10088814D01*
X8094024Y-10079290D01*
X8103548Y-10069767D01*
X8103548Y-10088814D01*
X6274500Y-10423100D02*
X6474500Y-10623100D01*
X6474500Y-10423100D02*
X6274500Y-10623100D01*
X6713071Y-10413576D02*
X6836881Y-10413576D01*
X6770214Y-10489767D01*
X6798786Y-10489767D01*
X6817833Y-10499290D01*
X6827357Y-10508814D01*
X6836881Y-10527862D01*
X6836881Y-10575481D01*
X6827357Y-10594529D01*
X6817833Y-10604052D01*
X6798786Y-10613576D01*
X6741643Y-10613576D01*
X6722595Y-10604052D01*
X6713071Y-10594529D01*
X6922595Y-10594529D02*
X6932119Y-10604052D01*
X6922595Y-10613576D01*
X6913071Y-10604052D01*
X6922595Y-10594529D01*
X6922595Y-10613576D01*
X7113071Y-10413576D02*
X7017833Y-10413576D01*
X7008309Y-10508814D01*
X7017833Y-10499290D01*
X7036881Y-10489767D01*
X7084500Y-10489767D01*
X7103548Y-10499290D01*
X7113071Y-10508814D01*
X7122595Y-10527862D01*
X7122595Y-10575481D01*
X7113071Y-10594529D01*
X7103548Y-10604052D01*
X7084500Y-10613576D01*
X7036881Y-10613576D01*
X7017833Y-10604052D01*
X7008309Y-10594529D01*
X7246405Y-10413576D02*
X7265452Y-10413576D01*
X7284500Y-10423100D01*
X7294024Y-10432624D01*
X7303548Y-10451671D01*
X7313071Y-10489767D01*
X7313071Y-10537386D01*
X7303548Y-10575481D01*
X7294024Y-10594529D01*
X7284500Y-10604052D01*
X7265452Y-10613576D01*
X7246405Y-10613576D01*
X7227357Y-10604052D01*
X7217833Y-10594529D01*
X7208309Y-10575481D01*
X7198786Y-10537386D01*
X7198786Y-10489767D01*
X7208309Y-10451671D01*
X7217833Y-10432624D01*
X7227357Y-10423100D01*
X7246405Y-10413576D01*
X7436881Y-10413576D02*
X7455928Y-10413576D01*
X7474976Y-10423100D01*
X7484500Y-10432624D01*
X7494024Y-10451671D01*
X7503548Y-10489767D01*
X7503548Y-10537386D01*
X7494024Y-10575481D01*
X7484500Y-10594529D01*
X7474976Y-10604052D01*
X7455928Y-10613576D01*
X7436881Y-10613576D01*
X7417833Y-10604052D01*
X7408309Y-10594529D01*
X7398786Y-10575481D01*
X7389262Y-10537386D01*
X7389262Y-10489767D01*
X7398786Y-10451671D01*
X7408309Y-10432624D01*
X7417833Y-10423100D01*
X7436881Y-10413576D01*
X7589262Y-10613576D02*
X7589262Y-10480243D01*
X7589262Y-10499290D02*
X7598786Y-10489767D01*
X7617833Y-10480243D01*
X7646405Y-10480243D01*
X7665452Y-10489767D01*
X7674976Y-10508814D01*
X7674976Y-10613576D01*
X7674976Y-10508814D02*
X7684500Y-10489767D01*
X7703548Y-10480243D01*
X7732119Y-10480243D01*
X7751167Y-10489767D01*
X7760690Y-10508814D01*
X7760690Y-10613576D01*
X7855928Y-10613576D02*
X7855928Y-10480243D01*
X7855928Y-10499290D02*
X7865452Y-10489767D01*
X7884500Y-10480243D01*
X7913071Y-10480243D01*
X7932119Y-10489767D01*
X7941643Y-10508814D01*
X7941643Y-10613576D01*
X7941643Y-10508814D02*
X7951167Y-10489767D01*
X7970214Y-10480243D01*
X7998786Y-10480243D01*
X8017833Y-10489767D01*
X8027357Y-10508814D01*
X8027357Y-10613576D01*
X8417833Y-10404052D02*
X8246405Y-10661195D01*
X8674976Y-10413576D02*
X8694024Y-10413576D01*
X8713071Y-10423100D01*
X8722595Y-10432624D01*
X8732119Y-10451671D01*
X8741643Y-10489767D01*
X8741643Y-10537386D01*
X8732119Y-10575481D01*
X8722595Y-10594529D01*
X8713071Y-10604052D01*
X8694024Y-10613576D01*
X8674976Y-10613576D01*
X8655929Y-10604052D01*
X8646405Y-10594529D01*
X8636881Y-10575481D01*
X8627357Y-10537386D01*
X8627357Y-10489767D01*
X8636881Y-10451671D01*
X8646405Y-10432624D01*
X8655929Y-10423100D01*
X8674976Y-10413576D01*
X8827357Y-10594529D02*
X8836881Y-10604052D01*
X8827357Y-10613576D01*
X8817833Y-10604052D01*
X8827357Y-10594529D01*
X8827357Y-10613576D01*
X9027357Y-10613576D02*
X8913071Y-10613576D01*
X8970214Y-10613576D02*
X8970214Y-10413576D01*
X8951167Y-10442148D01*
X8932119Y-10461195D01*
X8913071Y-10470719D01*
X9094024Y-10413576D02*
X9217833Y-10413576D01*
X9151167Y-10489767D01*
X9179738Y-10489767D01*
X9198786Y-10499290D01*
X9208310Y-10508814D01*
X9217833Y-10527862D01*
X9217833Y-10575481D01*
X9208310Y-10594529D01*
X9198786Y-10604052D01*
X9179738Y-10613576D01*
X9122595Y-10613576D01*
X9103548Y-10604052D01*
X9094024Y-10594529D01*
X9284500Y-10413576D02*
X9417833Y-10413576D01*
X9332119Y-10613576D01*
X9522595Y-10499290D02*
X9503548Y-10489767D01*
X9494024Y-10480243D01*
X9484500Y-10461195D01*
X9484500Y-10451671D01*
X9494024Y-10432624D01*
X9503548Y-10423100D01*
X9522595Y-10413576D01*
X9560690Y-10413576D01*
X9579738Y-10423100D01*
X9589262Y-10432624D01*
X9598786Y-10451671D01*
X9598786Y-10461195D01*
X9589262Y-10480243D01*
X9579738Y-10489767D01*
X9560690Y-10499290D01*
X9522595Y-10499290D01*
X9503548Y-10508814D01*
X9494024Y-10518338D01*
X9484500Y-10537386D01*
X9484500Y-10575481D01*
X9494024Y-10594529D01*
X9503548Y-10604052D01*
X9522595Y-10613576D01*
X9560690Y-10613576D01*
X9579738Y-10604052D01*
X9589262Y-10594529D01*
X9598786Y-10575481D01*
X9598786Y-10537386D01*
X9589262Y-10518338D01*
X9579738Y-10508814D01*
X9560690Y-10499290D01*
X9674976Y-10413576D02*
X9674976Y-10451671D01*
X9751167Y-10413576D02*
X9751167Y-10451671D01*
X10046405Y-10689767D02*
X10036881Y-10680243D01*
X10017833Y-10651671D01*
X10008310Y-10632624D01*
X9998786Y-10604052D01*
X9989262Y-10556433D01*
X9989262Y-10518338D01*
X9998786Y-10470719D01*
X10008310Y-10442148D01*
X10017833Y-10423100D01*
X10036881Y-10394529D01*
X10046405Y-10385005D01*
X10113071Y-10432624D02*
X10122595Y-10423100D01*
X10141643Y-10413576D01*
X10189262Y-10413576D01*
X10208310Y-10423100D01*
X10217833Y-10432624D01*
X10227357Y-10451671D01*
X10227357Y-10470719D01*
X10217833Y-10499290D01*
X10103548Y-10613576D01*
X10227357Y-10613576D01*
X10465452Y-10613576D02*
X10465452Y-10413576D01*
X10551167Y-10613576D02*
X10551167Y-10508814D01*
X10541643Y-10489767D01*
X10522595Y-10480243D01*
X10494024Y-10480243D01*
X10474976Y-10489767D01*
X10465452Y-10499290D01*
X10674976Y-10613576D02*
X10655929Y-10604052D01*
X10646405Y-10594529D01*
X10636881Y-10575481D01*
X10636881Y-10518338D01*
X10646405Y-10499290D01*
X10655929Y-10489767D01*
X10674976Y-10480243D01*
X10703548Y-10480243D01*
X10722595Y-10489767D01*
X10732119Y-10499290D01*
X10741643Y-10518338D01*
X10741643Y-10575481D01*
X10732119Y-10594529D01*
X10722595Y-10604052D01*
X10703548Y-10613576D01*
X10674976Y-10613576D01*
X10855929Y-10613576D02*
X10836881Y-10604052D01*
X10827357Y-10585005D01*
X10827357Y-10413576D01*
X11008310Y-10604052D02*
X10989262Y-10613576D01*
X10951167Y-10613576D01*
X10932119Y-10604052D01*
X10922595Y-10585005D01*
X10922595Y-10508814D01*
X10932119Y-10489767D01*
X10951167Y-10480243D01*
X10989262Y-10480243D01*
X11008310Y-10489767D01*
X11017833Y-10508814D01*
X11017833Y-10527862D01*
X10922595Y-10546910D01*
X11094024Y-10604052D02*
X11113071Y-10613576D01*
X11151167Y-10613576D01*
X11170214Y-10604052D01*
X11179738Y-10585005D01*
X11179738Y-10575481D01*
X11170214Y-10556433D01*
X11151167Y-10546910D01*
X11122595Y-10546910D01*
X11103548Y-10537386D01*
X11094024Y-10518338D01*
X11094024Y-10508814D01*
X11103548Y-10489767D01*
X11122595Y-10480243D01*
X11151167Y-10480243D01*
X11170214Y-10489767D01*
X11246405Y-10689767D02*
X11255928Y-10680243D01*
X11274976Y-10651671D01*
X11284500Y-10632624D01*
X11294024Y-10604052D01*
X11303548Y-10556433D01*
X11303548Y-10518338D01*
X11294024Y-10470719D01*
X11284500Y-10442148D01*
X11274976Y-10423100D01*
X11255928Y-10394529D01*
X11246405Y-10385005D01*
X11608309Y-10689767D02*
X11598786Y-10680243D01*
X11579738Y-10651671D01*
X11570214Y-10632624D01*
X11560690Y-10604052D01*
X11551167Y-10556433D01*
X11551167Y-10518338D01*
X11560690Y-10470719D01*
X11570214Y-10442148D01*
X11579738Y-10423100D01*
X11598786Y-10394529D01*
X11608309Y-10385005D01*
X11684500Y-10480243D02*
X11684500Y-10613576D01*
X11684500Y-10499290D02*
X11694024Y-10489767D01*
X11713071Y-10480243D01*
X11741643Y-10480243D01*
X11760690Y-10489767D01*
X11770214Y-10508814D01*
X11770214Y-10613576D01*
X11894024Y-10613576D02*
X11874976Y-10604052D01*
X11865452Y-10594529D01*
X11855928Y-10575481D01*
X11855928Y-10518338D01*
X11865452Y-10499290D01*
X11874976Y-10489767D01*
X11894024Y-10480243D01*
X11922595Y-10480243D01*
X11941643Y-10489767D01*
X11951167Y-10499290D01*
X11960690Y-10518338D01*
X11960690Y-10575481D01*
X11951167Y-10594529D01*
X11941643Y-10604052D01*
X11922595Y-10613576D01*
X11894024Y-10613576D01*
X12017833Y-10480243D02*
X12094024Y-10480243D01*
X12046405Y-10413576D02*
X12046405Y-10585005D01*
X12055928Y-10604052D01*
X12074976Y-10613576D01*
X12094024Y-10613576D01*
X12313071Y-10480243D02*
X12313071Y-10680243D01*
X12313071Y-10489767D02*
X12332119Y-10480243D01*
X12370214Y-10480243D01*
X12389262Y-10489767D01*
X12398786Y-10499290D01*
X12408309Y-10518338D01*
X12408309Y-10575481D01*
X12398786Y-10594529D01*
X12389262Y-10604052D01*
X12370214Y-10613576D01*
X12332119Y-10613576D01*
X12313071Y-10604052D01*
X12522595Y-10613576D02*
X12503548Y-10604052D01*
X12494024Y-10585005D01*
X12494024Y-10413576D01*
X12684500Y-10613576D02*
X12684500Y-10508814D01*
X12674976Y-10489767D01*
X12655928Y-10480243D01*
X12617833Y-10480243D01*
X12598786Y-10489767D01*
X12684500Y-10604052D02*
X12665452Y-10613576D01*
X12617833Y-10613576D01*
X12598786Y-10604052D01*
X12589262Y-10585005D01*
X12589262Y-10565957D01*
X12598786Y-10546910D01*
X12617833Y-10537386D01*
X12665452Y-10537386D01*
X12684500Y-10527862D01*
X12751167Y-10480243D02*
X12827357Y-10480243D01*
X12779738Y-10413576D02*
X12779738Y-10585005D01*
X12789262Y-10604052D01*
X12808309Y-10613576D01*
X12827357Y-10613576D01*
X12970214Y-10604052D02*
X12951167Y-10613576D01*
X12913071Y-10613576D01*
X12894024Y-10604052D01*
X12884500Y-10585005D01*
X12884500Y-10508814D01*
X12894024Y-10489767D01*
X12913071Y-10480243D01*
X12951167Y-10480243D01*
X12970214Y-10489767D01*
X12979738Y-10508814D01*
X12979738Y-10527862D01*
X12884500Y-10546910D01*
X13151167Y-10613576D02*
X13151167Y-10413576D01*
X13151167Y-10604052D02*
X13132119Y-10613576D01*
X13094024Y-10613576D01*
X13074976Y-10604052D01*
X13065452Y-10594529D01*
X13055928Y-10575481D01*
X13055928Y-10518338D01*
X13065452Y-10499290D01*
X13074976Y-10489767D01*
X13094024Y-10480243D01*
X13132119Y-10480243D01*
X13151167Y-10489767D01*
X13227357Y-10689767D02*
X13236881Y-10680243D01*
X13255928Y-10651671D01*
X13265452Y-10632624D01*
X13274976Y-10604052D01*
X13284500Y-10556433D01*
X13284500Y-10518338D01*
X13274976Y-10470719D01*
X13265452Y-10442148D01*
X13255928Y-10423100D01*
X13236881Y-10394529D01*
X13227357Y-10385005D01*
X6474500Y-10843100D02*
G75*
G03*
X6474500Y-10843100I-100000J0D01*
G01*
X6817833Y-10800243D02*
X6817833Y-10933576D01*
X6770214Y-10724052D02*
X6722595Y-10866910D01*
X6846405Y-10866910D01*
X6922595Y-10914529D02*
X6932119Y-10924052D01*
X6922595Y-10933576D01*
X6913071Y-10924052D01*
X6922595Y-10914529D01*
X6922595Y-10933576D01*
X7055928Y-10733576D02*
X7074976Y-10733576D01*
X7094024Y-10743100D01*
X7103548Y-10752624D01*
X7113071Y-10771671D01*
X7122595Y-10809767D01*
X7122595Y-10857386D01*
X7113071Y-10895481D01*
X7103548Y-10914529D01*
X7094024Y-10924052D01*
X7074976Y-10933576D01*
X7055928Y-10933576D01*
X7036881Y-10924052D01*
X7027357Y-10914529D01*
X7017833Y-10895481D01*
X7008309Y-10857386D01*
X7008309Y-10809767D01*
X7017833Y-10771671D01*
X7027357Y-10752624D01*
X7036881Y-10743100D01*
X7055928Y-10733576D01*
X7246405Y-10733576D02*
X7265452Y-10733576D01*
X7284500Y-10743100D01*
X7294024Y-10752624D01*
X7303548Y-10771671D01*
X7313071Y-10809767D01*
X7313071Y-10857386D01*
X7303548Y-10895481D01*
X7294024Y-10914529D01*
X7284500Y-10924052D01*
X7265452Y-10933576D01*
X7246405Y-10933576D01*
X7227357Y-10924052D01*
X7217833Y-10914529D01*
X7208309Y-10895481D01*
X7198786Y-10857386D01*
X7198786Y-10809767D01*
X7208309Y-10771671D01*
X7217833Y-10752624D01*
X7227357Y-10743100D01*
X7246405Y-10733576D01*
X7436881Y-10733576D02*
X7455928Y-10733576D01*
X7474976Y-10743100D01*
X7484500Y-10752624D01*
X7494024Y-10771671D01*
X7503548Y-10809767D01*
X7503548Y-10857386D01*
X7494024Y-10895481D01*
X7484500Y-10914529D01*
X7474976Y-10924052D01*
X7455928Y-10933576D01*
X7436881Y-10933576D01*
X7417833Y-10924052D01*
X7408309Y-10914529D01*
X7398786Y-10895481D01*
X7389262Y-10857386D01*
X7389262Y-10809767D01*
X7398786Y-10771671D01*
X7408309Y-10752624D01*
X7417833Y-10743100D01*
X7436881Y-10733576D01*
X7589262Y-10933576D02*
X7589262Y-10800243D01*
X7589262Y-10819290D02*
X7598786Y-10809767D01*
X7617833Y-10800243D01*
X7646405Y-10800243D01*
X7665452Y-10809767D01*
X7674976Y-10828814D01*
X7674976Y-10933576D01*
X7674976Y-10828814D02*
X7684500Y-10809767D01*
X7703548Y-10800243D01*
X7732119Y-10800243D01*
X7751167Y-10809767D01*
X7760690Y-10828814D01*
X7760690Y-10933576D01*
X7855928Y-10933576D02*
X7855928Y-10800243D01*
X7855928Y-10819290D02*
X7865452Y-10809767D01*
X7884500Y-10800243D01*
X7913071Y-10800243D01*
X7932119Y-10809767D01*
X7941643Y-10828814D01*
X7941643Y-10933576D01*
X7941643Y-10828814D02*
X7951167Y-10809767D01*
X7970214Y-10800243D01*
X7998786Y-10800243D01*
X8017833Y-10809767D01*
X8027357Y-10828814D01*
X8027357Y-10933576D01*
X8417833Y-10724052D02*
X8246405Y-10981195D01*
X8674976Y-10733576D02*
X8694024Y-10733576D01*
X8713071Y-10743100D01*
X8722595Y-10752624D01*
X8732119Y-10771671D01*
X8741643Y-10809767D01*
X8741643Y-10857386D01*
X8732119Y-10895481D01*
X8722595Y-10914529D01*
X8713071Y-10924052D01*
X8694024Y-10933576D01*
X8674976Y-10933576D01*
X8655929Y-10924052D01*
X8646405Y-10914529D01*
X8636881Y-10895481D01*
X8627357Y-10857386D01*
X8627357Y-10809767D01*
X8636881Y-10771671D01*
X8646405Y-10752624D01*
X8655929Y-10743100D01*
X8674976Y-10733576D01*
X8827357Y-10914529D02*
X8836881Y-10924052D01*
X8827357Y-10933576D01*
X8817833Y-10924052D01*
X8827357Y-10914529D01*
X8827357Y-10933576D01*
X9027357Y-10933576D02*
X8913071Y-10933576D01*
X8970214Y-10933576D02*
X8970214Y-10733576D01*
X8951167Y-10762148D01*
X8932119Y-10781195D01*
X8913071Y-10790719D01*
X9208310Y-10733576D02*
X9113071Y-10733576D01*
X9103548Y-10828814D01*
X9113071Y-10819290D01*
X9132119Y-10809767D01*
X9179738Y-10809767D01*
X9198786Y-10819290D01*
X9208310Y-10828814D01*
X9217833Y-10847862D01*
X9217833Y-10895481D01*
X9208310Y-10914529D01*
X9198786Y-10924052D01*
X9179738Y-10933576D01*
X9132119Y-10933576D01*
X9113071Y-10924052D01*
X9103548Y-10914529D01*
X9284500Y-10733576D02*
X9417833Y-10733576D01*
X9332119Y-10933576D01*
X9589262Y-10733576D02*
X9494024Y-10733576D01*
X9484500Y-10828814D01*
X9494024Y-10819290D01*
X9513071Y-10809767D01*
X9560690Y-10809767D01*
X9579738Y-10819290D01*
X9589262Y-10828814D01*
X9598786Y-10847862D01*
X9598786Y-10895481D01*
X9589262Y-10914529D01*
X9579738Y-10924052D01*
X9560690Y-10933576D01*
X9513071Y-10933576D01*
X9494024Y-10924052D01*
X9484500Y-10914529D01*
X9674976Y-10733576D02*
X9674976Y-10771671D01*
X9751167Y-10733576D02*
X9751167Y-10771671D01*
X10046405Y-11009767D02*
X10036881Y-11000243D01*
X10017833Y-10971671D01*
X10008310Y-10952624D01*
X9998786Y-10924052D01*
X9989262Y-10876433D01*
X9989262Y-10838338D01*
X9998786Y-10790719D01*
X10008310Y-10762148D01*
X10017833Y-10743100D01*
X10036881Y-10714529D01*
X10046405Y-10705005D01*
X10113071Y-10752624D02*
X10122595Y-10743100D01*
X10141643Y-10733576D01*
X10189262Y-10733576D01*
X10208310Y-10743100D01*
X10217833Y-10752624D01*
X10227357Y-10771671D01*
X10227357Y-10790719D01*
X10217833Y-10819290D01*
X10103548Y-10933576D01*
X10227357Y-10933576D01*
X10465452Y-10933576D02*
X10465452Y-10733576D01*
X10551167Y-10933576D02*
X10551167Y-10828814D01*
X10541643Y-10809767D01*
X10522595Y-10800243D01*
X10494024Y-10800243D01*
X10474976Y-10809767D01*
X10465452Y-10819290D01*
X10674976Y-10933576D02*
X10655929Y-10924052D01*
X10646405Y-10914529D01*
X10636881Y-10895481D01*
X10636881Y-10838338D01*
X10646405Y-10819290D01*
X10655929Y-10809767D01*
X10674976Y-10800243D01*
X10703548Y-10800243D01*
X10722595Y-10809767D01*
X10732119Y-10819290D01*
X10741643Y-10838338D01*
X10741643Y-10895481D01*
X10732119Y-10914529D01*
X10722595Y-10924052D01*
X10703548Y-10933576D01*
X10674976Y-10933576D01*
X10855929Y-10933576D02*
X10836881Y-10924052D01*
X10827357Y-10905005D01*
X10827357Y-10733576D01*
X11008310Y-10924052D02*
X10989262Y-10933576D01*
X10951167Y-10933576D01*
X10932119Y-10924052D01*
X10922595Y-10905005D01*
X10922595Y-10828814D01*
X10932119Y-10809767D01*
X10951167Y-10800243D01*
X10989262Y-10800243D01*
X11008310Y-10809767D01*
X11017833Y-10828814D01*
X11017833Y-10847862D01*
X10922595Y-10866910D01*
X11094024Y-10924052D02*
X11113071Y-10933576D01*
X11151167Y-10933576D01*
X11170214Y-10924052D01*
X11179738Y-10905005D01*
X11179738Y-10895481D01*
X11170214Y-10876433D01*
X11151167Y-10866910D01*
X11122595Y-10866910D01*
X11103548Y-10857386D01*
X11094024Y-10838338D01*
X11094024Y-10828814D01*
X11103548Y-10809767D01*
X11122595Y-10800243D01*
X11151167Y-10800243D01*
X11170214Y-10809767D01*
X11246405Y-11009767D02*
X11255928Y-11000243D01*
X11274976Y-10971671D01*
X11284500Y-10952624D01*
X11294024Y-10924052D01*
X11303548Y-10876433D01*
X11303548Y-10838338D01*
X11294024Y-10790719D01*
X11284500Y-10762148D01*
X11274976Y-10743100D01*
X11255928Y-10714529D01*
X11246405Y-10705005D01*
X11608309Y-11009767D02*
X11598786Y-11000243D01*
X11579738Y-10971671D01*
X11570214Y-10952624D01*
X11560690Y-10924052D01*
X11551167Y-10876433D01*
X11551167Y-10838338D01*
X11560690Y-10790719D01*
X11570214Y-10762148D01*
X11579738Y-10743100D01*
X11598786Y-10714529D01*
X11608309Y-10705005D01*
X11684500Y-10800243D02*
X11684500Y-10933576D01*
X11684500Y-10819290D02*
X11694024Y-10809767D01*
X11713071Y-10800243D01*
X11741643Y-10800243D01*
X11760690Y-10809767D01*
X11770214Y-10828814D01*
X11770214Y-10933576D01*
X11894024Y-10933576D02*
X11874976Y-10924052D01*
X11865452Y-10914529D01*
X11855928Y-10895481D01*
X11855928Y-10838338D01*
X11865452Y-10819290D01*
X11874976Y-10809767D01*
X11894024Y-10800243D01*
X11922595Y-10800243D01*
X11941643Y-10809767D01*
X11951167Y-10819290D01*
X11960690Y-10838338D01*
X11960690Y-10895481D01*
X11951167Y-10914529D01*
X11941643Y-10924052D01*
X11922595Y-10933576D01*
X11894024Y-10933576D01*
X12017833Y-10800243D02*
X12094024Y-10800243D01*
X12046405Y-10733576D02*
X12046405Y-10905005D01*
X12055928Y-10924052D01*
X12074976Y-10933576D01*
X12094024Y-10933576D01*
X12313071Y-10800243D02*
X12313071Y-11000243D01*
X12313071Y-10809767D02*
X12332119Y-10800243D01*
X12370214Y-10800243D01*
X12389262Y-10809767D01*
X12398786Y-10819290D01*
X12408309Y-10838338D01*
X12408309Y-10895481D01*
X12398786Y-10914529D01*
X12389262Y-10924052D01*
X12370214Y-10933576D01*
X12332119Y-10933576D01*
X12313071Y-10924052D01*
X12522595Y-10933576D02*
X12503548Y-10924052D01*
X12494024Y-10905005D01*
X12494024Y-10733576D01*
X12684500Y-10933576D02*
X12684500Y-10828814D01*
X12674976Y-10809767D01*
X12655928Y-10800243D01*
X12617833Y-10800243D01*
X12598786Y-10809767D01*
X12684500Y-10924052D02*
X12665452Y-10933576D01*
X12617833Y-10933576D01*
X12598786Y-10924052D01*
X12589262Y-10905005D01*
X12589262Y-10885957D01*
X12598786Y-10866910D01*
X12617833Y-10857386D01*
X12665452Y-10857386D01*
X12684500Y-10847862D01*
X12751167Y-10800243D02*
X12827357Y-10800243D01*
X12779738Y-10733576D02*
X12779738Y-10905005D01*
X12789262Y-10924052D01*
X12808309Y-10933576D01*
X12827357Y-10933576D01*
X12970214Y-10924052D02*
X12951167Y-10933576D01*
X12913071Y-10933576D01*
X12894024Y-10924052D01*
X12884500Y-10905005D01*
X12884500Y-10828814D01*
X12894024Y-10809767D01*
X12913071Y-10800243D01*
X12951167Y-10800243D01*
X12970214Y-10809767D01*
X12979738Y-10828814D01*
X12979738Y-10847862D01*
X12884500Y-10866910D01*
X13151167Y-10933576D02*
X13151167Y-10733576D01*
X13151167Y-10924052D02*
X13132119Y-10933576D01*
X13094024Y-10933576D01*
X13074976Y-10924052D01*
X13065452Y-10914529D01*
X13055928Y-10895481D01*
X13055928Y-10838338D01*
X13065452Y-10819290D01*
X13074976Y-10809767D01*
X13094024Y-10800243D01*
X13132119Y-10800243D01*
X13151167Y-10809767D01*
X13227357Y-11009767D02*
X13236881Y-11000243D01*
X13255928Y-10971671D01*
X13265452Y-10952624D01*
X13274976Y-10924052D01*
X13284500Y-10876433D01*
X13284500Y-10838338D01*
X13274976Y-10790719D01*
X13265452Y-10762148D01*
X13255928Y-10743100D01*
X13236881Y-10714529D01*
X13227357Y-10705005D01*
M02*
