G04 #@! TF.GenerationSoftware,KiCad,Pcbnew,(6.0.1-0)*
G04 #@! TF.CreationDate,2023-03-27T10:58:59-07:00*
G04 #@! TF.ProjectId,daughterboard,64617567-6874-4657-9262-6f6172642e6b,v0.1*
G04 #@! TF.SameCoordinates,Original*
G04 #@! TF.FileFunction,Copper,L1,Top*
G04 #@! TF.FilePolarity,Positive*
%FSLAX46Y46*%
G04 Gerber Fmt 4.6, Leading zero omitted, Abs format (unit mm)*
G04 Created by KiCad (PCBNEW (6.0.1-0)) date 2023-03-27 10:58:59*
%MOMM*%
%LPD*%
G01*
G04 APERTURE LIST*
G04 #@! TA.AperFunction,ComponentPad*
%ADD10R,2.200000X2.200000*%
G04 #@! TD*
G04 #@! TA.AperFunction,ComponentPad*
%ADD11O,2.200000X2.200000*%
G04 #@! TD*
G04 #@! TA.AperFunction,ComponentPad*
%ADD12R,2.000000X2.000000*%
G04 #@! TD*
G04 #@! TA.AperFunction,ComponentPad*
%ADD13C,2.000000*%
G04 #@! TD*
G04 #@! TA.AperFunction,ComponentPad*
%ADD14R,2.000000X1.905000*%
G04 #@! TD*
G04 #@! TA.AperFunction,ComponentPad*
%ADD15O,2.000000X1.905000*%
G04 #@! TD*
G04 #@! TA.AperFunction,SMDPad,CuDef*
%ADD16R,0.610000X2.000000*%
G04 #@! TD*
G04 #@! TA.AperFunction,SMDPad,CuDef*
%ADD17R,2.680000X3.600000*%
G04 #@! TD*
G04 #@! TA.AperFunction,ComponentPad*
%ADD18R,1.700000X1.700000*%
G04 #@! TD*
G04 #@! TA.AperFunction,ComponentPad*
%ADD19O,1.700000X1.700000*%
G04 #@! TD*
G04 #@! TA.AperFunction,ComponentPad*
%ADD20C,1.700000*%
G04 #@! TD*
G04 #@! TA.AperFunction,SMDPad,CuDef*
%ADD21R,1.500000X1.200000*%
G04 #@! TD*
G04 #@! TA.AperFunction,ComponentPad*
%ADD22C,1.600000*%
G04 #@! TD*
G04 #@! TA.AperFunction,SMDPad,CuDef*
%ADD23R,2.900000X0.500000*%
G04 #@! TD*
G04 #@! TA.AperFunction,ViaPad*
%ADD24C,0.800000*%
G04 #@! TD*
G04 #@! TA.AperFunction,Conductor*
%ADD25C,0.381000*%
G04 #@! TD*
G04 #@! TA.AperFunction,Conductor*
%ADD26C,0.250000*%
G04 #@! TD*
G04 APERTURE END LIST*
D10*
X194691000Y-87884000D03*
D11*
X204851000Y-87884000D03*
D12*
X70739000Y-63330785D03*
D13*
X70739000Y-58330785D03*
D14*
X189103000Y-85852000D03*
D15*
X189103000Y-83312000D03*
X189103000Y-80772000D03*
D16*
X202550000Y-60800000D03*
X201550000Y-60800000D03*
X200550000Y-60800000D03*
X199550000Y-60800000D03*
X198550000Y-60800000D03*
X197550000Y-60800000D03*
X196550000Y-60800000D03*
X195550000Y-60800000D03*
X194550000Y-60800000D03*
X193550000Y-60800000D03*
X192550000Y-60800000D03*
X191550000Y-60800000D03*
X190550000Y-60800000D03*
X189550000Y-60800000D03*
X188550000Y-60800000D03*
X187550000Y-60800000D03*
X186550000Y-60800000D03*
X185550000Y-60800000D03*
X184550000Y-60800000D03*
X183550000Y-60800000D03*
X182550000Y-60800000D03*
X181550000Y-60800000D03*
X180550000Y-60800000D03*
X179550000Y-60800000D03*
X178550000Y-60800000D03*
X177550000Y-60800000D03*
X176550000Y-60800000D03*
X175550000Y-60800000D03*
X174550000Y-60800000D03*
X173550000Y-60800000D03*
D17*
X170560000Y-58000000D03*
X205540000Y-58000000D03*
D18*
X195067000Y-78105000D03*
D19*
X197607000Y-78105000D03*
D18*
X81100000Y-48768000D03*
D20*
X81100000Y-51308000D03*
X81100000Y-53848000D03*
X81100000Y-56388000D03*
X81100000Y-58928000D03*
X81100000Y-61468000D03*
X81100000Y-64008000D03*
X81100000Y-66548000D03*
X81100000Y-69088000D03*
X81100000Y-71628000D03*
X81100000Y-74168000D03*
X81100000Y-76708000D03*
X81100000Y-79248000D03*
X81100000Y-81788000D03*
X81100000Y-84328000D03*
X81100000Y-86868000D03*
X81100000Y-89408000D03*
X81100000Y-91948000D03*
X81100000Y-94488000D03*
X81100000Y-97028000D03*
X96340000Y-97028000D03*
X96340000Y-94488000D03*
X96340000Y-91948000D03*
X96340000Y-89408000D03*
X96340000Y-86868000D03*
X96340000Y-84328000D03*
X96340000Y-81788000D03*
X96340000Y-79248000D03*
X96340000Y-76708000D03*
X96340000Y-74168000D03*
X96340000Y-71628000D03*
X96340000Y-69088000D03*
X96340000Y-66548000D03*
X96340000Y-64008000D03*
X96340000Y-61468000D03*
X96340000Y-58928000D03*
X96340000Y-56388000D03*
X96340000Y-53848000D03*
X96340000Y-51308000D03*
X96340000Y-48768000D03*
X92532000Y-93217000D03*
X89992000Y-93217000D03*
X87452000Y-93217000D03*
X84912000Y-93217000D03*
D21*
X72343000Y-77470000D03*
D22*
X74893000Y-77470000D03*
D23*
X73493000Y-77470000D03*
X68493000Y-77470000D03*
D22*
X67093000Y-77470000D03*
D21*
X69643000Y-77470000D03*
D22*
X201766000Y-82931000D03*
D21*
X199216000Y-82931000D03*
D23*
X200366000Y-82931000D03*
D21*
X196516000Y-82931000D03*
D22*
X193966000Y-82931000D03*
D23*
X195366000Y-82931000D03*
D24*
X88773000Y-97155000D03*
X172339000Y-61341000D03*
X91948000Y-87757000D03*
X76454000Y-80518000D03*
X101943398Y-81404032D03*
X100944446Y-81437201D03*
X101543609Y-59261924D03*
D25*
X194691000Y-87884000D02*
X197866000Y-84709000D01*
X197866000Y-84709000D02*
X197866000Y-78364000D01*
X197866000Y-78364000D02*
X197607000Y-78105000D01*
D26*
X204851000Y-83687990D02*
X198093499Y-76930489D01*
X198093499Y-76930489D02*
X196241511Y-76930489D01*
X204851000Y-87884000D02*
X204851000Y-83687990D01*
X196241511Y-76930489D02*
X195067000Y-78105000D01*
X75141785Y-58928000D02*
X70739000Y-63330785D01*
X81100000Y-58928000D02*
X75141785Y-58928000D01*
X201550000Y-61754022D02*
X201550000Y-60800000D01*
X189386503Y-73917519D02*
X201550000Y-61754022D01*
X101943398Y-80685087D02*
X108710966Y-73917519D01*
X101943398Y-81404032D02*
X101943398Y-80685087D01*
X108710966Y-73917519D02*
X189386503Y-73917519D01*
X188836023Y-73467999D02*
X200550000Y-61754022D01*
X100944446Y-81437201D02*
X100944446Y-81048321D01*
X108524768Y-73467999D02*
X188836023Y-73467999D01*
X200550000Y-61754022D02*
X200550000Y-60800000D01*
X100944446Y-81048321D02*
X108524768Y-73467999D01*
X100189746Y-81167303D02*
X108338570Y-73018479D01*
X188285543Y-73018479D02*
X199550000Y-61754022D01*
X108338570Y-73018479D02*
X188285543Y-73018479D01*
X100189746Y-90638254D02*
X100189746Y-81167303D01*
X199550000Y-61754022D02*
X199550000Y-60800000D01*
X96340000Y-94488000D02*
X100189746Y-90638254D01*
X96340000Y-91948000D02*
X96340000Y-91747717D01*
X99740226Y-88347491D02*
X99740226Y-80981105D01*
X187735063Y-72568959D02*
X198550000Y-61754022D01*
X96340000Y-91747717D02*
X99740226Y-88347491D01*
X108152372Y-72568959D02*
X187735063Y-72568959D01*
X198550000Y-61754022D02*
X198550000Y-60800000D01*
X99740226Y-80981105D02*
X108152372Y-72568959D01*
X197550000Y-61754022D02*
X197550000Y-60800000D01*
X99290706Y-80794907D02*
X107966174Y-72119439D01*
X99290706Y-88161294D02*
X99290706Y-80794907D01*
X187184583Y-72119439D02*
X197550000Y-61754022D01*
X89992000Y-93217000D02*
X92626489Y-90582511D01*
X92626489Y-90582511D02*
X96869489Y-90582511D01*
X96869489Y-90582511D02*
X99290706Y-88161294D01*
X107966174Y-72119439D02*
X187184583Y-72119439D01*
X196550000Y-61754022D02*
X196550000Y-60800000D01*
X98841186Y-80608709D02*
X107779976Y-71669919D01*
X186634103Y-71669919D02*
X196550000Y-61754022D01*
X107779976Y-71669919D02*
X186634103Y-71669919D01*
X96340000Y-89408000D02*
X98841186Y-86906814D01*
X98841186Y-86906814D02*
X98841186Y-80608709D01*
X186083623Y-71220399D02*
X195550000Y-61754022D01*
X107593778Y-71220399D02*
X186083623Y-71220399D01*
X195550000Y-61754022D02*
X195550000Y-60800000D01*
X98391666Y-80422511D02*
X107593778Y-71220399D01*
X96044479Y-80422511D02*
X98391666Y-80422511D01*
X87452000Y-93217000D02*
X87452000Y-89014990D01*
X87452000Y-89014990D02*
X96044479Y-80422511D01*
X185533143Y-70770879D02*
X194550000Y-61754022D01*
X96340000Y-79248000D02*
X98930460Y-79248000D01*
X107407581Y-70770879D02*
X185533143Y-70770879D01*
X194550000Y-61754022D02*
X194550000Y-60800000D01*
X98930460Y-79248000D02*
X107407581Y-70770879D01*
X92434511Y-78073489D02*
X99469254Y-78073489D01*
X107221384Y-70321359D02*
X184982663Y-70321359D01*
X193550000Y-61754022D02*
X193550000Y-60800000D01*
X184982663Y-70321359D02*
X193550000Y-61754022D01*
X81100000Y-89408000D02*
X92434511Y-78073489D01*
X99469254Y-78073489D02*
X107221384Y-70321359D01*
X96340000Y-76708000D02*
X100199025Y-76708000D01*
X192550000Y-61754022D02*
X192550000Y-60800000D01*
X184432183Y-69871839D02*
X192550000Y-61754022D01*
X100199025Y-76708000D02*
X107035186Y-69871839D01*
X107035186Y-69871839D02*
X184432183Y-69871839D01*
X92625489Y-75342511D02*
X97059511Y-75342511D01*
X183881703Y-69422319D02*
X191550000Y-61754022D01*
X100928797Y-75342511D02*
X106848989Y-69422319D01*
X106848989Y-69422319D02*
X183881703Y-69422319D01*
X191550000Y-61754022D02*
X191550000Y-60800000D01*
X97059511Y-75342511D02*
X100928797Y-75342511D01*
X81100000Y-86868000D02*
X92625489Y-75342511D01*
X183331223Y-68972799D02*
X190550000Y-61754022D01*
X81100000Y-84328000D02*
X92625489Y-72802511D01*
X106662791Y-68972799D02*
X183331223Y-68972799D01*
X92625489Y-72802511D02*
X102833079Y-72802511D01*
X102833079Y-72802511D02*
X106662791Y-68972799D01*
X190550000Y-61754022D02*
X190550000Y-60800000D01*
X103371872Y-71628000D02*
X106476593Y-68523279D01*
X96340000Y-71628000D02*
X103371872Y-71628000D01*
X182780743Y-68523279D02*
X189550000Y-61754022D01*
X189550000Y-61754022D02*
X189550000Y-60800000D01*
X106476593Y-68523279D02*
X182780743Y-68523279D01*
X188550000Y-61754022D02*
X188550000Y-60800000D01*
X182230263Y-68073759D02*
X188550000Y-61754022D01*
X106290396Y-68073759D02*
X182230263Y-68073759D01*
X92625489Y-70262511D02*
X104101644Y-70262511D01*
X81100000Y-81788000D02*
X92625489Y-70262511D01*
X104101644Y-70262511D02*
X106290396Y-68073759D01*
X181679783Y-67624239D02*
X187550000Y-61754022D01*
X187550000Y-61754022D02*
X187550000Y-60800000D01*
X104640437Y-69088000D02*
X106104198Y-67624239D01*
X96340000Y-69088000D02*
X104640437Y-69088000D01*
X106104198Y-67624239D02*
X181679783Y-67624239D01*
X92530000Y-67818000D02*
X105274719Y-67818000D01*
X81100000Y-79248000D02*
X92530000Y-67818000D01*
X186550000Y-61754022D02*
X186550000Y-60800000D01*
X105918000Y-67174719D02*
X181129303Y-67174719D01*
X105274719Y-67818000D02*
X105918000Y-67174719D01*
X181129303Y-67174719D02*
X186550000Y-61754022D01*
X96340000Y-66548000D02*
X96517199Y-66725199D01*
X185550000Y-61754022D02*
X185550000Y-60800000D01*
X96517199Y-66725199D02*
X180578823Y-66725199D01*
X180578823Y-66725199D02*
X185550000Y-61754022D01*
X92625489Y-65182511D02*
X104674489Y-65182511D01*
X81100000Y-76708000D02*
X92625489Y-65182511D01*
X105767658Y-66275679D02*
X180028343Y-66275679D01*
X184550000Y-61754022D02*
X184550000Y-60800000D01*
X104674489Y-65182511D02*
X105767658Y-66275679D01*
X180028343Y-66275679D02*
X184550000Y-61754022D01*
X105953855Y-65826159D02*
X179409558Y-65826160D01*
X96340000Y-64008000D02*
X104135696Y-64008000D01*
X183550000Y-61685718D02*
X183550000Y-60800000D01*
X179409558Y-65826160D02*
X183550000Y-61685718D01*
X104135696Y-64008000D02*
X105953855Y-65826159D01*
X106140055Y-65376640D02*
X178927382Y-65376640D01*
X92625489Y-62642511D02*
X103405923Y-62642511D01*
X81100000Y-74168000D02*
X92625489Y-62642511D01*
X178927382Y-65376640D02*
X182550000Y-61754022D01*
X103405923Y-62642511D02*
X106140055Y-65376640D01*
X182550000Y-61754022D02*
X182550000Y-60800000D01*
X106326252Y-64927120D02*
X178376902Y-64927120D01*
X178376902Y-64927120D02*
X181550000Y-61754022D01*
X181550000Y-61754022D02*
X181550000Y-60800000D01*
X96340000Y-61468000D02*
X97255969Y-60552031D01*
X101951160Y-60552031D02*
X106326252Y-64927120D01*
X97255969Y-60552031D02*
X101951160Y-60552031D01*
X92625489Y-60102511D02*
X102137358Y-60102511D01*
X102137358Y-60102511D02*
X106512449Y-64477600D01*
X81100000Y-71628000D02*
X92625489Y-60102511D01*
X180550000Y-61754022D02*
X180550000Y-60800000D01*
X177826422Y-64477600D02*
X180550000Y-61754022D01*
X106512449Y-64477600D02*
X177826422Y-64477600D01*
X101543609Y-59261924D02*
X101932488Y-59261924D01*
X179550000Y-61754022D02*
X179550000Y-60800000D01*
X106698646Y-64028080D02*
X177275942Y-64028080D01*
X177275942Y-64028080D02*
X179550000Y-61754022D01*
X101932488Y-59261924D02*
X106698646Y-64028080D01*
X99694282Y-56388000D02*
X106884843Y-63578560D01*
X106884843Y-63578560D02*
X176725462Y-63578560D01*
X178550000Y-61754022D02*
X178550000Y-60800000D01*
X176725462Y-63578560D02*
X178550000Y-61754022D01*
X96340000Y-56388000D02*
X99694282Y-56388000D01*
X81100000Y-56388000D02*
X82274511Y-55213489D01*
X107071040Y-63129040D02*
X176174982Y-63129040D01*
X177550000Y-61754022D02*
X177550000Y-60800000D01*
X176174982Y-63129040D02*
X177550000Y-61754022D01*
X99155489Y-55213489D02*
X107071040Y-63129040D01*
X82274511Y-55213489D02*
X99155489Y-55213489D01*
X175624502Y-62679520D02*
X107257238Y-62679520D01*
X176550000Y-61754022D02*
X175624502Y-62679520D01*
X82274511Y-52673489D02*
X96170511Y-52673489D01*
X97251207Y-52673489D02*
X96170511Y-52673489D01*
X81100000Y-53848000D02*
X82274511Y-52673489D01*
X176550000Y-60800000D02*
X176550000Y-61754022D01*
X107257238Y-62679520D02*
X97251207Y-52673489D01*
X175550000Y-61686000D02*
X175550000Y-60800000D01*
X97123489Y-50133489D02*
X98044000Y-51054000D01*
X98044000Y-51054000D02*
X98044000Y-52830564D01*
X175006000Y-62230000D02*
X175550000Y-61686000D01*
X107443436Y-62230000D02*
X175006000Y-62230000D01*
X81100000Y-51308000D02*
X82274511Y-50133489D01*
X82274511Y-50133489D02*
X97123489Y-50133489D01*
X98044000Y-52830564D02*
X107443436Y-62230000D01*
X173990000Y-59055000D02*
X174550000Y-59615000D01*
X81100000Y-48768000D02*
X82274511Y-47593489D01*
X104775000Y-49784000D02*
X104775000Y-58925846D01*
X102584489Y-47593489D02*
X104775000Y-49784000D01*
X82274511Y-47593489D02*
X102584489Y-47593489D01*
X107629634Y-61780480D02*
X170615498Y-61780480D01*
X173340978Y-59055000D02*
X173990000Y-59055000D01*
X170615498Y-61780480D02*
X173340978Y-59055000D01*
X104775000Y-58925846D02*
X107629634Y-61780480D01*
X174550000Y-59615000D02*
X174550000Y-60800000D01*
X189761511Y-95662511D02*
X201766000Y-83658022D01*
X67093000Y-77470000D02*
X67093000Y-82142010D01*
X80613501Y-95662511D02*
X189761511Y-95662511D01*
X67093000Y-82142010D02*
X80613501Y-95662511D01*
X201766000Y-83658022D02*
X201766000Y-82931000D01*
G04 #@! TA.AperFunction,Conductor*
G36*
X95065291Y-96308013D02*
G01*
X95111784Y-96361669D01*
X95121888Y-96431943D01*
X95111364Y-96467262D01*
X95072806Y-96549950D01*
X95066097Y-96564337D01*
X95064675Y-96569645D01*
X95064674Y-96569647D01*
X95021418Y-96731082D01*
X95004937Y-96792592D01*
X94984341Y-97028000D01*
X95004937Y-97263408D01*
X95066097Y-97491663D01*
X95068419Y-97496643D01*
X95068420Y-97496645D01*
X95149742Y-97671038D01*
X95165965Y-97705829D01*
X95301505Y-97899401D01*
X95468599Y-98066495D01*
X95473111Y-98069654D01*
X95473113Y-98069656D01*
X95483298Y-98076788D01*
X95527626Y-98132246D01*
X95534934Y-98202865D01*
X95502902Y-98266225D01*
X95441700Y-98302209D01*
X95411026Y-98306000D01*
X82028974Y-98306000D01*
X81960853Y-98285998D01*
X81914360Y-98232342D01*
X81904256Y-98162068D01*
X81933750Y-98097488D01*
X81956702Y-98076788D01*
X81966887Y-98069656D01*
X81966889Y-98069654D01*
X81971401Y-98066495D01*
X82138495Y-97899401D01*
X82274035Y-97705829D01*
X82290259Y-97671038D01*
X82371580Y-97496645D01*
X82371581Y-97496643D01*
X82373903Y-97491663D01*
X82435063Y-97263408D01*
X82455659Y-97028000D01*
X82435063Y-96792592D01*
X82418582Y-96731082D01*
X82375326Y-96569647D01*
X82375325Y-96569645D01*
X82373903Y-96564337D01*
X82367195Y-96549950D01*
X82328636Y-96467262D01*
X82317974Y-96397070D01*
X82346953Y-96332257D01*
X82406373Y-96293401D01*
X82442830Y-96288011D01*
X94997170Y-96288011D01*
X95065291Y-96308013D01*
G37*
G04 #@! TD.AperFunction*
G04 #@! TA.AperFunction,Conductor*
G36*
X79764796Y-47510002D02*
G01*
X79811289Y-47563658D01*
X79821393Y-47633932D01*
X79808574Y-47672374D01*
X79806474Y-47675176D01*
X79803324Y-47683580D01*
X79803323Y-47683581D01*
X79767065Y-47780302D01*
X79756149Y-47809420D01*
X79749500Y-47870623D01*
X79749501Y-49665376D01*
X79749870Y-49668770D01*
X79749870Y-49668776D01*
X79752534Y-49693296D01*
X79756149Y-49726580D01*
X79806474Y-49860824D01*
X79811854Y-49868003D01*
X79811856Y-49868006D01*
X79872095Y-49948381D01*
X79892454Y-49975546D01*
X79899635Y-49980928D01*
X79999994Y-50056144D01*
X79999997Y-50056146D01*
X80007176Y-50061526D01*
X80015580Y-50064676D01*
X80015581Y-50064677D01*
X80136248Y-50109912D01*
X80193013Y-50152553D01*
X80217714Y-50219114D01*
X80202507Y-50288463D01*
X80181115Y-50316989D01*
X80061505Y-50436599D01*
X79925965Y-50630171D01*
X79923644Y-50635149D01*
X79923642Y-50635152D01*
X79835547Y-50824071D01*
X79826097Y-50844337D01*
X79824675Y-50849645D01*
X79824674Y-50849647D01*
X79810385Y-50902976D01*
X79764937Y-51072592D01*
X79744341Y-51308000D01*
X79764937Y-51543408D01*
X79766361Y-51548722D01*
X79766361Y-51548723D01*
X79791046Y-51640848D01*
X79826097Y-51771663D01*
X79828419Y-51776643D01*
X79828420Y-51776645D01*
X79903947Y-51938611D01*
X79925965Y-51985829D01*
X80061505Y-52179401D01*
X80228599Y-52346495D01*
X80233107Y-52349652D01*
X80233110Y-52349654D01*
X80411820Y-52474788D01*
X80456148Y-52530245D01*
X80463457Y-52600865D01*
X80431426Y-52664225D01*
X80411822Y-52681211D01*
X80228599Y-52809505D01*
X80061505Y-52976599D01*
X79925965Y-53170171D01*
X79923644Y-53175149D01*
X79923642Y-53175152D01*
X79844770Y-53344292D01*
X79826097Y-53384337D01*
X79824675Y-53389645D01*
X79824674Y-53389647D01*
X79810385Y-53442976D01*
X79764937Y-53612592D01*
X79744341Y-53848000D01*
X79764937Y-54083408D01*
X79766361Y-54088722D01*
X79766361Y-54088723D01*
X79793041Y-54188293D01*
X79826097Y-54311663D01*
X79828419Y-54316643D01*
X79828420Y-54316645D01*
X79854650Y-54372894D01*
X79925965Y-54525829D01*
X80061505Y-54719401D01*
X80228599Y-54886495D01*
X80233107Y-54889652D01*
X80233110Y-54889654D01*
X80411820Y-55014788D01*
X80456148Y-55070245D01*
X80463457Y-55140865D01*
X80431426Y-55204225D01*
X80411822Y-55221211D01*
X80228599Y-55349505D01*
X80061505Y-55516599D01*
X79925965Y-55710171D01*
X79923644Y-55715149D01*
X79923642Y-55715152D01*
X79831548Y-55912647D01*
X79826097Y-55924337D01*
X79824675Y-55929645D01*
X79824674Y-55929647D01*
X79810385Y-55982976D01*
X79764937Y-56152592D01*
X79744341Y-56388000D01*
X79764937Y-56623408D01*
X79826097Y-56851663D01*
X79828419Y-56856643D01*
X79828420Y-56856645D01*
X79918773Y-57050405D01*
X79925965Y-57065829D01*
X80061505Y-57259401D01*
X80228599Y-57426495D01*
X80233107Y-57429652D01*
X80233110Y-57429654D01*
X80411820Y-57554788D01*
X80456148Y-57610245D01*
X80463457Y-57680865D01*
X80431426Y-57744225D01*
X80411822Y-57761211D01*
X80228599Y-57889505D01*
X80061505Y-58056599D01*
X79929119Y-58245666D01*
X79926946Y-58248770D01*
X79871489Y-58293099D01*
X79823733Y-58302500D01*
X75219483Y-58302500D01*
X75208522Y-58301983D01*
X75201117Y-58300328D01*
X75139258Y-58302272D01*
X75133961Y-58302438D01*
X75130004Y-58302500D01*
X75102435Y-58302500D01*
X75098500Y-58302997D01*
X75098390Y-58303004D01*
X75086719Y-58303922D01*
X75055651Y-58304898D01*
X75043158Y-58305291D01*
X75024069Y-58310837D01*
X75004723Y-58314844D01*
X74984993Y-58317336D01*
X74944462Y-58333384D01*
X74933261Y-58337219D01*
X74891395Y-58349382D01*
X74874282Y-58359502D01*
X74856537Y-58368195D01*
X74838053Y-58375514D01*
X74802788Y-58401136D01*
X74792880Y-58407643D01*
X74762187Y-58425794D01*
X74762182Y-58425798D01*
X74755364Y-58429830D01*
X74741311Y-58443883D01*
X74726278Y-58456723D01*
X74710198Y-58468406D01*
X74705145Y-58474514D01*
X74682420Y-58501984D01*
X74674430Y-58510764D01*
X71391814Y-61793380D01*
X71329502Y-61827406D01*
X71302719Y-61830285D01*
X69793859Y-61830286D01*
X69691624Y-61830286D01*
X69688230Y-61830655D01*
X69688224Y-61830655D01*
X69638278Y-61836080D01*
X69638274Y-61836081D01*
X69630420Y-61836934D01*
X69496176Y-61887259D01*
X69488997Y-61892639D01*
X69488994Y-61892641D01*
X69388635Y-61967857D01*
X69381454Y-61973239D01*
X69376072Y-61980420D01*
X69300856Y-62080779D01*
X69300854Y-62080782D01*
X69295474Y-62087961D01*
X69245149Y-62222205D01*
X69238500Y-62283408D01*
X69238501Y-64378161D01*
X69245149Y-64439365D01*
X69295474Y-64573609D01*
X69300854Y-64580788D01*
X69300856Y-64580791D01*
X69375436Y-64680301D01*
X69381454Y-64688331D01*
X69388635Y-64693713D01*
X69488994Y-64768929D01*
X69488997Y-64768931D01*
X69496176Y-64774311D01*
X69585561Y-64807819D01*
X69623025Y-64821864D01*
X69623027Y-64821864D01*
X69630420Y-64824636D01*
X69638270Y-64825489D01*
X69638271Y-64825489D01*
X69688217Y-64830915D01*
X69691623Y-64831285D01*
X70738846Y-64831285D01*
X71786376Y-64831284D01*
X71789770Y-64830915D01*
X71789776Y-64830915D01*
X71839722Y-64825490D01*
X71839726Y-64825489D01*
X71847580Y-64824636D01*
X71981824Y-64774311D01*
X71989003Y-64768931D01*
X71989006Y-64768929D01*
X72089365Y-64693713D01*
X72096546Y-64688331D01*
X72102564Y-64680301D01*
X72177144Y-64580791D01*
X72177146Y-64580788D01*
X72182526Y-64573609D01*
X72232851Y-64439365D01*
X72239500Y-64378162D01*
X72239499Y-62767066D01*
X72259501Y-62698945D01*
X72276404Y-62677971D01*
X75363971Y-59590405D01*
X75426283Y-59556379D01*
X75453066Y-59553500D01*
X79823733Y-59553500D01*
X79891854Y-59573502D01*
X79926946Y-59607230D01*
X80061505Y-59799401D01*
X80228599Y-59966495D01*
X80233107Y-59969652D01*
X80233110Y-59969654D01*
X80411820Y-60094788D01*
X80456148Y-60150245D01*
X80463457Y-60220865D01*
X80431426Y-60284225D01*
X80411822Y-60301211D01*
X80228599Y-60429505D01*
X80061505Y-60596599D01*
X79925965Y-60790171D01*
X79826097Y-61004337D01*
X79764937Y-61232592D01*
X79744341Y-61468000D01*
X79764937Y-61703408D01*
X79766361Y-61708722D01*
X79766361Y-61708723D01*
X79810400Y-61873079D01*
X79826097Y-61931663D01*
X79828419Y-61936643D01*
X79828420Y-61936645D01*
X79911888Y-62115640D01*
X79925965Y-62145829D01*
X80061505Y-62339401D01*
X80228599Y-62506495D01*
X80233107Y-62509652D01*
X80233110Y-62509654D01*
X80411820Y-62634788D01*
X80456148Y-62690245D01*
X80463457Y-62760865D01*
X80431426Y-62824225D01*
X80411822Y-62841211D01*
X80228599Y-62969505D01*
X80061505Y-63136599D01*
X79925965Y-63330171D01*
X79826097Y-63544337D01*
X79764937Y-63772592D01*
X79744341Y-64008000D01*
X79764937Y-64243408D01*
X79766361Y-64248722D01*
X79766361Y-64248723D01*
X79801955Y-64381561D01*
X79826097Y-64471663D01*
X79828419Y-64476643D01*
X79828420Y-64476645D01*
X79911888Y-64655640D01*
X79925965Y-64685829D01*
X80061505Y-64879401D01*
X80228599Y-65046495D01*
X80233107Y-65049652D01*
X80233110Y-65049654D01*
X80411820Y-65174788D01*
X80456148Y-65230245D01*
X80463457Y-65300865D01*
X80431426Y-65364225D01*
X80411822Y-65381211D01*
X80228599Y-65509505D01*
X80061505Y-65676599D01*
X79925965Y-65870171D01*
X79923644Y-65875149D01*
X79923642Y-65875152D01*
X79844563Y-66044736D01*
X79826097Y-66084337D01*
X79824675Y-66089645D01*
X79824674Y-66089647D01*
X79790301Y-66217931D01*
X79764937Y-66312592D01*
X79744341Y-66548000D01*
X79764937Y-66783408D01*
X79826097Y-67011663D01*
X79828419Y-67016643D01*
X79828420Y-67016645D01*
X79918702Y-67210253D01*
X79925965Y-67225829D01*
X80061505Y-67419401D01*
X80228599Y-67586495D01*
X80233107Y-67589652D01*
X80233110Y-67589654D01*
X80411820Y-67714788D01*
X80456148Y-67770245D01*
X80463457Y-67840865D01*
X80431426Y-67904225D01*
X80411822Y-67921211D01*
X80228599Y-68049505D01*
X80061505Y-68216599D01*
X79925965Y-68410171D01*
X79826097Y-68624337D01*
X79764937Y-68852592D01*
X79744341Y-69088000D01*
X79764937Y-69323408D01*
X79766361Y-69328722D01*
X79766361Y-69328723D01*
X79809441Y-69489500D01*
X79826097Y-69551663D01*
X79828419Y-69556643D01*
X79828420Y-69556645D01*
X79911888Y-69735640D01*
X79925965Y-69765829D01*
X80061505Y-69959401D01*
X80228599Y-70126495D01*
X80233107Y-70129652D01*
X80233110Y-70129654D01*
X80411820Y-70254788D01*
X80456148Y-70310245D01*
X80463457Y-70380865D01*
X80431426Y-70444225D01*
X80411822Y-70461211D01*
X80228599Y-70589505D01*
X80061505Y-70756599D01*
X79925965Y-70950171D01*
X79923644Y-70955149D01*
X79923642Y-70955152D01*
X79884552Y-71038981D01*
X79826097Y-71164337D01*
X79824675Y-71169645D01*
X79824674Y-71169647D01*
X79766362Y-71387274D01*
X79764937Y-71392592D01*
X79744341Y-71628000D01*
X79764937Y-71863408D01*
X79766361Y-71868722D01*
X79766361Y-71868723D01*
X79794314Y-71973044D01*
X79826097Y-72091663D01*
X79828419Y-72096643D01*
X79828420Y-72096645D01*
X79911888Y-72275640D01*
X79925965Y-72305829D01*
X80061505Y-72499401D01*
X80228599Y-72666495D01*
X80233107Y-72669652D01*
X80233110Y-72669654D01*
X80411820Y-72794788D01*
X80456148Y-72850245D01*
X80463457Y-72920865D01*
X80431426Y-72984225D01*
X80411822Y-73001211D01*
X80228599Y-73129505D01*
X80061505Y-73296599D01*
X79925965Y-73490171D01*
X79923644Y-73495149D01*
X79923642Y-73495152D01*
X79828422Y-73699350D01*
X79826097Y-73704337D01*
X79764937Y-73932592D01*
X79744341Y-74168000D01*
X79764937Y-74403408D01*
X79766361Y-74408722D01*
X79766361Y-74408723D01*
X79810400Y-74573079D01*
X79826097Y-74631663D01*
X79828419Y-74636643D01*
X79828420Y-74636645D01*
X79911888Y-74815640D01*
X79925965Y-74845829D01*
X80061505Y-75039401D01*
X80228599Y-75206495D01*
X80233107Y-75209652D01*
X80233110Y-75209654D01*
X80411820Y-75334788D01*
X80456148Y-75390245D01*
X80463457Y-75460865D01*
X80431426Y-75524225D01*
X80411822Y-75541211D01*
X80228599Y-75669505D01*
X80061505Y-75836599D01*
X79925965Y-76030171D01*
X79923644Y-76035149D01*
X79923642Y-76035152D01*
X79828422Y-76239350D01*
X79826097Y-76244337D01*
X79824675Y-76249645D01*
X79824674Y-76249647D01*
X79766362Y-76467274D01*
X79764937Y-76472592D01*
X79744341Y-76708000D01*
X79764937Y-76943408D01*
X79826097Y-77171663D01*
X79828419Y-77176643D01*
X79828420Y-77176645D01*
X79842866Y-77207623D01*
X79925965Y-77385829D01*
X80061505Y-77579401D01*
X80228599Y-77746495D01*
X80233107Y-77749652D01*
X80233110Y-77749654D01*
X80411820Y-77874788D01*
X80456148Y-77930245D01*
X80463457Y-78000865D01*
X80431426Y-78064225D01*
X80411822Y-78081211D01*
X80228599Y-78209505D01*
X80061505Y-78376599D01*
X79925965Y-78570171D01*
X79923644Y-78575149D01*
X79923642Y-78575152D01*
X79842265Y-78749664D01*
X79826097Y-78784337D01*
X79824675Y-78789645D01*
X79824674Y-78789647D01*
X79771718Y-78987286D01*
X79764937Y-79012592D01*
X79744341Y-79248000D01*
X79764937Y-79483408D01*
X79766361Y-79488722D01*
X79766361Y-79488723D01*
X79806001Y-79636661D01*
X79826097Y-79711663D01*
X79828419Y-79716643D01*
X79828420Y-79716645D01*
X79884376Y-79836641D01*
X79925965Y-79925829D01*
X80061505Y-80119401D01*
X80228599Y-80286495D01*
X80233107Y-80289652D01*
X80233110Y-80289654D01*
X80411820Y-80414788D01*
X80456148Y-80470245D01*
X80463457Y-80540865D01*
X80431426Y-80604225D01*
X80411822Y-80621211D01*
X80228599Y-80749505D01*
X80061505Y-80916599D01*
X79925965Y-81110171D01*
X79923644Y-81115149D01*
X79923642Y-81115152D01*
X79876720Y-81215776D01*
X79826097Y-81324337D01*
X79824675Y-81329645D01*
X79824674Y-81329647D01*
X79810576Y-81382264D01*
X79764937Y-81552592D01*
X79744341Y-81788000D01*
X79764937Y-82023408D01*
X79766361Y-82028722D01*
X79766361Y-82028723D01*
X79823143Y-82240637D01*
X79826097Y-82251663D01*
X79828419Y-82256643D01*
X79828420Y-82256645D01*
X79907982Y-82427264D01*
X79925965Y-82465829D01*
X80061505Y-82659401D01*
X80228599Y-82826495D01*
X80233107Y-82829652D01*
X80233110Y-82829654D01*
X80411820Y-82954788D01*
X80456148Y-83010245D01*
X80463457Y-83080865D01*
X80431426Y-83144225D01*
X80411822Y-83161211D01*
X80228599Y-83289505D01*
X80061505Y-83456599D01*
X79925965Y-83650171D01*
X79923644Y-83655149D01*
X79923642Y-83655152D01*
X79858432Y-83794995D01*
X79826097Y-83864337D01*
X79824675Y-83869645D01*
X79824674Y-83869647D01*
X79775947Y-84051501D01*
X79764937Y-84092592D01*
X79744341Y-84328000D01*
X79764937Y-84563408D01*
X79766361Y-84568722D01*
X79766361Y-84568723D01*
X79813628Y-84745126D01*
X79826097Y-84791663D01*
X79828419Y-84796643D01*
X79828420Y-84796645D01*
X79855884Y-84855540D01*
X79925965Y-85005829D01*
X80061505Y-85199401D01*
X80228599Y-85366495D01*
X80233107Y-85369652D01*
X80233110Y-85369654D01*
X80411820Y-85494788D01*
X80456148Y-85550245D01*
X80463457Y-85620865D01*
X80431426Y-85684225D01*
X80411822Y-85701211D01*
X80228599Y-85829505D01*
X80061505Y-85996599D01*
X79925965Y-86190171D01*
X79923644Y-86195149D01*
X79923642Y-86195152D01*
X79882444Y-86283501D01*
X79826097Y-86404337D01*
X79824675Y-86409645D01*
X79824674Y-86409647D01*
X79777645Y-86585164D01*
X79764937Y-86632592D01*
X79744341Y-86868000D01*
X79764937Y-87103408D01*
X79766361Y-87108722D01*
X79766361Y-87108723D01*
X79818854Y-87304630D01*
X79826097Y-87331663D01*
X79925965Y-87545829D01*
X80061505Y-87739401D01*
X80228599Y-87906495D01*
X80233107Y-87909652D01*
X80233110Y-87909654D01*
X80411820Y-88034788D01*
X80456148Y-88090245D01*
X80463457Y-88160865D01*
X80431426Y-88224225D01*
X80411822Y-88241211D01*
X80228599Y-88369505D01*
X80061505Y-88536599D01*
X79925965Y-88730171D01*
X79923644Y-88735149D01*
X79923642Y-88735152D01*
X79878564Y-88831822D01*
X79826097Y-88944337D01*
X79824675Y-88949645D01*
X79824674Y-88949647D01*
X79791558Y-89073240D01*
X79764937Y-89172592D01*
X79744341Y-89408000D01*
X79764937Y-89643408D01*
X79766361Y-89648722D01*
X79766361Y-89648723D01*
X79780975Y-89703262D01*
X79826097Y-89871663D01*
X79828419Y-89876643D01*
X79828420Y-89876645D01*
X79911888Y-90055640D01*
X79925965Y-90085829D01*
X80061505Y-90279401D01*
X80228599Y-90446495D01*
X80233107Y-90449652D01*
X80233110Y-90449654D01*
X80411820Y-90574788D01*
X80456148Y-90630245D01*
X80463457Y-90700865D01*
X80431426Y-90764225D01*
X80411822Y-90781211D01*
X80228599Y-90909505D01*
X80061505Y-91076599D01*
X79925965Y-91270171D01*
X79923644Y-91275149D01*
X79923642Y-91275152D01*
X79861594Y-91408213D01*
X79826097Y-91484337D01*
X79824675Y-91489645D01*
X79824674Y-91489647D01*
X79783368Y-91643806D01*
X79764937Y-91712592D01*
X79744341Y-91948000D01*
X79764937Y-92183408D01*
X79826097Y-92411663D01*
X79828419Y-92416643D01*
X79828420Y-92416645D01*
X79901400Y-92573149D01*
X79925965Y-92625829D01*
X80061505Y-92819401D01*
X80228599Y-92986495D01*
X80233107Y-92989652D01*
X80233110Y-92989654D01*
X80405880Y-93110629D01*
X80450208Y-93166086D01*
X80457517Y-93236706D01*
X80425486Y-93300066D01*
X80391790Y-93325605D01*
X80378461Y-93332543D01*
X80369734Y-93338039D01*
X80349677Y-93353099D01*
X80341223Y-93364427D01*
X80347968Y-93376758D01*
X81087188Y-94115978D01*
X81101132Y-94123592D01*
X81102965Y-94123461D01*
X81109580Y-94119210D01*
X81853389Y-93375401D01*
X81860410Y-93362544D01*
X81853611Y-93353213D01*
X81849559Y-93350521D01*
X81803863Y-93325296D01*
X81753892Y-93274864D01*
X81739120Y-93205421D01*
X81764236Y-93139015D01*
X81792485Y-93111774D01*
X81966890Y-92989654D01*
X81966893Y-92989652D01*
X81971401Y-92986495D01*
X82138495Y-92819401D01*
X82274035Y-92625829D01*
X82298601Y-92573149D01*
X82371580Y-92416645D01*
X82371581Y-92416643D01*
X82373903Y-92411663D01*
X82435063Y-92183408D01*
X82455659Y-91948000D01*
X82435063Y-91712592D01*
X82416632Y-91643806D01*
X82375326Y-91489647D01*
X82375325Y-91489645D01*
X82373903Y-91484337D01*
X82338406Y-91408213D01*
X82276358Y-91275152D01*
X82276356Y-91275149D01*
X82274035Y-91270171D01*
X82138495Y-91076599D01*
X81971401Y-90909505D01*
X81966893Y-90906348D01*
X81966890Y-90906346D01*
X81824038Y-90806320D01*
X81788181Y-90781213D01*
X81743853Y-90725756D01*
X81736544Y-90655137D01*
X81768575Y-90591776D01*
X81788181Y-90574787D01*
X81966890Y-90449654D01*
X81966893Y-90449652D01*
X81971401Y-90446495D01*
X82138495Y-90279401D01*
X82274035Y-90085829D01*
X82288113Y-90055640D01*
X82371580Y-89876645D01*
X82371581Y-89876643D01*
X82373903Y-89871663D01*
X82419026Y-89703262D01*
X82433639Y-89648723D01*
X82433639Y-89648722D01*
X82435063Y-89643408D01*
X82455659Y-89408000D01*
X82435063Y-89172592D01*
X82431750Y-89160226D01*
X82408443Y-89073240D01*
X82410133Y-89002264D01*
X82441055Y-88951535D01*
X92656697Y-78735894D01*
X92719009Y-78701868D01*
X92745792Y-78698989D01*
X94924759Y-78698989D01*
X94992880Y-78718991D01*
X95039373Y-78772647D01*
X95049477Y-78842921D01*
X95046466Y-78857599D01*
X95011718Y-78987286D01*
X95004937Y-79012592D01*
X94984341Y-79248000D01*
X95004937Y-79483408D01*
X95006361Y-79488722D01*
X95006361Y-79488723D01*
X95046001Y-79636661D01*
X95066097Y-79711663D01*
X95068419Y-79716643D01*
X95068420Y-79716645D01*
X95124376Y-79836641D01*
X95165965Y-79925829D01*
X95301505Y-80119401D01*
X95301926Y-80119822D01*
X95329779Y-80183472D01*
X95318559Y-80253577D01*
X95293887Y-80288513D01*
X91176750Y-84405649D01*
X87064651Y-88517748D01*
X87056531Y-88525137D01*
X87050123Y-88529204D01*
X87044697Y-88534982D01*
X87004115Y-88578197D01*
X87001360Y-88581039D01*
X86981880Y-88600519D01*
X86979452Y-88603649D01*
X86979380Y-88603731D01*
X86971771Y-88612639D01*
X86941938Y-88644408D01*
X86938119Y-88651355D01*
X86932365Y-88661822D01*
X86921508Y-88678351D01*
X86909327Y-88694054D01*
X86906179Y-88701329D01*
X86892020Y-88734048D01*
X86886798Y-88744708D01*
X86865803Y-88782898D01*
X86860859Y-88802154D01*
X86854460Y-88820843D01*
X86846562Y-88839094D01*
X86845322Y-88846924D01*
X86839744Y-88882144D01*
X86837340Y-88893753D01*
X86826500Y-88935971D01*
X86826500Y-88955846D01*
X86824949Y-88975556D01*
X86821840Y-88995186D01*
X86822586Y-89003078D01*
X86825941Y-89038569D01*
X86826500Y-89050427D01*
X86826500Y-91940733D01*
X86806498Y-92008854D01*
X86772771Y-92043945D01*
X86580599Y-92178505D01*
X86413505Y-92345599D01*
X86285213Y-92528820D01*
X86229756Y-92573149D01*
X86159137Y-92580458D01*
X86095776Y-92548428D01*
X86078787Y-92528820D01*
X85950495Y-92345599D01*
X85783401Y-92178505D01*
X85778893Y-92175348D01*
X85778890Y-92175346D01*
X85594339Y-92046122D01*
X85594336Y-92046120D01*
X85589830Y-92042965D01*
X85584848Y-92040642D01*
X85584843Y-92040639D01*
X85380645Y-91945420D01*
X85380644Y-91945419D01*
X85375663Y-91943097D01*
X85370355Y-91941675D01*
X85370353Y-91941674D01*
X85152723Y-91883361D01*
X85152722Y-91883361D01*
X85147408Y-91881937D01*
X84912000Y-91861341D01*
X84676592Y-91881937D01*
X84671278Y-91883361D01*
X84671277Y-91883361D01*
X84453647Y-91941674D01*
X84453645Y-91941675D01*
X84448337Y-91943097D01*
X84443357Y-91945419D01*
X84443355Y-91945420D01*
X84239152Y-92040642D01*
X84239149Y-92040644D01*
X84234171Y-92042965D01*
X84040599Y-92178505D01*
X83873505Y-92345599D01*
X83737965Y-92539171D01*
X83735644Y-92544149D01*
X83735642Y-92544152D01*
X83642000Y-92744967D01*
X83638097Y-92753337D01*
X83576937Y-92981592D01*
X83556341Y-93217000D01*
X83576937Y-93452408D01*
X83578361Y-93457722D01*
X83578361Y-93457723D01*
X83619888Y-93612704D01*
X83638097Y-93680663D01*
X83640419Y-93685643D01*
X83640420Y-93685645D01*
X83733238Y-93884691D01*
X83737965Y-93894829D01*
X83873505Y-94088401D01*
X84040599Y-94255495D01*
X84045107Y-94258652D01*
X84045110Y-94258654D01*
X84224787Y-94384465D01*
X84234170Y-94391035D01*
X84239152Y-94393358D01*
X84239157Y-94393361D01*
X84443355Y-94488580D01*
X84448337Y-94490903D01*
X84453645Y-94492325D01*
X84453647Y-94492326D01*
X84671277Y-94550639D01*
X84676592Y-94552063D01*
X84912000Y-94572659D01*
X85147408Y-94552063D01*
X85152723Y-94550639D01*
X85370353Y-94492326D01*
X85370355Y-94492325D01*
X85375663Y-94490903D01*
X85380645Y-94488580D01*
X85584843Y-94393361D01*
X85584848Y-94393358D01*
X85589830Y-94391035D01*
X85599213Y-94384465D01*
X85778890Y-94258654D01*
X85778893Y-94258652D01*
X85783401Y-94255495D01*
X85950495Y-94088401D01*
X86078787Y-93905180D01*
X86134244Y-93860851D01*
X86204863Y-93853542D01*
X86268224Y-93885572D01*
X86285212Y-93905179D01*
X86413505Y-94088401D01*
X86580599Y-94255495D01*
X86585107Y-94258652D01*
X86585110Y-94258654D01*
X86764787Y-94384465D01*
X86774170Y-94391035D01*
X86779152Y-94393358D01*
X86779157Y-94393361D01*
X86983355Y-94488580D01*
X86988337Y-94490903D01*
X86993645Y-94492325D01*
X86993647Y-94492326D01*
X87211277Y-94550639D01*
X87216592Y-94552063D01*
X87452000Y-94572659D01*
X87687408Y-94552063D01*
X87692723Y-94550639D01*
X87910353Y-94492326D01*
X87910355Y-94492325D01*
X87915663Y-94490903D01*
X87920645Y-94488580D01*
X88124843Y-94393361D01*
X88124848Y-94393358D01*
X88129830Y-94391035D01*
X88139213Y-94384465D01*
X88318890Y-94258654D01*
X88318893Y-94258652D01*
X88323401Y-94255495D01*
X88490495Y-94088401D01*
X88618787Y-93905180D01*
X88674244Y-93860851D01*
X88744863Y-93853542D01*
X88808224Y-93885572D01*
X88825212Y-93905179D01*
X88953505Y-94088401D01*
X89120599Y-94255495D01*
X89125107Y-94258652D01*
X89125110Y-94258654D01*
X89304787Y-94384465D01*
X89314170Y-94391035D01*
X89319152Y-94393358D01*
X89319157Y-94393361D01*
X89523355Y-94488580D01*
X89528337Y-94490903D01*
X89533645Y-94492325D01*
X89533647Y-94492326D01*
X89751277Y-94550639D01*
X89756592Y-94552063D01*
X89992000Y-94572659D01*
X90227408Y-94552063D01*
X90232723Y-94550639D01*
X90450353Y-94492326D01*
X90450355Y-94492325D01*
X90455663Y-94490903D01*
X90460645Y-94488580D01*
X90664843Y-94393361D01*
X90664848Y-94393358D01*
X90669830Y-94391035D01*
X90679213Y-94384465D01*
X90740069Y-94341853D01*
X91771977Y-94341853D01*
X91777258Y-94348907D01*
X91938756Y-94443279D01*
X91948042Y-94447729D01*
X92147001Y-94523703D01*
X92156899Y-94526579D01*
X92365595Y-94569038D01*
X92375823Y-94570257D01*
X92588650Y-94578062D01*
X92598936Y-94577595D01*
X92810185Y-94550534D01*
X92820262Y-94548392D01*
X93024255Y-94487191D01*
X93033842Y-94483433D01*
X93225098Y-94389738D01*
X93233944Y-94384465D01*
X93281247Y-94350723D01*
X93289648Y-94340023D01*
X93282660Y-94326870D01*
X92544812Y-93589022D01*
X92530868Y-93581408D01*
X92529035Y-93581539D01*
X92522420Y-93585790D01*
X91778737Y-94329473D01*
X91771977Y-94341853D01*
X90740069Y-94341853D01*
X90858890Y-94258654D01*
X90858893Y-94258652D01*
X90863401Y-94255495D01*
X91030495Y-94088401D01*
X91156358Y-93908649D01*
X91211814Y-93864322D01*
X91282433Y-93857013D01*
X91345794Y-93889043D01*
X91367003Y-93915086D01*
X91398460Y-93966420D01*
X91408916Y-93975880D01*
X91417694Y-93972096D01*
X92171658Y-93218132D01*
X92896408Y-93218132D01*
X92896539Y-93219965D01*
X92900790Y-93226580D01*
X93642474Y-93968264D01*
X93654484Y-93974823D01*
X93666223Y-93965855D01*
X93697004Y-93923019D01*
X93702315Y-93914180D01*
X93796670Y-93723267D01*
X93800469Y-93713672D01*
X93862376Y-93509915D01*
X93864555Y-93499834D01*
X93892590Y-93286887D01*
X93893109Y-93280212D01*
X93894572Y-93220364D01*
X93894378Y-93213646D01*
X93876781Y-92999604D01*
X93875096Y-92989424D01*
X93823214Y-92782875D01*
X93819894Y-92773124D01*
X93734972Y-92577814D01*
X93730105Y-92568739D01*
X93665063Y-92468197D01*
X93654377Y-92458995D01*
X93644812Y-92463398D01*
X92904022Y-93204188D01*
X92896408Y-93218132D01*
X92171658Y-93218132D01*
X93285389Y-92104401D01*
X93292410Y-92091544D01*
X93285611Y-92082213D01*
X93281554Y-92079518D01*
X93095117Y-91976599D01*
X93085705Y-91972369D01*
X92884959Y-91901280D01*
X92874989Y-91898646D01*
X92665327Y-91861301D01*
X92655073Y-91860331D01*
X92537340Y-91858892D01*
X92469469Y-91838059D01*
X92423635Y-91783839D01*
X92414391Y-91713447D01*
X92444671Y-91649231D01*
X92449785Y-91643806D01*
X92848675Y-91244916D01*
X92910987Y-91210890D01*
X92937770Y-91208011D01*
X94997170Y-91208011D01*
X95065291Y-91228013D01*
X95111784Y-91281669D01*
X95121888Y-91351943D01*
X95111364Y-91387262D01*
X95106146Y-91398453D01*
X95066097Y-91484337D01*
X95064675Y-91489645D01*
X95064674Y-91489647D01*
X95023368Y-91643806D01*
X95004937Y-91712592D01*
X94984341Y-91948000D01*
X95004937Y-92183408D01*
X95066097Y-92411663D01*
X95068419Y-92416643D01*
X95068420Y-92416645D01*
X95141400Y-92573149D01*
X95165965Y-92625829D01*
X95301505Y-92819401D01*
X95468599Y-92986495D01*
X95473107Y-92989652D01*
X95473110Y-92989654D01*
X95651820Y-93114788D01*
X95696148Y-93170245D01*
X95703457Y-93240865D01*
X95671426Y-93304225D01*
X95651822Y-93321211D01*
X95468599Y-93449505D01*
X95301505Y-93616599D01*
X95165965Y-93810171D01*
X95163644Y-93815149D01*
X95163642Y-93815152D01*
X95070965Y-94013897D01*
X95066097Y-94024337D01*
X95064675Y-94029645D01*
X95064674Y-94029647D01*
X95041542Y-94115978D01*
X95004937Y-94252592D01*
X94984341Y-94488000D01*
X95004937Y-94723408D01*
X95006362Y-94728726D01*
X95046466Y-94878401D01*
X95044776Y-94949377D01*
X95004981Y-95008173D01*
X94939717Y-95036120D01*
X94924759Y-95037011D01*
X82522536Y-95037011D01*
X82454415Y-95017009D01*
X82407922Y-94963353D01*
X82397818Y-94893079D01*
X82401977Y-94874382D01*
X82430378Y-94780903D01*
X82432555Y-94770834D01*
X82460590Y-94557887D01*
X82461109Y-94551212D01*
X82462572Y-94491364D01*
X82462378Y-94484646D01*
X82444781Y-94270604D01*
X82443096Y-94260424D01*
X82391214Y-94053875D01*
X82387894Y-94044124D01*
X82302972Y-93848814D01*
X82298105Y-93839739D01*
X82233063Y-93739197D01*
X82222377Y-93729995D01*
X82212812Y-93734398D01*
X81189095Y-94758115D01*
X81126783Y-94792141D01*
X81055968Y-94787076D01*
X81010905Y-94758115D01*
X79989849Y-93737059D01*
X79978313Y-93730759D01*
X79966031Y-93740382D01*
X79918089Y-93810662D01*
X79913000Y-93819620D01*
X79907174Y-93832171D01*
X79860349Y-93885537D01*
X79792106Y-93905116D01*
X79724110Y-93884691D01*
X79703793Y-93868213D01*
X74220265Y-88384684D01*
X67755405Y-81919824D01*
X67721379Y-81857512D01*
X67718500Y-81830729D01*
X67718500Y-78685228D01*
X67738502Y-78617107D01*
X67772226Y-78582018D01*
X67932139Y-78470047D01*
X68093047Y-78309139D01*
X68117491Y-78274229D01*
X68172947Y-78229901D01*
X68220704Y-78220500D01*
X68327536Y-78220500D01*
X68395657Y-78240502D01*
X68442150Y-78294158D01*
X68445512Y-78302255D01*
X68449474Y-78312824D01*
X68454854Y-78320003D01*
X68454856Y-78320006D01*
X68511942Y-78396174D01*
X68535454Y-78427546D01*
X68542635Y-78432928D01*
X68642994Y-78508144D01*
X68642997Y-78508146D01*
X68650176Y-78513526D01*
X68739561Y-78547034D01*
X68777025Y-78561079D01*
X68777027Y-78561079D01*
X68784420Y-78563851D01*
X68792270Y-78564704D01*
X68792271Y-78564704D01*
X68842217Y-78570130D01*
X68845623Y-78570500D01*
X69642883Y-78570500D01*
X70440376Y-78570499D01*
X70443770Y-78570130D01*
X70443776Y-78570130D01*
X70493722Y-78564705D01*
X70493726Y-78564704D01*
X70501580Y-78563851D01*
X70635824Y-78513526D01*
X70643003Y-78508146D01*
X70643006Y-78508144D01*
X70743365Y-78432928D01*
X70750546Y-78427546D01*
X70774058Y-78396174D01*
X70831144Y-78320006D01*
X70831146Y-78320003D01*
X70836526Y-78312824D01*
X70875018Y-78210145D01*
X70917659Y-78153380D01*
X70984220Y-78128680D01*
X71053569Y-78143887D01*
X71103688Y-78194173D01*
X71110982Y-78210145D01*
X71149474Y-78312824D01*
X71154854Y-78320003D01*
X71154856Y-78320006D01*
X71211942Y-78396174D01*
X71235454Y-78427546D01*
X71242635Y-78432928D01*
X71342994Y-78508144D01*
X71342997Y-78508146D01*
X71350176Y-78513526D01*
X71439561Y-78547034D01*
X71477025Y-78561079D01*
X71477027Y-78561079D01*
X71484420Y-78563851D01*
X71492270Y-78564704D01*
X71492271Y-78564704D01*
X71542217Y-78570130D01*
X71545623Y-78570500D01*
X72342883Y-78570500D01*
X73140376Y-78570499D01*
X73143770Y-78570130D01*
X73143776Y-78570130D01*
X73193722Y-78564705D01*
X73193726Y-78564704D01*
X73201580Y-78563851D01*
X73335824Y-78513526D01*
X73343003Y-78508146D01*
X73343006Y-78508144D01*
X73443365Y-78432928D01*
X73450546Y-78427546D01*
X73474058Y-78396174D01*
X73531142Y-78320008D01*
X73531143Y-78320006D01*
X73536526Y-78312824D01*
X73540483Y-78302268D01*
X73541850Y-78300449D01*
X73543987Y-78296545D01*
X73544551Y-78296854D01*
X73583122Y-78245506D01*
X73649684Y-78220805D01*
X73658464Y-78220499D01*
X73765296Y-78220499D01*
X73833417Y-78240501D01*
X73868509Y-78274229D01*
X73892953Y-78309139D01*
X74053861Y-78470047D01*
X74240266Y-78600568D01*
X74245244Y-78602889D01*
X74245247Y-78602891D01*
X74441522Y-78694416D01*
X74446504Y-78696739D01*
X74451812Y-78698161D01*
X74451814Y-78698162D01*
X74660993Y-78754211D01*
X74660995Y-78754211D01*
X74666308Y-78755635D01*
X74893000Y-78775468D01*
X75119692Y-78755635D01*
X75125005Y-78754211D01*
X75125007Y-78754211D01*
X75334186Y-78698162D01*
X75334188Y-78698161D01*
X75339496Y-78696739D01*
X75344478Y-78694416D01*
X75540753Y-78602891D01*
X75540756Y-78602889D01*
X75545734Y-78600568D01*
X75732139Y-78470047D01*
X75893047Y-78309139D01*
X76023568Y-78122734D01*
X76026067Y-78117376D01*
X76117416Y-77921478D01*
X76117417Y-77921476D01*
X76119739Y-77916496D01*
X76151869Y-77796587D01*
X76177211Y-77702007D01*
X76177211Y-77702005D01*
X76178635Y-77696692D01*
X76198468Y-77470000D01*
X76178635Y-77243308D01*
X76119739Y-77023504D01*
X76084868Y-76948723D01*
X76025891Y-76822247D01*
X76025889Y-76822244D01*
X76023568Y-76817266D01*
X75893047Y-76630861D01*
X75732139Y-76469953D01*
X75545734Y-76339432D01*
X75540756Y-76337111D01*
X75540753Y-76337109D01*
X75344478Y-76245584D01*
X75344476Y-76245583D01*
X75339496Y-76243261D01*
X75334188Y-76241839D01*
X75334186Y-76241838D01*
X75125007Y-76185789D01*
X75125005Y-76185789D01*
X75119692Y-76184365D01*
X74893000Y-76164532D01*
X74666308Y-76184365D01*
X74660995Y-76185789D01*
X74660993Y-76185789D01*
X74451814Y-76241838D01*
X74451812Y-76241839D01*
X74446504Y-76243261D01*
X74441524Y-76245583D01*
X74441522Y-76245584D01*
X74245247Y-76337109D01*
X74245244Y-76337111D01*
X74240266Y-76339432D01*
X74053861Y-76469953D01*
X73892953Y-76630861D01*
X73889800Y-76635364D01*
X73868510Y-76665770D01*
X73813053Y-76710099D01*
X73765296Y-76719500D01*
X73658464Y-76719500D01*
X73590343Y-76699498D01*
X73543850Y-76645842D01*
X73540488Y-76637745D01*
X73536526Y-76627176D01*
X73531146Y-76619997D01*
X73531144Y-76619994D01*
X73455928Y-76519635D01*
X73450546Y-76512454D01*
X73410718Y-76482604D01*
X73343006Y-76431856D01*
X73343003Y-76431854D01*
X73335824Y-76426474D01*
X73224305Y-76384668D01*
X73208975Y-76378921D01*
X73208973Y-76378921D01*
X73201580Y-76376149D01*
X73193730Y-76375296D01*
X73193729Y-76375296D01*
X73143774Y-76369869D01*
X73143773Y-76369869D01*
X73140377Y-76369500D01*
X72343117Y-76369500D01*
X71545624Y-76369501D01*
X71542230Y-76369870D01*
X71542224Y-76369870D01*
X71492278Y-76375295D01*
X71492274Y-76375296D01*
X71484420Y-76376149D01*
X71350176Y-76426474D01*
X71342997Y-76431854D01*
X71342994Y-76431856D01*
X71275282Y-76482604D01*
X71235454Y-76512454D01*
X71230072Y-76519635D01*
X71154856Y-76619994D01*
X71154854Y-76619997D01*
X71149474Y-76627176D01*
X71115578Y-76717595D01*
X71110982Y-76729855D01*
X71068341Y-76786620D01*
X71001780Y-76811320D01*
X70932431Y-76796113D01*
X70882312Y-76745827D01*
X70875018Y-76729855D01*
X70870422Y-76717595D01*
X70836526Y-76627176D01*
X70831146Y-76619997D01*
X70831144Y-76619994D01*
X70755928Y-76519635D01*
X70750546Y-76512454D01*
X70710718Y-76482604D01*
X70643006Y-76431856D01*
X70643003Y-76431854D01*
X70635824Y-76426474D01*
X70524305Y-76384668D01*
X70508975Y-76378921D01*
X70508973Y-76378921D01*
X70501580Y-76376149D01*
X70493730Y-76375296D01*
X70493729Y-76375296D01*
X70443774Y-76369869D01*
X70443773Y-76369869D01*
X70440377Y-76369500D01*
X69643117Y-76369500D01*
X68845624Y-76369501D01*
X68842230Y-76369870D01*
X68842224Y-76369870D01*
X68792278Y-76375295D01*
X68792274Y-76375296D01*
X68784420Y-76376149D01*
X68650176Y-76426474D01*
X68642997Y-76431854D01*
X68642994Y-76431856D01*
X68575282Y-76482604D01*
X68535454Y-76512454D01*
X68449474Y-76627176D01*
X68445517Y-76637732D01*
X68444150Y-76639551D01*
X68442013Y-76643455D01*
X68441449Y-76643146D01*
X68402878Y-76694494D01*
X68336316Y-76719195D01*
X68327536Y-76719501D01*
X68220704Y-76719501D01*
X68152583Y-76699499D01*
X68117491Y-76665771D01*
X68101649Y-76643146D01*
X68093047Y-76630861D01*
X67932139Y-76469953D01*
X67745734Y-76339432D01*
X67740756Y-76337111D01*
X67740753Y-76337109D01*
X67544478Y-76245584D01*
X67544476Y-76245583D01*
X67539496Y-76243261D01*
X67534188Y-76241839D01*
X67534186Y-76241838D01*
X67325007Y-76185789D01*
X67325005Y-76185789D01*
X67319692Y-76184365D01*
X67093000Y-76164532D01*
X66866308Y-76184365D01*
X66860995Y-76185789D01*
X66860993Y-76185789D01*
X66651814Y-76241838D01*
X66651812Y-76241839D01*
X66646504Y-76243261D01*
X66641524Y-76245583D01*
X66641522Y-76245584D01*
X66445247Y-76337109D01*
X66445244Y-76337111D01*
X66440266Y-76339432D01*
X66253861Y-76469953D01*
X66092953Y-76630861D01*
X65962432Y-76817266D01*
X65960111Y-76822244D01*
X65960109Y-76822247D01*
X65901132Y-76948723D01*
X65866261Y-77023504D01*
X65807365Y-77243308D01*
X65787532Y-77470000D01*
X65807365Y-77696692D01*
X65808789Y-77702005D01*
X65808789Y-77702007D01*
X65834132Y-77796587D01*
X65866261Y-77916496D01*
X65868583Y-77921476D01*
X65868584Y-77921478D01*
X65959934Y-78117376D01*
X65962432Y-78122734D01*
X66092953Y-78309139D01*
X66253861Y-78470047D01*
X66413773Y-78582017D01*
X66458099Y-78637471D01*
X66467500Y-78685228D01*
X66467500Y-82064307D01*
X66466983Y-82075267D01*
X66465327Y-82082677D01*
X66465576Y-82090603D01*
X66465576Y-82090604D01*
X66467438Y-82149851D01*
X66467500Y-82153809D01*
X66467500Y-82181360D01*
X66467996Y-82185283D01*
X66468003Y-82185398D01*
X66468923Y-82197078D01*
X66470291Y-82240637D01*
X66474942Y-82256645D01*
X66475836Y-82259722D01*
X66479844Y-82279072D01*
X66482336Y-82298802D01*
X66498384Y-82339333D01*
X66502219Y-82350534D01*
X66514382Y-82392400D01*
X66524498Y-82409504D01*
X66533195Y-82427255D01*
X66540514Y-82445742D01*
X66566129Y-82480998D01*
X66572646Y-82490920D01*
X66590790Y-82521600D01*
X66590793Y-82521604D01*
X66594830Y-82528430D01*
X66608880Y-82542480D01*
X66621721Y-82557514D01*
X66633406Y-82573597D01*
X66639514Y-82578650D01*
X66666989Y-82601379D01*
X66675769Y-82609369D01*
X80053887Y-95987488D01*
X80087913Y-96049800D01*
X80082848Y-96120615D01*
X80062408Y-96155696D01*
X80061505Y-96156599D01*
X79925965Y-96350171D01*
X79923644Y-96355149D01*
X79923642Y-96355152D01*
X79833689Y-96548056D01*
X79826097Y-96564337D01*
X79824675Y-96569645D01*
X79824674Y-96569647D01*
X79781418Y-96731082D01*
X79764937Y-96792592D01*
X79744341Y-97028000D01*
X79764937Y-97263408D01*
X79826097Y-97491663D01*
X79828419Y-97496643D01*
X79828420Y-97496645D01*
X79909742Y-97671038D01*
X79925965Y-97705829D01*
X80061505Y-97899401D01*
X80228599Y-98066495D01*
X80233111Y-98069654D01*
X80233113Y-98069656D01*
X80243298Y-98076788D01*
X80287626Y-98132246D01*
X80294934Y-98202865D01*
X80262902Y-98266225D01*
X80201700Y-98302209D01*
X80171026Y-98306000D01*
X78026704Y-98306000D01*
X78007320Y-98304500D01*
X77993044Y-98302277D01*
X77993042Y-98302277D01*
X77984172Y-98300896D01*
X77975272Y-98302060D01*
X77966295Y-98301950D01*
X77966306Y-98301083D01*
X77945152Y-98300797D01*
X77928150Y-98298104D01*
X77916749Y-98296299D01*
X77879255Y-98284116D01*
X77841780Y-98265021D01*
X77809889Y-98241850D01*
X77780150Y-98212111D01*
X77756979Y-98180220D01*
X77737884Y-98142745D01*
X77725701Y-98105252D01*
X77721299Y-98077459D01*
X77719886Y-98057990D01*
X77721104Y-98050170D01*
X77717064Y-98019274D01*
X77716000Y-98002937D01*
X77716000Y-97804533D01*
X77717746Y-97783629D01*
X77720184Y-97769138D01*
X77720184Y-97769137D01*
X77720991Y-97764341D01*
X77721142Y-97751999D01*
X77719375Y-97739657D01*
X77718960Y-97736763D01*
X77718075Y-97728786D01*
X77713530Y-97671038D01*
X77704316Y-97553969D01*
X77700972Y-97540038D01*
X77659099Y-97365627D01*
X77657944Y-97360815D01*
X77656052Y-97356248D01*
X77656050Y-97356241D01*
X77583821Y-97181864D01*
X77583820Y-97181862D01*
X77581927Y-97177292D01*
X77478136Y-97007922D01*
X77349128Y-96856872D01*
X77198078Y-96727864D01*
X77028708Y-96624073D01*
X77024138Y-96622180D01*
X77024136Y-96622179D01*
X76849759Y-96549950D01*
X76849752Y-96549948D01*
X76845185Y-96548056D01*
X76778004Y-96531927D01*
X76656844Y-96502839D01*
X76656838Y-96502838D01*
X76652031Y-96501684D01*
X76577959Y-96495854D01*
X76494887Y-96489316D01*
X76483869Y-96487958D01*
X76466343Y-96485009D01*
X76461478Y-96484949D01*
X76461473Y-96484949D01*
X76458860Y-96484917D01*
X76458854Y-96484917D01*
X76454001Y-96484858D01*
X76426985Y-96488727D01*
X76409123Y-96490000D01*
X67818703Y-96490000D01*
X67799319Y-96488500D01*
X67785044Y-96486277D01*
X67785041Y-96486277D01*
X67776171Y-96484896D01*
X67759461Y-96487081D01*
X67735521Y-96487914D01*
X67476265Y-96472232D01*
X67461161Y-96470398D01*
X67179209Y-96418728D01*
X67164436Y-96415087D01*
X67106617Y-96397070D01*
X66890757Y-96329805D01*
X66876553Y-96324419D01*
X66615121Y-96206759D01*
X66601679Y-96199703D01*
X66356361Y-96051402D01*
X66343840Y-96042760D01*
X66273291Y-95987488D01*
X66118188Y-95865973D01*
X66106800Y-95855883D01*
X65904117Y-95653200D01*
X65894027Y-95641812D01*
X65717240Y-95416160D01*
X65708597Y-95403638D01*
X65664690Y-95331007D01*
X65560297Y-95158321D01*
X65553241Y-95144879D01*
X65435581Y-94883447D01*
X65430193Y-94869238D01*
X65404591Y-94787076D01*
X65344913Y-94595564D01*
X65341272Y-94580791D01*
X65289602Y-94298839D01*
X65287768Y-94283735D01*
X65272518Y-94031619D01*
X65273707Y-94006343D01*
X65273723Y-94005042D01*
X65275104Y-93996171D01*
X65273491Y-93983829D01*
X65271064Y-93965275D01*
X65270000Y-93948938D01*
X65270000Y-72147318D01*
X67269500Y-72147318D01*
X67308934Y-72459473D01*
X67319186Y-72499401D01*
X67386194Y-72760383D01*
X67386197Y-72760391D01*
X67387181Y-72764225D01*
X67388638Y-72767905D01*
X67388639Y-72767908D01*
X67399282Y-72794788D01*
X67503006Y-73056766D01*
X67504907Y-73060225D01*
X67504909Y-73060228D01*
X67541258Y-73126346D01*
X67654584Y-73332484D01*
X67656912Y-73335688D01*
X67656915Y-73335693D01*
X67765877Y-73485666D01*
X67839522Y-73587030D01*
X68054906Y-73816390D01*
X68297337Y-74016947D01*
X68562993Y-74185537D01*
X68566572Y-74187221D01*
X68566579Y-74187225D01*
X68844095Y-74317814D01*
X68844099Y-74317816D01*
X68847685Y-74319503D01*
X69146921Y-74416731D01*
X69455985Y-74475688D01*
X69549489Y-74481571D01*
X69689422Y-74490375D01*
X69689438Y-74490376D01*
X69691417Y-74490500D01*
X69848583Y-74490500D01*
X69850562Y-74490376D01*
X69850578Y-74490375D01*
X69990511Y-74481571D01*
X70084015Y-74475688D01*
X70393079Y-74416731D01*
X70692315Y-74319503D01*
X70695901Y-74317816D01*
X70695905Y-74317814D01*
X70973421Y-74187225D01*
X70973428Y-74187221D01*
X70977007Y-74185537D01*
X71242663Y-74016947D01*
X71485094Y-73816390D01*
X71700478Y-73587030D01*
X71774123Y-73485666D01*
X71883085Y-73335693D01*
X71883088Y-73335688D01*
X71885416Y-73332484D01*
X71998742Y-73126346D01*
X72035091Y-73060228D01*
X72035093Y-73060225D01*
X72036994Y-73056766D01*
X72140718Y-72794788D01*
X72151361Y-72767908D01*
X72151362Y-72767905D01*
X72152819Y-72764225D01*
X72153803Y-72760391D01*
X72153806Y-72760383D01*
X72220814Y-72499401D01*
X72231066Y-72459473D01*
X72270500Y-72147318D01*
X72270500Y-71832682D01*
X72244643Y-71628000D01*
X72231563Y-71524459D01*
X72231562Y-71524455D01*
X72231066Y-71520527D01*
X72196853Y-71387277D01*
X72153806Y-71219617D01*
X72153803Y-71219609D01*
X72152819Y-71215775D01*
X72136195Y-71173786D01*
X72080035Y-71031943D01*
X72036994Y-70923234D01*
X72015957Y-70884967D01*
X71887325Y-70650989D01*
X71885416Y-70647516D01*
X71744794Y-70453965D01*
X71702806Y-70396174D01*
X71702805Y-70396172D01*
X71700478Y-70392970D01*
X71485094Y-70163610D01*
X71444049Y-70129654D01*
X71245715Y-69965578D01*
X71242663Y-69963053D01*
X70977007Y-69794463D01*
X70973428Y-69792779D01*
X70973421Y-69792775D01*
X70695905Y-69662186D01*
X70695901Y-69662184D01*
X70692315Y-69660497D01*
X70635434Y-69642015D01*
X70396855Y-69564496D01*
X70396856Y-69564496D01*
X70393079Y-69563269D01*
X70084015Y-69504312D01*
X69990511Y-69498429D01*
X69850578Y-69489625D01*
X69850562Y-69489624D01*
X69848583Y-69489500D01*
X69691417Y-69489500D01*
X69689438Y-69489624D01*
X69689422Y-69489625D01*
X69549489Y-69498429D01*
X69455985Y-69504312D01*
X69146921Y-69563269D01*
X69143144Y-69564496D01*
X69143145Y-69564496D01*
X68904567Y-69642015D01*
X68847685Y-69660497D01*
X68844099Y-69662184D01*
X68844095Y-69662186D01*
X68566579Y-69792775D01*
X68566572Y-69792779D01*
X68562993Y-69794463D01*
X68297337Y-69963053D01*
X68294285Y-69965578D01*
X68095952Y-70129654D01*
X68054906Y-70163610D01*
X67839522Y-70392970D01*
X67837195Y-70396172D01*
X67837194Y-70396174D01*
X67795207Y-70453965D01*
X67654584Y-70647516D01*
X67652675Y-70650989D01*
X67524044Y-70884967D01*
X67503006Y-70923234D01*
X67459965Y-71031943D01*
X67403806Y-71173786D01*
X67387181Y-71215775D01*
X67386197Y-71219609D01*
X67386194Y-71219617D01*
X67343147Y-71387277D01*
X67308934Y-71520527D01*
X67308438Y-71524455D01*
X67308437Y-71524459D01*
X67295357Y-71628000D01*
X67269500Y-71832682D01*
X67269500Y-72147318D01*
X65270000Y-72147318D01*
X65270000Y-59563455D01*
X69871160Y-59563455D01*
X69876887Y-59571105D01*
X70048042Y-59675990D01*
X70056837Y-59680472D01*
X70266988Y-59767519D01*
X70276373Y-59770568D01*
X70497554Y-59823670D01*
X70507301Y-59825213D01*
X70734070Y-59843060D01*
X70743930Y-59843060D01*
X70970699Y-59825213D01*
X70980446Y-59823670D01*
X71201627Y-59770568D01*
X71211012Y-59767519D01*
X71421163Y-59680472D01*
X71429958Y-59675990D01*
X71597445Y-59573353D01*
X71606907Y-59562895D01*
X71603124Y-59554119D01*
X70751812Y-58702807D01*
X70737868Y-58695193D01*
X70736035Y-58695324D01*
X70729420Y-58699575D01*
X69877920Y-59551075D01*
X69871160Y-59563455D01*
X65270000Y-59563455D01*
X65270000Y-58335715D01*
X69226725Y-58335715D01*
X69244572Y-58562484D01*
X69246115Y-58572231D01*
X69299217Y-58793412D01*
X69302266Y-58802797D01*
X69389313Y-59012948D01*
X69393795Y-59021743D01*
X69496432Y-59189230D01*
X69506890Y-59198692D01*
X69515666Y-59194909D01*
X70366978Y-58343597D01*
X70373356Y-58331917D01*
X71103408Y-58331917D01*
X71103539Y-58333750D01*
X71107790Y-58340365D01*
X71959290Y-59191865D01*
X71971670Y-59198625D01*
X71979320Y-59192898D01*
X72084205Y-59021743D01*
X72088687Y-59012948D01*
X72175734Y-58802797D01*
X72178783Y-58793412D01*
X72231885Y-58572231D01*
X72233428Y-58562484D01*
X72251275Y-58335715D01*
X72251275Y-58325855D01*
X72233428Y-58099086D01*
X72231885Y-58089339D01*
X72178783Y-57868158D01*
X72175734Y-57858773D01*
X72088687Y-57648622D01*
X72084205Y-57639827D01*
X71981568Y-57472340D01*
X71971110Y-57462878D01*
X71962334Y-57466661D01*
X71111022Y-58317973D01*
X71103408Y-58331917D01*
X70373356Y-58331917D01*
X70374592Y-58329653D01*
X70374461Y-58327820D01*
X70370210Y-58321205D01*
X69518710Y-57469705D01*
X69506330Y-57462945D01*
X69498680Y-57468672D01*
X69393795Y-57639827D01*
X69389313Y-57648622D01*
X69302266Y-57858773D01*
X69299217Y-57868158D01*
X69246115Y-58089339D01*
X69244572Y-58099086D01*
X69226725Y-58325855D01*
X69226725Y-58335715D01*
X65270000Y-58335715D01*
X65270000Y-57098675D01*
X69871093Y-57098675D01*
X69874876Y-57107451D01*
X70726188Y-57958763D01*
X70740132Y-57966377D01*
X70741965Y-57966246D01*
X70748580Y-57961995D01*
X71600080Y-57110495D01*
X71606840Y-57098115D01*
X71601113Y-57090465D01*
X71429958Y-56985580D01*
X71421163Y-56981098D01*
X71211012Y-56894051D01*
X71201627Y-56891002D01*
X70980446Y-56837900D01*
X70970699Y-56836357D01*
X70743930Y-56818510D01*
X70734070Y-56818510D01*
X70507301Y-56836357D01*
X70497554Y-56837900D01*
X70276373Y-56891002D01*
X70266988Y-56894051D01*
X70056837Y-56981098D01*
X70048042Y-56985580D01*
X69880555Y-57088217D01*
X69871093Y-57098675D01*
X65270000Y-57098675D01*
X65270000Y-52037236D01*
X74514958Y-52037236D01*
X74515321Y-52041384D01*
X74515321Y-52041389D01*
X74525811Y-52161288D01*
X74541014Y-52335065D01*
X74606232Y-52626832D01*
X74607676Y-52630756D01*
X74607676Y-52630757D01*
X74672280Y-52806346D01*
X74709464Y-52907410D01*
X74711415Y-52911110D01*
X74711417Y-52911115D01*
X74745943Y-52976599D01*
X74848898Y-53171870D01*
X75022084Y-53415565D01*
X75024934Y-53418621D01*
X75210925Y-53618072D01*
X75225979Y-53634216D01*
X75457000Y-53823979D01*
X75711090Y-53981521D01*
X75983783Y-54104074D01*
X76149774Y-54153558D01*
X76266290Y-54188293D01*
X76266292Y-54188293D01*
X76270289Y-54189485D01*
X76274409Y-54190138D01*
X76274411Y-54190138D01*
X76392423Y-54208829D01*
X76565575Y-54236254D01*
X76608135Y-54238187D01*
X76657659Y-54240436D01*
X76657678Y-54240436D01*
X76659078Y-54240500D01*
X76845834Y-54240500D01*
X77068309Y-54225723D01*
X77361377Y-54166630D01*
X77644056Y-54069296D01*
X77647789Y-54067427D01*
X77647793Y-54067425D01*
X77907640Y-53937303D01*
X77907642Y-53937302D01*
X77911378Y-53935431D01*
X78158647Y-53767387D01*
X78381520Y-53568117D01*
X78576079Y-53341120D01*
X78688397Y-53168166D01*
X78736629Y-53093896D01*
X78736632Y-53093891D01*
X78738908Y-53090386D01*
X78867145Y-52820319D01*
X78869367Y-52813400D01*
X78957258Y-52539651D01*
X78957258Y-52539650D01*
X78958538Y-52535664D01*
X79011480Y-52241422D01*
X79014120Y-52183296D01*
X79024853Y-51946934D01*
X79024853Y-51946929D01*
X79025042Y-51942764D01*
X78998986Y-51644935D01*
X78933768Y-51353168D01*
X78830536Y-51072590D01*
X78827734Y-51067274D01*
X78693055Y-50811834D01*
X78693054Y-50811833D01*
X78691102Y-50808130D01*
X78517916Y-50564435D01*
X78314021Y-50345784D01*
X78083000Y-50156021D01*
X77828910Y-49998479D01*
X77556217Y-49875926D01*
X77343603Y-49812543D01*
X77273710Y-49791707D01*
X77273708Y-49791707D01*
X77269711Y-49790515D01*
X77265591Y-49789862D01*
X77265589Y-49789862D01*
X77147577Y-49771171D01*
X76974425Y-49743746D01*
X76931865Y-49741813D01*
X76882341Y-49739564D01*
X76882322Y-49739564D01*
X76880922Y-49739500D01*
X76694166Y-49739500D01*
X76471691Y-49754277D01*
X76178623Y-49813370D01*
X75895944Y-49910704D01*
X75892211Y-49912573D01*
X75892207Y-49912575D01*
X75640336Y-50038703D01*
X75628622Y-50044569D01*
X75381353Y-50212613D01*
X75158480Y-50411883D01*
X74963921Y-50638880D01*
X74961647Y-50642382D01*
X74833731Y-50839355D01*
X74801092Y-50889614D01*
X74672855Y-51159681D01*
X74671576Y-51163664D01*
X74671575Y-51163667D01*
X74626993Y-51302525D01*
X74581462Y-51444336D01*
X74580721Y-51448455D01*
X74533582Y-51710446D01*
X74528520Y-51738578D01*
X74528331Y-51742745D01*
X74528330Y-51742752D01*
X74516263Y-52008489D01*
X74514958Y-52037236D01*
X65270000Y-52037236D01*
X65270000Y-50038703D01*
X65271500Y-50019319D01*
X65273723Y-50005044D01*
X65273723Y-50005041D01*
X65275104Y-49996171D01*
X65272919Y-49979461D01*
X65272086Y-49955521D01*
X65287768Y-49696265D01*
X65289602Y-49681161D01*
X65341272Y-49399209D01*
X65344913Y-49384436D01*
X65364727Y-49320852D01*
X65430195Y-49110757D01*
X65435581Y-49096553D01*
X65553241Y-48835121D01*
X65560297Y-48821679D01*
X65708598Y-48576361D01*
X65717240Y-48563840D01*
X65894027Y-48338188D01*
X65904117Y-48326800D01*
X66106800Y-48124117D01*
X66118188Y-48114027D01*
X66343840Y-47937240D01*
X66356362Y-47928597D01*
X66446610Y-47874040D01*
X66601679Y-47780297D01*
X66615121Y-47773241D01*
X66876553Y-47655581D01*
X66890757Y-47650195D01*
X67164436Y-47564913D01*
X67179209Y-47561272D01*
X67461161Y-47509602D01*
X67476265Y-47507768D01*
X67728381Y-47492518D01*
X67753657Y-47493707D01*
X67754958Y-47493723D01*
X67763829Y-47495104D01*
X67772731Y-47493940D01*
X67772734Y-47493940D01*
X67794725Y-47491064D01*
X67811062Y-47490000D01*
X79696675Y-47490000D01*
X79764796Y-47510002D01*
G37*
G04 #@! TD.AperFunction*
G04 #@! TA.AperFunction,Conductor*
G36*
X211740681Y-47491500D02*
G01*
X211754956Y-47493723D01*
X211754959Y-47493723D01*
X211763829Y-47495104D01*
X211780539Y-47492919D01*
X211804479Y-47492086D01*
X212063735Y-47507768D01*
X212078839Y-47509602D01*
X212360791Y-47561272D01*
X212375564Y-47564913D01*
X212649243Y-47650195D01*
X212663447Y-47655581D01*
X212924879Y-47773241D01*
X212938321Y-47780297D01*
X213093390Y-47874040D01*
X213183638Y-47928597D01*
X213196160Y-47937240D01*
X213421812Y-48114027D01*
X213433200Y-48124117D01*
X213635883Y-48326800D01*
X213645973Y-48338188D01*
X213822760Y-48563840D01*
X213831402Y-48576361D01*
X213979703Y-48821679D01*
X213986759Y-48835121D01*
X214104419Y-49096553D01*
X214109805Y-49110757D01*
X214175273Y-49320852D01*
X214195087Y-49384436D01*
X214198728Y-49399209D01*
X214250398Y-49681161D01*
X214252232Y-49696265D01*
X214267482Y-49948381D01*
X214266293Y-49973657D01*
X214266277Y-49974958D01*
X214264896Y-49983829D01*
X214266060Y-49992731D01*
X214266060Y-49992734D01*
X214268936Y-50014725D01*
X214270000Y-50031062D01*
X214270000Y-93941297D01*
X214268500Y-93960681D01*
X214266723Y-93972096D01*
X214264896Y-93983829D01*
X214266510Y-93996171D01*
X214267081Y-94000537D01*
X214267914Y-94024479D01*
X214252232Y-94283735D01*
X214250398Y-94298839D01*
X214198728Y-94580791D01*
X214195087Y-94595564D01*
X214135410Y-94787076D01*
X214109807Y-94869238D01*
X214104419Y-94883447D01*
X213986759Y-95144879D01*
X213979703Y-95158321D01*
X213875310Y-95331007D01*
X213831403Y-95403638D01*
X213822760Y-95416160D01*
X213645973Y-95641812D01*
X213635883Y-95653200D01*
X213433200Y-95855883D01*
X213421812Y-95865973D01*
X213266710Y-95987488D01*
X213196160Y-96042760D01*
X213183639Y-96051402D01*
X212938321Y-96199703D01*
X212924879Y-96206759D01*
X212663447Y-96324419D01*
X212649243Y-96329805D01*
X212433383Y-96397070D01*
X212375564Y-96415087D01*
X212360791Y-96418728D01*
X212078839Y-96470398D01*
X212063735Y-96472232D01*
X211811619Y-96487482D01*
X211786343Y-96486293D01*
X211785042Y-96486277D01*
X211776171Y-96484896D01*
X211767269Y-96486060D01*
X211767266Y-96486060D01*
X211745275Y-96488936D01*
X211728938Y-96490000D01*
X190040602Y-96490000D01*
X189972481Y-96469998D01*
X189925988Y-96416342D01*
X189915884Y-96346068D01*
X189945378Y-96281488D01*
X189997663Y-96247992D01*
X189997013Y-96246489D01*
X190004289Y-96243341D01*
X190011901Y-96241129D01*
X190029010Y-96231011D01*
X190046756Y-96222316D01*
X190065243Y-96214997D01*
X190100502Y-96189380D01*
X190110421Y-96182865D01*
X190141101Y-96164721D01*
X190141105Y-96164718D01*
X190147931Y-96160681D01*
X190161981Y-96146631D01*
X190177015Y-96133790D01*
X190186684Y-96126765D01*
X190193098Y-96122105D01*
X190220881Y-96088521D01*
X190228870Y-96079742D01*
X202104445Y-84204168D01*
X202160930Y-84171556D01*
X202207184Y-84159163D01*
X202207191Y-84159160D01*
X202212496Y-84157739D01*
X202287232Y-84122889D01*
X202413753Y-84063891D01*
X202413756Y-84063889D01*
X202418734Y-84061568D01*
X202605139Y-83931047D01*
X202766047Y-83770139D01*
X202896568Y-83583734D01*
X202907286Y-83560751D01*
X202990416Y-83382478D01*
X202990417Y-83382476D01*
X202992739Y-83377496D01*
X203003033Y-83339080D01*
X203050211Y-83163007D01*
X203050211Y-83163005D01*
X203051635Y-83157692D01*
X203052114Y-83152216D01*
X203052115Y-83152211D01*
X203059016Y-83073326D01*
X203084879Y-83007207D01*
X203142383Y-82965568D01*
X203213270Y-82961627D01*
X203273632Y-82995212D01*
X204188595Y-83910175D01*
X204222621Y-83972487D01*
X204225500Y-83999270D01*
X204225500Y-86326531D01*
X204205498Y-86394652D01*
X204147717Y-86442940D01*
X204126719Y-86451637D01*
X204126711Y-86451641D01*
X204122141Y-86453534D01*
X203907341Y-86585164D01*
X203903581Y-86588376D01*
X203903576Y-86588379D01*
X203733983Y-86733226D01*
X203715776Y-86748776D01*
X203712563Y-86752538D01*
X203555379Y-86936576D01*
X203555376Y-86936581D01*
X203552164Y-86940341D01*
X203420534Y-87155141D01*
X203418641Y-87159711D01*
X203418639Y-87159715D01*
X203355183Y-87312913D01*
X203324127Y-87387889D01*
X203322972Y-87392701D01*
X203285128Y-87550334D01*
X203265317Y-87632852D01*
X203245551Y-87884000D01*
X203265317Y-88135148D01*
X203266471Y-88139955D01*
X203266472Y-88139961D01*
X203303865Y-88295711D01*
X203324127Y-88380111D01*
X203326020Y-88384682D01*
X203326021Y-88384684D01*
X203415423Y-88600519D01*
X203420534Y-88612859D01*
X203552164Y-88827659D01*
X203555376Y-88831419D01*
X203555379Y-88831424D01*
X203657964Y-88951535D01*
X203715776Y-89019224D01*
X203719538Y-89022437D01*
X203903576Y-89179621D01*
X203903581Y-89179624D01*
X203907341Y-89182836D01*
X204122141Y-89314466D01*
X204126711Y-89316359D01*
X204126715Y-89316361D01*
X204348100Y-89408061D01*
X204354889Y-89410873D01*
X204424254Y-89427526D01*
X204595039Y-89468528D01*
X204595045Y-89468529D01*
X204599852Y-89469683D01*
X204851000Y-89489449D01*
X205102148Y-89469683D01*
X205106955Y-89468529D01*
X205106961Y-89468528D01*
X205277746Y-89427526D01*
X205347111Y-89410873D01*
X205353900Y-89408061D01*
X205575285Y-89316361D01*
X205575289Y-89316359D01*
X205579859Y-89314466D01*
X205794659Y-89182836D01*
X205798419Y-89179624D01*
X205798424Y-89179621D01*
X205982462Y-89022437D01*
X205986224Y-89019224D01*
X206044036Y-88951535D01*
X206146621Y-88831424D01*
X206146624Y-88831419D01*
X206149836Y-88827659D01*
X206281466Y-88612859D01*
X206286578Y-88600519D01*
X206375979Y-88384684D01*
X206375980Y-88384682D01*
X206377873Y-88380111D01*
X206398135Y-88295711D01*
X206435528Y-88139961D01*
X206435529Y-88139955D01*
X206436683Y-88135148D01*
X206456449Y-87884000D01*
X206436683Y-87632852D01*
X206416873Y-87550334D01*
X206379028Y-87392701D01*
X206377873Y-87387889D01*
X206346817Y-87312913D01*
X206283361Y-87159715D01*
X206283359Y-87159711D01*
X206281466Y-87155141D01*
X206149836Y-86940341D01*
X206146624Y-86936581D01*
X206146621Y-86936576D01*
X205989437Y-86752538D01*
X205986224Y-86748776D01*
X205968017Y-86733226D01*
X205798424Y-86588379D01*
X205798419Y-86588376D01*
X205794659Y-86585164D01*
X205579859Y-86453534D01*
X205575289Y-86451641D01*
X205575281Y-86451637D01*
X205554283Y-86442940D01*
X205499002Y-86398393D01*
X205476500Y-86326531D01*
X205476500Y-83765693D01*
X205477017Y-83754733D01*
X205478673Y-83747323D01*
X205476562Y-83680135D01*
X205476500Y-83676178D01*
X205476500Y-83648640D01*
X205476003Y-83644709D01*
X205475995Y-83644578D01*
X205475078Y-83632923D01*
X205473959Y-83597284D01*
X205473959Y-83597283D01*
X205473710Y-83589363D01*
X205468165Y-83570277D01*
X205464156Y-83550918D01*
X205462659Y-83539069D01*
X205462657Y-83539063D01*
X205461664Y-83531198D01*
X205445622Y-83490682D01*
X205441776Y-83479449D01*
X205436448Y-83461111D01*
X205429618Y-83437600D01*
X205419500Y-83420491D01*
X205410805Y-83402745D01*
X205403486Y-83384258D01*
X205377869Y-83348999D01*
X205371354Y-83339080D01*
X205353210Y-83308400D01*
X205353207Y-83308396D01*
X205349170Y-83301570D01*
X205335120Y-83287520D01*
X205322279Y-83272486D01*
X205315254Y-83262817D01*
X205310594Y-83256403D01*
X205277010Y-83228620D01*
X205268231Y-83220631D01*
X202194918Y-80147318D01*
X207269500Y-80147318D01*
X207276174Y-80200148D01*
X207304205Y-80422035D01*
X207308934Y-80459473D01*
X207320483Y-80504452D01*
X207386194Y-80760383D01*
X207386197Y-80760391D01*
X207387181Y-80764225D01*
X207503006Y-81056766D01*
X207654584Y-81332484D01*
X207656912Y-81335688D01*
X207656915Y-81335693D01*
X207810640Y-81547277D01*
X207839522Y-81587030D01*
X208007616Y-81766031D01*
X208032968Y-81793028D01*
X208054906Y-81816390D01*
X208057957Y-81818914D01*
X208057958Y-81818915D01*
X208147337Y-81892856D01*
X208297337Y-82016947D01*
X208515653Y-82155494D01*
X208555058Y-82180501D01*
X208562993Y-82185537D01*
X208566572Y-82187221D01*
X208566579Y-82187225D01*
X208844095Y-82317814D01*
X208844099Y-82317816D01*
X208847685Y-82319503D01*
X208851457Y-82320729D01*
X208851458Y-82320729D01*
X208935833Y-82348144D01*
X209146921Y-82416731D01*
X209455985Y-82475688D01*
X209540386Y-82480998D01*
X209689422Y-82490375D01*
X209689438Y-82490376D01*
X209691417Y-82490500D01*
X209848583Y-82490500D01*
X209850562Y-82490376D01*
X209850578Y-82490375D01*
X209999614Y-82480998D01*
X210084015Y-82475688D01*
X210393079Y-82416731D01*
X210604167Y-82348144D01*
X210688542Y-82320729D01*
X210688543Y-82320729D01*
X210692315Y-82319503D01*
X210695901Y-82317816D01*
X210695905Y-82317814D01*
X210973421Y-82187225D01*
X210973428Y-82187221D01*
X210977007Y-82185537D01*
X210984943Y-82180501D01*
X211024347Y-82155494D01*
X211242663Y-82016947D01*
X211392663Y-81892856D01*
X211482042Y-81818915D01*
X211482043Y-81818914D01*
X211485094Y-81816390D01*
X211507033Y-81793028D01*
X211532384Y-81766031D01*
X211700478Y-81587030D01*
X211729360Y-81547277D01*
X211883085Y-81335693D01*
X211883088Y-81335688D01*
X211885416Y-81332484D01*
X212036994Y-81056766D01*
X212152819Y-80764225D01*
X212153803Y-80760391D01*
X212153806Y-80760383D01*
X212219517Y-80504452D01*
X212231066Y-80459473D01*
X212235796Y-80422035D01*
X212263826Y-80200148D01*
X212270500Y-80147318D01*
X212270500Y-79832682D01*
X212231066Y-79520527D01*
X212199815Y-79398813D01*
X212153806Y-79219617D01*
X212153803Y-79219609D01*
X212152819Y-79215775D01*
X212122659Y-79139598D01*
X212038448Y-78926907D01*
X212036994Y-78923234D01*
X211885416Y-78647516D01*
X211860534Y-78613268D01*
X211702806Y-78396174D01*
X211702805Y-78396172D01*
X211700478Y-78392970D01*
X211485094Y-78163610D01*
X211242663Y-77963053D01*
X210977007Y-77794463D01*
X210973428Y-77792779D01*
X210973421Y-77792775D01*
X210695905Y-77662186D01*
X210695901Y-77662184D01*
X210692315Y-77660497D01*
X210679254Y-77656253D01*
X210495002Y-77596386D01*
X210393079Y-77563269D01*
X210084015Y-77504312D01*
X209990511Y-77498429D01*
X209850578Y-77489625D01*
X209850562Y-77489624D01*
X209848583Y-77489500D01*
X209691417Y-77489500D01*
X209689438Y-77489624D01*
X209689422Y-77489625D01*
X209549489Y-77498429D01*
X209455985Y-77504312D01*
X209146921Y-77563269D01*
X209044998Y-77596386D01*
X208860747Y-77656253D01*
X208847685Y-77660497D01*
X208844099Y-77662184D01*
X208844095Y-77662186D01*
X208566579Y-77792775D01*
X208566572Y-77792779D01*
X208562993Y-77794463D01*
X208297337Y-77963053D01*
X208054906Y-78163610D01*
X207839522Y-78392970D01*
X207837195Y-78396172D01*
X207837194Y-78396174D01*
X207679467Y-78613268D01*
X207654584Y-78647516D01*
X207503006Y-78923234D01*
X207501552Y-78926907D01*
X207417342Y-79139598D01*
X207387181Y-79215775D01*
X207386197Y-79219609D01*
X207386194Y-79219617D01*
X207340185Y-79398813D01*
X207308934Y-79520527D01*
X207269500Y-79832682D01*
X207269500Y-80147318D01*
X202194918Y-80147318D01*
X198590741Y-76543140D01*
X198583352Y-76535020D01*
X198579285Y-76528612D01*
X198556348Y-76507072D01*
X198530292Y-76482604D01*
X198527450Y-76479849D01*
X198507970Y-76460369D01*
X198504840Y-76457941D01*
X198504758Y-76457869D01*
X198495850Y-76450260D01*
X198464081Y-76420427D01*
X198446666Y-76410853D01*
X198430137Y-76399996D01*
X198420699Y-76392675D01*
X198414435Y-76387816D01*
X198374441Y-76370509D01*
X198363781Y-76365287D01*
X198346713Y-76355904D01*
X198325591Y-76344292D01*
X198306335Y-76339348D01*
X198287646Y-76332949D01*
X198269395Y-76325051D01*
X198226340Y-76318232D01*
X198214736Y-76315829D01*
X198172518Y-76304989D01*
X198152643Y-76304989D01*
X198132933Y-76303438D01*
X198121132Y-76301569D01*
X198113303Y-76300329D01*
X198105411Y-76301075D01*
X198069920Y-76304430D01*
X198058062Y-76304989D01*
X196319209Y-76304989D01*
X196308248Y-76304472D01*
X196300843Y-76302817D01*
X196238984Y-76304761D01*
X196233687Y-76304927D01*
X196229730Y-76304989D01*
X196202161Y-76304989D01*
X196198226Y-76305486D01*
X196198116Y-76305493D01*
X196186445Y-76306411D01*
X196150807Y-76307531D01*
X196142883Y-76307780D01*
X196135270Y-76309992D01*
X196135263Y-76309993D01*
X196123793Y-76313325D01*
X196104437Y-76317334D01*
X196102377Y-76317594D01*
X196084719Y-76319825D01*
X196077353Y-76322742D01*
X196077347Y-76322743D01*
X196044194Y-76335870D01*
X196032961Y-76339716D01*
X195998731Y-76349660D01*
X195998724Y-76349663D01*
X195991121Y-76351872D01*
X195984305Y-76355903D01*
X195984302Y-76355904D01*
X195974015Y-76361988D01*
X195956263Y-76370684D01*
X195949808Y-76373240D01*
X195937779Y-76378003D01*
X195931364Y-76382664D01*
X195931360Y-76382666D01*
X195902524Y-76403616D01*
X195892605Y-76410132D01*
X195861913Y-76428283D01*
X195861908Y-76428287D01*
X195855090Y-76432319D01*
X195841037Y-76446372D01*
X195826004Y-76459212D01*
X195809924Y-76470895D01*
X195804871Y-76477003D01*
X195782146Y-76504473D01*
X195774156Y-76513253D01*
X195569814Y-76717595D01*
X195507502Y-76751621D01*
X195480719Y-76754500D01*
X194253420Y-76754501D01*
X194169624Y-76754501D01*
X194166230Y-76754870D01*
X194166224Y-76754870D01*
X194116278Y-76760295D01*
X194116274Y-76760296D01*
X194108420Y-76761149D01*
X193974176Y-76811474D01*
X193966997Y-76816854D01*
X193966994Y-76816856D01*
X193953246Y-76827160D01*
X193859454Y-76897454D01*
X193854072Y-76904635D01*
X193778856Y-77004994D01*
X193778854Y-77004997D01*
X193773474Y-77012176D01*
X193723149Y-77146420D01*
X193722296Y-77154270D01*
X193722296Y-77154271D01*
X193720407Y-77171663D01*
X193716500Y-77207623D01*
X193716501Y-79002376D01*
X193716870Y-79005770D01*
X193716870Y-79005776D01*
X193721562Y-79048965D01*
X193723149Y-79063580D01*
X193773474Y-79197824D01*
X193778854Y-79205003D01*
X193778856Y-79205006D01*
X193836082Y-79281361D01*
X193859454Y-79312546D01*
X193866635Y-79317928D01*
X193966994Y-79393144D01*
X193966997Y-79393146D01*
X193974176Y-79398526D01*
X194063561Y-79432034D01*
X194101025Y-79446079D01*
X194101027Y-79446079D01*
X194108420Y-79448851D01*
X194116270Y-79449704D01*
X194116271Y-79449704D01*
X194166217Y-79455130D01*
X194169623Y-79455500D01*
X195066868Y-79455500D01*
X195964376Y-79455499D01*
X195967770Y-79455130D01*
X195967776Y-79455130D01*
X196017722Y-79449705D01*
X196017726Y-79449704D01*
X196025580Y-79448851D01*
X196159824Y-79398526D01*
X196167003Y-79393146D01*
X196167006Y-79393144D01*
X196267365Y-79317928D01*
X196274546Y-79312546D01*
X196297918Y-79281361D01*
X196355144Y-79205006D01*
X196355146Y-79205003D01*
X196360526Y-79197824D01*
X196379709Y-79146654D01*
X196390793Y-79117086D01*
X196408912Y-79068752D01*
X196451553Y-79011987D01*
X196518114Y-78987286D01*
X196587463Y-79002493D01*
X196615989Y-79023885D01*
X196735599Y-79143495D01*
X196740107Y-79146652D01*
X196740110Y-79146654D01*
X196924661Y-79275878D01*
X196929170Y-79279035D01*
X196934152Y-79281358D01*
X196934157Y-79281361D01*
X197102250Y-79359744D01*
X197155535Y-79406662D01*
X197175000Y-79473939D01*
X197175000Y-81704500D01*
X197154998Y-81772621D01*
X197101342Y-81819114D01*
X197049000Y-81830500D01*
X195757088Y-81830501D01*
X195718624Y-81830501D01*
X195715230Y-81830870D01*
X195715224Y-81830870D01*
X195665278Y-81836295D01*
X195665274Y-81836296D01*
X195657420Y-81837149D01*
X195523176Y-81887474D01*
X195515997Y-81892854D01*
X195515994Y-81892856D01*
X195415635Y-81968072D01*
X195408454Y-81973454D01*
X195403072Y-81980635D01*
X195334585Y-82072017D01*
X195322474Y-82088176D01*
X195318517Y-82098732D01*
X195317150Y-82100551D01*
X195315013Y-82104455D01*
X195314449Y-82104146D01*
X195275878Y-82155494D01*
X195209316Y-82180195D01*
X195200536Y-82180501D01*
X195093704Y-82180501D01*
X195025583Y-82160499D01*
X194990491Y-82126771D01*
X194974649Y-82104146D01*
X194966047Y-82091861D01*
X194805139Y-81930953D01*
X194618734Y-81800432D01*
X194613756Y-81798111D01*
X194613753Y-81798109D01*
X194417478Y-81706584D01*
X194417476Y-81706583D01*
X194412496Y-81704261D01*
X194407188Y-81702839D01*
X194407186Y-81702838D01*
X194198007Y-81646789D01*
X194198005Y-81646789D01*
X194192692Y-81645365D01*
X193966000Y-81625532D01*
X193739308Y-81645365D01*
X193733995Y-81646789D01*
X193733993Y-81646789D01*
X193524814Y-81702838D01*
X193524812Y-81702839D01*
X193519504Y-81704261D01*
X193514524Y-81706583D01*
X193514522Y-81706584D01*
X193318247Y-81798109D01*
X193318244Y-81798111D01*
X193313266Y-81800432D01*
X193126861Y-81930953D01*
X192965953Y-82091861D01*
X192835432Y-82278266D01*
X192833111Y-82283244D01*
X192833109Y-82283247D01*
X192743719Y-82474944D01*
X192739261Y-82484504D01*
X192737839Y-82489812D01*
X192737838Y-82489814D01*
X192706931Y-82605163D01*
X192680365Y-82704308D01*
X192660532Y-82931000D01*
X192680365Y-83157692D01*
X192681789Y-83163005D01*
X192681789Y-83163007D01*
X192728968Y-83339080D01*
X192739261Y-83377496D01*
X192741583Y-83382476D01*
X192741584Y-83382478D01*
X192824715Y-83560751D01*
X192835432Y-83583734D01*
X192965953Y-83770139D01*
X193126861Y-83931047D01*
X193313266Y-84061568D01*
X193318244Y-84063889D01*
X193318247Y-84063891D01*
X193444768Y-84122889D01*
X193519504Y-84157739D01*
X193524812Y-84159161D01*
X193524814Y-84159162D01*
X193733993Y-84215211D01*
X193733995Y-84215211D01*
X193739308Y-84216635D01*
X193966000Y-84236468D01*
X194192692Y-84216635D01*
X194198005Y-84215211D01*
X194198007Y-84215211D01*
X194407186Y-84159162D01*
X194407188Y-84159161D01*
X194412496Y-84157739D01*
X194487232Y-84122889D01*
X194613753Y-84063891D01*
X194613756Y-84063889D01*
X194618734Y-84061568D01*
X194805139Y-83931047D01*
X194966047Y-83770139D01*
X194990491Y-83735230D01*
X195045947Y-83690901D01*
X195093704Y-83681500D01*
X195200536Y-83681500D01*
X195268657Y-83701502D01*
X195315150Y-83755158D01*
X195318512Y-83763255D01*
X195322474Y-83773824D01*
X195327854Y-83781003D01*
X195327856Y-83781006D01*
X195386576Y-83859355D01*
X195408454Y-83888546D01*
X195415635Y-83893928D01*
X195515994Y-83969144D01*
X195515997Y-83969146D01*
X195523176Y-83974526D01*
X195589182Y-83999270D01*
X195650025Y-84022079D01*
X195650027Y-84022079D01*
X195657420Y-84024851D01*
X195665270Y-84025704D01*
X195665271Y-84025704D01*
X195715217Y-84031130D01*
X195718623Y-84031500D01*
X195757076Y-84031500D01*
X197049000Y-84031499D01*
X197117121Y-84051501D01*
X197163614Y-84105157D01*
X197175000Y-84157499D01*
X197175000Y-84370588D01*
X197154998Y-84438709D01*
X197138095Y-84459683D01*
X195351183Y-86246595D01*
X195288871Y-86280621D01*
X195262088Y-86283500D01*
X193652459Y-86283501D01*
X193543624Y-86283501D01*
X193540230Y-86283870D01*
X193540224Y-86283870D01*
X193490278Y-86289295D01*
X193490274Y-86289296D01*
X193482420Y-86290149D01*
X193348176Y-86340474D01*
X193340997Y-86345854D01*
X193340994Y-86345856D01*
X193262964Y-86404337D01*
X193233454Y-86426454D01*
X193228072Y-86433635D01*
X193152856Y-86533994D01*
X193152854Y-86533997D01*
X193147474Y-86541176D01*
X193097149Y-86675420D01*
X193090500Y-86736623D01*
X193090501Y-89031376D01*
X193090870Y-89034770D01*
X193090870Y-89034776D01*
X193091925Y-89044483D01*
X193097149Y-89092580D01*
X193147474Y-89226824D01*
X193152854Y-89234003D01*
X193152856Y-89234006D01*
X193214579Y-89316361D01*
X193233454Y-89341546D01*
X193240635Y-89346928D01*
X193340994Y-89422144D01*
X193340997Y-89422146D01*
X193348176Y-89427526D01*
X193437561Y-89461034D01*
X193475025Y-89475079D01*
X193475027Y-89475079D01*
X193482420Y-89477851D01*
X193490270Y-89478704D01*
X193490271Y-89478704D01*
X193540226Y-89484131D01*
X193543623Y-89484500D01*
X193560411Y-89484500D01*
X194750743Y-89484499D01*
X194818863Y-89504501D01*
X194865356Y-89558157D01*
X194875460Y-89628431D01*
X194845967Y-89693011D01*
X194839837Y-89699594D01*
X189539325Y-95000106D01*
X189477013Y-95034132D01*
X189450230Y-95037011D01*
X97755241Y-95037011D01*
X97687120Y-95017009D01*
X97640627Y-94963353D01*
X97630523Y-94893079D01*
X97633534Y-94878401D01*
X97673638Y-94728726D01*
X97675063Y-94723408D01*
X97695659Y-94488000D01*
X97675063Y-94252592D01*
X97671750Y-94240226D01*
X97648443Y-94153240D01*
X97650133Y-94082264D01*
X97681055Y-94031535D01*
X100577095Y-91135496D01*
X100585215Y-91128107D01*
X100591623Y-91124040D01*
X100637631Y-91075047D01*
X100640386Y-91072205D01*
X100659866Y-91052725D01*
X100662294Y-91049595D01*
X100662366Y-91049513D01*
X100669975Y-91040605D01*
X100699808Y-91008836D01*
X100709382Y-90991421D01*
X100720239Y-90974892D01*
X100727560Y-90965454D01*
X100732419Y-90959190D01*
X100749726Y-90919196D01*
X100754948Y-90908536D01*
X100772124Y-90877292D01*
X100775943Y-90870346D01*
X100780887Y-90851090D01*
X100787286Y-90832401D01*
X100795184Y-90814150D01*
X100802003Y-90771095D01*
X100804406Y-90759491D01*
X100815246Y-90717273D01*
X100815246Y-90697398D01*
X100816797Y-90677688D01*
X100818666Y-90665887D01*
X100819906Y-90658058D01*
X100815805Y-90614674D01*
X100815246Y-90602817D01*
X100815246Y-83413704D01*
X187601072Y-83413704D01*
X187637212Y-83649884D01*
X187711442Y-83876990D01*
X187713830Y-83881578D01*
X187713832Y-83881582D01*
X187807527Y-84061568D01*
X187821767Y-84088923D01*
X187824870Y-84093056D01*
X187824872Y-84093059D01*
X187944226Y-84252023D01*
X187969132Y-84318508D01*
X187954140Y-84387903D01*
X187904009Y-84438177D01*
X187887704Y-84445654D01*
X187860176Y-84455974D01*
X187852997Y-84461354D01*
X187852994Y-84461356D01*
X187752635Y-84536572D01*
X187745454Y-84541954D01*
X187740072Y-84549135D01*
X187664856Y-84649494D01*
X187664854Y-84649497D01*
X187659474Y-84656676D01*
X187609149Y-84790920D01*
X187602500Y-84852123D01*
X187602501Y-86851876D01*
X187602870Y-86855270D01*
X187602870Y-86855276D01*
X187604799Y-86873028D01*
X187609149Y-86913080D01*
X187659474Y-87047324D01*
X187664854Y-87054503D01*
X187664856Y-87054506D01*
X187701507Y-87103408D01*
X187745454Y-87162046D01*
X187752635Y-87167428D01*
X187852994Y-87242644D01*
X187852997Y-87242646D01*
X187860176Y-87248026D01*
X187949561Y-87281534D01*
X187987025Y-87295579D01*
X187987027Y-87295579D01*
X187994420Y-87298351D01*
X188002270Y-87299204D01*
X188002271Y-87299204D01*
X188052217Y-87304630D01*
X188055623Y-87305000D01*
X189102846Y-87305000D01*
X190150376Y-87304999D01*
X190153770Y-87304630D01*
X190153776Y-87304630D01*
X190203722Y-87299205D01*
X190203726Y-87299204D01*
X190211580Y-87298351D01*
X190345824Y-87248026D01*
X190353003Y-87242646D01*
X190353006Y-87242644D01*
X190453365Y-87167428D01*
X190460546Y-87162046D01*
X190504493Y-87103408D01*
X190541144Y-87054506D01*
X190541146Y-87054503D01*
X190546526Y-87047324D01*
X190585051Y-86944558D01*
X190594079Y-86920475D01*
X190594079Y-86920473D01*
X190596851Y-86913080D01*
X190603500Y-86851877D01*
X190603499Y-84852124D01*
X190603130Y-84848724D01*
X190597705Y-84798778D01*
X190597704Y-84798774D01*
X190596851Y-84790920D01*
X190546526Y-84656676D01*
X190541146Y-84649497D01*
X190541144Y-84649494D01*
X190465928Y-84549135D01*
X190460546Y-84541954D01*
X190453365Y-84536572D01*
X190353006Y-84461356D01*
X190353003Y-84461354D01*
X190345824Y-84455974D01*
X190316738Y-84445070D01*
X190259975Y-84402431D01*
X190235274Y-84335870D01*
X190250481Y-84266521D01*
X190262086Y-84248997D01*
X190361681Y-84122889D01*
X190361683Y-84122885D01*
X190364883Y-84118834D01*
X190480353Y-83909660D01*
X190531430Y-83765422D01*
X190558384Y-83689307D01*
X190558385Y-83689304D01*
X190560109Y-83684435D01*
X190561016Y-83679344D01*
X190601103Y-83454297D01*
X190601104Y-83454291D01*
X190602009Y-83449208D01*
X190603960Y-83289505D01*
X190604865Y-83215465D01*
X190604865Y-83215463D01*
X190604928Y-83210296D01*
X190568788Y-82974116D01*
X190494558Y-82747010D01*
X190480091Y-82719218D01*
X190386622Y-82539666D01*
X190386621Y-82539665D01*
X190384233Y-82535077D01*
X190379243Y-82528430D01*
X190243880Y-82348144D01*
X190243878Y-82348141D01*
X190240775Y-82344009D01*
X190080523Y-82190869D01*
X190071774Y-82182508D01*
X190071773Y-82182507D01*
X190068037Y-82178937D01*
X190063774Y-82176029D01*
X190063769Y-82176025D01*
X190035670Y-82156858D01*
X190028364Y-82151874D01*
X189983362Y-82096964D01*
X189975190Y-82026439D01*
X190006444Y-81962692D01*
X190030930Y-81941994D01*
X190040322Y-81935918D01*
X190048498Y-81929622D01*
X190218480Y-81774950D01*
X190225506Y-81767417D01*
X190367945Y-81587056D01*
X190373650Y-81578469D01*
X190484714Y-81377278D01*
X190488944Y-81367866D01*
X190565659Y-81151232D01*
X190568293Y-81141261D01*
X190585647Y-81043837D01*
X190584187Y-81030540D01*
X190569630Y-81026000D01*
X187634904Y-81026000D01*
X187621560Y-81029918D01*
X187619573Y-81044194D01*
X187629110Y-81106515D01*
X187631499Y-81116543D01*
X187702898Y-81334988D01*
X187706895Y-81344497D01*
X187813011Y-81548344D01*
X187818505Y-81557069D01*
X187956493Y-81740852D01*
X187963336Y-81748559D01*
X188129491Y-81907339D01*
X188137501Y-81913826D01*
X188177526Y-81941129D01*
X188222529Y-81996040D01*
X188230700Y-82066565D01*
X188199446Y-82130312D01*
X188174963Y-82151008D01*
X188173702Y-82151824D01*
X188165921Y-82156858D01*
X188162096Y-82160338D01*
X188162094Y-82160340D01*
X188137732Y-82182508D01*
X187989201Y-82317660D01*
X187986002Y-82321711D01*
X187985998Y-82321715D01*
X187844319Y-82501111D01*
X187841117Y-82505166D01*
X187838621Y-82509687D01*
X187838620Y-82509689D01*
X187826888Y-82530941D01*
X187725647Y-82714340D01*
X187645891Y-82939565D01*
X187644984Y-82944654D01*
X187644984Y-82944656D01*
X187606410Y-83161214D01*
X187603991Y-83174792D01*
X187603928Y-83179956D01*
X187601454Y-83382478D01*
X187601072Y-83413704D01*
X100815246Y-83413704D01*
X100815246Y-82463701D01*
X100835248Y-82395580D01*
X100888904Y-82349087D01*
X100941246Y-82337701D01*
X101039092Y-82337701D01*
X101045545Y-82336329D01*
X101045549Y-82336329D01*
X101133378Y-82317660D01*
X101224249Y-82298345D01*
X101304780Y-82262490D01*
X101391140Y-82224040D01*
X101391144Y-82224038D01*
X101397176Y-82221352D01*
X101402517Y-82217471D01*
X101408239Y-82214168D01*
X101408907Y-82215324D01*
X101469029Y-82193877D01*
X101527461Y-82204564D01*
X101663595Y-82265176D01*
X101729028Y-82279084D01*
X101842295Y-82303160D01*
X101842299Y-82303160D01*
X101848752Y-82304532D01*
X102038044Y-82304532D01*
X102044497Y-82303160D01*
X102044501Y-82303160D01*
X102157768Y-82279084D01*
X102223201Y-82265176D01*
X102396128Y-82188183D01*
X102402694Y-82183413D01*
X102543930Y-82080799D01*
X102549269Y-82076920D01*
X102594723Y-82026439D01*
X102671512Y-81941156D01*
X102671513Y-81941155D01*
X102675931Y-81936248D01*
X102736771Y-81830870D01*
X102767273Y-81778039D01*
X102767274Y-81778038D01*
X102770577Y-81772316D01*
X102829072Y-81592288D01*
X102829962Y-81583826D01*
X102848168Y-81410597D01*
X102848858Y-81404032D01*
X102842601Y-81344497D01*
X102829762Y-81222339D01*
X102829762Y-81222337D01*
X102829072Y-81215776D01*
X102770577Y-81035748D01*
X102711582Y-80933565D01*
X102694844Y-80864569D01*
X102718065Y-80797478D01*
X102731606Y-80781470D01*
X103012913Y-80500163D01*
X187620353Y-80500163D01*
X187621813Y-80513460D01*
X187636370Y-80518000D01*
X188830885Y-80518000D01*
X188846124Y-80513525D01*
X188847329Y-80512135D01*
X188849000Y-80504452D01*
X188849000Y-80499885D01*
X189357000Y-80499885D01*
X189361475Y-80515124D01*
X189362865Y-80516329D01*
X189370548Y-80518000D01*
X190571096Y-80518000D01*
X190584440Y-80514082D01*
X190586427Y-80499806D01*
X190576890Y-80437485D01*
X190574501Y-80427457D01*
X190503102Y-80209012D01*
X190499105Y-80199503D01*
X190392989Y-79995656D01*
X190387495Y-79986931D01*
X190249507Y-79803148D01*
X190242664Y-79795441D01*
X190076509Y-79636661D01*
X190068499Y-79630174D01*
X189878653Y-79500670D01*
X189869679Y-79495571D01*
X189661231Y-79398813D01*
X189651544Y-79395250D01*
X189430092Y-79333835D01*
X189419970Y-79331904D01*
X189375013Y-79327099D01*
X189360392Y-79329747D01*
X189357000Y-79342124D01*
X189357000Y-80499885D01*
X188849000Y-80499885D01*
X188849000Y-79341588D01*
X188844675Y-79326859D01*
X188832889Y-79324798D01*
X188821296Y-79325751D01*
X188811134Y-79327433D01*
X188588229Y-79383422D01*
X188578481Y-79386741D01*
X188367711Y-79478385D01*
X188358636Y-79483251D01*
X188165673Y-79608085D01*
X188157502Y-79614378D01*
X187987520Y-79769050D01*
X187980494Y-79776583D01*
X187838055Y-79956944D01*
X187832350Y-79965531D01*
X187721286Y-80166722D01*
X187717056Y-80176134D01*
X187640341Y-80392768D01*
X187637707Y-80402739D01*
X187620353Y-80500163D01*
X103012913Y-80500163D01*
X108933152Y-74579924D01*
X108995464Y-74545898D01*
X109022247Y-74543019D01*
X189308800Y-74543019D01*
X189319760Y-74543536D01*
X189327170Y-74545192D01*
X189335096Y-74544943D01*
X189335097Y-74544943D01*
X189394344Y-74543081D01*
X189398302Y-74543019D01*
X189425853Y-74543019D01*
X189429776Y-74542523D01*
X189429891Y-74542516D01*
X189441571Y-74541596D01*
X189485130Y-74540228D01*
X189504219Y-74534682D01*
X189523565Y-74530675D01*
X189543295Y-74528183D01*
X189583826Y-74512135D01*
X189595027Y-74508300D01*
X189636893Y-74496137D01*
X189654002Y-74486019D01*
X189671748Y-74477324D01*
X189690235Y-74470005D01*
X189725494Y-74444388D01*
X189735413Y-74437873D01*
X189766093Y-74419729D01*
X189766097Y-74419726D01*
X189772923Y-74415689D01*
X189786973Y-74401639D01*
X189802007Y-74388798D01*
X189811676Y-74381773D01*
X189818090Y-74377113D01*
X189845873Y-74343529D01*
X189853862Y-74334750D01*
X191719612Y-72469000D01*
X196595052Y-72469000D01*
X196614812Y-72720069D01*
X196615966Y-72724876D01*
X196615967Y-72724882D01*
X196625413Y-72764225D01*
X196673604Y-72964956D01*
X196675497Y-72969527D01*
X196675498Y-72969529D01*
X196743376Y-73133400D01*
X196769981Y-73197631D01*
X196901570Y-73412365D01*
X197065130Y-73603870D01*
X197256635Y-73767430D01*
X197471369Y-73899019D01*
X197475939Y-73900912D01*
X197475943Y-73900914D01*
X197565651Y-73938072D01*
X197704044Y-73995396D01*
X197783293Y-74014422D01*
X197944118Y-74053033D01*
X197944124Y-74053034D01*
X197948931Y-74054188D01*
X198200000Y-74073948D01*
X198451069Y-74054188D01*
X198455876Y-74053034D01*
X198455882Y-74053033D01*
X198616707Y-74014422D01*
X198695956Y-73995396D01*
X198834349Y-73938072D01*
X198924057Y-73900914D01*
X198924061Y-73900912D01*
X198928631Y-73899019D01*
X199143365Y-73767430D01*
X199334870Y-73603870D01*
X199498430Y-73412365D01*
X199630019Y-73197631D01*
X199656625Y-73133400D01*
X199724502Y-72969529D01*
X199724503Y-72969527D01*
X199726396Y-72964956D01*
X199774587Y-72764225D01*
X199784033Y-72724882D01*
X199784034Y-72724876D01*
X199785188Y-72720069D01*
X199804948Y-72469000D01*
X199785188Y-72217931D01*
X199782778Y-72207890D01*
X199727551Y-71977856D01*
X199726396Y-71973044D01*
X199683185Y-71868723D01*
X199631914Y-71744943D01*
X199631912Y-71744939D01*
X199630019Y-71740369D01*
X199498430Y-71525635D01*
X199334870Y-71334130D01*
X199143365Y-71170570D01*
X198928631Y-71038981D01*
X198924061Y-71037088D01*
X198924057Y-71037086D01*
X198700529Y-70944498D01*
X198700527Y-70944497D01*
X198695956Y-70942604D01*
X198551874Y-70908013D01*
X198455882Y-70884967D01*
X198455876Y-70884966D01*
X198451069Y-70883812D01*
X198200000Y-70864052D01*
X197948931Y-70883812D01*
X197944124Y-70884966D01*
X197944118Y-70884967D01*
X197848126Y-70908013D01*
X197704044Y-70942604D01*
X197699473Y-70944497D01*
X197699471Y-70944498D01*
X197475943Y-71037086D01*
X197475939Y-71037088D01*
X197471369Y-71038981D01*
X197256635Y-71170570D01*
X197065130Y-71334130D01*
X196901570Y-71525635D01*
X196769981Y-71740369D01*
X196768088Y-71744939D01*
X196768086Y-71744943D01*
X196716815Y-71868723D01*
X196673604Y-71973044D01*
X196672449Y-71977856D01*
X196617223Y-72207890D01*
X196614812Y-72217931D01*
X196595052Y-72469000D01*
X191719612Y-72469000D01*
X197719613Y-66469000D01*
X206595052Y-66469000D01*
X206614812Y-66720069D01*
X206615966Y-66724876D01*
X206615967Y-66724882D01*
X206630018Y-66783408D01*
X206673604Y-66964956D01*
X206675497Y-66969527D01*
X206675498Y-66969529D01*
X206767856Y-67192500D01*
X206769981Y-67197631D01*
X206901570Y-67412365D01*
X207065130Y-67603870D01*
X207256635Y-67767430D01*
X207471369Y-67899019D01*
X207475939Y-67900912D01*
X207475943Y-67900914D01*
X207699471Y-67993502D01*
X207704044Y-67995396D01*
X207788907Y-68015770D01*
X207944118Y-68053033D01*
X207944124Y-68053034D01*
X207948931Y-68054188D01*
X208200000Y-68073948D01*
X208451069Y-68054188D01*
X208455876Y-68053034D01*
X208455882Y-68053033D01*
X208611093Y-68015770D01*
X208695956Y-67995396D01*
X208700529Y-67993502D01*
X208924057Y-67900914D01*
X208924061Y-67900912D01*
X208928631Y-67899019D01*
X209143365Y-67767430D01*
X209334870Y-67603870D01*
X209498430Y-67412365D01*
X209630019Y-67197631D01*
X209632145Y-67192500D01*
X209724502Y-66969529D01*
X209724503Y-66969527D01*
X209726396Y-66964956D01*
X209769982Y-66783408D01*
X209784033Y-66724882D01*
X209784034Y-66724876D01*
X209785188Y-66720069D01*
X209804948Y-66469000D01*
X209785188Y-66217931D01*
X209726396Y-65973044D01*
X209716596Y-65949385D01*
X209631914Y-65744943D01*
X209631912Y-65744939D01*
X209630019Y-65740369D01*
X209498430Y-65525635D01*
X209334870Y-65334130D01*
X209143365Y-65170570D01*
X208928631Y-65038981D01*
X208924061Y-65037088D01*
X208924057Y-65037086D01*
X208700529Y-64944498D01*
X208700527Y-64944497D01*
X208695956Y-64942604D01*
X208611093Y-64922230D01*
X208455882Y-64884967D01*
X208455876Y-64884966D01*
X208451069Y-64883812D01*
X208200000Y-64864052D01*
X207948931Y-64883812D01*
X207944124Y-64884966D01*
X207944118Y-64884967D01*
X207788907Y-64922230D01*
X207704044Y-64942604D01*
X207699473Y-64944497D01*
X207699471Y-64944498D01*
X207475943Y-65037086D01*
X207475939Y-65037088D01*
X207471369Y-65038981D01*
X207256635Y-65170570D01*
X207065130Y-65334130D01*
X206901570Y-65525635D01*
X206769981Y-65740369D01*
X206768088Y-65744939D01*
X206768086Y-65744943D01*
X206683404Y-65949385D01*
X206673604Y-65973044D01*
X206614812Y-66217931D01*
X206595052Y-66469000D01*
X197719613Y-66469000D01*
X201855000Y-62333613D01*
X201917312Y-62299587D01*
X201930485Y-62297446D01*
X201939299Y-62296488D01*
X201955722Y-62294705D01*
X201955726Y-62294704D01*
X201963580Y-62293851D01*
X201995086Y-62282040D01*
X202065893Y-62276857D01*
X202083544Y-62282040D01*
X202127391Y-62298478D01*
X202142649Y-62302105D01*
X202193514Y-62307631D01*
X202200328Y-62308000D01*
X202277885Y-62308000D01*
X202293124Y-62303525D01*
X202294329Y-62302135D01*
X202296000Y-62294452D01*
X202296000Y-62289884D01*
X202804000Y-62289884D01*
X202808475Y-62305123D01*
X202809865Y-62306328D01*
X202817548Y-62307999D01*
X202899669Y-62307999D01*
X202906490Y-62307629D01*
X202957352Y-62302105D01*
X202972604Y-62298479D01*
X203093054Y-62253324D01*
X203108649Y-62244786D01*
X203210724Y-62168285D01*
X203223285Y-62155724D01*
X203299786Y-62053649D01*
X203308324Y-62038054D01*
X203353478Y-61917606D01*
X203357105Y-61902351D01*
X203362631Y-61851486D01*
X203363000Y-61844672D01*
X203363000Y-61072115D01*
X203358525Y-61056876D01*
X203357135Y-61055671D01*
X203349452Y-61054000D01*
X202822115Y-61054000D01*
X202806876Y-61058475D01*
X202805671Y-61059865D01*
X202804000Y-61067548D01*
X202804000Y-62289884D01*
X202296000Y-62289884D01*
X202296000Y-62072403D01*
X202304018Y-62028174D01*
X202346079Y-61915975D01*
X202346079Y-61915973D01*
X202348851Y-61908580D01*
X202351510Y-61884109D01*
X202355131Y-61850774D01*
X202355131Y-61850773D01*
X202355500Y-61847377D01*
X202355499Y-60527885D01*
X202804000Y-60527885D01*
X202808475Y-60543124D01*
X202809865Y-60544329D01*
X202817548Y-60546000D01*
X203344884Y-60546000D01*
X203360123Y-60541525D01*
X203361328Y-60540135D01*
X203362999Y-60532452D01*
X203362999Y-59755331D01*
X203362629Y-59748510D01*
X203357105Y-59697648D01*
X203353479Y-59682396D01*
X203308324Y-59561946D01*
X203299786Y-59546351D01*
X203223285Y-59444276D01*
X203210724Y-59431715D01*
X203108649Y-59355214D01*
X203093054Y-59346676D01*
X202972606Y-59301522D01*
X202957351Y-59297895D01*
X202906486Y-59292369D01*
X202899672Y-59292000D01*
X202822115Y-59292000D01*
X202806876Y-59296475D01*
X202805671Y-59297865D01*
X202804000Y-59305548D01*
X202804000Y-60527885D01*
X202355499Y-60527885D01*
X202355499Y-59752624D01*
X202355052Y-59748510D01*
X202349705Y-59699278D01*
X202349704Y-59699274D01*
X202348851Y-59691420D01*
X202304018Y-59571826D01*
X202296000Y-59527597D01*
X202296000Y-59310116D01*
X202291525Y-59294877D01*
X202290135Y-59293672D01*
X202282452Y-59292001D01*
X202200331Y-59292001D01*
X202193510Y-59292371D01*
X202142648Y-59297895D01*
X202127394Y-59301522D01*
X202083544Y-59317960D01*
X202012737Y-59323143D01*
X201995086Y-59317960D01*
X201970975Y-59308921D01*
X201970973Y-59308921D01*
X201963580Y-59306149D01*
X201955730Y-59305296D01*
X201955729Y-59305296D01*
X201905774Y-59299869D01*
X201905773Y-59299869D01*
X201902377Y-59299500D01*
X201550052Y-59299500D01*
X201197624Y-59299501D01*
X201194230Y-59299870D01*
X201194224Y-59299870D01*
X201144278Y-59305295D01*
X201144274Y-59305296D01*
X201136420Y-59306149D01*
X201094228Y-59321966D01*
X201023421Y-59327148D01*
X201005772Y-59321966D01*
X200963580Y-59306149D01*
X200955730Y-59305296D01*
X200955729Y-59305296D01*
X200905774Y-59299869D01*
X200905773Y-59299869D01*
X200902377Y-59299500D01*
X200550052Y-59299500D01*
X200197624Y-59299501D01*
X200194230Y-59299870D01*
X200194224Y-59299870D01*
X200144278Y-59305295D01*
X200144274Y-59305296D01*
X200136420Y-59306149D01*
X200094228Y-59321966D01*
X200023421Y-59327148D01*
X200005772Y-59321966D01*
X199963580Y-59306149D01*
X199955730Y-59305296D01*
X199955729Y-59305296D01*
X199905774Y-59299869D01*
X199905773Y-59299869D01*
X199902377Y-59299500D01*
X199550052Y-59299500D01*
X199197624Y-59299501D01*
X199194230Y-59299870D01*
X199194224Y-59299870D01*
X199144278Y-59305295D01*
X199144274Y-59305296D01*
X199136420Y-59306149D01*
X199094228Y-59321966D01*
X199023421Y-59327148D01*
X199005772Y-59321966D01*
X198963580Y-59306149D01*
X198955730Y-59305296D01*
X198955729Y-59305296D01*
X198905774Y-59299869D01*
X198905773Y-59299869D01*
X198902377Y-59299500D01*
X198550052Y-59299500D01*
X198197624Y-59299501D01*
X198194230Y-59299870D01*
X198194224Y-59299870D01*
X198144278Y-59305295D01*
X198144274Y-59305296D01*
X198136420Y-59306149D01*
X198094228Y-59321966D01*
X198023421Y-59327148D01*
X198005772Y-59321966D01*
X197963580Y-59306149D01*
X197955730Y-59305296D01*
X197955729Y-59305296D01*
X197905774Y-59299869D01*
X197905773Y-59299869D01*
X197902377Y-59299500D01*
X197550052Y-59299500D01*
X197197624Y-59299501D01*
X197194230Y-59299870D01*
X197194224Y-59299870D01*
X197144278Y-59305295D01*
X197144274Y-59305296D01*
X197136420Y-59306149D01*
X197094228Y-59321966D01*
X197023421Y-59327148D01*
X197005772Y-59321966D01*
X196963580Y-59306149D01*
X196955730Y-59305296D01*
X196955729Y-59305296D01*
X196905774Y-59299869D01*
X196905773Y-59299869D01*
X196902377Y-59299500D01*
X196550052Y-59299500D01*
X196197624Y-59299501D01*
X196194230Y-59299870D01*
X196194224Y-59299870D01*
X196144278Y-59305295D01*
X196144274Y-59305296D01*
X196136420Y-59306149D01*
X196094228Y-59321966D01*
X196023421Y-59327148D01*
X196005772Y-59321966D01*
X195963580Y-59306149D01*
X195955730Y-59305296D01*
X195955729Y-59305296D01*
X195905774Y-59299869D01*
X195905773Y-59299869D01*
X195902377Y-59299500D01*
X195550052Y-59299500D01*
X195197624Y-59299501D01*
X195194230Y-59299870D01*
X195194224Y-59299870D01*
X195144278Y-59305295D01*
X195144274Y-59305296D01*
X195136420Y-59306149D01*
X195094228Y-59321966D01*
X195023421Y-59327148D01*
X195005772Y-59321966D01*
X194963580Y-59306149D01*
X194955730Y-59305296D01*
X194955729Y-59305296D01*
X194905774Y-59299869D01*
X194905773Y-59299869D01*
X194902377Y-59299500D01*
X194550052Y-59299500D01*
X194197624Y-59299501D01*
X194194230Y-59299870D01*
X194194224Y-59299870D01*
X194144278Y-59305295D01*
X194144274Y-59305296D01*
X194136420Y-59306149D01*
X194094228Y-59321966D01*
X194023421Y-59327148D01*
X194005772Y-59321966D01*
X193963580Y-59306149D01*
X193955730Y-59305296D01*
X193955729Y-59305296D01*
X193905774Y-59299869D01*
X193905773Y-59299869D01*
X193902377Y-59299500D01*
X193550052Y-59299500D01*
X193197624Y-59299501D01*
X193194230Y-59299870D01*
X193194224Y-59299870D01*
X193144278Y-59305295D01*
X193144274Y-59305296D01*
X193136420Y-59306149D01*
X193094228Y-59321966D01*
X193023421Y-59327148D01*
X193005772Y-59321966D01*
X192963580Y-59306149D01*
X192955730Y-59305296D01*
X192955729Y-59305296D01*
X192905774Y-59299869D01*
X192905773Y-59299869D01*
X192902377Y-59299500D01*
X192550052Y-59299500D01*
X192197624Y-59299501D01*
X192194230Y-59299870D01*
X192194224Y-59299870D01*
X192144278Y-59305295D01*
X192144274Y-59305296D01*
X192136420Y-59306149D01*
X192094228Y-59321966D01*
X192023421Y-59327148D01*
X192005772Y-59321966D01*
X191963580Y-59306149D01*
X191955730Y-59305296D01*
X191955729Y-59305296D01*
X191905774Y-59299869D01*
X191905773Y-59299869D01*
X191902377Y-59299500D01*
X191550052Y-59299500D01*
X191197624Y-59299501D01*
X191194230Y-59299870D01*
X191194224Y-59299870D01*
X191144278Y-59305295D01*
X191144274Y-59305296D01*
X191136420Y-59306149D01*
X191094228Y-59321966D01*
X191023421Y-59327148D01*
X191005772Y-59321966D01*
X190963580Y-59306149D01*
X190955730Y-59305296D01*
X190955729Y-59305296D01*
X190905774Y-59299869D01*
X190905773Y-59299869D01*
X190902377Y-59299500D01*
X190550052Y-59299500D01*
X190197624Y-59299501D01*
X190194230Y-59299870D01*
X190194224Y-59299870D01*
X190144278Y-59305295D01*
X190144274Y-59305296D01*
X190136420Y-59306149D01*
X190094228Y-59321966D01*
X190023421Y-59327148D01*
X190005772Y-59321966D01*
X189963580Y-59306149D01*
X189955730Y-59305296D01*
X189955729Y-59305296D01*
X189905774Y-59299869D01*
X189905773Y-59299869D01*
X189902377Y-59299500D01*
X189550052Y-59299500D01*
X189197624Y-59299501D01*
X189194230Y-59299870D01*
X189194224Y-59299870D01*
X189144278Y-59305295D01*
X189144274Y-59305296D01*
X189136420Y-59306149D01*
X189094228Y-59321966D01*
X189023421Y-59327148D01*
X189005772Y-59321966D01*
X188963580Y-59306149D01*
X188955730Y-59305296D01*
X188955729Y-59305296D01*
X188905774Y-59299869D01*
X188905773Y-59299869D01*
X188902377Y-59299500D01*
X188550052Y-59299500D01*
X188197624Y-59299501D01*
X188194230Y-59299870D01*
X188194224Y-59299870D01*
X188144278Y-59305295D01*
X188144274Y-59305296D01*
X188136420Y-59306149D01*
X188094228Y-59321966D01*
X188023421Y-59327148D01*
X188005772Y-59321966D01*
X187963580Y-59306149D01*
X187955730Y-59305296D01*
X187955729Y-59305296D01*
X187905774Y-59299869D01*
X187905773Y-59299869D01*
X187902377Y-59299500D01*
X187550052Y-59299500D01*
X187197624Y-59299501D01*
X187194230Y-59299870D01*
X187194224Y-59299870D01*
X187144278Y-59305295D01*
X187144274Y-59305296D01*
X187136420Y-59306149D01*
X187094228Y-59321966D01*
X187023421Y-59327148D01*
X187005772Y-59321966D01*
X186963580Y-59306149D01*
X186955730Y-59305296D01*
X186955729Y-59305296D01*
X186905774Y-59299869D01*
X186905773Y-59299869D01*
X186902377Y-59299500D01*
X186550052Y-59299500D01*
X186197624Y-59299501D01*
X186194230Y-59299870D01*
X186194224Y-59299870D01*
X186144278Y-59305295D01*
X186144274Y-59305296D01*
X186136420Y-59306149D01*
X186094228Y-59321966D01*
X186023421Y-59327148D01*
X186005772Y-59321966D01*
X185963580Y-59306149D01*
X185955730Y-59305296D01*
X185955729Y-59305296D01*
X185905774Y-59299869D01*
X185905773Y-59299869D01*
X185902377Y-59299500D01*
X185550052Y-59299500D01*
X185197624Y-59299501D01*
X185194230Y-59299870D01*
X185194224Y-59299870D01*
X185144278Y-59305295D01*
X185144274Y-59305296D01*
X185136420Y-59306149D01*
X185094228Y-59321966D01*
X185023421Y-59327148D01*
X185005772Y-59321966D01*
X184963580Y-59306149D01*
X184955730Y-59305296D01*
X184955729Y-59305296D01*
X184905774Y-59299869D01*
X184905773Y-59299869D01*
X184902377Y-59299500D01*
X184550052Y-59299500D01*
X184197624Y-59299501D01*
X184194230Y-59299870D01*
X184194224Y-59299870D01*
X184144278Y-59305295D01*
X184144274Y-59305296D01*
X184136420Y-59306149D01*
X184094228Y-59321966D01*
X184023421Y-59327148D01*
X184005772Y-59321966D01*
X183963580Y-59306149D01*
X183955730Y-59305296D01*
X183955729Y-59305296D01*
X183905774Y-59299869D01*
X183905773Y-59299869D01*
X183902377Y-59299500D01*
X183550052Y-59299500D01*
X183197624Y-59299501D01*
X183194230Y-59299870D01*
X183194224Y-59299870D01*
X183144278Y-59305295D01*
X183144274Y-59305296D01*
X183136420Y-59306149D01*
X183094228Y-59321966D01*
X183023421Y-59327148D01*
X183005772Y-59321966D01*
X182963580Y-59306149D01*
X182955730Y-59305296D01*
X182955729Y-59305296D01*
X182905774Y-59299869D01*
X182905773Y-59299869D01*
X182902377Y-59299500D01*
X182550052Y-59299500D01*
X182197624Y-59299501D01*
X182194230Y-59299870D01*
X182194224Y-59299870D01*
X182144278Y-59305295D01*
X182144274Y-59305296D01*
X182136420Y-59306149D01*
X182094228Y-59321966D01*
X182023421Y-59327148D01*
X182005772Y-59321966D01*
X181963580Y-59306149D01*
X181955730Y-59305296D01*
X181955729Y-59305296D01*
X181905774Y-59299869D01*
X181905773Y-59299869D01*
X181902377Y-59299500D01*
X181550052Y-59299500D01*
X181197624Y-59299501D01*
X181194230Y-59299870D01*
X181194224Y-59299870D01*
X181144278Y-59305295D01*
X181144274Y-59305296D01*
X181136420Y-59306149D01*
X181094228Y-59321966D01*
X181023421Y-59327148D01*
X181005772Y-59321966D01*
X180963580Y-59306149D01*
X180955730Y-59305296D01*
X180955729Y-59305296D01*
X180905774Y-59299869D01*
X180905773Y-59299869D01*
X180902377Y-59299500D01*
X180550052Y-59299500D01*
X180197624Y-59299501D01*
X180194230Y-59299870D01*
X180194224Y-59299870D01*
X180144278Y-59305295D01*
X180144274Y-59305296D01*
X180136420Y-59306149D01*
X180094228Y-59321966D01*
X180023421Y-59327148D01*
X180005772Y-59321966D01*
X179963580Y-59306149D01*
X179955730Y-59305296D01*
X179955729Y-59305296D01*
X179905774Y-59299869D01*
X179905773Y-59299869D01*
X179902377Y-59299500D01*
X179550052Y-59299500D01*
X179197624Y-59299501D01*
X179194230Y-59299870D01*
X179194224Y-59299870D01*
X179144278Y-59305295D01*
X179144274Y-59305296D01*
X179136420Y-59306149D01*
X179094228Y-59321966D01*
X179023421Y-59327148D01*
X179005772Y-59321966D01*
X178963580Y-59306149D01*
X178955730Y-59305296D01*
X178955729Y-59305296D01*
X178905774Y-59299869D01*
X178905773Y-59299869D01*
X178902377Y-59299500D01*
X178550052Y-59299500D01*
X178197624Y-59299501D01*
X178194230Y-59299870D01*
X178194224Y-59299870D01*
X178144278Y-59305295D01*
X178144274Y-59305296D01*
X178136420Y-59306149D01*
X178094228Y-59321966D01*
X178023421Y-59327148D01*
X178005772Y-59321966D01*
X177963580Y-59306149D01*
X177955730Y-59305296D01*
X177955729Y-59305296D01*
X177905774Y-59299869D01*
X177905773Y-59299869D01*
X177902377Y-59299500D01*
X177550052Y-59299500D01*
X177197624Y-59299501D01*
X177194230Y-59299870D01*
X177194224Y-59299870D01*
X177144278Y-59305295D01*
X177144274Y-59305296D01*
X177136420Y-59306149D01*
X177094228Y-59321966D01*
X177023421Y-59327148D01*
X177005772Y-59321966D01*
X176963580Y-59306149D01*
X176955730Y-59305296D01*
X176955729Y-59305296D01*
X176905774Y-59299869D01*
X176905773Y-59299869D01*
X176902377Y-59299500D01*
X176550052Y-59299500D01*
X176197624Y-59299501D01*
X176194230Y-59299870D01*
X176194224Y-59299870D01*
X176144278Y-59305295D01*
X176144274Y-59305296D01*
X176136420Y-59306149D01*
X176094228Y-59321966D01*
X176023421Y-59327148D01*
X176005772Y-59321966D01*
X175963580Y-59306149D01*
X175955730Y-59305296D01*
X175955729Y-59305296D01*
X175905774Y-59299869D01*
X175905773Y-59299869D01*
X175902377Y-59299500D01*
X175550052Y-59299500D01*
X175197624Y-59299501D01*
X175177327Y-59301706D01*
X175107447Y-59289178D01*
X175055268Y-59240582D01*
X175048170Y-59228580D01*
X175034120Y-59214530D01*
X175021279Y-59199496D01*
X175014254Y-59189827D01*
X175009594Y-59183413D01*
X174976017Y-59155636D01*
X174967236Y-59147646D01*
X174487238Y-58667647D01*
X174479852Y-58659530D01*
X174475786Y-58653123D01*
X174470011Y-58647700D01*
X174470007Y-58647695D01*
X174426777Y-58607099D01*
X174423935Y-58604344D01*
X174404471Y-58584880D01*
X174401341Y-58582452D01*
X174401259Y-58582380D01*
X174392351Y-58574771D01*
X174360582Y-58544938D01*
X174343167Y-58535364D01*
X174326638Y-58524507D01*
X174317200Y-58517186D01*
X174310936Y-58512327D01*
X174270942Y-58495020D01*
X174260282Y-58489798D01*
X174232480Y-58474514D01*
X174222092Y-58468803D01*
X174202836Y-58463859D01*
X174184147Y-58457460D01*
X174165896Y-58449562D01*
X174122841Y-58442743D01*
X174111237Y-58440340D01*
X174069019Y-58429500D01*
X174049144Y-58429500D01*
X174029434Y-58427949D01*
X174017633Y-58426080D01*
X174009804Y-58424840D01*
X174001912Y-58425586D01*
X173966421Y-58428941D01*
X173954563Y-58429500D01*
X173418681Y-58429500D01*
X173407721Y-58428983D01*
X173400311Y-58427327D01*
X173392385Y-58427576D01*
X173392384Y-58427576D01*
X173333137Y-58429438D01*
X173329179Y-58429500D01*
X173301628Y-58429500D01*
X173297705Y-58429996D01*
X173297590Y-58430003D01*
X173285910Y-58430923D01*
X173242351Y-58432291D01*
X173223262Y-58437837D01*
X173203916Y-58441844D01*
X173184186Y-58444336D01*
X173143655Y-58460384D01*
X173132454Y-58464219D01*
X173090588Y-58476382D01*
X173073479Y-58486500D01*
X173055733Y-58495195D01*
X173037246Y-58502514D01*
X173017052Y-58517186D01*
X173001990Y-58528129D01*
X172992068Y-58534646D01*
X172961388Y-58552790D01*
X172961384Y-58552793D01*
X172954558Y-58556830D01*
X172940508Y-58570880D01*
X172925474Y-58583721D01*
X172909391Y-58595406D01*
X172904338Y-58601514D01*
X172881609Y-58628989D01*
X172873619Y-58637769D01*
X172615595Y-58895793D01*
X172553283Y-58929819D01*
X172482468Y-58924754D01*
X172425632Y-58882207D01*
X172400821Y-58815687D01*
X172400500Y-58806698D01*
X172400499Y-56156042D01*
X172400499Y-56152624D01*
X172400499Y-56152623D01*
X203699500Y-56152623D01*
X203699501Y-59847376D01*
X203706149Y-59908580D01*
X203756474Y-60042824D01*
X203761854Y-60050003D01*
X203761856Y-60050006D01*
X203808151Y-60111776D01*
X203842454Y-60157546D01*
X203849635Y-60162928D01*
X203949994Y-60238144D01*
X203949997Y-60238146D01*
X203957176Y-60243526D01*
X204046561Y-60277034D01*
X204084025Y-60291079D01*
X204084027Y-60291079D01*
X204091420Y-60293851D01*
X204099270Y-60294704D01*
X204099271Y-60294704D01*
X204149217Y-60300130D01*
X204152623Y-60300500D01*
X205539797Y-60300500D01*
X206927376Y-60300499D01*
X206930770Y-60300130D01*
X206930776Y-60300130D01*
X206980722Y-60294705D01*
X206980726Y-60294704D01*
X206988580Y-60293851D01*
X207122824Y-60243526D01*
X207130003Y-60238146D01*
X207130006Y-60238144D01*
X207230365Y-60162928D01*
X207237546Y-60157546D01*
X207271849Y-60111776D01*
X207318144Y-60050006D01*
X207318146Y-60050003D01*
X207323526Y-60042824D01*
X207373851Y-59908580D01*
X207380500Y-59847377D01*
X207380499Y-56152624D01*
X207380130Y-56149224D01*
X207374705Y-56099278D01*
X207374704Y-56099274D01*
X207373851Y-56091420D01*
X207323526Y-55957176D01*
X207318146Y-55949997D01*
X207318144Y-55949994D01*
X207242928Y-55849635D01*
X207237546Y-55842454D01*
X207230365Y-55837072D01*
X207130006Y-55761856D01*
X207130003Y-55761854D01*
X207122824Y-55756474D01*
X206999309Y-55710171D01*
X206995975Y-55708921D01*
X206995973Y-55708921D01*
X206988580Y-55706149D01*
X206980730Y-55705296D01*
X206980729Y-55705296D01*
X206930774Y-55699869D01*
X206930773Y-55699869D01*
X206927377Y-55699500D01*
X205540203Y-55699500D01*
X204152624Y-55699501D01*
X204149230Y-55699870D01*
X204149224Y-55699870D01*
X204099278Y-55705295D01*
X204099274Y-55705296D01*
X204091420Y-55706149D01*
X203957176Y-55756474D01*
X203949997Y-55761854D01*
X203949994Y-55761856D01*
X203849635Y-55837072D01*
X203842454Y-55842454D01*
X203837072Y-55849635D01*
X203761856Y-55949994D01*
X203761854Y-55949997D01*
X203756474Y-55957176D01*
X203706149Y-56091420D01*
X203699500Y-56152623D01*
X172400499Y-56152623D01*
X172400130Y-56149224D01*
X172394705Y-56099278D01*
X172394704Y-56099274D01*
X172393851Y-56091420D01*
X172343526Y-55957176D01*
X172338146Y-55949997D01*
X172338144Y-55949994D01*
X172262928Y-55849635D01*
X172257546Y-55842454D01*
X172250365Y-55837072D01*
X172150006Y-55761856D01*
X172150003Y-55761854D01*
X172142824Y-55756474D01*
X172019309Y-55710171D01*
X172015975Y-55708921D01*
X172015973Y-55708921D01*
X172008580Y-55706149D01*
X172000730Y-55705296D01*
X172000729Y-55705296D01*
X171950774Y-55699869D01*
X171950773Y-55699869D01*
X171947377Y-55699500D01*
X170560203Y-55699500D01*
X169172624Y-55699501D01*
X169169230Y-55699870D01*
X169169224Y-55699870D01*
X169119278Y-55705295D01*
X169119274Y-55705296D01*
X169111420Y-55706149D01*
X168977176Y-55756474D01*
X168969997Y-55761854D01*
X168969994Y-55761856D01*
X168869635Y-55837072D01*
X168862454Y-55842454D01*
X168857072Y-55849635D01*
X168781856Y-55949994D01*
X168781854Y-55949997D01*
X168776474Y-55957176D01*
X168726149Y-56091420D01*
X168719500Y-56152623D01*
X168719501Y-59847376D01*
X168726149Y-59908580D01*
X168776474Y-60042824D01*
X168781854Y-60050003D01*
X168781856Y-60050006D01*
X168828151Y-60111776D01*
X168862454Y-60157546D01*
X168869635Y-60162928D01*
X168969994Y-60238144D01*
X168969997Y-60238146D01*
X168977176Y-60243526D01*
X169066561Y-60277034D01*
X169104025Y-60291079D01*
X169104027Y-60291079D01*
X169111420Y-60293851D01*
X169119270Y-60294704D01*
X169119271Y-60294704D01*
X169169217Y-60300130D01*
X169172623Y-60300500D01*
X169195265Y-60300500D01*
X170906699Y-60300499D01*
X170974819Y-60320501D01*
X171021312Y-60374157D01*
X171031416Y-60444431D01*
X171001922Y-60509011D01*
X170995793Y-60515594D01*
X170393312Y-61118075D01*
X170331000Y-61152101D01*
X170304217Y-61154980D01*
X107940915Y-61154980D01*
X107872794Y-61134978D01*
X107851820Y-61118075D01*
X105437405Y-58703660D01*
X105403379Y-58641348D01*
X105400500Y-58614565D01*
X105400500Y-49861698D01*
X105401017Y-49850737D01*
X105402672Y-49843332D01*
X105400562Y-49776176D01*
X105400500Y-49772219D01*
X105400500Y-49744650D01*
X105400003Y-49740715D01*
X105399996Y-49740605D01*
X105399078Y-49728934D01*
X105397958Y-49693296D01*
X105397709Y-49685372D01*
X105395497Y-49677759D01*
X105395496Y-49677752D01*
X105392164Y-49666282D01*
X105388155Y-49646926D01*
X105387895Y-49644866D01*
X105385664Y-49627208D01*
X105382747Y-49619842D01*
X105382746Y-49619836D01*
X105369619Y-49586683D01*
X105365773Y-49575450D01*
X105355829Y-49541220D01*
X105355826Y-49541213D01*
X105353617Y-49533610D01*
X105349586Y-49526794D01*
X105349585Y-49526791D01*
X105343501Y-49516504D01*
X105334805Y-49498752D01*
X105330406Y-49487643D01*
X105327486Y-49480268D01*
X105322825Y-49473853D01*
X105322823Y-49473849D01*
X105301873Y-49445013D01*
X105295357Y-49435094D01*
X105277206Y-49404402D01*
X105277202Y-49404397D01*
X105273170Y-49397579D01*
X105259117Y-49383526D01*
X105246276Y-49368492D01*
X105239254Y-49358827D01*
X105234594Y-49352413D01*
X105201016Y-49324635D01*
X105192236Y-49316645D01*
X103580686Y-47705095D01*
X103546660Y-47642783D01*
X103551725Y-47571968D01*
X103594272Y-47515132D01*
X103660792Y-47490321D01*
X103669781Y-47490000D01*
X211721297Y-47490000D01*
X211740681Y-47491500D01*
G37*
G04 #@! TD.AperFunction*
G04 #@! TA.AperFunction,Conductor*
G36*
X95082739Y-82373008D02*
G01*
X95139575Y-82415555D01*
X95152900Y-82437811D01*
X95165965Y-82465829D01*
X95301505Y-82659401D01*
X95468599Y-82826495D01*
X95473107Y-82829652D01*
X95473110Y-82829654D01*
X95651820Y-82954788D01*
X95696148Y-83010245D01*
X95703457Y-83080865D01*
X95671426Y-83144225D01*
X95651822Y-83161211D01*
X95468599Y-83289505D01*
X95301505Y-83456599D01*
X95165965Y-83650171D01*
X95163644Y-83655149D01*
X95163642Y-83655152D01*
X95098432Y-83794995D01*
X95066097Y-83864337D01*
X95064675Y-83869645D01*
X95064674Y-83869647D01*
X95015947Y-84051501D01*
X95004937Y-84092592D01*
X94984341Y-84328000D01*
X95004937Y-84563408D01*
X95006361Y-84568722D01*
X95006361Y-84568723D01*
X95053628Y-84745126D01*
X95066097Y-84791663D01*
X95068419Y-84796643D01*
X95068420Y-84796645D01*
X95095884Y-84855540D01*
X95165965Y-85005829D01*
X95301505Y-85199401D01*
X95468599Y-85366495D01*
X95473107Y-85369652D01*
X95473110Y-85369654D01*
X95651820Y-85494788D01*
X95696148Y-85550245D01*
X95703457Y-85620865D01*
X95671426Y-85684225D01*
X95651822Y-85701211D01*
X95468599Y-85829505D01*
X95301505Y-85996599D01*
X95165965Y-86190171D01*
X95163644Y-86195149D01*
X95163642Y-86195152D01*
X95122444Y-86283501D01*
X95066097Y-86404337D01*
X95064675Y-86409645D01*
X95064674Y-86409647D01*
X95017645Y-86585164D01*
X95004937Y-86632592D01*
X94984341Y-86868000D01*
X95004937Y-87103408D01*
X95006361Y-87108722D01*
X95006361Y-87108723D01*
X95058854Y-87304630D01*
X95066097Y-87331663D01*
X95165965Y-87545829D01*
X95301505Y-87739401D01*
X95468599Y-87906495D01*
X95473107Y-87909652D01*
X95473110Y-87909654D01*
X95651820Y-88034788D01*
X95696148Y-88090245D01*
X95703457Y-88160865D01*
X95671426Y-88224225D01*
X95651822Y-88241211D01*
X95468599Y-88369505D01*
X95301505Y-88536599D01*
X95165965Y-88730171D01*
X95163644Y-88735149D01*
X95163642Y-88735152D01*
X95118564Y-88831822D01*
X95066097Y-88944337D01*
X95064675Y-88949645D01*
X95064674Y-88949647D01*
X95031558Y-89073240D01*
X95004937Y-89172592D01*
X94984341Y-89408000D01*
X95004937Y-89643408D01*
X95006361Y-89648723D01*
X95006362Y-89648726D01*
X95046466Y-89798401D01*
X95044776Y-89869377D01*
X95004981Y-89928173D01*
X94939717Y-89956120D01*
X94924759Y-89957011D01*
X92704188Y-89957011D01*
X92693227Y-89956494D01*
X92685822Y-89954839D01*
X92623963Y-89956783D01*
X92618666Y-89956949D01*
X92614709Y-89957011D01*
X92587139Y-89957011D01*
X92583204Y-89957508D01*
X92583094Y-89957515D01*
X92571423Y-89958433D01*
X92540355Y-89959409D01*
X92527862Y-89959802D01*
X92508773Y-89965348D01*
X92489427Y-89969355D01*
X92469697Y-89971847D01*
X92429166Y-89987895D01*
X92417965Y-89991730D01*
X92376099Y-90003893D01*
X92358990Y-90014011D01*
X92341244Y-90022706D01*
X92322757Y-90030025D01*
X92287501Y-90055640D01*
X92277579Y-90062157D01*
X92246899Y-90080301D01*
X92246895Y-90080304D01*
X92240069Y-90084341D01*
X92226019Y-90098391D01*
X92210985Y-90111232D01*
X92194902Y-90122917D01*
X92189849Y-90129025D01*
X92167120Y-90156500D01*
X92159130Y-90165280D01*
X90448464Y-91875945D01*
X90386152Y-91909971D01*
X90326759Y-91908557D01*
X90232726Y-91883362D01*
X90232727Y-91883362D01*
X90227408Y-91881937D01*
X89992000Y-91861341D01*
X89756592Y-91881937D01*
X89751278Y-91883361D01*
X89751277Y-91883361D01*
X89533647Y-91941674D01*
X89533645Y-91941675D01*
X89528337Y-91943097D01*
X89523357Y-91945419D01*
X89523355Y-91945420D01*
X89319152Y-92040642D01*
X89319149Y-92040644D01*
X89314171Y-92042965D01*
X89120599Y-92178505D01*
X88953505Y-92345599D01*
X88825213Y-92528820D01*
X88769756Y-92573149D01*
X88699137Y-92580458D01*
X88635776Y-92548428D01*
X88618787Y-92528820D01*
X88490495Y-92345599D01*
X88323401Y-92178505D01*
X88318893Y-92175348D01*
X88318890Y-92175346D01*
X88164385Y-92067161D01*
X88131228Y-92043944D01*
X88086901Y-91988488D01*
X88077500Y-91940732D01*
X88077500Y-89326270D01*
X88097502Y-89258149D01*
X88114405Y-89237175D01*
X94949612Y-82401969D01*
X95011924Y-82367943D01*
X95082739Y-82373008D01*
G37*
G04 #@! TD.AperFunction*
G04 #@! TA.AperFunction,Conductor*
G36*
X173686621Y-60566002D02*
G01*
X173733114Y-60619658D01*
X173744500Y-60672000D01*
X173744501Y-60928000D01*
X173724499Y-60996120D01*
X173670844Y-61042613D01*
X173618501Y-61054000D01*
X172755116Y-61054000D01*
X172739877Y-61058475D01*
X172738672Y-61059865D01*
X172737001Y-61067548D01*
X172737001Y-61478500D01*
X172716999Y-61546621D01*
X172663343Y-61593114D01*
X172611001Y-61604500D01*
X171980258Y-61604500D01*
X171912137Y-61584498D01*
X171865644Y-61530842D01*
X171855540Y-61460568D01*
X171885034Y-61395988D01*
X171891163Y-61389405D01*
X172697663Y-60582905D01*
X172759975Y-60548879D01*
X172786758Y-60546000D01*
X173618500Y-60546000D01*
X173686621Y-60566002D01*
G37*
G04 #@! TD.AperFunction*
M02*
