G04 #@! TF.GenerationSoftware,KiCad,Pcbnew,(6.0.1-0)*
G04 #@! TF.CreationDate,2023-03-27T10:59:00-07:00*
G04 #@! TF.ProjectId,daughterboard,64617567-6874-4657-9262-6f6172642e6b,v0.1*
G04 #@! TF.SameCoordinates,Original*
G04 #@! TF.FileFunction,Legend,Bot*
G04 #@! TF.FilePolarity,Positive*
%FSLAX46Y46*%
G04 Gerber Fmt 4.6, Leading zero omitted, Abs format (unit mm)*
G04 Created by KiCad (PCBNEW (6.0.1-0)) date 2023-03-27 10:59:00*
%MOMM*%
%LPD*%
G01*
G04 APERTURE LIST*
%ADD10C,3.500000*%
%ADD11C,4.000000*%
%ADD12R,2.200000X2.200000*%
%ADD13O,2.200000X2.200000*%
%ADD14R,2.000000X2.000000*%
%ADD15C,2.000000*%
%ADD16R,2.000000X1.905000*%
%ADD17O,2.000000X1.905000*%
%ADD18R,1.700000X1.700000*%
%ADD19O,1.700000X1.700000*%
%ADD20C,1.700000*%
%ADD21R,1.500000X1.200000*%
%ADD22C,1.600000*%
G04 APERTURE END LIST*
%LPC*%
D10*
X76770000Y-51990000D03*
X100770000Y-51990000D03*
D11*
X69770000Y-71990000D03*
X209770000Y-79990000D03*
D12*
X194691000Y-87884000D03*
D13*
X204851000Y-87884000D03*
D14*
X70739000Y-63330785D03*
D15*
X70739000Y-58330785D03*
D16*
X189103000Y-85852000D03*
D17*
X189103000Y-83312000D03*
X189103000Y-80772000D03*
D18*
X195067000Y-78105000D03*
D19*
X197607000Y-78105000D03*
D18*
X81100000Y-48768000D03*
D20*
X81100000Y-51308000D03*
X81100000Y-53848000D03*
X81100000Y-56388000D03*
X81100000Y-58928000D03*
X81100000Y-61468000D03*
X81100000Y-64008000D03*
X81100000Y-66548000D03*
X81100000Y-69088000D03*
X81100000Y-71628000D03*
X81100000Y-74168000D03*
X81100000Y-76708000D03*
X81100000Y-79248000D03*
X81100000Y-81788000D03*
X81100000Y-84328000D03*
X81100000Y-86868000D03*
X81100000Y-89408000D03*
X81100000Y-91948000D03*
X81100000Y-94488000D03*
X81100000Y-97028000D03*
X96340000Y-97028000D03*
X96340000Y-94488000D03*
X96340000Y-91948000D03*
X96340000Y-89408000D03*
X96340000Y-86868000D03*
X96340000Y-84328000D03*
X96340000Y-81788000D03*
X96340000Y-79248000D03*
X96340000Y-76708000D03*
X96340000Y-74168000D03*
X96340000Y-71628000D03*
X96340000Y-69088000D03*
X96340000Y-66548000D03*
X96340000Y-64008000D03*
X96340000Y-61468000D03*
X96340000Y-58928000D03*
X96340000Y-56388000D03*
X96340000Y-53848000D03*
X96340000Y-51308000D03*
X96340000Y-48768000D03*
X92532000Y-93217000D03*
X89992000Y-93217000D03*
X87452000Y-93217000D03*
X84912000Y-93217000D03*
D21*
X72343000Y-77470000D03*
D22*
X74893000Y-77470000D03*
D21*
X69643000Y-77470000D03*
D22*
X67093000Y-77470000D03*
X201766000Y-82931000D03*
D21*
X199216000Y-82931000D03*
X196516000Y-82931000D03*
D22*
X193966000Y-82931000D03*
M02*
