M48
; DRILL file {KiCad (6.0.1-0)} date Tuesday, March 21, 2023 at 08:55:22 AM
; FORMAT={-:-/ absolute / metric / decimal}
; #@! TF.CreationDate,2023-03-21T08:55:22-07:00
; #@! TF.GenerationSoftware,Kicad,Pcbnew,(6.0.1-0)
; #@! TF.FileFunction,Plated,1,2,PTH
FMAT,2
METRIC
; #@! TA.AperFunction,Plated,PTH,ViaDrill
T1C0.400
; #@! TA.AperFunction,Plated,PTH,ComponentDrill
T2C1.000
; #@! TA.AperFunction,Plated,PTH,ComponentDrill
T3C1.100
%
G90
G05
T1
X76.454Y-80.518
X88.773Y-97.155
X91.948Y-87.757
X100.944Y-81.437
X101.943Y-81.404
X172.339Y-61.341
T2
X67.093Y-77.47
X70.739Y-58.331
X70.739Y-63.331
X74.893Y-77.47
X81.1Y-48.768
X81.1Y-51.308
X81.1Y-53.848
X81.1Y-56.388
X81.1Y-58.928
X81.1Y-61.468
X81.1Y-64.008
X81.1Y-66.548
X81.1Y-69.088
X81.1Y-71.628
X81.1Y-74.168
X81.1Y-76.708
X81.1Y-79.248
X81.1Y-81.788
X81.1Y-84.328
X81.1Y-86.868
X81.1Y-89.408
X81.1Y-91.948
X81.1Y-94.488
X81.1Y-97.028
X84.912Y-93.217
X87.452Y-93.217
X89.992Y-93.217
X92.532Y-93.217
X96.34Y-48.768
X96.34Y-51.308
X96.34Y-53.848
X96.34Y-56.388
X96.34Y-58.928
X96.34Y-61.468
X96.34Y-64.008
X96.34Y-66.548
X96.34Y-69.088
X96.34Y-71.628
X96.34Y-74.168
X96.34Y-76.708
X96.34Y-79.248
X96.34Y-81.788
X96.34Y-84.328
X96.34Y-86.868
X96.34Y-89.408
X96.34Y-91.948
X96.34Y-94.488
X96.34Y-97.028
X193.966Y-82.931
X195.067Y-78.105
X197.607Y-78.105
X201.766Y-82.931
T3
X189.103Y-80.772
X189.103Y-83.312
X189.103Y-85.852
X194.691Y-87.884
X204.851Y-87.884
T0
M30
