G04 #@! TF.GenerationSoftware,KiCad,Pcbnew,(6.0.1-0)*
G04 #@! TF.CreationDate,2023-03-21T08:55:19-07:00*
G04 #@! TF.ProjectId,daughterboard,64617567-6874-4657-9262-6f6172642e6b,v0.1*
G04 #@! TF.SameCoordinates,Original*
G04 #@! TF.FileFunction,Copper,L2,Bot*
G04 #@! TF.FilePolarity,Positive*
%FSLAX46Y46*%
G04 Gerber Fmt 4.6, Leading zero omitted, Abs format (unit mm)*
G04 Created by KiCad (PCBNEW (6.0.1-0)) date 2023-03-21 08:55:19*
%MOMM*%
%LPD*%
G01*
G04 APERTURE LIST*
G04 #@! TA.AperFunction,ComponentPad*
%ADD10R,2.200000X2.200000*%
G04 #@! TD*
G04 #@! TA.AperFunction,ComponentPad*
%ADD11O,2.200000X2.200000*%
G04 #@! TD*
G04 #@! TA.AperFunction,ComponentPad*
%ADD12R,2.000000X2.000000*%
G04 #@! TD*
G04 #@! TA.AperFunction,ComponentPad*
%ADD13C,2.000000*%
G04 #@! TD*
G04 #@! TA.AperFunction,ComponentPad*
%ADD14R,2.000000X1.905000*%
G04 #@! TD*
G04 #@! TA.AperFunction,ComponentPad*
%ADD15O,2.000000X1.905000*%
G04 #@! TD*
G04 #@! TA.AperFunction,ComponentPad*
%ADD16R,1.700000X1.700000*%
G04 #@! TD*
G04 #@! TA.AperFunction,ComponentPad*
%ADD17O,1.700000X1.700000*%
G04 #@! TD*
G04 #@! TA.AperFunction,ComponentPad*
%ADD18C,1.700000*%
G04 #@! TD*
G04 #@! TA.AperFunction,SMDPad,CuDef*
%ADD19R,2.900000X0.500000*%
G04 #@! TD*
G04 #@! TA.AperFunction,SMDPad,CuDef*
%ADD20R,1.500000X1.200000*%
G04 #@! TD*
G04 #@! TA.AperFunction,ComponentPad*
%ADD21C,1.600000*%
G04 #@! TD*
G04 #@! TA.AperFunction,ViaPad*
%ADD22C,0.800000*%
G04 #@! TD*
G04 #@! TA.AperFunction,Conductor*
%ADD23C,0.381000*%
G04 #@! TD*
G04 #@! TA.AperFunction,Conductor*
%ADD24C,0.250000*%
G04 #@! TD*
G04 APERTURE END LIST*
D10*
X194691000Y-87884000D03*
D11*
X204851000Y-87884000D03*
D12*
X70739000Y-63330785D03*
D13*
X70739000Y-58330785D03*
D14*
X189103000Y-85852000D03*
D15*
X189103000Y-83312000D03*
X189103000Y-80772000D03*
D16*
X195067000Y-78105000D03*
D17*
X197607000Y-78105000D03*
D16*
X81100000Y-48768000D03*
D18*
X81100000Y-51308000D03*
X81100000Y-53848000D03*
X81100000Y-56388000D03*
X81100000Y-58928000D03*
X81100000Y-61468000D03*
X81100000Y-64008000D03*
X81100000Y-66548000D03*
X81100000Y-69088000D03*
X81100000Y-71628000D03*
X81100000Y-74168000D03*
X81100000Y-76708000D03*
X81100000Y-79248000D03*
X81100000Y-81788000D03*
X81100000Y-84328000D03*
X81100000Y-86868000D03*
X81100000Y-89408000D03*
X81100000Y-91948000D03*
X81100000Y-94488000D03*
X81100000Y-97028000D03*
X96340000Y-97028000D03*
X96340000Y-94488000D03*
X96340000Y-91948000D03*
X96340000Y-89408000D03*
X96340000Y-86868000D03*
X96340000Y-84328000D03*
X96340000Y-81788000D03*
X96340000Y-79248000D03*
X96340000Y-76708000D03*
X96340000Y-74168000D03*
X96340000Y-71628000D03*
X96340000Y-69088000D03*
X96340000Y-66548000D03*
X96340000Y-64008000D03*
X96340000Y-61468000D03*
X96340000Y-58928000D03*
X96340000Y-56388000D03*
X96340000Y-53848000D03*
X96340000Y-51308000D03*
X96340000Y-48768000D03*
X92532000Y-93217000D03*
X89992000Y-93217000D03*
X87452000Y-93217000D03*
X84912000Y-93217000D03*
D19*
X73493000Y-77470000D03*
D20*
X72343000Y-77470000D03*
D21*
X74893000Y-77470000D03*
D20*
X69643000Y-77470000D03*
D21*
X67093000Y-77470000D03*
D19*
X68493000Y-77470000D03*
X200366000Y-82931000D03*
D21*
X201766000Y-82931000D03*
D20*
X199216000Y-82931000D03*
D19*
X195366000Y-82931000D03*
D20*
X196516000Y-82931000D03*
D21*
X193966000Y-82931000D03*
D22*
X88773000Y-97155000D03*
X172339000Y-61341000D03*
X91948000Y-87757000D03*
X76454000Y-80518000D03*
X101943398Y-81404032D03*
X100944446Y-81437201D03*
D23*
X74893000Y-85741000D02*
X74893000Y-77470000D01*
X82804000Y-66675000D02*
X81690989Y-67788011D01*
X82804000Y-50927000D02*
X82804000Y-66675000D01*
X74893000Y-73541359D02*
X74893000Y-77470000D01*
X175514000Y-87884000D02*
X194691000Y-87884000D01*
X81100000Y-91948000D02*
X74893000Y-85741000D01*
X80646348Y-67788011D02*
X74893000Y-73541359D01*
X81690989Y-67788011D02*
X80646348Y-67788011D01*
X84963000Y-48768000D02*
X82804000Y-50927000D01*
X96340000Y-48768000D02*
X84963000Y-48768000D01*
X136398000Y-48768000D02*
X175514000Y-87884000D01*
X96340000Y-48768000D02*
X136398000Y-48768000D01*
D24*
X194310000Y-78105000D02*
X195067000Y-78105000D01*
X189103000Y-83312000D02*
X194310000Y-78105000D01*
X96340000Y-84328000D02*
X99078261Y-84328000D01*
X101943398Y-81462863D02*
X101943398Y-81404032D01*
X99078261Y-84328000D02*
X101943398Y-81462863D01*
X100593647Y-81788000D02*
X100944446Y-81437201D01*
X96340000Y-81788000D02*
X100593647Y-81788000D01*
X79629000Y-65479000D02*
X81100000Y-64008000D01*
X69643000Y-77470000D02*
X70236011Y-77470000D01*
X79629000Y-68077011D02*
X79629000Y-65479000D01*
X70236011Y-77470000D02*
X79629000Y-68077011D01*
X191045000Y-85852000D02*
X193966000Y-82931000D01*
X189103000Y-85852000D02*
X191045000Y-85852000D01*
G04 #@! TA.AperFunction,Conductor*
G36*
X79764796Y-47510002D02*
G01*
X79811289Y-47563658D01*
X79821393Y-47633932D01*
X79808574Y-47672374D01*
X79806474Y-47675176D01*
X79803324Y-47683580D01*
X79803323Y-47683581D01*
X79767065Y-47780302D01*
X79756149Y-47809420D01*
X79749500Y-47870623D01*
X79749501Y-49665376D01*
X79749870Y-49668770D01*
X79749870Y-49668776D01*
X79751216Y-49681161D01*
X79756149Y-49726580D01*
X79806474Y-49860824D01*
X79811854Y-49868003D01*
X79811856Y-49868006D01*
X79882261Y-49961946D01*
X79892454Y-49975546D01*
X79899635Y-49980928D01*
X79999994Y-50056144D01*
X79999997Y-50056146D01*
X80007176Y-50061526D01*
X80096107Y-50094864D01*
X80136248Y-50109912D01*
X80193013Y-50152553D01*
X80217714Y-50219114D01*
X80202507Y-50288463D01*
X80181115Y-50316989D01*
X80061505Y-50436599D01*
X79925965Y-50630171D01*
X79923644Y-50635149D01*
X79923642Y-50635152D01*
X79831485Y-50832783D01*
X79826097Y-50844337D01*
X79764937Y-51072592D01*
X79744341Y-51308000D01*
X79764937Y-51543408D01*
X79766361Y-51548722D01*
X79766361Y-51548723D01*
X79791046Y-51640848D01*
X79826097Y-51771663D01*
X79828419Y-51776643D01*
X79828420Y-51776645D01*
X79903947Y-51938611D01*
X79925965Y-51985829D01*
X80061505Y-52179401D01*
X80228599Y-52346495D01*
X80233107Y-52349652D01*
X80233110Y-52349654D01*
X80411820Y-52474788D01*
X80456148Y-52530245D01*
X80463457Y-52600865D01*
X80431426Y-52664225D01*
X80411822Y-52681211D01*
X80228599Y-52809505D01*
X80061505Y-52976599D01*
X79925965Y-53170171D01*
X79923644Y-53175149D01*
X79923642Y-53175152D01*
X79844770Y-53344292D01*
X79826097Y-53384337D01*
X79824675Y-53389645D01*
X79824674Y-53389647D01*
X79816911Y-53418621D01*
X79764937Y-53612592D01*
X79744341Y-53848000D01*
X79764937Y-54083408D01*
X79766361Y-54088722D01*
X79766361Y-54088723D01*
X79793041Y-54188293D01*
X79826097Y-54311663D01*
X79925965Y-54525829D01*
X80061505Y-54719401D01*
X80228599Y-54886495D01*
X80233107Y-54889652D01*
X80233110Y-54889654D01*
X80411820Y-55014788D01*
X80456148Y-55070245D01*
X80463457Y-55140865D01*
X80431426Y-55204225D01*
X80411822Y-55221211D01*
X80228599Y-55349505D01*
X80061505Y-55516599D01*
X79925965Y-55710171D01*
X79826097Y-55924337D01*
X79764937Y-56152592D01*
X79744341Y-56388000D01*
X79764937Y-56623408D01*
X79826097Y-56851663D01*
X79925965Y-57065829D01*
X80061505Y-57259401D01*
X80228599Y-57426495D01*
X80233107Y-57429652D01*
X80233110Y-57429654D01*
X80411820Y-57554788D01*
X80456148Y-57610245D01*
X80463457Y-57680865D01*
X80431426Y-57744225D01*
X80411822Y-57761211D01*
X80228599Y-57889505D01*
X80061505Y-58056599D01*
X79925965Y-58250171D01*
X79923644Y-58255149D01*
X79923642Y-58255152D01*
X79882399Y-58343597D01*
X79826097Y-58464337D01*
X79764937Y-58692592D01*
X79744341Y-58928000D01*
X79764937Y-59163408D01*
X79766361Y-59168722D01*
X79766361Y-59168723D01*
X79773378Y-59194909D01*
X79826097Y-59391663D01*
X79828419Y-59396643D01*
X79828420Y-59396645D01*
X79906206Y-59563455D01*
X79925965Y-59605829D01*
X80061505Y-59799401D01*
X80228599Y-59966495D01*
X80233107Y-59969652D01*
X80233110Y-59969654D01*
X80411820Y-60094788D01*
X80456148Y-60150245D01*
X80463457Y-60220865D01*
X80431426Y-60284225D01*
X80411822Y-60301211D01*
X80228599Y-60429505D01*
X80061505Y-60596599D01*
X79925965Y-60790171D01*
X79826097Y-61004337D01*
X79764937Y-61232592D01*
X79744341Y-61468000D01*
X79764937Y-61703408D01*
X79826097Y-61931663D01*
X79828419Y-61936643D01*
X79828420Y-61936645D01*
X79898981Y-62087961D01*
X79925965Y-62145829D01*
X80061505Y-62339401D01*
X80228599Y-62506495D01*
X80233107Y-62509652D01*
X80233110Y-62509654D01*
X80411820Y-62634788D01*
X80456148Y-62690245D01*
X80463457Y-62760865D01*
X80431426Y-62824225D01*
X80411822Y-62841211D01*
X80228599Y-62969505D01*
X80061505Y-63136599D01*
X79925965Y-63330171D01*
X79826097Y-63544337D01*
X79764937Y-63772592D01*
X79744341Y-64008000D01*
X79764937Y-64243408D01*
X79766361Y-64248723D01*
X79766362Y-64248726D01*
X79791557Y-64342759D01*
X79789867Y-64413735D01*
X79758945Y-64464464D01*
X79241651Y-64981758D01*
X79233531Y-64989147D01*
X79227123Y-64993214D01*
X79221697Y-64998992D01*
X79181115Y-65042207D01*
X79178360Y-65045049D01*
X79158880Y-65064529D01*
X79156452Y-65067659D01*
X79156380Y-65067741D01*
X79148771Y-65076649D01*
X79118938Y-65108418D01*
X79115119Y-65115365D01*
X79109365Y-65125832D01*
X79098508Y-65142361D01*
X79086327Y-65158064D01*
X79070791Y-65193965D01*
X79069020Y-65198058D01*
X79063798Y-65208718D01*
X79042803Y-65246908D01*
X79037859Y-65266164D01*
X79031460Y-65284853D01*
X79023562Y-65303104D01*
X79018053Y-65337892D01*
X79016744Y-65346154D01*
X79014340Y-65357763D01*
X79003500Y-65399981D01*
X79003500Y-65419856D01*
X79001949Y-65439566D01*
X78998840Y-65459196D01*
X78999586Y-65467088D01*
X79002941Y-65502579D01*
X79003500Y-65514437D01*
X79003500Y-67765730D01*
X78983498Y-67833851D01*
X78966595Y-67854825D01*
X70488825Y-76332595D01*
X70426513Y-76366621D01*
X70399730Y-76369500D01*
X68969325Y-76369501D01*
X68845624Y-76369501D01*
X68842230Y-76369870D01*
X68842224Y-76369870D01*
X68792278Y-76375295D01*
X68792274Y-76375296D01*
X68784420Y-76376149D01*
X68650176Y-76426474D01*
X68642997Y-76431854D01*
X68642994Y-76431856D01*
X68588641Y-76472592D01*
X68535454Y-76512454D01*
X68449474Y-76627176D01*
X68445517Y-76637732D01*
X68444150Y-76639551D01*
X68442013Y-76643455D01*
X68441449Y-76643146D01*
X68402878Y-76694494D01*
X68336316Y-76719195D01*
X68327536Y-76719501D01*
X68220704Y-76719501D01*
X68152583Y-76699499D01*
X68117491Y-76665771D01*
X68101649Y-76643146D01*
X68093047Y-76630861D01*
X67932139Y-76469953D01*
X67745734Y-76339432D01*
X67740756Y-76337111D01*
X67740753Y-76337109D01*
X67544478Y-76245584D01*
X67544476Y-76245583D01*
X67539496Y-76243261D01*
X67534188Y-76241839D01*
X67534186Y-76241838D01*
X67325007Y-76185789D01*
X67325005Y-76185789D01*
X67319692Y-76184365D01*
X67093000Y-76164532D01*
X66866308Y-76184365D01*
X66860995Y-76185789D01*
X66860993Y-76185789D01*
X66651814Y-76241838D01*
X66651812Y-76241839D01*
X66646504Y-76243261D01*
X66641524Y-76245583D01*
X66641522Y-76245584D01*
X66445247Y-76337109D01*
X66445244Y-76337111D01*
X66440266Y-76339432D01*
X66253861Y-76469953D01*
X66092953Y-76630861D01*
X65962432Y-76817266D01*
X65960111Y-76822244D01*
X65960109Y-76822247D01*
X65901132Y-76948723D01*
X65866261Y-77023504D01*
X65864839Y-77028812D01*
X65864838Y-77028814D01*
X65808789Y-77237993D01*
X65807365Y-77243308D01*
X65787532Y-77470000D01*
X65807365Y-77696692D01*
X65808789Y-77702005D01*
X65808789Y-77702007D01*
X65855162Y-77875072D01*
X65866261Y-77916496D01*
X65868583Y-77921476D01*
X65868584Y-77921478D01*
X65959934Y-78117376D01*
X65962432Y-78122734D01*
X66092953Y-78309139D01*
X66253861Y-78470047D01*
X66440266Y-78600568D01*
X66445244Y-78602889D01*
X66445247Y-78602891D01*
X66548393Y-78650989D01*
X66646504Y-78696739D01*
X66651812Y-78698161D01*
X66651814Y-78698162D01*
X66860993Y-78754211D01*
X66860995Y-78754211D01*
X66866308Y-78755635D01*
X67093000Y-78775468D01*
X67319692Y-78755635D01*
X67325005Y-78754211D01*
X67325007Y-78754211D01*
X67534186Y-78698162D01*
X67534188Y-78698161D01*
X67539496Y-78696739D01*
X67637607Y-78650989D01*
X67740753Y-78602891D01*
X67740756Y-78602889D01*
X67745734Y-78600568D01*
X67932139Y-78470047D01*
X68093047Y-78309139D01*
X68117491Y-78274229D01*
X68172947Y-78229901D01*
X68220704Y-78220500D01*
X68327536Y-78220500D01*
X68395657Y-78240502D01*
X68442150Y-78294158D01*
X68445512Y-78302255D01*
X68449474Y-78312824D01*
X68454854Y-78320003D01*
X68454856Y-78320006D01*
X68511942Y-78396174D01*
X68535454Y-78427546D01*
X68542635Y-78432928D01*
X68642994Y-78508144D01*
X68642997Y-78508146D01*
X68650176Y-78513526D01*
X68739561Y-78547034D01*
X68777025Y-78561079D01*
X68777027Y-78561079D01*
X68784420Y-78563851D01*
X68792270Y-78564704D01*
X68792271Y-78564704D01*
X68842217Y-78570130D01*
X68845623Y-78570500D01*
X69642883Y-78570500D01*
X70440376Y-78570499D01*
X70443770Y-78570130D01*
X70443776Y-78570130D01*
X70493722Y-78564705D01*
X70493726Y-78564704D01*
X70501580Y-78563851D01*
X70635824Y-78513526D01*
X70643003Y-78508146D01*
X70643006Y-78508144D01*
X70743365Y-78432928D01*
X70750546Y-78427546D01*
X70774058Y-78396174D01*
X70831144Y-78320006D01*
X70831146Y-78320003D01*
X70836526Y-78312824D01*
X70875018Y-78210145D01*
X70917659Y-78153380D01*
X70984220Y-78128680D01*
X71053569Y-78143887D01*
X71103688Y-78194173D01*
X71110982Y-78210145D01*
X71149474Y-78312824D01*
X71154854Y-78320003D01*
X71154856Y-78320006D01*
X71211942Y-78396174D01*
X71235454Y-78427546D01*
X71242635Y-78432928D01*
X71342994Y-78508144D01*
X71342997Y-78508146D01*
X71350176Y-78513526D01*
X71439561Y-78547034D01*
X71477025Y-78561079D01*
X71477027Y-78561079D01*
X71484420Y-78563851D01*
X71492270Y-78564704D01*
X71492271Y-78564704D01*
X71542217Y-78570130D01*
X71545623Y-78570500D01*
X72342883Y-78570500D01*
X73140376Y-78570499D01*
X73143770Y-78570130D01*
X73143776Y-78570130D01*
X73193722Y-78564705D01*
X73193726Y-78564704D01*
X73201580Y-78563851D01*
X73335824Y-78513526D01*
X73343003Y-78508146D01*
X73343006Y-78508144D01*
X73443365Y-78432928D01*
X73450546Y-78427546D01*
X73474058Y-78396174D01*
X73531142Y-78320008D01*
X73531143Y-78320006D01*
X73536526Y-78312824D01*
X73540483Y-78302268D01*
X73541850Y-78300449D01*
X73543987Y-78296545D01*
X73544551Y-78296854D01*
X73583122Y-78245506D01*
X73649684Y-78220805D01*
X73658464Y-78220499D01*
X73765296Y-78220499D01*
X73833417Y-78240501D01*
X73868509Y-78274229D01*
X73892953Y-78309139D01*
X74053861Y-78470047D01*
X74148272Y-78536154D01*
X74192599Y-78591608D01*
X74202000Y-78639365D01*
X74202000Y-85712697D01*
X74201708Y-85721267D01*
X74197879Y-85777430D01*
X74199184Y-85784906D01*
X74199184Y-85784909D01*
X74208581Y-85838750D01*
X74209544Y-85845276D01*
X74217018Y-85907037D01*
X74219704Y-85914146D01*
X74220735Y-85918344D01*
X74224078Y-85930565D01*
X74225328Y-85934706D01*
X74226634Y-85942187D01*
X74251656Y-85999191D01*
X74254132Y-86005257D01*
X74276136Y-86063489D01*
X74280437Y-86069747D01*
X74282444Y-86073586D01*
X74288587Y-86084623D01*
X74290805Y-86088374D01*
X74293859Y-86095331D01*
X74298484Y-86101358D01*
X74298486Y-86101362D01*
X74331745Y-86144707D01*
X74335619Y-86150038D01*
X74370866Y-86201323D01*
X74376535Y-86206374D01*
X74376537Y-86206376D01*
X74416169Y-86241686D01*
X74421446Y-86246668D01*
X79739370Y-91564592D01*
X79773396Y-91626904D01*
X79771982Y-91686296D01*
X79766362Y-91707270D01*
X79766361Y-91707277D01*
X79764937Y-91712592D01*
X79744341Y-91948000D01*
X79764937Y-92183408D01*
X79826097Y-92411663D01*
X79828419Y-92416643D01*
X79828420Y-92416645D01*
X79902323Y-92575128D01*
X79925965Y-92625829D01*
X80061505Y-92819401D01*
X80228599Y-92986495D01*
X80233107Y-92989652D01*
X80233110Y-92989654D01*
X80405880Y-93110629D01*
X80450208Y-93166086D01*
X80457517Y-93236706D01*
X80425486Y-93300066D01*
X80391790Y-93325605D01*
X80378461Y-93332543D01*
X80369734Y-93338039D01*
X80349677Y-93353099D01*
X80341223Y-93364427D01*
X80347968Y-93376758D01*
X81087188Y-94115978D01*
X81101132Y-94123592D01*
X81102965Y-94123461D01*
X81109580Y-94119210D01*
X81853389Y-93375401D01*
X81860410Y-93362544D01*
X81853611Y-93353213D01*
X81849559Y-93350521D01*
X81803863Y-93325296D01*
X81753892Y-93274864D01*
X81741583Y-93217000D01*
X83556341Y-93217000D01*
X83576937Y-93452408D01*
X83578361Y-93457722D01*
X83578361Y-93457723D01*
X83619888Y-93612704D01*
X83638097Y-93680663D01*
X83640419Y-93685643D01*
X83640420Y-93685645D01*
X83722121Y-93860851D01*
X83737965Y-93894829D01*
X83873505Y-94088401D01*
X84040599Y-94255495D01*
X84045107Y-94258652D01*
X84045110Y-94258654D01*
X84224787Y-94384465D01*
X84234170Y-94391035D01*
X84239152Y-94393358D01*
X84239157Y-94393361D01*
X84443355Y-94488580D01*
X84448337Y-94490903D01*
X84453645Y-94492325D01*
X84453647Y-94492326D01*
X84671277Y-94550639D01*
X84676592Y-94552063D01*
X84912000Y-94572659D01*
X85147408Y-94552063D01*
X85152723Y-94550639D01*
X85370353Y-94492326D01*
X85370355Y-94492325D01*
X85375663Y-94490903D01*
X85380645Y-94488580D01*
X85584843Y-94393361D01*
X85584848Y-94393358D01*
X85589830Y-94391035D01*
X85599213Y-94384465D01*
X85778890Y-94258654D01*
X85778893Y-94258652D01*
X85783401Y-94255495D01*
X85950495Y-94088401D01*
X86078787Y-93905180D01*
X86134244Y-93860851D01*
X86204863Y-93853542D01*
X86268224Y-93885572D01*
X86285212Y-93905179D01*
X86413505Y-94088401D01*
X86580599Y-94255495D01*
X86585107Y-94258652D01*
X86585110Y-94258654D01*
X86764787Y-94384465D01*
X86774170Y-94391035D01*
X86779152Y-94393358D01*
X86779157Y-94393361D01*
X86983355Y-94488580D01*
X86988337Y-94490903D01*
X86993645Y-94492325D01*
X86993647Y-94492326D01*
X87211277Y-94550639D01*
X87216592Y-94552063D01*
X87452000Y-94572659D01*
X87687408Y-94552063D01*
X87692723Y-94550639D01*
X87910353Y-94492326D01*
X87910355Y-94492325D01*
X87915663Y-94490903D01*
X87920645Y-94488580D01*
X88124843Y-94393361D01*
X88124848Y-94393358D01*
X88129830Y-94391035D01*
X88139213Y-94384465D01*
X88318890Y-94258654D01*
X88318893Y-94258652D01*
X88323401Y-94255495D01*
X88490495Y-94088401D01*
X88618787Y-93905180D01*
X88674244Y-93860851D01*
X88744863Y-93853542D01*
X88808224Y-93885572D01*
X88825212Y-93905179D01*
X88953505Y-94088401D01*
X89120599Y-94255495D01*
X89125107Y-94258652D01*
X89125110Y-94258654D01*
X89304787Y-94384465D01*
X89314170Y-94391035D01*
X89319152Y-94393358D01*
X89319157Y-94393361D01*
X89523355Y-94488580D01*
X89528337Y-94490903D01*
X89533645Y-94492325D01*
X89533647Y-94492326D01*
X89751277Y-94550639D01*
X89756592Y-94552063D01*
X89992000Y-94572659D01*
X90227408Y-94552063D01*
X90232723Y-94550639D01*
X90450353Y-94492326D01*
X90450355Y-94492325D01*
X90455663Y-94490903D01*
X90460645Y-94488580D01*
X90664843Y-94393361D01*
X90664848Y-94393358D01*
X90669830Y-94391035D01*
X90679213Y-94384465D01*
X90740069Y-94341853D01*
X91771977Y-94341853D01*
X91777258Y-94348907D01*
X91938756Y-94443279D01*
X91948042Y-94447729D01*
X92147001Y-94523703D01*
X92156899Y-94526579D01*
X92365595Y-94569038D01*
X92375823Y-94570257D01*
X92588650Y-94578062D01*
X92598936Y-94577595D01*
X92810185Y-94550534D01*
X92820262Y-94548392D01*
X93024255Y-94487191D01*
X93033842Y-94483433D01*
X93225098Y-94389738D01*
X93233944Y-94384465D01*
X93281247Y-94350723D01*
X93289648Y-94340023D01*
X93282660Y-94326870D01*
X92544812Y-93589022D01*
X92530868Y-93581408D01*
X92529035Y-93581539D01*
X92522420Y-93585790D01*
X91778737Y-94329473D01*
X91771977Y-94341853D01*
X90740069Y-94341853D01*
X90858890Y-94258654D01*
X90858893Y-94258652D01*
X90863401Y-94255495D01*
X91030495Y-94088401D01*
X91156358Y-93908649D01*
X91211814Y-93864322D01*
X91282433Y-93857013D01*
X91345794Y-93889043D01*
X91367003Y-93915086D01*
X91398460Y-93966420D01*
X91408916Y-93975880D01*
X91417694Y-93972096D01*
X92159978Y-93229812D01*
X92166356Y-93218132D01*
X92896408Y-93218132D01*
X92896539Y-93219965D01*
X92900790Y-93226580D01*
X93642474Y-93968264D01*
X93654484Y-93974823D01*
X93666223Y-93965855D01*
X93697004Y-93923019D01*
X93702315Y-93914180D01*
X93796670Y-93723267D01*
X93800469Y-93713672D01*
X93862376Y-93509915D01*
X93864555Y-93499834D01*
X93892590Y-93286887D01*
X93893109Y-93280212D01*
X93894572Y-93220364D01*
X93894378Y-93213646D01*
X93876781Y-92999604D01*
X93875096Y-92989424D01*
X93823214Y-92782875D01*
X93819894Y-92773124D01*
X93734972Y-92577814D01*
X93730105Y-92568739D01*
X93665063Y-92468197D01*
X93654377Y-92458995D01*
X93644812Y-92463398D01*
X92904022Y-93204188D01*
X92896408Y-93218132D01*
X92166356Y-93218132D01*
X92167592Y-93215868D01*
X92167461Y-93214035D01*
X92163210Y-93207420D01*
X91421849Y-92466059D01*
X91410313Y-92459759D01*
X91398030Y-92469383D01*
X91362167Y-92521955D01*
X91307256Y-92566957D01*
X91236731Y-92575128D01*
X91172984Y-92543874D01*
X91154866Y-92523220D01*
X91033654Y-92350111D01*
X91030495Y-92345599D01*
X90863401Y-92178505D01*
X90858893Y-92175348D01*
X90858890Y-92175346D01*
X90741898Y-92093427D01*
X91773223Y-92093427D01*
X91779968Y-92105758D01*
X92519188Y-92844978D01*
X92533132Y-92852592D01*
X92534965Y-92852461D01*
X92541580Y-92848210D01*
X93285389Y-92104401D01*
X93292410Y-92091544D01*
X93285611Y-92082213D01*
X93281554Y-92079518D01*
X93095117Y-91976599D01*
X93085705Y-91972369D01*
X92884959Y-91901280D01*
X92874989Y-91898646D01*
X92665327Y-91861301D01*
X92655073Y-91860331D01*
X92442116Y-91857728D01*
X92431832Y-91858448D01*
X92221321Y-91890661D01*
X92211293Y-91893050D01*
X92008868Y-91959212D01*
X91999359Y-91963209D01*
X91810466Y-92061540D01*
X91801734Y-92067039D01*
X91781677Y-92082099D01*
X91773223Y-92093427D01*
X90741898Y-92093427D01*
X90674339Y-92046122D01*
X90674336Y-92046120D01*
X90669830Y-92042965D01*
X90664848Y-92040642D01*
X90664843Y-92040639D01*
X90460645Y-91945420D01*
X90460644Y-91945419D01*
X90455663Y-91943097D01*
X90450355Y-91941675D01*
X90450353Y-91941674D01*
X90232723Y-91883361D01*
X90232722Y-91883361D01*
X90227408Y-91881937D01*
X89992000Y-91861341D01*
X89756592Y-91881937D01*
X89751278Y-91883361D01*
X89751277Y-91883361D01*
X89533647Y-91941674D01*
X89533645Y-91941675D01*
X89528337Y-91943097D01*
X89523357Y-91945419D01*
X89523355Y-91945420D01*
X89319152Y-92040642D01*
X89319149Y-92040644D01*
X89314171Y-92042965D01*
X89120599Y-92178505D01*
X88953505Y-92345599D01*
X88866831Y-92469383D01*
X88825213Y-92528820D01*
X88769756Y-92573149D01*
X88699137Y-92580458D01*
X88635776Y-92548428D01*
X88618787Y-92528820D01*
X88577169Y-92469383D01*
X88490495Y-92345599D01*
X88323401Y-92178505D01*
X88318893Y-92175348D01*
X88318890Y-92175346D01*
X88134339Y-92046122D01*
X88134336Y-92046120D01*
X88129830Y-92042965D01*
X88124848Y-92040642D01*
X88124843Y-92040639D01*
X87920645Y-91945420D01*
X87920644Y-91945419D01*
X87915663Y-91943097D01*
X87910355Y-91941675D01*
X87910353Y-91941674D01*
X87692723Y-91883361D01*
X87692722Y-91883361D01*
X87687408Y-91881937D01*
X87452000Y-91861341D01*
X87216592Y-91881937D01*
X87211278Y-91883361D01*
X87211277Y-91883361D01*
X86993647Y-91941674D01*
X86993645Y-91941675D01*
X86988337Y-91943097D01*
X86983357Y-91945419D01*
X86983355Y-91945420D01*
X86779152Y-92040642D01*
X86779149Y-92040644D01*
X86774171Y-92042965D01*
X86580599Y-92178505D01*
X86413505Y-92345599D01*
X86326831Y-92469383D01*
X86285213Y-92528820D01*
X86229756Y-92573149D01*
X86159137Y-92580458D01*
X86095776Y-92548428D01*
X86078787Y-92528820D01*
X86037169Y-92469383D01*
X85950495Y-92345599D01*
X85783401Y-92178505D01*
X85778893Y-92175348D01*
X85778890Y-92175346D01*
X85594339Y-92046122D01*
X85594336Y-92046120D01*
X85589830Y-92042965D01*
X85584848Y-92040642D01*
X85584843Y-92040639D01*
X85380645Y-91945420D01*
X85380644Y-91945419D01*
X85375663Y-91943097D01*
X85370355Y-91941675D01*
X85370353Y-91941674D01*
X85152723Y-91883361D01*
X85152722Y-91883361D01*
X85147408Y-91881937D01*
X84912000Y-91861341D01*
X84676592Y-91881937D01*
X84671278Y-91883361D01*
X84671277Y-91883361D01*
X84453647Y-91941674D01*
X84453645Y-91941675D01*
X84448337Y-91943097D01*
X84443357Y-91945419D01*
X84443355Y-91945420D01*
X84239152Y-92040642D01*
X84239149Y-92040644D01*
X84234171Y-92042965D01*
X84040599Y-92178505D01*
X83873505Y-92345599D01*
X83737965Y-92539171D01*
X83735644Y-92544149D01*
X83735642Y-92544152D01*
X83642000Y-92744967D01*
X83638097Y-92753337D01*
X83576937Y-92981592D01*
X83556341Y-93217000D01*
X81741583Y-93217000D01*
X81739120Y-93205421D01*
X81764236Y-93139015D01*
X81792485Y-93111774D01*
X81966890Y-92989654D01*
X81966893Y-92989652D01*
X81971401Y-92986495D01*
X82138495Y-92819401D01*
X82274035Y-92625829D01*
X82297678Y-92575128D01*
X82371580Y-92416645D01*
X82371581Y-92416643D01*
X82373903Y-92411663D01*
X82435063Y-92183408D01*
X82455659Y-91948000D01*
X82435063Y-91712592D01*
X82373903Y-91484337D01*
X82274035Y-91270171D01*
X82138495Y-91076599D01*
X81971401Y-90909505D01*
X81966893Y-90906348D01*
X81966890Y-90906346D01*
X81839408Y-90817082D01*
X81788181Y-90781213D01*
X81743853Y-90725756D01*
X81736544Y-90655137D01*
X81768575Y-90591776D01*
X81788181Y-90574787D01*
X81966890Y-90449654D01*
X81966893Y-90449652D01*
X81971401Y-90446495D01*
X82138495Y-90279401D01*
X82274035Y-90085829D01*
X82373903Y-89871663D01*
X82435063Y-89643408D01*
X82455659Y-89408000D01*
X82435063Y-89172592D01*
X82413624Y-89092580D01*
X82375326Y-88949647D01*
X82375325Y-88949645D01*
X82373903Y-88944337D01*
X82371580Y-88939355D01*
X82276358Y-88735152D01*
X82276356Y-88735149D01*
X82274035Y-88730171D01*
X82138495Y-88536599D01*
X81971401Y-88369505D01*
X81966893Y-88366348D01*
X81966890Y-88366346D01*
X81839408Y-88277082D01*
X81788181Y-88241213D01*
X81743853Y-88185756D01*
X81736544Y-88115137D01*
X81768575Y-88051776D01*
X81788181Y-88034787D01*
X81966890Y-87909654D01*
X81966893Y-87909652D01*
X81971401Y-87906495D01*
X82138495Y-87739401D01*
X82274035Y-87545829D01*
X82373903Y-87331663D01*
X82420986Y-87155947D01*
X82433639Y-87108723D01*
X82433639Y-87108722D01*
X82435063Y-87103408D01*
X82455659Y-86868000D01*
X82435063Y-86632592D01*
X82422355Y-86585164D01*
X82375326Y-86409647D01*
X82375325Y-86409645D01*
X82373903Y-86404337D01*
X82352772Y-86359021D01*
X82276358Y-86195152D01*
X82276356Y-86195149D01*
X82274035Y-86190171D01*
X82138495Y-85996599D01*
X81971401Y-85829505D01*
X81966893Y-85826348D01*
X81966890Y-85826346D01*
X81816821Y-85721267D01*
X81788181Y-85701213D01*
X81743853Y-85645756D01*
X81736544Y-85575137D01*
X81768575Y-85511776D01*
X81788181Y-85494787D01*
X81966890Y-85369654D01*
X81966893Y-85369652D01*
X81971401Y-85366495D01*
X82138495Y-85199401D01*
X82274035Y-85005829D01*
X82297424Y-84955673D01*
X82371580Y-84796645D01*
X82371581Y-84796643D01*
X82373903Y-84791663D01*
X82407821Y-84665080D01*
X82433639Y-84568723D01*
X82433639Y-84568722D01*
X82435063Y-84563408D01*
X82455659Y-84328000D01*
X82435063Y-84092592D01*
X82418694Y-84031500D01*
X82375326Y-83869647D01*
X82375325Y-83869645D01*
X82373903Y-83864337D01*
X82331696Y-83773824D01*
X82276358Y-83655152D01*
X82276356Y-83655149D01*
X82274035Y-83650171D01*
X82138495Y-83456599D01*
X81971401Y-83289505D01*
X81966893Y-83286348D01*
X81966890Y-83286346D01*
X81800306Y-83169703D01*
X81788181Y-83161213D01*
X81743853Y-83105756D01*
X81736544Y-83035137D01*
X81768575Y-82971776D01*
X81788181Y-82954787D01*
X81822153Y-82931000D01*
X81917447Y-82864274D01*
X81966890Y-82829654D01*
X81966893Y-82829652D01*
X81971401Y-82826495D01*
X82138495Y-82659401D01*
X82274035Y-82465829D01*
X82289110Y-82433502D01*
X82371580Y-82256645D01*
X82371581Y-82256643D01*
X82373903Y-82251663D01*
X82400060Y-82154045D01*
X82433639Y-82028723D01*
X82433639Y-82028722D01*
X82435063Y-82023408D01*
X82455659Y-81788000D01*
X82435063Y-81552592D01*
X82373903Y-81324337D01*
X82323280Y-81215776D01*
X82276358Y-81115152D01*
X82276356Y-81115149D01*
X82274035Y-81110171D01*
X82138495Y-80916599D01*
X81971401Y-80749505D01*
X81966893Y-80746348D01*
X81966890Y-80746346D01*
X81825517Y-80647356D01*
X81788181Y-80621213D01*
X81743853Y-80565756D01*
X81736544Y-80495137D01*
X81768575Y-80431776D01*
X81788181Y-80414787D01*
X81805388Y-80402739D01*
X81839408Y-80378918D01*
X81966890Y-80289654D01*
X81966893Y-80289652D01*
X81971401Y-80286495D01*
X82138495Y-80119401D01*
X82274035Y-79925829D01*
X82315625Y-79836641D01*
X82371580Y-79716645D01*
X82371581Y-79716643D01*
X82373903Y-79711663D01*
X82394000Y-79636661D01*
X82433639Y-79488723D01*
X82433639Y-79488722D01*
X82435063Y-79483408D01*
X82455659Y-79248000D01*
X82435063Y-79012592D01*
X82428282Y-78987286D01*
X82375326Y-78789647D01*
X82375325Y-78789645D01*
X82373903Y-78784337D01*
X82331972Y-78694416D01*
X82276358Y-78575152D01*
X82276356Y-78575149D01*
X82274035Y-78570171D01*
X82138495Y-78376599D01*
X81971401Y-78209505D01*
X81966893Y-78206348D01*
X81966890Y-78206346D01*
X81829972Y-78110475D01*
X81788181Y-78081213D01*
X81743853Y-78025756D01*
X81736544Y-77955137D01*
X81768575Y-77891776D01*
X81788181Y-77874787D01*
X81966890Y-77749654D01*
X81966893Y-77749652D01*
X81971401Y-77746495D01*
X82138495Y-77579401D01*
X82274035Y-77385829D01*
X82357135Y-77207623D01*
X82371580Y-77176645D01*
X82371581Y-77176643D01*
X82373903Y-77171663D01*
X82401036Y-77070402D01*
X82433639Y-76948723D01*
X82433639Y-76948722D01*
X82435063Y-76943408D01*
X82455659Y-76708000D01*
X82435063Y-76472592D01*
X82433511Y-76466800D01*
X82375326Y-76249647D01*
X82375325Y-76249645D01*
X82373903Y-76244337D01*
X82365152Y-76225570D01*
X82276358Y-76035152D01*
X82276356Y-76035149D01*
X82274035Y-76030171D01*
X82138495Y-75836599D01*
X81971401Y-75669505D01*
X81966893Y-75666348D01*
X81966890Y-75666346D01*
X81839408Y-75577082D01*
X81788181Y-75541213D01*
X81743853Y-75485756D01*
X81736544Y-75415137D01*
X81768575Y-75351776D01*
X81788181Y-75334787D01*
X81966890Y-75209654D01*
X81966893Y-75209652D01*
X81971401Y-75206495D01*
X82138495Y-75039401D01*
X82274035Y-74845829D01*
X82345399Y-74692791D01*
X82371580Y-74636645D01*
X82371581Y-74636643D01*
X82373903Y-74631663D01*
X82377757Y-74617282D01*
X82433639Y-74408723D01*
X82433639Y-74408722D01*
X82435063Y-74403408D01*
X82455659Y-74168000D01*
X82435063Y-73932592D01*
X82373903Y-73704337D01*
X82371580Y-73699355D01*
X82276358Y-73495152D01*
X82276356Y-73495149D01*
X82274035Y-73490171D01*
X82138495Y-73296599D01*
X81971401Y-73129505D01*
X81966893Y-73126348D01*
X81966890Y-73126346D01*
X81839408Y-73037082D01*
X81788181Y-73001213D01*
X81743853Y-72945756D01*
X81736544Y-72875137D01*
X81768575Y-72811776D01*
X81788181Y-72794787D01*
X81966890Y-72669654D01*
X81966893Y-72669652D01*
X81971401Y-72666495D01*
X82138495Y-72499401D01*
X82274035Y-72305829D01*
X82346118Y-72151249D01*
X82371580Y-72096645D01*
X82371581Y-72096643D01*
X82373903Y-72091663D01*
X82405687Y-71973044D01*
X82433639Y-71868723D01*
X82433639Y-71868722D01*
X82435063Y-71863408D01*
X82455659Y-71628000D01*
X82435063Y-71392592D01*
X82433639Y-71387277D01*
X82375326Y-71169647D01*
X82375325Y-71169645D01*
X82373903Y-71164337D01*
X82315448Y-71038981D01*
X82276358Y-70955152D01*
X82276356Y-70955149D01*
X82274035Y-70950171D01*
X82138495Y-70756599D01*
X81971401Y-70589505D01*
X81966893Y-70586348D01*
X81966890Y-70586346D01*
X81839408Y-70497082D01*
X81788181Y-70461213D01*
X81743853Y-70405756D01*
X81736544Y-70335137D01*
X81768575Y-70271776D01*
X81788181Y-70254787D01*
X81966890Y-70129654D01*
X81966893Y-70129652D01*
X81971401Y-70126495D01*
X82138495Y-69959401D01*
X82274035Y-69765829D01*
X82297479Y-69715555D01*
X82371580Y-69556645D01*
X82371581Y-69556643D01*
X82373903Y-69551663D01*
X82390560Y-69489500D01*
X82433639Y-69328723D01*
X82433639Y-69328722D01*
X82435063Y-69323408D01*
X82455659Y-69088000D01*
X82435063Y-68852592D01*
X82373903Y-68624337D01*
X82274035Y-68410171D01*
X82240784Y-68362683D01*
X82218097Y-68295409D01*
X82235383Y-68226549D01*
X82254903Y-68201319D01*
X83272591Y-67183631D01*
X83278857Y-67177777D01*
X83315558Y-67145761D01*
X83321285Y-67140765D01*
X83357076Y-67089839D01*
X83361001Y-67084555D01*
X83394712Y-67041561D01*
X83399397Y-67035586D01*
X83402520Y-67028669D01*
X83404770Y-67024954D01*
X83411023Y-67013991D01*
X83413085Y-67010146D01*
X83417453Y-67003931D01*
X83420211Y-66996857D01*
X83420216Y-66996848D01*
X83440062Y-66945947D01*
X83442617Y-66939868D01*
X83465096Y-66890081D01*
X83465096Y-66890080D01*
X83468223Y-66883155D01*
X83469607Y-66875686D01*
X83470909Y-66871532D01*
X83474367Y-66859392D01*
X83475447Y-66855186D01*
X83478207Y-66848107D01*
X83486330Y-66786403D01*
X83487361Y-66779896D01*
X83487726Y-66777928D01*
X83498702Y-66718707D01*
X83495209Y-66658137D01*
X83495000Y-66650883D01*
X83495000Y-51279863D01*
X94978050Y-51279863D01*
X94990309Y-51492477D01*
X94991745Y-51502697D01*
X95038565Y-51710446D01*
X95041645Y-51720275D01*
X95121770Y-51917603D01*
X95126413Y-51926794D01*
X95206460Y-52057420D01*
X95216916Y-52066880D01*
X95225694Y-52063096D01*
X95967978Y-51320812D01*
X95974356Y-51309132D01*
X96704408Y-51309132D01*
X96704539Y-51310965D01*
X96708790Y-51317580D01*
X97450474Y-52059264D01*
X97462484Y-52065823D01*
X97474223Y-52056855D01*
X97488321Y-52037236D01*
X98514958Y-52037236D01*
X98541014Y-52335065D01*
X98606232Y-52626832D01*
X98607676Y-52630756D01*
X98607676Y-52630757D01*
X98645931Y-52734731D01*
X98709464Y-52907410D01*
X98711415Y-52911110D01*
X98711417Y-52911115D01*
X98745943Y-52976599D01*
X98848898Y-53171870D01*
X99022084Y-53415565D01*
X99024934Y-53418621D01*
X99210925Y-53618072D01*
X99225979Y-53634216D01*
X99457000Y-53823979D01*
X99711090Y-53981521D01*
X99983783Y-54104074D01*
X100158027Y-54156018D01*
X100266290Y-54188293D01*
X100266292Y-54188293D01*
X100270289Y-54189485D01*
X100274409Y-54190138D01*
X100274411Y-54190138D01*
X100392423Y-54208829D01*
X100565575Y-54236254D01*
X100608135Y-54238187D01*
X100657659Y-54240436D01*
X100657678Y-54240436D01*
X100659078Y-54240500D01*
X100845834Y-54240500D01*
X101068309Y-54225723D01*
X101361377Y-54166630D01*
X101644056Y-54069296D01*
X101647789Y-54067427D01*
X101647793Y-54067425D01*
X101907640Y-53937303D01*
X101907642Y-53937302D01*
X101911378Y-53935431D01*
X102158647Y-53767387D01*
X102381520Y-53568117D01*
X102576079Y-53341120D01*
X102688397Y-53168166D01*
X102736629Y-53093896D01*
X102736632Y-53093891D01*
X102738908Y-53090386D01*
X102867145Y-52820319D01*
X102869367Y-52813400D01*
X102957258Y-52539651D01*
X102957258Y-52539650D01*
X102958538Y-52535664D01*
X102973194Y-52454211D01*
X103010741Y-52245531D01*
X103010742Y-52245526D01*
X103011480Y-52241422D01*
X103014120Y-52183296D01*
X103024853Y-51946934D01*
X103024853Y-51946929D01*
X103025042Y-51942764D01*
X102998986Y-51644935D01*
X102933768Y-51353168D01*
X102915916Y-51304646D01*
X102831983Y-51076523D01*
X102830536Y-51072590D01*
X102822739Y-51057800D01*
X102693055Y-50811834D01*
X102693054Y-50811833D01*
X102691102Y-50808130D01*
X102517916Y-50564435D01*
X102387168Y-50424225D01*
X102316871Y-50348840D01*
X102316869Y-50348838D01*
X102314021Y-50345784D01*
X102083000Y-50156021D01*
X101828910Y-49998479D01*
X101556217Y-49875926D01*
X101310243Y-49802598D01*
X101273710Y-49791707D01*
X101273708Y-49791707D01*
X101269711Y-49790515D01*
X101265591Y-49789862D01*
X101265589Y-49789862D01*
X101147577Y-49771171D01*
X100974425Y-49743746D01*
X100931865Y-49741813D01*
X100882341Y-49739564D01*
X100882322Y-49739564D01*
X100880922Y-49739500D01*
X100694166Y-49739500D01*
X100471691Y-49754277D01*
X100178623Y-49813370D01*
X99895944Y-49910704D01*
X99892211Y-49912573D01*
X99892207Y-49912575D01*
X99640336Y-50038703D01*
X99628622Y-50044569D01*
X99381353Y-50212613D01*
X99158480Y-50411883D01*
X98963921Y-50638880D01*
X98961647Y-50642382D01*
X98831708Y-50842470D01*
X98801092Y-50889614D01*
X98672855Y-51159681D01*
X98671576Y-51163664D01*
X98671575Y-51163667D01*
X98582742Y-51440349D01*
X98581462Y-51444336D01*
X98580721Y-51448455D01*
X98533582Y-51710446D01*
X98528520Y-51738578D01*
X98528331Y-51742745D01*
X98528330Y-51742752D01*
X98516012Y-52014019D01*
X98514958Y-52037236D01*
X97488321Y-52037236D01*
X97505004Y-52014019D01*
X97510315Y-52005180D01*
X97604670Y-51814267D01*
X97608469Y-51804672D01*
X97670376Y-51600915D01*
X97672555Y-51590834D01*
X97700590Y-51377887D01*
X97701109Y-51371212D01*
X97702572Y-51311364D01*
X97702378Y-51304646D01*
X97684781Y-51090604D01*
X97683096Y-51080424D01*
X97631214Y-50873875D01*
X97627894Y-50864124D01*
X97542972Y-50668814D01*
X97538105Y-50659739D01*
X97473063Y-50559197D01*
X97462377Y-50549995D01*
X97452812Y-50554398D01*
X96712022Y-51295188D01*
X96704408Y-51309132D01*
X95974356Y-51309132D01*
X95975592Y-51306868D01*
X95975461Y-51305035D01*
X95971210Y-51298420D01*
X95229849Y-50557059D01*
X95218313Y-50550759D01*
X95206031Y-50560382D01*
X95158089Y-50630662D01*
X95153004Y-50639613D01*
X95063338Y-50832783D01*
X95059775Y-50842470D01*
X95002864Y-51047681D01*
X95000933Y-51057800D01*
X94978302Y-51269574D01*
X94978050Y-51279863D01*
X83495000Y-51279863D01*
X83495000Y-51265412D01*
X83515002Y-51197291D01*
X83531905Y-51176317D01*
X85212317Y-49495905D01*
X85274629Y-49461879D01*
X85301412Y-49459000D01*
X95109595Y-49459000D01*
X95177716Y-49479002D01*
X95212808Y-49512729D01*
X95301505Y-49639401D01*
X95468599Y-49806495D01*
X95473107Y-49809652D01*
X95473110Y-49809654D01*
X95645880Y-49930629D01*
X95690208Y-49986086D01*
X95697517Y-50056706D01*
X95665486Y-50120066D01*
X95631790Y-50145605D01*
X95618461Y-50152543D01*
X95609734Y-50158039D01*
X95589677Y-50173099D01*
X95581223Y-50184427D01*
X95587968Y-50196758D01*
X96327188Y-50935978D01*
X96341132Y-50943592D01*
X96342965Y-50943461D01*
X96349580Y-50939210D01*
X97093389Y-50195401D01*
X97100410Y-50182544D01*
X97093611Y-50173213D01*
X97089559Y-50170521D01*
X97043863Y-50145296D01*
X96993892Y-50094864D01*
X96979120Y-50025421D01*
X97004236Y-49959015D01*
X97032485Y-49931774D01*
X97206890Y-49809654D01*
X97206893Y-49809652D01*
X97211401Y-49806495D01*
X97378495Y-49639401D01*
X97467192Y-49512729D01*
X97522649Y-49468401D01*
X97570405Y-49459000D01*
X136059588Y-49459000D01*
X136127709Y-49479002D01*
X136148683Y-49495905D01*
X175005369Y-88352591D01*
X175011222Y-88358856D01*
X175048235Y-88401285D01*
X175054453Y-88405655D01*
X175099138Y-88437060D01*
X175104434Y-88440993D01*
X175147433Y-88474709D01*
X175147441Y-88474714D01*
X175153415Y-88479398D01*
X175160339Y-88482524D01*
X175164062Y-88484779D01*
X175175057Y-88491050D01*
X175178858Y-88493088D01*
X175185069Y-88497453D01*
X175232502Y-88515947D01*
X175243047Y-88520058D01*
X175249128Y-88522614D01*
X175290095Y-88541111D01*
X175305846Y-88548223D01*
X175313311Y-88549607D01*
X175317422Y-88550895D01*
X175329646Y-88554377D01*
X175333815Y-88555447D01*
X175340893Y-88558207D01*
X175402592Y-88566330D01*
X175409090Y-88567358D01*
X175470293Y-88578702D01*
X175477873Y-88578265D01*
X175477874Y-88578265D01*
X175510931Y-88576359D01*
X175530871Y-88575209D01*
X175538122Y-88575000D01*
X192964501Y-88575000D01*
X193032622Y-88595002D01*
X193079115Y-88648658D01*
X193090501Y-88701000D01*
X193090501Y-89031376D01*
X193097149Y-89092580D01*
X193147474Y-89226824D01*
X193152854Y-89234003D01*
X193152856Y-89234006D01*
X193228072Y-89334365D01*
X193233454Y-89341546D01*
X193240635Y-89346928D01*
X193340994Y-89422144D01*
X193340997Y-89422146D01*
X193348176Y-89427526D01*
X193437561Y-89461034D01*
X193475025Y-89475079D01*
X193475027Y-89475079D01*
X193482420Y-89477851D01*
X193490270Y-89478704D01*
X193490271Y-89478704D01*
X193540217Y-89484130D01*
X193543623Y-89484500D01*
X194690832Y-89484500D01*
X195838376Y-89484499D01*
X195841770Y-89484130D01*
X195841776Y-89484130D01*
X195891722Y-89478705D01*
X195891726Y-89478704D01*
X195899580Y-89477851D01*
X196033824Y-89427526D01*
X196041003Y-89422146D01*
X196041006Y-89422144D01*
X196141365Y-89346928D01*
X196148546Y-89341546D01*
X196153928Y-89334365D01*
X196229144Y-89234006D01*
X196229146Y-89234003D01*
X196234526Y-89226824D01*
X196284851Y-89092580D01*
X196291500Y-89031377D01*
X196291499Y-87884000D01*
X203245551Y-87884000D01*
X203265317Y-88135148D01*
X203266471Y-88139955D01*
X203266472Y-88139961D01*
X203286702Y-88224225D01*
X203324127Y-88380111D01*
X203326020Y-88384682D01*
X203326021Y-88384684D01*
X203406386Y-88578702D01*
X203420534Y-88612859D01*
X203552164Y-88827659D01*
X203555376Y-88831419D01*
X203555379Y-88831424D01*
X203700256Y-89001052D01*
X203715776Y-89019224D01*
X203719538Y-89022437D01*
X203903576Y-89179621D01*
X203903581Y-89179624D01*
X203907341Y-89182836D01*
X204122141Y-89314466D01*
X204126711Y-89316359D01*
X204126715Y-89316361D01*
X204350316Y-89408979D01*
X204354889Y-89410873D01*
X204424254Y-89427526D01*
X204595039Y-89468528D01*
X204595045Y-89468529D01*
X204599852Y-89469683D01*
X204851000Y-89489449D01*
X205102148Y-89469683D01*
X205106955Y-89468529D01*
X205106961Y-89468528D01*
X205277746Y-89427526D01*
X205347111Y-89410873D01*
X205351684Y-89408979D01*
X205575285Y-89316361D01*
X205575289Y-89316359D01*
X205579859Y-89314466D01*
X205794659Y-89182836D01*
X205798419Y-89179624D01*
X205798424Y-89179621D01*
X205982462Y-89022437D01*
X205986224Y-89019224D01*
X206001744Y-89001052D01*
X206146621Y-88831424D01*
X206146624Y-88831419D01*
X206149836Y-88827659D01*
X206281466Y-88612859D01*
X206295615Y-88578702D01*
X206375979Y-88384684D01*
X206375980Y-88384682D01*
X206377873Y-88380111D01*
X206415298Y-88224225D01*
X206435528Y-88139961D01*
X206435529Y-88139955D01*
X206436683Y-88135148D01*
X206456449Y-87884000D01*
X206436683Y-87632852D01*
X206416873Y-87550334D01*
X206379028Y-87392701D01*
X206377873Y-87387889D01*
X206297148Y-87193000D01*
X206283361Y-87159715D01*
X206283359Y-87159711D01*
X206281466Y-87155141D01*
X206149836Y-86940341D01*
X206146624Y-86936581D01*
X206146621Y-86936576D01*
X205989437Y-86752538D01*
X205986224Y-86748776D01*
X205891670Y-86668019D01*
X205798424Y-86588379D01*
X205798419Y-86588376D01*
X205794659Y-86585164D01*
X205579859Y-86453534D01*
X205575289Y-86451641D01*
X205575285Y-86451639D01*
X205351684Y-86359021D01*
X205351682Y-86359020D01*
X205347111Y-86357127D01*
X205259610Y-86336120D01*
X205106961Y-86299472D01*
X205106955Y-86299471D01*
X205102148Y-86298317D01*
X204851000Y-86278551D01*
X204599852Y-86298317D01*
X204595045Y-86299471D01*
X204595039Y-86299472D01*
X204442390Y-86336120D01*
X204354889Y-86357127D01*
X204350318Y-86359020D01*
X204350316Y-86359021D01*
X204126715Y-86451639D01*
X204126711Y-86451641D01*
X204122141Y-86453534D01*
X203907341Y-86585164D01*
X203903581Y-86588376D01*
X203903576Y-86588379D01*
X203810330Y-86668019D01*
X203715776Y-86748776D01*
X203712563Y-86752538D01*
X203555379Y-86936576D01*
X203555376Y-86936581D01*
X203552164Y-86940341D01*
X203420534Y-87155141D01*
X203418641Y-87159711D01*
X203418639Y-87159715D01*
X203404852Y-87193000D01*
X203324127Y-87387889D01*
X203322972Y-87392701D01*
X203285128Y-87550334D01*
X203265317Y-87632852D01*
X203245551Y-87884000D01*
X196291499Y-87884000D01*
X196291499Y-86736624D01*
X196284851Y-86675420D01*
X196234526Y-86541176D01*
X196229146Y-86533997D01*
X196229144Y-86533994D01*
X196153928Y-86433635D01*
X196148546Y-86426454D01*
X196126121Y-86409647D01*
X196041006Y-86345856D01*
X196041003Y-86345854D01*
X196033824Y-86340474D01*
X195940492Y-86305486D01*
X195906975Y-86292921D01*
X195906973Y-86292921D01*
X195899580Y-86290149D01*
X195891730Y-86289296D01*
X195891729Y-86289296D01*
X195841774Y-86283869D01*
X195841773Y-86283869D01*
X195838377Y-86283500D01*
X194691168Y-86283500D01*
X193543624Y-86283501D01*
X193540230Y-86283870D01*
X193540224Y-86283870D01*
X193490278Y-86289295D01*
X193490274Y-86289296D01*
X193482420Y-86290149D01*
X193348176Y-86340474D01*
X193340997Y-86345854D01*
X193340994Y-86345856D01*
X193255879Y-86409647D01*
X193233454Y-86426454D01*
X193228072Y-86433635D01*
X193152856Y-86533994D01*
X193152854Y-86533997D01*
X193147474Y-86541176D01*
X193097149Y-86675420D01*
X193090500Y-86736623D01*
X193090500Y-87067000D01*
X193070498Y-87135121D01*
X193016842Y-87181614D01*
X192964500Y-87193000D01*
X190673712Y-87193000D01*
X190605591Y-87172998D01*
X190559098Y-87119342D01*
X190548994Y-87049068D01*
X190555730Y-87022771D01*
X190594079Y-86920475D01*
X190594079Y-86920473D01*
X190596851Y-86913080D01*
X190603500Y-86851877D01*
X190603500Y-86603500D01*
X190623502Y-86535379D01*
X190677158Y-86488886D01*
X190729500Y-86477500D01*
X190967297Y-86477500D01*
X190978257Y-86478017D01*
X190985667Y-86479673D01*
X190993593Y-86479424D01*
X190993594Y-86479424D01*
X191052841Y-86477562D01*
X191056799Y-86477500D01*
X191084350Y-86477500D01*
X191088273Y-86477004D01*
X191088388Y-86476997D01*
X191100068Y-86476077D01*
X191143627Y-86474709D01*
X191162716Y-86469163D01*
X191182062Y-86465156D01*
X191201792Y-86462664D01*
X191242323Y-86446616D01*
X191253524Y-86442781D01*
X191295390Y-86430618D01*
X191312499Y-86420500D01*
X191330245Y-86411805D01*
X191348732Y-86404486D01*
X191383991Y-86378869D01*
X191393910Y-86372354D01*
X191424590Y-86354210D01*
X191424594Y-86354207D01*
X191431420Y-86350170D01*
X191445470Y-86336120D01*
X191460504Y-86323279D01*
X191470173Y-86316254D01*
X191476587Y-86311594D01*
X191504370Y-86278010D01*
X191512359Y-86269231D01*
X193550361Y-84231230D01*
X193612673Y-84197204D01*
X193672067Y-84198618D01*
X193733993Y-84215211D01*
X193733995Y-84215211D01*
X193739308Y-84216635D01*
X193966000Y-84236468D01*
X194192692Y-84216635D01*
X194198005Y-84215211D01*
X194198007Y-84215211D01*
X194407186Y-84159162D01*
X194407188Y-84159161D01*
X194412496Y-84157739D01*
X194487232Y-84122889D01*
X194613753Y-84063891D01*
X194613756Y-84063889D01*
X194618734Y-84061568D01*
X194805139Y-83931047D01*
X194966047Y-83770139D01*
X194990491Y-83735229D01*
X195045947Y-83690901D01*
X195093704Y-83681500D01*
X195200536Y-83681500D01*
X195268657Y-83701502D01*
X195315150Y-83755158D01*
X195318512Y-83763255D01*
X195322474Y-83773824D01*
X195327854Y-83781003D01*
X195327856Y-83781006D01*
X195386576Y-83859355D01*
X195408454Y-83888546D01*
X195415635Y-83893928D01*
X195515994Y-83969144D01*
X195515997Y-83969146D01*
X195523176Y-83974526D01*
X195612561Y-84008034D01*
X195650025Y-84022079D01*
X195650027Y-84022079D01*
X195657420Y-84024851D01*
X195665270Y-84025704D01*
X195665271Y-84025704D01*
X195715217Y-84031130D01*
X195718623Y-84031500D01*
X196515883Y-84031500D01*
X197313376Y-84031499D01*
X197316770Y-84031130D01*
X197316776Y-84031130D01*
X197366722Y-84025705D01*
X197366726Y-84025704D01*
X197374580Y-84024851D01*
X197508824Y-83974526D01*
X197516003Y-83969146D01*
X197516006Y-83969144D01*
X197616365Y-83893928D01*
X197623546Y-83888546D01*
X197645424Y-83859355D01*
X197704144Y-83781006D01*
X197704146Y-83781003D01*
X197709526Y-83773824D01*
X197748018Y-83671145D01*
X197790659Y-83614380D01*
X197857220Y-83589680D01*
X197926569Y-83604887D01*
X197976688Y-83655173D01*
X197983982Y-83671145D01*
X198022474Y-83773824D01*
X198027854Y-83781003D01*
X198027856Y-83781006D01*
X198086576Y-83859355D01*
X198108454Y-83888546D01*
X198115635Y-83893928D01*
X198215994Y-83969144D01*
X198215997Y-83969146D01*
X198223176Y-83974526D01*
X198312561Y-84008034D01*
X198350025Y-84022079D01*
X198350027Y-84022079D01*
X198357420Y-84024851D01*
X198365270Y-84025704D01*
X198365271Y-84025704D01*
X198415217Y-84031130D01*
X198418623Y-84031500D01*
X199215883Y-84031500D01*
X200013376Y-84031499D01*
X200016770Y-84031130D01*
X200016776Y-84031130D01*
X200066722Y-84025705D01*
X200066726Y-84025704D01*
X200074580Y-84024851D01*
X200208824Y-83974526D01*
X200216003Y-83969146D01*
X200216006Y-83969144D01*
X200316365Y-83893928D01*
X200323546Y-83888546D01*
X200409526Y-83773824D01*
X200413483Y-83763268D01*
X200414850Y-83761449D01*
X200416987Y-83757545D01*
X200417551Y-83757854D01*
X200456122Y-83706506D01*
X200522684Y-83681805D01*
X200531464Y-83681499D01*
X200638296Y-83681499D01*
X200706417Y-83701501D01*
X200741509Y-83735229D01*
X200765953Y-83770139D01*
X200926861Y-83931047D01*
X201113266Y-84061568D01*
X201118244Y-84063889D01*
X201118247Y-84063891D01*
X201244768Y-84122889D01*
X201319504Y-84157739D01*
X201324812Y-84159161D01*
X201324814Y-84159162D01*
X201533993Y-84215211D01*
X201533995Y-84215211D01*
X201539308Y-84216635D01*
X201766000Y-84236468D01*
X201992692Y-84216635D01*
X201998005Y-84215211D01*
X201998007Y-84215211D01*
X202207186Y-84159162D01*
X202207188Y-84159161D01*
X202212496Y-84157739D01*
X202287232Y-84122889D01*
X202413753Y-84063891D01*
X202413756Y-84063889D01*
X202418734Y-84061568D01*
X202605139Y-83931047D01*
X202766047Y-83770139D01*
X202896568Y-83583734D01*
X202899067Y-83578376D01*
X202990416Y-83382478D01*
X202990417Y-83382476D01*
X202992739Y-83377496D01*
X203015273Y-83293400D01*
X203050211Y-83163007D01*
X203050211Y-83163005D01*
X203051635Y-83157692D01*
X203071468Y-82931000D01*
X203051635Y-82704308D01*
X202999487Y-82509689D01*
X202994162Y-82489814D01*
X202994161Y-82489812D01*
X202992739Y-82484504D01*
X202988281Y-82474944D01*
X202898891Y-82283247D01*
X202898889Y-82283244D01*
X202896568Y-82278266D01*
X202766047Y-82091861D01*
X202605139Y-81930953D01*
X202418734Y-81800432D01*
X202413756Y-81798111D01*
X202413753Y-81798109D01*
X202217478Y-81706584D01*
X202217476Y-81706583D01*
X202212496Y-81704261D01*
X202207188Y-81702839D01*
X202207186Y-81702838D01*
X201998007Y-81646789D01*
X201998005Y-81646789D01*
X201992692Y-81645365D01*
X201766000Y-81625532D01*
X201539308Y-81645365D01*
X201533995Y-81646789D01*
X201533993Y-81646789D01*
X201324814Y-81702838D01*
X201324812Y-81702839D01*
X201319504Y-81704261D01*
X201314524Y-81706583D01*
X201314522Y-81706584D01*
X201118247Y-81798109D01*
X201118244Y-81798111D01*
X201113266Y-81800432D01*
X200926861Y-81930953D01*
X200765953Y-82091861D01*
X200762800Y-82096364D01*
X200741510Y-82126770D01*
X200686053Y-82171099D01*
X200638296Y-82180500D01*
X200531464Y-82180500D01*
X200463343Y-82160498D01*
X200416850Y-82106842D01*
X200413488Y-82098745D01*
X200409526Y-82088176D01*
X200404146Y-82080997D01*
X200404144Y-82080994D01*
X200328928Y-81980635D01*
X200323546Y-81973454D01*
X200316365Y-81968072D01*
X200216006Y-81892856D01*
X200216003Y-81892854D01*
X200208824Y-81887474D01*
X200119439Y-81853966D01*
X200081975Y-81839921D01*
X200081973Y-81839921D01*
X200074580Y-81837149D01*
X200066730Y-81836296D01*
X200066729Y-81836296D01*
X200016774Y-81830869D01*
X200016773Y-81830869D01*
X200013377Y-81830500D01*
X199216117Y-81830500D01*
X198418624Y-81830501D01*
X198415230Y-81830870D01*
X198415224Y-81830870D01*
X198365278Y-81836295D01*
X198365274Y-81836296D01*
X198357420Y-81837149D01*
X198223176Y-81887474D01*
X198215997Y-81892854D01*
X198215994Y-81892856D01*
X198115635Y-81968072D01*
X198108454Y-81973454D01*
X198103072Y-81980635D01*
X198027856Y-82080994D01*
X198027854Y-82080997D01*
X198022474Y-82088176D01*
X198019324Y-82096579D01*
X197983982Y-82190855D01*
X197941341Y-82247620D01*
X197874780Y-82272320D01*
X197805431Y-82257113D01*
X197755312Y-82206827D01*
X197748018Y-82190855D01*
X197712676Y-82096579D01*
X197709526Y-82088176D01*
X197704146Y-82080997D01*
X197704144Y-82080994D01*
X197628928Y-81980635D01*
X197623546Y-81973454D01*
X197616365Y-81968072D01*
X197516006Y-81892856D01*
X197516003Y-81892854D01*
X197508824Y-81887474D01*
X197419439Y-81853966D01*
X197381975Y-81839921D01*
X197381973Y-81839921D01*
X197374580Y-81837149D01*
X197366730Y-81836296D01*
X197366729Y-81836296D01*
X197316774Y-81830869D01*
X197316773Y-81830869D01*
X197313377Y-81830500D01*
X196516117Y-81830500D01*
X195718624Y-81830501D01*
X195715230Y-81830870D01*
X195715224Y-81830870D01*
X195665278Y-81836295D01*
X195665274Y-81836296D01*
X195657420Y-81837149D01*
X195523176Y-81887474D01*
X195515997Y-81892854D01*
X195515994Y-81892856D01*
X195415635Y-81968072D01*
X195408454Y-81973454D01*
X195403072Y-81980635D01*
X195334585Y-82072017D01*
X195322474Y-82088176D01*
X195318517Y-82098732D01*
X195317150Y-82100551D01*
X195315013Y-82104455D01*
X195314449Y-82104146D01*
X195275878Y-82155494D01*
X195209316Y-82180195D01*
X195200536Y-82180501D01*
X195093704Y-82180501D01*
X195025583Y-82160499D01*
X194990491Y-82126771D01*
X194974649Y-82104146D01*
X194966047Y-82091861D01*
X194805139Y-81930953D01*
X194618734Y-81800432D01*
X194613756Y-81798111D01*
X194613753Y-81798109D01*
X194417478Y-81706584D01*
X194417476Y-81706583D01*
X194412496Y-81704261D01*
X194407188Y-81702839D01*
X194407186Y-81702838D01*
X194198007Y-81646789D01*
X194198005Y-81646789D01*
X194192692Y-81645365D01*
X193966000Y-81625532D01*
X193739308Y-81645365D01*
X193733995Y-81646789D01*
X193733993Y-81646789D01*
X193524814Y-81702838D01*
X193524812Y-81702839D01*
X193519504Y-81704261D01*
X193514524Y-81706583D01*
X193514522Y-81706584D01*
X193318247Y-81798109D01*
X193318244Y-81798111D01*
X193313266Y-81800432D01*
X193126861Y-81930953D01*
X192965953Y-82091861D01*
X192835432Y-82278266D01*
X192833111Y-82283244D01*
X192833109Y-82283247D01*
X192743719Y-82474944D01*
X192739261Y-82484504D01*
X192737839Y-82489812D01*
X192737838Y-82489814D01*
X192732513Y-82509689D01*
X192680365Y-82704308D01*
X192660532Y-82931000D01*
X192680365Y-83157692D01*
X192681789Y-83163007D01*
X192681790Y-83163010D01*
X192698382Y-83224935D01*
X192696692Y-83295911D01*
X192665770Y-83346640D01*
X191732418Y-84279991D01*
X190822814Y-85189595D01*
X190760502Y-85223621D01*
X190733719Y-85226500D01*
X190729499Y-85226500D01*
X190661378Y-85206498D01*
X190614885Y-85152842D01*
X190603499Y-85100500D01*
X190603499Y-84852124D01*
X190600680Y-84826170D01*
X190597705Y-84798778D01*
X190597704Y-84798774D01*
X190596851Y-84790920D01*
X190546526Y-84656676D01*
X190541146Y-84649497D01*
X190541144Y-84649494D01*
X190465928Y-84549135D01*
X190460546Y-84541954D01*
X190453365Y-84536572D01*
X190353006Y-84461356D01*
X190353003Y-84461354D01*
X190345824Y-84455974D01*
X190316738Y-84445070D01*
X190259975Y-84402431D01*
X190235274Y-84335870D01*
X190250481Y-84266521D01*
X190262086Y-84248997D01*
X190361681Y-84122889D01*
X190361683Y-84122885D01*
X190364883Y-84118834D01*
X190480353Y-83909660D01*
X190531430Y-83765422D01*
X190558384Y-83689307D01*
X190558385Y-83689304D01*
X190560109Y-83684435D01*
X190563465Y-83665595D01*
X190601103Y-83454297D01*
X190601104Y-83454291D01*
X190602009Y-83449208D01*
X190604928Y-83210296D01*
X190568788Y-82974116D01*
X190532886Y-82864274D01*
X190530735Y-82793310D01*
X190563556Y-82736034D01*
X193152272Y-80147318D01*
X207269500Y-80147318D01*
X207277294Y-80209012D01*
X207304205Y-80422035D01*
X207308934Y-80459473D01*
X207320483Y-80504452D01*
X207386194Y-80760383D01*
X207386197Y-80760391D01*
X207387181Y-80764225D01*
X207503006Y-81056766D01*
X207504907Y-81060225D01*
X207504909Y-81060228D01*
X207532366Y-81110171D01*
X207654584Y-81332484D01*
X207656912Y-81335688D01*
X207656915Y-81335693D01*
X207711336Y-81410597D01*
X207839522Y-81587030D01*
X208054906Y-81816390D01*
X208057957Y-81818914D01*
X208057958Y-81818915D01*
X208147337Y-81892856D01*
X208297337Y-82016947D01*
X208515653Y-82155494D01*
X208555058Y-82180501D01*
X208562993Y-82185537D01*
X208566572Y-82187221D01*
X208566579Y-82187225D01*
X208844095Y-82317814D01*
X208844099Y-82317816D01*
X208847685Y-82319503D01*
X209146921Y-82416731D01*
X209455985Y-82475688D01*
X209549489Y-82481571D01*
X209689422Y-82490375D01*
X209689438Y-82490376D01*
X209691417Y-82490500D01*
X209848583Y-82490500D01*
X209850562Y-82490376D01*
X209850578Y-82490375D01*
X209990511Y-82481571D01*
X210084015Y-82475688D01*
X210393079Y-82416731D01*
X210692315Y-82319503D01*
X210695901Y-82317816D01*
X210695905Y-82317814D01*
X210973421Y-82187225D01*
X210973428Y-82187221D01*
X210977007Y-82185537D01*
X210984943Y-82180501D01*
X211024347Y-82155494D01*
X211242663Y-82016947D01*
X211392663Y-81892856D01*
X211482042Y-81818915D01*
X211482043Y-81818914D01*
X211485094Y-81816390D01*
X211700478Y-81587030D01*
X211828664Y-81410597D01*
X211883085Y-81335693D01*
X211883088Y-81335688D01*
X211885416Y-81332484D01*
X212007634Y-81110171D01*
X212035091Y-81060228D01*
X212035093Y-81060225D01*
X212036994Y-81056766D01*
X212152819Y-80764225D01*
X212153803Y-80760391D01*
X212153806Y-80760383D01*
X212219517Y-80504452D01*
X212231066Y-80459473D01*
X212235796Y-80422035D01*
X212262706Y-80209012D01*
X212270500Y-80147318D01*
X212270500Y-79832682D01*
X212231066Y-79520527D01*
X212199815Y-79398813D01*
X212153806Y-79219617D01*
X212153803Y-79219609D01*
X212152819Y-79215775D01*
X212122659Y-79139598D01*
X212038448Y-78926907D01*
X212036994Y-78923234D01*
X211885416Y-78647516D01*
X211852995Y-78602891D01*
X211702806Y-78396174D01*
X211702805Y-78396172D01*
X211700478Y-78392970D01*
X211485094Y-78163610D01*
X211242663Y-77963053D01*
X210977007Y-77794463D01*
X210973428Y-77792779D01*
X210973421Y-77792775D01*
X210695905Y-77662186D01*
X210695901Y-77662184D01*
X210692315Y-77660497D01*
X210393079Y-77563269D01*
X210084015Y-77504312D01*
X209985293Y-77498101D01*
X209850578Y-77489625D01*
X209850562Y-77489624D01*
X209848583Y-77489500D01*
X209691417Y-77489500D01*
X209689438Y-77489624D01*
X209689422Y-77489625D01*
X209554707Y-77498101D01*
X209455985Y-77504312D01*
X209146921Y-77563269D01*
X208847685Y-77660497D01*
X208844099Y-77662184D01*
X208844095Y-77662186D01*
X208566579Y-77792775D01*
X208566572Y-77792779D01*
X208562993Y-77794463D01*
X208297337Y-77963053D01*
X208054906Y-78163610D01*
X207839522Y-78392970D01*
X207837195Y-78396172D01*
X207837194Y-78396174D01*
X207687006Y-78602891D01*
X207654584Y-78647516D01*
X207503006Y-78923234D01*
X207501552Y-78926907D01*
X207417342Y-79139598D01*
X207387181Y-79215775D01*
X207386197Y-79219609D01*
X207386194Y-79219617D01*
X207340185Y-79398813D01*
X207308934Y-79520527D01*
X207269500Y-79832682D01*
X207269500Y-80147318D01*
X193152272Y-80147318D01*
X193863636Y-79435954D01*
X193925948Y-79401928D01*
X193996959Y-79407067D01*
X194046931Y-79425800D01*
X194101025Y-79446079D01*
X194101027Y-79446079D01*
X194108420Y-79448851D01*
X194116270Y-79449704D01*
X194116271Y-79449704D01*
X194166217Y-79455130D01*
X194169623Y-79455500D01*
X195066868Y-79455500D01*
X195964376Y-79455499D01*
X195967770Y-79455130D01*
X195967776Y-79455130D01*
X196017722Y-79449705D01*
X196017726Y-79449704D01*
X196025580Y-79448851D01*
X196159824Y-79398526D01*
X196167003Y-79393146D01*
X196167006Y-79393144D01*
X196267365Y-79317928D01*
X196274546Y-79312546D01*
X196297918Y-79281361D01*
X196355144Y-79205006D01*
X196355146Y-79205003D01*
X196360526Y-79197824D01*
X196379709Y-79146654D01*
X196408912Y-79068752D01*
X196451553Y-79011987D01*
X196518114Y-78987286D01*
X196587463Y-79002493D01*
X196615989Y-79023885D01*
X196735599Y-79143495D01*
X196740107Y-79146652D01*
X196740110Y-79146654D01*
X196924661Y-79275878D01*
X196929170Y-79279035D01*
X196934152Y-79281358D01*
X196934157Y-79281361D01*
X197138355Y-79376580D01*
X197143337Y-79378903D01*
X197148645Y-79380325D01*
X197148647Y-79380326D01*
X197366277Y-79438639D01*
X197371592Y-79440063D01*
X197607000Y-79460659D01*
X197842408Y-79440063D01*
X197847723Y-79438639D01*
X198065353Y-79380326D01*
X198065355Y-79380325D01*
X198070663Y-79378903D01*
X198075645Y-79376580D01*
X198279843Y-79281361D01*
X198279848Y-79281358D01*
X198284830Y-79279035D01*
X198289339Y-79275878D01*
X198473890Y-79146654D01*
X198473893Y-79146652D01*
X198478401Y-79143495D01*
X198645495Y-78976401D01*
X198781035Y-78782829D01*
X198842514Y-78650989D01*
X198878580Y-78573645D01*
X198878581Y-78573643D01*
X198880903Y-78568663D01*
X198889615Y-78536151D01*
X198940639Y-78345723D01*
X198940639Y-78345722D01*
X198942063Y-78340408D01*
X198962659Y-78105000D01*
X198942063Y-77869592D01*
X198922502Y-77796587D01*
X198882326Y-77646647D01*
X198882325Y-77646645D01*
X198880903Y-77641337D01*
X198816891Y-77504063D01*
X198783358Y-77432152D01*
X198783356Y-77432149D01*
X198781035Y-77427171D01*
X198645495Y-77233599D01*
X198478401Y-77066505D01*
X198473893Y-77063348D01*
X198473890Y-77063346D01*
X198289339Y-76934122D01*
X198289336Y-76934120D01*
X198284830Y-76930965D01*
X198279848Y-76928642D01*
X198279843Y-76928639D01*
X198075645Y-76833420D01*
X198075644Y-76833419D01*
X198070663Y-76831097D01*
X198065355Y-76829675D01*
X198065353Y-76829674D01*
X197847723Y-76771361D01*
X197847722Y-76771361D01*
X197842408Y-76769937D01*
X197607000Y-76749341D01*
X197371592Y-76769937D01*
X197366278Y-76771361D01*
X197366277Y-76771361D01*
X197148647Y-76829674D01*
X197148645Y-76829675D01*
X197143337Y-76831097D01*
X197138357Y-76833419D01*
X197138355Y-76833420D01*
X196934152Y-76928642D01*
X196934149Y-76928644D01*
X196929171Y-76930965D01*
X196735599Y-77066505D01*
X196615989Y-77186115D01*
X196553677Y-77220141D01*
X196482862Y-77215076D01*
X196426026Y-77172529D01*
X196408912Y-77141248D01*
X196363677Y-77020581D01*
X196363676Y-77020580D01*
X196360526Y-77012176D01*
X196355146Y-77004997D01*
X196355144Y-77004994D01*
X196279928Y-76904635D01*
X196274546Y-76897454D01*
X196267365Y-76892072D01*
X196167006Y-76816856D01*
X196167003Y-76816854D01*
X196159824Y-76811474D01*
X196052821Y-76771361D01*
X196032975Y-76763921D01*
X196032973Y-76763921D01*
X196025580Y-76761149D01*
X196017730Y-76760296D01*
X196017729Y-76760296D01*
X195967774Y-76754869D01*
X195967773Y-76754869D01*
X195964377Y-76754500D01*
X195067132Y-76754500D01*
X194169624Y-76754501D01*
X194166230Y-76754870D01*
X194166224Y-76754870D01*
X194116278Y-76760295D01*
X194116274Y-76760296D01*
X194108420Y-76761149D01*
X193974176Y-76811474D01*
X193966997Y-76816854D01*
X193966994Y-76816856D01*
X193866635Y-76892072D01*
X193859454Y-76897454D01*
X193854072Y-76904635D01*
X193778856Y-77004994D01*
X193778854Y-77004997D01*
X193773474Y-77012176D01*
X193723149Y-77146420D01*
X193722296Y-77154270D01*
X193722296Y-77154271D01*
X193719865Y-77176645D01*
X193716500Y-77207623D01*
X193716500Y-77761720D01*
X193696498Y-77829841D01*
X193679595Y-77850815D01*
X190821372Y-80709038D01*
X190759060Y-80743064D01*
X190688245Y-80737999D01*
X190631409Y-80695452D01*
X190607727Y-80639002D01*
X190576890Y-80437485D01*
X190574501Y-80427457D01*
X190503102Y-80209012D01*
X190499105Y-80199503D01*
X190392989Y-79995656D01*
X190387495Y-79986931D01*
X190249507Y-79803148D01*
X190242664Y-79795441D01*
X190076509Y-79636661D01*
X190068499Y-79630174D01*
X189878653Y-79500670D01*
X189869679Y-79495571D01*
X189661231Y-79398813D01*
X189651544Y-79395250D01*
X189430092Y-79333835D01*
X189419970Y-79331904D01*
X189375013Y-79327099D01*
X189360392Y-79329747D01*
X189357000Y-79342124D01*
X189357000Y-80900000D01*
X189336998Y-80968121D01*
X189283342Y-81014614D01*
X189231000Y-81026000D01*
X187634904Y-81026000D01*
X187621560Y-81029918D01*
X187619573Y-81044194D01*
X187629110Y-81106515D01*
X187631499Y-81116543D01*
X187702898Y-81334988D01*
X187706895Y-81344497D01*
X187813011Y-81548344D01*
X187818505Y-81557069D01*
X187956493Y-81740852D01*
X187963336Y-81748559D01*
X188129491Y-81907339D01*
X188137501Y-81913826D01*
X188177526Y-81941129D01*
X188222529Y-81996040D01*
X188230700Y-82066565D01*
X188199446Y-82130312D01*
X188174963Y-82151008D01*
X188170269Y-82154045D01*
X188165921Y-82156858D01*
X188162096Y-82160338D01*
X188162094Y-82160340D01*
X188110359Y-82207415D01*
X187989201Y-82317660D01*
X187986002Y-82321711D01*
X187985998Y-82321715D01*
X187844319Y-82501111D01*
X187841117Y-82505166D01*
X187725647Y-82714340D01*
X187645891Y-82939565D01*
X187644984Y-82944654D01*
X187644984Y-82944656D01*
X187606090Y-83163010D01*
X187603991Y-83174792D01*
X187603928Y-83179956D01*
X187601454Y-83382478D01*
X187601072Y-83413704D01*
X187637212Y-83649884D01*
X187711442Y-83876990D01*
X187713830Y-83881578D01*
X187713832Y-83881582D01*
X187807527Y-84061568D01*
X187821767Y-84088923D01*
X187824870Y-84093056D01*
X187824872Y-84093059D01*
X187944226Y-84252023D01*
X187969132Y-84318508D01*
X187954140Y-84387903D01*
X187904009Y-84438177D01*
X187887704Y-84445654D01*
X187860176Y-84455974D01*
X187852997Y-84461354D01*
X187852994Y-84461356D01*
X187752635Y-84536572D01*
X187745454Y-84541954D01*
X187740072Y-84549135D01*
X187664856Y-84649494D01*
X187664854Y-84649497D01*
X187659474Y-84656676D01*
X187656324Y-84665080D01*
X187612686Y-84781486D01*
X187609149Y-84790920D01*
X187602500Y-84852123D01*
X187602501Y-86851876D01*
X187602870Y-86855270D01*
X187602870Y-86855276D01*
X187603658Y-86862525D01*
X187609149Y-86913080D01*
X187650270Y-87022771D01*
X187655453Y-87093578D01*
X187621532Y-87155947D01*
X187559276Y-87190076D01*
X187532288Y-87193000D01*
X175852412Y-87193000D01*
X175784291Y-87172998D01*
X175763317Y-87156095D01*
X169107385Y-80500163D01*
X187620353Y-80500163D01*
X187621813Y-80513460D01*
X187636370Y-80518000D01*
X188830885Y-80518000D01*
X188846124Y-80513525D01*
X188847329Y-80512135D01*
X188849000Y-80504452D01*
X188849000Y-79341588D01*
X188844675Y-79326859D01*
X188832889Y-79324798D01*
X188821296Y-79325751D01*
X188811134Y-79327433D01*
X188588229Y-79383422D01*
X188578481Y-79386741D01*
X188367711Y-79478385D01*
X188358636Y-79483251D01*
X188165673Y-79608085D01*
X188157502Y-79614378D01*
X187987520Y-79769050D01*
X187980494Y-79776583D01*
X187838055Y-79956944D01*
X187832350Y-79965531D01*
X187721286Y-80166722D01*
X187717056Y-80176134D01*
X187640341Y-80392768D01*
X187637707Y-80402739D01*
X187620353Y-80500163D01*
X169107385Y-80500163D01*
X161076222Y-72469000D01*
X196595052Y-72469000D01*
X196614812Y-72720069D01*
X196615966Y-72724876D01*
X196615967Y-72724882D01*
X196625413Y-72764225D01*
X196673604Y-72964956D01*
X196675497Y-72969527D01*
X196675498Y-72969529D01*
X196743377Y-73133402D01*
X196769981Y-73197631D01*
X196901570Y-73412365D01*
X197065130Y-73603870D01*
X197256635Y-73767430D01*
X197471369Y-73899019D01*
X197475939Y-73900912D01*
X197475943Y-73900914D01*
X197565651Y-73938072D01*
X197704044Y-73995396D01*
X197783293Y-74014422D01*
X197944118Y-74053033D01*
X197944124Y-74053034D01*
X197948931Y-74054188D01*
X198200000Y-74073948D01*
X198451069Y-74054188D01*
X198455876Y-74053034D01*
X198455882Y-74053033D01*
X198616707Y-74014422D01*
X198695956Y-73995396D01*
X198834349Y-73938072D01*
X198924057Y-73900914D01*
X198924061Y-73900912D01*
X198928631Y-73899019D01*
X199143365Y-73767430D01*
X199334870Y-73603870D01*
X199498430Y-73412365D01*
X199630019Y-73197631D01*
X199656624Y-73133402D01*
X199724502Y-72969529D01*
X199724503Y-72969527D01*
X199726396Y-72964956D01*
X199774587Y-72764225D01*
X199784033Y-72724882D01*
X199784034Y-72724876D01*
X199785188Y-72720069D01*
X199804948Y-72469000D01*
X199785188Y-72217931D01*
X199768236Y-72147318D01*
X199727551Y-71977856D01*
X199726396Y-71973044D01*
X199683185Y-71868723D01*
X199631914Y-71744943D01*
X199631912Y-71744939D01*
X199630019Y-71740369D01*
X199498430Y-71525635D01*
X199334870Y-71334130D01*
X199143365Y-71170570D01*
X198928631Y-71038981D01*
X198924061Y-71037088D01*
X198924057Y-71037086D01*
X198700529Y-70944498D01*
X198700527Y-70944497D01*
X198695956Y-70942604D01*
X198600854Y-70919772D01*
X198455882Y-70884967D01*
X198455876Y-70884966D01*
X198451069Y-70883812D01*
X198200000Y-70864052D01*
X197948931Y-70883812D01*
X197944124Y-70884966D01*
X197944118Y-70884967D01*
X197799146Y-70919772D01*
X197704044Y-70942604D01*
X197699473Y-70944497D01*
X197699471Y-70944498D01*
X197475943Y-71037086D01*
X197475939Y-71037088D01*
X197471369Y-71038981D01*
X197256635Y-71170570D01*
X197065130Y-71334130D01*
X196901570Y-71525635D01*
X196769981Y-71740369D01*
X196768088Y-71744939D01*
X196768086Y-71744943D01*
X196716815Y-71868723D01*
X196673604Y-71973044D01*
X196672449Y-71977856D01*
X196631765Y-72147318D01*
X196614812Y-72217931D01*
X196595052Y-72469000D01*
X161076222Y-72469000D01*
X155076222Y-66469000D01*
X206595052Y-66469000D01*
X206614812Y-66720069D01*
X206615966Y-66724876D01*
X206615967Y-66724882D01*
X206629175Y-66779896D01*
X206673604Y-66964956D01*
X206675497Y-66969527D01*
X206675498Y-66969529D01*
X206762924Y-67180593D01*
X206769981Y-67197631D01*
X206901570Y-67412365D01*
X207065130Y-67603870D01*
X207256635Y-67767430D01*
X207471369Y-67899019D01*
X207475939Y-67900912D01*
X207475943Y-67900914D01*
X207699471Y-67993502D01*
X207704044Y-67995396D01*
X207788907Y-68015770D01*
X207944118Y-68053033D01*
X207944124Y-68053034D01*
X207948931Y-68054188D01*
X208200000Y-68073948D01*
X208451069Y-68054188D01*
X208455876Y-68053034D01*
X208455882Y-68053033D01*
X208611093Y-68015770D01*
X208695956Y-67995396D01*
X208700529Y-67993502D01*
X208924057Y-67900914D01*
X208924061Y-67900912D01*
X208928631Y-67899019D01*
X209143365Y-67767430D01*
X209334870Y-67603870D01*
X209498430Y-67412365D01*
X209630019Y-67197631D01*
X209637077Y-67180593D01*
X209724502Y-66969529D01*
X209724503Y-66969527D01*
X209726396Y-66964956D01*
X209770825Y-66779896D01*
X209784033Y-66724882D01*
X209784034Y-66724876D01*
X209785188Y-66720069D01*
X209804948Y-66469000D01*
X209785188Y-66217931D01*
X209726396Y-65973044D01*
X209630019Y-65740369D01*
X209498430Y-65525635D01*
X209334870Y-65334130D01*
X209143365Y-65170570D01*
X208928631Y-65038981D01*
X208924061Y-65037088D01*
X208924057Y-65037086D01*
X208700529Y-64944498D01*
X208700527Y-64944497D01*
X208695956Y-64942604D01*
X208611093Y-64922230D01*
X208455882Y-64884967D01*
X208455876Y-64884966D01*
X208451069Y-64883812D01*
X208200000Y-64864052D01*
X207948931Y-64883812D01*
X207944124Y-64884966D01*
X207944118Y-64884967D01*
X207788907Y-64922230D01*
X207704044Y-64942604D01*
X207699473Y-64944497D01*
X207699471Y-64944498D01*
X207475943Y-65037086D01*
X207475939Y-65037088D01*
X207471369Y-65038981D01*
X207256635Y-65170570D01*
X207065130Y-65334130D01*
X206901570Y-65525635D01*
X206769981Y-65740369D01*
X206673604Y-65973044D01*
X206614812Y-66217931D01*
X206595052Y-66469000D01*
X155076222Y-66469000D01*
X136906631Y-48299409D01*
X136900777Y-48293143D01*
X136868761Y-48256442D01*
X136863765Y-48250715D01*
X136812839Y-48214924D01*
X136807555Y-48210999D01*
X136764561Y-48177288D01*
X136758586Y-48172603D01*
X136751669Y-48169480D01*
X136747954Y-48167230D01*
X136736991Y-48160977D01*
X136733146Y-48158915D01*
X136726931Y-48154547D01*
X136719857Y-48151789D01*
X136719848Y-48151784D01*
X136668947Y-48131938D01*
X136662868Y-48129383D01*
X136613081Y-48106904D01*
X136613080Y-48106904D01*
X136606155Y-48103777D01*
X136598686Y-48102393D01*
X136594532Y-48101091D01*
X136582392Y-48097633D01*
X136578186Y-48096553D01*
X136571107Y-48093793D01*
X136509403Y-48085670D01*
X136502905Y-48084640D01*
X136441707Y-48073298D01*
X136434128Y-48073735D01*
X136434126Y-48073735D01*
X136381137Y-48076791D01*
X136373883Y-48077000D01*
X97570405Y-48077000D01*
X97502284Y-48056998D01*
X97467192Y-48023271D01*
X97381654Y-47901110D01*
X97381652Y-47901107D01*
X97378495Y-47896599D01*
X97211401Y-47729505D01*
X97206887Y-47726344D01*
X97196702Y-47719212D01*
X97152374Y-47663754D01*
X97145066Y-47593135D01*
X97177098Y-47529775D01*
X97238300Y-47493791D01*
X97268974Y-47490000D01*
X211721297Y-47490000D01*
X211740681Y-47491500D01*
X211754956Y-47493723D01*
X211754959Y-47493723D01*
X211763829Y-47495104D01*
X211780539Y-47492919D01*
X211804479Y-47492086D01*
X212063735Y-47507768D01*
X212078839Y-47509602D01*
X212360791Y-47561272D01*
X212375564Y-47564913D01*
X212649243Y-47650195D01*
X212663447Y-47655581D01*
X212924879Y-47773241D01*
X212938321Y-47780297D01*
X213130707Y-47896599D01*
X213183638Y-47928597D01*
X213196159Y-47937239D01*
X213382951Y-48083581D01*
X213421812Y-48114027D01*
X213433200Y-48124117D01*
X213635883Y-48326800D01*
X213645973Y-48338188D01*
X213822760Y-48563840D01*
X213831402Y-48576361D01*
X213979703Y-48821679D01*
X213986759Y-48835121D01*
X214104419Y-49096553D01*
X214109807Y-49110762D01*
X214195087Y-49384436D01*
X214198728Y-49399209D01*
X214250398Y-49681161D01*
X214252232Y-49696265D01*
X214267482Y-49948381D01*
X214266293Y-49973657D01*
X214266277Y-49974958D01*
X214264896Y-49983829D01*
X214266060Y-49992731D01*
X214266060Y-49992734D01*
X214268936Y-50014725D01*
X214270000Y-50031062D01*
X214270000Y-93941297D01*
X214268500Y-93960681D01*
X214266723Y-93972096D01*
X214264896Y-93983829D01*
X214266510Y-93996171D01*
X214267081Y-94000537D01*
X214267914Y-94024479D01*
X214252232Y-94283735D01*
X214250398Y-94298839D01*
X214198728Y-94580791D01*
X214195087Y-94595564D01*
X214112679Y-94860022D01*
X214109807Y-94869238D01*
X214104419Y-94883447D01*
X213986759Y-95144879D01*
X213979703Y-95158321D01*
X213926806Y-95245823D01*
X213831403Y-95403638D01*
X213822760Y-95416160D01*
X213645973Y-95641812D01*
X213635883Y-95653200D01*
X213433200Y-95855883D01*
X213421812Y-95865973D01*
X213196160Y-96042760D01*
X213183639Y-96051402D01*
X212938321Y-96199703D01*
X212924879Y-96206759D01*
X212663447Y-96324419D01*
X212649243Y-96329805D01*
X212388506Y-96411054D01*
X212375564Y-96415087D01*
X212360791Y-96418728D01*
X212078839Y-96470398D01*
X212063735Y-96472232D01*
X211811619Y-96487482D01*
X211786343Y-96486293D01*
X211785042Y-96486277D01*
X211776171Y-96484896D01*
X211767269Y-96486060D01*
X211767266Y-96486060D01*
X211745275Y-96488936D01*
X211728938Y-96490000D01*
X101144533Y-96490000D01*
X101123629Y-96488254D01*
X101109138Y-96485816D01*
X101109137Y-96485816D01*
X101104341Y-96485009D01*
X101091999Y-96484858D01*
X101087176Y-96485549D01*
X101087172Y-96485549D01*
X101076763Y-96487040D01*
X101068786Y-96487925D01*
X101059689Y-96488641D01*
X100893969Y-96501684D01*
X100889162Y-96502838D01*
X100889156Y-96502839D01*
X100767996Y-96531927D01*
X100700815Y-96548056D01*
X100696248Y-96549948D01*
X100696241Y-96549950D01*
X100521864Y-96622179D01*
X100521862Y-96622180D01*
X100517292Y-96624073D01*
X100347922Y-96727864D01*
X100196872Y-96856872D01*
X100067864Y-97007922D01*
X99964073Y-97177292D01*
X99962180Y-97181862D01*
X99962179Y-97181864D01*
X99889950Y-97356241D01*
X99889948Y-97356248D01*
X99888056Y-97360815D01*
X99886901Y-97365627D01*
X99845029Y-97540038D01*
X99841684Y-97553969D01*
X99841296Y-97558903D01*
X99829316Y-97711113D01*
X99827958Y-97722129D01*
X99825009Y-97739657D01*
X99824858Y-97751999D01*
X99828727Y-97779015D01*
X99830000Y-97796877D01*
X99830000Y-97995296D01*
X99828500Y-98014680D01*
X99824896Y-98037828D01*
X99826060Y-98046728D01*
X99825950Y-98055705D01*
X99825083Y-98055694D01*
X99824797Y-98076848D01*
X99820299Y-98105250D01*
X99808116Y-98142745D01*
X99789021Y-98180220D01*
X99765850Y-98212111D01*
X99736111Y-98241850D01*
X99704220Y-98265021D01*
X99666745Y-98284116D01*
X99629253Y-98296299D01*
X99601457Y-98300701D01*
X99581990Y-98302114D01*
X99574170Y-98300896D01*
X99543274Y-98304936D01*
X99526937Y-98306000D01*
X97268974Y-98306000D01*
X97200853Y-98285998D01*
X97154360Y-98232342D01*
X97144256Y-98162068D01*
X97173750Y-98097488D01*
X97196702Y-98076788D01*
X97206887Y-98069656D01*
X97206889Y-98069654D01*
X97211401Y-98066495D01*
X97378495Y-97899401D01*
X97514035Y-97705829D01*
X97530259Y-97671038D01*
X97611580Y-97496645D01*
X97611581Y-97496643D01*
X97613903Y-97491663D01*
X97675063Y-97263408D01*
X97695659Y-97028000D01*
X97675063Y-96792592D01*
X97658582Y-96731082D01*
X97615326Y-96569647D01*
X97615325Y-96569645D01*
X97613903Y-96564337D01*
X97606311Y-96548056D01*
X97516358Y-96355152D01*
X97516356Y-96355149D01*
X97514035Y-96350171D01*
X97378495Y-96156599D01*
X97211401Y-95989505D01*
X97206893Y-95986348D01*
X97206890Y-95986346D01*
X97031690Y-95863670D01*
X97028181Y-95861213D01*
X96983853Y-95805756D01*
X96976544Y-95735137D01*
X97008575Y-95671776D01*
X97028181Y-95654787D01*
X97030448Y-95653200D01*
X97109467Y-95597870D01*
X97206890Y-95529654D01*
X97206893Y-95529652D01*
X97211401Y-95526495D01*
X97378495Y-95359401D01*
X97514035Y-95165829D01*
X97523815Y-95144857D01*
X97611580Y-94956645D01*
X97611581Y-94956643D01*
X97613903Y-94951663D01*
X97632177Y-94883465D01*
X97673639Y-94728723D01*
X97673639Y-94728722D01*
X97675063Y-94723408D01*
X97695659Y-94488000D01*
X97675063Y-94252592D01*
X97638458Y-94115978D01*
X97615326Y-94029647D01*
X97615325Y-94029645D01*
X97613903Y-94024337D01*
X97608515Y-94012783D01*
X97516358Y-93815152D01*
X97516356Y-93815149D01*
X97514035Y-93810171D01*
X97378495Y-93616599D01*
X97211401Y-93449505D01*
X97206893Y-93446348D01*
X97206890Y-93446346D01*
X97044362Y-93332543D01*
X97028181Y-93321213D01*
X96983853Y-93265756D01*
X96976544Y-93195137D01*
X97008575Y-93131776D01*
X97028181Y-93114787D01*
X97206890Y-92989654D01*
X97206893Y-92989652D01*
X97211401Y-92986495D01*
X97378495Y-92819401D01*
X97514035Y-92625829D01*
X97537678Y-92575128D01*
X97611580Y-92416645D01*
X97611581Y-92416643D01*
X97613903Y-92411663D01*
X97675063Y-92183408D01*
X97695659Y-91948000D01*
X97675063Y-91712592D01*
X97613903Y-91484337D01*
X97514035Y-91270171D01*
X97378495Y-91076599D01*
X97211401Y-90909505D01*
X97206893Y-90906348D01*
X97206890Y-90906346D01*
X97079408Y-90817082D01*
X97028181Y-90781213D01*
X96983853Y-90725756D01*
X96976544Y-90655137D01*
X97008575Y-90591776D01*
X97028181Y-90574787D01*
X97206890Y-90449654D01*
X97206893Y-90449652D01*
X97211401Y-90446495D01*
X97378495Y-90279401D01*
X97514035Y-90085829D01*
X97613903Y-89871663D01*
X97675063Y-89643408D01*
X97695659Y-89408000D01*
X97675063Y-89172592D01*
X97653624Y-89092580D01*
X97615326Y-88949647D01*
X97615325Y-88949645D01*
X97613903Y-88944337D01*
X97611580Y-88939355D01*
X97516358Y-88735152D01*
X97516356Y-88735149D01*
X97514035Y-88730171D01*
X97378495Y-88536599D01*
X97211401Y-88369505D01*
X97206893Y-88366348D01*
X97206890Y-88366346D01*
X97079408Y-88277082D01*
X97028181Y-88241213D01*
X96983853Y-88185756D01*
X96976544Y-88115137D01*
X97008575Y-88051776D01*
X97028181Y-88034787D01*
X97206890Y-87909654D01*
X97206893Y-87909652D01*
X97211401Y-87906495D01*
X97378495Y-87739401D01*
X97514035Y-87545829D01*
X97613903Y-87331663D01*
X97660986Y-87155947D01*
X97673639Y-87108723D01*
X97673639Y-87108722D01*
X97675063Y-87103408D01*
X97695659Y-86868000D01*
X97675063Y-86632592D01*
X97662355Y-86585164D01*
X97615326Y-86409647D01*
X97615325Y-86409645D01*
X97613903Y-86404337D01*
X97592772Y-86359021D01*
X97516358Y-86195152D01*
X97516356Y-86195149D01*
X97514035Y-86190171D01*
X97378495Y-85996599D01*
X97211401Y-85829505D01*
X97206893Y-85826348D01*
X97206890Y-85826346D01*
X97056821Y-85721267D01*
X97028181Y-85701213D01*
X96983853Y-85645756D01*
X96976544Y-85575137D01*
X97008575Y-85511776D01*
X97028181Y-85494787D01*
X97206890Y-85369654D01*
X97206893Y-85369652D01*
X97211401Y-85366495D01*
X97378495Y-85199401D01*
X97513054Y-85007230D01*
X97568511Y-84962901D01*
X97616267Y-84953500D01*
X99000558Y-84953500D01*
X99011518Y-84954017D01*
X99018928Y-84955673D01*
X99026854Y-84955424D01*
X99026855Y-84955424D01*
X99086102Y-84953562D01*
X99090060Y-84953500D01*
X99117611Y-84953500D01*
X99121534Y-84953004D01*
X99121649Y-84952997D01*
X99133329Y-84952077D01*
X99176888Y-84950709D01*
X99195977Y-84945163D01*
X99215323Y-84941156D01*
X99235053Y-84938664D01*
X99275584Y-84922616D01*
X99286785Y-84918781D01*
X99328651Y-84906618D01*
X99345760Y-84896500D01*
X99363506Y-84887805D01*
X99381993Y-84880486D01*
X99417252Y-84854869D01*
X99427171Y-84848354D01*
X99457851Y-84830210D01*
X99457855Y-84830207D01*
X99464681Y-84826170D01*
X99478731Y-84812120D01*
X99493765Y-84799279D01*
X99503434Y-84792254D01*
X99509848Y-84787594D01*
X99537631Y-84754010D01*
X99545620Y-84745231D01*
X101949469Y-82341382D01*
X102011781Y-82307356D01*
X102025397Y-82305167D01*
X102031441Y-82304532D01*
X102038044Y-82304532D01*
X102044498Y-82303160D01*
X102044500Y-82303160D01*
X102100309Y-82291297D01*
X102223201Y-82265176D01*
X102396128Y-82188183D01*
X102402694Y-82183413D01*
X102543930Y-82080799D01*
X102549269Y-82076920D01*
X102642431Y-81973454D01*
X102671512Y-81941156D01*
X102671513Y-81941155D01*
X102675931Y-81936248D01*
X102736771Y-81830870D01*
X102767273Y-81778039D01*
X102767274Y-81778038D01*
X102770577Y-81772316D01*
X102829072Y-81592288D01*
X102829962Y-81583826D01*
X102848168Y-81410597D01*
X102848858Y-81404032D01*
X102842601Y-81344497D01*
X102829762Y-81222339D01*
X102829762Y-81222337D01*
X102829072Y-81215776D01*
X102770577Y-81035748D01*
X102675931Y-80871816D01*
X102671512Y-80866908D01*
X102553684Y-80736047D01*
X102553682Y-80736046D01*
X102549269Y-80731144D01*
X102447123Y-80656931D01*
X102401470Y-80623762D01*
X102401469Y-80623761D01*
X102396128Y-80619881D01*
X102223201Y-80542888D01*
X102125186Y-80522054D01*
X102044501Y-80504904D01*
X102044497Y-80504904D01*
X102038044Y-80503532D01*
X101848752Y-80503532D01*
X101842299Y-80504904D01*
X101842295Y-80504904D01*
X101761610Y-80522054D01*
X101663595Y-80542888D01*
X101612233Y-80565756D01*
X101496704Y-80617193D01*
X101496700Y-80617195D01*
X101490668Y-80619881D01*
X101485327Y-80623762D01*
X101479605Y-80627065D01*
X101478937Y-80625909D01*
X101418815Y-80647356D01*
X101360383Y-80636669D01*
X101224249Y-80576057D01*
X101126234Y-80555223D01*
X101045549Y-80538073D01*
X101045545Y-80538073D01*
X101039092Y-80536701D01*
X100849800Y-80536701D01*
X100843347Y-80538073D01*
X100843343Y-80538073D01*
X100762658Y-80555223D01*
X100664643Y-80576057D01*
X100491716Y-80653050D01*
X100486375Y-80656930D01*
X100486374Y-80656931D01*
X100353593Y-80753402D01*
X100338575Y-80764313D01*
X100334162Y-80769215D01*
X100334160Y-80769216D01*
X100216332Y-80900077D01*
X100211913Y-80904985D01*
X100208610Y-80910706D01*
X100122284Y-81060228D01*
X100117267Y-81068917D01*
X100115149Y-81075435D01*
X100115068Y-81075553D01*
X100112541Y-81081230D01*
X100111503Y-81080768D01*
X100075078Y-81134040D01*
X100009682Y-81161678D01*
X99995316Y-81162500D01*
X97616267Y-81162500D01*
X97548146Y-81142498D01*
X97513054Y-81108770D01*
X97479065Y-81060228D01*
X97378495Y-80916599D01*
X97211401Y-80749505D01*
X97206893Y-80746348D01*
X97206890Y-80746346D01*
X97065517Y-80647356D01*
X97028181Y-80621213D01*
X96983853Y-80565756D01*
X96976544Y-80495137D01*
X97008575Y-80431776D01*
X97028181Y-80414787D01*
X97045388Y-80402739D01*
X97079408Y-80378918D01*
X97206890Y-80289654D01*
X97206893Y-80289652D01*
X97211401Y-80286495D01*
X97378495Y-80119401D01*
X97514035Y-79925829D01*
X97555625Y-79836641D01*
X97611580Y-79716645D01*
X97611581Y-79716643D01*
X97613903Y-79711663D01*
X97634000Y-79636661D01*
X97673639Y-79488723D01*
X97673639Y-79488722D01*
X97675063Y-79483408D01*
X97695659Y-79248000D01*
X97675063Y-79012592D01*
X97668282Y-78987286D01*
X97615326Y-78789647D01*
X97615325Y-78789645D01*
X97613903Y-78784337D01*
X97571972Y-78694416D01*
X97516358Y-78575152D01*
X97516356Y-78575149D01*
X97514035Y-78570171D01*
X97378495Y-78376599D01*
X97211401Y-78209505D01*
X97206893Y-78206348D01*
X97206890Y-78206346D01*
X97069972Y-78110475D01*
X97028181Y-78081213D01*
X96983853Y-78025756D01*
X96976544Y-77955137D01*
X97008575Y-77891776D01*
X97028181Y-77874787D01*
X97206890Y-77749654D01*
X97206893Y-77749652D01*
X97211401Y-77746495D01*
X97378495Y-77579401D01*
X97514035Y-77385829D01*
X97597135Y-77207623D01*
X97611580Y-77176645D01*
X97611581Y-77176643D01*
X97613903Y-77171663D01*
X97641036Y-77070402D01*
X97673639Y-76948723D01*
X97673639Y-76948722D01*
X97675063Y-76943408D01*
X97695659Y-76708000D01*
X97675063Y-76472592D01*
X97673511Y-76466800D01*
X97615326Y-76249647D01*
X97615325Y-76249645D01*
X97613903Y-76244337D01*
X97605152Y-76225570D01*
X97516358Y-76035152D01*
X97516356Y-76035149D01*
X97514035Y-76030171D01*
X97378495Y-75836599D01*
X97211401Y-75669505D01*
X97206893Y-75666348D01*
X97206890Y-75666346D01*
X97079408Y-75577082D01*
X97028181Y-75541213D01*
X96983853Y-75485756D01*
X96976544Y-75415137D01*
X97008575Y-75351776D01*
X97028181Y-75334787D01*
X97206890Y-75209654D01*
X97206893Y-75209652D01*
X97211401Y-75206495D01*
X97378495Y-75039401D01*
X97514035Y-74845829D01*
X97585399Y-74692791D01*
X97611580Y-74636645D01*
X97611581Y-74636643D01*
X97613903Y-74631663D01*
X97617757Y-74617282D01*
X97673639Y-74408723D01*
X97673639Y-74408722D01*
X97675063Y-74403408D01*
X97695659Y-74168000D01*
X97675063Y-73932592D01*
X97613903Y-73704337D01*
X97611580Y-73699355D01*
X97516358Y-73495152D01*
X97516356Y-73495149D01*
X97514035Y-73490171D01*
X97378495Y-73296599D01*
X97211401Y-73129505D01*
X97206893Y-73126348D01*
X97206890Y-73126346D01*
X97079408Y-73037082D01*
X97028181Y-73001213D01*
X96983853Y-72945756D01*
X96976544Y-72875137D01*
X97008575Y-72811776D01*
X97028181Y-72794787D01*
X97206890Y-72669654D01*
X97206893Y-72669652D01*
X97211401Y-72666495D01*
X97378495Y-72499401D01*
X97514035Y-72305829D01*
X97586118Y-72151249D01*
X97611580Y-72096645D01*
X97611581Y-72096643D01*
X97613903Y-72091663D01*
X97645687Y-71973044D01*
X97673639Y-71868723D01*
X97673639Y-71868722D01*
X97675063Y-71863408D01*
X97695659Y-71628000D01*
X97675063Y-71392592D01*
X97673639Y-71387277D01*
X97615326Y-71169647D01*
X97615325Y-71169645D01*
X97613903Y-71164337D01*
X97555448Y-71038981D01*
X97516358Y-70955152D01*
X97516356Y-70955149D01*
X97514035Y-70950171D01*
X97378495Y-70756599D01*
X97211401Y-70589505D01*
X97206893Y-70586348D01*
X97206890Y-70586346D01*
X97079408Y-70497082D01*
X97028181Y-70461213D01*
X96983853Y-70405756D01*
X96976544Y-70335137D01*
X97008575Y-70271776D01*
X97028181Y-70254787D01*
X97206890Y-70129654D01*
X97206893Y-70129652D01*
X97211401Y-70126495D01*
X97378495Y-69959401D01*
X97514035Y-69765829D01*
X97537479Y-69715555D01*
X97611580Y-69556645D01*
X97611581Y-69556643D01*
X97613903Y-69551663D01*
X97630560Y-69489500D01*
X97673639Y-69328723D01*
X97673639Y-69328722D01*
X97675063Y-69323408D01*
X97695659Y-69088000D01*
X97675063Y-68852592D01*
X97613903Y-68624337D01*
X97514035Y-68410171D01*
X97378495Y-68216599D01*
X97211401Y-68049505D01*
X97206893Y-68046348D01*
X97206890Y-68046346D01*
X97079408Y-67957082D01*
X97028181Y-67921213D01*
X96983853Y-67865756D01*
X96976544Y-67795137D01*
X97008575Y-67731776D01*
X97028181Y-67714787D01*
X97206890Y-67589654D01*
X97206893Y-67589652D01*
X97211401Y-67586495D01*
X97378495Y-67419401D01*
X97514035Y-67225829D01*
X97525217Y-67201851D01*
X97611580Y-67016645D01*
X97611581Y-67016643D01*
X97613903Y-67011663D01*
X97631512Y-66945947D01*
X97673639Y-66788723D01*
X97673639Y-66788722D01*
X97675063Y-66783408D01*
X97695659Y-66548000D01*
X97675063Y-66312592D01*
X97649699Y-66217931D01*
X97615326Y-66089647D01*
X97615325Y-66089645D01*
X97613903Y-66084337D01*
X97562006Y-65973044D01*
X97516358Y-65875152D01*
X97516356Y-65875149D01*
X97514035Y-65870171D01*
X97378495Y-65676599D01*
X97211401Y-65509505D01*
X97206893Y-65506348D01*
X97206890Y-65506346D01*
X97054985Y-65399981D01*
X97028181Y-65381213D01*
X96983853Y-65325756D01*
X96976544Y-65255137D01*
X97008575Y-65191776D01*
X97028181Y-65174787D01*
X97206890Y-65049654D01*
X97206893Y-65049652D01*
X97211401Y-65046495D01*
X97378495Y-64879401D01*
X97514035Y-64685829D01*
X97563016Y-64580791D01*
X97611580Y-64476645D01*
X97611581Y-64476643D01*
X97613903Y-64471663D01*
X97638046Y-64381561D01*
X97673639Y-64248723D01*
X97673639Y-64248722D01*
X97675063Y-64243408D01*
X97695659Y-64008000D01*
X97675063Y-63772592D01*
X97613903Y-63544337D01*
X97514035Y-63330171D01*
X97378495Y-63136599D01*
X97211401Y-62969505D01*
X97206893Y-62966348D01*
X97206890Y-62966346D01*
X97079408Y-62877082D01*
X97028181Y-62841213D01*
X96983853Y-62785756D01*
X96976544Y-62715137D01*
X97008575Y-62651776D01*
X97028181Y-62634787D01*
X97206890Y-62509654D01*
X97206893Y-62509652D01*
X97211401Y-62506495D01*
X97378495Y-62339401D01*
X97514035Y-62145829D01*
X97541020Y-62087961D01*
X97611580Y-61936645D01*
X97611581Y-61936643D01*
X97613903Y-61931663D01*
X97675063Y-61703408D01*
X97695659Y-61468000D01*
X97675063Y-61232592D01*
X97613903Y-61004337D01*
X97514035Y-60790171D01*
X97378495Y-60596599D01*
X97211401Y-60429505D01*
X97206893Y-60426348D01*
X97206890Y-60426346D01*
X97079408Y-60337082D01*
X97028181Y-60301213D01*
X96983853Y-60245756D01*
X96976544Y-60175137D01*
X97008575Y-60111776D01*
X97028181Y-60094787D01*
X97206890Y-59969654D01*
X97206893Y-59969652D01*
X97211401Y-59966495D01*
X97378495Y-59799401D01*
X97514035Y-59605829D01*
X97533795Y-59563455D01*
X97611580Y-59396645D01*
X97611581Y-59396643D01*
X97613903Y-59391663D01*
X97666623Y-59194909D01*
X97673639Y-59168723D01*
X97673639Y-59168722D01*
X97675063Y-59163408D01*
X97695659Y-58928000D01*
X97675063Y-58692592D01*
X97613903Y-58464337D01*
X97557601Y-58343597D01*
X97516358Y-58255152D01*
X97516356Y-58255149D01*
X97514035Y-58250171D01*
X97378495Y-58056599D01*
X97211401Y-57889505D01*
X97206893Y-57886348D01*
X97206890Y-57886346D01*
X97079408Y-57797082D01*
X97028181Y-57761213D01*
X96983853Y-57705756D01*
X96976544Y-57635137D01*
X97008575Y-57571776D01*
X97028181Y-57554787D01*
X97206890Y-57429654D01*
X97206893Y-57429652D01*
X97211401Y-57426495D01*
X97378495Y-57259401D01*
X97514035Y-57065829D01*
X97613903Y-56851663D01*
X97675063Y-56623408D01*
X97695659Y-56388000D01*
X97675063Y-56152592D01*
X97613903Y-55924337D01*
X97514035Y-55710171D01*
X97378495Y-55516599D01*
X97211401Y-55349505D01*
X97206893Y-55346348D01*
X97206890Y-55346346D01*
X97079408Y-55257082D01*
X97028181Y-55221213D01*
X96983853Y-55165756D01*
X96976544Y-55095137D01*
X97008575Y-55031776D01*
X97028181Y-55014787D01*
X97206890Y-54889654D01*
X97206893Y-54889652D01*
X97211401Y-54886495D01*
X97378495Y-54719401D01*
X97514035Y-54525829D01*
X97613903Y-54311663D01*
X97646960Y-54188293D01*
X97673639Y-54088723D01*
X97673639Y-54088722D01*
X97675063Y-54083408D01*
X97695659Y-53848000D01*
X97675063Y-53612592D01*
X97623089Y-53418621D01*
X97615326Y-53389647D01*
X97615325Y-53389645D01*
X97613903Y-53384337D01*
X97595230Y-53344292D01*
X97516358Y-53175152D01*
X97516356Y-53175149D01*
X97514035Y-53170171D01*
X97378495Y-52976599D01*
X97211401Y-52809505D01*
X97206893Y-52806348D01*
X97206890Y-52806346D01*
X97035336Y-52686223D01*
X96991008Y-52630766D01*
X96983699Y-52560147D01*
X97015730Y-52496786D01*
X97038018Y-52478859D01*
X97037737Y-52478465D01*
X97089247Y-52441723D01*
X97097648Y-52431023D01*
X97090660Y-52417870D01*
X96352812Y-51680022D01*
X96338868Y-51672408D01*
X96337035Y-51672539D01*
X96330420Y-51676790D01*
X95586737Y-52420473D01*
X95579977Y-52432853D01*
X95585257Y-52439906D01*
X95639612Y-52471669D01*
X95688335Y-52523308D01*
X95701406Y-52593091D01*
X95674674Y-52658863D01*
X95648312Y-52683669D01*
X95468599Y-52809505D01*
X95301505Y-52976599D01*
X95165965Y-53170171D01*
X95163644Y-53175149D01*
X95163642Y-53175152D01*
X95084770Y-53344292D01*
X95066097Y-53384337D01*
X95064675Y-53389645D01*
X95064674Y-53389647D01*
X95056911Y-53418621D01*
X95004937Y-53612592D01*
X94984341Y-53848000D01*
X95004937Y-54083408D01*
X95006361Y-54088722D01*
X95006361Y-54088723D01*
X95033041Y-54188293D01*
X95066097Y-54311663D01*
X95165965Y-54525829D01*
X95301505Y-54719401D01*
X95468599Y-54886495D01*
X95473107Y-54889652D01*
X95473110Y-54889654D01*
X95651820Y-55014788D01*
X95696148Y-55070245D01*
X95703457Y-55140865D01*
X95671426Y-55204225D01*
X95651822Y-55221211D01*
X95468599Y-55349505D01*
X95301505Y-55516599D01*
X95165965Y-55710171D01*
X95066097Y-55924337D01*
X95004937Y-56152592D01*
X94984341Y-56388000D01*
X95004937Y-56623408D01*
X95066097Y-56851663D01*
X95165965Y-57065829D01*
X95301505Y-57259401D01*
X95468599Y-57426495D01*
X95473107Y-57429652D01*
X95473110Y-57429654D01*
X95651820Y-57554788D01*
X95696148Y-57610245D01*
X95703457Y-57680865D01*
X95671426Y-57744225D01*
X95651822Y-57761211D01*
X95468599Y-57889505D01*
X95301505Y-58056599D01*
X95165965Y-58250171D01*
X95163644Y-58255149D01*
X95163642Y-58255152D01*
X95122399Y-58343597D01*
X95066097Y-58464337D01*
X95004937Y-58692592D01*
X94984341Y-58928000D01*
X95004937Y-59163408D01*
X95006361Y-59168722D01*
X95006361Y-59168723D01*
X95013378Y-59194909D01*
X95066097Y-59391663D01*
X95068419Y-59396643D01*
X95068420Y-59396645D01*
X95146206Y-59563455D01*
X95165965Y-59605829D01*
X95301505Y-59799401D01*
X95468599Y-59966495D01*
X95473107Y-59969652D01*
X95473110Y-59969654D01*
X95651820Y-60094788D01*
X95696148Y-60150245D01*
X95703457Y-60220865D01*
X95671426Y-60284225D01*
X95651822Y-60301211D01*
X95468599Y-60429505D01*
X95301505Y-60596599D01*
X95165965Y-60790171D01*
X95066097Y-61004337D01*
X95004937Y-61232592D01*
X94984341Y-61468000D01*
X95004937Y-61703408D01*
X95066097Y-61931663D01*
X95068419Y-61936643D01*
X95068420Y-61936645D01*
X95138981Y-62087961D01*
X95165965Y-62145829D01*
X95301505Y-62339401D01*
X95468599Y-62506495D01*
X95473107Y-62509652D01*
X95473110Y-62509654D01*
X95651820Y-62634788D01*
X95696148Y-62690245D01*
X95703457Y-62760865D01*
X95671426Y-62824225D01*
X95651822Y-62841211D01*
X95468599Y-62969505D01*
X95301505Y-63136599D01*
X95165965Y-63330171D01*
X95066097Y-63544337D01*
X95004937Y-63772592D01*
X94984341Y-64008000D01*
X95004937Y-64243408D01*
X95006361Y-64248722D01*
X95006361Y-64248723D01*
X95041955Y-64381561D01*
X95066097Y-64471663D01*
X95068419Y-64476643D01*
X95068420Y-64476645D01*
X95116985Y-64580791D01*
X95165965Y-64685829D01*
X95301505Y-64879401D01*
X95468599Y-65046495D01*
X95473107Y-65049652D01*
X95473110Y-65049654D01*
X95651820Y-65174788D01*
X95696148Y-65230245D01*
X95703457Y-65300865D01*
X95671426Y-65364225D01*
X95651822Y-65381211D01*
X95468599Y-65509505D01*
X95301505Y-65676599D01*
X95165965Y-65870171D01*
X95163644Y-65875149D01*
X95163642Y-65875152D01*
X95117994Y-65973044D01*
X95066097Y-66084337D01*
X95064675Y-66089645D01*
X95064674Y-66089647D01*
X95030301Y-66217931D01*
X95004937Y-66312592D01*
X94984341Y-66548000D01*
X95004937Y-66783408D01*
X95006361Y-66788722D01*
X95006361Y-66788723D01*
X95048489Y-66945947D01*
X95066097Y-67011663D01*
X95068419Y-67016643D01*
X95068420Y-67016645D01*
X95154784Y-67201851D01*
X95165965Y-67225829D01*
X95301505Y-67419401D01*
X95468599Y-67586495D01*
X95473107Y-67589652D01*
X95473110Y-67589654D01*
X95651820Y-67714788D01*
X95696148Y-67770245D01*
X95703457Y-67840865D01*
X95671426Y-67904225D01*
X95651822Y-67921211D01*
X95468599Y-68049505D01*
X95301505Y-68216599D01*
X95165965Y-68410171D01*
X95066097Y-68624337D01*
X95004937Y-68852592D01*
X94984341Y-69088000D01*
X95004937Y-69323408D01*
X95006361Y-69328722D01*
X95006361Y-69328723D01*
X95049441Y-69489500D01*
X95066097Y-69551663D01*
X95068419Y-69556643D01*
X95068420Y-69556645D01*
X95142522Y-69715555D01*
X95165965Y-69765829D01*
X95301505Y-69959401D01*
X95468599Y-70126495D01*
X95473107Y-70129652D01*
X95473110Y-70129654D01*
X95651820Y-70254788D01*
X95696148Y-70310245D01*
X95703457Y-70380865D01*
X95671426Y-70444225D01*
X95651822Y-70461211D01*
X95468599Y-70589505D01*
X95301505Y-70756599D01*
X95165965Y-70950171D01*
X95163644Y-70955149D01*
X95163642Y-70955152D01*
X95124552Y-71038981D01*
X95066097Y-71164337D01*
X95064675Y-71169645D01*
X95064674Y-71169647D01*
X95006361Y-71387277D01*
X95004937Y-71392592D01*
X94984341Y-71628000D01*
X95004937Y-71863408D01*
X95006361Y-71868722D01*
X95006361Y-71868723D01*
X95034314Y-71973044D01*
X95066097Y-72091663D01*
X95068419Y-72096643D01*
X95068420Y-72096645D01*
X95093883Y-72151249D01*
X95165965Y-72305829D01*
X95301505Y-72499401D01*
X95468599Y-72666495D01*
X95473107Y-72669652D01*
X95473110Y-72669654D01*
X95651820Y-72794788D01*
X95696148Y-72850245D01*
X95703457Y-72920865D01*
X95671426Y-72984225D01*
X95651822Y-73001211D01*
X95468599Y-73129505D01*
X95301505Y-73296599D01*
X95165965Y-73490171D01*
X95163644Y-73495149D01*
X95163642Y-73495152D01*
X95068420Y-73699355D01*
X95066097Y-73704337D01*
X95004937Y-73932592D01*
X94984341Y-74168000D01*
X95004937Y-74403408D01*
X95006361Y-74408722D01*
X95006361Y-74408723D01*
X95062244Y-74617282D01*
X95066097Y-74631663D01*
X95068419Y-74636643D01*
X95068420Y-74636645D01*
X95094602Y-74692791D01*
X95165965Y-74845829D01*
X95301505Y-75039401D01*
X95468599Y-75206495D01*
X95473107Y-75209652D01*
X95473110Y-75209654D01*
X95651820Y-75334788D01*
X95696148Y-75390245D01*
X95703457Y-75460865D01*
X95671426Y-75524225D01*
X95651822Y-75541211D01*
X95468599Y-75669505D01*
X95301505Y-75836599D01*
X95165965Y-76030171D01*
X95163644Y-76035149D01*
X95163642Y-76035152D01*
X95074848Y-76225570D01*
X95066097Y-76244337D01*
X95064675Y-76249645D01*
X95064674Y-76249647D01*
X95006489Y-76466800D01*
X95004937Y-76472592D01*
X94984341Y-76708000D01*
X95004937Y-76943408D01*
X95006361Y-76948722D01*
X95006361Y-76948723D01*
X95038965Y-77070402D01*
X95066097Y-77171663D01*
X95068419Y-77176643D01*
X95068420Y-77176645D01*
X95082866Y-77207623D01*
X95165965Y-77385829D01*
X95301505Y-77579401D01*
X95468599Y-77746495D01*
X95473107Y-77749652D01*
X95473110Y-77749654D01*
X95651820Y-77874788D01*
X95696148Y-77930245D01*
X95703457Y-78000865D01*
X95671426Y-78064225D01*
X95651822Y-78081211D01*
X95468599Y-78209505D01*
X95301505Y-78376599D01*
X95165965Y-78570171D01*
X95163644Y-78575149D01*
X95163642Y-78575152D01*
X95108028Y-78694416D01*
X95066097Y-78784337D01*
X95064675Y-78789645D01*
X95064674Y-78789647D01*
X95011718Y-78987286D01*
X95004937Y-79012592D01*
X94984341Y-79248000D01*
X95004937Y-79483408D01*
X95006361Y-79488722D01*
X95006361Y-79488723D01*
X95046001Y-79636661D01*
X95066097Y-79711663D01*
X95068419Y-79716643D01*
X95068420Y-79716645D01*
X95124376Y-79836641D01*
X95165965Y-79925829D01*
X95301505Y-80119401D01*
X95468599Y-80286495D01*
X95473107Y-80289652D01*
X95473110Y-80289654D01*
X95651820Y-80414788D01*
X95696148Y-80470245D01*
X95703457Y-80540865D01*
X95671426Y-80604225D01*
X95651822Y-80621211D01*
X95468599Y-80749505D01*
X95301505Y-80916599D01*
X95165965Y-81110171D01*
X95163644Y-81115149D01*
X95163642Y-81115152D01*
X95116720Y-81215776D01*
X95066097Y-81324337D01*
X95004937Y-81552592D01*
X94984341Y-81788000D01*
X95004937Y-82023408D01*
X95006361Y-82028722D01*
X95006361Y-82028723D01*
X95039941Y-82154045D01*
X95066097Y-82251663D01*
X95068419Y-82256643D01*
X95068420Y-82256645D01*
X95150891Y-82433502D01*
X95165965Y-82465829D01*
X95301505Y-82659401D01*
X95468599Y-82826495D01*
X95473107Y-82829652D01*
X95473110Y-82829654D01*
X95651820Y-82954788D01*
X95696148Y-83010245D01*
X95703457Y-83080865D01*
X95671426Y-83144225D01*
X95651822Y-83161211D01*
X95468599Y-83289505D01*
X95301505Y-83456599D01*
X95165965Y-83650171D01*
X95163644Y-83655149D01*
X95163642Y-83655152D01*
X95108304Y-83773824D01*
X95066097Y-83864337D01*
X95064675Y-83869645D01*
X95064674Y-83869647D01*
X95021306Y-84031500D01*
X95004937Y-84092592D01*
X94984341Y-84328000D01*
X95004937Y-84563408D01*
X95006361Y-84568722D01*
X95006361Y-84568723D01*
X95032180Y-84665080D01*
X95066097Y-84791663D01*
X95068419Y-84796643D01*
X95068420Y-84796645D01*
X95142577Y-84955673D01*
X95165965Y-85005829D01*
X95301505Y-85199401D01*
X95468599Y-85366495D01*
X95473107Y-85369652D01*
X95473110Y-85369654D01*
X95651820Y-85494788D01*
X95696148Y-85550245D01*
X95703457Y-85620865D01*
X95671426Y-85684225D01*
X95651822Y-85701211D01*
X95468599Y-85829505D01*
X95301505Y-85996599D01*
X95165965Y-86190171D01*
X95163644Y-86195149D01*
X95163642Y-86195152D01*
X95087228Y-86359021D01*
X95066097Y-86404337D01*
X95064675Y-86409645D01*
X95064674Y-86409647D01*
X95017645Y-86585164D01*
X95004937Y-86632592D01*
X94984341Y-86868000D01*
X95004937Y-87103408D01*
X95006361Y-87108722D01*
X95006361Y-87108723D01*
X95019015Y-87155947D01*
X95066097Y-87331663D01*
X95165965Y-87545829D01*
X95301505Y-87739401D01*
X95468599Y-87906495D01*
X95473107Y-87909652D01*
X95473110Y-87909654D01*
X95651820Y-88034788D01*
X95696148Y-88090245D01*
X95703457Y-88160865D01*
X95671426Y-88224225D01*
X95651822Y-88241211D01*
X95468599Y-88369505D01*
X95301505Y-88536599D01*
X95165965Y-88730171D01*
X95163644Y-88735149D01*
X95163642Y-88735152D01*
X95068420Y-88939355D01*
X95066097Y-88944337D01*
X95064675Y-88949645D01*
X95064674Y-88949647D01*
X95026376Y-89092580D01*
X95004937Y-89172592D01*
X94984341Y-89408000D01*
X95004937Y-89643408D01*
X95066097Y-89871663D01*
X95165965Y-90085829D01*
X95301505Y-90279401D01*
X95468599Y-90446495D01*
X95473107Y-90449652D01*
X95473110Y-90449654D01*
X95651820Y-90574788D01*
X95696148Y-90630245D01*
X95703457Y-90700865D01*
X95671426Y-90764225D01*
X95651822Y-90781211D01*
X95468599Y-90909505D01*
X95301505Y-91076599D01*
X95165965Y-91270171D01*
X95066097Y-91484337D01*
X95004937Y-91712592D01*
X94984341Y-91948000D01*
X95004937Y-92183408D01*
X95066097Y-92411663D01*
X95068419Y-92416643D01*
X95068420Y-92416645D01*
X95142323Y-92575128D01*
X95165965Y-92625829D01*
X95301505Y-92819401D01*
X95468599Y-92986495D01*
X95473107Y-92989652D01*
X95473110Y-92989654D01*
X95651820Y-93114788D01*
X95696148Y-93170245D01*
X95703457Y-93240865D01*
X95671426Y-93304225D01*
X95651822Y-93321211D01*
X95468599Y-93449505D01*
X95301505Y-93616599D01*
X95165965Y-93810171D01*
X95163644Y-93815149D01*
X95163642Y-93815152D01*
X95071485Y-94012783D01*
X95066097Y-94024337D01*
X95064675Y-94029645D01*
X95064674Y-94029647D01*
X95041542Y-94115978D01*
X95004937Y-94252592D01*
X94984341Y-94488000D01*
X95004937Y-94723408D01*
X95006361Y-94728722D01*
X95006361Y-94728723D01*
X95047824Y-94883465D01*
X95066097Y-94951663D01*
X95068419Y-94956643D01*
X95068420Y-94956645D01*
X95156186Y-95144857D01*
X95165965Y-95165829D01*
X95301505Y-95359401D01*
X95468599Y-95526495D01*
X95473107Y-95529652D01*
X95473110Y-95529654D01*
X95651820Y-95654788D01*
X95696148Y-95710245D01*
X95703457Y-95780865D01*
X95671426Y-95844225D01*
X95651822Y-95861211D01*
X95468599Y-95989505D01*
X95301505Y-96156599D01*
X95165965Y-96350171D01*
X95163644Y-96355149D01*
X95163642Y-96355152D01*
X95073689Y-96548056D01*
X95066097Y-96564337D01*
X95064675Y-96569645D01*
X95064674Y-96569647D01*
X95021418Y-96731082D01*
X95004937Y-96792592D01*
X94984341Y-97028000D01*
X95004937Y-97263408D01*
X95066097Y-97491663D01*
X95068419Y-97496643D01*
X95068420Y-97496645D01*
X95149742Y-97671038D01*
X95165965Y-97705829D01*
X95301505Y-97899401D01*
X95468599Y-98066495D01*
X95473111Y-98069654D01*
X95473113Y-98069656D01*
X95483298Y-98076788D01*
X95527626Y-98132246D01*
X95534934Y-98202865D01*
X95502902Y-98266225D01*
X95441700Y-98302209D01*
X95411026Y-98306000D01*
X82028974Y-98306000D01*
X81960853Y-98285998D01*
X81914360Y-98232342D01*
X81904256Y-98162068D01*
X81933750Y-98097488D01*
X81956702Y-98076788D01*
X81966887Y-98069656D01*
X81966889Y-98069654D01*
X81971401Y-98066495D01*
X82138495Y-97899401D01*
X82274035Y-97705829D01*
X82290259Y-97671038D01*
X82371580Y-97496645D01*
X82371581Y-97496643D01*
X82373903Y-97491663D01*
X82435063Y-97263408D01*
X82455659Y-97028000D01*
X82435063Y-96792592D01*
X82418582Y-96731082D01*
X82375326Y-96569647D01*
X82375325Y-96569645D01*
X82373903Y-96564337D01*
X82366311Y-96548056D01*
X82276358Y-96355152D01*
X82276356Y-96355149D01*
X82274035Y-96350171D01*
X82138495Y-96156599D01*
X81971401Y-95989505D01*
X81966893Y-95986348D01*
X81966890Y-95986346D01*
X81795336Y-95866223D01*
X81751008Y-95810766D01*
X81743699Y-95740147D01*
X81775730Y-95676786D01*
X81798018Y-95658859D01*
X81797737Y-95658465D01*
X81849247Y-95621723D01*
X81857648Y-95611023D01*
X81850660Y-95597870D01*
X81112812Y-94860022D01*
X81098868Y-94852408D01*
X81097035Y-94852539D01*
X81090420Y-94856790D01*
X80346737Y-95600473D01*
X80339977Y-95612853D01*
X80345257Y-95619906D01*
X80399612Y-95651669D01*
X80448335Y-95703308D01*
X80461406Y-95773091D01*
X80434674Y-95838863D01*
X80408312Y-95863669D01*
X80228599Y-95989505D01*
X80061505Y-96156599D01*
X79925965Y-96350171D01*
X79923644Y-96355149D01*
X79923642Y-96355152D01*
X79833689Y-96548056D01*
X79826097Y-96564337D01*
X79824675Y-96569645D01*
X79824674Y-96569647D01*
X79781418Y-96731082D01*
X79764937Y-96792592D01*
X79744341Y-97028000D01*
X79764937Y-97263408D01*
X79826097Y-97491663D01*
X79828419Y-97496643D01*
X79828420Y-97496645D01*
X79909742Y-97671038D01*
X79925965Y-97705829D01*
X80061505Y-97899401D01*
X80228599Y-98066495D01*
X80233111Y-98069654D01*
X80233113Y-98069656D01*
X80243298Y-98076788D01*
X80287626Y-98132246D01*
X80294934Y-98202865D01*
X80262902Y-98266225D01*
X80201700Y-98302209D01*
X80171026Y-98306000D01*
X78026704Y-98306000D01*
X78007320Y-98304500D01*
X77993044Y-98302277D01*
X77993042Y-98302277D01*
X77984172Y-98300896D01*
X77975272Y-98302060D01*
X77966295Y-98301950D01*
X77966306Y-98301083D01*
X77945152Y-98300797D01*
X77928150Y-98298104D01*
X77916749Y-98296299D01*
X77879255Y-98284116D01*
X77841780Y-98265021D01*
X77809889Y-98241850D01*
X77780150Y-98212111D01*
X77756979Y-98180220D01*
X77737884Y-98142745D01*
X77725701Y-98105252D01*
X77721299Y-98077459D01*
X77719886Y-98057990D01*
X77721104Y-98050170D01*
X77717064Y-98019274D01*
X77716000Y-98002937D01*
X77716000Y-97804533D01*
X77717746Y-97783629D01*
X77720184Y-97769138D01*
X77720184Y-97769137D01*
X77720991Y-97764341D01*
X77721142Y-97751999D01*
X77719375Y-97739657D01*
X77718960Y-97736763D01*
X77718075Y-97728786D01*
X77713530Y-97671038D01*
X77704316Y-97553969D01*
X77700972Y-97540038D01*
X77659099Y-97365627D01*
X77657944Y-97360815D01*
X77656052Y-97356248D01*
X77656050Y-97356241D01*
X77583821Y-97181864D01*
X77583820Y-97181862D01*
X77581927Y-97177292D01*
X77478136Y-97007922D01*
X77349128Y-96856872D01*
X77198078Y-96727864D01*
X77028708Y-96624073D01*
X77024138Y-96622180D01*
X77024136Y-96622179D01*
X76849759Y-96549950D01*
X76849752Y-96549948D01*
X76845185Y-96548056D01*
X76778004Y-96531927D01*
X76656844Y-96502839D01*
X76656838Y-96502838D01*
X76652031Y-96501684D01*
X76577959Y-96495854D01*
X76494887Y-96489316D01*
X76483869Y-96487958D01*
X76483673Y-96487925D01*
X76466343Y-96485009D01*
X76461478Y-96484949D01*
X76461473Y-96484949D01*
X76458860Y-96484917D01*
X76458854Y-96484917D01*
X76454001Y-96484858D01*
X76426985Y-96488727D01*
X76409123Y-96490000D01*
X67818703Y-96490000D01*
X67799319Y-96488500D01*
X67785044Y-96486277D01*
X67785041Y-96486277D01*
X67776171Y-96484896D01*
X67759461Y-96487081D01*
X67735521Y-96487914D01*
X67476265Y-96472232D01*
X67461161Y-96470398D01*
X67179209Y-96418728D01*
X67164436Y-96415087D01*
X67151494Y-96411054D01*
X66890757Y-96329805D01*
X66876553Y-96324419D01*
X66615121Y-96206759D01*
X66601679Y-96199703D01*
X66356361Y-96051402D01*
X66343840Y-96042760D01*
X66118188Y-95865973D01*
X66106800Y-95855883D01*
X65904117Y-95653200D01*
X65894027Y-95641812D01*
X65717240Y-95416160D01*
X65708597Y-95403638D01*
X65613194Y-95245823D01*
X65560297Y-95158321D01*
X65553241Y-95144879D01*
X65435581Y-94883447D01*
X65430193Y-94869238D01*
X65427322Y-94860022D01*
X65344913Y-94595564D01*
X65341272Y-94580791D01*
X65319111Y-94459863D01*
X79738050Y-94459863D01*
X79750309Y-94672477D01*
X79751745Y-94682697D01*
X79798565Y-94890446D01*
X79801645Y-94900275D01*
X79881770Y-95097603D01*
X79886413Y-95106794D01*
X79966460Y-95237420D01*
X79976916Y-95246880D01*
X79985694Y-95243096D01*
X80727978Y-94500812D01*
X80734356Y-94489132D01*
X81464408Y-94489132D01*
X81464539Y-94490965D01*
X81468790Y-94497580D01*
X82210474Y-95239264D01*
X82222484Y-95245823D01*
X82234223Y-95236855D01*
X82265004Y-95194019D01*
X82270315Y-95185180D01*
X82364670Y-94994267D01*
X82368469Y-94984672D01*
X82430376Y-94780915D01*
X82432555Y-94770834D01*
X82460590Y-94557887D01*
X82461109Y-94551212D01*
X82462572Y-94491364D01*
X82462378Y-94484646D01*
X82444781Y-94270604D01*
X82443096Y-94260424D01*
X82391214Y-94053875D01*
X82387894Y-94044124D01*
X82302972Y-93848814D01*
X82298105Y-93839739D01*
X82233063Y-93739197D01*
X82222377Y-93729995D01*
X82212812Y-93734398D01*
X81472022Y-94475188D01*
X81464408Y-94489132D01*
X80734356Y-94489132D01*
X80735592Y-94486868D01*
X80735461Y-94485035D01*
X80731210Y-94478420D01*
X79989849Y-93737059D01*
X79978313Y-93730759D01*
X79966031Y-93740382D01*
X79918089Y-93810662D01*
X79913004Y-93819613D01*
X79823338Y-94012783D01*
X79819775Y-94022470D01*
X79762864Y-94227681D01*
X79760933Y-94237800D01*
X79738302Y-94449574D01*
X79738050Y-94459863D01*
X65319111Y-94459863D01*
X65289602Y-94298839D01*
X65287768Y-94283735D01*
X65272518Y-94031619D01*
X65273707Y-94006343D01*
X65273723Y-94005042D01*
X65275104Y-93996171D01*
X65273491Y-93983829D01*
X65271064Y-93965275D01*
X65270000Y-93948938D01*
X65270000Y-72147318D01*
X67269500Y-72147318D01*
X67308934Y-72459473D01*
X67319186Y-72499401D01*
X67386194Y-72760383D01*
X67386197Y-72760391D01*
X67387181Y-72764225D01*
X67388638Y-72767905D01*
X67388639Y-72767908D01*
X67399281Y-72794787D01*
X67503006Y-73056766D01*
X67504907Y-73060225D01*
X67504909Y-73060228D01*
X67541258Y-73126346D01*
X67654584Y-73332484D01*
X67656912Y-73335688D01*
X67656915Y-73335693D01*
X67715356Y-73416130D01*
X67839522Y-73587030D01*
X68054906Y-73816390D01*
X68057957Y-73818914D01*
X68057958Y-73818915D01*
X68131520Y-73879771D01*
X68297337Y-74016947D01*
X68562993Y-74185537D01*
X68566572Y-74187221D01*
X68566579Y-74187225D01*
X68844095Y-74317814D01*
X68844099Y-74317816D01*
X68847685Y-74319503D01*
X69146921Y-74416731D01*
X69455985Y-74475688D01*
X69549489Y-74481571D01*
X69689422Y-74490375D01*
X69689438Y-74490376D01*
X69691417Y-74490500D01*
X69848583Y-74490500D01*
X69850562Y-74490376D01*
X69850578Y-74490375D01*
X69990511Y-74481571D01*
X70084015Y-74475688D01*
X70393079Y-74416731D01*
X70692315Y-74319503D01*
X70695901Y-74317816D01*
X70695905Y-74317814D01*
X70973421Y-74187225D01*
X70973428Y-74187221D01*
X70977007Y-74185537D01*
X71242663Y-74016947D01*
X71408480Y-73879771D01*
X71482042Y-73818915D01*
X71482043Y-73818914D01*
X71485094Y-73816390D01*
X71700478Y-73587030D01*
X71824644Y-73416130D01*
X71883085Y-73335693D01*
X71883088Y-73335688D01*
X71885416Y-73332484D01*
X71998742Y-73126346D01*
X72035091Y-73060228D01*
X72035093Y-73060225D01*
X72036994Y-73056766D01*
X72140719Y-72794787D01*
X72151361Y-72767908D01*
X72151362Y-72767905D01*
X72152819Y-72764225D01*
X72153803Y-72760391D01*
X72153806Y-72760383D01*
X72220814Y-72499401D01*
X72231066Y-72459473D01*
X72270500Y-72147318D01*
X72270500Y-71832682D01*
X72232244Y-71529852D01*
X72231563Y-71524459D01*
X72231562Y-71524455D01*
X72231066Y-71520527D01*
X72196853Y-71387277D01*
X72153806Y-71219617D01*
X72153803Y-71219609D01*
X72152819Y-71215775D01*
X72136195Y-71173786D01*
X72038448Y-70926907D01*
X72036994Y-70923234D01*
X72015957Y-70884967D01*
X71887325Y-70650989D01*
X71885416Y-70647516D01*
X71750060Y-70461213D01*
X71702806Y-70396174D01*
X71702805Y-70396172D01*
X71700478Y-70392970D01*
X71485094Y-70163610D01*
X71444049Y-70129654D01*
X71245715Y-69965578D01*
X71242663Y-69963053D01*
X70977007Y-69794463D01*
X70973428Y-69792779D01*
X70973421Y-69792775D01*
X70695905Y-69662186D01*
X70695901Y-69662184D01*
X70692315Y-69660497D01*
X70393079Y-69563269D01*
X70084015Y-69504312D01*
X69990511Y-69498429D01*
X69850578Y-69489625D01*
X69850562Y-69489624D01*
X69848583Y-69489500D01*
X69691417Y-69489500D01*
X69689438Y-69489624D01*
X69689422Y-69489625D01*
X69549489Y-69498429D01*
X69455985Y-69504312D01*
X69146921Y-69563269D01*
X68847685Y-69660497D01*
X68844099Y-69662184D01*
X68844095Y-69662186D01*
X68566579Y-69792775D01*
X68566572Y-69792779D01*
X68562993Y-69794463D01*
X68297337Y-69963053D01*
X68294285Y-69965578D01*
X68095952Y-70129654D01*
X68054906Y-70163610D01*
X67839522Y-70392970D01*
X67837195Y-70396172D01*
X67837194Y-70396174D01*
X67789941Y-70461213D01*
X67654584Y-70647516D01*
X67652675Y-70650989D01*
X67524044Y-70884967D01*
X67503006Y-70923234D01*
X67501552Y-70926907D01*
X67403806Y-71173786D01*
X67387181Y-71215775D01*
X67386197Y-71219609D01*
X67386194Y-71219617D01*
X67343147Y-71387277D01*
X67308934Y-71520527D01*
X67308438Y-71524455D01*
X67308437Y-71524459D01*
X67307756Y-71529852D01*
X67269500Y-71832682D01*
X67269500Y-72147318D01*
X65270000Y-72147318D01*
X65270000Y-62283408D01*
X69238500Y-62283408D01*
X69238501Y-64378161D01*
X69238870Y-64381555D01*
X69238870Y-64381561D01*
X69242288Y-64413024D01*
X69245149Y-64439365D01*
X69295474Y-64573609D01*
X69300854Y-64580788D01*
X69300856Y-64580791D01*
X69375846Y-64680848D01*
X69381454Y-64688331D01*
X69388635Y-64693713D01*
X69488994Y-64768929D01*
X69488997Y-64768931D01*
X69496176Y-64774311D01*
X69585561Y-64807819D01*
X69623025Y-64821864D01*
X69623027Y-64821864D01*
X69630420Y-64824636D01*
X69638270Y-64825489D01*
X69638271Y-64825489D01*
X69688217Y-64830915D01*
X69691623Y-64831285D01*
X70738846Y-64831285D01*
X71786376Y-64831284D01*
X71789770Y-64830915D01*
X71789776Y-64830915D01*
X71839722Y-64825490D01*
X71839726Y-64825489D01*
X71847580Y-64824636D01*
X71981824Y-64774311D01*
X71989003Y-64768931D01*
X71989006Y-64768929D01*
X72089365Y-64693713D01*
X72096546Y-64688331D01*
X72102154Y-64680848D01*
X72177144Y-64580791D01*
X72177146Y-64580788D01*
X72182526Y-64573609D01*
X72232851Y-64439365D01*
X72239500Y-64378162D01*
X72239499Y-62283409D01*
X72232851Y-62222205D01*
X72182526Y-62087961D01*
X72177146Y-62080782D01*
X72177144Y-62080779D01*
X72101928Y-61980420D01*
X72096546Y-61973239D01*
X72089365Y-61967857D01*
X71989006Y-61892641D01*
X71989003Y-61892639D01*
X71981824Y-61887259D01*
X71892439Y-61853751D01*
X71854975Y-61839706D01*
X71854973Y-61839706D01*
X71847580Y-61836934D01*
X71839730Y-61836081D01*
X71839729Y-61836081D01*
X71789774Y-61830654D01*
X71789773Y-61830654D01*
X71786377Y-61830285D01*
X70739154Y-61830285D01*
X69691624Y-61830286D01*
X69688230Y-61830655D01*
X69688224Y-61830655D01*
X69638278Y-61836080D01*
X69638274Y-61836081D01*
X69630420Y-61836934D01*
X69496176Y-61887259D01*
X69488997Y-61892639D01*
X69488994Y-61892641D01*
X69388635Y-61967857D01*
X69381454Y-61973239D01*
X69376072Y-61980420D01*
X69300856Y-62080779D01*
X69300854Y-62080782D01*
X69295474Y-62087961D01*
X69245149Y-62222205D01*
X69238500Y-62283408D01*
X65270000Y-62283408D01*
X65270000Y-59563455D01*
X69871160Y-59563455D01*
X69876887Y-59571105D01*
X70048042Y-59675990D01*
X70056837Y-59680472D01*
X70266988Y-59767519D01*
X70276373Y-59770568D01*
X70497554Y-59823670D01*
X70507301Y-59825213D01*
X70734070Y-59843060D01*
X70743930Y-59843060D01*
X70970699Y-59825213D01*
X70980446Y-59823670D01*
X71201627Y-59770568D01*
X71211012Y-59767519D01*
X71421163Y-59680472D01*
X71429958Y-59675990D01*
X71597445Y-59573353D01*
X71606907Y-59562895D01*
X71603124Y-59554119D01*
X70751812Y-58702807D01*
X70737868Y-58695193D01*
X70736035Y-58695324D01*
X70729420Y-58699575D01*
X69877920Y-59551075D01*
X69871160Y-59563455D01*
X65270000Y-59563455D01*
X65270000Y-58335715D01*
X69226725Y-58335715D01*
X69244572Y-58562484D01*
X69246115Y-58572231D01*
X69299217Y-58793412D01*
X69302266Y-58802797D01*
X69389313Y-59012948D01*
X69393795Y-59021743D01*
X69496432Y-59189230D01*
X69506890Y-59198692D01*
X69515666Y-59194909D01*
X70366978Y-58343597D01*
X70373356Y-58331917D01*
X71103408Y-58331917D01*
X71103539Y-58333750D01*
X71107790Y-58340365D01*
X71959290Y-59191865D01*
X71971670Y-59198625D01*
X71979320Y-59192898D01*
X72084205Y-59021743D01*
X72088687Y-59012948D01*
X72175734Y-58802797D01*
X72178783Y-58793412D01*
X72231885Y-58572231D01*
X72233428Y-58562484D01*
X72251275Y-58335715D01*
X72251275Y-58325855D01*
X72233428Y-58099086D01*
X72231885Y-58089339D01*
X72178783Y-57868158D01*
X72175734Y-57858773D01*
X72088687Y-57648622D01*
X72084205Y-57639827D01*
X71981568Y-57472340D01*
X71971110Y-57462878D01*
X71962334Y-57466661D01*
X71111022Y-58317973D01*
X71103408Y-58331917D01*
X70373356Y-58331917D01*
X70374592Y-58329653D01*
X70374461Y-58327820D01*
X70370210Y-58321205D01*
X69518710Y-57469705D01*
X69506330Y-57462945D01*
X69498680Y-57468672D01*
X69393795Y-57639827D01*
X69389313Y-57648622D01*
X69302266Y-57858773D01*
X69299217Y-57868158D01*
X69246115Y-58089339D01*
X69244572Y-58099086D01*
X69226725Y-58325855D01*
X69226725Y-58335715D01*
X65270000Y-58335715D01*
X65270000Y-57098675D01*
X69871093Y-57098675D01*
X69874876Y-57107451D01*
X70726188Y-57958763D01*
X70740132Y-57966377D01*
X70741965Y-57966246D01*
X70748580Y-57961995D01*
X71600080Y-57110495D01*
X71606840Y-57098115D01*
X71601113Y-57090465D01*
X71429958Y-56985580D01*
X71421163Y-56981098D01*
X71211012Y-56894051D01*
X71201627Y-56891002D01*
X70980446Y-56837900D01*
X70970699Y-56836357D01*
X70743930Y-56818510D01*
X70734070Y-56818510D01*
X70507301Y-56836357D01*
X70497554Y-56837900D01*
X70276373Y-56891002D01*
X70266988Y-56894051D01*
X70056837Y-56981098D01*
X70048042Y-56985580D01*
X69880555Y-57088217D01*
X69871093Y-57098675D01*
X65270000Y-57098675D01*
X65270000Y-52037236D01*
X74514958Y-52037236D01*
X74541014Y-52335065D01*
X74606232Y-52626832D01*
X74607676Y-52630756D01*
X74607676Y-52630757D01*
X74645931Y-52734731D01*
X74709464Y-52907410D01*
X74711415Y-52911110D01*
X74711417Y-52911115D01*
X74745943Y-52976599D01*
X74848898Y-53171870D01*
X75022084Y-53415565D01*
X75024934Y-53418621D01*
X75210925Y-53618072D01*
X75225979Y-53634216D01*
X75457000Y-53823979D01*
X75711090Y-53981521D01*
X75983783Y-54104074D01*
X76158027Y-54156018D01*
X76266290Y-54188293D01*
X76266292Y-54188293D01*
X76270289Y-54189485D01*
X76274409Y-54190138D01*
X76274411Y-54190138D01*
X76392423Y-54208829D01*
X76565575Y-54236254D01*
X76608135Y-54238187D01*
X76657659Y-54240436D01*
X76657678Y-54240436D01*
X76659078Y-54240500D01*
X76845834Y-54240500D01*
X77068309Y-54225723D01*
X77361377Y-54166630D01*
X77644056Y-54069296D01*
X77647789Y-54067427D01*
X77647793Y-54067425D01*
X77907640Y-53937303D01*
X77907642Y-53937302D01*
X77911378Y-53935431D01*
X78158647Y-53767387D01*
X78381520Y-53568117D01*
X78576079Y-53341120D01*
X78688397Y-53168166D01*
X78736629Y-53093896D01*
X78736632Y-53093891D01*
X78738908Y-53090386D01*
X78867145Y-52820319D01*
X78869367Y-52813400D01*
X78957258Y-52539651D01*
X78957258Y-52539650D01*
X78958538Y-52535664D01*
X78973194Y-52454211D01*
X79010741Y-52245531D01*
X79010742Y-52245526D01*
X79011480Y-52241422D01*
X79014120Y-52183296D01*
X79024853Y-51946934D01*
X79024853Y-51946929D01*
X79025042Y-51942764D01*
X78998986Y-51644935D01*
X78933768Y-51353168D01*
X78915916Y-51304646D01*
X78831983Y-51076523D01*
X78830536Y-51072590D01*
X78822739Y-51057800D01*
X78693055Y-50811834D01*
X78693054Y-50811833D01*
X78691102Y-50808130D01*
X78517916Y-50564435D01*
X78387168Y-50424225D01*
X78316871Y-50348840D01*
X78316869Y-50348838D01*
X78314021Y-50345784D01*
X78083000Y-50156021D01*
X77828910Y-49998479D01*
X77556217Y-49875926D01*
X77310243Y-49802598D01*
X77273710Y-49791707D01*
X77273708Y-49791707D01*
X77269711Y-49790515D01*
X77265591Y-49789862D01*
X77265589Y-49789862D01*
X77147577Y-49771171D01*
X76974425Y-49743746D01*
X76931865Y-49741813D01*
X76882341Y-49739564D01*
X76882322Y-49739564D01*
X76880922Y-49739500D01*
X76694166Y-49739500D01*
X76471691Y-49754277D01*
X76178623Y-49813370D01*
X75895944Y-49910704D01*
X75892211Y-49912573D01*
X75892207Y-49912575D01*
X75640336Y-50038703D01*
X75628622Y-50044569D01*
X75381353Y-50212613D01*
X75158480Y-50411883D01*
X74963921Y-50638880D01*
X74961647Y-50642382D01*
X74831708Y-50842470D01*
X74801092Y-50889614D01*
X74672855Y-51159681D01*
X74671576Y-51163664D01*
X74671575Y-51163667D01*
X74582742Y-51440349D01*
X74581462Y-51444336D01*
X74580721Y-51448455D01*
X74533582Y-51710446D01*
X74528520Y-51738578D01*
X74528331Y-51742745D01*
X74528330Y-51742752D01*
X74516012Y-52014019D01*
X74514958Y-52037236D01*
X65270000Y-52037236D01*
X65270000Y-50038703D01*
X65271500Y-50019319D01*
X65273723Y-50005044D01*
X65273723Y-50005041D01*
X65275104Y-49996171D01*
X65272919Y-49979461D01*
X65272086Y-49955521D01*
X65287768Y-49696265D01*
X65289602Y-49681161D01*
X65341272Y-49399209D01*
X65344913Y-49384436D01*
X65430193Y-49110762D01*
X65435581Y-49096553D01*
X65553241Y-48835121D01*
X65560297Y-48821679D01*
X65708598Y-48576361D01*
X65717240Y-48563840D01*
X65894027Y-48338188D01*
X65904117Y-48326800D01*
X66106800Y-48124117D01*
X66118188Y-48114027D01*
X66157049Y-48083581D01*
X66343841Y-47937239D01*
X66356362Y-47928597D01*
X66409293Y-47896599D01*
X66601679Y-47780297D01*
X66615121Y-47773241D01*
X66876553Y-47655581D01*
X66890757Y-47650195D01*
X67164436Y-47564913D01*
X67179209Y-47561272D01*
X67461161Y-47509602D01*
X67476265Y-47507768D01*
X67728381Y-47492518D01*
X67753657Y-47493707D01*
X67754958Y-47493723D01*
X67763829Y-47495104D01*
X67772731Y-47493940D01*
X67772734Y-47493940D01*
X67794725Y-47491064D01*
X67811062Y-47490000D01*
X79696675Y-47490000D01*
X79764796Y-47510002D01*
G37*
G04 #@! TD.AperFunction*
G04 #@! TA.AperFunction,Conductor*
G36*
X79842739Y-69673008D02*
G01*
X79899575Y-69715555D01*
X79912900Y-69737811D01*
X79925965Y-69765829D01*
X80061505Y-69959401D01*
X80228599Y-70126495D01*
X80233107Y-70129652D01*
X80233110Y-70129654D01*
X80411820Y-70254788D01*
X80456148Y-70310245D01*
X80463457Y-70380865D01*
X80431426Y-70444225D01*
X80411822Y-70461211D01*
X80228599Y-70589505D01*
X80061505Y-70756599D01*
X79925965Y-70950171D01*
X79923644Y-70955149D01*
X79923642Y-70955152D01*
X79884552Y-71038981D01*
X79826097Y-71164337D01*
X79824675Y-71169645D01*
X79824674Y-71169647D01*
X79766361Y-71387277D01*
X79764937Y-71392592D01*
X79744341Y-71628000D01*
X79764937Y-71863408D01*
X79766361Y-71868722D01*
X79766361Y-71868723D01*
X79794314Y-71973044D01*
X79826097Y-72091663D01*
X79828419Y-72096643D01*
X79828420Y-72096645D01*
X79853883Y-72151249D01*
X79925965Y-72305829D01*
X80061505Y-72499401D01*
X80228599Y-72666495D01*
X80233107Y-72669652D01*
X80233110Y-72669654D01*
X80411820Y-72794788D01*
X80456148Y-72850245D01*
X80463457Y-72920865D01*
X80431426Y-72984225D01*
X80411822Y-73001211D01*
X80228599Y-73129505D01*
X80061505Y-73296599D01*
X79925965Y-73490171D01*
X79923644Y-73495149D01*
X79923642Y-73495152D01*
X79828420Y-73699355D01*
X79826097Y-73704337D01*
X79764937Y-73932592D01*
X79744341Y-74168000D01*
X79764937Y-74403408D01*
X79766361Y-74408722D01*
X79766361Y-74408723D01*
X79822244Y-74617282D01*
X79826097Y-74631663D01*
X79828419Y-74636643D01*
X79828420Y-74636645D01*
X79854602Y-74692791D01*
X79925965Y-74845829D01*
X80061505Y-75039401D01*
X80228599Y-75206495D01*
X80233107Y-75209652D01*
X80233110Y-75209654D01*
X80411820Y-75334788D01*
X80456148Y-75390245D01*
X80463457Y-75460865D01*
X80431426Y-75524225D01*
X80411822Y-75541211D01*
X80228599Y-75669505D01*
X80061505Y-75836599D01*
X79925965Y-76030171D01*
X79923644Y-76035149D01*
X79923642Y-76035152D01*
X79834848Y-76225570D01*
X79826097Y-76244337D01*
X79824675Y-76249645D01*
X79824674Y-76249647D01*
X79766489Y-76466800D01*
X79764937Y-76472592D01*
X79744341Y-76708000D01*
X79764937Y-76943408D01*
X79766361Y-76948722D01*
X79766361Y-76948723D01*
X79798965Y-77070402D01*
X79826097Y-77171663D01*
X79828419Y-77176643D01*
X79828420Y-77176645D01*
X79842866Y-77207623D01*
X79925965Y-77385829D01*
X80061505Y-77579401D01*
X80228599Y-77746495D01*
X80233107Y-77749652D01*
X80233110Y-77749654D01*
X80411820Y-77874788D01*
X80456148Y-77930245D01*
X80463457Y-78000865D01*
X80431426Y-78064225D01*
X80411822Y-78081211D01*
X80228599Y-78209505D01*
X80061505Y-78376599D01*
X79925965Y-78570171D01*
X79923644Y-78575149D01*
X79923642Y-78575152D01*
X79868028Y-78694416D01*
X79826097Y-78784337D01*
X79824675Y-78789645D01*
X79824674Y-78789647D01*
X79771718Y-78987286D01*
X79764937Y-79012592D01*
X79744341Y-79248000D01*
X79764937Y-79483408D01*
X79766361Y-79488722D01*
X79766361Y-79488723D01*
X79806001Y-79636661D01*
X79826097Y-79711663D01*
X79828419Y-79716643D01*
X79828420Y-79716645D01*
X79884376Y-79836641D01*
X79925965Y-79925829D01*
X80061505Y-80119401D01*
X80228599Y-80286495D01*
X80233107Y-80289652D01*
X80233110Y-80289654D01*
X80411820Y-80414788D01*
X80456148Y-80470245D01*
X80463457Y-80540865D01*
X80431426Y-80604225D01*
X80411822Y-80621211D01*
X80228599Y-80749505D01*
X80061505Y-80916599D01*
X79925965Y-81110171D01*
X79923644Y-81115149D01*
X79923642Y-81115152D01*
X79876720Y-81215776D01*
X79826097Y-81324337D01*
X79764937Y-81552592D01*
X79744341Y-81788000D01*
X79764937Y-82023408D01*
X79766361Y-82028722D01*
X79766361Y-82028723D01*
X79799941Y-82154045D01*
X79826097Y-82251663D01*
X79828419Y-82256643D01*
X79828420Y-82256645D01*
X79910891Y-82433502D01*
X79925965Y-82465829D01*
X80061505Y-82659401D01*
X80228599Y-82826495D01*
X80233107Y-82829652D01*
X80233110Y-82829654D01*
X80411820Y-82954788D01*
X80456148Y-83010245D01*
X80463457Y-83080865D01*
X80431426Y-83144225D01*
X80411822Y-83161211D01*
X80228599Y-83289505D01*
X80061505Y-83456599D01*
X79925965Y-83650171D01*
X79923644Y-83655149D01*
X79923642Y-83655152D01*
X79868304Y-83773824D01*
X79826097Y-83864337D01*
X79824675Y-83869645D01*
X79824674Y-83869647D01*
X79781306Y-84031500D01*
X79764937Y-84092592D01*
X79744341Y-84328000D01*
X79764937Y-84563408D01*
X79766361Y-84568722D01*
X79766361Y-84568723D01*
X79792180Y-84665080D01*
X79826097Y-84791663D01*
X79828419Y-84796643D01*
X79828420Y-84796645D01*
X79902577Y-84955673D01*
X79925965Y-85005829D01*
X80061505Y-85199401D01*
X80228599Y-85366495D01*
X80233107Y-85369652D01*
X80233110Y-85369654D01*
X80411820Y-85494788D01*
X80456148Y-85550245D01*
X80463457Y-85620865D01*
X80431426Y-85684225D01*
X80411822Y-85701211D01*
X80228599Y-85829505D01*
X80061505Y-85996599D01*
X79925965Y-86190171D01*
X79923644Y-86195149D01*
X79923642Y-86195152D01*
X79847228Y-86359021D01*
X79826097Y-86404337D01*
X79824675Y-86409645D01*
X79824674Y-86409647D01*
X79777645Y-86585164D01*
X79764937Y-86632592D01*
X79744341Y-86868000D01*
X79764937Y-87103408D01*
X79766361Y-87108722D01*
X79766361Y-87108723D01*
X79779015Y-87155947D01*
X79826097Y-87331663D01*
X79925965Y-87545829D01*
X80061505Y-87739401D01*
X80228599Y-87906495D01*
X80233107Y-87909652D01*
X80233110Y-87909654D01*
X80411820Y-88034788D01*
X80456148Y-88090245D01*
X80463457Y-88160865D01*
X80431426Y-88224225D01*
X80411822Y-88241211D01*
X80228599Y-88369505D01*
X80061505Y-88536599D01*
X79925965Y-88730171D01*
X79923644Y-88735149D01*
X79923642Y-88735152D01*
X79828420Y-88939355D01*
X79826097Y-88944337D01*
X79824675Y-88949645D01*
X79824674Y-88949647D01*
X79786376Y-89092580D01*
X79764937Y-89172592D01*
X79764458Y-89178072D01*
X79764456Y-89178084D01*
X79751227Y-89329278D01*
X79725364Y-89395396D01*
X79667860Y-89437036D01*
X79596973Y-89440976D01*
X79536612Y-89407391D01*
X77670070Y-87540848D01*
X75620905Y-85491683D01*
X75586879Y-85429371D01*
X75584000Y-85402588D01*
X75584000Y-78639365D01*
X75604002Y-78571244D01*
X75637726Y-78536155D01*
X75732139Y-78470047D01*
X75893047Y-78309139D01*
X76023568Y-78122734D01*
X76026067Y-78117376D01*
X76117416Y-77921478D01*
X76117417Y-77921476D01*
X76119739Y-77916496D01*
X76130839Y-77875072D01*
X76177211Y-77702007D01*
X76177211Y-77702005D01*
X76178635Y-77696692D01*
X76198468Y-77470000D01*
X76178635Y-77243308D01*
X76177211Y-77237993D01*
X76121162Y-77028814D01*
X76121161Y-77028812D01*
X76119739Y-77023504D01*
X76084868Y-76948723D01*
X76025891Y-76822247D01*
X76025889Y-76822244D01*
X76023568Y-76817266D01*
X75893047Y-76630861D01*
X75732139Y-76469953D01*
X75637728Y-76403846D01*
X75593401Y-76348392D01*
X75584000Y-76300635D01*
X75584000Y-73879771D01*
X75604002Y-73811650D01*
X75620905Y-73790676D01*
X79709612Y-69701969D01*
X79771924Y-69667943D01*
X79842739Y-69673008D01*
G37*
G04 #@! TD.AperFunction*
M02*
