<?xml version="1.0"?>
<!-- Generated by SVGo -->
<svg width="448.152mm" height="143.352mm"
     viewBox="0.000 0.000 448.152 143.352"
     xmlns="http://www.w3.org/2000/svg" 
     xmlns:xlink="http://www.w3.org/1999/xlink">
<polygon points="443.152,138.352 5.001,138.352 5.001,5.001 443.152,5.001" style="fill:none;stroke-width:0.050000mm;stroke:black"/>
<polygon points="140.876,121.825 140.876,126.525 94.101,126.525 94.101,123.295 87.351,123.295 87.351,126.525 86.526,126.525 86.526,129.325 87.351,129.325 87.351,135.596 89.076,135.596 89.076,136.796 92.376,136.796 92.376,135.596 94.101,135.596 94.101,131.126 140.876,131.126 140.876,135.826 154.876,135.826 154.876,131.126 201.651,131.126 201.651,135.596 203.376,135.596 203.376,136.796 206.676,136.796 206.676,135.596 208.401,135.596 208.401,129.325 209.226,129.325 209.226,126.525 208.401,126.525 208.401,123.295 201.651,123.295 201.651,126.525 154.876,126.525 154.876,121.825" style="fill:none;stroke-width:0.050000mm;stroke:black"/>
<polygon points="379.001,121.825 379.001,126.525 377.476,126.525 377.476,123.295 370.726,123.295 370.726,126.525 369.901,126.525 369.901,129.325 370.726,129.325 370.726,135.596 372.451,135.596 372.451,136.796 375.751,136.796 375.751,135.596 377.476,135.596 377.476,131.126 379.001,131.126 379.001,135.826 393.001,135.826 393.001,131.126 394.526,131.126 394.526,135.596 396.251,135.596 396.251,136.796 399.551,136.796 399.551,135.596 401.276,135.596 401.276,129.325 402.101,129.325 402.101,126.525 401.276,126.525 401.276,123.295 394.526,123.295 394.526,126.525 393.001,126.525 393.001,121.825" style="fill:none;stroke-width:0.050000mm;stroke:black"/>
<polygon points="12.288,121.825 12.288,135.826 26.288,135.826 26.288,121.825" style="fill:none;stroke-width:0.050000mm;stroke:black"/>
<polygon points="59.913,121.825 59.913,135.826 73.913,135.826 73.913,121.825" style="fill:none;stroke-width:0.050000mm;stroke:black"/>
<polygon points="221.838,121.825 221.838,135.826 235.838,135.826 235.838,121.825" style="fill:none;stroke-width:0.050000mm;stroke:black"/>
<polygon points="269.463,121.825 269.463,135.826 283.463,135.826 283.463,121.825" style="fill:none;stroke-width:0.050000mm;stroke:black"/>
<polygon points="302.801,121.825 302.801,135.826 316.801,135.826 316.801,121.825" style="fill:none;stroke-width:0.050000mm;stroke:black"/>
<polygon points="321.851,121.825 321.851,135.826 335.851,135.826 335.851,121.825" style="fill:none;stroke-width:0.050000mm;stroke:black"/>
<polygon points="340.901,121.825 340.901,135.826 354.901,135.826 354.901,121.825" style="fill:none;stroke-width:0.050000mm;stroke:black"/>
<polygon points="407.576,121.825 407.576,135.826 421.576,135.826 421.576,121.825" style="fill:none;stroke-width:0.050000mm;stroke:black"/>
<polygon points="433.126,103.200 433.126,104.025 426.856,104.025 426.856,105.751 425.656,105.751 425.656,109.051 426.856,109.051 426.856,110.775 431.326,110.775 431.326,112.301 426.626,112.301 426.626,126.301 431.326,126.301 431.326,127.826 426.856,127.826 426.856,129.551 425.656,129.551 425.656,132.851 426.856,132.851 426.856,134.576 433.126,134.576 433.126,135.401 435.926,135.401 435.926,134.576 439.156,134.576 439.156,127.826 435.926,127.826 435.926,126.301 440.626,126.301 440.626,112.301 435.926,112.301 435.926,110.775 439.156,110.775 439.156,104.025 435.926,104.025 435.926,103.200" style="fill:none;stroke-width:0.050000mm;stroke:black"/>
<polygon points="19.432,102.775 19.432,107.476 17.907,107.476 17.907,104.245 11.157,104.245 11.157,107.476 10.332,107.476 10.332,110.275 11.157,110.275 11.157,116.545 12.882,116.545 12.882,117.745 16.182,117.745 16.182,116.545 17.907,116.545 17.907,112.075 19.432,112.075 19.432,116.775 33.432,116.775 33.432,112.075 34.957,112.075 34.957,116.545 36.682,116.545 36.682,117.745 39.982,117.745 39.982,116.545 41.707,116.545 41.707,110.275 42.532,110.275 42.532,107.476 41.707,107.476 41.707,104.245 34.957,104.245 34.957,107.476 33.432,107.476 33.432,102.775" style="fill:none;stroke-width:0.050000mm;stroke:black"/>
<polygon points="257.556,102.775 257.556,107.476 256.032,107.476 256.032,104.245 249.282,104.245 249.282,107.476 248.457,107.476 248.457,110.275 249.282,110.275 249.282,116.545 251.007,116.545 251.007,117.745 254.307,117.745 254.307,116.545 256.032,116.545 256.032,112.075 257.556,112.075 257.556,116.775 271.557,116.775 271.557,112.075 273.082,112.075 273.082,116.545 274.807,116.545 274.807,117.745 278.107,117.745 278.107,116.545 279.832,116.545 279.832,110.275 280.657,110.275 280.657,107.476 279.832,107.476 279.832,104.245 273.082,104.245 273.082,107.476 271.557,107.476 271.557,102.775" style="fill:none;stroke-width:0.050000mm;stroke:black"/>
<polygon points="50.388,102.775 50.388,116.775 64.388,116.775 64.388,102.775" style="fill:none;stroke-width:0.050000mm;stroke:black"/>
<polygon points="69.438,102.775 69.438,116.775 83.438,116.775 83.438,102.775" style="fill:none;stroke-width:0.050000mm;stroke:black"/>
<polygon points="88.488,102.775 88.488,116.775 102.488,116.775 102.488,102.775" style="fill:none;stroke-width:0.050000mm;stroke:black"/>
<polygon points="107.538,102.775 107.538,116.775 121.538,116.775 121.538,102.775" style="fill:none;stroke-width:0.050000mm;stroke:black"/>
<polygon points="126.588,102.775 126.588,116.775 140.588,116.775 140.588,102.775" style="fill:none;stroke-width:0.050000mm;stroke:black"/>
<polygon points="145.638,102.775 145.638,116.775 159.638,116.775 159.638,102.775" style="fill:none;stroke-width:0.050000mm;stroke:black"/>
<polygon points="164.688,102.775 164.688,116.775 178.688,116.775 178.688,102.775" style="fill:none;stroke-width:0.050000mm;stroke:black"/>
<polygon points="183.738,102.775 183.738,116.775 197.738,116.775 197.738,102.775" style="fill:none;stroke-width:0.050000mm;stroke:black"/>
<polygon points="202.788,102.775 202.788,116.775 216.788,116.775 216.788,102.775" style="fill:none;stroke-width:0.050000mm;stroke:black"/>
<polygon points="221.838,102.775 221.838,116.775 235.838,116.775 235.838,102.775" style="fill:none;stroke-width:0.050000mm;stroke:black"/>
<polygon points="321.851,102.775 321.851,116.775 335.851,116.775 335.851,102.775" style="fill:none;stroke-width:0.050000mm;stroke:black"/>
<polygon points="369.476,102.775 369.476,116.775 383.476,116.775 383.476,102.775" style="fill:none;stroke-width:0.050000mm;stroke:black"/>
<polygon points="388.526,102.775 388.526,116.775 402.526,116.775 402.526,102.775" style="fill:none;stroke-width:0.050000mm;stroke:black"/>
<polygon points="407.576,102.775 407.576,116.775 421.576,116.775 421.576,102.775" style="fill:none;stroke-width:0.050000mm;stroke:black"/>
<polygon points="262.319,83.726 262.319,88.426 260.794,88.426 260.794,85.196 254.044,85.196 254.044,88.426 253.219,88.426 253.219,91.226 254.044,91.226 254.044,97.495 255.769,97.495 255.769,98.696 259.068,98.696 259.068,97.495 260.794,97.495 260.794,93.025 262.319,93.025 262.319,97.726 276.319,97.726 276.319,93.025 277.844,93.025 277.844,97.495 279.569,97.495 279.569,98.696 282.869,98.696 282.869,97.495 284.594,97.495 284.594,91.226 285.419,91.226 285.419,88.426 284.594,88.426 284.594,85.196 277.844,85.196 277.844,88.426 276.319,88.426 276.319,83.726" style="fill:none;stroke-width:0.050000mm;stroke:black"/>
<polygon points="14.669,83.726 14.669,97.726 28.669,97.726 28.669,83.726" style="fill:none;stroke-width:0.050000mm;stroke:black"/>
<polygon points="40.863,83.726 40.863,97.726 54.863,97.726 54.863,83.726" style="fill:none;stroke-width:0.050000mm;stroke:black"/>
<polygon points="59.913,83.726 59.913,97.726 73.913,97.726 73.913,83.726" style="fill:none;stroke-width:0.050000mm;stroke:black"/>
<polygon points="78.963,83.726 78.963,97.726 92.963,97.726 92.963,83.726" style="fill:none;stroke-width:0.050000mm;stroke:black"/>
<polygon points="98.013,83.726 98.013,97.726 112.013,97.726 112.013,83.726" style="fill:none;stroke-width:0.050000mm;stroke:black"/>
<polygon points="117.063,83.726 117.063,97.726 131.063,97.726 131.063,83.726" style="fill:none;stroke-width:0.050000mm;stroke:black"/>
<polygon points="136.113,83.726 136.113,97.726 150.113,97.726 150.113,83.726" style="fill:none;stroke-width:0.050000mm;stroke:black"/>
<polygon points="155.163,83.726 155.163,97.726 169.163,97.726 169.163,83.726" style="fill:none;stroke-width:0.050000mm;stroke:black"/>
<polygon points="174.213,83.726 174.213,97.726 188.213,97.726 188.213,83.726" style="fill:none;stroke-width:0.050000mm;stroke:black"/>
<polygon points="193.263,83.726 193.263,97.726 207.263,97.726 207.263,83.726" style="fill:none;stroke-width:0.050000mm;stroke:black"/>
<polygon points="212.313,83.726 212.313,97.726 226.313,97.726 226.313,83.726" style="fill:none;stroke-width:0.050000mm;stroke:black"/>
<polygon points="231.363,83.726 231.363,97.726 245.363,97.726 245.363,83.726" style="fill:none;stroke-width:0.050000mm;stroke:black"/>
<polygon points="369.476,83.726 369.476,97.726 383.476,97.726 383.476,83.726" style="fill:none;stroke-width:0.050000mm;stroke:black"/>
<polygon points="388.526,83.726 388.526,97.726 402.526,97.726 402.526,83.726" style="fill:none;stroke-width:0.050000mm;stroke:black"/>
<polygon points="407.576,83.726 407.576,97.726 421.576,97.726 421.576,83.726" style="fill:none;stroke-width:0.050000mm;stroke:black"/>
<polygon points="433.126,65.100 433.126,65.926 426.856,65.926 426.856,67.651 425.656,67.651 425.656,70.951 426.856,70.951 426.856,72.676 431.326,72.676 431.326,74.201 426.626,74.201 426.626,88.201 431.326,88.201 431.326,89.726 426.856,89.726 426.856,91.451 425.656,91.451 425.656,94.751 426.856,94.751 426.856,96.476 433.126,96.476 433.126,97.301 435.926,97.301 435.926,96.476 439.156,96.476 439.156,89.726 435.926,89.726 435.926,88.201 440.626,88.201 440.626,74.201 435.926,74.201 435.926,72.676 439.156,72.676 439.156,65.926 435.926,65.926 435.926,65.100" style="fill:none;stroke-width:0.050000mm;stroke:black"/>
<polygon points="12.288,64.676 12.288,78.676 26.288,78.676 26.288,64.676" style="fill:none;stroke-width:0.050000mm;stroke:black"/>
<polygon points="36.101,64.676 36.101,78.676 50.101,78.676 50.101,64.676" style="fill:none;stroke-width:0.050000mm;stroke:black"/>
<polygon points="55.151,64.676 55.151,78.676 69.151,78.676 69.151,64.676" style="fill:none;stroke-width:0.050000mm;stroke:black"/>
<polygon points="74.201,64.676 74.201,78.676 88.201,78.676 88.201,64.676" style="fill:none;stroke-width:0.050000mm;stroke:black"/>
<polygon points="93.251,64.676 93.251,78.676 107.251,78.676 107.251,64.676" style="fill:none;stroke-width:0.050000mm;stroke:black"/>
<polygon points="112.301,64.676 112.301,78.676 126.301,78.676 126.301,64.676" style="fill:none;stroke-width:0.050000mm;stroke:black"/>
<polygon points="131.351,64.676 131.351,78.676 145.351,78.676 145.351,64.676" style="fill:none;stroke-width:0.050000mm;stroke:black"/>
<polygon points="150.401,64.676 150.401,78.676 164.401,78.676 164.401,64.676" style="fill:none;stroke-width:0.050000mm;stroke:black"/>
<polygon points="169.451,64.676 169.451,78.676 183.451,78.676 183.451,64.676" style="fill:none;stroke-width:0.050000mm;stroke:black"/>
<polygon points="188.501,64.676 188.501,78.676 202.501,78.676 202.501,64.676" style="fill:none;stroke-width:0.050000mm;stroke:black"/>
<polygon points="207.551,64.676 207.551,78.676 221.551,78.676 221.551,64.676" style="fill:none;stroke-width:0.050000mm;stroke:black"/>
<polygon points="226.601,64.676 226.601,78.676 240.601,78.676 240.601,64.676" style="fill:none;stroke-width:0.050000mm;stroke:black"/>
<polygon points="245.651,64.676 245.651,78.676 259.650,78.676 259.650,64.676" style="fill:none;stroke-width:0.050000mm;stroke:black"/>
<polygon points="269.463,64.676 269.463,78.676 283.463,78.676 283.463,64.676" style="fill:none;stroke-width:0.050000mm;stroke:black"/>
<polygon points="302.801,64.676 302.801,78.676 316.801,78.676 316.801,64.676" style="fill:none;stroke-width:0.050000mm;stroke:black"/>
<polygon points="321.851,64.676 321.851,78.676 335.851,78.676 335.851,64.676" style="fill:none;stroke-width:0.050000mm;stroke:black"/>
<polygon points="340.901,64.676 340.901,78.676 354.901,78.676 354.901,64.676" style="fill:none;stroke-width:0.050000mm;stroke:black"/>
<polygon points="369.476,64.676 369.476,78.676 383.476,78.676 383.476,64.676" style="fill:none;stroke-width:0.050000mm;stroke:black"/>
<polygon points="388.526,64.676 388.526,78.676 402.526,78.676 402.526,64.676" style="fill:none;stroke-width:0.050000mm;stroke:black"/>
<polygon points="407.576,64.676 407.576,78.676 421.576,78.676 421.576,64.676" style="fill:none;stroke-width:0.050000mm;stroke:black"/>
<polygon points="264.701,45.626 264.701,50.326 263.176,50.326 263.176,47.096 256.426,47.096 256.426,50.326 255.601,50.326 255.601,53.126 256.426,53.126 256.426,59.395 258.150,59.395 258.150,60.596 261.451,60.596 261.451,59.395 263.176,59.395 263.176,54.926 264.701,54.926 264.701,59.626 278.701,59.626 278.701,54.926 280.226,54.926 280.226,59.395 281.951,59.395 281.951,60.596 285.251,60.596 285.251,59.395 286.976,59.395 286.976,53.126 287.801,53.126 287.801,50.326 286.976,50.326 286.976,47.096 280.226,47.096 280.226,50.326 278.701,50.326 278.701,45.626" style="fill:none;stroke-width:0.050000mm;stroke:black"/>
<polygon points="7.526,45.626 7.526,59.626 21.526,59.626 21.526,45.626" style="fill:none;stroke-width:0.050000mm;stroke:black"/>
<polygon points="26.576,45.626 26.576,59.626 40.576,59.626 40.576,45.626" style="fill:none;stroke-width:0.050000mm;stroke:black"/>
<polygon points="45.626,45.626 45.626,59.626 59.626,59.626 59.626,45.626" style="fill:none;stroke-width:0.050000mm;stroke:black"/>
<polygon points="64.676,45.626 64.676,59.626 78.676,59.626 78.676,45.626" style="fill:none;stroke-width:0.050000mm;stroke:black"/>
<polygon points="83.726,45.626 83.726,59.626 97.726,59.626 97.726,45.626" style="fill:none;stroke-width:0.050000mm;stroke:black"/>
<polygon points="102.775,45.626 102.775,59.626 116.775,59.626 116.775,45.626" style="fill:none;stroke-width:0.050000mm;stroke:black"/>
<polygon points="121.825,45.626 121.825,59.626 135.826,59.626 135.826,45.626" style="fill:none;stroke-width:0.050000mm;stroke:black"/>
<polygon points="140.876,45.626 140.876,59.626 154.876,59.626 154.876,45.626" style="fill:none;stroke-width:0.050000mm;stroke:black"/>
<polygon points="159.926,45.626 159.926,59.626 173.926,59.626 173.926,45.626" style="fill:none;stroke-width:0.050000mm;stroke:black"/>
<polygon points="178.976,45.626 178.976,59.626 192.976,59.626 192.976,45.626" style="fill:none;stroke-width:0.050000mm;stroke:black"/>
<polygon points="198.026,45.626 198.026,59.626 212.026,59.626 212.026,45.626" style="fill:none;stroke-width:0.050000mm;stroke:black"/>
<polygon points="217.076,45.626 217.076,59.626 231.076,59.626 231.076,45.626" style="fill:none;stroke-width:0.050000mm;stroke:black"/>
<polygon points="236.126,45.626 236.126,59.626 250.126,59.626 250.126,45.626" style="fill:none;stroke-width:0.050000mm;stroke:black"/>
<polygon points="302.801,45.626 302.801,59.626 316.801,59.626 316.801,45.626" style="fill:none;stroke-width:0.050000mm;stroke:black"/>
<polygon points="321.851,45.626 321.851,59.626 335.851,59.626 335.851,45.626" style="fill:none;stroke-width:0.050000mm;stroke:black"/>
<polygon points="340.901,45.626 340.901,59.626 354.901,59.626 354.901,45.626" style="fill:none;stroke-width:0.050000mm;stroke:black"/>
<polygon points="369.476,45.626 369.476,59.626 383.476,59.626 383.476,45.626" style="fill:none;stroke-width:0.050000mm;stroke:black"/>
<polygon points="388.526,45.626 388.526,59.626 402.526,59.626 402.526,45.626" style="fill:none;stroke-width:0.050000mm;stroke:black"/>
<polygon points="407.576,45.626 407.576,59.626 421.576,59.626 421.576,45.626" style="fill:none;stroke-width:0.050000mm;stroke:black"/>
<polygon points="426.626,45.626 426.626,59.626 440.626,59.626 440.626,45.626" style="fill:none;stroke-width:0.050000mm;stroke:black"/>
<polygon points="7.526,7.526 7.526,21.526 21.526,21.526 21.526,7.526" style="fill:none;stroke-width:0.050000mm;stroke:black"/>
<polygon points="45.626,7.526 45.626,21.526 59.626,21.526 59.626,7.526" style="fill:none;stroke-width:0.050000mm;stroke:black"/>
<polygon points="64.676,7.526 64.676,21.526 78.676,21.526 78.676,7.526" style="fill:none;stroke-width:0.050000mm;stroke:black"/>
<polygon points="83.726,7.526 83.726,21.526 97.726,21.526 97.726,7.526" style="fill:none;stroke-width:0.050000mm;stroke:black"/>
<polygon points="102.775,7.526 102.775,21.526 116.775,21.526 116.775,7.526" style="fill:none;stroke-width:0.050000mm;stroke:black"/>
<polygon points="131.351,7.526 131.351,21.526 145.351,21.526 145.351,7.526" style="fill:none;stroke-width:0.050000mm;stroke:black"/>
<polygon points="150.401,7.526 150.401,21.526 164.401,21.526 164.401,7.526" style="fill:none;stroke-width:0.050000mm;stroke:black"/>
<polygon points="169.451,7.526 169.451,21.526 183.451,21.526 183.451,7.526" style="fill:none;stroke-width:0.050000mm;stroke:black"/>
<polygon points="188.501,7.526 188.501,21.526 202.501,21.526 202.501,7.526" style="fill:none;stroke-width:0.050000mm;stroke:black"/>
<polygon points="217.076,7.526 217.076,21.526 231.076,21.526 231.076,7.526" style="fill:none;stroke-width:0.050000mm;stroke:black"/>
<polygon points="236.126,7.526 236.126,21.526 250.126,21.526 250.126,7.526" style="fill:none;stroke-width:0.050000mm;stroke:black"/>
<polygon points="255.176,7.526 255.176,21.526 269.176,21.526 269.176,7.526" style="fill:none;stroke-width:0.050000mm;stroke:black"/>
<polygon points="274.226,7.526 274.226,21.526 288.226,21.526 288.226,7.526" style="fill:none;stroke-width:0.050000mm;stroke:black"/>
<polygon points="302.801,7.526 302.801,21.526 316.801,21.526 316.801,7.526" style="fill:none;stroke-width:0.050000mm;stroke:black"/>
<polygon points="321.851,7.526 321.851,21.526 335.851,21.526 335.851,7.526" style="fill:none;stroke-width:0.050000mm;stroke:black"/>
<polygon points="340.901,7.526 340.901,21.526 354.901,21.526 354.901,7.526" style="fill:none;stroke-width:0.050000mm;stroke:black"/>
</svg>
