  0
SECTION
  2
HEADER
  9
$ACADVER
  1
AC1032
  9
$ACADMAINTVER
 90
      251
  9
$DWGCODEPAGE
  3
ANSI_1252
  9
$REQUIREDVERSIONS
160
                 0
  9
$INSBASE
 10
0.0
 20
0.0
 30
0.0
  9
$EXTMIN
 10
1.000000000000000E+20
 20
1.000000000000000E+20
 30
1.000000000000000E+20
  9
$EXTMAX
 10
-1.000000000000000E+20
 20
-1.000000000000000E+20
 30
-1.000000000000000E+20
  9
$LIMMIN
 10
0.0
 20
0.0
  9
$LIMMAX
 10
12.0
 20
9.0
  9
$ORTHOMODE
 70
     0
  9
$REGENMODE
 70
     1
  9
$FILLMODE
 70
     1
  9
$QTEXTMODE
 70
     0
  9
$MIRRTEXT
 70
     0
  9
$LTSCALE
 40
1.0
  9
$ATTMODE
 70
     1
  9
$TEXTSIZE
 40
0.2
  9
$TRACEWID
 40
0.05
  9
$TEXTSTYLE
  7
Standard
  9
$CLAYER
  8
0
  9
$CELTYPE
  6
ByLayer
  9
$CECOLOR
 62
   256
  9
$CELTSCALE
 40
1.0
  9
$DISPSILH
 70
     0
  9
$DIMSCALE
 40
1.0
  9
$DIMASZ
 40
0.18
  9
$DIMEXO
 40
0.0625
  9
$DIMDLI
 40
0.38
  9
$DIMRND
 40
0.0
  9
$DIMDLE
 40
0.0
  9
$DIMEXE
 40
0.18
  9
$DIMTP
 40
0.0
  9
$DIMTM
 40
0.0
  9
$DIMTXT
 40
0.18
  9
$DIMCEN
 40
0.09
  9
$DIMTSZ
 40
0.0
  9
$DIMTOL
 70
     0
  9
$DIMLIM
 70
     0
  9
$DIMTIH
 70
     1
  9
$DIMTOH
 70
     1
  9
$DIMSE1
 70
     0
  9
$DIMSE2
 70
     0
  9
$DIMTAD
 70
     0
  9
$DIMZIN
 70
     0
  9
$DIMBLK
  1

  9
$DIMASO
 70
     1
  9
$DIMSHO
 70
     1
  9
$DIMPOST
  1

  9
$DIMAPOST
  1

  9
$DIMALT
 70
     0
  9
$DIMALTD
 70
     2
  9
$DIMALTF
 40
25.4
  9
$DIMLFAC
 40
1.0
  9
$DIMTOFL
 70
     0
  9
$DIMTVP
 40
0.0
  9
$DIMTIX
 70
     0
  9
$DIMSOXD
 70
     0
  9
$DIMSAH
 70
     0
  9
$DIMBLK1
  1

  9
$DIMBLK2
  1

  9
$DIMSTYLE
  2
Standard
  9
$DIMCLRD
 70
     0
  9
$DIMCLRE
 70
     0
  9
$DIMCLRT
 70
     0
  9
$DIMTFAC
 40
1.0
  9
$DIMGAP
 40
0.09
  9
$DIMJUST
 70
     0
  9
$DIMSD1
 70
     0
  9
$DIMSD2
 70
     0
  9
$DIMTOLJ
 70
     1
  9
$DIMTZIN
 70
     0
  9
$DIMALTZ
 70
     0
  9
$DIMALTTZ
 70
     0
  9
$DIMUPT
 70
     0
  9
$DIMDEC
 70
     4
  9
$DIMTDEC
 70
     4
  9
$DIMALTU
 70
     2
  9
$DIMALTTD
 70
     2
  9
$DIMTXSTY
  7
Standard
  9
$DIMAUNIT
 70
     0
  9
$DIMADEC
 70
     0
  9
$DIMALTRND
 40
0.0
  9
$DIMAZIN
 70
     0
  9
$DIMDSEP
 70
    46
  9
$DIMATFIT
 70
     3
  9
$DIMFRAC
 70
     0
  9
$DIMLDRBLK
  1

  9
$DIMLUNIT
 70
     2
  9
$DIMLWD
 70
    -2
  9
$DIMLWE
 70
    -2
  9
$DIMTMOVE
 70
     0
  9
$DIMFXL
 40
1.0
  9
$DIMFXLON
 70
     0
  9
$DIMJOGANG
 40
0.7853981633974483
  9
$DIMTFILL
 70
     0
  9
$DIMTFILLCLR
 70
     0
  9
$DIMARCSYM
 70
     0
  9
$DIMLTYPE
  6

  9
$DIMLTEX1
  6

  9
$DIMLTEX2
  6

  9
$DIMTXTDIRECTION
 70
     0
  9
$LUNITS
 70
     2
  9
$LUPREC
 70
     4
  9
$SKETCHINC
 40
0.1
  9
$FILLETRAD
 40
0.0
  9
$AUNITS
 70
     0
  9
$AUPREC
 70
     0
  9
$MENU
  1
.
  9
$ELEVATION
 40
0.0
  9
$PELEVATION
 40
0.0
  9
$THICKNESS
 40
0.0
  9
$LIMCHECK
 70
     0
  9
$CHAMFERA
 40
0.0
  9
$CHAMFERB
 40
0.0
  9
$CHAMFERC
 40
0.0
  9
$CHAMFERD
 40
0.0
  9
$SKPOLY
 70
     0
  9
$TDCREATE
 40
2459994.921817130
  9
$TDUCREATE
 40
2459995.255150463
  9
$TDUPDATE
 40
2459994.921817130
  9
$TDUUPDATE
 40
2459995.255150463
  9
$TDINDWG
 40
0.0000000000
  9
$TDUSRTIMER
 40
0.0000000000
  9
$USRTIMER
 70
     1
  9
$ANGBASE
 50
0.0
  9
$ANGDIR
 70
     0
  9
$PDMODE
 70
     0
  9
$PDSIZE
 40
0.0
  9
$PLINEWID
 40
0.0
  9
$SPLFRAME
 70
     0
  9
$SPLINETYPE
 70
     6
  9
$SPLINESEGS
 70
     8
  9
$HANDSEED
  5
BF
  9
$SURFTAB1
 70
     6
  9
$SURFTAB2
 70
     6
  9
$SURFTYPE
 70
     6
  9
$SURFU
 70
     6
  9
$SURFV
 70
     6
  9
$UCSBASE
  2

  9
$UCSNAME
  2

  9
$UCSORG
 10
0.0
 20
0.0
 30
0.0
  9
$UCSXDIR
 10
1.0
 20
0.0
 30
0.0
  9
$UCSYDIR
 10
0.0
 20
1.0
 30
0.0
  9
$UCSORTHOREF
  2

  9
$UCSORTHOVIEW
 70
     0
  9
$UCSORGTOP
 10
0.0
 20
0.0
 30
0.0
  9
$UCSORGBOTTOM
 10
0.0
 20
0.0
 30
0.0
  9
$UCSORGLEFT
 10
0.0
 20
0.0
 30
0.0
  9
$UCSORGRIGHT
 10
0.0
 20
0.0
 30
0.0
  9
$UCSORGFRONT
 10
0.0
 20
0.0
 30
0.0
  9
$UCSORGBACK
 10
0.0
 20
0.0
 30
0.0
  9
$PUCSBASE
  2

  9
$PUCSNAME
  2

  9
$PUCSORG
 10
0.0
 20
0.0
 30
0.0
  9
$PUCSXDIR
 10
1.0
 20
0.0
 30
0.0
  9
$PUCSYDIR
 10
0.0
 20
1.0
 30
0.0
  9
$PUCSORTHOREF
  2

  9
$PUCSORTHOVIEW
 70
     0
  9
$PUCSORGTOP
 10
0.0
 20
0.0
 30
0.0
  9
$PUCSORGBOTTOM
 10
0.0
 20
0.0
 30
0.0
  9
$PUCSORGLEFT
 10
0.0
 20
0.0
 30
0.0
  9
$PUCSORGRIGHT
 10
0.0
 20
0.0
 30
0.0
  9
$PUCSORGFRONT
 10
0.0
 20
0.0
 30
0.0
  9
$PUCSORGBACK
 10
0.0
 20
0.0
 30
0.0
  9
$USERI1
 70
     0
  9
$USERI2
 70
     0
  9
$USERI3
 70
     0
  9
$USERI4
 70
     0
  9
$USERI5
 70
     0
  9
$USERR1
 40
0.0
  9
$USERR2
 40
0.0
  9
$USERR3
 40
0.0
  9
$USERR4
 40
0.0
  9
$USERR5
 40
0.0
  9
$WORLDVIEW
 70
     1
  9
$SHADEDGE
 70
     3
  9
$SHADEDIF
 70
    70
  9
$TILEMODE
 70
     1
  9
$MAXACTVP
 70
    64
  9
$PINSBASE
 10
0.0
 20
0.0
 30
0.0
  9
$PLIMCHECK
 70
     0
  9
$PEXTMIN
 10
1.000000000000000E+20
 20
1.000000000000000E+20
 30
1.000000000000000E+20
  9
$PEXTMAX
 10
-1.000000000000000E+20
 20
-1.000000000000000E+20
 30
-1.000000000000000E+20
  9
$PLIMMIN
 10
0.0
 20
0.0
  9
$PLIMMAX
 10
12.0
 20
9.0
  9
$UNITMODE
 70
     0
  9
$VISRETAIN
 70
     1
  9
$PLINEGEN
 70
     0
  9
$PSLTSCALE
 70
     1
  9
$TREEDEPTH
 70
  3020
  9
$CMLSTYLE
  2
Standard
  9
$CMLJUST
 70
     0
  9
$CMLSCALE
 40
1.0
  9
$PROXYGRAPHICS
 70
     1
  9
$MEASUREMENT
 70
     0
  9
$CELWEIGHT
370
    -1
  9
$ENDCAPS
280
     0
  9
$JOINSTYLE
280
     0
  9
$LWDISPLAY
290
     1
  9
$INSUNITS
 70
     4
  9
$HYPERLINKBASE
  1

  9
$STYLESHEET
  1

  9
$XEDIT
290
     1
  9
$CEPSNTYPE
380
     0
  9
$PSTYLEMODE
290
     1
  9
$FINGERPRINTGUID
  2
{42739A80-2CC1-A848-9FB6-DE2DCF4E21C1}
  9
$VERSIONGUID
  2
{269CCBCA-FACC-934D-97BC-640D246D6CBF}
  9
$EXTNAMES
290
     1
  9
$PSVPSCALE
 40
0.0
  9
$OLESTARTUP
290
     0
  9
$SORTENTS
280
   127
  9
$INDEXCTL
280
     0
  9
$HIDETEXT
280
     1
  9
$XCLIPFRAME
280
     2
  9
$HALOGAP
280
     0
  9
$OBSCOLOR
 70
   257
  9
$OBSLTYPE
280
     0
  9
$INTERSECTIONDISPLAY
280
     0
  9
$INTERSECTIONCOLOR
 70
   257
  9
$DIMASSOC
280
     2
  9
$PROJECTNAME
  1

  9
$CAMERADISPLAY
290
     0
  9
$LENSLENGTH
 40
50.0
  9
$CAMERAHEIGHT
 40
0.0
  9
$STEPSPERSEC
 40
2.0
  9
$STEPSIZE
 40
6.0
  9
$3DDWFPREC
 40
2.0
  9
$PSOLWIDTH
 40
0.25
  9
$PSOLHEIGHT
 40
4.0
  9
$LOFTANG1
 40
1.570796326794896
  9
$LOFTANG2
 40
1.570796326794896
  9
$LOFTMAG1
 40
0.0
  9
$LOFTMAG2
 40
0.0
  9
$LOFTPARAM
 70
     7
  9
$LOFTNORMALS
280
     1
  9
$LATITUDE
 40
37.795
  9
$LONGITUDE
 40
-122.394
  9
$NORTHDIRECTION
 40
0.0
  9
$TIMEZONE
 70
 -8000
  9
$LIGHTGLYPHDISPLAY
280
     1
  9
$TILEMODELIGHTSYNCH
280
     1
  9
$CMATERIAL
347
11
  9
$SOLIDHIST
280
     0
  9
$SHOWHIST
280
     1
  9
$DWFFRAME
280
     2
  9
$DGNFRAME
280
     0
  9
$REALWORLDSCALE
290
     1
  9
$INTERFERECOLOR
 62
     1
  9
$INTERFEREOBJVS
345
33
  9
$INTERFEREVPVS
346
30
  9
$CSHADOW
280
     0
  9
$SHADOWPLANELOCATION
 40
0.0
  0
ENDSEC
  0
SECTION
  2
CLASSES
  0
CLASS
  1
ACDBDICTIONARYWDFLT
  2
AcDbDictionaryWithDefault
  3
ObjectDBX Classes
 90
        0
 91
        1
280
     0
281
     0
  0
CLASS
  1
MATERIAL
  2
AcDbMaterial
  3
ObjectDBX Classes
 90
     1153
 91
        3
280
     0
281
     0
  0
CLASS
  1
VISUALSTYLE
  2
AcDbVisualStyle
  3
ObjectDBX Classes
 90
     4095
 91
       24
280
     0
281
     0
  0
CLASS
  1
SCALE
  2
AcDbScale
  3
ObjectDBX Classes
 90
     1153
 91
       17
280
     0
281
     0
  0
CLASS
  1
TABLESTYLE
  2
AcDbTableStyle
  3
ObjectDBX Classes
 90
     4095
 91
        1
280
     0
281
     0
  0
CLASS
  1
MLEADERSTYLE
  2
AcDbMLeaderStyle
  3
ACDB_MLEADERSTYLE_CLASS
 90
     4095
 91
        1
280
     0
281
     0
  0
CLASS
  1
ACDBSECTIONVIEWSTYLE
  2
AcDbSectionViewStyle
  3
ObjectDBX Classes
 90
     1025
 91
        1
280
     0
281
     0
  0
CLASS
  1
ACDBDETAILVIEWSTYLE
  2
AcDbDetailViewStyle
  3
ObjectDBX Classes
 90
     1025
 91
        1
280
     0
281
     0
  0
CLASS
  1
DICTIONARYVAR
  2
AcDbDictionaryVar
  3
ObjectDBX Classes
 90
        0
 91
        5
280
     0
281
     0
  0
CLASS
  1
CELLSTYLEMAP
  2
AcDbCellStyleMap
  3
ObjectDBX Classes
 90
     1152
 91
        1
280
     0
281
     0
  0
ENDSEC
  0
SECTION
  2
TABLES
  0
TABLE
  2
VPORT
  5
8
330
0
100
AcDbSymbolTable
 70
     1
  0
VPORT
  5
57
330
8
100
AcDbSymbolTableRecord
100
AcDbViewportTableRecord
  2
*Active
 70
     0
 10
0.0
 20
0.0
 11
1.0
 21
1.0
 12
0.0
 22
0.0
 13
0.0
 23
0.0
 14
1.0
 24
1.0
 15
0.0
 25
0.0
 16
0.0
 26
0.0
 36
1.0
 17
299.9999999249995
 27
-299.9999999249995
 37
0.0
 40
611.999999846999
 41
1.0
 42
50.0
 43
0.0
 44
0.0
 50
0.0
 51
0.0
 71
     0
 72
   100
 73
     1
 74
     1
 75
     0
 76
     0
 77
     0
 78
     0
281
     0
 65
     1
110
0.0
120
0.0
130
0.0
111
1.0
121
0.0
131
0.0
112
0.0
122
1.0
132
0.0
 79
     0
146
0.0
 60
     3
 61
     5
292
     1
282
     1
141
0.0
142
0.0
 63
   250
421
  3355443
  0
ENDTAB
  0
TABLE
  2
LTYPE
  5
5
330
0
100
AcDbSymbolTable
 70
     1
  0
LTYPE
  5
5B
330
5
100
AcDbSymbolTableRecord
100
AcDbLinetypeTableRecord
  2
ByBlock
 70
     0
  3

 72
    65
 73
     0
 40
0.0
  0
LTYPE
  5
5C
330
5
100
AcDbSymbolTableRecord
100
AcDbLinetypeTableRecord
  2
ByLayer
 70
     0
  3

 72
    65
 73
     0
 40
0.0
  0
LTYPE
  5
5D
330
5
100
AcDbSymbolTableRecord
100
AcDbLinetypeTableRecord
  2
Continuous
 70
     0
  3
Solid line
 72
    65
 73
     0
 40
0.0
  0
ENDTAB
  0
TABLE
  2
LAYER
  5
2
330
0
100
AcDbSymbolTable
 70
     2
  0
LAYER
  5
54
330
2
100
AcDbSymbolTableRecord
100
AcDbLayerTableRecord
  2
0
 70
     0
 62
     7
  6
Continuous
370
    -3
390
F
347
21
348
0
  0
LAYER
  5
78
330
2
100
AcDbSymbolTableRecord
100
AcDbLayerTableRecord
  2
Layer 1
 70
     0
 62
     7
  6
Continuous
370
     0
390
F
347
21
348
0
  0
ENDTAB
  0
TABLE
  2
STYLE
  5
3
330
0
100
AcDbSymbolTable
 70
     2
  0
STYLE
  5
55
330
3
100
AcDbSymbolTableRecord
100
AcDbTextStyleTableRecord
  2
Standard
 70
     0
 40
0.0
 41
1.0
 50
0.0
 71
     0
 42
0.2
  3
txt
  4

  0
STYLE
  5
5A
330
3
100
AcDbSymbolTableRecord
100
AcDbTextStyleTableRecord
  2
Annotative
 70
     0
 40
0.0
 41
1.0
 50
0.0
 71
     0
 42
0.2
  3
txt
  4

1001
AcadAnnotative
1000
AnnotativeData
1002
{
1070
     1
1070
     1
1002
}
  0
ENDTAB
  0
TABLE
  2
VIEW
  5
6
330
0
100
AcDbSymbolTable
 70
     0
  0
ENDTAB
  0
TABLE
  2
UCS
  5
7
330
0
100
AcDbSymbolTable
 70
     0
  0
ENDTAB
  0
TABLE
  2
APPID
  5
9
330
0
100
AcDbSymbolTable
 70
     2
  0
APPID
  5
56
330
9
100
AcDbSymbolTableRecord
100
AcDbRegAppTableRecord
  2
ACAD
 70
     0
  0
APPID
  5
5E
330
9
100
AcDbSymbolTableRecord
100
AcDbRegAppTableRecord
  2
AcadAnnotative
 70
     0
  0
ENDTAB
  0
TABLE
  2
DIMSTYLE
  5
A
330
0
100
AcDbSymbolTable
 70
     2
100
AcDbDimStyleTable
 71
     0
  0
DIMSTYLE
105
58
330
A
100
AcDbSymbolTableRecord
100
AcDbDimStyleTableRecord
  2
Standard
 70
     0
340
55
  0
DIMSTYLE
105
59
330
A
100
AcDbSymbolTableRecord
100
AcDbDimStyleTableRecord
  2
Annotative
 70
     0
340
55
1001
AcadAnnotative
1000
AnnotativeData
1002
{
1070
     1
1070
     1
1002
}
  0
ENDTAB
  0
TABLE
  2
BLOCK_RECORD
  5
1
330
0
100
AcDbSymbolTable
 70
     1
  0
BLOCK_RECORD
  5
70
330
1
100
AcDbSymbolTableRecord
100
AcDbBlockTableRecord
  2
*Model_Space
340
73
 70
     0
280
     1
281
     0
  0
BLOCK_RECORD
  5
6C
330
1
100
AcDbSymbolTableRecord
100
AcDbBlockTableRecord
  2
*Paper_Space
340
6F
 70
     0
280
     1
281
     0
  0
BLOCK_RECORD
  5
74
330
1
100
AcDbSymbolTableRecord
100
AcDbBlockTableRecord
  2
*Paper_Space0
340
77
 70
     0
280
     1
281
     0
  0
ENDTAB
  0
ENDSEC
  0
SECTION
  2
BLOCKS
  0
BLOCK
  5
71
330
70
100
AcDbEntity
  8
0
100
AcDbBlockBegin
  2
*Model_Space
 70
     0
 10
0.0
 20
0.0
 30
0.0
  3
*Model_Space
  1

  0
ENDBLK
  5
72
330
70
100
AcDbEntity
  8
0
100
AcDbBlockEnd
  0
BLOCK
  5
6D
330
6C
100
AcDbEntity
 67
     1
  8
0
100
AcDbBlockBegin
  2
*Paper_Space
 70
     0
 10
0.0
 20
0.0
 30
0.0
  3
*Paper_Space
  1

  0
ENDBLK
  5
6E
330
6C
100
AcDbEntity
 67
     1
  8
0
100
AcDbBlockEnd
  0
BLOCK
  5
75
330
74
100
AcDbEntity
 67
     1
  8
0
100
AcDbBlockBegin
  2
*Paper_Space0
 70
     0
 10
0.0
 20
0.0
 30
0.0
  3
*Paper_Space0
  1

  0
ENDBLK
  5
76
330
74
100
AcDbEntity
 67
     1
  8
0
100
AcDbBlockEnd
  0
ENDSEC
  0
SECTION
  2
ENTITIES
  0
ELLIPSE
  5
79
330
70
100
AcDbEntity
  8
Layer 1
 62
   250
420
  2301728
370
    18
100
AcDbEllipse
 10
100.6075845891014
 20
-248.328214976167
 30
0.0
 11
3.131159984530845
 21
0.0
 31
0.0
210
0.0
220
0.0
230
1.0
 40
0.9837312896509871
 41
0.0
 42
6.283185307179586
  0
ELLIPSE
  5
7A
330
70
100
AcDbEntity
  8
Layer 1
 62
   250
420
  2301728
370
    18
100
AcDbEllipse
 10
81.56648702419937
 20
-227.7464176071086
 30
0.0
 11
3.131159984531167
 21
0.0
 31
0.0
210
0.0
220
0.0
230
1.0
 40
0.98373128965104
 41
0.0
 42
6.283185307179586
  0
ELLIPSE
  5
7B
330
70
100
AcDbEntity
  8
Layer 1
 62
   250
420
  2301728
370
    18
100
AcDbEllipse
 10
157.7468073898668
 20
-227.5931798079846
 30
0.0
 11
3.131159984530845
 21
0.0
 31
0.0
210
0.0
220
0.0
230
1.0
 40
0.9837312896509102
 41
0.0
 42
6.283185307179586
  0
ELLIPSE
  5
7C
330
70
100
AcDbEntity
  8
Layer 1
 62
   250
420
  2301728
370
    18
100
AcDbEllipse
 10
138.6959179882004
 20
-248.2630447449745
 30
0.0
 11
3.131159984531086
 21
0.0
 31
0.0
210
0.0
220
0.0
230
1.0
 40
0.9837312896508603
 41
0.0
 42
6.283185307179586
  0
ELLIPSE
  5
7D
330
70
100
AcDbEntity
  8
Layer 1
 62
   250
420
  2301728
370
    18
100
AcDbEllipse
 10
205.3728538428488
 20
-227.5045532888784
 30
0.0
 11
3.131159984530845
 21
0.0
 31
0.0
210
0.0
220
0.0
230
1.0
 40
0.9837312896512177
 41
0.0
 42
6.283185307179586
  0
ELLIPSE
  5
7E
330
70
100
AcDbEntity
  8
Layer 1
 62
   250
420
  2301728
370
    18
100
AcDbEllipse
 10
195.8318094541407
 20
-248.150202069156
 30
0.0
 11
3.131159984531086
 21
0.0
 31
0.0
210
0.0
220
0.0
230
1.0
 40
0.9837312896509626
 41
0.0
 42
6.283185307179586
  0
ELLIPSE
  5
7F
330
70
100
AcDbEntity
  8
Layer 1
 62
   250
420
  2301728
370
    18
100
AcDbEllipse
 10
100.6735141650264
 20
-268.9120090038627
 30
0.0
 11
3.131159984531247
 21
0.0
 31
0.0
210
0.0
220
0.0
230
1.0
 40
0.983731289650861
 41
0.0
 42
6.283185307179586
  0
ELLIPSE
  5
80
330
70
100
AcDbEntity
  8
Layer 1
 62
   250
420
  2301728
370
    18
100
AcDbEllipse
 10
157.8051627089296
 20
-268.8164124348798
 30
0.0
 11
3.131159984531086
 21
0.0
 31
0.0
210
0.0
220
0.0
230
1.0
 40
0.9837312896509114
 41
0.0
 42
6.283185307179586
  0
ELLIPSE
  5
81
330
70
100
AcDbEntity
  8
Layer 1
 62
   250
420
  2301728
370
    18
100
AcDbEllipse
 10
214.9064562992268
 20
-268.7063357521026
 30
0.0
 11
3.131159984531086
 21
0.0
 31
0.0
210
0.0
220
0.0
230
1.0
 40
0.9837312896509114
 41
0.0
 42
6.283185307179586
  0
ELLIPSE
  5
82
330
70
100
AcDbEntity
  8
Layer 1
 62
   250
420
  2301728
370
    18
100
AcDbEllipse
 10
252.9545826621153
 20
-248.0697029388228
 30
0.0
 11
3.131159984531086
 21
0.0
 31
0.0
210
0.0
220
0.0
230
1.0
 40
0.9837312896509114
 41
0.0
 42
6.283185307179586
  0
ELLIPSE
  5
83
330
70
100
AcDbEntity
  8
Layer 1
 62
   250
420
  2301728
370
    18
100
AcDbEllipse
 10
272.0416522416061
 20
-268.6991922276113
 30
0.0
 11
3.131159984531086
 21
0.0
 31
0.0
210
0.0
220
0.0
230
1.0
 40
0.9837312896509114
 41
0.0
 42
6.283185307179586
  0
ELLIPSE
  5
84
330
70
100
AcDbEntity
  8
Layer 1
 62
   250
420
  2301728
370
    18
100
AcDbEllipse
 10
291.1245780602635
 20
-227.4879129217943
 30
0.0
 11
3.131159984531247
 21
0.0
 31
0.0
210
0.0
220
0.0
230
1.0
 40
0.983731289651066
 41
0.0
 42
6.283185307179586
  0
ELLIPSE
  5
85
330
70
100
AcDbEntity
  8
Layer 1
 62
   250
420
  2301728
370
    18
100
AcDbEllipse
 10
310.1094052598954
 20
-248.070432471576
 30
0.0
 11
3.131159984531487
 21
0.0
 31
0.0
210
0.0
220
0.0
230
1.0
 40
0.9837312896507597
 41
0.0
 42
6.283185307179586
  0
ELLIPSE
  5
86
330
70
100
AcDbEntity
  8
Layer 1
 62
   250
420
  2301728
370
    18
100
AcDbEllipse
 10
348.254662176111
 20
-227.4575245726303
 30
0.0
 11
3.131159984530525
 21
0.0
 31
0.0
210
0.0
220
0.0
230
1.0
 40
0.9837312896509342
 41
0.0
 42
6.283185307179586
  0
ELLIPSE
  5
87
330
70
100
AcDbEntity
  8
Layer 1
 62
   250
420
  2301728
370
    18
100
AcDbEllipse
 10
347.0827845901904
 20
-248.0733521791224
 30
0.0
 11
3.131159984531487
 21
0.0
 31
0.0
210
0.0
220
0.0
230
1.0
 40
0.9837312896507855
 41
0.0
 42
6.283185307179586
  0
ELLIPSE
  5
88
330
70
100
AcDbEntity
  8
Layer 1
 62
   250
420
  2301728
370
    18
100
AcDbEllipse
 10
348.2042646686524
 20
-268.6738176203698
 30
0.0
 11
3.131159984531487
 21
0.0
 31
0.0
210
0.0
220
0.0
230
1.0
 40
0.9837312896507086
 41
0.0
 42
6.283185307179586
  0
ELLIPSE
  5
89
330
70
100
AcDbEntity
  8
Layer 1
 62
   250
420
  2301728
370
    18
100
AcDbEllipse
 10
433.3467939784725
 20
-227.5096690298277
 30
0.0
 11
3.131159984531808
 21
0.0
 31
0.0
210
0.0
220
0.0
230
1.0
 40
0.983731289650864
 41
0.0
 42
6.283185307179586
  0
ELLIPSE
  5
8A
330
70
100
AcDbEntity
  8
Layer 1
 62
   250
420
  2301728
370
    18
100
AcDbEllipse
 10
414.1919970952761
 20
-248.1195380204928
 30
0.0
 11
3.131159984530845
 21
0.0
 31
0.0
210
0.0
220
0.0
230
1.0
 40
0.983731289651064
 41
0.0
 42
6.283185307179586
  0
ELLIPSE
  5
8B
330
70
100
AcDbEntity
  8
Layer 1
 62
   250
420
  2301728
370
    18
100
AcDbEllipse
 10
414.1519970952852
 20
-268.7169049802952
 30
0.0
 11
3.1311599845286
 21
0.0
 31
0.0
210
0.0
220
0.0
230
1.0
 40
0.9837312896517438
 41
0.0
 42
6.283185307179586
  0
ELLIPSE
  5
8C
330
70
100
AcDbEntity
  8
Layer 1
 62
   250
420
  2301728
370
    18
100
AcDbEllipse
 10
480.1773332905792
 20
-268.8232649936765
 30
0.0
 11
3.131159984530525
 21
0.0
 31
0.0
210
0.0
220
0.0
230
1.0
 40
0.9837312896510621
 41
0.0
 42
6.283185307179586
  0
ELLIPSE
  5
8D
330
70
100
AcDbEntity
  8
Layer 1
 62
   250
420
  2301728
370
    18
100
AcDbEllipse
 10
518.2692727236697
 20
-268.8626142452526
 30
0.0
 11
3.131159984531487
 21
0.0
 31
0.0
210
0.0
220
0.0
230
1.0
 40
0.9837312896507855
 41
0.0
 42
6.283185307179586
  0
SPLINE
  5
8E
330
70
100
AcDbEntity
  8
Layer 1
 62
   250
420
  2301728
370
    18
100
AcDbSpline
210
0.0
220
0.0
230
1.0
 70
     9
 71
     3
 72
    23
 73
    19
 74
     0
 42
0.0000000001
 43
0.0000000001
 40
0.0
 40
0.0
 40
0.0
 40
0.0
 40
1.0
 40
1.0
 40
1.0
 40
2.0
 40
2.0
 40
2.0
 40
3.0
 40
3.0
 40
3.0
 40
4.0
 40
4.0
 40
4.0
 40
5.0
 40
5.0
 40
5.0
 40
6.0
 40
6.0
 40
6.0
 40
6.0
 10
85.01513029936118
 20
-291.5471902181378
 30
0.0
 10
86.0938112276397
 20
-291.5471902181378
 30
0.0
 10
86.96824105733645
 20
-290.6869862340615
 30
0.0
 10
86.96824105733645
 20
-289.625854053364
 30
0.0
 10
86.96824105733645
 20
-288.5647430542182
 30
0.0
 10
86.0938112276397
 20
-287.7045390701412
 30
0.0
 10
85.01513029936118
 20
-287.7045390701412
 30
0.0
 10
85.01513029936118
 20
-287.7045390701412
 30
0.0
 10
82.85417262439144
 20
-287.7045390701412
 30
0.0
 10
82.85417262439144
 20
-287.7045390701412
 30
0.0
 10
81.77551322795972
 20
-287.7045390701412
 30
0.0
 10
80.90108339826297
 20
-288.5647430542182
 30
0.0
 10
80.90108339826297
 20
-289.625854053364
 30
0.0
 10
80.90108339826297
 20
-290.6869862340615
 30
0.0
 10
81.77551322795972
 20
-291.5471902181378
 30
0.0
 10
82.85417262439144
 20
-291.5471902181378
 30
0.0
 10
82.85417262439144
 20
-291.5471902181378
 30
0.0
 10
85.01513029936118
 20
-291.5471902181378
 30
0.0
 10
85.01513029936118
 20
-291.5471902181378
 30
0.0
  0
SPLINE
  5
8F
330
70
100
AcDbEntity
  8
Layer 1
 62
   250
420
  2301728
370
    18
100
AcDbSpline
210
0.0
220
0.0
230
1.0
 70
     9
 71
     3
 72
    23
 73
    19
 74
     0
 42
0.0000000001
 43
0.0000000001
 40
0.0
 40
0.0
 40
0.0
 40
0.0
 40
1.0
 40
1.0
 40
1.0
 40
2.0
 40
2.0
 40
2.0
 40
3.0
 40
3.0
 40
3.0
 40
4.0
 40
4.0
 40
4.0
 40
5.0
 40
5.0
 40
5.0
 40
6.0
 40
6.0
 40
6.0
 40
6.0
 10
149.4031668334762
 20
-291.4260864460431
 30
0.0
 10
150.4818477617547
 20
-291.4260864460431
 30
0.0
 10
151.3562775914514
 20
-290.5658824619662
 30
0.0
 10
151.3562775914514
 20
-289.5047502812694
 30
0.0
 10
151.3562775914514
 20
-288.4436392821235
 30
0.0
 10
150.4818477617547
 20
-287.5834352980466
 30
0.0
 10
149.4031668334762
 20
-287.5834352980466
 30
0.0
 10
149.4031668334762
 20
-287.5834352980466
 30
0.0
 10
147.2422091585064
 20
-287.5834352980466
 30
0.0
 10
147.2422091585064
 20
-287.5834352980466
 30
0.0
 10
146.1635497620747
 20
-287.5834352980466
 30
0.0
 10
145.289119932378
 20
-288.4436392821235
 30
0.0
 10
145.289119932378
 20
-289.5047502812694
 30
0.0
 10
145.289119932378
 20
-290.5658824619662
 30
0.0
 10
146.1635497620747
 20
-291.4260864460431
 30
0.0
 10
147.2422091585064
 20
-291.4260864460431
 30
0.0
 10
147.2422091585064
 20
-291.4260864460431
 30
0.0
 10
149.4031668334762
 20
-291.4260864460431
 30
0.0
 10
149.4031668334762
 20
-291.4260864460431
 30
0.0
  0
SPLINE
  5
90
330
70
100
AcDbEntity
  8
Layer 1
 62
   250
420
  2301728
370
    18
100
AcDbSpline
210
0.0
220
0.0
230
1.0
 70
     9
 71
     3
 72
    23
 73
    19
 74
     0
 42
0.0000000001
 43
0.0000000001
 40
0.0
 40
0.0
 40
0.0
 40
0.0
 40
1.0
 40
1.0
 40
1.0
 40
2.0
 40
2.0
 40
2.0
 40
3.0
 40
3.0
 40
3.0
 40
4.0
 40
4.0
 40
4.0
 40
5.0
 40
5.0
 40
5.0
 40
6.0
 40
6.0
 40
6.0
 40
6.0
 10
225.4993683686294
 20
-291.2873796152427
 30
0.0
 10
226.5780492969076
 20
-291.2873796152427
 30
0.0
 10
227.4524791266046
 20
-290.4271756311657
 30
0.0
 10
227.4524791266046
 20
-289.3660434504689
 30
0.0
 10
227.4524791266046
 20
-288.3049324513231
 30
0.0
 10
226.5780492969076
 20
-287.4447284672461
 30
0.0
 10
225.4993683686294
 20
-287.4447284672461
 30
0.0
 10
225.4993683686294
 20
-287.4447284672461
 30
0.0
 10
223.3384106936596
 20
-287.4447284672461
 30
0.0
 10
223.3384106936596
 20
-287.4447284672461
 30
0.0
 10
222.2597512972279
 20
-287.4447284672461
 30
0.0
 10
221.3853214675311
 20
-288.3049324513231
 30
0.0
 10
221.3853214675311
 20
-289.3660434504689
 30
0.0
 10
221.3853214675311
 20
-290.4271756311657
 30
0.0
 10
222.2597512972279
 20
-291.2873796152427
 30
0.0
 10
223.3384106936596
 20
-291.2873796152427
 30
0.0
 10
223.3384106936596
 20
-291.2873796152427
 30
0.0
 10
225.4993683686294
 20
-291.2873796152427
 30
0.0
 10
225.4993683686294
 20
-291.2873796152427
 30
0.0
  0
SPLINE
  5
91
330
70
100
AcDbEntity
  8
Layer 1
 62
   250
420
  2301728
370
    18
100
AcDbSpline
210
0.0
220
0.0
230
1.0
 70
     9
 71
     3
 72
    23
 73
    19
 74
     0
 42
0.0000000001
 43
0.0000000001
 40
0.0
 40
0.0
 40
0.0
 40
0.0
 40
1.0
 40
1.0
 40
1.0
 40
2.0
 40
2.0
 40
2.0
 40
3.0
 40
3.0
 40
3.0
 40
4.0
 40
4.0
 40
4.0
 40
5.0
 40
5.0
 40
5.0
 40
6.0
 40
6.0
 40
6.0
 40
6.0
 10
125.8493636140612
 20
-332.7499669461172
 30
0.0
 10
126.9280445423401
 20
-332.7499669461172
 30
0.0
 10
127.8024743720365
 20
-331.8897629620402
 30
0.0
 10
127.8024743720365
 20
-330.8286307813427
 30
0.0
 10
127.8024743720365
 20
-329.7675197821969
 30
0.0
 10
126.9280445423401
 20
-328.9073157981206
 30
0.0
 10
125.8493636140612
 20
-328.9073157981206
 30
0.0
 10
125.8493636140612
 20
-328.9073157981206
 30
0.0
 10
123.6884059390915
 20
-328.9073157981206
 30
0.0
 10
123.6884059390915
 20
-328.9073157981206
 30
0.0
 10
122.6097465426597
 20
-328.9073157981206
 30
0.0
 10
121.735316712963
 20
-329.7675197821969
 30
0.0
 10
121.735316712963
 20
-330.8286307813427
 30
0.0
 10
121.735316712963
 20
-331.8897629620402
 30
0.0
 10
122.6097465426597
 20
-332.7499669461172
 30
0.0
 10
123.6884059390915
 20
-332.7499669461172
 30
0.0
 10
123.6884059390915
 20
-332.7499669461172
 30
0.0
 10
125.8493636140612
 20
-332.7499669461172
 30
0.0
 10
125.8493636140612
 20
-332.7499669461172
 30
0.0
  0
SPLINE
  5
92
330
70
100
AcDbEntity
  8
Layer 1
 62
   250
420
  2301728
370
    18
100
AcDbSpline
210
0.0
220
0.0
230
1.0
 70
     9
 71
     3
 72
    23
 73
    19
 74
     0
 42
0.0000000001
 43
0.0000000001
 40
0.0
 40
0.0
 40
0.0
 40
0.0
 40
1.0
 40
1.0
 40
1.0
 40
2.0
 40
2.0
 40
2.0
 40
3.0
 40
3.0
 40
3.0
 40
4.0
 40
4.0
 40
4.0
 40
5.0
 40
5.0
 40
5.0
 40
6.0
 40
6.0
 40
6.0
 40
6.0
 10
106.790631231462
 20
-353.5091573014537
 30
0.0
 10
107.8693121597408
 20
-353.5091573014537
 30
0.0
 10
108.7437419894373
 20
-352.6489533173773
 30
0.0
 10
108.7437419894373
 20
-351.5878211366799
 30
0.0
 10
108.7437419894373
 20
-350.526710137534
 30
0.0
 10
107.8693121597408
 20
-349.6665061534571
 30
0.0
 10
106.790631231462
 20
-349.6665061534571
 30
0.0
 10
106.790631231462
 20
-349.6665061534571
 30
0.0
 10
104.6296735564926
 20
-349.6665061534571
 30
0.0
 10
104.6296735564926
 20
-349.6665061534571
 30
0.0
 10
103.5510141600608
 20
-349.6665061534571
 30
0.0
 10
102.6765843303638
 20
-350.526710137534
 30
0.0
 10
102.6765843303638
 20
-351.5878211366799
 30
0.0
 10
102.6765843303638
 20
-352.6489533173773
 30
0.0
 10
103.5510141600608
 20
-353.5091573014537
 30
0.0
 10
104.6296735564926
 20
-353.5091573014537
 30
0.0
 10
104.6296735564926
 20
-353.5091573014537
 30
0.0
 10
106.790631231462
 20
-353.5091573014537
 30
0.0
 10
106.790631231462
 20
-353.5091573014537
 30
0.0
  0
SPLINE
  5
93
330
70
100
AcDbEntity
  8
Layer 1
 62
   250
420
  2301728
370
    18
100
AcDbSpline
210
0.0
220
0.0
230
1.0
 70
     9
 71
     3
 72
    23
 73
    19
 74
     0
 42
0.0000000001
 43
0.0000000001
 40
0.0
 40
0.0
 40
0.0
 40
0.0
 40
1.0
 40
1.0
 40
1.0
 40
2.0
 40
2.0
 40
2.0
 40
3.0
 40
3.0
 40
3.0
 40
4.0
 40
4.0
 40
4.0
 40
5.0
 40
5.0
 40
5.0
 40
6.0
 40
6.0
 40
6.0
 40
6.0
 10
177.9240559489864
 20
-353.3742014683102
 30
0.0
 10
179.0027368772649
 20
-353.3742014683102
 30
0.0
 10
179.8771667069616
 20
-352.5139974842339
 30
0.0
 10
179.8771667069616
 20
-351.4528653035364
 30
0.0
 10
179.8771667069616
 20
-350.3917543043906
 30
0.0
 10
179.0027368772649
 20
-349.5315503203137
 30
0.0
 10
177.9240559489864
 20
-349.5315503203137
 30
0.0
 10
177.9240559489864
 20
-349.5315503203137
 30
0.0
 10
175.7630982740167
 20
-349.5315503203137
 30
0.0
 10
175.7630982740167
 20
-349.5315503203137
 30
0.0
 10
174.6844388775849
 20
-349.5315503203137
 30
0.0
 10
173.8100090478881
 20
-350.3917543043906
 30
0.0
 10
173.8100090478881
 20
-351.4528653035364
 30
0.0
 10
173.8100090478881
 20
-352.5139974842339
 30
0.0
 10
174.6844388775849
 20
-353.3742014683102
 30
0.0
 10
175.7630982740167
 20
-353.3742014683102
 30
0.0
 10
175.7630982740167
 20
-353.3742014683102
 30
0.0
 10
177.9240559489864
 20
-353.3742014683102
 30
0.0
 10
177.9240559489864
 20
-353.3742014683102
 30
0.0
  0
SPLINE
  5
94
330
70
100
AcDbEntity
  8
Layer 1
 62
   250
420
  2301728
370
    18
100
AcDbSpline
210
0.0
220
0.0
230
1.0
 70
     9
 71
     3
 72
    23
 73
    19
 74
     0
 42
0.0000000001
 43
0.0000000001
 40
0.0
 40
0.0
 40
0.0
 40
0.0
 40
1.0
 40
1.0
 40
1.0
 40
2.0
 40
2.0
 40
2.0
 40
3.0
 40
3.0
 40
3.0
 40
4.0
 40
4.0
 40
4.0
 40
5.0
 40
5.0
 40
5.0
 40
6.0
 40
6.0
 40
6.0
 40
6.0
 10
202.0159688008772
 20
-332.6063230411593
 30
0.0
 10
203.094649729156
 20
-332.6063230411593
 30
0.0
 10
203.9690795588524
 20
-331.7461190570824
 30
0.0
 10
203.9690795588524
 20
-330.6849868763849
 30
0.0
 10
203.9690795588524
 20
-329.6238758772391
 30
0.0
 10
203.094649729156
 20
-328.7636718931627
 30
0.0
 10
202.0159688008772
 20
-328.7636718931627
 30
0.0
 10
202.0159688008772
 20
-328.7636718931627
 30
0.0
 10
199.8550111259077
 20
-328.7636718931627
 30
0.0
 10
199.8550111259077
 20
-328.7636718931627
 30
0.0
 10
198.776351729476
 20
-328.7636718931627
 30
0.0
 10
197.9019218997789
 20
-329.6238758772391
 30
0.0
 10
197.9019218997789
 20
-330.6849868763849
 30
0.0
 10
197.9019218997789
 20
-331.7461190570824
 30
0.0
 10
198.776351729476
 20
-332.6063230411593
 30
0.0
 10
199.8550111259077
 20
-332.6063230411593
 30
0.0
 10
199.8550111259077
 20
-332.6063230411593
 30
0.0
 10
202.0159688008772
 20
-332.6063230411593
 30
0.0
 10
202.0159688008772
 20
-332.6063230411593
 30
0.0
  0
SPLINE
  5
95
330
70
100
AcDbEntity
  8
Layer 1
 62
   250
420
  2301728
370
    18
100
AcDbSpline
210
0.0
220
0.0
230
1.0
 70
     9
 71
     3
 72
    23
 73
    19
 74
     0
 42
0.0000000001
 43
0.0000000001
 40
0.0
 40
0.0
 40
0.0
 40
0.0
 40
1.0
 40
1.0
 40
1.0
 40
2.0
 40
2.0
 40
2.0
 40
3.0
 40
3.0
 40
3.0
 40
4.0
 40
4.0
 40
4.0
 40
5.0
 40
5.0
 40
5.0
 40
6.0
 40
6.0
 40
6.0
 40
6.0
 10
234.8906487036213
 20
-353.2836451896118
 30
0.0
 10
235.9693296318996
 20
-353.2836451896118
 30
0.0
 10
236.8437594615966
 20
-352.4234412055355
 30
0.0
 10
236.8437594615966
 20
-351.3623090248381
 30
0.0
 10
236.8437594615966
 20
-350.3011980256922
 30
0.0
 10
235.9693296318996
 20
-349.4409940416152
 30
0.0
 10
234.8906487036213
 20
-349.4409940416152
 30
0.0
 10
234.8906487036213
 20
-349.4409940416152
 30
0.0
 10
232.7296910286513
 20
-349.4409940416152
 30
0.0
 10
232.7296910286513
 20
-349.4409940416152
 30
0.0
 10
231.6510316322196
 20
-349.4409940416152
 30
0.0
 10
230.7766018025231
 20
-350.3011980256922
 30
0.0
 10
230.7766018025231
 20
-351.3623090248381
 30
0.0
 10
230.7766018025231
 20
-352.4234412055355
 30
0.0
 10
231.6510316322196
 20
-353.2836451896118
 30
0.0
 10
232.7296910286513
 20
-353.2836451896118
 30
0.0
 10
232.7296910286513
 20
-353.2836451896118
 30
0.0
 10
234.8906487036213
 20
-353.2836451896118
 30
0.0
 10
234.8906487036213
 20
-353.2836451896118
 30
0.0
  0
SPLINE
  5
96
330
70
100
AcDbEntity
  8
Layer 1
 62
   250
420
  2301728
370
    18
100
AcDbSpline
210
0.0
220
0.0
230
1.0
 70
     9
 71
     3
 72
    23
 73
    19
 74
     0
 42
0.0000000001
 43
0.0000000001
 40
0.0
 40
0.0
 40
0.0
 40
0.0
 40
1.0
 40
1.0
 40
1.0
 40
2.0
 40
2.0
 40
2.0
 40
3.0
 40
3.0
 40
3.0
 40
4.0
 40
4.0
 40
4.0
 40
5.0
 40
5.0
 40
5.0
 40
6.0
 40
6.0
 40
6.0
 40
6.0
 10
240.0034685855836
 20
-332.5357779151499
 30
0.0
 10
241.0821495138621
 20
-332.5357779151499
 30
0.0
 10
241.9565793435589
 20
-331.6755739310729
 30
0.0
 10
241.9565793435589
 20
-330.6144417503761
 30
0.0
 10
241.9565793435589
 20
-329.5533307512303
 30
0.0
 10
241.0821495138621
 20
-328.6931267671533
 30
0.0
 10
240.0034685855836
 20
-328.6931267671533
 30
0.0
 10
240.0034685855836
 20
-328.6931267671533
 30
0.0
 10
237.8425109106139
 20
-328.6931267671533
 30
0.0
 10
237.8425109106139
 20
-328.6931267671533
 30
0.0
 10
236.7638515141821
 20
-328.6931267671533
 30
0.0
 10
235.8894216844854
 20
-329.5533307512303
 30
0.0
 10
235.8894216844854
 20
-330.6144417503761
 30
0.0
 10
235.8894216844854
 20
-331.6755739310729
 30
0.0
 10
236.7638515141821
 20
-332.5357779151499
 30
0.0
 10
237.8425109106139
 20
-332.5357779151499
 30
0.0
 10
237.8425109106139
 20
-332.5357779151499
 30
0.0
 10
240.0034685855836
 20
-332.5357779151499
 30
0.0
 10
240.0034685855836
 20
-332.5357779151499
 30
0.0
  0
SPLINE
  5
97
330
70
100
AcDbEntity
  8
Layer 1
 62
   250
420
  2301728
370
    18
100
AcDbSpline
210
0.0
220
0.0
230
1.0
 70
     9
 71
     3
 72
    23
 73
    19
 74
     0
 42
0.0000000001
 43
0.0000000001
 40
0.0
 40
0.0
 40
0.0
 40
0.0
 40
1.0
 40
1.0
 40
1.0
 40
2.0
 40
2.0
 40
2.0
 40
3.0
 40
3.0
 40
3.0
 40
4.0
 40
4.0
 40
4.0
 40
5.0
 40
5.0
 40
5.0
 40
6.0
 40
6.0
 40
6.0
 40
6.0
 10
277.9571772431663
 20
-353.2934825025061
 30
0.0
 10
279.0358581714448
 20
-353.2934825025061
 30
0.0
 10
279.9102880011416
 20
-352.4332785184291
 30
0.0
 10
279.9102880011416
 20
-351.3721463377317
 30
0.0
 10
279.9102880011416
 20
-350.3110353385864
 30
0.0
 10
279.0358581714448
 20
-349.4508313545095
 30
0.0
 10
277.9571772431663
 20
-349.4508313545095
 30
0.0
 10
277.9571772431663
 20
-349.4508313545095
 30
0.0
 10
275.7962195681965
 20
-349.4508313545095
 30
0.0
 10
275.7962195681965
 20
-349.4508313545095
 30
0.0
 10
274.7175601717648
 20
-349.4508313545095
 30
0.0
 10
273.8431303420681
 20
-350.3110353385864
 30
0.0
 10
273.8431303420681
 20
-351.3721463377317
 30
0.0
 10
273.8431303420681
 20
-352.4332785184291
 30
0.0
 10
274.7175601717648
 20
-353.2934825025061
 30
0.0
 10
275.7962195681965
 20
-353.2934825025061
 30
0.0
 10
275.7962195681965
 20
-353.2934825025061
 30
0.0
 10
277.9571772431663
 20
-353.2934825025061
 30
0.0
 10
277.9571772431663
 20
-353.2934825025061
 30
0.0
  0
SPLINE
  5
98
330
70
100
AcDbEntity
  8
Layer 1
 62
   250
420
  2301728
370
    18
100
AcDbSpline
210
0.0
220
0.0
230
1.0
 70
     9
 71
     3
 72
    23
 73
    19
 74
     0
 42
0.0000000001
 43
0.0000000001
 40
0.0
 40
0.0
 40
0.0
 40
0.0
 40
1.0
 40
1.0
 40
1.0
 40
2.0
 40
2.0
 40
2.0
 40
3.0
 40
3.0
 40
3.0
 40
4.0
 40
4.0
 40
4.0
 40
5.0
 40
5.0
 40
5.0
 40
6.0
 40
6.0
 40
6.0
 40
6.0
 10
344.6890466736779
 20
-353.2844019100013
 30
0.0
 10
345.7677276019564
 20
-353.2844019100013
 30
0.0
 10
346.6421574316532
 20
-352.424197925925
 30
0.0
 10
346.6421574316532
 20
-351.3630657452276
 30
0.0
 10
346.6421574316532
 20
-350.3019547460817
 30
0.0
 10
345.7677276019564
 20
-349.4417507620048
 30
0.0
 10
344.6890466736779
 20
-349.4417507620048
 30
0.0
 10
344.6890466736779
 20
-349.4417507620048
 30
0.0
 10
342.5280889987082
 20
-349.4417507620048
 30
0.0
 10
342.5280889987082
 20
-349.4417507620048
 30
0.0
 10
341.4494296022764
 20
-349.4417507620048
 30
0.0
 10
340.5749997725797
 20
-350.3019547460817
 30
0.0
 10
340.5749997725797
 20
-351.3630657452276
 30
0.0
 10
340.5749997725797
 20
-352.424197925925
 30
0.0
 10
341.4494296022764
 20
-353.2844019100013
 30
0.0
 10
342.5280889987082
 20
-353.2844019100013
 30
0.0
 10
342.5280889987082
 20
-353.2844019100013
 30
0.0
 10
344.6890466736779
 20
-353.2844019100013
 30
0.0
 10
344.6890466736779
 20
-353.2844019100013
 30
0.0
  0
SPLINE
  5
99
330
70
100
AcDbEntity
  8
Layer 1
 62
   250
420
  2301728
370
    18
100
AcDbSpline
210
0.0
220
0.0
230
1.0
 70
     9
 71
     3
 72
    23
 73
    19
 74
     0
 42
0.0000000001
 43
0.0000000001
 40
0.0
 40
0.0
 40
0.0
 40
0.0
 40
1.0
 40
1.0
 40
1.0
 40
2.0
 40
2.0
 40
2.0
 40
3.0
 40
3.0
 40
3.0
 40
4.0
 40
4.0
 40
4.0
 40
5.0
 40
5.0
 40
5.0
 40
6.0
 40
6.0
 40
6.0
 40
6.0
 10
316.1622774808429
 20
-332.5751271667257
 30
0.0
 10
317.2409584091214
 20
-332.5751271667257
 30
0.0
 10
318.1153882388182
 20
-331.7149231826494
 30
0.0
 10
318.1153882388182
 20
-330.6537910019519
 30
0.0
 10
318.1153882388182
 20
-329.592680002806
 30
0.0
 10
317.2409584091214
 20
-328.7324760187291
 30
0.0
 10
316.1622774808429
 20
-328.7324760187291
 30
0.0
 10
316.1622774808429
 20
-328.7324760187291
 30
0.0
 10
314.0013198058732
 20
-328.7324760187291
 30
0.0
 10
314.0013198058732
 20
-328.7324760187291
 30
0.0
 10
312.9226604094414
 20
-328.7324760187291
 30
0.0
 10
312.0482305797446
 20
-329.592680002806
 30
0.0
 10
312.0482305797446
 20
-330.6537910019519
 30
0.0
 10
312.0482305797446
 20
-331.7149231826494
 30
0.0
 10
312.9226604094414
 20
-332.5751271667257
 30
0.0
 10
314.0013198058732
 20
-332.5751271667257
 30
0.0
 10
314.0013198058732
 20
-332.5751271667257
 30
0.0
 10
316.1622774808429
 20
-332.5751271667257
 30
0.0
 10
316.1622774808429
 20
-332.5751271667257
 30
0.0
  0
SPLINE
  5
9A
330
70
100
AcDbEntity
  8
Layer 1
 62
   250
420
  2301728
370
    18
100
AcDbSpline
210
0.0
220
0.0
230
1.0
 70
     9
 71
     3
 72
    23
 73
    19
 74
     0
 42
0.0000000001
 43
0.0000000001
 40
0.0
 40
0.0
 40
0.0
 40
0.0
 40
1.0
 40
1.0
 40
1.0
 40
2.0
 40
2.0
 40
2.0
 40
3.0
 40
3.0
 40
3.0
 40
4.0
 40
4.0
 40
4.0
 40
5.0
 40
5.0
 40
5.0
 40
6.0
 40
6.0
 40
6.0
 40
6.0
 10
301.6215377321208
 20
-291.2700029856661
 30
0.0
 10
302.7002186603993
 20
-291.2700029856661
 30
0.0
 10
303.5746484900961
 20
-290.4097990015891
 30
0.0
 10
303.5746484900961
 20
-289.3486668208916
 30
0.0
 10
303.5746484900961
 20
-288.2875558217458
 30
0.0
 10
302.7002186603993
 20
-287.4273518376695
 30
0.0
 10
301.6215377321208
 20
-287.4273518376695
 30
0.0
 10
301.6215377321208
 20
-287.4273518376695
 30
0.0
 10
299.4605800571514
 20
-287.4273518376695
 30
0.0
 10
299.4605800571514
 20
-287.4273518376695
 30
0.0
 10
298.38192066072
 20
-287.4273518376695
 30
0.0
 10
297.5074908310229
 20
-288.2875558217458
 30
0.0
 10
297.5074908310229
 20
-289.3486668208916
 30
0.0
 10
297.5074908310229
 20
-290.4097990015891
 30
0.0
 10
298.38192066072
 20
-291.2700029856661
 30
0.0
 10
299.4605800571514
 20
-291.2700029856661
 30
0.0
 10
299.4605800571514
 20
-291.2700029856661
 30
0.0
 10
301.6215377321208
 20
-291.2700029856661
 30
0.0
 10
301.6215377321208
 20
-291.2700029856661
 30
0.0
  0
SPLINE
  5
9B
330
70
100
AcDbEntity
  8
Layer 1
 62
   250
420
  2301728
370
    18
100
AcDbSpline
210
0.0
220
0.0
230
1.0
 70
     9
 71
     3
 72
    23
 73
    19
 74
     0
 42
0.0000000001
 43
0.0000000001
 40
0.0
 40
0.0
 40
0.0
 40
0.0
 40
1.0
 40
1.0
 40
1.0
 40
2.0
 40
2.0
 40
2.0
 40
3.0
 40
3.0
 40
3.0
 40
4.0
 40
4.0
 40
4.0
 40
5.0
 40
5.0
 40
5.0
 40
6.0
 40
6.0
 40
6.0
 40
6.0
 10
377.1019850342741
 20
-291.2880115740331
 30
0.0
 10
378.18066596255
 20
-291.2880115740331
 30
0.0
 10
379.0550957922481
 20
-290.4278075899561
 30
0.0
 10
379.0550957922481
 20
-289.3666754092588
 30
0.0
 10
379.0550957922481
 20
-288.3055644101129
 30
0.0
 10
378.18066596255
 20
-287.4453604260359
 30
0.0
 10
377.1019850342741
 20
-287.4453604260359
 30
0.0
 10
377.1019850342741
 20
-287.4453604260359
 30
0.0
 10
374.9410273593031
 20
-287.4453604260359
 30
0.0
 10
374.9410273593031
 20
-287.4453604260359
 30
0.0
 10
373.8623679628714
 20
-287.4453604260359
 30
0.0
 10
372.9879381331746
 20
-288.3055644101129
 30
0.0
 10
372.9879381331746
 20
-289.3666754092588
 30
0.0
 10
372.9879381331746
 20
-290.4278075899561
 30
0.0
 10
373.8623679628714
 20
-291.2880115740331
 30
0.0
 10
374.9410273593031
 20
-291.2880115740331
 30
0.0
 10
374.9410273593031
 20
-291.2880115740331
 30
0.0
 10
377.1019850342741
 20
-291.2880115740331
 30
0.0
 10
377.1019850342741
 20
-291.2880115740331
 30
0.0
  0
SPLINE
  5
9C
330
70
100
AcDbEntity
  8
Layer 1
 62
   250
420
  2301728
370
    18
100
AcDbSpline
210
0.0
220
0.0
230
1.0
 70
     9
 71
     3
 72
    23
 73
    19
 74
     0
 42
0.0000000001
 43
0.0000000001
 40
0.0
 40
0.0
 40
0.0
 40
0.0
 40
1.0
 40
1.0
 40
1.0
 40
2.0
 40
2.0
 40
2.0
 40
3.0
 40
3.0
 40
3.0
 40
4.0
 40
4.0
 40
4.0
 40
5.0
 40
5.0
 40
5.0
 40
6.0
 40
6.0
 40
6.0
 40
6.0
 10
443.0812419418014
 20
-291.370770278158
 30
0.0
 10
444.1599228700773
 20
-291.370770278158
 30
0.0
 10
445.0343526997754
 20
-290.510566294081
 30
0.0
 10
445.0343526997754
 20
-289.4494341133836
 30
0.0
 10
445.0343526997754
 20
-288.3883231142377
 30
0.0
 10
444.1599228700773
 20
-287.5281191301608
 30
0.0
 10
443.0812419418014
 20
-287.5281191301608
 30
0.0
 10
443.0812419418014
 20
-287.5281191301608
 30
0.0
 10
440.9202842668304
 20
-287.5281191301608
 30
0.0
 10
440.9202842668304
 20
-287.5281191301608
 30
0.0
 10
439.8416248703987
 20
-287.5281191301608
 30
0.0
 10
438.9671950407019
 20
-288.3883231142377
 30
0.0
 10
438.9671950407019
 20
-289.4494341133836
 30
0.0
 10
438.9671950407019
 20
-290.510566294081
 30
0.0
 10
439.8416248703987
 20
-291.370770278158
 30
0.0
 10
440.9202842668304
 20
-291.370770278158
 30
0.0
 10
440.9202842668304
 20
-291.370770278158
 30
0.0
 10
443.0812419418014
 20
-291.370770278158
 30
0.0
 10
443.0812419418014
 20
-291.370770278158
 30
0.0
  0
SPLINE
  5
9D
330
70
100
AcDbEntity
  8
Layer 1
 62
   250
420
  2301728
370
    18
100
AcDbSpline
210
0.0
220
0.0
230
1.0
 70
     9
 71
     3
 72
    23
 73
    19
 74
     0
 42
0.0000000001
 43
0.0000000001
 40
0.0
 40
0.0
 40
0.0
 40
0.0
 40
1.0
 40
1.0
 40
1.0
 40
2.0
 40
2.0
 40
2.0
 40
3.0
 40
3.0
 40
3.0
 40
4.0
 40
4.0
 40
4.0
 40
5.0
 40
5.0
 40
5.0
 40
6.0
 40
6.0
 40
6.0
 40
6.0
 10
376.9760513593537
 20
-332.55203336284
 30
0.0
 10
378.0547322876334
 20
-332.55203336284
 30
0.0
 10
378.9291621173315
 20
-331.691829378763
 30
0.0
 10
378.9291621173315
 20
-330.6306971980656
 30
0.0
 10
378.9291621173315
 20
-329.5695861989197
 30
0.0
 10
378.0547322876334
 20
-328.7093822148433
 30
0.0
 10
376.9760513593537
 20
-328.7093822148433
 30
0.0
 10
376.9760513593537
 20
-328.7093822148433
 30
0.0
 10
374.8150936843865
 20
-328.7093822148433
 30
0.0
 10
374.8150936843865
 20
-328.7093822148433
 30
0.0
 10
373.7364342879548
 20
-328.7093822148433
 30
0.0
 10
372.862004458258
 20
-329.5695861989197
 30
0.0
 10
372.862004458258
 20
-330.6306971980656
 30
0.0
 10
372.862004458258
 20
-331.691829378763
 30
0.0
 10
373.7364342879548
 20
-332.55203336284
 30
0.0
 10
374.8150936843865
 20
-332.55203336284
 30
0.0
 10
374.8150936843865
 20
-332.55203336284
 30
0.0
 10
376.9760513593537
 20
-332.55203336284
 30
0.0
 10
376.9760513593537
 20
-332.55203336284
 30
0.0
  0
SPLINE
  5
9E
330
70
100
AcDbEntity
  8
Layer 1
 62
   250
420
  2301728
370
    18
100
AcDbSpline
210
0.0
220
0.0
230
1.0
 70
     9
 71
     3
 72
    23
 73
    19
 74
     0
 42
0.0000000001
 43
0.0000000001
 40
0.0
 40
0.0
 40
0.0
 40
0.0
 40
1.0
 40
1.0
 40
1.0
 40
2.0
 40
2.0
 40
2.0
 40
3.0
 40
3.0
 40
3.0
 40
4.0
 40
4.0
 40
4.0
 40
5.0
 40
5.0
 40
5.0
 40
6.0
 40
6.0
 40
6.0
 40
6.0
 10
376.870093807636
 20
-353.2844019100013
 30
0.0
 10
377.9487747359157
 20
-353.2844019100013
 30
0.0
 10
378.8232045656138
 20
-352.424197925925
 30
0.0
 10
378.8232045656138
 20
-351.3630657452276
 30
0.0
 10
378.8232045656138
 20
-350.3019547460817
 30
0.0
 10
377.9487747359157
 20
-349.4417507620048
 30
0.0
 10
376.870093807636
 20
-349.4417507620048
 30
0.0
 10
376.870093807636
 20
-349.4417507620048
 30
0.0
 10
374.7091361326687
 20
-349.4417507620048
 30
0.0
 10
374.7091361326687
 20
-349.4417507620048
 30
0.0
 10
373.630476736237
 20
-349.4417507620048
 30
0.0
 10
372.7560469065403
 20
-350.3019547460817
 30
0.0
 10
372.7560469065403
 20
-351.3630657452276
 30
0.0
 10
372.7560469065403
 20
-352.424197925925
 30
0.0
 10
373.630476736237
 20
-353.2844019100013
 30
0.0
 10
374.7091361326687
 20
-353.2844019100013
 30
0.0
 10
374.7091361326687
 20
-353.2844019100013
 30
0.0
 10
376.870093807636
 20
-353.2844019100013
 30
0.0
 10
376.870093807636
 20
-353.2844019100013
 30
0.0
  0
SPLINE
  5
9F
330
70
100
AcDbEntity
  8
Layer 1
 62
   250
420
  2301728
370
    18
100
AcDbSpline
210
0.0
220
0.0
230
1.0
 70
     9
 71
     3
 72
    23
 73
    19
 74
     0
 42
0.0000000001
 43
0.0000000001
 40
0.0
 40
0.0
 40
0.0
 40
0.0
 40
1.0
 40
1.0
 40
1.0
 40
2.0
 40
2.0
 40
2.0
 40
3.0
 40
3.0
 40
3.0
 40
4.0
 40
4.0
 40
4.0
 40
5.0
 40
5.0
 40
5.0
 40
6.0
 40
6.0
 40
6.0
 40
6.0
 10
414.8855466394957
 20
-353.3335884744715
 30
0.0
 10
415.9642275677755
 20
-353.3335884744715
 30
0.0
 10
416.8386573974722
 20
-352.4733844903951
 30
0.0
 10
416.8386573974722
 20
-351.4122523096977
 30
0.0
 10
416.8386573974722
 20
-350.3511413105518
 30
0.0
 10
415.9642275677755
 20
-349.4909373264749
 30
0.0
 10
414.8855466394957
 20
-349.4909373264749
 30
0.0
 10
414.8855466394957
 20
-349.4909373264749
 30
0.0
 10
412.7245889645285
 20
-349.4909373264749
 30
0.0
 10
412.7245889645285
 20
-349.4909373264749
 30
0.0
 10
411.6459295680968
 20
-349.4909373264749
 30
0.0
 10
410.7714997383988
 20
-350.3511413105518
 30
0.0
 10
410.7714997383988
 20
-351.4122523096977
 30
0.0
 10
410.7714997383988
 20
-352.4733844903951
 30
0.0
 10
411.6459295680968
 20
-353.3335884744715
 30
0.0
 10
412.7245889645285
 20
-353.3335884744715
 30
0.0
 10
412.7245889645285
 20
-353.3335884744715
 30
0.0
 10
414.8855466394957
 20
-353.3335884744715
 30
0.0
 10
414.8855466394957
 20
-353.3335884744715
 30
0.0
  0
SPLINE
  5
A0
330
70
100
AcDbEntity
  8
Layer 1
 62
   250
420
  2301728
370
    18
100
AcDbSpline
210
0.0
220
0.0
230
1.0
 70
     9
 71
     3
 72
    23
 73
    19
 74
     0
 42
0.0000000001
 43
0.0000000001
 40
0.0
 40
0.0
 40
0.0
 40
0.0
 40
1.0
 40
1.0
 40
1.0
 40
2.0
 40
2.0
 40
2.0
 40
3.0
 40
3.0
 40
3.0
 40
4.0
 40
4.0
 40
4.0
 40
5.0
 40
5.0
 40
5.0
 40
6.0
 40
6.0
 40
6.0
 40
6.0
 10
442.8769090732526
 20
-332.6400459949834
 30
0.0
 10
443.9555900015285
 20
-332.6400459949834
 30
0.0
 10
444.8300198312266
 20
-331.7798420109071
 30
0.0
 10
444.8300198312266
 20
-330.7187098302097
 30
0.0
 10
444.8300198312266
 20
-329.6575988310638
 30
0.0
 10
443.9555900015285
 20
-328.7973948469869
 30
0.0
 10
442.8769090732526
 20
-328.7973948469869
 30
0.0
 10
442.8769090732526
 20
-328.7973948469869
 30
0.0
 10
440.7159513982816
 20
-328.7973948469869
 30
0.0
 10
440.7159513982816
 20
-328.7973948469869
 30
0.0
 10
439.6372920018499
 20
-328.7973948469869
 30
0.0
 10
438.7628621721531
 20
-329.6575988310638
 30
0.0
 10
438.7628621721531
 20
-330.7187098302097
 30
0.0
 10
438.7628621721531
 20
-331.7798420109071
 30
0.0
 10
439.6372920018499
 20
-332.6400459949834
 30
0.0
 10
440.7159513982816
 20
-332.6400459949834
 30
0.0
 10
440.7159513982816
 20
-332.6400459949834
 30
0.0
 10
442.8769090732526
 20
-332.6400459949834
 30
0.0
 10
442.8769090732526
 20
-332.6400459949834
 30
0.0
  0
SPLINE
  5
A1
330
70
100
AcDbEntity
  8
Layer 1
 62
   250
420
  2301728
370
    18
100
AcDbSpline
210
0.0
220
0.0
230
1.0
 70
     9
 71
     3
 72
    23
 73
    19
 74
     0
 42
0.0000000001
 43
0.0000000001
 40
0.0
 40
0.0
 40
0.0
 40
0.0
 40
1.0
 40
1.0
 40
1.0
 40
2.0
 40
2.0
 40
2.0
 40
3.0
 40
3.0
 40
3.0
 40
4.0
 40
4.0
 40
4.0
 40
5.0
 40
5.0
 40
5.0
 40
6.0
 40
6.0
 40
6.0
 40
6.0
 10
461.8733702655965
 20
-353.4241808171057
 30
0.0
 10
462.9520511938762
 20
-353.4241808171057
 30
0.0
 10
463.8264810235704
 20
-352.5639768330287
 30
0.0
 10
463.8264810235704
 20
-351.5028446523313
 30
0.0
 10
463.8264810235704
 20
-350.4417336531854
 30
0.0
 10
462.9520511938762
 20
-349.5815296691085
 30
0.0
 10
461.8733702655965
 20
-349.5815296691085
 30
0.0
 10
461.8733702655965
 20
-349.5815296691085
 30
0.0
 10
459.7124125906255
 20
-349.5815296691085
 30
0.0
 10
459.7124125906255
 20
-349.5815296691085
 30
0.0
 10
458.6337531941937
 20
-349.5815296691085
 30
0.0
 10
457.759323364497
 20
-350.4417336531854
 30
0.0
 10
457.759323364497
 20
-351.5028446523313
 30
0.0
 10
457.759323364497
 20
-352.5639768330287
 30
0.0
 10
458.6337531941937
 20
-353.4241808171057
 30
0.0
 10
459.7124125906255
 20
-353.4241808171057
 30
0.0
 10
459.7124125906255
 20
-353.4241808171057
 30
0.0
 10
461.8733702655965
 20
-353.4241808171057
 30
0.0
 10
461.8733702655965
 20
-353.4241808171057
 30
0.0
  0
SPLINE
  5
A2
330
70
100
AcDbEntity
  8
Layer 1
 62
   250
420
  2301728
370
    18
100
AcDbSpline
210
0.0
220
0.0
230
1.0
 70
     9
 71
     3
 72
    23
 73
    19
 74
     0
 42
0.0000000001
 43
0.0000000001
 40
0.0
 40
0.0
 40
0.0
 40
0.0
 40
1.0
 40
1.0
 40
1.0
 40
2.0
 40
2.0
 40
2.0
 40
3.0
 40
3.0
 40
3.0
 40
4.0
 40
4.0
 40
4.0
 40
5.0
 40
5.0
 40
5.0
 40
6.0
 40
6.0
 40
6.0
 40
6.0
 10
519.0915289605989
 20
-353.539376432468
 30
0.0
 10
520.1702098888786
 20
-353.539376432468
 30
0.0
 10
521.0446397185753
 20
-352.679172448391
 30
0.0
 10
521.0446397185753
 20
-351.6180402676936
 30
0.0
 10
521.0446397185753
 20
-350.5569292685477
 30
0.0
 10
520.1702098888786
 20
-349.6967252844714
 30
0.0
 10
519.0915289605989
 20
-349.6967252844714
 30
0.0
 10
519.0915289605989
 20
-349.6967252844714
 30
0.0
 10
516.9305712856278
 20
-349.6967252844714
 30
0.0
 10
516.9305712856278
 20
-349.6967252844714
 30
0.0
 10
515.8519118891961
 20
-349.6967252844714
 30
0.0
 10
514.9774820595019
 20
-350.5569292685477
 30
0.0
 10
514.9774820595019
 20
-351.6180402676936
 30
0.0
 10
514.9774820595019
 20
-352.679172448391
 30
0.0
 10
515.8519118891961
 20
-353.539376432468
 30
0.0
 10
516.9305712856278
 20
-353.539376432468
 30
0.0
 10
516.9305712856278
 20
-353.539376432468
 30
0.0
 10
519.0915289605989
 20
-353.539376432468
 30
0.0
 10
519.0915289605989
 20
-353.539376432468
 30
0.0
  0
SPLINE
  5
A3
330
70
100
AcDbEntity
  8
Layer 1
 62
   250
420
  2301728
370
    18
100
AcDbSpline
210
0.0
220
0.0
230
1.0
 70
     9
 71
     3
 72
    23
 73
    19
 74
     0
 42
0.0000000001
 43
0.0000000001
 40
0.0
 40
0.0
 40
0.0
 40
0.0
 40
1.0
 40
1.0
 40
1.0
 40
2.0
 40
2.0
 40
2.0
 40
3.0
 40
3.0
 40
3.0
 40
4.0
 40
4.0
 40
4.0
 40
5.0
 40
5.0
 40
5.0
 40
6.0
 40
6.0
 40
6.0
 40
6.0
 10
519.111528960595
 20
-332.7827284529176
 30
0.0
 10
520.190209888871
 20
-332.7827284529176
 30
0.0
 10
521.0646397185676
 20
-331.9225244688413
 30
0.0
 10
521.0646397185676
 20
-330.8613922881438
 30
0.0
 10
521.0646397185676
 20
-329.800281288998
 30
0.0
 10
520.190209888871
 20
-328.940077304921
 30
0.0
 10
519.111528960595
 20
-328.940077304921
 30
0.0
 10
519.111528960595
 20
-328.940077304921
 30
0.0
 10
516.950571285624
 20
-328.940077304921
 30
0.0
 10
516.950571285624
 20
-328.940077304921
 30
0.0
 10
515.8719118891923
 20
-328.940077304921
 30
0.0
 10
514.9974820594942
 20
-329.800281288998
 30
0.0
 10
514.9974820594942
 20
-330.8613922881438
 30
0.0
 10
514.9974820594942
 20
-331.9225244688413
 30
0.0
 10
515.8719118891923
 20
-332.7827284529176
 30
0.0
 10
516.950571285624
 20
-332.7827284529176
 30
0.0
 10
516.950571285624
 20
-332.7827284529176
 30
0.0
 10
519.111528960595
 20
-332.7827284529176
 30
0.0
 10
519.111528960595
 20
-332.7827284529176
 30
0.0
  0
ELLIPSE
  5
A4
330
70
100
AcDbEntity
  8
Layer 1
 62
   250
420
  2301728
370
    18
100
AcDbEllipse
 10
432.7859083906635
 20
-372.0867473772584
 30
0.0
 11
3.131159984531487
 21
0.0
 31
0.0
210
0.0
220
0.0
230
1.0
 40
0.9837312896508112
 41
0.0
 42
6.283185307179586
  0
ELLIPSE
  5
A5
330
70
100
AcDbEntity
  8
Layer 1
 62
   250
420
  2301728
370
    18
100
AcDbEllipse
 10
517.9133818895618
 20
-372.2309661987115
 30
0.0
 11
3.1311599845286
 21
0.0
 31
0.0
210
0.0
220
0.0
230
1.0
 40
0.9837312896516669
 41
0.0
 42
6.283185307179586
  0
ELLIPSE
  5
A6
330
70
100
AcDbEntity
  8
Layer 1
 62
   250
420
  2301728
370
    18
100
AcDbEllipse
 10
375.7996257360732
 20
-372.0104084357666
 30
0.0
 11
3.131159984531487
 21
0.0
 31
0.0
210
0.0
220
0.0
230
1.0
 40
0.9837312896507597
 41
0.0
 42
6.283185307179586
  0
ELLIPSE
  5
A7
330
70
100
AcDbEntity
  8
Layer 1
 62
   250
420
  2301728
370
    18
100
AcDbEllipse
 10
317.2741937695716
 20
-372.0177978287876
 30
0.0
 11
3.131159984530525
 21
0.0
 31
0.0
210
0.0
220
0.0
230
1.0
 40
0.9837312896511136
 41
0.0
 42
6.283185307179586
  0
ELLIPSE
  5
A8
330
70
100
AcDbEntity
  8
Layer 1
 62
   250
420
  2301728
370
    18
100
AcDbEllipse
 10
271.8092645750472
 20
-372.0374724545755
 30
0.0
 11
3.131159984531006
 21
0.0
 31
0.0
210
0.0
220
0.0
230
1.0
 40
0.9837312896509622
 41
0.0
 42
6.283185307179586
  0
ELLIPSE
  5
A9
330
70
100
AcDbEntity
  8
Layer 1
 62
   250
420
  2301728
370
    18
100
AcDbEllipse
 10
200.9255007293184
 20
-372.0374724545755
 30
0.0
 11
3.131159984531006
 21
0.0
 31
0.0
210
0.0
220
0.0
230
1.0
 40
0.9837312896509622
 41
0.0
 42
6.283185307179586
  0
ELLIPSE
  5
AA
330
70
100
AcDbEntity
  8
Layer 1
 62
   250
420
  2301728
370
    18
100
AcDbEllipse
 10
124.7748821866058
 20
-372.2109132388161
 30
0.0
 11
3.131159984531006
 21
0.0
 31
0.0
210
0.0
220
0.0
230
1.0
 40
0.9837312896509109
 41
0.0
 42
6.283185307179586
  0
ELLIPSE
  5
AB
330
70
100
AcDbEntity
  8
Layer 1
 62
   250
420
  2301728
370
    18
100
AcDbEllipse
 10
81.66058925295706
 20
-372.2646974996592
 30
0.0
 11
3.131159984531006
 21
0.0
 31
0.0
210
0.0
220
0.0
230
1.0
 40
0.9837312896509109
 41
0.0
 42
6.283185307179586
  0
SPLINE
  5
AC
330
70
100
AcDbEntity
  8
Layer 1
 62
   250
420
  2301728
370
    18
100
AcDbSpline
210
0.0
220
0.0
230
1.0
 70
     9
 71
     3
 72
    23
 73
    19
 74
     0
 42
0.0000000001
 43
0.0000000001
 40
0.0
 40
0.0
 40
0.0
 40
0.0
 40
1.0
 40
1.0
 40
1.0
 40
2.0
 40
2.0
 40
2.0
 40
3.0
 40
3.0
 40
3.0
 40
4.0
 40
4.0
 40
4.0
 40
5.0
 40
5.0
 40
5.0
 40
6.0
 40
6.0
 40
6.0
 40
6.0
 10
154.8104178592236
 20
-312.0473946583391
 30
0.0
 10
155.7166717584653
 20
-312.0473946583391
 30
0.0
 10
156.4513383706948
 20
-311.3246801244272
 30
0.0
 10
156.4513383706948
 20
-310.4331698073752
 30
0.0
 10
156.4513383706948
 20
-309.5416806718743
 30
0.0
 10
155.7166717584653
 20
-308.8189661379623
 30
0.0
 10
154.8104178592236
 20
-308.8189661379623
 30
0.0
 10
154.8104178592236
 20
-308.8189661379623
 30
0.0
 10
152.0339077484271
 20
-308.8189661379623
 30
0.0
 10
152.0339077484271
 20
-308.8189661379623
 30
0.0
 10
151.127653849185
 20
-308.8189661379623
 30
0.0
 10
150.3930087688026
 20
-309.5416806718743
 30
0.0
 10
150.3930087688026
 20
-310.4331698073752
 30
0.0
 10
150.3930087688026
 20
-311.3246801244272
 30
0.0
 10
151.127653849185
 20
-312.0473946583391
 30
0.0
 10
152.0339077484271
 20
-312.0473946583391
 30
0.0
 10
152.0339077484271
 20
-312.0473946583391
 30
0.0
 10
154.8104178592236
 20
-312.0473946583391
 30
0.0
 10
154.8104178592236
 20
-312.0473946583391
 30
0.0
  0
SPLINE
  5
AD
330
70
100
AcDbEntity
  8
Layer 1
 62
   250
420
  2301728
370
    18
100
AcDbSpline
210
0.0
220
0.0
230
1.0
 70
     9
 71
     3
 72
    23
 73
    19
 74
     0
 42
0.0000000001
 43
0.0000000001
 40
0.0
 40
0.0
 40
0.0
 40
0.0
 40
1.0
 40
1.0
 40
1.0
 40
2.0
 40
2.0
 40
2.0
 40
3.0
 40
3.0
 40
3.0
 40
4.0
 40
4.0
 40
4.0
 40
5.0
 40
5.0
 40
5.0
 40
6.0
 40
6.0
 40
6.0
 40
6.0
 10
230.9042975266165
 20
-311.8997128254346
 30
0.0
 10
231.8105514258583
 20
-311.8997128254346
 30
0.0
 10
232.5452180380878
 20
-311.1769982915226
 30
0.0
 10
232.5452180380878
 20
-310.2854879744707
 30
0.0
 10
232.5452180380878
 20
-309.3939988389697
 30
0.0
 10
231.8105514258583
 20
-308.6712843050578
 30
0.0
 10
230.9042975266165
 20
-308.6712843050578
 30
0.0
 10
230.9042975266165
 20
-308.6712843050578
 30
0.0
 10
228.1277874158198
 20
-308.6712843050578
 30
0.0
 10
228.1277874158198
 20
-308.6712843050578
 30
0.0
 10
227.2215335165781
 20
-308.6712843050578
 30
0.0
 10
226.4868884361953
 20
-309.3939988389697
 30
0.0
 10
226.4868884361953
 20
-310.2854879744707
 30
0.0
 10
226.4868884361953
 20
-311.1769982915226
 30
0.0
 10
227.2215335165781
 20
-311.8997128254346
 30
0.0
 10
228.1277874158198
 20
-311.8997128254346
 30
0.0
 10
228.1277874158198
 20
-311.8997128254346
 30
0.0
 10
230.9042975266165
 20
-311.8997128254346
 30
0.0
 10
230.9042975266165
 20
-311.8997128254346
 30
0.0
  0
SPLINE
  5
AE
330
70
100
AcDbEntity
  8
Layer 1
 62
   250
420
  2301728
370
    18
100
AcDbSpline
210
0.0
220
0.0
230
1.0
 70
     9
 71
     3
 72
    23
 73
    19
 74
     0
 42
0.0000000001
 43
0.0000000001
 40
0.0
 40
0.0
 40
0.0
 40
0.0
 40
1.0
 40
1.0
 40
1.0
 40
2.0
 40
2.0
 40
2.0
 40
3.0
 40
3.0
 40
3.0
 40
4.0
 40
4.0
 40
4.0
 40
5.0
 40
5.0
 40
5.0
 40
6.0
 40
6.0
 40
6.0
 40
6.0
 10
377.3738443368408
 20
-311.9101855300519
 30
0.0
 10
378.28009823608
 20
-311.9101855300519
 30
0.0
 10
379.0147648483095
 20
-311.18747099614
 30
0.0
 10
379.0147648483095
 20
-310.2959606790874
 30
0.0
 10
379.0147648483095
 20
-309.4044715435864
 30
0.0
 10
378.28009823608
 20
-308.6817570096745
 30
0.0
 10
377.3738443368408
 20
-308.6817570096745
 30
0.0
 10
377.3738443368408
 20
-308.6817570096745
 30
0.0
 10
374.5973342260441
 20
-308.6817570096745
 30
0.0
 10
374.5973342260441
 20
-308.6817570096745
 30
0.0
 10
373.6910803268011
 20
-308.6817570096745
 30
0.0
 10
372.9564352464196
 20
-309.4044715435864
 30
0.0
 10
372.9564352464196
 20
-310.2959606790874
 30
0.0
 10
372.9564352464196
 20
-311.18747099614
 30
0.0
 10
373.6910803268011
 20
-311.9101855300519
 30
0.0
 10
374.5973342260441
 20
-311.9101855300519
 30
0.0
 10
374.5973342260441
 20
-311.9101855300519
 30
0.0
 10
377.3738443368408
 20
-311.9101855300519
 30
0.0
 10
377.3738443368408
 20
-311.9101855300519
 30
0.0
  0
SPLINE
  5
AF
330
70
100
AcDbEntity
  8
Layer 1
 62
   250
420
  2301728
370
    18
100
AcDbSpline
210
0.0
220
0.0
230
1.0
 70
     9
 71
     3
 72
    23
 73
    19
 74
     0
 42
0.0000000001
 43
0.0000000001
 40
0.0
 40
0.0
 40
0.0
 40
0.0
 40
1.0
 40
1.0
 40
1.0
 40
2.0
 40
2.0
 40
2.0
 40
3.0
 40
3.0
 40
3.0
 40
4.0
 40
4.0
 40
4.0
 40
5.0
 40
5.0
 40
5.0
 40
6.0
 40
6.0
 40
6.0
 40
6.0
 10
415.3992775204035
 20
-311.9526138661362
 30
0.0
 10
416.3055314196466
 20
-311.9526138661362
 30
0.0
 10
417.0401980318761
 20
-311.2298993322243
 30
0.0
 10
417.0401980318761
 20
-310.3383890151716
 30
0.0
 10
417.0401980318761
 20
-309.4468998796707
 30
0.0
 10
416.3055314196466
 20
-308.7241853457587
 30
0.0
 10
415.3992775204035
 20
-308.7241853457587
 30
0.0
 10
415.3992775204035
 20
-308.7241853457587
 30
0.0
 10
412.6227674096067
 20
-308.7241853457587
 30
0.0
 10
412.6227674096067
 20
-308.7241853457587
 30
0.0
 10
411.7165135103675
 20
-308.7241853457587
 30
0.0
 10
410.9818684299822
 20
-309.4468998796707
 30
0.0
 10
410.9818684299822
 20
-310.3383890151716
 30
0.0
 10
410.9818684299822
 20
-311.2298993322243
 30
0.0
 10
411.7165135103675
 20
-311.9526138661362
 30
0.0
 10
412.6227674096067
 20
-311.9526138661362
 30
0.0
 10
412.6227674096067
 20
-311.9526138661362
 30
0.0
 10
415.3992775204035
 20
-311.9526138661362
 30
0.0
 10
415.3992775204035
 20
-311.9526138661362
 30
0.0
  0
SPLINE
  5
B0
330
70
100
AcDbEntity
  8
Layer 1
 62
   250
420
  2301728
370
    18
100
AcDbSpline
210
0.0
220
0.0
230
1.0
 70
     9
 71
     3
 72
    23
 73
    19
 74
     0
 42
0.0000000001
 43
0.0000000001
 40
0.0
 40
0.0
 40
0.0
 40
0.0
 40
1.0
 40
1.0
 40
1.0
 40
2.0
 40
2.0
 40
2.0
 40
3.0
 40
3.0
 40
3.0
 40
4.0
 40
4.0
 40
4.0
 40
5.0
 40
5.0
 40
5.0
 40
6.0
 40
6.0
 40
6.0
 40
6.0
 10
462.3806088719685
 20
-312.0361140103295
 30
0.0
 10
463.2868627712115
 20
-312.0361140103295
 30
0.0
 10
464.021529383441
 20
-311.3133994764175
 30
0.0
 10
464.021529383441
 20
-310.4218891593656
 30
0.0
 10
464.021529383441
 20
-309.5304000238646
 30
0.0
 10
463.2868627712115
 20
-308.8076854899527
 30
0.0
 10
462.3806088719685
 20
-308.8076854899527
 30
0.0
 10
462.3806088719685
 20
-308.8076854899527
 30
0.0
 10
459.604098761173
 20
-308.8076854899527
 30
0.0
 10
459.604098761173
 20
-308.8076854899527
 30
0.0
 10
458.69784486193
 20
-308.8076854899527
 30
0.0
 10
457.9631997815485
 20
-309.5304000238646
 30
0.0
 10
457.9631997815485
 20
-310.4218891593656
 30
0.0
 10
457.9631997815485
 20
-311.3133994764175
 30
0.0
 10
458.69784486193
 20
-312.0361140103295
 30
0.0
 10
459.604098761173
 20
-312.0361140103295
 30
0.0
 10
459.604098761173
 20
-312.0361140103295
 30
0.0
 10
462.3806088719685
 20
-312.0361140103295
 30
0.0
 10
462.3806088719685
 20
-312.0361140103295
 30
0.0
  0
SPLINE
  5
B1
330
70
100
AcDbEntity
  8
Layer 1
 62
   250
420
  2301728
370
    18
100
AcDbSpline
210
0.0
220
0.0
230
1.0
 70
     9
 71
     3
 72
    23
 73
    19
 74
     0
 42
0.0000000001
 43
0.0000000001
 40
0.0
 40
0.0
 40
0.0
 40
0.0
 40
1.0
 40
1.0
 40
1.0
 40
2.0
 40
2.0
 40
2.0
 40
3.0
 40
3.0
 40
3.0
 40
4.0
 40
4.0
 40
4.0
 40
5.0
 40
5.0
 40
5.0
 40
6.0
 40
6.0
 40
6.0
 40
6.0
 10
519.5982643764822
 20
-312.0960180719026
 30
0.0
 10
520.5045182757252
 20
-312.0960180719026
 30
0.0
 10
521.2391848879547
 20
-311.3733035379907
 30
0.0
 10
521.2391848879547
 20
-310.4817932209388
 30
0.0
 10
521.2391848879547
 20
-309.5903040854377
 30
0.0
 10
520.5045182757252
 20
-308.8675895515259
 30
0.0
 10
519.5982643764822
 20
-308.8675895515259
 30
0.0
 10
519.5982643764822
 20
-308.8675895515259
 30
0.0
 10
516.8217542656853
 20
-308.8675895515259
 30
0.0
 10
516.8217542656853
 20
-308.8675895515259
 30
0.0
 10
515.9155003664462
 20
-308.8675895515259
 30
0.0
 10
515.1808552860609
 20
-309.5903040854377
 30
0.0
 10
515.1808552860609
 20
-310.4817932209388
 30
0.0
 10
515.1808552860609
 20
-311.3733035379907
 30
0.0
 10
515.9155003664462
 20
-312.0960180719026
 30
0.0
 10
516.8217542656853
 20
-312.0960180719026
 30
0.0
 10
516.8217542656853
 20
-312.0960180719026
 30
0.0
 10
519.5982643764822
 20
-312.0960180719026
 30
0.0
 10
519.5982643764822
 20
-312.0960180719026
 30
0.0
  0
ELLIPSE
  5
B2
330
70
100
AcDbEntity
  8
Layer 1
 62
   250
420
  2301728
370
    18
100
AcDbEllipse
 10
305.6093292193147
 20
-310.2660911509239
 30
0.0
 11
1.272978946478398
 21
0.0
 31
0.0
210
0.0
220
0.0
230
1.0
 40
0.9837312896507393
 41
0.0
 42
6.283185307179586
  0
SPLINE
  5
B3
330
70
100
AcDbEntity
  8
Layer 1
 62
   250
420
  2301728
370
    18
100
AcDbSpline
210
0.0
220
0.0
230
1.0
 70
     9
 71
     3
 72
    23
 73
    19
 74
     0
 42
0.0000000001
 43
0.0000000001
 40
0.0
 40
0.0
 40
0.0
 40
0.0
 40
1.0
 40
1.0
 40
1.0
 40
2.0
 40
2.0
 40
2.0
 40
3.0
 40
3.0
 40
3.0
 40
4.0
 40
4.0
 40
4.0
 40
5.0
 40
5.0
 40
5.0
 40
6.0
 40
6.0
 40
6.0
 40
6.0
 10
85.66567198621028
 20
-311.7819716731593
 30
0.0
 10
86.36872984736264
 20
-311.7819716731593
 30
0.0
 10
86.93865629985721
 20
-311.2212960074895
 30
0.0
 10
86.93865629985721
 20
-310.5296971725906
 30
0.0
 10
86.93865629985721
 20
-309.8380771561401
 30
0.0
 10
86.36872984736264
 20
-309.2774226720213
 30
0.0
 10
85.66567198621028
 20
-309.2774226720213
 30
0.0
 10
85.66567198621028
 20
-309.2774226720213
 30
0.0
 10
82.17406771190956
 20
-309.2774226720213
 30
0.0
 10
82.17406771190956
 20
-309.2774226720213
 30
0.0
 10
81.47100985075722
 20
-309.2774226720213
 30
0.0
 10
80.90108339826297
 20
-309.8380771561401
 30
0.0
 10
80.90108339826297
 20
-310.5296971725906
 30
0.0
 10
80.90108339826297
 20
-311.2212960074895
 30
0.0
 10
81.47100985075722
 20
-311.7819716731593
 30
0.0
 10
82.17406771190956
 20
-311.7819716731593
 30
0.0
 10
82.17406771190956
 20
-311.7819716731593
 30
0.0
 10
85.66567198621028
 20
-311.7819716731593
 30
0.0
 10
85.66567198621028
 20
-311.7819716731593
 30
0.0
  0
LWPOLYLINE
  5
B4
330
70
100
AcDbEntity
  8
Layer 1
 62
   250
420
  2301728
370
    18
100
AcDbPolyline
 90
        4
 70
     1
 43
0.0
 10
84.09608086767027
 20
-227.4216261513931
 10
84.09608086767027
 20
-241.4216261478931
 10
98.09608029991311
 20
-241.4216261478931
 10
98.09608029991311
 20
-227.4216261513931
  0
ELLIPSE
  5
B5
330
70
100
AcDbEntity
  8
Layer 1
 62
   250
420
  2301728
370
    18
100
AcDbEllipse
 10
91.09608058379162
 20
-234.4216261496431
 30
0.0
 11
2.480208939026877
 21
0.0
 31
0.0
210
0.0
220
0.0
230
1.0
 40
0.983731289651134
 41
0.0
 42
6.283185307179586
  0
ENDSEC
  0
SECTION
  2
OBJECTS
  0
DICTIONARY
  5
C
330
0
100
AcDbDictionary
281
     1
  3
ACAD_COLOR
350
63
  3
ACAD_DETAILVIEWSTYLE
350
6A
  3
ACAD_GROUP
350
D
  3
ACAD_LAYOUT
350
62
  3
ACAD_MATERIAL
350
10
  3
ACAD_MLEADERSTYLE
350
66
  3
ACAD_MLINESTYLE
350
5F
  3
ACAD_PLOTSETTINGS
350
61
  3
ACAD_PLOTSTYLENAME
350
E
  3
ACAD_SCALELIST
350
42
  3
ACAD_SECTIONVIEWSTYLE
350
68
  3
ACAD_TABLESTYLE
350
64
  3
ACAD_VISUALSTYLE
350
29
  3
ACDB_RECOMPOSE_DATA
350
BE
  3
AcDbVariableDictionary
350
B6
  0
DICTIONARY
  5
63
102
{ACAD_REACTORS
330
C
102
}
330
C
100
AcDbDictionary
281
     1
  0
DICTIONARY
  5
6A
102
{ACAD_REACTORS
330
C
102
}
330
C
100
AcDbDictionary
281
     1
  3
Imperial24
350
6B
  0
DICTIONARY
  5
D
102
{ACAD_REACTORS
330
C
102
}
330
C
100
AcDbDictionary
281
     1
  0
DICTIONARY
  5
62
102
{ACAD_REACTORS
330
C
102
}
330
C
100
AcDbDictionary
281
     1
  3
Layout1
350
6F
  3
Layout2
350
77
  3
Model
350
73
  0
DICTIONARY
  5
10
102
{ACAD_REACTORS
330
C
102
}
330
C
100
AcDbDictionary
281
     1
  3
ByBlock
350
19
  3
ByLayer
350
11
  3
Global
350
21
  0
DICTIONARY
  5
66
102
{ACAD_REACTORS
330
C
102
}
330
C
100
AcDbDictionary
281
     1
  3
Standard
350
67
  0
DICTIONARY
  5
5F
102
{ACAD_REACTORS
330
C
102
}
330
C
100
AcDbDictionary
281
     1
  3
Standard
350
60
  0
DICTIONARY
  5
61
102
{ACAD_REACTORS
330
C
102
}
330
C
100
AcDbDictionary
281
     1
  0
ACDBDICTIONARYWDFLT
  5
E
102
{ACAD_REACTORS
330
C
102
}
330
C
100
AcDbDictionary
281
     1
  3
Normal
350
F
100
AcDbDictionaryWithDefault
340
F
  0
DICTIONARY
  5
42
102
{ACAD_REACTORS
330
C
102
}
330
C
100
AcDbDictionary
281
     1
  3
A0
350
43
  3
A1
350
44
  3
A2
350
45
  3
A3
350
46
  3
A4
350
47
  3
A5
350
48
  3
A6
350
49
  3
A7
350
4A
  3
A8
350
4B
  3
A9
350
4C
  3
B0
350
4D
  3
B1
350
4E
  3
B2
350
4F
  3
B3
350
50
  3
B4
350
51
  3
B5
350
52
  3
B6
350
53
  0
DICTIONARY
  5
68
102
{ACAD_REACTORS
330
C
102
}
330
C
100
AcDbDictionary
281
     1
  3
Imperial24
350
69
  0
DICTIONARY
  5
64
102
{ACAD_REACTORS
330
C
102
}
330
C
100
AcDbDictionary
281
     1
  3
Standard
350
65
  0
DICTIONARY
  5
29
102
{ACAD_REACTORS
330
C
102
}
330
C
100
AcDbDictionary
281
     1
  3
2dWireframe
350
2F
  3
Basic
350
2E
  3
Brighten
350
35
  3
ColorChange
350
39
  3
Conceptual
350
32
  3
Dim
350
34
  3
EdgeColorOff
350
41
  3
Facepattern
350
38
  3
Flat
350
2A
  3
FlatWithEdges
350
2B
  3
Gouraud
350
2C
  3
GouraudWithEdges
350
2D
  3
Hidden
350
31
  3
JitterOff
350
3F
  3
Linepattern
350
37
  3
OverhangOff
350
40
  3
Realistic
350
33
  3
Shaded
350
3E
  3
Shaded with edges
350
3D
  3
Shades of Gray
350
3A
  3
Sketchy
350
3B
  3
Thicken
350
36
  3
Wireframe
350
30
  3
X-Ray
350
3C
  0
XRECORD
  5
BE
102
{ACAD_REACTORS
330
C
102
}
330
C
100
AcDbXrecord
280
     1
 90
        1
330
65
  0
DICTIONARY
  5
B6
102
{ACAD_REACTORS
330
C
102
}
330
C
100
AcDbDictionary
281
     1
  3
CANNOSCALE
350
BB
  3
CMLEADERSTYLE
350
B8
  3
CTABLESTYLE
350
B7
  3
CVIEWDETAILSTYLE
350
B9
  3
CVIEWSECTIONSTYLE
350
BA
  0
ACDBDETAILVIEWSTYLE
  5
6B
102
{ACAD_REACTORS
330
6A
102
}
330
6A
100
AcDbModelDocViewStyle
 70
     0
  3
Imperial24
290
     1
300
Imperial24
 90
        0
100
AcDbDetailViewStyle
 70
     0
 71
     0
 90
        3
 71
     1
340
55
 62
   256
 40
0.24
340
0
 62
   256
 40
0.24
300

 40
0.36
280
     3
 71
     2
340
5D
 90
       25
 62
   256
 71
     3
340
55
 62
   256
 40
0.24
 90
        1
 40
0.75
 90
        1
300
%<\AcVar ViewType \f "%tc1">% %<\AcVar ViewDetailId>%\PSCALE %<\AcVar ViewScale \f "%sn">%
 71
     4
340
5D
 90
       25
 62
   256
340
5D
 90
       25
 62
   256
280
     0
  0
LAYOUT
  5
6F
102
{ACAD_REACTORS
330
62
102
}
330
62
100
AcDbPlotSettings
  1

  2

  4

  6

 40
0.0
 41
0.0
 42
0.0
 43
0.0
 44
0.0
 45
0.0
 46
0.0
 47
0.0
 48
0.0
 49
0.0
140
0.0
141
0.0
142
1.0
143
1.0
 70
   688
 72
     0
 73
     0
 74
     5
  7

 75
    16
147
1.0
 76
     0
 77
     2
 78
   300
148
0.0
149
0.0
100
AcDbLayout
  1
Layout1
 70
     1
 71
     1
 10
0.0
 20
0.0
 11
12.0
 21
9.0
 12
0.0
 22
0.0
 32
0.0
 14
0.0
 24
0.0
 34
0.0
 15
0.0
 25
0.0
 35
0.0
146
0.0
 13
0.0
 23
0.0
 33
0.0
 16
1.0
 26
0.0
 36
0.0
 17
0.0
 27
1.0
 37
0.0
 76
     0
330
6C
  0
LAYOUT
  5
77
102
{ACAD_REACTORS
330
62
102
}
330
62
100
AcDbPlotSettings
  1

  2

  4

  6

 40
0.0
 41
0.0
 42
0.0
 43
0.0
 44
0.0
 45
0.0
 46
0.0
 47
0.0
 48
0.0
 49
0.0
140
0.0
141
0.0
142
1.0
143
1.0
 70
   688
 72
     0
 73
     0
 74
     5
  7

 75
    16
147
1.0
 76
     0
 77
     2
 78
   300
148
0.0
149
0.0
100
AcDbLayout
  1
Layout2
 70
     1
 71
     2
 10
0.0
 20
0.0
 11
12.0
 21
9.0
 12
0.0
 22
0.0
 32
0.0
 14
0.0
 24
0.0
 34
0.0
 15
0.0
 25
0.0
 35
0.0
146
0.0
 13
0.0
 23
0.0
 33
0.0
 16
1.0
 26
0.0
 36
0.0
 17
0.0
 27
1.0
 37
0.0
 76
     0
330
74
  0
LAYOUT
  5
73
102
{ACAD_REACTORS
330
62
102
}
330
62
100
AcDbPlotSettings
  1

  2

  4

  6

 40
0.0
 41
0.0
 42
0.0
 43
0.0
 44
0.0
 45
0.0
 46
0.0
 47
0.0
 48
0.0
 49
0.0
140
0.0
141
0.0
142
1.0
143
1.0
 70
  1712
 72
     0
 73
     0
 74
     0
  7

 75
     0
147
1.0
 76
     0
 77
     2
 78
   300
148
0.0
149
0.0
100
AcDbLayout
  1
Model
 70
     1
 71
     0
 10
0.0
 20
0.0
 11
12.0
 21
9.0
 12
0.0
 22
0.0
 32
0.0
 14
0.0
 24
0.0
 34
0.0
 15
0.0
 25
0.0
 35
0.0
146
0.0
 13
0.0
 23
0.0
 33
0.0
 16
1.0
 26
0.0
 36
0.0
 17
0.0
 27
1.0
 37
0.0
 76
     0
330
70
  0
MATERIAL
  5
19
102
{ACAD_XDICTIONARY
360
1A
102
}
102
{ACAD_REACTORS
330
10
102
}
330
10
100
AcDbMaterial
  1
ByBlock
 72
     0
 43
0.0208333333333333
 43
0.0
 43
0.0
 43
0.0
 43
0.0
 43
0.0208333333333333
 43
0.0
 43
0.0
 43
0.0
 43
0.0
 43
1.0
 43
0.0
 43
0.0
 43
0.0
 43
0.0
 43
1.0
 77
     0
 47
0.0208333333333333
 47
0.0
 47
0.0
 47
0.0
 47
0.0
 47
0.0208333333333333
 47
0.0
 47
0.0
 47
0.0
 47
0.0
 47
1.0
 47
0.0
 47
0.0
 47
0.0
 47
0.0
 47
1.0
171
     0
 49
0.0208333333333333
 49
0.0
 49
0.0
 49
0.0
 49
0.0
 49
0.0208333333333333
 49
0.0
 49
0.0
 49
0.0
 49
0.0
 49
1.0
 49
0.0
 49
0.0
 49
0.0
 49
0.0
 49
1.0
175
     0
142
0.0208333333333333
142
0.0
142
0.0
142
0.0
142
0.0
142
0.0208333333333333
142
0.0
142
0.0
142
0.0
142
0.0
142
1.0
142
0.0
142
0.0
142
0.0
142
0.0
142
1.0
179
     0
144
0.0208333333333333
144
0.0
144
0.0
144
0.0
144
0.0
144
0.0208333333333333
144
0.0
144
0.0
144
0.0
144
0.0
144
1.0
144
0.0
144
0.0
144
0.0
144
0.0
144
1.0
147
0.0208333333333333
147
0.0
147
0.0
147
0.0
147
0.0
147
0.0208333333333333
147
0.0
147
0.0
147
0.0
147
0.0
147
1.0
147
0.0
147
0.0
147
0.0
147
0.0
147
1.0
  0
MATERIAL
  5
11
102
{ACAD_XDICTIONARY
360
12
102
}
102
{ACAD_REACTORS
330
10
102
}
330
10
100
AcDbMaterial
  1
ByLayer
 72
     0
 43
0.0208333333333333
 43
0.0
 43
0.0
 43
0.0
 43
0.0
 43
0.0208333333333333
 43
0.0
 43
0.0
 43
0.0
 43
0.0
 43
1.0
 43
0.0
 43
0.0
 43
0.0
 43
0.0
 43
1.0
 77
     0
 47
0.0208333333333333
 47
0.0
 47
0.0
 47
0.0
 47
0.0
 47
0.0208333333333333
 47
0.0
 47
0.0
 47
0.0
 47
0.0
 47
1.0
 47
0.0
 47
0.0
 47
0.0
 47
0.0
 47
1.0
171
     0
 49
0.0208333333333333
 49
0.0
 49
0.0
 49
0.0
 49
0.0
 49
0.0208333333333333
 49
0.0
 49
0.0
 49
0.0
 49
0.0
 49
1.0
 49
0.0
 49
0.0
 49
0.0
 49
0.0
 49
1.0
175
     0
142
0.0208333333333333
142
0.0
142
0.0
142
0.0
142
0.0
142
0.0208333333333333
142
0.0
142
0.0
142
0.0
142
0.0
142
1.0
142
0.0
142
0.0
142
0.0
142
0.0
142
1.0
179
     0
144
0.0208333333333333
144
0.0
144
0.0
144
0.0
144
0.0
144
0.0208333333333333
144
0.0
144
0.0
144
0.0
144
0.0
144
1.0
144
0.0
144
0.0
144
0.0
144
0.0
144
1.0
147
0.0208333333333333
147
0.0
147
0.0
147
0.0
147
0.0
147
0.0208333333333333
147
0.0
147
0.0
147
0.0
147
0.0
147
1.0
147
0.0
147
0.0
147
0.0
147
0.0
147
1.0
  0
MATERIAL
  5
21
102
{ACAD_XDICTIONARY
360
22
102
}
102
{ACAD_REACTORS
330
10
102
}
330
10
100
AcDbMaterial
  1
Global
 72
     0
 43
0.0208333333333333
 43
0.0
 43
0.0
 43
0.0
 43
0.0
 43
0.0208333333333333
 43
0.0
 43
0.0
 43
0.0
 43
0.0
 43
1.0
 43
0.0
 43
0.0
 43
0.0
 43
0.0
 43
1.0
 77
     0
 47
0.0208333333333333
 47
0.0
 47
0.0
 47
0.0
 47
0.0
 47
0.0208333333333333
 47
0.0
 47
0.0
 47
0.0
 47
0.0
 47
1.0
 47
0.0
 47
0.0
 47
0.0
 47
0.0
 47
1.0
171
     0
 49
0.0208333333333333
 49
0.0
 49
0.0
 49
0.0
 49
0.0
 49
0.0208333333333333
 49
0.0
 49
0.0
 49
0.0
 49
0.0
 49
1.0
 49
0.0
 49
0.0
 49
0.0
 49
0.0
 49
1.0
175
     0
142
0.0208333333333333
142
0.0
142
0.0
142
0.0
142
0.0
142
0.0208333333333333
142
0.0
142
0.0
142
0.0
142
0.0
142
1.0
142
0.0
142
0.0
142
0.0
142
0.0
142
1.0
179
     0
144
0.0208333333333333
144
0.0
144
0.0
144
0.0
144
0.0
144
0.0208333333333333
144
0.0
144
0.0
144
0.0
144
0.0
144
1.0
144
0.0
144
0.0
144
0.0
144
0.0
144
1.0
147
0.0208333333333333
147
0.0
147
0.0
147
0.0
147
0.0
147
0.0208333333333333
147
0.0
147
0.0
147
0.0
147
0.0
147
1.0
147
0.0
147
0.0
147
0.0
147
0.0
147
1.0
  0
MLEADERSTYLE
  5
67
102
{ACAD_REACTORS
330
66
102
}
330
66
100
AcDbMLeaderStyle
179
     2
170
     2
171
     1
172
     0
 90
        2
 40
0.0
 41
0.0
173
     1
 91
-1056964608
340
5B
 92
       -2
290
     1
 42
0.09
291
     1
 43
0.36
  3
Standard
 44
0.18
300

342
55
174
     1
178
     6
175
     1
176
     0
 93
-1056964608
 45
0.18
292
     0
297
     0
 46
0.18
 94
-1056964608
 47
1.0
 49
1.0
140
1.0
293
     1
141
0.0
294
     1
177
     0
142
1.0
295
     1
296
     0
143
0.125
271
     0
272
     9
273
     9
298
     1
  0
MLINESTYLE
  5
60
102
{ACAD_REACTORS
330
5F
102
}
330
5F
100
AcDbMlineStyle
  2
STANDARD
 70
     0
  3

 62
   256
 51
90.0
 52
90.0
 71
     2
 49
0.5
 62
   256
  6
BYLAYER
 49
-0.5
 62
   256
  6
BYLAYER
  0
ACDBPLACEHOLDER
  5
F
102
{ACAD_REACTORS
330
E
102
}
330
E
  0
SCALE
  5
43
102
{ACAD_REACTORS
330
42
102
}
330
42
100
AcDbScale
 70
     0
300
1:1
140
1.0
141
1.0
290
     1
  0
SCALE
  5
44
102
{ACAD_REACTORS
330
42
102
}
330
42
100
AcDbScale
 70
     0
300
1/128" = 1'-0"
140
0.0078125
141
12.0
290
     0
  0
SCALE
  5
45
102
{ACAD_REACTORS
330
42
102
}
330
42
100
AcDbScale
 70
     0
300
1/64" = 1'-0"
140
0.015625
141
12.0
290
     0
  0
SCALE
  5
46
102
{ACAD_REACTORS
330
42
102
}
330
42
100
AcDbScale
 70
     0
300
1/32" = 1'-0"
140
0.03125
141
12.0
290
     0
  0
SCALE
  5
47
102
{ACAD_REACTORS
330
42
102
}
330
42
100
AcDbScale
 70
     0
300
1/16" = 1'-0"
140
0.0625
141
12.0
290
     0
  0
SCALE
  5
48
102
{ACAD_REACTORS
330
42
102
}
330
42
100
AcDbScale
 70
     0
300
3/32" = 1'-0"
140
0.09375
141
12.0
290
     0
  0
SCALE
  5
49
102
{ACAD_REACTORS
330
42
102
}
330
42
100
AcDbScale
 70
     0
300
1/8" = 1'-0"
140
0.125
141
12.0
290
     0
  0
SCALE
  5
4A
102
{ACAD_REACTORS
330
42
102
}
330
42
100
AcDbScale
 70
     0
300
3/16" = 1'-0"
140
0.1875
141
12.0
290
     0
  0
SCALE
  5
4B
102
{ACAD_REACTORS
330
42
102
}
330
42
100
AcDbScale
 70
     0
300
1/4" = 1'-0"
140
0.25
141
12.0
290
     0
  0
SCALE
  5
4C
102
{ACAD_REACTORS
330
42
102
}
330
42
100
AcDbScale
 70
     0
300
3/8" = 1'-0"
140
0.375
141
12.0
290
     0
  0
SCALE
  5
4D
102
{ACAD_REACTORS
330
42
102
}
330
42
100
AcDbScale
 70
     0
300
1/2" = 1'-0"
140
0.5
141
12.0
290
     0
  0
SCALE
  5
4E
102
{ACAD_REACTORS
330
42
102
}
330
42
100
AcDbScale
 70
     0
300
3/4" = 1'-0"
140
0.75
141
12.0
290
     0
  0
SCALE
  5
4F
102
{ACAD_REACTORS
330
42
102
}
330
42
100
AcDbScale
 70
     0
300
1" = 1'-0"
140
1.0
141
12.0
290
     0
  0
SCALE
  5
50
102
{ACAD_REACTORS
330
42
102
}
330
42
100
AcDbScale
 70
     0
300
1-1/2" = 1'-0"
140
1.5
141
12.0
290
     0
  0
SCALE
  5
51
102
{ACAD_REACTORS
330
42
102
}
330
42
100
AcDbScale
 70
     0
300
3" = 1'-0"
140
3.0
141
12.0
290
     0
  0
SCALE
  5
52
102
{ACAD_REACTORS
330
42
102
}
330
42
100
AcDbScale
 70
     0
300
6" = 1'-0"
140
6.0
141
12.0
290
     0
  0
SCALE
  5
53
102
{ACAD_REACTORS
330
42
102
}
330
42
100
AcDbScale
 70
     0
300
1'-0" = 1'-0"
140
12.0
141
12.0
290
     0
  0
ACDBSECTIONVIEWSTYLE
  5
69
102
{ACAD_REACTORS
330
68
102
}
330
68
100
AcDbModelDocViewStyle
 70
     0
  3
Imperial24
290
     1
300
Imperial24
 90
        0
100
AcDbSectionViewStyle
 70
     0
 71
     0
 90
       78
 71
     1
340
55
 62
   256
 40
0.24
340
0
340
0
 62
   256
 40
0.24
300
I, O, Q, S, X, Z
 40
0.48
 90
        3
 40
0.18
 90
        1
 71
     2
340
5D
 90
       25
 62
   256
340
5D
 90
       50
 62
   256
 40
0.24
 40
0.0
 40
0.24
 71
     3
340
55
 62
   256
 40
0.24
 90
        1
 40
0.75
 90
        1
300
%<\AcVar ViewType \f "%tc1">% %<\AcVar ViewSectionStartId>%-%<\AcVar ViewSectionEndId>%\PSCALE %<\AcVar ViewScale \f "%sn">%
 71
     4
 62
   256
 62
   257
300
ANSI31
 40
1.0
 90
        0
290
     0
290
     0
 90
        6
 40
0.0
 40
1.570796326794896
 40
0.2617993877991494
 40
1.308996938995747
 40
-0.2617993877991494
 40
1.832595714594046
  0
TABLESTYLE
  5
65
102
{ACAD_XDICTIONARY
360
BC
102
}
102
{ACAD_REACTORS
330
64
102
}
330
64
100
AcDbTableStyle
280
     0
  3
Standard
 70
     0
 71
     0
 40
0.06
 41
0.06
280
     0
281
     0
  7
Standard
140
0.18
170
     2
 62
     0
 63
     7
283
     0
 90
      512
 91
        0
  1

274
    -2
284
     1
 64
     0
275
    -2
285
     1
 65
     0
276
    -2
286
     1
 66
     0
277
    -2
287
     1
 67
     0
278
    -2
288
     1
 68
     0
279
    -2
289
     1
 69
     0
  7
Standard
140
0.25
170
     5
 62
     0
 63
     7
283
     0
 90
      512
 91
        0
  1

274
    -2
284
     1
 64
     0
275
    -2
285
     1
 65
     0
276
    -2
286
     1
 66
     0
277
    -2
287
     1
 67
     0
278
    -2
288
     1
 68
     0
279
    -2
289
     1
 69
     0
  7
Standard
140
0.18
170
     5
 62
     0
 63
     7
283
     0
 90
      512
 91
        0
  1

274
    -2
284
     1
 64
     0
275
    -2
285
     1
 65
     0
276
    -2
286
     1
 66
     0
277
    -2
287
     1
 67
     0
278
    -2
288
     1
 68
     0
279
    -2
289
     1
 69
     0
  0
VISUALSTYLE
  5
2F
102
{ACAD_REACTORS
330
29
102
}
330
29
100
AcDbVisualStyle
  2
2dWireframe
 70
     4
177
     3
291
     0
 70
    58
 90
        0
176
     1
 90
        2
176
     1
 90
        0
176
     1
 90
        0
176
     1
 40
0.6
176
     1
 40
30.0
176
     1
 62
     7
420
 16777215
176
     1
 90
        1
176
     1
 90
        4
176
     1
 62
     7
176
     1
 62
   257
176
     1
 90
        1
176
     1
 90
        1
176
     1
 40
1.0
176
     1
 90
        0
176
     1
 62
   257
176
     1
 40
1.0
176
     1
 90
        1
176
     1
 90
        6
176
     1
 90
        2
176
     1
 62
     7
176
     1
 90
        5
176
     1
 90
        0
176
     1
 90
        0
176
     1
290
     0
176
     1
 90
        1
176
     1
 40
0.0
176
     1
 90
        0
176
     1
290
     1
176
     1
290
     1
176
     1
290
     0
176
     1
290
     0
176
     1
290
     0
176
     1
290
     0
176
     1
290
     0
176
     1
290
     0
176
     1
290
     0
176
     1
 90
       50
176
     1
 40
0.0
176
     1
 40
1.0
176
     1
 90
        0
176
     1
 62
    18
420
        0
176
     1
 90
       50
176
     1
 90
        3
176
     1
 62
     5
420
      255
176
     1
290
     0
176
     1
 90
       50
176
     1
 90
       50
176
     1
 90
       50
176
     1
290
     0
176
     1
 90
       50
176
     1
 62
   256
176
     0
 40
1.0
176
     0
 90
        2
176
     1
  1
strokes_ogs.tif
176
     1
290
     0
176
     1
 40
1.0
176
     1
 40
1.0
176
     1
  0
VISUALSTYLE
  5
2E
102
{ACAD_REACTORS
330
29
102
}
330
29
100
AcDbVisualStyle
  2
Basic
 70
     7
177
     3
291
     1
 70
    58
 90
        1
176
     1
 90
        0
176
     1
 90
        1
176
     1
 90
        0
176
     1
 40
0.6
176
     1
 40
30.0
176
     1
 62
     7
420
 16777215
176
     1
 90
        0
176
     1
 90
        4
176
     1
 62
     7
176
     1
 62
   257
176
     1
 90
        1
176
     1
 90
        1
176
     1
 40
1.0
176
     1
 90
        8
176
     1
 62
     7
176
     1
 40
1.0
176
     1
 90
        1
176
     1
 90
        6
176
     1
 90
        2
176
     1
 62
     7
176
     1
 90
        5
176
     1
 90
        0
176
     1
 90
        0
176
     1
290
     0
176
     1
 90
        1
176
     1
 40
0.0
176
     1
 90
        0
176
     1
290
     0
176
     1
290
     1
176
     1
290
     1
176
     1
290
     0
176
     1
290
     0
176
     1
290
     0
176
     1
290
     0
176
     1
290
     0
176
     1
290
     0
176
     1
 90
       50
176
     1
 40
0.0
176
     1
 40
1.0
176
     1
 90
        0
176
     1
 62
    18
420
        0
176
     1
 90
       50
176
     1
 90
        3
176
     1
 62
     5
420
      255
176
     1
290
     0
176
     1
 90
       50
176
     1
 90
       50
176
     1
 90
       50
176
     1
290
     0
176
     1
 90
       50
176
     1
 62
   256
176
     0
 40
1.0
176
     0
 90
        2
176
     1
  1
strokes_ogs.tif
176
     1
290
     0
176
     1
 40
1.0
176
     1
 40
1.0
176
     1
  0
VISUALSTYLE
  5
35
102
{ACAD_REACTORS
330
29
102
}
330
29
100
AcDbVisualStyle
  2
Brighten
 70
    12
177
     3
291
     1
 70
    58
 90
        2
176
     1
 90
        2
176
     1
 90
        0
176
     1
 90
        0
176
     1
 40
0.6
176
     1
 40
30.0
176
     1
 62
     7
420
 16777215
176
     1
 90
        1
176
     1
 90
        4
176
     1
 62
     7
176
     1
 62
   257
176
     1
 90
        1
176
     1
 90
        1
176
     1
 40
1.0
176
     1
 90
        8
176
     1
 62
     7
176
     1
 40
1.0
176
     1
 90
        1
176
     1
 90
        6
176
     1
 90
        2
176
     1
 62
     7
176
     1
 90
        5
176
     1
 90
        0
176
     1
 90
        0
176
     1
290
     0
176
     1
 90
        1
176
     1
 40
50.0
176
     1
 90
        0
176
     1
290
     0
176
     1
290
     1
176
     1
290
     1
176
     1
290
     0
176
     1
290
     0
176
     1
290
     0
176
     1
290
     0
176
     1
290
     0
176
     1
290
     0
176
     1
 90
       50
176
     1
 40
0.0
176
     1
 40
1.0
176
     1
 90
        0
176
     1
 62
    18
420
        0
176
     1
 90
       50
176
     1
 90
        3
176
     1
 62
     5
420
      255
176
     1
290
     0
176
     1
 90
       50
176
     1
 90
       50
176
     1
 90
       50
176
     1
290
     0
176
     1
 90
       50
176
     1
 62
   256
176
     0
 40
1.0
176
     0
 90
        2
176
     1
  1
strokes_ogs.tif
176
     1
290
     0
176
     1
 40
1.0
176
     1
 40
1.0
176
     1
  0
VISUALSTYLE
  5
39
102
{ACAD_REACTORS
330
29
102
}
330
29
100
AcDbVisualStyle
  2
ColorChange
 70
    16
177
     3
291
     1
 70
    58
 90
        2
176
     1
 90
        2
176
     1
 90
        3
176
     1
 90
        0
176
     1
 40
0.6
176
     1
 40
30.0
176
     1
 62
     8
420
  8421504
176
     1
 90
        1
176
     1
 90
        4
176
     1
 62
     7
176
     1
 62
   257
176
     1
 90
        1
176
     1
 90
        1
176
     1
 40
1.0
176
     1
 90
        8
176
     1
 62
     8
420
  8421504
176
     1
 40
1.0
176
     1
 90
        1
176
     1
 90
        6
176
     1
 90
        2
176
     1
 62
     7
176
     1
 90
        5
176
     1
 90
        0
176
     1
 90
        0
176
     1
290
     0
176
     1
 90
        1
176
     1
 40
0.0
176
     1
 90
        0
176
     1
290
     0
176
     1
290
     1
176
     1
290
     1
176
     1
290
     0
176
     1
290
     0
176
     1
290
     0
176
     1
290
     0
176
     1
290
     0
176
     1
290
     0
176
     1
 90
       50
176
     1
 40
0.0
176
     1
 40
1.0
176
     1
 90
        0
176
     1
 62
    18
420
        0
176
     1
 90
       50
176
     1
 90
        3
176
     1
 62
     5
420
      255
176
     1
290
     0
176
     1
 90
       50
176
     1
 90
       50
176
     1
 90
       50
176
     1
290
     0
176
     1
 90
       50
176
     1
 62
   256
176
     0
 40
1.0
176
     0
 90
        2
176
     1
  1
strokes_ogs.tif
176
     1
290
     0
176
     1
 40
1.0
176
     1
 40
1.0
176
     1
  0
VISUALSTYLE
  5
32
102
{ACAD_REACTORS
330
29
102
}
330
29
100
AcDbVisualStyle
  2
Conceptual
 70
     9
177
     3
291
     0
 70
    58
 90
        3
176
     1
 90
        2
176
     1
 90
        0
176
     1
 90
        0
176
     1
 40
0.6
176
     1
 40
30.0
176
     1
 62
     7
420
 16777215
176
     1
 90
        2
176
     1
 90
        2
176
     1
 62
     7
176
     1
 62
   257
176
     1
 90
        1
176
     1
 90
        1
176
     1
 40
179.0
176
     1
 90
        8
176
     1
 62
     7
176
     1
 40
1.0
176
     1
 90
        1
176
     1
 90
        6
176
     1
 90
        2
176
     1
 62
     7
176
     1
 90
        3
176
     1
 90
        0
176
     1
 90
        0
176
     1
290
     0
176
     1
 90
        1
176
     1
 40
0.0
176
     1
 90
        0
176
     1
290
     0
176
     1
290
     1
176
     1
290
     1
176
     1
290
     0
176
     1
290
     0
176
     1
290
     0
176
     1
290
     0
176
     1
290
     0
176
     1
290
     0
176
     1
 90
       50
176
     1
 40
0.0
176
     1
 40
1.0
176
     1
 90
        0
176
     1
 62
    18
420
        0
176
     1
 90
       50
176
     1
 90
        3
176
     1
 62
     5
420
      255
176
     1
290
     0
176
     1
 90
       50
176
     1
 90
       50
176
     1
 90
       50
176
     1
290
     0
176
     1
 90
       50
176
     1
 62
   256
176
     0
 40
1.0
176
     0
 90
        2
176
     1
  1
strokes_ogs.tif
176
     1
290
     0
176
     1
 40
1.0
176
     1
 40
1.0
176
     1
  0
VISUALSTYLE
  5
34
102
{ACAD_REACTORS
330
29
102
}
330
29
100
AcDbVisualStyle
  2
Dim
 70
    11
177
     3
291
     1
 70
    58
 90
        2
176
     1
 90
        2
176
     1
 90
        0
176
     1
 90
        0
176
     1
 40
0.6
176
     1
 40
30.0
176
     1
 62
     7
420
 16777215
176
     1
 90
        1
176
     1
 90
        4
176
     1
 62
     7
176
     1
 62
   257
176
     1
 90
        1
176
     1
 90
        1
176
     1
 40
1.0
176
     1
 90
        8
176
     1
 62
     7
176
     1
 40
1.0
176
     1
 90
        1
176
     1
 90
        6
176
     1
 90
        2
176
     1
 62
     7
176
     1
 90
        5
176
     1
 90
        0
176
     1
 90
        0
176
     1
290
     0
176
     1
 90
        1
176
     1
 40
-50.0
176
     1
 90
        0
176
     1
290
     0
176
     1
290
     1
176
     1
290
     1
176
     1
290
     0
176
     1
290
     0
176
     1
290
     0
176
     1
290
     0
176
     1
290
     0
176
     1
290
     0
176
     1
 90
       50
176
     1
 40
0.0
176
     1
 40
1.0
176
     1
 90
        0
176
     1
 62
    18
420
        0
176
     1
 90
       50
176
     1
 90
        3
176
     1
 62
     5
420
      255
176
     1
290
     0
176
     1
 90
       50
176
     1
 90
       50
176
     1
 90
       50
176
     1
290
     0
176
     1
 90
       50
176
     1
 62
   256
176
     0
 40
1.0
176
     0
 90
        2
176
     1
  1
strokes_ogs.tif
176
     1
290
     0
176
     1
 40
1.0
176
     1
 40
1.0
176
     1
  0
VISUALSTYLE
  5
41
102
{ACAD_REACTORS
330
29
102
}
330
29
100
AcDbVisualStyle
  2
EdgeColorOff
 70
    22
177
     3
291
     1
 70
    58
 90
        2
176
     0
 90
        2
176
     0
 90
        0
176
     0
 90
        0
176
     0
 40
0.6
176
     0
 40
30.0
176
     0
 62
     7
420
 16777215
176
     0
 90
        1
176
     0
 90
        4
176
     0
 62
     7
176
     0
 62
   257
176
     0
 90
        1
176
     0
 90
        1
176
     0
 40
1.0
176
     0
 90
        8
176
     2
 62
     7
176
     0
 40
1.0
176
     0
 90
        1
176
     0
 90
        6
176
     0
 90
        2
176
     0
 62
     7
176
     0
 90
        5
176
     0
 90
        0
176
     0
 90
        0
176
     0
290
     0
176
     0
 90
        1
176
     0
 40
0.0
176
     0
 90
        0
176
     0
290
     0
176
     0
290
     1
176
     0
290
     1
176
     0
290
     0
176
     0
290
     0
176
     0
290
     0
176
     0
290
     0
176
     0
290
     0
176
     0
290
     0
176
     0
 90
       50
176
     0
 40
0.0
176
     0
 40
1.0
176
     0
 90
        0
176
     0
 62
    18
420
        0
176
     0
 90
       50
176
     0
 90
        3
176
     0
 62
     5
420
      255
176
     0
290
     0
176
     0
 90
       50
176
     0
 90
       50
176
     0
 90
       50
176
     0
290
     0
176
     0
 90
       50
176
     0
 62
   256
176
     0
 40
1.0
176
     0
 90
        2
176
     0
  1
strokes_ogs.tif
176
     0
290
     0
176
     0
 40
1.0
176
     0
 40
1.0
176
     0
  0
VISUALSTYLE
  5
38
102
{ACAD_REACTORS
330
29
102
}
330
29
100
AcDbVisualStyle
  2
Facepattern
 70
    15
177
     3
291
     1
 70
    58
 90
        2
176
     1
 90
        2
176
     1
 90
        0
176
     1
 90
        0
176
     1
 40
0.6
176
     1
 40
30.0
176
     1
 62
     7
420
 16777215
176
     1
 90
        1
176
     1
 90
        4
176
     1
 62
     7
176
     1
 62
   257
176
     1
 90
        1
176
     1
 90
        1
176
     1
 40
1.0
176
     1
 90
        8
176
     1
 62
     7
176
     1
 40
1.0
176
     1
 90
        1
176
     1
 90
        6
176
     1
 90
        2
176
     1
 62
     7
176
     1
 90
        5
176
     1
 90
        0
176
     1
 90
        0
176
     1
290
     0
176
     1
 90
        1
176
     1
 40
0.0
176
     1
 90
        0
176
     1
290
     0
176
     1
290
     1
176
     1
290
     1
176
     1
290
     0
176
     1
290
     0
176
     1
290
     0
176
     1
290
     0
176
     1
290
     0
176
     1
290
     0
176
     1
 90
       50
176
     1
 40
0.0
176
     1
 40
1.0
176
     1
 90
        0
176
     1
 62
    18
420
        0
176
     1
 90
       50
176
     1
 90
        3
176
     1
 62
     5
420
      255
176
     1
290
     0
176
     1
 90
       50
176
     1
 90
       50
176
     1
 90
       50
176
     1
290
     0
176
     1
 90
       50
176
     1
 62
   256
176
     0
 40
1.0
176
     0
 90
        2
176
     1
  1
strokes_ogs.tif
176
     1
290
     0
176
     1
 40
1.0
176
     1
 40
1.0
176
     1
  0
VISUALSTYLE
  5
2A
102
{ACAD_REACTORS
330
29
102
}
330
29
100
AcDbVisualStyle
  2
Flat
 70
     0
177
     3
291
     1
 70
    58
 90
        2
176
     1
 90
        1
176
     1
 90
        1
176
     1
 90
        2
176
     1
 40
0.6
176
     1
 40
30.0
176
     1
 62
     7
420
 16777215
176
     1
 90
        0
176
     1
 90
        0
176
     1
 62
     7
176
     1
 62
   257
176
     1
 90
        1
176
     1
 90
        1
176
     1
 40
1.0
176
     1
 90
        8
176
     1
 62
     7
176
     1
 40
1.0
176
     1
 90
        1
176
     1
 90
        6
176
     1
 90
        2
176
     1
 62
     7
176
     1
 90
        5
176
     1
 90
        0
176
     1
 90
        0
176
     1
290
     0
176
     1
 90
       13
176
     1
 40
0.0
176
     1
 90
        0
176
     1
290
     0
176
     1
290
     1
176
     1
290
     1
176
     1
290
     0
176
     1
290
     0
176
     1
290
     0
176
     1
290
     0
176
     1
290
     0
176
     1
290
     0
176
     1
 90
       50
176
     1
 40
0.0
176
     1
 40
1.0
176
     1
 90
        0
176
     1
 62
    18
420
        0
176
     1
 90
       50
176
     1
 90
        3
176
     1
 62
     5
420
      255
176
     1
290
     0
176
     1
 90
       50
176
     1
 90
       50
176
     1
 90
       50
176
     1
290
     0
176
     1
 90
       50
176
     1
 62
   256
176
     0
 40
1.0
176
     0
 90
        2
176
     1
  1
strokes_ogs.tif
176
     1
290
     0
176
     1
 40
1.0
176
     1
 40
1.0
176
     1
  0
VISUALSTYLE
  5
2B
102
{ACAD_REACTORS
330
29
102
}
330
29
100
AcDbVisualStyle
  2
FlatWithEdges
 70
     1
177
     3
291
     1
 70
    58
 90
        2
176
     1
 90
        1
176
     1
 90
        1
176
     1
 90
        2
176
     1
 40
0.6
176
     1
 40
30.0
176
     1
 62
     7
420
 16777215
176
     1
 90
        1
176
     1
 90
        0
176
     1
 62
     7
176
     1
 62
   257
176
     1
 90
        1
176
     1
 90
        1
176
     1
 40
1.0
176
     1
 90
        0
176
     1
 62
   257
176
     1
 40
1.0
176
     1
 90
        1
176
     1
 90
        6
176
     1
 90
        2
176
     1
 62
     7
176
     1
 90
        5
176
     1
 90
        0
176
     1
 90
        0
176
     1
290
     0
176
     1
 90
       13
176
     1
 40
0.0
176
     1
 90
        0
176
     1
290
     0
176
     1
290
     1
176
     1
290
     1
176
     1
290
     0
176
     1
290
     0
176
     1
290
     0
176
     1
290
     0
176
     1
290
     0
176
     1
290
     0
176
     1
 90
       50
176
     1
 40
0.0
176
     1
 40
1.0
176
     1
 90
        0
176
     1
 62
    18
420
        0
176
     1
 90
       50
176
     1
 90
        3
176
     1
 62
     5
420
      255
176
     1
290
     0
176
     1
 90
       50
176
     1
 90
       50
176
     1
 90
       50
176
     1
290
     0
176
     1
 90
       50
176
     1
 62
   256
176
     0
 40
1.0
176
     0
 90
        2
176
     1
  1
strokes_ogs.tif
176
     1
290
     0
176
     1
 40
1.0
176
     1
 40
1.0
176
     1
  0
VISUALSTYLE
  5
2C
102
{ACAD_REACTORS
330
29
102
}
330
29
100
AcDbVisualStyle
  2
Gouraud
 70
     2
177
     3
291
     1
 70
    58
 90
        2
176
     1
 90
        2
176
     1
 90
        1
176
     1
 90
        2
176
     1
 40
0.6
176
     1
 40
30.0
176
     1
 62
     7
420
 16777215
176
     1
 90
        0
176
     1
 90
        0
176
     1
 62
     7
176
     1
 62
   257
176
     1
 90
        1
176
     1
 90
        1
176
     1
 40
1.0
176
     1
 90
        0
176
     1
 62
     7
176
     1
 40
1.0
176
     1
 90
        1
176
     1
 90
        6
176
     1
 90
        2
176
     1
 62
     7
176
     1
 90
        5
176
     1
 90
        0
176
     1
 90
        0
176
     1
290
     0
176
     1
 90
       13
176
     1
 40
0.0
176
     1
 90
        0
176
     1
290
     0
176
     1
290
     1
176
     1
290
     1
176
     1
290
     0
176
     1
290
     0
176
     1
290
     0
176
     1
290
     0
176
     1
290
     0
176
     1
290
     0
176
     1
 90
       50
176
     1
 40
0.0
176
     1
 40
1.0
176
     1
 90
        0
176
     1
 62
    18
420
        0
176
     1
 90
       50
176
     1
 90
        3
176
     1
 62
     5
420
      255
176
     1
290
     0
176
     1
 90
       50
176
     1
 90
       50
176
     1
 90
       50
176
     1
290
     0
176
     1
 90
       50
176
     1
 62
   256
176
     0
 40
1.0
176
     0
 90
        2
176
     1
  1
strokes_ogs.tif
176
     1
290
     0
176
     1
 40
1.0
176
     1
 40
1.0
176
     1
  0
VISUALSTYLE
  5
2D
102
{ACAD_REACTORS
330
29
102
}
330
29
100
AcDbVisualStyle
  2
GouraudWithEdges
 70
     3
177
     3
291
     1
 70
    58
 90
        2
176
     1
 90
        2
176
     1
 90
        1
176
     1
 90
        2
176
     1
 40
0.6
176
     1
 40
30.0
176
     1
 62
     7
420
 16777215
176
     1
 90
        1
176
     1
 90
        0
176
     1
 62
     7
176
     1
 62
   257
176
     1
 90
        1
176
     1
 90
        1
176
     1
 40
1.0
176
     1
 90
        0
176
     1
 62
   257
176
     1
 40
1.0
176
     1
 90
        1
176
     1
 90
        6
176
     1
 90
        2
176
     1
 62
     7
176
     1
 90
        5
176
     1
 90
        0
176
     1
 90
        0
176
     1
290
     0
176
     1
 90
       13
176
     1
 40
0.0
176
     1
 90
        0
176
     1
290
     0
176
     1
290
     1
176
     1
290
     1
176
     1
290
     0
176
     1
290
     0
176
     1
290
     0
176
     1
290
     0
176
     1
290
     0
176
     1
290
     0
176
     1
 90
       50
176
     1
 40
0.0
176
     1
 40
1.0
176
     1
 90
        0
176
     1
 62
    18
420
        0
176
     1
 90
       50
176
     1
 90
        3
176
     1
 62
     5
420
      255
176
     1
290
     0
176
     1
 90
       50
176
     1
 90
       50
176
     1
 90
       50
176
     1
290
     0
176
     1
 90
       50
176
     1
 62
   256
176
     0
 40
1.0
176
     0
 90
        2
176
     1
  1
strokes_ogs.tif
176
     1
290
     0
176
     1
 40
1.0
176
     1
 40
1.0
176
     1
  0
VISUALSTYLE
  5
31
102
{ACAD_REACTORS
330
29
102
}
330
29
100
AcDbVisualStyle
  2
Hidden
 70
     6
177
     3
291
     0
 70
    58
 90
        1
176
     1
 90
        2
176
     1
 90
        2
176
     1
 90
        0
176
     1
 40
0.6
176
     1
 40
30.0
176
     1
 62
     7
420
 16777215
176
     1
 90
        2
176
     1
 90
        2
176
     1
 62
     7
176
     1
 62
   257
176
     1
 90
        2
176
     1
 90
        1
176
     1
 40
40.0
176
     1
 90
        0
176
     1
 62
   257
176
     1
 40
1.0
176
     1
 90
        1
176
     1
 90
        6
176
     1
 90
        2
176
     1
 62
     7
176
     1
 90
        3
176
     1
 90
        0
176
     1
 90
        0
176
     1
290
     0
176
     1
 90
        1
176
     1
 40
0.0
176
     1
 90
        0
176
     1
290
     0
176
     1
290
     1
176
     1
290
     1
176
     1
290
     0
176
     1
290
     0
176
     1
290
     0
176
     1
290
     0
176
     1
290
     0
176
     1
290
     0
176
     1
 90
       50
176
     1
 40
0.0
176
     1
 40
1.0
176
     1
 90
        0
176
     1
 62
    18
420
        0
176
     1
 90
       50
176
     1
 90
        3
176
     1
 62
     5
420
      255
176
     1
290
     0
176
     1
 90
       50
176
     1
 90
       50
176
     1
 90
       50
176
     1
290
     0
176
     1
 90
       50
176
     1
 62
   256
176
     0
 40
1.0
176
     0
 90
        2
176
     1
  1
strokes_ogs.tif
176
     1
290
     0
176
     1
 40
1.0
176
     1
 40
1.0
176
     1
  0
VISUALSTYLE
  5
3F
102
{ACAD_REACTORS
330
29
102
}
330
29
100
AcDbVisualStyle
  2
JitterOff
 70
    20
177
     3
291
     1
 70
    58
 90
        2
176
     0
 90
        2
176
     0
 90
        0
176
     0
 90
        0
176
     0
 40
0.6
176
     0
 40
30.0
176
     0
 62
     7
420
 16777215
176
     0
 90
        1
176
     0
 90
        4
176
     0
 62
     7
176
     0
 62
   257
176
     0
 90
        1
176
     0
 90
        1
176
     0
 40
1.0
176
     0
 90
       10
176
     2
 62
     7
176
     0
 40
1.0
176
     0
 90
        1
176
     0
 90
        6
176
     0
 90
        2
176
     0
 62
     7
176
     0
 90
        5
176
     0
 90
        0
176
     0
 90
        0
176
     0
290
     0
176
     0
 90
        1
176
     0
 40
0.0
176
     0
 90
        0
176
     0
290
     0
176
     0
290
     1
176
     0
290
     1
176
     0
290
     0
176
     0
290
     0
176
     0
290
     0
176
     0
290
     0
176
     0
290
     0
176
     0
290
     0
176
     0
 90
       50
176
     0
 40
0.0
176
     0
 40
1.0
176
     0
 90
        0
176
     0
 62
    18
420
        0
176
     0
 90
       50
176
     0
 90
        3
176
     0
 62
     5
420
      255
176
     0
290
     0
176
     0
 90
       50
176
     0
 90
       50
176
     0
 90
       50
176
     0
290
     0
176
     0
 90
       50
176
     0
 62
   256
176
     0
 40
1.0
176
     0
 90
        2
176
     0
  1
strokes_ogs.tif
176
     0
290
     0
176
     0
 40
1.0
176
     0
 40
1.0
176
     0
  0
VISUALSTYLE
  5
37
102
{ACAD_REACTORS
330
29
102
}
330
29
100
AcDbVisualStyle
  2
Linepattern
 70
    14
177
     3
291
     1
 70
    58
 90
        2
176
     1
 90
        2
176
     1
 90
        0
176
     1
 90
        0
176
     1
 40
0.6
176
     1
 40
30.0
176
     1
 62
     7
420
 16777215
176
     1
 90
        1
176
     1
 90
        4
176
     1
 62
     7
176
     1
 62
   257
176
     1
 90
        7
176
     1
 90
        7
176
     1
 40
1.0
176
     1
 90
        8
176
     1
 62
     7
176
     1
 40
1.0
176
     1
 90
        1
176
     1
 90
        6
176
     1
 90
        2
176
     1
 62
     7
176
     1
 90
        5
176
     1
 90
        0
176
     1
 90
        0
176
     1
290
     0
176
     1
 90
        1
176
     1
 40
0.0
176
     1
 90
        0
176
     1
290
     0
176
     1
290
     1
176
     1
290
     1
176
     1
290
     0
176
     1
290
     0
176
     1
290
     0
176
     1
290
     0
176
     1
290
     0
176
     1
290
     0
176
     1
 90
       50
176
     1
 40
0.0
176
     1
 40
1.0
176
     1
 90
        0
176
     1
 62
    18
420
        0
176
     1
 90
       50
176
     1
 90
        3
176
     1
 62
     5
420
      255
176
     1
290
     0
176
     1
 90
       50
176
     1
 90
       50
176
     1
 90
       50
176
     1
290
     0
176
     1
 90
       50
176
     1
 62
   256
176
     0
 40
1.0
176
     0
 90
        2
176
     1
  1
strokes_ogs.tif
176
     1
290
     0
176
     1
 40
1.0
176
     1
 40
1.0
176
     1
  0
VISUALSTYLE
  5
40
102
{ACAD_REACTORS
330
29
102
}
330
29
100
AcDbVisualStyle
  2
OverhangOff
 70
    21
177
     3
291
     1
 70
    58
 90
        2
176
     0
 90
        2
176
     0
 90
        0
176
     0
 90
        0
176
     0
 40
0.6
176
     0
 40
30.0
176
     0
 62
     7
420
 16777215
176
     0
 90
        1
176
     0
 90
        4
176
     0
 62
     7
176
     0
 62
   257
176
     0
 90
        1
176
     0
 90
        1
176
     0
 40
1.0
176
     0
 90
        9
176
     2
 62
     7
176
     0
 40
1.0
176
     0
 90
        1
176
     0
 90
        6
176
     0
 90
        2
176
     0
 62
     7
176
     0
 90
        5
176
     0
 90
        0
176
     0
 90
        0
176
     0
290
     0
176
     0
 90
        1
176
     0
 40
0.0
176
     0
 90
        0
176
     0
290
     0
176
     0
290
     1
176
     0
290
     1
176
     0
290
     0
176
     0
290
     0
176
     0
290
     0
176
     0
290
     0
176
     0
290
     0
176
     0
290
     0
176
     0
 90
       50
176
     0
 40
0.0
176
     0
 40
1.0
176
     0
 90
        0
176
     0
 62
    18
420
        0
176
     0
 90
       50
176
     0
 90
        3
176
     0
 62
     5
420
      255
176
     0
290
     0
176
     0
 90
       50
176
     0
 90
       50
176
     0
 90
       50
176
     0
290
     0
176
     0
 90
       50
176
     0
 62
   256
176
     0
 40
1.0
176
     0
 90
        2
176
     0
  1
strokes_ogs.tif
176
     0
290
     0
176
     0
 40
1.0
176
     0
 40
1.0
176
     0
  0
VISUALSTYLE
  5
33
102
{ACAD_REACTORS
330
29
102
}
330
29
100
AcDbVisualStyle
  2
Realistic
 70
     8
177
     3
291
     0
 70
    58
 90
        2
176
     1
 90
        3
176
     1
 90
        0
176
     1
 90
        2
176
     1
 40
0.6
176
     1
 40
30.0
176
     1
 62
     7
420
 16777215
176
     1
 90
        0
176
     1
 90
        0
176
     1
 62
     7
176
     1
 62
   257
176
     1
 90
        1
176
     1
 90
        1
176
     1
 40
1.0
176
     1
 90
        8
176
     1
 62
   257
176
     1
 40
1.0
176
     1
 90
        1
176
     1
 90
        6
176
     1
 90
        2
176
     1
 62
     7
176
     1
 90
        3
176
     1
 90
        0
176
     1
 90
        0
176
     1
290
     0
176
     1
 90
       13
176
     1
 40
0.0
176
     1
 90
        0
176
     1
290
     0
176
     1
290
     1
176
     1
290
     1
176
     1
290
     0
176
     1
290
     0
176
     1
290
     0
176
     1
290
     0
176
     1
290
     0
176
     1
290
     0
176
     1
 90
       50
176
     1
 40
0.0
176
     1
 40
1.0
176
     1
 90
        0
176
     1
 62
    18
420
        0
176
     1
 90
       50
176
     1
 90
        3
176
     1
 62
     5
420
      255
176
     1
290
     0
176
     1
 90
       50
176
     1
 90
       50
176
     1
 90
       50
176
     1
290
     0
176
     1
 90
       50
176
     1
 62
   256
176
     0
 40
1.0
176
     0
 90
        2
176
     1
  1
strokes_ogs.tif
176
     1
290
     0
176
     1
 40
1.0
176
     1
 40
1.0
176
     1
  0
VISUALSTYLE
  5
3E
102
{ACAD_REACTORS
330
29
102
}
330
29
100
AcDbVisualStyle
  2
Shaded
 70
    27
177
     3
291
     0
 70
    58
 90
        2
176
     1
 90
        2
176
     1
 90
        1
176
     1
 90
        2
176
     1
 40
0.6
176
     1
 40
30.0
176
     1
 62
     7
420
 16777215
176
     1
 90
        0
176
     1
 90
        4
176
     1
 62
     7
176
     1
 62
   257
176
     1
 90
        1
176
     1
 90
        1
176
     1
 40
1.0
176
     1
 90
        8
176
     1
 62
   257
176
     1
 40
1.0
176
     1
 90
        1
176
     1
 90
        6
176
     1
 90
        2
176
     1
 62
     8
420
  7895160
176
     1
 90
        3
176
     1
 90
        0
176
     1
 90
        0
176
     1
290
     0
176
     1
 90
        5
176
     1
 40
0.0
176
     1
 90
        0
176
     1
290
     0
176
     1
290
     1
176
     1
290
     1
176
     1
290
     0
176
     1
290
     0
176
     1
290
     0
176
     1
290
     0
176
     1
290
     0
176
     1
290
     0
176
     1
 90
       50
176
     1
 40
0.0
176
     1
 40
1.0
176
     1
 90
        0
176
     1
 62
    18
420
        0
176
     1
 90
       50
176
     1
 90
        3
176
     1
 62
     5
420
      255
176
     1
290
     0
176
     1
 90
       50
176
     1
 90
       50
176
     1
 90
       50
176
     1
290
     0
176
     1
 90
       50
176
     1
 62
   256
176
     0
 40
1.0
176
     0
 90
        2
176
     1
  1
strokes_ogs.tif
176
     1
290
     0
176
     1
 40
1.0
176
     1
 40
1.0
176
     1
  0
VISUALSTYLE
  5
3D
102
{ACAD_REACTORS
330
29
102
}
330
29
100
AcDbVisualStyle
  2
Shaded with edges
 70
    26
177
     3
291
     0
 70
    58
 90
        2
176
     1
 90
        2
176
     1
 90
        1
176
     1
 90
        2
176
     1
 40
0.6
176
     1
 40
30.0
176
     1
 62
     7
420
 16777215
176
     1
 90
        1
176
     1
 90
        2
176
     1
 62
     7
176
     1
 62
   257
176
     1
 90
        2
176
     1
 90
        1
176
     1
 40
1.0
176
     1
 90
        8
176
     1
 62
   257
176
     1
 40
1.0
176
     1
 90
        1
176
     1
 90
        6
176
     1
 90
        2
176
     1
 62
     7
176
     1
 90
        3
176
     1
 90
        0
176
     1
 90
        0
176
     1
290
     0
176
     1
 90
        5
176
     1
 40
0.0
176
     1
 90
        0
176
     1
290
     0
176
     1
290
     1
176
     1
290
     1
176
     1
290
     0
176
     1
290
     0
176
     1
290
     0
176
     1
290
     0
176
     1
290
     0
176
     1
290
     0
176
     1
 90
       50
176
     1
 40
0.0
176
     1
 40
1.0
176
     1
 90
        0
176
     1
 62
    18
420
        0
176
     1
 90
       50
176
     1
 90
        3
176
     1
 62
     5
420
      255
176
     1
290
     0
176
     1
 90
       50
176
     1
 90
       50
176
     1
 90
       50
176
     1
290
     0
176
     1
 90
       50
176
     1
 62
   256
176
     0
 40
1.0
176
     0
 90
        2
176
     1
  1
strokes_ogs.tif
176
     1
290
     0
176
     1
 40
1.0
176
     1
 40
1.0
176
     1
  0
VISUALSTYLE
  5
3A
102
{ACAD_REACTORS
330
29
102
}
330
29
100
AcDbVisualStyle
  2
Shades of Gray
 70
    23
177
     3
291
     0
 70
    58
 90
        2
176
     1
 90
        2
176
     1
 90
        3
176
     1
 90
        0
176
     1
 40
0.6
176
     1
 40
30.0
176
     1
 62
     7
420
 16777215
176
     1
 90
        2
176
     1
 90
        2
176
     1
 62
     7
176
     1
 62
     7
176
     1
 90
        1
176
     1
 90
        1
176
     1
 40
40.0
176
     1
 90
        8
176
     1
 62
     7
176
     1
 40
1.0
176
     1
 90
        1
176
     1
 90
        6
176
     1
 90
        2
176
     1
 62
     7
176
     1
 90
        3
176
     1
 90
        0
176
     1
 90
        0
176
     1
290
     0
176
     1
 90
        1
176
     1
 40
0.0
176
     1
 90
        0
176
     1
290
     0
176
     1
290
     1
176
     1
290
     1
176
     1
290
     0
176
     1
290
     0
176
     1
290
     0
176
     1
290
     0
176
     1
290
     0
176
     1
290
     0
176
     1
 90
       50
176
     1
 40
0.0
176
     1
 40
1.0
176
     1
 90
        0
176
     1
 62
    18
420
        0
176
     1
 90
       50
176
     1
 90
        3
176
     1
 62
     5
420
      255
176
     1
290
     0
176
     1
 90
       50
176
     1
 90
       50
176
     1
 90
       50
176
     1
290
     0
176
     1
 90
       50
176
     1
 62
   256
176
     0
 40
1.0
176
     0
 90
        2
176
     1
  1
strokes_ogs.tif
176
     1
290
     0
176
     1
 40
1.0
176
     1
 40
1.0
176
     1
  0
VISUALSTYLE
  5
3B
102
{ACAD_REACTORS
330
29
102
}
330
29
100
AcDbVisualStyle
  2
Sketchy
 70
    24
177
     3
291
     0
 70
    58
 90
        1
176
     1
 90
        2
176
     1
 90
        2
176
     1
 90
        0
176
     1
 40
0.6
176
     1
 40
30.0
176
     1
 62
     7
420
 16777215
176
     1
 90
        2
176
     1
 90
        2
176
     1
 62
     7
176
     1
 62
     7
176
     1
 90
        1
176
     1
 90
        1
176
     1
 40
40.0
176
     1
 90
       11
176
     1
 62
     7
176
     1
 40
1.0
176
     1
 90
        1
176
     1
 90
        6
176
     1
 90
        2
176
     1
 62
     7
176
     1
 90
        6
176
     1
 90
        0
176
     1
 90
        0
176
     1
290
     0
176
     1
 90
        1
176
     1
 40
0.0
176
     1
 90
        0
176
     1
290
     0
176
     1
290
     1
176
     1
290
     1
176
     1
290
     0
176
     1
290
     0
176
     1
290
     0
176
     1
290
     0
176
     1
290
     0
176
     1
290
     0
176
     1
 90
       50
176
     1
 40
0.0
176
     1
 40
1.0
176
     1
 90
        0
176
     1
 62
    18
420
        0
176
     1
 90
       50
176
     1
 90
        3
176
     1
 62
     5
420
      255
176
     1
290
     0
176
     1
 90
       50
176
     1
 90
       50
176
     1
 90
       50
176
     1
290
     0
176
     1
 90
       50
176
     1
 62
   256
176
     0
 40
1.0
176
     0
 90
        2
176
     1
  1
strokes_ogs.tif
176
     1
290
     0
176
     1
 40
1.0
176
     1
 40
1.0
176
     1
  0
VISUALSTYLE
  5
36
102
{ACAD_REACTORS
330
29
102
}
330
29
100
AcDbVisualStyle
  2
Thicken
 70
    13
177
     3
291
     1
 70
    58
 90
        2
176
     1
 90
        2
176
     1
 90
        0
176
     1
 90
        0
176
     1
 40
0.6
176
     1
 40
30.0
176
     1
 62
     7
420
 16777215
176
     1
 90
        1
176
     1
 90
        4
176
     1
 62
     7
176
     1
 62
   257
176
     1
 90
        1
176
     1
 90
        1
176
     1
 40
1.0
176
     1
 90
       12
176
     1
 62
     7
176
     1
 40
1.0
176
     1
 90
        1
176
     1
 90
        6
176
     1
 90
        2
176
     1
 62
     7
176
     1
 90
        5
176
     1
 90
        0
176
     1
 90
        0
176
     1
290
     0
176
     1
 90
        1
176
     1
 40
0.0
176
     1
 90
        0
176
     1
290
     0
176
     1
290
     1
176
     1
290
     1
176
     1
290
     0
176
     1
290
     0
176
     1
290
     0
176
     1
290
     0
176
     1
290
     0
176
     1
290
     0
176
     1
 90
       50
176
     1
 40
0.0
176
     1
 40
1.0
176
     1
 90
        0
176
     1
 62
    18
420
        0
176
     1
 90
       50
176
     1
 90
        3
176
     1
 62
     5
420
      255
176
     1
290
     0
176
     1
 90
       50
176
     1
 90
       50
176
     1
 90
       50
176
     1
290
     0
176
     1
 90
       50
176
     1
 62
   256
176
     0
 40
1.0
176
     0
 90
        2
176
     1
  1
strokes_ogs.tif
176
     1
290
     0
176
     1
 40
1.0
176
     1
 40
1.0
176
     1
  0
VISUALSTYLE
  5
30
102
{ACAD_REACTORS
330
29
102
}
330
29
100
AcDbVisualStyle
  2
Wireframe
 70
     5
177
     3
291
     0
 70
    58
 90
        0
176
     1
 90
        2
176
     1
 90
        0
176
     1
 90
        0
176
     1
 40
0.6
176
     1
 40
30.0
176
     1
 62
     7
420
 16777215
176
     1
 90
        1
176
     1
 90
        4
176
     1
 62
     7
176
     1
 62
   257
176
     1
 90
        1
176
     1
 90
        1
176
     1
 40
1.0
176
     1
 90
        0
176
     1
 62
   257
176
     1
 40
1.0
176
     1
 90
        1
176
     1
 90
        6
176
     1
 90
        2
176
     1
 62
     7
176
     1
 90
        3
176
     1
 90
        0
176
     1
 90
        0
176
     1
290
     0
176
     1
 90
        1
176
     1
 40
0.0
176
     1
 90
        0
176
     1
290
     0
176
     1
290
     1
176
     1
290
     1
176
     1
290
     0
176
     1
290
     0
176
     1
290
     0
176
     1
290
     0
176
     1
290
     0
176
     1
290
     0
176
     1
 90
       50
176
     1
 40
0.0
176
     1
 40
1.0
176
     1
 90
        0
176
     1
 62
    18
420
        0
176
     1
 90
       50
176
     1
 90
        3
176
     1
 62
     5
420
      255
176
     1
290
     0
176
     1
 90
       50
176
     1
 90
       50
176
     1
 90
       50
176
     1
290
     0
176
     1
 90
       50
176
     1
 62
   256
176
     0
 40
1.0
176
     0
 90
        2
176
     1
  1
strokes_ogs.tif
176
     1
290
     0
176
     1
 40
1.0
176
     1
 40
1.0
176
     1
  0
VISUALSTYLE
  5
3C
102
{ACAD_REACTORS
330
29
102
}
330
29
100
AcDbVisualStyle
  2
X-Ray
 70
    25
177
     3
291
     0
 70
    58
 90
        2
176
     1
 90
        2
176
     1
 90
        1
176
     1
 90
        1
176
     1
 40
0.5
176
     1
 40
30.0
176
     1
 62
     7
420
 16777215
176
     1
 90
        1
176
     1
 90
        0
176
     1
 62
     7
176
     1
 62
   257
176
     1
 90
        1
176
     1
 90
        1
176
     1
 40
1.0
176
     1
 90
        8
176
     1
 62
     7
176
     1
 40
1.0
176
     1
 90
        1
176
     1
 90
        6
176
     1
 90
        2
176
     1
 62
     7
176
     1
 90
        3
176
     1
 90
        0
176
     1
 90
        0
176
     1
290
     0
176
     1
 90
       13
176
     1
 40
0.0
176
     1
 90
        0
176
     1
290
     0
176
     1
290
     1
176
     1
290
     1
176
     1
290
     0
176
     1
290
     0
176
     1
290
     0
176
     1
290
     0
176
     1
290
     0
176
     1
290
     0
176
     1
 90
       50
176
     1
 40
0.0
176
     1
 40
1.0
176
     1
 90
        0
176
     1
 62
    18
420
        0
176
     1
 90
       50
176
     1
 90
        3
176
     1
 62
     5
420
      255
176
     1
290
     0
176
     1
 90
       50
176
     1
 90
       50
176
     1
 90
       50
176
     1
290
     0
176
     1
 90
       50
176
     1
 62
   256
176
     0
 40
1.0
176
     0
 90
        2
176
     1
  1
strokes_ogs.tif
176
     1
290
     0
176
     1
 40
1.0
176
     1
 40
1.0
176
     1
  0
DICTIONARYVAR
  5
BB
102
{ACAD_REACTORS
330
B6
102
}
330
B6
100
DictionaryVariables
280
     0
  1
1:1
  0
DICTIONARYVAR
  5
B8
102
{ACAD_REACTORS
330
B6
102
}
330
B6
100
DictionaryVariables
280
     0
  1
STANDARD
  0
DICTIONARYVAR
  5
B7
102
{ACAD_REACTORS
330
B6
102
}
330
B6
100
DictionaryVariables
280
     0
  1
STANDARD
  0
DICTIONARYVAR
  5
B9
102
{ACAD_REACTORS
330
B6
102
}
330
B6
100
DictionaryVariables
280
     0
  1
Imperial24
  0
DICTIONARYVAR
  5
BA
102
{ACAD_REACTORS
330
B6
102
}
330
B6
100
DictionaryVariables
280
     0
  1
Imperial24
  0
DICTIONARY
  5
1A
330
19
100
AcDbDictionary
280
     1
281
     1
  3
BUMPTILE
360
1C
  3
DIFFUSETILE
360
1B
  3
OPACITYTILE
360
1F
  3
REFLECTIONTILE
360
1E
  3
REFRACTIONTILE
360
20
  3
SPECULARTILE
360
1D
  0
DICTIONARY
  5
12
330
11
100
AcDbDictionary
280
     1
281
     1
  3
BUMPTILE
360
14
  3
DIFFUSETILE
360
13
  3
OPACITYTILE
360
17
  3
REFLECTIONTILE
360
16
  3
REFRACTIONTILE
360
18
  3
SPECULARTILE
360
15
  0
DICTIONARY
  5
22
330
21
100
AcDbDictionary
280
     1
281
     1
  3
BUMPTILE
360
24
  3
DIFFUSETILE
360
23
  3
OPACITYTILE
360
27
  3
REFLECTIONTILE
360
26
  3
REFRACTIONTILE
360
28
  3
SPECULARTILE
360
25
  0
DICTIONARY
  5
BC
330
65
100
AcDbDictionary
280
     1
281
     1
  3
ACAD_ROUNDTRIP_2008_TABLESTYLE_CELLSTYLEMAP
360
BD
  0
XRECORD
  5
1C
102
{ACAD_REACTORS
330
1A
102
}
330
1A
100
AcDbXrecord
280
     1
270
     1
271
     1
  0
XRECORD
  5
1B
102
{ACAD_REACTORS
330
1A
102
}
330
1A
100
AcDbXrecord
280
     1
270
     1
271
     1
  0
XRECORD
  5
1F
102
{ACAD_REACTORS
330
1A
102
}
330
1A
100
AcDbXrecord
280
     1
270
     1
271
     1
  0
XRECORD
  5
1E
102
{ACAD_REACTORS
330
1A
102
}
330
1A
100
AcDbXrecord
280
     1
270
     1
271
     1
  0
XRECORD
  5
20
102
{ACAD_REACTORS
330
1A
102
}
330
1A
100
AcDbXrecord
280
     1
270
     1
271
     1
  0
XRECORD
  5
1D
102
{ACAD_REACTORS
330
1A
102
}
330
1A
100
AcDbXrecord
280
     1
270
     1
271
     1
  0
XRECORD
  5
14
102
{ACAD_REACTORS
330
12
102
}
330
12
100
AcDbXrecord
280
     1
270
     1
271
     1
  0
XRECORD
  5
13
102
{ACAD_REACTORS
330
12
102
}
330
12
100
AcDbXrecord
280
     1
270
     1
271
     1
  0
XRECORD
  5
17
102
{ACAD_REACTORS
330
12
102
}
330
12
100
AcDbXrecord
280
     1
270
     1
271
     1
  0
XRECORD
  5
16
102
{ACAD_REACTORS
330
12
102
}
330
12
100
AcDbXrecord
280
     1
270
     1
271
     1
  0
XRECORD
  5
18
102
{ACAD_REACTORS
330
12
102
}
330
12
100
AcDbXrecord
280
     1
270
     1
271
     1
  0
XRECORD
  5
15
102
{ACAD_REACTORS
330
12
102
}
330
12
100
AcDbXrecord
280
     1
270
     1
271
     1
  0
XRECORD
  5
24
102
{ACAD_REACTORS
330
22
102
}
330
22
100
AcDbXrecord
280
     1
270
     1
271
     1
  0
XRECORD
  5
23
102
{ACAD_REACTORS
330
22
102
}
330
22
100
AcDbXrecord
280
     1
270
     1
271
     1
  0
XRECORD
  5
27
102
{ACAD_REACTORS
330
22
102
}
330
22
100
AcDbXrecord
280
     1
270
     1
271
     1
  0
XRECORD
  5
26
102
{ACAD_REACTORS
330
22
102
}
330
22
100
AcDbXrecord
280
     1
270
     1
271
     1
  0
XRECORD
  5
28
102
{ACAD_REACTORS
330
22
102
}
330
22
100
AcDbXrecord
280
     1
270
     1
271
     1
  0
XRECORD
  5
25
102
{ACAD_REACTORS
330
22
102
}
330
22
100
AcDbXrecord
280
     1
270
     1
271
     1
  0
CELLSTYLEMAP
  5
BD
102
{ACAD_REACTORS
330
BC
102
}
330
BC
100
AcDbCellStyleMap
 90
        3
300
CELLSTYLE
  1
TABLEFORMAT_BEGIN
 90
        5
170
     1
 91
        0
 92
    32768
 62
   257
 93
        1
300
CONTENTFORMAT
  1
CONTENTFORMAT_BEGIN
 90
        0
 91
        0
 92
      512
 93
        0
300

 40
0.0
140
1.0
 94
        5
 62
     0
340
55
144
0.25
309
CONTENTFORMAT_END
171
     0
 94
        0
309
TABLEFORMAT_END
  1
CELLSTYLE_BEGIN
 90
        1
 91
        1
300
_TITLE
309
CELLSTYLE_END
300
CELLSTYLE
  1
TABLEFORMAT_BEGIN
 90
        5
170
     1
 91
        0
 92
        0
 62
   257
 93
        1
300
CONTENTFORMAT
  1
CONTENTFORMAT_BEGIN
 90
        0
 91
        0
 92
      512
 93
        0
300

 40
0.0
140
1.0
 94
        5
 62
     0
340
55
144
0.18
309
CONTENTFORMAT_END
171
     0
 94
        0
309
TABLEFORMAT_END
  1
CELLSTYLE_BEGIN
 90
        2
 91
        1
300
_HEADER
309
CELLSTYLE_END
300
CELLSTYLE
  1
TABLEFORMAT_BEGIN
 90
        5
170
     1
 91
        0
 92
        0
 62
   257
 93
        1
300
CONTENTFORMAT
  1
CONTENTFORMAT_BEGIN
 90
        0
 91
        0
 92
      512
 93
        0
300

 40
0.0
140
1.0
 94
        2
 62
     0
340
55
144
0.18
309
CONTENTFORMAT_END
171
     0
 94
        0
309
TABLEFORMAT_END
  1
CELLSTYLE_BEGIN
 90
        3
 91
        2
300
_DATA
309
CELLSTYLE_END
  0
ENDSEC
  0
EOF
