%FSLAX45Y45*%
G04 Gerber Fmt 4.5, Leading zero omitted, Abs format (unit mm)*
G04 Created by KiCad (PCBNEW (6.0.1-0)) date 2023-04-19 14:24:55*
%MOMM*%
%LPD*%
G01*
G04 APERTURE LIST*
%TA.AperFunction,Profile*%
%ADD10C,0.100000*%
%TD*%
%ADD11C,0.200000*%
%ADD12C,0.040000*%
%ADD13C,0.090000*%
%ADD14C,0.100000*%
%ADD15C,0.104000*%
%ADD16C,0.147000*%
G04 APERTURE END LIST*
D10*
X38862000Y-19405600D02*
X46482000Y-19405600D01*
X4470400Y-3124200D02*
G75*
G03*
X4267200Y-3327400I0J-203200D01*
G01*
X4267200Y-3327400D02*
X4267200Y-19202400D01*
X6908800Y-18948400D02*
X7315200Y-18948400D01*
X26746200Y-18948400D02*
X26746200Y-19405600D01*
X46482000Y-19405600D02*
X46482000Y-18948400D01*
X46482000Y-18948400D02*
X46863000Y-18948400D01*
X32385000Y-18948400D02*
X32816800Y-18948400D01*
X46863000Y-18948400D02*
X46863000Y-19405600D01*
X7315200Y-19405600D02*
X14224000Y-19405600D01*
X48768000Y-19405600D02*
G75*
G03*
X48971200Y-19202400I0J203200D01*
G01*
X32816800Y-19405600D02*
X38455600Y-19405600D01*
X14630400Y-19405600D02*
X20345400Y-19405600D01*
X26339800Y-19405600D02*
X26339800Y-18948400D01*
X38455600Y-19405600D02*
X38455600Y-18948400D01*
X32385000Y-19405600D02*
X32385000Y-18948400D01*
X6908800Y-19405600D02*
X6908800Y-18948400D01*
X48971200Y-19202400D02*
X48971200Y-3327400D01*
X7315200Y-18948400D02*
X7315200Y-19405600D01*
X20726400Y-19405600D02*
X26339800Y-19405600D01*
X14224000Y-18948400D02*
X14630400Y-18948400D01*
X38862000Y-18948400D02*
X38862000Y-19405600D01*
X38455600Y-18948400D02*
X38862000Y-18948400D01*
X48768000Y-3124200D02*
X4470400Y-3124200D01*
X46863000Y-19405600D02*
X48768000Y-19405600D01*
X4470400Y-19405600D02*
X6908800Y-19405600D01*
X26746200Y-19405600D02*
X32385000Y-19405600D01*
X14630400Y-18948400D02*
X14630400Y-19405600D01*
X14224000Y-19405600D02*
X14224000Y-18948400D01*
X4267200Y-19202400D02*
G75*
G03*
X4470400Y-19405600I203200J0D01*
G01*
X26339800Y-18948400D02*
X26746200Y-18948400D01*
X20345400Y-19405600D02*
X20345400Y-18948400D01*
X20726400Y-18948400D02*
X20726400Y-19405600D01*
X32816800Y-18948400D02*
X32816800Y-19405600D01*
X20345400Y-18948400D02*
X20726400Y-18948400D01*
X48971200Y-3327400D02*
G75*
G03*
X48768000Y-3124200I-203200J0D01*
G01*
D11*
D12*
X4983800Y-4856800D02*
X5023800Y-4896800D01*
X5023800Y-4856800D02*
X4983800Y-4896800D01*
X4983800Y-8971600D02*
X5023800Y-9011600D01*
X5023800Y-8971600D02*
X4983800Y-9011600D01*
X5212400Y-13086400D02*
X5252400Y-13126400D01*
X5252400Y-13086400D02*
X5212400Y-13126400D01*
X5466400Y-11029000D02*
X5506400Y-11069000D01*
X5506400Y-11029000D02*
X5466400Y-11069000D01*
X5466400Y-17201200D02*
X5506400Y-17241200D01*
X5506400Y-17201200D02*
X5466400Y-17241200D01*
X6177600Y-15143800D02*
X6217600Y-15183800D01*
X6217600Y-15143800D02*
X6177600Y-15183800D01*
X6634800Y-15651800D02*
X6674800Y-15691800D01*
X6674800Y-15651800D02*
X6634800Y-15691800D01*
X6888800Y-8971600D02*
X6928800Y-9011600D01*
X6928800Y-8971600D02*
X6888800Y-9011600D01*
X7828600Y-11029000D02*
X7868600Y-11069000D01*
X7868600Y-11029000D02*
X7828600Y-11069000D01*
X8311200Y-13086400D02*
X8351200Y-13126400D01*
X8351200Y-13086400D02*
X8311200Y-13126400D01*
X8717600Y-14122101D02*
X8757600Y-14162101D01*
X8757600Y-14122101D02*
X8717600Y-14162101D01*
X8793800Y-4856800D02*
X8833800Y-4896800D01*
X8833800Y-4856800D02*
X8793800Y-4896800D01*
X8793800Y-8971600D02*
X8833800Y-9011600D01*
X8833800Y-8971600D02*
X8793800Y-9011600D01*
X8793800Y-15651800D02*
X8833800Y-15691800D01*
X8833800Y-15651800D02*
X8793800Y-15691800D01*
X9276400Y-15143800D02*
X9316400Y-15183800D01*
X9316400Y-15143800D02*
X9276400Y-15183800D01*
X9733600Y-11029000D02*
X9773600Y-11069000D01*
X9773600Y-11029000D02*
X9733600Y-11069000D01*
X10216200Y-13086400D02*
X10256200Y-13126400D01*
X10256200Y-13086400D02*
X10216200Y-13126400D01*
X10241600Y-17201200D02*
X10281600Y-17241200D01*
X10281600Y-17201200D02*
X10241600Y-17241200D01*
X10698800Y-4856800D02*
X10738800Y-4896800D01*
X10738800Y-4856800D02*
X10698800Y-4896800D01*
X10698800Y-8971600D02*
X10738800Y-9011600D01*
X10738800Y-8971600D02*
X10698800Y-9011600D01*
X11181400Y-15143800D02*
X11221400Y-15183800D01*
X11221400Y-15143800D02*
X11181400Y-15183800D01*
X11638600Y-11029000D02*
X11678600Y-11069000D01*
X11678600Y-11029000D02*
X11638600Y-11069000D01*
X12019600Y-13645200D02*
X12059600Y-13685200D01*
X12059600Y-13645200D02*
X12019600Y-13685200D01*
X12121200Y-13086400D02*
X12161200Y-13126400D01*
X12161200Y-13086400D02*
X12121200Y-13126400D01*
X12603800Y-4856800D02*
X12643800Y-4896800D01*
X12643800Y-4856800D02*
X12603800Y-4896800D01*
X12603800Y-8971600D02*
X12643800Y-9011600D01*
X12643800Y-8971600D02*
X12603800Y-9011600D01*
X13086400Y-15143800D02*
X13126400Y-15183800D01*
X13126400Y-15143800D02*
X13086400Y-15183800D01*
X13543600Y-11029000D02*
X13583600Y-11069000D01*
X13583600Y-11029000D02*
X13543600Y-11069000D01*
X14026200Y-13086400D02*
X14066200Y-13126400D01*
X14066200Y-13086400D02*
X14026200Y-13126400D01*
X14508800Y-4856800D02*
X14548800Y-4896800D01*
X14548800Y-4856800D02*
X14508800Y-4896800D01*
X14508800Y-8971600D02*
X14548800Y-9011600D01*
X14548800Y-8971600D02*
X14508800Y-9011600D01*
X14991400Y-15143800D02*
X15031400Y-15183800D01*
X15031400Y-15143800D02*
X14991400Y-15183800D01*
X15448600Y-11029000D02*
X15488600Y-11069000D01*
X15488600Y-11029000D02*
X15448600Y-11069000D01*
X15702600Y-17709200D02*
X15742600Y-17749200D01*
X15742600Y-17709200D02*
X15702600Y-17749200D01*
X15931200Y-13086400D02*
X15971200Y-13126400D01*
X15971200Y-13086400D02*
X15931200Y-13126400D01*
X16413800Y-8971600D02*
X16453800Y-9011600D01*
X16453800Y-8971600D02*
X16413800Y-9011600D01*
X16669000Y-5693800D02*
X16709000Y-5733800D01*
X16709000Y-5693800D02*
X16669000Y-5733800D01*
X16896400Y-15143800D02*
X16936400Y-15183800D01*
X16936400Y-15143800D02*
X16896400Y-15183800D01*
X17379000Y-4856800D02*
X17419000Y-4896800D01*
X17419000Y-4856800D02*
X17379000Y-4896800D01*
X17379000Y-11029000D02*
X17419000Y-11069000D01*
X17419000Y-11029000D02*
X17379000Y-11069000D01*
X17836200Y-13086400D02*
X17876200Y-13126400D01*
X17876200Y-13086400D02*
X17836200Y-13126400D01*
X18318800Y-8971600D02*
X18358800Y-9011600D01*
X18358800Y-8971600D02*
X18318800Y-9011600D01*
X18318800Y-17201200D02*
X18358800Y-17241200D01*
X18358800Y-17201200D02*
X18318800Y-17241200D01*
X18801400Y-15143800D02*
X18841400Y-15183800D01*
X18841400Y-15143800D02*
X18801400Y-15183800D01*
X19030000Y-5695000D02*
X19070000Y-5735000D01*
X19070000Y-5695000D02*
X19030000Y-5735000D01*
X19284000Y-4856800D02*
X19324000Y-4896800D01*
X19324000Y-4856800D02*
X19284000Y-4896800D01*
X19284000Y-11029000D02*
X19324000Y-11069000D01*
X19324000Y-11029000D02*
X19284000Y-11069000D01*
X19766600Y-13086400D02*
X19806600Y-13126400D01*
X19806600Y-13086400D02*
X19766600Y-13126400D01*
X20223800Y-8971600D02*
X20263800Y-9011600D01*
X20263800Y-8971600D02*
X20223800Y-9011600D01*
X20452400Y-17709200D02*
X20492400Y-17749200D01*
X20492400Y-17709200D02*
X20452400Y-17749200D01*
X20706400Y-15143800D02*
X20746400Y-15183800D01*
X20746400Y-15143800D02*
X20706400Y-15183800D01*
X21163600Y-11029000D02*
X21203600Y-11069000D01*
X21203600Y-11029000D02*
X21163600Y-11069000D01*
X21189000Y-4856800D02*
X21229000Y-4896800D01*
X21229000Y-4856800D02*
X21189000Y-4896800D01*
X21646200Y-13086400D02*
X21686200Y-13126400D01*
X21686200Y-13086400D02*
X21646200Y-13126400D01*
X21900200Y-9807400D02*
X21940200Y-9847400D01*
X21940200Y-9807400D02*
X21900200Y-9847400D01*
X22128800Y-8971600D02*
X22168800Y-9011600D01*
X22168800Y-8971600D02*
X22128800Y-9011600D01*
X22356200Y-15980800D02*
X22396200Y-16020800D01*
X22396200Y-15980800D02*
X22356200Y-16020800D01*
X22611400Y-15143800D02*
X22651400Y-15183800D01*
X22651400Y-15143800D02*
X22611400Y-15183800D01*
X22838800Y-11866000D02*
X22878800Y-11906000D01*
X22878800Y-11866000D02*
X22838800Y-11906000D01*
X23068600Y-4856800D02*
X23108600Y-4896800D01*
X23108600Y-4856800D02*
X23068600Y-4896800D01*
X23068600Y-11029000D02*
X23108600Y-11069000D01*
X23108600Y-11029000D02*
X23068600Y-11069000D01*
X23321400Y-13923400D02*
X23361400Y-13963400D01*
X23361400Y-13923400D02*
X23321400Y-13963400D01*
X23551200Y-13086400D02*
X23591200Y-13126400D01*
X23591200Y-13086400D02*
X23551200Y-13126400D01*
X23805200Y-9809800D02*
X23845200Y-9849800D01*
X23845200Y-9809800D02*
X23805200Y-9849800D01*
X23871250Y-3977950D02*
X23911250Y-4017950D01*
X23911250Y-3977950D02*
X23871250Y-4017950D01*
X24033800Y-8971600D02*
X24073800Y-9011600D01*
X24073800Y-8971600D02*
X24033800Y-9011600D01*
X24262400Y-15982000D02*
X24302400Y-16022000D01*
X24302400Y-15982000D02*
X24262400Y-16022000D01*
X24465600Y-18610809D02*
X24505600Y-18650809D01*
X24505600Y-18610809D02*
X24465600Y-18650809D01*
X24516400Y-15143800D02*
X24556400Y-15183800D01*
X24556400Y-15143800D02*
X24516400Y-15183800D01*
X24516400Y-17709200D02*
X24556400Y-17749200D01*
X24556400Y-17709200D02*
X24516400Y-17749200D01*
X24566770Y-8336170D02*
X24606770Y-8376170D01*
X24606770Y-8336170D02*
X24566770Y-8376170D01*
X24745000Y-11867200D02*
X24785000Y-11907200D01*
X24785000Y-11867200D02*
X24745000Y-11907200D01*
X24973600Y-11029000D02*
X25013600Y-11069000D01*
X25013600Y-11029000D02*
X24973600Y-11069000D01*
X25227600Y-13924600D02*
X25267600Y-13964600D01*
X25267600Y-13924600D02*
X25227600Y-13964600D01*
X25456200Y-13086400D02*
X25496200Y-13126400D01*
X25496200Y-13086400D02*
X25456200Y-13126400D01*
X25709000Y-18038200D02*
X25749000Y-18078200D01*
X25749000Y-18038200D02*
X25709000Y-18078200D01*
X25888000Y-6253800D02*
X25928000Y-6293800D01*
X25928000Y-6253800D02*
X25888000Y-6293800D01*
X25938800Y-4856800D02*
X25978800Y-4896800D01*
X25978800Y-4856800D02*
X25938800Y-4896800D01*
X25938800Y-8971600D02*
X25978800Y-9011600D01*
X25978800Y-8971600D02*
X25938800Y-9011600D01*
X26421400Y-15143800D02*
X26461400Y-15183800D01*
X26461400Y-15143800D02*
X26421400Y-15183800D01*
X26421400Y-17201200D02*
X26461400Y-17241200D01*
X26461400Y-17201200D02*
X26421400Y-17241200D01*
X26878600Y-11029000D02*
X26918600Y-11069000D01*
X26918600Y-11029000D02*
X26878600Y-11069000D01*
X26954800Y-3815400D02*
X26994800Y-3855400D01*
X26994800Y-3815400D02*
X26954800Y-3855400D01*
X26956055Y-3916605D02*
X26996055Y-3956605D01*
X26996055Y-3916605D02*
X26956055Y-3956605D01*
X27361200Y-13086400D02*
X27401200Y-13126400D01*
X27401200Y-13086400D02*
X27361200Y-13126400D01*
X27771350Y-10007301D02*
X27811350Y-10047301D01*
X27811350Y-10007301D02*
X27771350Y-10047301D01*
X27843800Y-4856800D02*
X27883800Y-4896800D01*
X27883800Y-4856800D02*
X27843800Y-4896800D01*
X27843800Y-8971600D02*
X27883800Y-9011600D01*
X27883800Y-8971600D02*
X27843800Y-9011600D01*
X28783600Y-11029000D02*
X28823600Y-11069000D01*
X28823600Y-11029000D02*
X28783600Y-11069000D01*
X28961400Y-5491800D02*
X29001400Y-5531800D01*
X29001400Y-5491800D02*
X28961400Y-5531800D01*
X29399550Y-13852014D02*
X29439550Y-13892014D01*
X29439550Y-13852014D02*
X29399550Y-13892014D01*
X29748800Y-4856800D02*
X29788800Y-4896800D01*
X29788800Y-4856800D02*
X29748800Y-4896800D01*
X29748800Y-15651800D02*
X29788800Y-15691800D01*
X29788800Y-15651800D02*
X29748800Y-15691800D01*
X30002800Y-15143800D02*
X30042800Y-15183800D01*
X30042800Y-15143800D02*
X30002800Y-15183800D01*
X30460000Y-13086400D02*
X30500000Y-13126400D01*
X30500000Y-13086400D02*
X30460000Y-13126400D01*
X30637800Y-7447600D02*
X30677800Y-7487600D01*
X30677800Y-7447600D02*
X30637800Y-7487600D01*
X30688600Y-13594400D02*
X30728600Y-13634400D01*
X30728600Y-13594400D02*
X30688600Y-13634400D01*
X31066425Y-15908015D02*
X31106425Y-15948015D01*
X31106425Y-15908015D02*
X31066425Y-15948015D01*
X31171200Y-9479600D02*
X31211200Y-9519600D01*
X31211200Y-9479600D02*
X31171200Y-9519600D01*
X31171200Y-11029000D02*
X31211200Y-11069000D01*
X31211200Y-11029000D02*
X31171200Y-11069000D01*
X31171200Y-17201200D02*
X31211200Y-17241200D01*
X31211200Y-17201200D02*
X31171200Y-17241200D01*
X31282325Y-14892015D02*
X31322325Y-14932015D01*
X31322325Y-14892015D02*
X31282325Y-14932015D01*
X31425200Y-12070400D02*
X31465200Y-12110400D01*
X31465200Y-12070400D02*
X31425200Y-12110400D01*
X31526915Y-14391283D02*
X31566915Y-14431283D01*
X31566915Y-14391283D02*
X31526915Y-14431283D01*
X31653800Y-4856800D02*
X31693800Y-4896800D01*
X31693800Y-4856800D02*
X31653800Y-4896800D01*
X31758575Y-12836013D02*
X31798575Y-12876013D01*
X31798575Y-12836013D02*
X31758575Y-12876013D01*
X31780800Y-9740010D02*
X31820800Y-9780010D01*
X31820800Y-9740010D02*
X31780800Y-9780010D01*
X32009400Y-8717600D02*
X32049400Y-8757600D01*
X32049400Y-8717600D02*
X32009400Y-8757600D01*
X32365000Y-15651800D02*
X32405000Y-15691800D01*
X32405000Y-15651800D02*
X32365000Y-15691800D01*
X32472950Y-16948019D02*
X32512950Y-16988019D01*
X32512950Y-16948019D02*
X32472950Y-16988019D01*
X32492000Y-16474198D02*
X32532000Y-16514198D01*
X32532000Y-16474198D02*
X32492000Y-16514198D01*
X32711075Y-11808012D02*
X32751075Y-11848012D01*
X32751075Y-11808012D02*
X32711075Y-11848012D01*
X33762000Y-4780600D02*
X33802000Y-4820600D01*
X33802000Y-4780600D02*
X33762000Y-4820600D01*
X34447800Y-4882200D02*
X34487800Y-4922200D01*
X34487800Y-4882200D02*
X34447800Y-4922200D01*
X34447800Y-8971600D02*
X34487800Y-9011600D01*
X34487800Y-8971600D02*
X34447800Y-9011600D01*
X34447800Y-11029000D02*
X34487800Y-11069000D01*
X34487800Y-11029000D02*
X34447800Y-11069000D01*
X34447800Y-17201200D02*
X34487800Y-17241200D01*
X34487800Y-17201200D02*
X34447800Y-17241200D01*
X35006600Y-8184200D02*
X35046600Y-8224200D01*
X35046600Y-8184200D02*
X35006600Y-8224200D01*
X35117546Y-8187950D02*
X35157546Y-8227950D01*
X35157546Y-8187950D02*
X35117546Y-8227950D01*
X35742550Y-8724010D02*
X35782550Y-8764010D01*
X35782550Y-8724010D02*
X35742550Y-8764010D01*
X35742550Y-10780012D02*
X35782550Y-10820012D01*
X35782550Y-10780012D02*
X35742550Y-10820012D01*
X35794000Y-14346446D02*
X35834000Y-14386446D01*
X35834000Y-14346446D02*
X35794000Y-14386446D01*
X35895600Y-13070598D02*
X35935600Y-13110598D01*
X35935600Y-13070598D02*
X35895600Y-13110598D01*
X36235398Y-5796600D02*
X36275398Y-5836600D01*
X36275398Y-5796600D02*
X36235398Y-5836600D01*
X36280350Y-5695000D02*
X36320350Y-5735000D01*
X36320350Y-5695000D02*
X36280350Y-5735000D01*
X36352800Y-4856800D02*
X36392800Y-4896800D01*
X36392800Y-4856800D02*
X36352800Y-4896800D01*
X36352800Y-8971600D02*
X36392800Y-9011600D01*
X36392800Y-8971600D02*
X36352800Y-9011600D01*
X36352800Y-11029000D02*
X36392800Y-11069000D01*
X36392800Y-11029000D02*
X36352800Y-11069000D01*
X36352800Y-15143800D02*
X36392800Y-15183800D01*
X36392800Y-15143800D02*
X36352800Y-15183800D01*
X36352800Y-17201200D02*
X36392800Y-17241200D01*
X36392800Y-17201200D02*
X36352800Y-17241200D01*
X37647550Y-10780012D02*
X37687550Y-10820012D01*
X37687550Y-10780012D02*
X37647550Y-10820012D01*
X37724400Y-16417550D02*
X37764400Y-16457550D01*
X37764400Y-16417550D02*
X37724400Y-16457550D01*
X38257800Y-4856800D02*
X38297800Y-4896800D01*
X38297800Y-4856800D02*
X38257800Y-4896800D01*
X38257800Y-8971600D02*
X38297800Y-9011600D01*
X38297800Y-8971600D02*
X38257800Y-9011600D01*
X38257800Y-11029000D02*
X38297800Y-11069000D01*
X38297800Y-11029000D02*
X38257800Y-11069000D01*
X38257800Y-17201200D02*
X38297800Y-17241200D01*
X38297800Y-17201200D02*
X38257800Y-17241200D01*
X39146800Y-15270800D02*
X39186800Y-15310800D01*
X39186800Y-15270800D02*
X39146800Y-15310800D01*
X39552550Y-8724010D02*
X39592550Y-8764010D01*
X39592550Y-8724010D02*
X39552550Y-8764010D01*
X39552550Y-10780012D02*
X39592550Y-10820012D01*
X39592550Y-10780012D02*
X39552550Y-10820012D01*
X39553200Y-14391398D02*
X39593200Y-14431398D01*
X39593200Y-14391398D02*
X39553200Y-14431398D01*
X40112000Y-12857800D02*
X40152000Y-12897800D01*
X40152000Y-12857800D02*
X40112000Y-12897800D01*
X41051370Y-15703030D02*
X41091370Y-15743030D01*
X41091370Y-15703030D02*
X41051370Y-15743030D01*
X41051800Y-8971600D02*
X41091800Y-9011600D01*
X41091800Y-8971600D02*
X41051800Y-9011600D01*
X41051800Y-11029000D02*
X41091800Y-11069000D01*
X41091800Y-11029000D02*
X41051800Y-11069000D01*
X41051800Y-13086400D02*
X41091800Y-13126400D01*
X41091800Y-13086400D02*
X41051800Y-13126400D01*
X41051800Y-15143800D02*
X41091800Y-15183800D01*
X41091800Y-15143800D02*
X41051800Y-15183800D01*
X42017000Y-17201200D02*
X42057000Y-17241200D01*
X42057000Y-17201200D02*
X42017000Y-17241200D01*
X42474200Y-17709200D02*
X42514200Y-17749200D01*
X42514200Y-17709200D02*
X42474200Y-17749200D01*
X42956800Y-8971600D02*
X42996800Y-9011600D01*
X42996800Y-8971600D02*
X42956800Y-9011600D01*
X42956800Y-11029000D02*
X42996800Y-11069000D01*
X42996800Y-11029000D02*
X42956800Y-11069000D01*
X42956800Y-13086400D02*
X42996800Y-13126400D01*
X42996800Y-13086400D02*
X42956800Y-13126400D01*
X42956800Y-15143800D02*
X42996800Y-15183800D01*
X42996800Y-15143800D02*
X42956800Y-15183800D01*
X43082500Y-17964018D02*
X43122500Y-18004018D01*
X43122500Y-17964018D02*
X43082500Y-18004018D01*
X43541000Y-16495216D02*
X43581000Y-16535216D01*
X43581000Y-16495216D02*
X43541000Y-16535216D01*
X44125200Y-3742950D02*
X44165200Y-3782950D01*
X44165200Y-3742950D02*
X44125200Y-3782950D01*
X44379200Y-17709200D02*
X44419200Y-17749200D01*
X44419200Y-17709200D02*
X44379200Y-17749200D01*
X44861800Y-8971600D02*
X44901800Y-9011600D01*
X44901800Y-8971600D02*
X44861800Y-9011600D01*
X44861800Y-11029000D02*
X44901800Y-11069000D01*
X44901800Y-11029000D02*
X44861800Y-11069000D01*
X44861800Y-13086400D02*
X44901800Y-13126400D01*
X44901800Y-13086400D02*
X44861800Y-13126400D01*
X44861800Y-15143800D02*
X44901800Y-15183800D01*
X44901800Y-15143800D02*
X44861800Y-15183800D01*
X44861800Y-17201200D02*
X44901800Y-17241200D01*
X44901800Y-17201200D02*
X44861800Y-17241200D01*
X46766800Y-8971600D02*
X46806800Y-9011600D01*
X46806800Y-8971600D02*
X46766800Y-9011600D01*
X46766800Y-12070400D02*
X46806800Y-12110400D01*
X46806800Y-12070400D02*
X46766800Y-12110400D01*
X46766800Y-13086400D02*
X46806800Y-13126400D01*
X46806800Y-13086400D02*
X46766800Y-13126400D01*
X46766800Y-16185200D02*
X46806800Y-16225200D01*
X46806800Y-16185200D02*
X46766800Y-16225200D01*
X46766800Y-17201200D02*
X46806800Y-17241200D01*
X46806800Y-17201200D02*
X46766800Y-17241200D01*
X47732000Y-10571800D02*
X47772000Y-10611800D01*
X47772000Y-10571800D02*
X47732000Y-10611800D01*
X47732000Y-14686600D02*
X47772000Y-14726600D01*
X47772000Y-14686600D02*
X47732000Y-14726600D01*
D13*
X41451500Y-5788000D02*
G75*
G03*
X41451500Y-5788000I-45000J0D01*
G01*
X41705500Y-5788000D02*
G75*
G03*
X41705500Y-5788000I-45000J0D01*
G01*
X43942500Y-5790000D02*
G75*
G03*
X43942500Y-5790000I-45000J0D01*
G01*
X44196500Y-5790000D02*
G75*
G03*
X44196500Y-5790000I-45000J0D01*
G01*
X46448500Y-5790000D02*
G75*
G03*
X46448500Y-5790000I-45000J0D01*
G01*
X46702500Y-5790000D02*
G75*
G03*
X46702500Y-5790000I-45000J0D01*
G01*
D14*
X5807600Y-14148600D02*
X5807600Y-14248600D01*
X5757600Y-14198600D02*
X5857600Y-14198600D01*
X6587600Y-14148600D02*
X6587600Y-14248600D01*
X6537600Y-14198600D02*
X6637600Y-14198600D01*
X34928350Y-4390006D02*
X34928350Y-4490006D01*
X34878350Y-4440006D02*
X34978350Y-4440006D01*
X34928350Y-5840005D02*
X34928350Y-5940005D01*
X34878350Y-5890005D02*
X34978350Y-5890005D01*
X35178350Y-5840005D02*
X35178350Y-5940005D01*
X35128350Y-5890005D02*
X35228350Y-5890005D01*
X35428350Y-4390006D02*
X35428350Y-4490006D01*
X35378350Y-4440006D02*
X35478350Y-4440006D01*
X35428350Y-5840005D02*
X35428350Y-5940005D01*
X35378350Y-5890005D02*
X35478350Y-5890005D01*
X36693350Y-6198400D02*
X36693350Y-6298400D01*
X36643350Y-6248400D02*
X36743350Y-6248400D01*
X36833350Y-4390006D02*
X36833350Y-4490006D01*
X36783350Y-4440006D02*
X36883350Y-4440006D01*
X36833350Y-5840005D02*
X36833350Y-5940005D01*
X36783350Y-5890005D02*
X36883350Y-5890005D01*
X37083350Y-5840005D02*
X37083350Y-5940005D01*
X37033350Y-5890005D02*
X37133350Y-5890005D01*
X37333350Y-4390006D02*
X37333350Y-4490006D01*
X37283350Y-4440006D02*
X37383350Y-4440006D01*
X37333350Y-5840005D02*
X37333350Y-5940005D01*
X37283350Y-5890005D02*
X37383350Y-5890005D01*
X37473350Y-6198400D02*
X37473350Y-6298400D01*
X37423350Y-6248400D02*
X37523350Y-6248400D01*
X38738350Y-4390006D02*
X38738350Y-4490006D01*
X38688350Y-4440006D02*
X38788350Y-4440006D01*
X38738350Y-5840005D02*
X38738350Y-5940005D01*
X38688350Y-5890005D02*
X38788350Y-5890005D01*
X38988350Y-5840005D02*
X38988350Y-5940005D01*
X38938350Y-5890005D02*
X39038350Y-5890005D01*
X39238350Y-4390006D02*
X39238350Y-4490006D01*
X39188350Y-4440006D02*
X39288350Y-4440006D01*
X39238350Y-5840005D02*
X39238350Y-5940005D01*
X39188350Y-5890005D02*
X39288350Y-5890005D01*
X41144000Y-6249200D02*
X41144000Y-6349200D01*
X41094000Y-6299200D02*
X41194000Y-6299200D01*
X41391700Y-10033800D02*
X41391700Y-10133800D01*
X41341700Y-10083800D02*
X41441700Y-10083800D01*
X41924000Y-6249200D02*
X41924000Y-6349200D01*
X41874000Y-6299200D02*
X41974000Y-6299200D01*
X42171700Y-10033800D02*
X42171700Y-10133800D01*
X42121700Y-10083800D02*
X42221700Y-10083800D01*
X43635000Y-6249200D02*
X43635000Y-6349200D01*
X43585000Y-6299200D02*
X43685000Y-6299200D01*
X44415000Y-6249200D02*
X44415000Y-6349200D01*
X44365000Y-6299200D02*
X44465000Y-6299200D01*
X46141000Y-6249200D02*
X46141000Y-6349200D01*
X46091000Y-6299200D02*
X46191000Y-6299200D01*
X46921000Y-6249200D02*
X46921000Y-6349200D01*
X46871000Y-6299200D02*
X46971000Y-6299200D01*
D15*
X5862895Y-13908783D02*
X5862895Y-13835243D01*
X5789355Y-13835243D01*
X5789355Y-13908783D01*
X5862895Y-13908783D01*
X6116895Y-13908783D02*
X6116895Y-13835243D01*
X6043355Y-13835243D01*
X6043355Y-13908783D01*
X6116895Y-13908783D01*
X6339145Y-13908783D02*
X6339145Y-13835243D01*
X6265605Y-13835243D01*
X6265605Y-13908783D01*
X6339145Y-13908783D01*
X6593145Y-13908783D02*
X6593145Y-13835243D01*
X6519605Y-13835243D01*
X6519605Y-13908783D01*
X6593145Y-13908783D01*
X36993120Y-5684775D02*
X36993120Y-5611236D01*
X36919580Y-5611236D01*
X36919580Y-5684775D01*
X36993120Y-5684775D01*
X37247120Y-5684775D02*
X37247120Y-5611236D01*
X37173580Y-5611236D01*
X37173580Y-5684775D01*
X37247120Y-5684775D01*
X41691470Y-9796780D02*
X41691470Y-9723240D01*
X41617930Y-9723240D01*
X41617930Y-9796780D01*
X41691470Y-9796780D01*
X41945470Y-9796780D02*
X41945470Y-9723240D01*
X41871930Y-9723240D01*
X41871930Y-9796780D01*
X41945470Y-9796780D01*
D16*
X6048375Y-13183513D02*
X6121875Y-13110013D01*
X6048375Y-13036513D01*
X5974875Y-13110013D01*
X6048375Y-13183513D01*
X6683375Y-12929513D02*
X6756875Y-12856013D01*
X6683375Y-12782513D01*
X6609875Y-12856013D01*
X6683375Y-12929513D01*
D11*
X4519819Y-19721076D02*
X4519819Y-19521076D01*
X4567438Y-19521076D01*
X4596010Y-19530600D01*
X4615057Y-19549648D01*
X4624581Y-19568695D01*
X4634105Y-19606790D01*
X4634105Y-19635362D01*
X4624581Y-19673457D01*
X4615057Y-19692505D01*
X4596010Y-19711552D01*
X4567438Y-19721076D01*
X4519819Y-19721076D01*
X4719819Y-19721076D02*
X4719819Y-19587743D01*
X4719819Y-19625838D02*
X4729343Y-19606790D01*
X4738867Y-19597267D01*
X4757914Y-19587743D01*
X4776962Y-19587743D01*
X4843629Y-19721076D02*
X4843629Y-19587743D01*
X4843629Y-19521076D02*
X4834105Y-19530600D01*
X4843629Y-19540124D01*
X4853152Y-19530600D01*
X4843629Y-19521076D01*
X4843629Y-19540124D01*
X4967438Y-19721076D02*
X4948390Y-19711552D01*
X4938867Y-19692505D01*
X4938867Y-19521076D01*
X5072200Y-19721076D02*
X5053152Y-19711552D01*
X5043629Y-19692505D01*
X5043629Y-19521076D01*
X5300771Y-19721076D02*
X5300771Y-19521076D01*
X5367438Y-19663933D01*
X5434105Y-19521076D01*
X5434105Y-19721076D01*
X5615057Y-19721076D02*
X5615057Y-19616314D01*
X5605533Y-19597267D01*
X5586486Y-19587743D01*
X5548390Y-19587743D01*
X5529343Y-19597267D01*
X5615057Y-19711552D02*
X5596009Y-19721076D01*
X5548390Y-19721076D01*
X5529343Y-19711552D01*
X5519819Y-19692505D01*
X5519819Y-19673457D01*
X5529343Y-19654410D01*
X5548390Y-19644886D01*
X5596009Y-19644886D01*
X5615057Y-19635362D01*
X5710295Y-19587743D02*
X5710295Y-19787743D01*
X5710295Y-19597267D02*
X5729343Y-19587743D01*
X5767438Y-19587743D01*
X5786486Y-19597267D01*
X5796009Y-19606790D01*
X5805533Y-19625838D01*
X5805533Y-19682981D01*
X5796009Y-19702029D01*
X5786486Y-19711552D01*
X5767438Y-19721076D01*
X5729343Y-19721076D01*
X5710295Y-19711552D01*
X5891248Y-19702029D02*
X5900771Y-19711552D01*
X5891248Y-19721076D01*
X5881724Y-19711552D01*
X5891248Y-19702029D01*
X5891248Y-19721076D01*
X5891248Y-19597267D02*
X5900771Y-19606790D01*
X5891248Y-19616314D01*
X5881724Y-19606790D01*
X5891248Y-19597267D01*
X5891248Y-19616314D01*
D12*
X4222200Y-20030600D02*
X4262200Y-20070600D01*
X4262200Y-20030600D02*
X4222200Y-20070600D01*
D11*
X4557914Y-19941076D02*
X4576962Y-19941076D01*
X4596010Y-19950600D01*
X4605533Y-19960124D01*
X4615057Y-19979171D01*
X4624581Y-20017267D01*
X4624581Y-20064886D01*
X4615057Y-20102981D01*
X4605533Y-20122029D01*
X4596010Y-20131552D01*
X4576962Y-20141076D01*
X4557914Y-20141076D01*
X4538867Y-20131552D01*
X4529343Y-20122029D01*
X4519819Y-20102981D01*
X4510295Y-20064886D01*
X4510295Y-20017267D01*
X4519819Y-19979171D01*
X4529343Y-19960124D01*
X4538867Y-19950600D01*
X4557914Y-19941076D01*
X4710295Y-20122029D02*
X4719819Y-20131552D01*
X4710295Y-20141076D01*
X4700771Y-20131552D01*
X4710295Y-20122029D01*
X4710295Y-20141076D01*
X4891248Y-20007743D02*
X4891248Y-20141076D01*
X4843629Y-19931552D02*
X4796010Y-20074410D01*
X4919819Y-20074410D01*
X5034105Y-19941076D02*
X5053152Y-19941076D01*
X5072200Y-19950600D01*
X5081724Y-19960124D01*
X5091248Y-19979171D01*
X5100771Y-20017267D01*
X5100771Y-20064886D01*
X5091248Y-20102981D01*
X5081724Y-20122029D01*
X5072200Y-20131552D01*
X5053152Y-20141076D01*
X5034105Y-20141076D01*
X5015057Y-20131552D01*
X5005533Y-20122029D01*
X4996010Y-20102981D01*
X4986486Y-20064886D01*
X4986486Y-20017267D01*
X4996010Y-19979171D01*
X5005533Y-19960124D01*
X5015057Y-19950600D01*
X5034105Y-19941076D01*
X5224581Y-19941076D02*
X5243629Y-19941076D01*
X5262676Y-19950600D01*
X5272200Y-19960124D01*
X5281724Y-19979171D01*
X5291248Y-20017267D01*
X5291248Y-20064886D01*
X5281724Y-20102981D01*
X5272200Y-20122029D01*
X5262676Y-20131552D01*
X5243629Y-20141076D01*
X5224581Y-20141076D01*
X5205533Y-20131552D01*
X5196010Y-20122029D01*
X5186486Y-20102981D01*
X5176962Y-20064886D01*
X5176962Y-20017267D01*
X5186486Y-19979171D01*
X5196010Y-19960124D01*
X5205533Y-19950600D01*
X5224581Y-19941076D01*
X5376962Y-20141076D02*
X5376962Y-20007743D01*
X5376962Y-20026790D02*
X5386486Y-20017267D01*
X5405533Y-20007743D01*
X5434105Y-20007743D01*
X5453152Y-20017267D01*
X5462676Y-20036314D01*
X5462676Y-20141076D01*
X5462676Y-20036314D02*
X5472200Y-20017267D01*
X5491248Y-20007743D01*
X5519819Y-20007743D01*
X5538867Y-20017267D01*
X5548390Y-20036314D01*
X5548390Y-20141076D01*
X5643628Y-20141076D02*
X5643628Y-20007743D01*
X5643628Y-20026790D02*
X5653152Y-20017267D01*
X5672200Y-20007743D01*
X5700771Y-20007743D01*
X5719819Y-20017267D01*
X5729343Y-20036314D01*
X5729343Y-20141076D01*
X5729343Y-20036314D02*
X5738867Y-20017267D01*
X5757914Y-20007743D01*
X5786486Y-20007743D01*
X5805533Y-20017267D01*
X5815057Y-20036314D01*
X5815057Y-20141076D01*
X6205533Y-19931552D02*
X6034105Y-20188695D01*
X6462676Y-19941076D02*
X6481724Y-19941076D01*
X6500771Y-19950600D01*
X6510295Y-19960124D01*
X6519819Y-19979171D01*
X6529343Y-20017267D01*
X6529343Y-20064886D01*
X6519819Y-20102981D01*
X6510295Y-20122029D01*
X6500771Y-20131552D01*
X6481724Y-20141076D01*
X6462676Y-20141076D01*
X6443628Y-20131552D01*
X6434105Y-20122029D01*
X6424581Y-20102981D01*
X6415057Y-20064886D01*
X6415057Y-20017267D01*
X6424581Y-19979171D01*
X6434105Y-19960124D01*
X6443628Y-19950600D01*
X6462676Y-19941076D01*
X6615057Y-20122029D02*
X6624581Y-20131552D01*
X6615057Y-20141076D01*
X6605533Y-20131552D01*
X6615057Y-20122029D01*
X6615057Y-20141076D01*
X6748390Y-19941076D02*
X6767438Y-19941076D01*
X6786486Y-19950600D01*
X6796009Y-19960124D01*
X6805533Y-19979171D01*
X6815057Y-20017267D01*
X6815057Y-20064886D01*
X6805533Y-20102981D01*
X6796009Y-20122029D01*
X6786486Y-20131552D01*
X6767438Y-20141076D01*
X6748390Y-20141076D01*
X6729343Y-20131552D01*
X6719819Y-20122029D01*
X6710295Y-20102981D01*
X6700771Y-20064886D01*
X6700771Y-20017267D01*
X6710295Y-19979171D01*
X6719819Y-19960124D01*
X6729343Y-19950600D01*
X6748390Y-19941076D01*
X7005533Y-20141076D02*
X6891248Y-20141076D01*
X6948390Y-20141076D02*
X6948390Y-19941076D01*
X6929343Y-19969648D01*
X6910295Y-19988695D01*
X6891248Y-19998219D01*
X7186486Y-19941076D02*
X7091248Y-19941076D01*
X7081724Y-20036314D01*
X7091248Y-20026790D01*
X7110295Y-20017267D01*
X7157914Y-20017267D01*
X7176962Y-20026790D01*
X7186486Y-20036314D01*
X7196009Y-20055362D01*
X7196009Y-20102981D01*
X7186486Y-20122029D01*
X7176962Y-20131552D01*
X7157914Y-20141076D01*
X7110295Y-20141076D01*
X7091248Y-20131552D01*
X7081724Y-20122029D01*
X7262676Y-19941076D02*
X7396009Y-19941076D01*
X7310295Y-20141076D01*
X7462676Y-19941076D02*
X7462676Y-19979171D01*
X7538867Y-19941076D02*
X7538867Y-19979171D01*
X7834105Y-20217267D02*
X7824581Y-20207743D01*
X7805533Y-20179171D01*
X7796009Y-20160124D01*
X7786486Y-20131552D01*
X7776962Y-20083933D01*
X7776962Y-20045838D01*
X7786486Y-19998219D01*
X7796009Y-19969648D01*
X7805533Y-19950600D01*
X7824581Y-19922029D01*
X7834105Y-19912505D01*
X8015057Y-20141076D02*
X7900771Y-20141076D01*
X7957914Y-20141076D02*
X7957914Y-19941076D01*
X7938867Y-19969648D01*
X7919819Y-19988695D01*
X7900771Y-19998219D01*
X8186486Y-19941076D02*
X8148390Y-19941076D01*
X8129343Y-19950600D01*
X8119819Y-19960124D01*
X8100771Y-19988695D01*
X8091248Y-20026790D01*
X8091248Y-20102981D01*
X8100771Y-20122029D01*
X8110295Y-20131552D01*
X8129343Y-20141076D01*
X8167438Y-20141076D01*
X8186486Y-20131552D01*
X8196009Y-20122029D01*
X8205533Y-20102981D01*
X8205533Y-20055362D01*
X8196009Y-20036314D01*
X8186486Y-20026790D01*
X8167438Y-20017267D01*
X8129343Y-20017267D01*
X8110295Y-20026790D01*
X8100771Y-20036314D01*
X8091248Y-20055362D01*
X8319819Y-20026790D02*
X8300771Y-20017267D01*
X8291248Y-20007743D01*
X8281724Y-19988695D01*
X8281724Y-19979171D01*
X8291248Y-19960124D01*
X8300771Y-19950600D01*
X8319819Y-19941076D01*
X8357914Y-19941076D01*
X8376962Y-19950600D01*
X8386486Y-19960124D01*
X8396010Y-19979171D01*
X8396010Y-19988695D01*
X8386486Y-20007743D01*
X8376962Y-20017267D01*
X8357914Y-20026790D01*
X8319819Y-20026790D01*
X8300771Y-20036314D01*
X8291248Y-20045838D01*
X8281724Y-20064886D01*
X8281724Y-20102981D01*
X8291248Y-20122029D01*
X8300771Y-20131552D01*
X8319819Y-20141076D01*
X8357914Y-20141076D01*
X8376962Y-20131552D01*
X8386486Y-20122029D01*
X8396010Y-20102981D01*
X8396010Y-20064886D01*
X8386486Y-20045838D01*
X8376962Y-20036314D01*
X8357914Y-20026790D01*
X8634105Y-20141076D02*
X8634105Y-19941076D01*
X8719819Y-20141076D02*
X8719819Y-20036314D01*
X8710295Y-20017267D01*
X8691248Y-20007743D01*
X8662676Y-20007743D01*
X8643629Y-20017267D01*
X8634105Y-20026790D01*
X8843629Y-20141076D02*
X8824581Y-20131552D01*
X8815057Y-20122029D01*
X8805533Y-20102981D01*
X8805533Y-20045838D01*
X8815057Y-20026790D01*
X8824581Y-20017267D01*
X8843629Y-20007743D01*
X8872200Y-20007743D01*
X8891248Y-20017267D01*
X8900771Y-20026790D01*
X8910295Y-20045838D01*
X8910295Y-20102981D01*
X8900771Y-20122029D01*
X8891248Y-20131552D01*
X8872200Y-20141076D01*
X8843629Y-20141076D01*
X9024581Y-20141076D02*
X9005533Y-20131552D01*
X8996010Y-20112505D01*
X8996010Y-19941076D01*
X9176962Y-20131552D02*
X9157914Y-20141076D01*
X9119819Y-20141076D01*
X9100771Y-20131552D01*
X9091248Y-20112505D01*
X9091248Y-20036314D01*
X9100771Y-20017267D01*
X9119819Y-20007743D01*
X9157914Y-20007743D01*
X9176962Y-20017267D01*
X9186486Y-20036314D01*
X9186486Y-20055362D01*
X9091248Y-20074410D01*
X9262676Y-20131552D02*
X9281724Y-20141076D01*
X9319819Y-20141076D01*
X9338867Y-20131552D01*
X9348390Y-20112505D01*
X9348390Y-20102981D01*
X9338867Y-20083933D01*
X9319819Y-20074410D01*
X9291248Y-20074410D01*
X9272200Y-20064886D01*
X9262676Y-20045838D01*
X9262676Y-20036314D01*
X9272200Y-20017267D01*
X9291248Y-20007743D01*
X9319819Y-20007743D01*
X9338867Y-20017267D01*
X9415057Y-20217267D02*
X9424581Y-20207743D01*
X9443629Y-20179171D01*
X9453152Y-20160124D01*
X9462676Y-20131552D01*
X9472200Y-20083933D01*
X9472200Y-20045838D01*
X9462676Y-19998219D01*
X9453152Y-19969648D01*
X9443629Y-19950600D01*
X9424581Y-19922029D01*
X9415057Y-19912505D01*
D13*
X4262200Y-20314600D02*
G75*
G03*
X4262200Y-20314600I-45000J0D01*
G01*
D11*
X4557914Y-20205076D02*
X4576962Y-20205076D01*
X4596010Y-20214600D01*
X4605533Y-20224124D01*
X4615057Y-20243171D01*
X4624581Y-20281267D01*
X4624581Y-20328886D01*
X4615057Y-20366981D01*
X4605533Y-20386029D01*
X4596010Y-20395552D01*
X4576962Y-20405076D01*
X4557914Y-20405076D01*
X4538867Y-20395552D01*
X4529343Y-20386029D01*
X4519819Y-20366981D01*
X4510295Y-20328886D01*
X4510295Y-20281267D01*
X4519819Y-20243171D01*
X4529343Y-20224124D01*
X4538867Y-20214600D01*
X4557914Y-20205076D01*
X4710295Y-20386029D02*
X4719819Y-20395552D01*
X4710295Y-20405076D01*
X4700771Y-20395552D01*
X4710295Y-20386029D01*
X4710295Y-20405076D01*
X4815057Y-20405076D02*
X4853152Y-20405076D01*
X4872200Y-20395552D01*
X4881724Y-20386029D01*
X4900771Y-20357457D01*
X4910295Y-20319362D01*
X4910295Y-20243171D01*
X4900771Y-20224124D01*
X4891248Y-20214600D01*
X4872200Y-20205076D01*
X4834105Y-20205076D01*
X4815057Y-20214600D01*
X4805533Y-20224124D01*
X4796010Y-20243171D01*
X4796010Y-20290790D01*
X4805533Y-20309838D01*
X4815057Y-20319362D01*
X4834105Y-20328886D01*
X4872200Y-20328886D01*
X4891248Y-20319362D01*
X4900771Y-20309838D01*
X4910295Y-20290790D01*
X5034105Y-20205076D02*
X5053152Y-20205076D01*
X5072200Y-20214600D01*
X5081724Y-20224124D01*
X5091248Y-20243171D01*
X5100771Y-20281267D01*
X5100771Y-20328886D01*
X5091248Y-20366981D01*
X5081724Y-20386029D01*
X5072200Y-20395552D01*
X5053152Y-20405076D01*
X5034105Y-20405076D01*
X5015057Y-20395552D01*
X5005533Y-20386029D01*
X4996010Y-20366981D01*
X4986486Y-20328886D01*
X4986486Y-20281267D01*
X4996010Y-20243171D01*
X5005533Y-20224124D01*
X5015057Y-20214600D01*
X5034105Y-20205076D01*
X5224581Y-20205076D02*
X5243629Y-20205076D01*
X5262676Y-20214600D01*
X5272200Y-20224124D01*
X5281724Y-20243171D01*
X5291248Y-20281267D01*
X5291248Y-20328886D01*
X5281724Y-20366981D01*
X5272200Y-20386029D01*
X5262676Y-20395552D01*
X5243629Y-20405076D01*
X5224581Y-20405076D01*
X5205533Y-20395552D01*
X5196010Y-20386029D01*
X5186486Y-20366981D01*
X5176962Y-20328886D01*
X5176962Y-20281267D01*
X5186486Y-20243171D01*
X5196010Y-20224124D01*
X5205533Y-20214600D01*
X5224581Y-20205076D01*
X5376962Y-20405076D02*
X5376962Y-20271743D01*
X5376962Y-20290790D02*
X5386486Y-20281267D01*
X5405533Y-20271743D01*
X5434105Y-20271743D01*
X5453152Y-20281267D01*
X5462676Y-20300314D01*
X5462676Y-20405076D01*
X5462676Y-20300314D02*
X5472200Y-20281267D01*
X5491248Y-20271743D01*
X5519819Y-20271743D01*
X5538867Y-20281267D01*
X5548390Y-20300314D01*
X5548390Y-20405076D01*
X5643628Y-20405076D02*
X5643628Y-20271743D01*
X5643628Y-20290790D02*
X5653152Y-20281267D01*
X5672200Y-20271743D01*
X5700771Y-20271743D01*
X5719819Y-20281267D01*
X5729343Y-20300314D01*
X5729343Y-20405076D01*
X5729343Y-20300314D02*
X5738867Y-20281267D01*
X5757914Y-20271743D01*
X5786486Y-20271743D01*
X5805533Y-20281267D01*
X5815057Y-20300314D01*
X5815057Y-20405076D01*
X6205533Y-20195552D02*
X6034105Y-20452695D01*
X6462676Y-20205076D02*
X6481724Y-20205076D01*
X6500771Y-20214600D01*
X6510295Y-20224124D01*
X6519819Y-20243171D01*
X6529343Y-20281267D01*
X6529343Y-20328886D01*
X6519819Y-20366981D01*
X6510295Y-20386029D01*
X6500771Y-20395552D01*
X6481724Y-20405076D01*
X6462676Y-20405076D01*
X6443628Y-20395552D01*
X6434105Y-20386029D01*
X6424581Y-20366981D01*
X6415057Y-20328886D01*
X6415057Y-20281267D01*
X6424581Y-20243171D01*
X6434105Y-20224124D01*
X6443628Y-20214600D01*
X6462676Y-20205076D01*
X6615057Y-20386029D02*
X6624581Y-20395552D01*
X6615057Y-20405076D01*
X6605533Y-20395552D01*
X6615057Y-20386029D01*
X6615057Y-20405076D01*
X6748390Y-20205076D02*
X6767438Y-20205076D01*
X6786486Y-20214600D01*
X6796009Y-20224124D01*
X6805533Y-20243171D01*
X6815057Y-20281267D01*
X6815057Y-20328886D01*
X6805533Y-20366981D01*
X6796009Y-20386029D01*
X6786486Y-20395552D01*
X6767438Y-20405076D01*
X6748390Y-20405076D01*
X6729343Y-20395552D01*
X6719819Y-20386029D01*
X6710295Y-20366981D01*
X6700771Y-20328886D01*
X6700771Y-20281267D01*
X6710295Y-20243171D01*
X6719819Y-20224124D01*
X6729343Y-20214600D01*
X6748390Y-20205076D01*
X6881724Y-20205076D02*
X7005533Y-20205076D01*
X6938867Y-20281267D01*
X6967438Y-20281267D01*
X6986486Y-20290790D01*
X6996009Y-20300314D01*
X7005533Y-20319362D01*
X7005533Y-20366981D01*
X6996009Y-20386029D01*
X6986486Y-20395552D01*
X6967438Y-20405076D01*
X6910295Y-20405076D01*
X6891248Y-20395552D01*
X6881724Y-20386029D01*
X7186486Y-20205076D02*
X7091248Y-20205076D01*
X7081724Y-20300314D01*
X7091248Y-20290790D01*
X7110295Y-20281267D01*
X7157914Y-20281267D01*
X7176962Y-20290790D01*
X7186486Y-20300314D01*
X7196009Y-20319362D01*
X7196009Y-20366981D01*
X7186486Y-20386029D01*
X7176962Y-20395552D01*
X7157914Y-20405076D01*
X7110295Y-20405076D01*
X7091248Y-20395552D01*
X7081724Y-20386029D01*
X7367438Y-20271743D02*
X7367438Y-20405076D01*
X7319819Y-20195552D02*
X7272200Y-20338410D01*
X7396009Y-20338410D01*
X7462676Y-20205076D02*
X7462676Y-20243171D01*
X7538867Y-20205076D02*
X7538867Y-20243171D01*
X7834105Y-20481267D02*
X7824581Y-20471743D01*
X7805533Y-20443171D01*
X7796009Y-20424124D01*
X7786486Y-20395552D01*
X7776962Y-20347933D01*
X7776962Y-20309838D01*
X7786486Y-20262219D01*
X7796009Y-20233648D01*
X7805533Y-20214600D01*
X7824581Y-20186029D01*
X7834105Y-20176505D01*
X7996009Y-20205076D02*
X7957914Y-20205076D01*
X7938867Y-20214600D01*
X7929343Y-20224124D01*
X7910295Y-20252695D01*
X7900771Y-20290790D01*
X7900771Y-20366981D01*
X7910295Y-20386029D01*
X7919819Y-20395552D01*
X7938867Y-20405076D01*
X7976962Y-20405076D01*
X7996009Y-20395552D01*
X8005533Y-20386029D01*
X8015057Y-20366981D01*
X8015057Y-20319362D01*
X8005533Y-20300314D01*
X7996009Y-20290790D01*
X7976962Y-20281267D01*
X7938867Y-20281267D01*
X7919819Y-20290790D01*
X7910295Y-20300314D01*
X7900771Y-20319362D01*
X8253152Y-20405076D02*
X8253152Y-20205076D01*
X8338867Y-20405076D02*
X8338867Y-20300314D01*
X8329343Y-20281267D01*
X8310295Y-20271743D01*
X8281724Y-20271743D01*
X8262676Y-20281267D01*
X8253152Y-20290790D01*
X8462676Y-20405076D02*
X8443629Y-20395552D01*
X8434105Y-20386029D01*
X8424581Y-20366981D01*
X8424581Y-20309838D01*
X8434105Y-20290790D01*
X8443629Y-20281267D01*
X8462676Y-20271743D01*
X8491248Y-20271743D01*
X8510295Y-20281267D01*
X8519819Y-20290790D01*
X8529343Y-20309838D01*
X8529343Y-20366981D01*
X8519819Y-20386029D01*
X8510295Y-20395552D01*
X8491248Y-20405076D01*
X8462676Y-20405076D01*
X8643629Y-20405076D02*
X8624581Y-20395552D01*
X8615057Y-20376505D01*
X8615057Y-20205076D01*
X8796010Y-20395552D02*
X8776962Y-20405076D01*
X8738867Y-20405076D01*
X8719819Y-20395552D01*
X8710295Y-20376505D01*
X8710295Y-20300314D01*
X8719819Y-20281267D01*
X8738867Y-20271743D01*
X8776962Y-20271743D01*
X8796010Y-20281267D01*
X8805533Y-20300314D01*
X8805533Y-20319362D01*
X8710295Y-20338410D01*
X8881724Y-20395552D02*
X8900771Y-20405076D01*
X8938867Y-20405076D01*
X8957914Y-20395552D01*
X8967438Y-20376505D01*
X8967438Y-20366981D01*
X8957914Y-20347933D01*
X8938867Y-20338410D01*
X8910295Y-20338410D01*
X8891248Y-20328886D01*
X8881724Y-20309838D01*
X8881724Y-20300314D01*
X8891248Y-20281267D01*
X8910295Y-20271743D01*
X8938867Y-20271743D01*
X8957914Y-20281267D01*
X9034105Y-20481267D02*
X9043629Y-20471743D01*
X9062676Y-20443171D01*
X9072200Y-20424124D01*
X9081724Y-20395552D01*
X9091248Y-20347933D01*
X9091248Y-20309838D01*
X9081724Y-20262219D01*
X9072200Y-20233648D01*
X9062676Y-20214600D01*
X9043629Y-20186029D01*
X9034105Y-20176505D01*
D14*
X4212200Y-20528600D02*
X4212200Y-20628600D01*
X4162200Y-20578600D02*
X4262200Y-20578600D01*
D11*
X4624581Y-20669076D02*
X4510295Y-20669076D01*
X4567438Y-20669076D02*
X4567438Y-20469076D01*
X4548390Y-20497648D01*
X4529343Y-20516695D01*
X4510295Y-20526219D01*
X4710295Y-20650029D02*
X4719819Y-20659552D01*
X4710295Y-20669076D01*
X4700771Y-20659552D01*
X4710295Y-20650029D01*
X4710295Y-20669076D01*
X4843629Y-20469076D02*
X4862676Y-20469076D01*
X4881724Y-20478600D01*
X4891248Y-20488124D01*
X4900771Y-20507171D01*
X4910295Y-20545267D01*
X4910295Y-20592886D01*
X4900771Y-20630981D01*
X4891248Y-20650029D01*
X4881724Y-20659552D01*
X4862676Y-20669076D01*
X4843629Y-20669076D01*
X4824581Y-20659552D01*
X4815057Y-20650029D01*
X4805533Y-20630981D01*
X4796010Y-20592886D01*
X4796010Y-20545267D01*
X4805533Y-20507171D01*
X4815057Y-20488124D01*
X4824581Y-20478600D01*
X4843629Y-20469076D01*
X5034105Y-20469076D02*
X5053152Y-20469076D01*
X5072200Y-20478600D01*
X5081724Y-20488124D01*
X5091248Y-20507171D01*
X5100771Y-20545267D01*
X5100771Y-20592886D01*
X5091248Y-20630981D01*
X5081724Y-20650029D01*
X5072200Y-20659552D01*
X5053152Y-20669076D01*
X5034105Y-20669076D01*
X5015057Y-20659552D01*
X5005533Y-20650029D01*
X4996010Y-20630981D01*
X4986486Y-20592886D01*
X4986486Y-20545267D01*
X4996010Y-20507171D01*
X5005533Y-20488124D01*
X5015057Y-20478600D01*
X5034105Y-20469076D01*
X5224581Y-20469076D02*
X5243629Y-20469076D01*
X5262676Y-20478600D01*
X5272200Y-20488124D01*
X5281724Y-20507171D01*
X5291248Y-20545267D01*
X5291248Y-20592886D01*
X5281724Y-20630981D01*
X5272200Y-20650029D01*
X5262676Y-20659552D01*
X5243629Y-20669076D01*
X5224581Y-20669076D01*
X5205533Y-20659552D01*
X5196010Y-20650029D01*
X5186486Y-20630981D01*
X5176962Y-20592886D01*
X5176962Y-20545267D01*
X5186486Y-20507171D01*
X5196010Y-20488124D01*
X5205533Y-20478600D01*
X5224581Y-20469076D01*
X5376962Y-20669076D02*
X5376962Y-20535743D01*
X5376962Y-20554790D02*
X5386486Y-20545267D01*
X5405533Y-20535743D01*
X5434105Y-20535743D01*
X5453152Y-20545267D01*
X5462676Y-20564314D01*
X5462676Y-20669076D01*
X5462676Y-20564314D02*
X5472200Y-20545267D01*
X5491248Y-20535743D01*
X5519819Y-20535743D01*
X5538867Y-20545267D01*
X5548390Y-20564314D01*
X5548390Y-20669076D01*
X5643628Y-20669076D02*
X5643628Y-20535743D01*
X5643628Y-20554790D02*
X5653152Y-20545267D01*
X5672200Y-20535743D01*
X5700771Y-20535743D01*
X5719819Y-20545267D01*
X5729343Y-20564314D01*
X5729343Y-20669076D01*
X5729343Y-20564314D02*
X5738867Y-20545267D01*
X5757914Y-20535743D01*
X5786486Y-20535743D01*
X5805533Y-20545267D01*
X5815057Y-20564314D01*
X5815057Y-20669076D01*
X6205533Y-20459552D02*
X6034105Y-20716695D01*
X6462676Y-20469076D02*
X6481724Y-20469076D01*
X6500771Y-20478600D01*
X6510295Y-20488124D01*
X6519819Y-20507171D01*
X6529343Y-20545267D01*
X6529343Y-20592886D01*
X6519819Y-20630981D01*
X6510295Y-20650029D01*
X6500771Y-20659552D01*
X6481724Y-20669076D01*
X6462676Y-20669076D01*
X6443628Y-20659552D01*
X6434105Y-20650029D01*
X6424581Y-20630981D01*
X6415057Y-20592886D01*
X6415057Y-20545267D01*
X6424581Y-20507171D01*
X6434105Y-20488124D01*
X6443628Y-20478600D01*
X6462676Y-20469076D01*
X6615057Y-20650029D02*
X6624581Y-20659552D01*
X6615057Y-20669076D01*
X6605533Y-20659552D01*
X6615057Y-20650029D01*
X6615057Y-20669076D01*
X6748390Y-20469076D02*
X6767438Y-20469076D01*
X6786486Y-20478600D01*
X6796009Y-20488124D01*
X6805533Y-20507171D01*
X6815057Y-20545267D01*
X6815057Y-20592886D01*
X6805533Y-20630981D01*
X6796009Y-20650029D01*
X6786486Y-20659552D01*
X6767438Y-20669076D01*
X6748390Y-20669076D01*
X6729343Y-20659552D01*
X6719819Y-20650029D01*
X6710295Y-20630981D01*
X6700771Y-20592886D01*
X6700771Y-20545267D01*
X6710295Y-20507171D01*
X6719819Y-20488124D01*
X6729343Y-20478600D01*
X6748390Y-20469076D01*
X6881724Y-20469076D02*
X7005533Y-20469076D01*
X6938867Y-20545267D01*
X6967438Y-20545267D01*
X6986486Y-20554790D01*
X6996009Y-20564314D01*
X7005533Y-20583362D01*
X7005533Y-20630981D01*
X6996009Y-20650029D01*
X6986486Y-20659552D01*
X6967438Y-20669076D01*
X6910295Y-20669076D01*
X6891248Y-20659552D01*
X6881724Y-20650029D01*
X7100771Y-20669076D02*
X7138867Y-20669076D01*
X7157914Y-20659552D01*
X7167438Y-20650029D01*
X7186486Y-20621457D01*
X7196009Y-20583362D01*
X7196009Y-20507171D01*
X7186486Y-20488124D01*
X7176962Y-20478600D01*
X7157914Y-20469076D01*
X7119819Y-20469076D01*
X7100771Y-20478600D01*
X7091248Y-20488124D01*
X7081724Y-20507171D01*
X7081724Y-20554790D01*
X7091248Y-20573838D01*
X7100771Y-20583362D01*
X7119819Y-20592886D01*
X7157914Y-20592886D01*
X7176962Y-20583362D01*
X7186486Y-20573838D01*
X7196009Y-20554790D01*
X7367438Y-20535743D02*
X7367438Y-20669076D01*
X7319819Y-20459552D02*
X7272200Y-20602410D01*
X7396009Y-20602410D01*
X7462676Y-20469076D02*
X7462676Y-20507171D01*
X7538867Y-20469076D02*
X7538867Y-20507171D01*
X7834105Y-20745267D02*
X7824581Y-20735743D01*
X7805533Y-20707171D01*
X7796009Y-20688124D01*
X7786486Y-20659552D01*
X7776962Y-20611933D01*
X7776962Y-20573838D01*
X7786486Y-20526219D01*
X7796009Y-20497648D01*
X7805533Y-20478600D01*
X7824581Y-20450029D01*
X7834105Y-20440505D01*
X7900771Y-20488124D02*
X7910295Y-20478600D01*
X7929343Y-20469076D01*
X7976962Y-20469076D01*
X7996009Y-20478600D01*
X8005533Y-20488124D01*
X8015057Y-20507171D01*
X8015057Y-20526219D01*
X8005533Y-20554790D01*
X7891248Y-20669076D01*
X8015057Y-20669076D01*
X8081724Y-20469076D02*
X8215057Y-20469076D01*
X8129343Y-20669076D01*
X8443629Y-20669076D02*
X8443629Y-20469076D01*
X8529343Y-20669076D02*
X8529343Y-20564314D01*
X8519819Y-20545267D01*
X8500771Y-20535743D01*
X8472200Y-20535743D01*
X8453152Y-20545267D01*
X8443629Y-20554790D01*
X8653152Y-20669076D02*
X8634105Y-20659552D01*
X8624581Y-20650029D01*
X8615057Y-20630981D01*
X8615057Y-20573838D01*
X8624581Y-20554790D01*
X8634105Y-20545267D01*
X8653152Y-20535743D01*
X8681724Y-20535743D01*
X8700771Y-20545267D01*
X8710295Y-20554790D01*
X8719819Y-20573838D01*
X8719819Y-20630981D01*
X8710295Y-20650029D01*
X8700771Y-20659552D01*
X8681724Y-20669076D01*
X8653152Y-20669076D01*
X8834105Y-20669076D02*
X8815057Y-20659552D01*
X8805533Y-20640505D01*
X8805533Y-20469076D01*
X8986486Y-20659552D02*
X8967438Y-20669076D01*
X8929343Y-20669076D01*
X8910295Y-20659552D01*
X8900771Y-20640505D01*
X8900771Y-20564314D01*
X8910295Y-20545267D01*
X8929343Y-20535743D01*
X8967438Y-20535743D01*
X8986486Y-20545267D01*
X8996010Y-20564314D01*
X8996010Y-20583362D01*
X8900771Y-20602410D01*
X9072200Y-20659552D02*
X9091248Y-20669076D01*
X9129343Y-20669076D01*
X9148390Y-20659552D01*
X9157914Y-20640505D01*
X9157914Y-20630981D01*
X9148390Y-20611933D01*
X9129343Y-20602410D01*
X9100771Y-20602410D01*
X9081724Y-20592886D01*
X9072200Y-20573838D01*
X9072200Y-20564314D01*
X9081724Y-20545267D01*
X9100771Y-20535743D01*
X9129343Y-20535743D01*
X9148390Y-20545267D01*
X9224581Y-20745267D02*
X9234105Y-20735743D01*
X9253152Y-20707171D01*
X9262676Y-20688124D01*
X9272200Y-20659552D01*
X9281724Y-20611933D01*
X9281724Y-20573838D01*
X9272200Y-20526219D01*
X9262676Y-20497648D01*
X9253152Y-20478600D01*
X9234105Y-20450029D01*
X9224581Y-20440505D01*
D15*
X4246970Y-20879370D02*
X4246970Y-20805830D01*
X4173430Y-20805830D01*
X4173430Y-20879370D01*
X4246970Y-20879370D01*
D11*
X4624581Y-20933076D02*
X4510295Y-20933076D01*
X4567438Y-20933076D02*
X4567438Y-20733076D01*
X4548390Y-20761648D01*
X4529343Y-20780695D01*
X4510295Y-20790219D01*
X4710295Y-20914029D02*
X4719819Y-20923552D01*
X4710295Y-20933076D01*
X4700771Y-20923552D01*
X4710295Y-20914029D01*
X4710295Y-20933076D01*
X4843629Y-20733076D02*
X4862676Y-20733076D01*
X4881724Y-20742600D01*
X4891248Y-20752124D01*
X4900771Y-20771171D01*
X4910295Y-20809267D01*
X4910295Y-20856886D01*
X4900771Y-20894981D01*
X4891248Y-20914029D01*
X4881724Y-20923552D01*
X4862676Y-20933076D01*
X4843629Y-20933076D01*
X4824581Y-20923552D01*
X4815057Y-20914029D01*
X4805533Y-20894981D01*
X4796010Y-20856886D01*
X4796010Y-20809267D01*
X4805533Y-20771171D01*
X4815057Y-20752124D01*
X4824581Y-20742600D01*
X4843629Y-20733076D01*
X5081724Y-20799743D02*
X5081724Y-20933076D01*
X5034105Y-20723552D02*
X4986486Y-20866410D01*
X5110295Y-20866410D01*
X5224581Y-20733076D02*
X5243629Y-20733076D01*
X5262676Y-20742600D01*
X5272200Y-20752124D01*
X5281724Y-20771171D01*
X5291248Y-20809267D01*
X5291248Y-20856886D01*
X5281724Y-20894981D01*
X5272200Y-20914029D01*
X5262676Y-20923552D01*
X5243629Y-20933076D01*
X5224581Y-20933076D01*
X5205533Y-20923552D01*
X5196010Y-20914029D01*
X5186486Y-20894981D01*
X5176962Y-20856886D01*
X5176962Y-20809267D01*
X5186486Y-20771171D01*
X5196010Y-20752124D01*
X5205533Y-20742600D01*
X5224581Y-20733076D01*
X5376962Y-20933076D02*
X5376962Y-20799743D01*
X5376962Y-20818790D02*
X5386486Y-20809267D01*
X5405533Y-20799743D01*
X5434105Y-20799743D01*
X5453152Y-20809267D01*
X5462676Y-20828314D01*
X5462676Y-20933076D01*
X5462676Y-20828314D02*
X5472200Y-20809267D01*
X5491248Y-20799743D01*
X5519819Y-20799743D01*
X5538867Y-20809267D01*
X5548390Y-20828314D01*
X5548390Y-20933076D01*
X5643628Y-20933076D02*
X5643628Y-20799743D01*
X5643628Y-20818790D02*
X5653152Y-20809267D01*
X5672200Y-20799743D01*
X5700771Y-20799743D01*
X5719819Y-20809267D01*
X5729343Y-20828314D01*
X5729343Y-20933076D01*
X5729343Y-20828314D02*
X5738867Y-20809267D01*
X5757914Y-20799743D01*
X5786486Y-20799743D01*
X5805533Y-20809267D01*
X5815057Y-20828314D01*
X5815057Y-20933076D01*
X6205533Y-20723552D02*
X6034105Y-20980695D01*
X6462676Y-20733076D02*
X6481724Y-20733076D01*
X6500771Y-20742600D01*
X6510295Y-20752124D01*
X6519819Y-20771171D01*
X6529343Y-20809267D01*
X6529343Y-20856886D01*
X6519819Y-20894981D01*
X6510295Y-20914029D01*
X6500771Y-20923552D01*
X6481724Y-20933076D01*
X6462676Y-20933076D01*
X6443628Y-20923552D01*
X6434105Y-20914029D01*
X6424581Y-20894981D01*
X6415057Y-20856886D01*
X6415057Y-20809267D01*
X6424581Y-20771171D01*
X6434105Y-20752124D01*
X6443628Y-20742600D01*
X6462676Y-20733076D01*
X6615057Y-20914029D02*
X6624581Y-20923552D01*
X6615057Y-20933076D01*
X6605533Y-20923552D01*
X6615057Y-20914029D01*
X6615057Y-20933076D01*
X6748390Y-20733076D02*
X6767438Y-20733076D01*
X6786486Y-20742600D01*
X6796009Y-20752124D01*
X6805533Y-20771171D01*
X6815057Y-20809267D01*
X6815057Y-20856886D01*
X6805533Y-20894981D01*
X6796009Y-20914029D01*
X6786486Y-20923552D01*
X6767438Y-20933076D01*
X6748390Y-20933076D01*
X6729343Y-20923552D01*
X6719819Y-20914029D01*
X6710295Y-20894981D01*
X6700771Y-20856886D01*
X6700771Y-20809267D01*
X6710295Y-20771171D01*
X6719819Y-20752124D01*
X6729343Y-20742600D01*
X6748390Y-20733076D01*
X6986486Y-20799743D02*
X6986486Y-20933076D01*
X6938867Y-20723552D02*
X6891248Y-20866410D01*
X7015057Y-20866410D01*
X7129343Y-20733076D02*
X7148390Y-20733076D01*
X7167438Y-20742600D01*
X7176962Y-20752124D01*
X7186486Y-20771171D01*
X7196009Y-20809267D01*
X7196009Y-20856886D01*
X7186486Y-20894981D01*
X7176962Y-20914029D01*
X7167438Y-20923552D01*
X7148390Y-20933076D01*
X7129343Y-20933076D01*
X7110295Y-20923552D01*
X7100771Y-20914029D01*
X7091248Y-20894981D01*
X7081724Y-20856886D01*
X7081724Y-20809267D01*
X7091248Y-20771171D01*
X7100771Y-20752124D01*
X7110295Y-20742600D01*
X7129343Y-20733076D01*
X7291248Y-20933076D02*
X7329343Y-20933076D01*
X7348390Y-20923552D01*
X7357914Y-20914029D01*
X7376962Y-20885457D01*
X7386486Y-20847362D01*
X7386486Y-20771171D01*
X7376962Y-20752124D01*
X7367438Y-20742600D01*
X7348390Y-20733076D01*
X7310295Y-20733076D01*
X7291248Y-20742600D01*
X7281724Y-20752124D01*
X7272200Y-20771171D01*
X7272200Y-20818790D01*
X7281724Y-20837838D01*
X7291248Y-20847362D01*
X7310295Y-20856886D01*
X7348390Y-20856886D01*
X7367438Y-20847362D01*
X7376962Y-20837838D01*
X7386486Y-20818790D01*
X7462676Y-20733076D02*
X7462676Y-20771171D01*
X7538867Y-20733076D02*
X7538867Y-20771171D01*
X7834105Y-21009267D02*
X7824581Y-20999743D01*
X7805533Y-20971171D01*
X7796009Y-20952124D01*
X7786486Y-20923552D01*
X7776962Y-20875933D01*
X7776962Y-20837838D01*
X7786486Y-20790219D01*
X7796009Y-20761648D01*
X7805533Y-20742600D01*
X7824581Y-20714029D01*
X7834105Y-20704505D01*
X7938867Y-20818790D02*
X7919819Y-20809267D01*
X7910295Y-20799743D01*
X7900771Y-20780695D01*
X7900771Y-20771171D01*
X7910295Y-20752124D01*
X7919819Y-20742600D01*
X7938867Y-20733076D01*
X7976962Y-20733076D01*
X7996009Y-20742600D01*
X8005533Y-20752124D01*
X8015057Y-20771171D01*
X8015057Y-20780695D01*
X8005533Y-20799743D01*
X7996009Y-20809267D01*
X7976962Y-20818790D01*
X7938867Y-20818790D01*
X7919819Y-20828314D01*
X7910295Y-20837838D01*
X7900771Y-20856886D01*
X7900771Y-20894981D01*
X7910295Y-20914029D01*
X7919819Y-20923552D01*
X7938867Y-20933076D01*
X7976962Y-20933076D01*
X7996009Y-20923552D01*
X8005533Y-20914029D01*
X8015057Y-20894981D01*
X8015057Y-20856886D01*
X8005533Y-20837838D01*
X7996009Y-20828314D01*
X7976962Y-20818790D01*
X8253152Y-20933076D02*
X8253152Y-20733076D01*
X8338867Y-20933076D02*
X8338867Y-20828314D01*
X8329343Y-20809267D01*
X8310295Y-20799743D01*
X8281724Y-20799743D01*
X8262676Y-20809267D01*
X8253152Y-20818790D01*
X8462676Y-20933076D02*
X8443629Y-20923552D01*
X8434105Y-20914029D01*
X8424581Y-20894981D01*
X8424581Y-20837838D01*
X8434105Y-20818790D01*
X8443629Y-20809267D01*
X8462676Y-20799743D01*
X8491248Y-20799743D01*
X8510295Y-20809267D01*
X8519819Y-20818790D01*
X8529343Y-20837838D01*
X8529343Y-20894981D01*
X8519819Y-20914029D01*
X8510295Y-20923552D01*
X8491248Y-20933076D01*
X8462676Y-20933076D01*
X8643629Y-20933076D02*
X8624581Y-20923552D01*
X8615057Y-20904505D01*
X8615057Y-20733076D01*
X8796010Y-20923552D02*
X8776962Y-20933076D01*
X8738867Y-20933076D01*
X8719819Y-20923552D01*
X8710295Y-20904505D01*
X8710295Y-20828314D01*
X8719819Y-20809267D01*
X8738867Y-20799743D01*
X8776962Y-20799743D01*
X8796010Y-20809267D01*
X8805533Y-20828314D01*
X8805533Y-20847362D01*
X8710295Y-20866410D01*
X8881724Y-20923552D02*
X8900771Y-20933076D01*
X8938867Y-20933076D01*
X8957914Y-20923552D01*
X8967438Y-20904505D01*
X8967438Y-20894981D01*
X8957914Y-20875933D01*
X8938867Y-20866410D01*
X8910295Y-20866410D01*
X8891248Y-20856886D01*
X8881724Y-20837838D01*
X8881724Y-20828314D01*
X8891248Y-20809267D01*
X8910295Y-20799743D01*
X8938867Y-20799743D01*
X8957914Y-20809267D01*
X9034105Y-21009267D02*
X9043629Y-20999743D01*
X9062676Y-20971171D01*
X9072200Y-20952124D01*
X9081724Y-20923552D01*
X9091248Y-20875933D01*
X9091248Y-20837838D01*
X9081724Y-20790219D01*
X9072200Y-20761648D01*
X9062676Y-20742600D01*
X9043629Y-20714029D01*
X9034105Y-20704505D01*
D16*
X4188700Y-21180100D02*
X4262200Y-21106600D01*
X4188700Y-21033100D01*
X4115200Y-21106600D01*
X4188700Y-21180100D01*
D11*
X4624581Y-21197076D02*
X4510295Y-21197076D01*
X4567438Y-21197076D02*
X4567438Y-20997076D01*
X4548390Y-21025648D01*
X4529343Y-21044695D01*
X4510295Y-21054219D01*
X4710295Y-21178029D02*
X4719819Y-21187552D01*
X4710295Y-21197076D01*
X4700771Y-21187552D01*
X4710295Y-21178029D01*
X4710295Y-21197076D01*
X4891248Y-21063743D02*
X4891248Y-21197076D01*
X4843629Y-20987552D02*
X4796010Y-21130410D01*
X4919819Y-21130410D01*
X4976962Y-20997076D02*
X5110295Y-20997076D01*
X5024581Y-21197076D01*
X5224581Y-20997076D02*
X5243629Y-20997076D01*
X5262676Y-21006600D01*
X5272200Y-21016124D01*
X5281724Y-21035171D01*
X5291248Y-21073267D01*
X5291248Y-21120886D01*
X5281724Y-21158981D01*
X5272200Y-21178029D01*
X5262676Y-21187552D01*
X5243629Y-21197076D01*
X5224581Y-21197076D01*
X5205533Y-21187552D01*
X5196010Y-21178029D01*
X5186486Y-21158981D01*
X5176962Y-21120886D01*
X5176962Y-21073267D01*
X5186486Y-21035171D01*
X5196010Y-21016124D01*
X5205533Y-21006600D01*
X5224581Y-20997076D01*
X5376962Y-21197076D02*
X5376962Y-21063743D01*
X5376962Y-21082790D02*
X5386486Y-21073267D01*
X5405533Y-21063743D01*
X5434105Y-21063743D01*
X5453152Y-21073267D01*
X5462676Y-21092314D01*
X5462676Y-21197076D01*
X5462676Y-21092314D02*
X5472200Y-21073267D01*
X5491248Y-21063743D01*
X5519819Y-21063743D01*
X5538867Y-21073267D01*
X5548390Y-21092314D01*
X5548390Y-21197076D01*
X5643628Y-21197076D02*
X5643628Y-21063743D01*
X5643628Y-21082790D02*
X5653152Y-21073267D01*
X5672200Y-21063743D01*
X5700771Y-21063743D01*
X5719819Y-21073267D01*
X5729343Y-21092314D01*
X5729343Y-21197076D01*
X5729343Y-21092314D02*
X5738867Y-21073267D01*
X5757914Y-21063743D01*
X5786486Y-21063743D01*
X5805533Y-21073267D01*
X5815057Y-21092314D01*
X5815057Y-21197076D01*
X6205533Y-20987552D02*
X6034105Y-21244695D01*
X6462676Y-20997076D02*
X6481724Y-20997076D01*
X6500771Y-21006600D01*
X6510295Y-21016124D01*
X6519819Y-21035171D01*
X6529343Y-21073267D01*
X6529343Y-21120886D01*
X6519819Y-21158981D01*
X6510295Y-21178029D01*
X6500771Y-21187552D01*
X6481724Y-21197076D01*
X6462676Y-21197076D01*
X6443628Y-21187552D01*
X6434105Y-21178029D01*
X6424581Y-21158981D01*
X6415057Y-21120886D01*
X6415057Y-21073267D01*
X6424581Y-21035171D01*
X6434105Y-21016124D01*
X6443628Y-21006600D01*
X6462676Y-20997076D01*
X6615057Y-21178029D02*
X6624581Y-21187552D01*
X6615057Y-21197076D01*
X6605533Y-21187552D01*
X6615057Y-21178029D01*
X6615057Y-21197076D01*
X6748390Y-20997076D02*
X6767438Y-20997076D01*
X6786486Y-21006600D01*
X6796009Y-21016124D01*
X6805533Y-21035171D01*
X6815057Y-21073267D01*
X6815057Y-21120886D01*
X6805533Y-21158981D01*
X6796009Y-21178029D01*
X6786486Y-21187552D01*
X6767438Y-21197076D01*
X6748390Y-21197076D01*
X6729343Y-21187552D01*
X6719819Y-21178029D01*
X6710295Y-21158981D01*
X6700771Y-21120886D01*
X6700771Y-21073267D01*
X6710295Y-21035171D01*
X6719819Y-21016124D01*
X6729343Y-21006600D01*
X6748390Y-20997076D01*
X6996009Y-20997076D02*
X6900771Y-20997076D01*
X6891248Y-21092314D01*
X6900771Y-21082790D01*
X6919819Y-21073267D01*
X6967438Y-21073267D01*
X6986486Y-21082790D01*
X6996009Y-21092314D01*
X7005533Y-21111362D01*
X7005533Y-21158981D01*
X6996009Y-21178029D01*
X6986486Y-21187552D01*
X6967438Y-21197076D01*
X6919819Y-21197076D01*
X6900771Y-21187552D01*
X6891248Y-21178029D01*
X7072200Y-20997076D02*
X7205533Y-20997076D01*
X7119819Y-21197076D01*
X7291248Y-21197076D02*
X7329343Y-21197076D01*
X7348390Y-21187552D01*
X7357914Y-21178029D01*
X7376962Y-21149457D01*
X7386486Y-21111362D01*
X7386486Y-21035171D01*
X7376962Y-21016124D01*
X7367438Y-21006600D01*
X7348390Y-20997076D01*
X7310295Y-20997076D01*
X7291248Y-21006600D01*
X7281724Y-21016124D01*
X7272200Y-21035171D01*
X7272200Y-21082790D01*
X7281724Y-21101838D01*
X7291248Y-21111362D01*
X7310295Y-21120886D01*
X7348390Y-21120886D01*
X7367438Y-21111362D01*
X7376962Y-21101838D01*
X7386486Y-21082790D01*
X7462676Y-20997076D02*
X7462676Y-21035171D01*
X7538867Y-20997076D02*
X7538867Y-21035171D01*
X7834105Y-21273267D02*
X7824581Y-21263743D01*
X7805533Y-21235171D01*
X7796009Y-21216124D01*
X7786486Y-21187552D01*
X7776962Y-21139933D01*
X7776962Y-21101838D01*
X7786486Y-21054219D01*
X7796009Y-21025648D01*
X7805533Y-21006600D01*
X7824581Y-20978029D01*
X7834105Y-20968505D01*
X7900771Y-21016124D02*
X7910295Y-21006600D01*
X7929343Y-20997076D01*
X7976962Y-20997076D01*
X7996009Y-21006600D01*
X8005533Y-21016124D01*
X8015057Y-21035171D01*
X8015057Y-21054219D01*
X8005533Y-21082790D01*
X7891248Y-21197076D01*
X8015057Y-21197076D01*
X8253152Y-21197076D02*
X8253152Y-20997076D01*
X8338867Y-21197076D02*
X8338867Y-21092314D01*
X8329343Y-21073267D01*
X8310295Y-21063743D01*
X8281724Y-21063743D01*
X8262676Y-21073267D01*
X8253152Y-21082790D01*
X8462676Y-21197076D02*
X8443629Y-21187552D01*
X8434105Y-21178029D01*
X8424581Y-21158981D01*
X8424581Y-21101838D01*
X8434105Y-21082790D01*
X8443629Y-21073267D01*
X8462676Y-21063743D01*
X8491248Y-21063743D01*
X8510295Y-21073267D01*
X8519819Y-21082790D01*
X8529343Y-21101838D01*
X8529343Y-21158981D01*
X8519819Y-21178029D01*
X8510295Y-21187552D01*
X8491248Y-21197076D01*
X8462676Y-21197076D01*
X8643629Y-21197076D02*
X8624581Y-21187552D01*
X8615057Y-21168505D01*
X8615057Y-20997076D01*
X8796010Y-21187552D02*
X8776962Y-21197076D01*
X8738867Y-21197076D01*
X8719819Y-21187552D01*
X8710295Y-21168505D01*
X8710295Y-21092314D01*
X8719819Y-21073267D01*
X8738867Y-21063743D01*
X8776962Y-21063743D01*
X8796010Y-21073267D01*
X8805533Y-21092314D01*
X8805533Y-21111362D01*
X8710295Y-21130410D01*
X8881724Y-21187552D02*
X8900771Y-21197076D01*
X8938867Y-21197076D01*
X8957914Y-21187552D01*
X8967438Y-21168505D01*
X8967438Y-21158981D01*
X8957914Y-21139933D01*
X8938867Y-21130410D01*
X8910295Y-21130410D01*
X8891248Y-21120886D01*
X8881724Y-21101838D01*
X8881724Y-21092314D01*
X8891248Y-21073267D01*
X8910295Y-21063743D01*
X8938867Y-21063743D01*
X8957914Y-21073267D01*
X9034105Y-21273267D02*
X9043629Y-21263743D01*
X9062676Y-21235171D01*
X9072200Y-21216124D01*
X9081724Y-21187552D01*
X9091248Y-21139933D01*
X9091248Y-21101838D01*
X9081724Y-21054219D01*
X9072200Y-21025648D01*
X9062676Y-21006600D01*
X9043629Y-20978029D01*
X9034105Y-20968505D01*
M02*
