G04 #@! TF.GenerationSoftware,KiCad,Pcbnew,(6.0.1-0)*
G04 #@! TF.CreationDate,2023-03-21T08:52:13-07:00*
G04 #@! TF.ProjectId,pcb,7063622e-6b69-4636-9164-5f7063625858,rev?*
G04 #@! TF.SameCoordinates,Original*
G04 #@! TF.FileFunction,Profile,NP*
%FSLAX46Y46*%
G04 Gerber Fmt 4.6, Leading zero omitted, Abs format (unit mm)*
G04 Created by KiCad (PCBNEW (6.0.1-0)) date 2023-03-21 08:52:13*
%MOMM*%
%LPD*%
G01*
G04 APERTURE LIST*
G04 #@! TA.AperFunction,Profile*
%ADD10C,0.100000*%
G04 #@! TD*
G04 APERTURE END LIST*
D10*
X388620000Y-194056000D02*
X464820000Y-194056000D01*
X44704000Y-31242000D02*
G75*
G03*
X42672000Y-33274000I0J-2032000D01*
G01*
X42672000Y-33274000D02*
X42672000Y-192024000D01*
X69088000Y-189484000D02*
X73152000Y-189484000D01*
X267462000Y-189484000D02*
X267462000Y-194056000D01*
X464820000Y-194056000D02*
X464820000Y-189484000D01*
X464820000Y-189484000D02*
X468630000Y-189484000D01*
X323850000Y-189484000D02*
X328168000Y-189484000D01*
X468630000Y-189484000D02*
X468630000Y-194056000D01*
X73152000Y-194056000D02*
X142240000Y-194056000D01*
X487680000Y-194056000D02*
G75*
G03*
X489712000Y-192024000I0J2032000D01*
G01*
X328168000Y-194056000D02*
X384556000Y-194056000D01*
X146304000Y-194056000D02*
X203454000Y-194056000D01*
X263398000Y-194056000D02*
X263398000Y-189484000D01*
X384556000Y-194056000D02*
X384556000Y-189484000D01*
X323850000Y-194056000D02*
X323850000Y-189484000D01*
X69088000Y-194056000D02*
X69088000Y-189484000D01*
X489712000Y-192024000D02*
X489712000Y-33274000D01*
X73152000Y-189484000D02*
X73152000Y-194056000D01*
X207264000Y-194056000D02*
X263398000Y-194056000D01*
X142240000Y-189484000D02*
X146304000Y-189484000D01*
X388620000Y-189484000D02*
X388620000Y-194056000D01*
X384556000Y-189484000D02*
X388620000Y-189484000D01*
X487680000Y-31242000D02*
X44704000Y-31242000D01*
X468630000Y-194056000D02*
X487680000Y-194056000D01*
X44704000Y-194056000D02*
X69088000Y-194056000D01*
X267462000Y-194056000D02*
X323850000Y-194056000D01*
X146304000Y-189484000D02*
X146304000Y-194056000D01*
X142240000Y-194056000D02*
X142240000Y-189484000D01*
X42672000Y-192024000D02*
G75*
G03*
X44704000Y-194056000I2032000J0D01*
G01*
X263398000Y-189484000D02*
X267462000Y-189484000D01*
X203454000Y-194056000D02*
X203454000Y-189484000D01*
X207264000Y-189484000D02*
X207264000Y-194056000D01*
X328168000Y-189484000D02*
X328168000Y-194056000D01*
X203454000Y-189484000D02*
X207264000Y-189484000D01*
X489712000Y-33274000D02*
G75*
G03*
X487680000Y-31242000I-2032000J0D01*
G01*
M02*
