G04 #@! TF.GenerationSoftware,KiCad,Pcbnew,(6.0.1-0)*
G04 #@! TF.CreationDate,2023-04-15T21:23:18-07:00*
G04 #@! TF.ProjectId,pcb,7063622e-6b69-4636-9164-5f7063625858,rev?*
G04 #@! TF.SameCoordinates,Original*
G04 #@! TF.FileFunction,Paste,Bot*
G04 #@! TF.FilePolarity,Positive*
%FSLAX46Y46*%
G04 Gerber Fmt 4.6, Leading zero omitted, Abs format (unit mm)*
G04 Created by KiCad (PCBNEW (6.0.1-0)) date 2023-04-15 21:23:18*
%MOMM*%
%LPD*%
G01*
G04 APERTURE LIST*
%ADD10R,2.550000X2.500000*%
%ADD11R,1.500000X1.200000*%
%ADD12R,2.500000X2.550000*%
%ADD13R,0.800000X1.900000*%
G04 APERTURE END LIST*
D10*
X323791250Y-156740150D03*
X310864250Y-159280150D03*
D11*
X441600000Y-62992000D03*
X438900000Y-62992000D03*
D10*
X197702500Y-131100143D03*
X210629500Y-128560143D03*
X363748500Y-89980097D03*
X376675500Y-87440097D03*
X145315000Y-48860055D03*
X158242000Y-46320055D03*
X188177500Y-151660165D03*
X201104500Y-149120165D03*
X424902000Y-177300181D03*
X411975000Y-179840181D03*
D11*
X63326000Y-141986000D03*
X60626000Y-141986000D03*
D10*
X304858750Y-131100130D03*
X317785750Y-128560130D03*
X178652500Y-131100143D03*
X191579500Y-128560143D03*
D11*
X372183500Y-62484000D03*
X369483500Y-62484000D03*
D10*
X467882000Y-172220187D03*
X480809000Y-169680187D03*
X429782000Y-131100139D03*
X442709000Y-128560139D03*
X111977500Y-151660165D03*
X124904500Y-149120165D03*
X78640000Y-110540121D03*
X91567000Y-108000121D03*
X102452500Y-172220187D03*
X115379500Y-169680187D03*
X410732000Y-151660160D03*
X423659000Y-149120160D03*
X226277500Y-151660165D03*
X239204500Y-149120165D03*
X448832000Y-131100139D03*
X461759000Y-128560139D03*
X61971250Y-151660150D03*
X74898250Y-149120150D03*
X97690000Y-110540121D03*
X110617000Y-108000121D03*
X183415000Y-89980099D03*
X196342000Y-87440099D03*
X121502500Y-131100143D03*
X134429500Y-128560143D03*
X382798500Y-172220188D03*
X395725500Y-169680188D03*
X467882000Y-120820132D03*
X480809000Y-118280132D03*
X192940000Y-110540121D03*
X205867000Y-108000121D03*
X382798500Y-89980097D03*
X395725500Y-87440097D03*
D11*
X466660000Y-62992000D03*
X463960000Y-62992000D03*
D10*
X54827500Y-110540121D03*
X67754500Y-108000121D03*
X207227500Y-151660165D03*
X220154500Y-149120165D03*
X216752500Y-131100143D03*
X229679500Y-128560143D03*
X330935000Y-95060099D03*
X318008000Y-97600099D03*
X363748500Y-110540118D03*
X376675500Y-108000118D03*
X202465000Y-89980099D03*
X215392000Y-87440099D03*
X135790000Y-110540121D03*
X148717000Y-108000121D03*
X183415000Y-172220170D03*
X196342000Y-169680170D03*
X344698500Y-48860055D03*
X357625500Y-46320055D03*
X288190000Y-110540121D03*
X301117000Y-108000121D03*
X312002500Y-172220187D03*
X324929500Y-169680187D03*
X126265000Y-48860055D03*
X139192000Y-46320055D03*
X259615000Y-89980099D03*
X272542000Y-87440099D03*
X363748500Y-151660167D03*
X376675500Y-149120167D03*
X264377500Y-172220187D03*
X277304500Y-169680187D03*
X307122500Y-136180143D03*
X294195500Y-138720143D03*
X159602500Y-131100143D03*
X172529500Y-128560143D03*
X410732000Y-110540118D03*
X423659000Y-108000118D03*
X116740000Y-110540121D03*
X129667000Y-108000121D03*
X448832000Y-89980097D03*
X461759000Y-87440097D03*
X297715000Y-48860055D03*
X310642000Y-46320055D03*
X278665000Y-48860055D03*
X291592000Y-46320055D03*
D12*
X477507000Y-147115160D03*
X480047000Y-160042160D03*
D10*
X157103750Y-177300170D03*
X144176750Y-179840170D03*
X192940000Y-48860055D03*
X205867000Y-46320055D03*
X126265000Y-89980099D03*
X139192000Y-87440099D03*
X448832000Y-110540118D03*
X461759000Y-108000118D03*
X221515000Y-89980099D03*
X234442000Y-87440099D03*
X410732000Y-131100139D03*
X423659000Y-128560139D03*
X254852500Y-131100143D03*
X267779500Y-128560143D03*
X300096250Y-151660150D03*
X313023250Y-149120150D03*
X467882000Y-161940176D03*
X480809000Y-159400176D03*
X88047500Y-156740165D03*
X75120500Y-159280165D03*
X344698500Y-89980097D03*
X357625500Y-87440097D03*
X211990000Y-48860055D03*
X224917000Y-46320055D03*
X204728750Y-177300170D03*
X191801750Y-179840170D03*
X443952000Y-177300181D03*
X431025000Y-179840181D03*
D11*
X419167000Y-100838000D03*
X416467000Y-100838000D03*
D10*
X297597500Y-156740150D03*
X284670500Y-159280150D03*
X88165000Y-48860055D03*
X101092000Y-46320055D03*
X150077500Y-151660165D03*
X163004500Y-149120165D03*
D11*
X416690000Y-62992000D03*
X413990000Y-62992000D03*
D10*
X467882000Y-131100139D03*
X480809000Y-128560139D03*
X231040000Y-110540121D03*
X243967000Y-108000121D03*
X66616250Y-156740165D03*
X53689250Y-159280165D03*
X107215000Y-48860055D03*
X120142000Y-46320055D03*
X145315000Y-89980099D03*
X158242000Y-87440099D03*
X382798500Y-48860055D03*
X395725500Y-46320055D03*
X245210000Y-177300170D03*
X232283000Y-179840170D03*
X107215000Y-89980099D03*
X120142000Y-87440099D03*
X231040000Y-48860055D03*
X243967000Y-46320055D03*
X429782000Y-89980097D03*
X442709000Y-87440097D03*
X278665000Y-89980099D03*
X291592000Y-87440099D03*
X382798500Y-110540118D03*
X395725500Y-108000118D03*
X102452500Y-131100143D03*
X115379500Y-128560143D03*
X269140000Y-110540121D03*
X282067000Y-108000121D03*
X429782000Y-110540118D03*
X442709000Y-108000118D03*
X448832000Y-151660160D03*
X461759000Y-149120160D03*
X50065000Y-89980097D03*
X62992000Y-87440097D03*
X344698500Y-110540118D03*
X357625500Y-108000118D03*
X420257000Y-172220181D03*
X433184000Y-169680181D03*
X429782000Y-151660160D03*
X442709000Y-149120160D03*
X92927500Y-151660165D03*
X105854500Y-149120165D03*
X140552500Y-131100143D03*
X153479500Y-128560143D03*
X344698500Y-172220188D03*
X357625500Y-169680188D03*
D12*
X477507000Y-105995110D03*
X480047000Y-118922110D03*
D10*
X363748500Y-172220188D03*
X376675500Y-169680188D03*
X173890000Y-110540121D03*
X186817000Y-108000121D03*
X311885000Y-95060090D03*
X298958000Y-97600090D03*
X245327500Y-151660165D03*
X258254500Y-149120165D03*
X467882000Y-89980097D03*
X480809000Y-87440097D03*
X131027500Y-151660165D03*
X143954500Y-149120165D03*
X448832000Y-172220187D03*
X461759000Y-169680187D03*
X312002500Y-110540121D03*
X324929500Y-108000121D03*
X169127500Y-151660165D03*
X182054500Y-149120165D03*
X259615000Y-48860055D03*
X272542000Y-46320055D03*
X314383750Y-120820120D03*
X327310750Y-118280120D03*
X264377500Y-151660165D03*
X277304500Y-149120165D03*
X363748500Y-48860055D03*
X376675500Y-46320055D03*
X164365000Y-89980099D03*
X177292000Y-87440099D03*
X88165000Y-89980099D03*
X101092000Y-87440099D03*
X52446250Y-131100130D03*
X65373250Y-128560130D03*
X69115000Y-89980099D03*
X82042000Y-87440099D03*
X316765000Y-48860055D03*
X329692000Y-46320055D03*
X83402500Y-131100143D03*
X96329500Y-128560143D03*
X211990000Y-110540121D03*
X224917000Y-108000121D03*
X154840000Y-110540121D03*
X167767000Y-108000121D03*
X240565000Y-89980099D03*
X253492000Y-87440099D03*
X410732000Y-89980097D03*
X423659000Y-87440097D03*
X273902500Y-131100143D03*
X286829500Y-128560143D03*
X307240000Y-89980090D03*
X320167000Y-87440090D03*
X50065000Y-48860055D03*
X62992000Y-46320055D03*
X235802500Y-131100143D03*
X248729500Y-128560143D03*
X250090000Y-110540121D03*
X263017000Y-108000121D03*
X54827500Y-172220187D03*
X67754500Y-169680187D03*
X173890000Y-48860055D03*
X186817000Y-46320055D03*
D13*
X151450000Y-115848000D03*
X153350000Y-115848000D03*
X152400000Y-118848000D03*
X218252000Y-95274000D03*
X220152000Y-95274000D03*
X219202000Y-98274000D03*
X222824000Y-156996000D03*
X224724000Y-156996000D03*
X223774000Y-159996000D03*
X251526000Y-136422000D03*
X253426000Y-136422000D03*
X252476000Y-139422000D03*
X142052000Y-95274000D03*
X143952000Y-95274000D03*
X143002000Y-98274000D03*
X84902000Y-95274000D03*
X86802000Y-95274000D03*
X85852000Y-98274000D03*
X94300000Y-115848000D03*
X96200000Y-115848000D03*
X95250000Y-118848000D03*
X232476000Y-136422000D03*
X234376000Y-136422000D03*
X233426000Y-139422000D03*
X65852000Y-95274000D03*
X67752000Y-95274000D03*
X66802000Y-98274000D03*
X146624000Y-156996000D03*
X148524000Y-156996000D03*
X147574000Y-159996000D03*
X445582000Y-115848000D03*
X447482000Y-115848000D03*
X446532000Y-118848000D03*
X189550000Y-54126000D03*
X191450000Y-54126000D03*
X190500000Y-57126000D03*
X246700000Y-115848000D03*
X248600000Y-115848000D03*
X247650000Y-118848000D03*
X379542000Y-180110000D03*
X381442000Y-180110000D03*
X380492000Y-183110000D03*
X170500000Y-115848000D03*
X172400000Y-115848000D03*
X171450000Y-118848000D03*
X251526000Y-54126000D03*
X253426000Y-54126000D03*
X252476000Y-57126000D03*
X360492000Y-54126000D03*
X362392000Y-54126000D03*
X361442000Y-57126000D03*
X294198000Y-95274000D03*
X296098000Y-95274000D03*
X295148000Y-98274000D03*
X301056000Y-156996000D03*
X302956000Y-156996000D03*
X302006000Y-159996000D03*
X386146000Y-161060000D03*
X388046000Y-161060000D03*
X387096000Y-164060000D03*
X103952000Y-54126000D03*
X105852000Y-54126000D03*
X104902000Y-57126000D03*
X92268000Y-158774000D03*
X94168000Y-158774000D03*
X93218000Y-161774000D03*
X161102000Y-95274000D03*
X163002000Y-95274000D03*
X162052000Y-98274000D03*
X275402000Y-54126000D03*
X277302000Y-54126000D03*
X276352000Y-57126000D03*
X400116000Y-166394000D03*
X402016000Y-166394000D03*
X401066000Y-169394000D03*
X71694000Y-177570000D03*
X73594000Y-177570000D03*
X72644000Y-180570000D03*
X445582000Y-156996000D03*
X447482000Y-156996000D03*
X446532000Y-159996000D03*
X75250000Y-115848000D03*
X77150000Y-115848000D03*
X76200000Y-118848000D03*
X165928000Y-54126000D03*
X167828000Y-54126000D03*
X166878000Y-57126000D03*
X165674000Y-156996000D03*
X167574000Y-156996000D03*
X166624000Y-159996000D03*
X303850000Y-115848000D03*
X305750000Y-115848000D03*
X304800000Y-118848000D03*
X177866000Y-177316000D03*
X179766000Y-177316000D03*
X178816000Y-180316000D03*
X256352000Y-177570000D03*
X258252000Y-177570000D03*
X257302000Y-180570000D03*
X313502000Y-98322000D03*
X315402000Y-98322000D03*
X314452000Y-101322000D03*
X445582000Y-136422000D03*
X447482000Y-136422000D03*
X446532000Y-139422000D03*
X156276000Y-136422000D03*
X158176000Y-136422000D03*
X157226000Y-139422000D03*
X75250000Y-136422000D03*
X77150000Y-136422000D03*
X76200000Y-139422000D03*
X426532000Y-115848000D03*
X428432000Y-115848000D03*
X427482000Y-118848000D03*
X336870000Y-54126000D03*
X338770000Y-54126000D03*
X337820000Y-57126000D03*
X337378000Y-134898000D03*
X339278000Y-134898000D03*
X338328000Y-137898000D03*
X241874000Y-156996000D03*
X243774000Y-156996000D03*
X242824000Y-159996000D03*
X227650000Y-115848000D03*
X229550000Y-115848000D03*
X228600000Y-118848000D03*
X337378000Y-115848000D03*
X339278000Y-115848000D03*
X338328000Y-118848000D03*
X445582000Y-95274000D03*
X447482000Y-95274000D03*
X446532000Y-98274000D03*
X360492000Y-177570000D03*
X362392000Y-177570000D03*
X361442000Y-180570000D03*
X426532000Y-156996000D03*
X428432000Y-156996000D03*
X427482000Y-159996000D03*
X99126000Y-136422000D03*
X101026000Y-136422000D03*
X100076000Y-139422000D03*
X310200000Y-138454000D03*
X312100000Y-138454000D03*
X311150000Y-141454000D03*
X337378000Y-156234000D03*
X339278000Y-156234000D03*
X338328000Y-159234000D03*
X237302000Y-95274000D03*
X239202000Y-95274000D03*
X238252000Y-98274000D03*
X426532000Y-95274000D03*
X428432000Y-95274000D03*
X427482000Y-98274000D03*
X426532000Y-136422000D03*
X428432000Y-136422000D03*
X427482000Y-139422000D03*
X69408000Y-160552000D03*
X71308000Y-160552000D03*
X70358000Y-163552000D03*
X175326000Y-136422000D03*
X177226000Y-136422000D03*
X176276000Y-139422000D03*
X75250000Y-54126000D03*
X77150000Y-54126000D03*
X76200000Y-57126000D03*
M02*
