G04 #@! TF.GenerationSoftware,KiCad,Pcbnew,(6.0.1-0)*
G04 #@! TF.CreationDate,2023-04-19T14:24:50-07:00*
G04 #@! TF.ProjectId,pcb,7063622e-6b69-4636-9164-5f7063625858,rev?*
G04 #@! TF.SameCoordinates,Original*
G04 #@! TF.FileFunction,Legend,Bot*
G04 #@! TF.FilePolarity,Positive*
%FSLAX46Y46*%
G04 Gerber Fmt 4.6, Leading zero omitted, Abs format (unit mm)*
G04 Created by KiCad (PCBNEW (6.0.1-0)) date 2023-04-19 14:24:50*
%MOMM*%
%LPD*%
G01*
G04 APERTURE LIST*
%ADD10C,0.150000*%
%ADD11C,0.120000*%
%ADD12C,3.987800*%
%ADD13C,1.750000*%
%ADD14C,3.000000*%
%ADD15R,2.550000X2.500000*%
%ADD16C,1.600000*%
%ADD17R,1.500000X1.200000*%
%ADD18R,1.800000X1.800000*%
%ADD19C,1.800000*%
%ADD20C,3.048000*%
%ADD21O,3.987800X4.387800*%
%ADD22O,2.000000X3.200000*%
%ADD23R,2.000000X2.000000*%
%ADD24C,2.000000*%
%ADD25O,3.048000X3.448000*%
%ADD26R,2.500000X2.550000*%
%ADD27C,2.250000*%
%ADD28C,1.905000*%
%ADD29R,1.905000X1.905000*%
%ADD30R,0.800000X1.900000*%
G04 APERTURE END LIST*
D10*
X434132557Y-63353904D02*
X434399224Y-62972952D01*
X434589700Y-63353904D02*
X434589700Y-62553904D01*
X434284938Y-62553904D01*
X434208747Y-62592000D01*
X434170652Y-62630095D01*
X434132557Y-62706285D01*
X434132557Y-62820571D01*
X434170652Y-62896761D01*
X434208747Y-62934857D01*
X434284938Y-62972952D01*
X434589700Y-62972952D01*
X433408747Y-62553904D02*
X433789700Y-62553904D01*
X433827795Y-62934857D01*
X433789700Y-62896761D01*
X433713509Y-62858666D01*
X433523033Y-62858666D01*
X433446843Y-62896761D01*
X433408747Y-62934857D01*
X433370652Y-63011047D01*
X433370652Y-63201523D01*
X433408747Y-63277714D01*
X433446843Y-63315809D01*
X433523033Y-63353904D01*
X433713509Y-63353904D01*
X433789700Y-63315809D01*
X433827795Y-63277714D01*
X441340238Y-55297142D02*
X441387857Y-55344761D01*
X441530714Y-55392380D01*
X441625952Y-55392380D01*
X441768809Y-55344761D01*
X441864047Y-55249523D01*
X441911666Y-55154285D01*
X441959285Y-54963809D01*
X441959285Y-54820952D01*
X441911666Y-54630476D01*
X441864047Y-54535238D01*
X441768809Y-54440000D01*
X441625952Y-54392380D01*
X441530714Y-54392380D01*
X441387857Y-54440000D01*
X441340238Y-54487619D01*
X440959285Y-55106666D02*
X440483095Y-55106666D01*
X441054523Y-55392380D02*
X440721190Y-54392380D01*
X440387857Y-55392380D01*
X440054523Y-55392380D02*
X440054523Y-54392380D01*
X439673571Y-54392380D01*
X439578333Y-54440000D01*
X439530714Y-54487619D01*
X439483095Y-54582857D01*
X439483095Y-54725714D01*
X439530714Y-54820952D01*
X439578333Y-54868571D01*
X439673571Y-54916190D01*
X440054523Y-54916190D01*
X438530714Y-55392380D02*
X439102142Y-55392380D01*
X438816428Y-55392380D02*
X438816428Y-54392380D01*
X438911666Y-54535238D01*
X439006904Y-54630476D01*
X439102142Y-54678095D01*
X55858557Y-142347904D02*
X56125224Y-141966952D01*
X56315700Y-142347904D02*
X56315700Y-141547904D01*
X56010938Y-141547904D01*
X55934747Y-141586000D01*
X55896652Y-141624095D01*
X55858557Y-141700285D01*
X55858557Y-141814571D01*
X55896652Y-141890761D01*
X55934747Y-141928857D01*
X56010938Y-141966952D01*
X56315700Y-141966952D01*
X55096652Y-142347904D02*
X55553795Y-142347904D01*
X55325224Y-142347904D02*
X55325224Y-141547904D01*
X55401414Y-141662190D01*
X55477604Y-141738380D01*
X55553795Y-141776476D01*
X364716057Y-62845904D02*
X364982724Y-62464952D01*
X365173200Y-62845904D02*
X365173200Y-62045904D01*
X364868438Y-62045904D01*
X364792247Y-62084000D01*
X364754152Y-62122095D01*
X364716057Y-62198285D01*
X364716057Y-62312571D01*
X364754152Y-62388761D01*
X364792247Y-62426857D01*
X364868438Y-62464952D01*
X365173200Y-62464952D01*
X364411295Y-62122095D02*
X364373200Y-62084000D01*
X364297009Y-62045904D01*
X364106533Y-62045904D01*
X364030343Y-62084000D01*
X363992247Y-62122095D01*
X363954152Y-62198285D01*
X363954152Y-62274476D01*
X363992247Y-62388761D01*
X364449390Y-62845904D01*
X363954152Y-62845904D01*
X459192557Y-63353904D02*
X459459224Y-62972952D01*
X459649700Y-63353904D02*
X459649700Y-62553904D01*
X459344938Y-62553904D01*
X459268747Y-62592000D01*
X459230652Y-62630095D01*
X459192557Y-62706285D01*
X459192557Y-62820571D01*
X459230652Y-62896761D01*
X459268747Y-62934857D01*
X459344938Y-62972952D01*
X459649700Y-62972952D01*
X458506843Y-62553904D02*
X458659224Y-62553904D01*
X458735414Y-62592000D01*
X458773509Y-62630095D01*
X458849700Y-62744380D01*
X458887795Y-62896761D01*
X458887795Y-63201523D01*
X458849700Y-63277714D01*
X458811604Y-63315809D01*
X458735414Y-63353904D01*
X458583033Y-63353904D01*
X458506843Y-63315809D01*
X458468747Y-63277714D01*
X458430652Y-63201523D01*
X458430652Y-63011047D01*
X458468747Y-62934857D01*
X458506843Y-62896761D01*
X458583033Y-62858666D01*
X458735414Y-62858666D01*
X458811604Y-62896761D01*
X458849700Y-62934857D01*
X458887795Y-63011047D01*
X417192142Y-55372380D02*
X417192142Y-54372380D01*
X416620714Y-55372380D01*
X416620714Y-54372380D01*
X416144523Y-54372380D02*
X416144523Y-55181904D01*
X416096904Y-55277142D01*
X416049285Y-55324761D01*
X415954047Y-55372380D01*
X415763571Y-55372380D01*
X415668333Y-55324761D01*
X415620714Y-55277142D01*
X415573095Y-55181904D01*
X415573095Y-54372380D01*
X415096904Y-55372380D02*
X415096904Y-54372380D01*
X414763571Y-55086666D01*
X414430238Y-54372380D01*
X414430238Y-55372380D01*
X413430238Y-55372380D02*
X414001666Y-55372380D01*
X413715952Y-55372380D02*
X413715952Y-54372380D01*
X413811190Y-54515238D01*
X413906428Y-54610476D01*
X414001666Y-54658095D01*
X467471666Y-55344761D02*
X467328809Y-55392380D01*
X467090714Y-55392380D01*
X466995476Y-55344761D01*
X466947857Y-55297142D01*
X466900238Y-55201904D01*
X466900238Y-55106666D01*
X466947857Y-55011428D01*
X466995476Y-54963809D01*
X467090714Y-54916190D01*
X467281190Y-54868571D01*
X467376428Y-54820952D01*
X467424047Y-54773333D01*
X467471666Y-54678095D01*
X467471666Y-54582857D01*
X467424047Y-54487619D01*
X467376428Y-54440000D01*
X467281190Y-54392380D01*
X467043095Y-54392380D01*
X466900238Y-54440000D01*
X465900238Y-55297142D02*
X465947857Y-55344761D01*
X466090714Y-55392380D01*
X466185952Y-55392380D01*
X466328809Y-55344761D01*
X466424047Y-55249523D01*
X466471666Y-55154285D01*
X466519285Y-54963809D01*
X466519285Y-54820952D01*
X466471666Y-54630476D01*
X466424047Y-54535238D01*
X466328809Y-54440000D01*
X466185952Y-54392380D01*
X466090714Y-54392380D01*
X465947857Y-54440000D01*
X465900238Y-54487619D01*
X464900238Y-55392380D02*
X465233571Y-54916190D01*
X465471666Y-55392380D02*
X465471666Y-54392380D01*
X465090714Y-54392380D01*
X464995476Y-54440000D01*
X464947857Y-54487619D01*
X464900238Y-54582857D01*
X464900238Y-54725714D01*
X464947857Y-54820952D01*
X464995476Y-54868571D01*
X465090714Y-54916190D01*
X465471666Y-54916190D01*
X463995476Y-55392380D02*
X464471666Y-55392380D01*
X464471666Y-54392380D01*
X463138333Y-55392380D02*
X463709761Y-55392380D01*
X463424047Y-55392380D02*
X463424047Y-54392380D01*
X463519285Y-54535238D01*
X463614523Y-54630476D01*
X463709761Y-54678095D01*
X411699557Y-101199904D02*
X411966224Y-100818952D01*
X412156700Y-101199904D02*
X412156700Y-100399904D01*
X411851938Y-100399904D01*
X411775747Y-100438000D01*
X411737652Y-100476095D01*
X411699557Y-100552285D01*
X411699557Y-100666571D01*
X411737652Y-100742761D01*
X411775747Y-100780857D01*
X411851938Y-100818952D01*
X412156700Y-100818952D01*
X411432890Y-100399904D02*
X410937652Y-100399904D01*
X411204319Y-100704666D01*
X411090033Y-100704666D01*
X411013843Y-100742761D01*
X410975747Y-100780857D01*
X410937652Y-100857047D01*
X410937652Y-101047523D01*
X410975747Y-101123714D01*
X411013843Y-101161809D01*
X411090033Y-101199904D01*
X411318604Y-101199904D01*
X411394795Y-101161809D01*
X411432890Y-101123714D01*
X409222557Y-63353904D02*
X409489224Y-62972952D01*
X409679700Y-63353904D02*
X409679700Y-62553904D01*
X409374938Y-62553904D01*
X409298747Y-62592000D01*
X409260652Y-62630095D01*
X409222557Y-62706285D01*
X409222557Y-62820571D01*
X409260652Y-62896761D01*
X409298747Y-62934857D01*
X409374938Y-62972952D01*
X409679700Y-62972952D01*
X408536843Y-62820571D02*
X408536843Y-63353904D01*
X408727319Y-62515809D02*
X408917795Y-63087238D01*
X408422557Y-63087238D01*
X150352380Y-116133714D02*
X149352380Y-116133714D01*
X149352380Y-116371809D01*
X149400000Y-116514666D01*
X149495238Y-116609904D01*
X149590476Y-116657523D01*
X149780952Y-116705142D01*
X149923809Y-116705142D01*
X150114285Y-116657523D01*
X150209523Y-116609904D01*
X150304761Y-116514666D01*
X150352380Y-116371809D01*
X150352380Y-116133714D01*
X150352380Y-117657523D02*
X150352380Y-117086095D01*
X150352380Y-117371809D02*
X149352380Y-117371809D01*
X149495238Y-117276571D01*
X149590476Y-117181333D01*
X149638095Y-117086095D01*
X149685714Y-118514666D02*
X150352380Y-118514666D01*
X149304761Y-118276571D02*
X150019047Y-118038476D01*
X150019047Y-118657523D01*
X217154380Y-95559714D02*
X216154380Y-95559714D01*
X216154380Y-95797809D01*
X216202000Y-95940666D01*
X216297238Y-96035904D01*
X216392476Y-96083523D01*
X216582952Y-96131142D01*
X216725809Y-96131142D01*
X216916285Y-96083523D01*
X217011523Y-96035904D01*
X217106761Y-95940666D01*
X217154380Y-95797809D01*
X217154380Y-95559714D01*
X216249619Y-96512095D02*
X216202000Y-96559714D01*
X216154380Y-96654952D01*
X216154380Y-96893047D01*
X216202000Y-96988285D01*
X216249619Y-97035904D01*
X216344857Y-97083523D01*
X216440095Y-97083523D01*
X216582952Y-97035904D01*
X217154380Y-96464476D01*
X217154380Y-97083523D01*
X216487714Y-97940666D02*
X217154380Y-97940666D01*
X216106761Y-97702571D02*
X216821047Y-97464476D01*
X216821047Y-98083523D01*
X221726380Y-157281714D02*
X220726380Y-157281714D01*
X220726380Y-157519809D01*
X220774000Y-157662666D01*
X220869238Y-157757904D01*
X220964476Y-157805523D01*
X221154952Y-157853142D01*
X221297809Y-157853142D01*
X221488285Y-157805523D01*
X221583523Y-157757904D01*
X221678761Y-157662666D01*
X221726380Y-157519809D01*
X221726380Y-157281714D01*
X220821619Y-158234095D02*
X220774000Y-158281714D01*
X220726380Y-158376952D01*
X220726380Y-158615047D01*
X220774000Y-158710285D01*
X220821619Y-158757904D01*
X220916857Y-158805523D01*
X221012095Y-158805523D01*
X221154952Y-158757904D01*
X221726380Y-158186476D01*
X221726380Y-158805523D01*
X220726380Y-159138857D02*
X220726380Y-159805523D01*
X221726380Y-159376952D01*
X250428380Y-136707714D02*
X249428380Y-136707714D01*
X249428380Y-136945809D01*
X249476000Y-137088666D01*
X249571238Y-137183904D01*
X249666476Y-137231523D01*
X249856952Y-137279142D01*
X249999809Y-137279142D01*
X250190285Y-137231523D01*
X250285523Y-137183904D01*
X250380761Y-137088666D01*
X250428380Y-136945809D01*
X250428380Y-136707714D01*
X249428380Y-137612476D02*
X249428380Y-138231523D01*
X249809333Y-137898190D01*
X249809333Y-138041047D01*
X249856952Y-138136285D01*
X249904571Y-138183904D01*
X249999809Y-138231523D01*
X250237904Y-138231523D01*
X250333142Y-138183904D01*
X250380761Y-138136285D01*
X250428380Y-138041047D01*
X250428380Y-137755333D01*
X250380761Y-137660095D01*
X250333142Y-137612476D01*
X249523619Y-138612476D02*
X249476000Y-138660095D01*
X249428380Y-138755333D01*
X249428380Y-138993428D01*
X249476000Y-139088666D01*
X249523619Y-139136285D01*
X249618857Y-139183904D01*
X249714095Y-139183904D01*
X249856952Y-139136285D01*
X250428380Y-138564857D01*
X250428380Y-139183904D01*
X140954380Y-95559714D02*
X139954380Y-95559714D01*
X139954380Y-95797809D01*
X140002000Y-95940666D01*
X140097238Y-96035904D01*
X140192476Y-96083523D01*
X140382952Y-96131142D01*
X140525809Y-96131142D01*
X140716285Y-96083523D01*
X140811523Y-96035904D01*
X140906761Y-95940666D01*
X140954380Y-95797809D01*
X140954380Y-95559714D01*
X140954380Y-97083523D02*
X140954380Y-96512095D01*
X140954380Y-96797809D02*
X139954380Y-96797809D01*
X140097238Y-96702571D01*
X140192476Y-96607333D01*
X140240095Y-96512095D01*
X139954380Y-97416857D02*
X139954380Y-98035904D01*
X140335333Y-97702571D01*
X140335333Y-97845428D01*
X140382952Y-97940666D01*
X140430571Y-97988285D01*
X140525809Y-98035904D01*
X140763904Y-98035904D01*
X140859142Y-97988285D01*
X140906761Y-97940666D01*
X140954380Y-97845428D01*
X140954380Y-97559714D01*
X140906761Y-97464476D01*
X140859142Y-97416857D01*
X83804380Y-96035904D02*
X82804380Y-96035904D01*
X82804380Y-96274000D01*
X82852000Y-96416857D01*
X82947238Y-96512095D01*
X83042476Y-96559714D01*
X83232952Y-96607333D01*
X83375809Y-96607333D01*
X83566285Y-96559714D01*
X83661523Y-96512095D01*
X83756761Y-96416857D01*
X83804380Y-96274000D01*
X83804380Y-96035904D01*
X83232952Y-97178761D02*
X83185333Y-97083523D01*
X83137714Y-97035904D01*
X83042476Y-96988285D01*
X82994857Y-96988285D01*
X82899619Y-97035904D01*
X82852000Y-97083523D01*
X82804380Y-97178761D01*
X82804380Y-97369238D01*
X82852000Y-97464476D01*
X82899619Y-97512095D01*
X82994857Y-97559714D01*
X83042476Y-97559714D01*
X83137714Y-97512095D01*
X83185333Y-97464476D01*
X83232952Y-97369238D01*
X83232952Y-97178761D01*
X83280571Y-97083523D01*
X83328190Y-97035904D01*
X83423428Y-96988285D01*
X83613904Y-96988285D01*
X83709142Y-97035904D01*
X83756761Y-97083523D01*
X83804380Y-97178761D01*
X83804380Y-97369238D01*
X83756761Y-97464476D01*
X83709142Y-97512095D01*
X83613904Y-97559714D01*
X83423428Y-97559714D01*
X83328190Y-97512095D01*
X83280571Y-97464476D01*
X83232952Y-97369238D01*
X93202380Y-116609904D02*
X92202380Y-116609904D01*
X92202380Y-116848000D01*
X92250000Y-116990857D01*
X92345238Y-117086095D01*
X92440476Y-117133714D01*
X92630952Y-117181333D01*
X92773809Y-117181333D01*
X92964285Y-117133714D01*
X93059523Y-117086095D01*
X93154761Y-116990857D01*
X93202380Y-116848000D01*
X93202380Y-116609904D01*
X93202380Y-117657523D02*
X93202380Y-117848000D01*
X93154761Y-117943238D01*
X93107142Y-117990857D01*
X92964285Y-118086095D01*
X92773809Y-118133714D01*
X92392857Y-118133714D01*
X92297619Y-118086095D01*
X92250000Y-118038476D01*
X92202380Y-117943238D01*
X92202380Y-117752761D01*
X92250000Y-117657523D01*
X92297619Y-117609904D01*
X92392857Y-117562285D01*
X92630952Y-117562285D01*
X92726190Y-117609904D01*
X92773809Y-117657523D01*
X92821428Y-117752761D01*
X92821428Y-117943238D01*
X92773809Y-118038476D01*
X92726190Y-118086095D01*
X92630952Y-118133714D01*
X231378380Y-136707714D02*
X230378380Y-136707714D01*
X230378380Y-136945809D01*
X230426000Y-137088666D01*
X230521238Y-137183904D01*
X230616476Y-137231523D01*
X230806952Y-137279142D01*
X230949809Y-137279142D01*
X231140285Y-137231523D01*
X231235523Y-137183904D01*
X231330761Y-137088666D01*
X231378380Y-136945809D01*
X231378380Y-136707714D01*
X230473619Y-137660095D02*
X230426000Y-137707714D01*
X230378380Y-137802952D01*
X230378380Y-138041047D01*
X230426000Y-138136285D01*
X230473619Y-138183904D01*
X230568857Y-138231523D01*
X230664095Y-138231523D01*
X230806952Y-138183904D01*
X231378380Y-137612476D01*
X231378380Y-138231523D01*
X230378380Y-139088666D02*
X230378380Y-138898190D01*
X230426000Y-138802952D01*
X230473619Y-138755333D01*
X230616476Y-138660095D01*
X230806952Y-138612476D01*
X231187904Y-138612476D01*
X231283142Y-138660095D01*
X231330761Y-138707714D01*
X231378380Y-138802952D01*
X231378380Y-138993428D01*
X231330761Y-139088666D01*
X231283142Y-139136285D01*
X231187904Y-139183904D01*
X230949809Y-139183904D01*
X230854571Y-139136285D01*
X230806952Y-139088666D01*
X230759333Y-138993428D01*
X230759333Y-138802952D01*
X230806952Y-138707714D01*
X230854571Y-138660095D01*
X230949809Y-138612476D01*
X64754380Y-96035904D02*
X63754380Y-96035904D01*
X63754380Y-96274000D01*
X63802000Y-96416857D01*
X63897238Y-96512095D01*
X63992476Y-96559714D01*
X64182952Y-96607333D01*
X64325809Y-96607333D01*
X64516285Y-96559714D01*
X64611523Y-96512095D01*
X64706761Y-96416857D01*
X64754380Y-96274000D01*
X64754380Y-96035904D01*
X63849619Y-96988285D02*
X63802000Y-97035904D01*
X63754380Y-97131142D01*
X63754380Y-97369238D01*
X63802000Y-97464476D01*
X63849619Y-97512095D01*
X63944857Y-97559714D01*
X64040095Y-97559714D01*
X64182952Y-97512095D01*
X64754380Y-96940666D01*
X64754380Y-97559714D01*
X145526380Y-157281714D02*
X144526380Y-157281714D01*
X144526380Y-157519809D01*
X144574000Y-157662666D01*
X144669238Y-157757904D01*
X144764476Y-157805523D01*
X144954952Y-157853142D01*
X145097809Y-157853142D01*
X145288285Y-157805523D01*
X145383523Y-157757904D01*
X145478761Y-157662666D01*
X145526380Y-157519809D01*
X145526380Y-157281714D01*
X145526380Y-158805523D02*
X145526380Y-158234095D01*
X145526380Y-158519809D02*
X144526380Y-158519809D01*
X144669238Y-158424571D01*
X144764476Y-158329333D01*
X144812095Y-158234095D01*
X144526380Y-159662666D02*
X144526380Y-159472190D01*
X144574000Y-159376952D01*
X144621619Y-159329333D01*
X144764476Y-159234095D01*
X144954952Y-159186476D01*
X145335904Y-159186476D01*
X145431142Y-159234095D01*
X145478761Y-159281714D01*
X145526380Y-159376952D01*
X145526380Y-159567428D01*
X145478761Y-159662666D01*
X145431142Y-159710285D01*
X145335904Y-159757904D01*
X145097809Y-159757904D01*
X145002571Y-159710285D01*
X144954952Y-159662666D01*
X144907333Y-159567428D01*
X144907333Y-159376952D01*
X144954952Y-159281714D01*
X145002571Y-159234095D01*
X145097809Y-159186476D01*
X444484380Y-116133714D02*
X443484380Y-116133714D01*
X443484380Y-116371809D01*
X443532000Y-116514666D01*
X443627238Y-116609904D01*
X443722476Y-116657523D01*
X443912952Y-116705142D01*
X444055809Y-116705142D01*
X444246285Y-116657523D01*
X444341523Y-116609904D01*
X444436761Y-116514666D01*
X444484380Y-116371809D01*
X444484380Y-116133714D01*
X443484380Y-117609904D02*
X443484380Y-117133714D01*
X443960571Y-117086095D01*
X443912952Y-117133714D01*
X443865333Y-117228952D01*
X443865333Y-117467047D01*
X443912952Y-117562285D01*
X443960571Y-117609904D01*
X444055809Y-117657523D01*
X444293904Y-117657523D01*
X444389142Y-117609904D01*
X444436761Y-117562285D01*
X444484380Y-117467047D01*
X444484380Y-117228952D01*
X444436761Y-117133714D01*
X444389142Y-117086095D01*
X444484380Y-118609904D02*
X444484380Y-118038476D01*
X444484380Y-118324190D02*
X443484380Y-118324190D01*
X443627238Y-118228952D01*
X443722476Y-118133714D01*
X443770095Y-118038476D01*
X188452380Y-54411714D02*
X187452380Y-54411714D01*
X187452380Y-54649809D01*
X187500000Y-54792666D01*
X187595238Y-54887904D01*
X187690476Y-54935523D01*
X187880952Y-54983142D01*
X188023809Y-54983142D01*
X188214285Y-54935523D01*
X188309523Y-54887904D01*
X188404761Y-54792666D01*
X188452380Y-54649809D01*
X188452380Y-54411714D01*
X188452380Y-55935523D02*
X188452380Y-55364095D01*
X188452380Y-55649809D02*
X187452380Y-55649809D01*
X187595238Y-55554571D01*
X187690476Y-55459333D01*
X187738095Y-55364095D01*
X187880952Y-56506952D02*
X187833333Y-56411714D01*
X187785714Y-56364095D01*
X187690476Y-56316476D01*
X187642857Y-56316476D01*
X187547619Y-56364095D01*
X187500000Y-56411714D01*
X187452380Y-56506952D01*
X187452380Y-56697428D01*
X187500000Y-56792666D01*
X187547619Y-56840285D01*
X187642857Y-56887904D01*
X187690476Y-56887904D01*
X187785714Y-56840285D01*
X187833333Y-56792666D01*
X187880952Y-56697428D01*
X187880952Y-56506952D01*
X187928571Y-56411714D01*
X187976190Y-56364095D01*
X188071428Y-56316476D01*
X188261904Y-56316476D01*
X188357142Y-56364095D01*
X188404761Y-56411714D01*
X188452380Y-56506952D01*
X188452380Y-56697428D01*
X188404761Y-56792666D01*
X188357142Y-56840285D01*
X188261904Y-56887904D01*
X188071428Y-56887904D01*
X187976190Y-56840285D01*
X187928571Y-56792666D01*
X187880952Y-56697428D01*
X245602380Y-116133714D02*
X244602380Y-116133714D01*
X244602380Y-116371809D01*
X244650000Y-116514666D01*
X244745238Y-116609904D01*
X244840476Y-116657523D01*
X245030952Y-116705142D01*
X245173809Y-116705142D01*
X245364285Y-116657523D01*
X245459523Y-116609904D01*
X245554761Y-116514666D01*
X245602380Y-116371809D01*
X245602380Y-116133714D01*
X244602380Y-117038476D02*
X244602380Y-117657523D01*
X244983333Y-117324190D01*
X244983333Y-117467047D01*
X245030952Y-117562285D01*
X245078571Y-117609904D01*
X245173809Y-117657523D01*
X245411904Y-117657523D01*
X245507142Y-117609904D01*
X245554761Y-117562285D01*
X245602380Y-117467047D01*
X245602380Y-117181333D01*
X245554761Y-117086095D01*
X245507142Y-117038476D01*
X245602380Y-118609904D02*
X245602380Y-118038476D01*
X245602380Y-118324190D02*
X244602380Y-118324190D01*
X244745238Y-118228952D01*
X244840476Y-118133714D01*
X244888095Y-118038476D01*
X378444380Y-180395714D02*
X377444380Y-180395714D01*
X377444380Y-180633809D01*
X377492000Y-180776666D01*
X377587238Y-180871904D01*
X377682476Y-180919523D01*
X377872952Y-180967142D01*
X378015809Y-180967142D01*
X378206285Y-180919523D01*
X378301523Y-180871904D01*
X378396761Y-180776666D01*
X378444380Y-180633809D01*
X378444380Y-180395714D01*
X377444380Y-181871904D02*
X377444380Y-181395714D01*
X377920571Y-181348095D01*
X377872952Y-181395714D01*
X377825333Y-181490952D01*
X377825333Y-181729047D01*
X377872952Y-181824285D01*
X377920571Y-181871904D01*
X378015809Y-181919523D01*
X378253904Y-181919523D01*
X378349142Y-181871904D01*
X378396761Y-181824285D01*
X378444380Y-181729047D01*
X378444380Y-181490952D01*
X378396761Y-181395714D01*
X378349142Y-181348095D01*
X377444380Y-182824285D02*
X377444380Y-182348095D01*
X377920571Y-182300476D01*
X377872952Y-182348095D01*
X377825333Y-182443333D01*
X377825333Y-182681428D01*
X377872952Y-182776666D01*
X377920571Y-182824285D01*
X378015809Y-182871904D01*
X378253904Y-182871904D01*
X378349142Y-182824285D01*
X378396761Y-182776666D01*
X378444380Y-182681428D01*
X378444380Y-182443333D01*
X378396761Y-182348095D01*
X378349142Y-182300476D01*
X169402380Y-116133714D02*
X168402380Y-116133714D01*
X168402380Y-116371809D01*
X168450000Y-116514666D01*
X168545238Y-116609904D01*
X168640476Y-116657523D01*
X168830952Y-116705142D01*
X168973809Y-116705142D01*
X169164285Y-116657523D01*
X169259523Y-116609904D01*
X169354761Y-116514666D01*
X169402380Y-116371809D01*
X169402380Y-116133714D01*
X168497619Y-117086095D02*
X168450000Y-117133714D01*
X168402380Y-117228952D01*
X168402380Y-117467047D01*
X168450000Y-117562285D01*
X168497619Y-117609904D01*
X168592857Y-117657523D01*
X168688095Y-117657523D01*
X168830952Y-117609904D01*
X169402380Y-117038476D01*
X169402380Y-117657523D01*
X168402380Y-118276571D02*
X168402380Y-118371809D01*
X168450000Y-118467047D01*
X168497619Y-118514666D01*
X168592857Y-118562285D01*
X168783333Y-118609904D01*
X169021428Y-118609904D01*
X169211904Y-118562285D01*
X169307142Y-118514666D01*
X169354761Y-118467047D01*
X169402380Y-118371809D01*
X169402380Y-118276571D01*
X169354761Y-118181333D01*
X169307142Y-118133714D01*
X169211904Y-118086095D01*
X169021428Y-118038476D01*
X168783333Y-118038476D01*
X168592857Y-118086095D01*
X168497619Y-118133714D01*
X168450000Y-118181333D01*
X168402380Y-118276571D01*
X250428380Y-54411714D02*
X249428380Y-54411714D01*
X249428380Y-54649809D01*
X249476000Y-54792666D01*
X249571238Y-54887904D01*
X249666476Y-54935523D01*
X249856952Y-54983142D01*
X249999809Y-54983142D01*
X250190285Y-54935523D01*
X250285523Y-54887904D01*
X250380761Y-54792666D01*
X250428380Y-54649809D01*
X250428380Y-54411714D01*
X249523619Y-55364095D02*
X249476000Y-55411714D01*
X249428380Y-55506952D01*
X249428380Y-55745047D01*
X249476000Y-55840285D01*
X249523619Y-55887904D01*
X249618857Y-55935523D01*
X249714095Y-55935523D01*
X249856952Y-55887904D01*
X250428380Y-55316476D01*
X250428380Y-55935523D01*
X249428380Y-56268857D02*
X249428380Y-56887904D01*
X249809333Y-56554571D01*
X249809333Y-56697428D01*
X249856952Y-56792666D01*
X249904571Y-56840285D01*
X249999809Y-56887904D01*
X250237904Y-56887904D01*
X250333142Y-56840285D01*
X250380761Y-56792666D01*
X250428380Y-56697428D01*
X250428380Y-56411714D01*
X250380761Y-56316476D01*
X250333142Y-56268857D01*
X359394380Y-54411714D02*
X358394380Y-54411714D01*
X358394380Y-54649809D01*
X358442000Y-54792666D01*
X358537238Y-54887904D01*
X358632476Y-54935523D01*
X358822952Y-54983142D01*
X358965809Y-54983142D01*
X359156285Y-54935523D01*
X359251523Y-54887904D01*
X359346761Y-54792666D01*
X359394380Y-54649809D01*
X359394380Y-54411714D01*
X358394380Y-55316476D02*
X358394380Y-55935523D01*
X358775333Y-55602190D01*
X358775333Y-55745047D01*
X358822952Y-55840285D01*
X358870571Y-55887904D01*
X358965809Y-55935523D01*
X359203904Y-55935523D01*
X359299142Y-55887904D01*
X359346761Y-55840285D01*
X359394380Y-55745047D01*
X359394380Y-55459333D01*
X359346761Y-55364095D01*
X359299142Y-55316476D01*
X359394380Y-56411714D02*
X359394380Y-56602190D01*
X359346761Y-56697428D01*
X359299142Y-56745047D01*
X359156285Y-56840285D01*
X358965809Y-56887904D01*
X358584857Y-56887904D01*
X358489619Y-56840285D01*
X358442000Y-56792666D01*
X358394380Y-56697428D01*
X358394380Y-56506952D01*
X358442000Y-56411714D01*
X358489619Y-56364095D01*
X358584857Y-56316476D01*
X358822952Y-56316476D01*
X358918190Y-56364095D01*
X358965809Y-56411714D01*
X359013428Y-56506952D01*
X359013428Y-56697428D01*
X358965809Y-56792666D01*
X358918190Y-56840285D01*
X358822952Y-56887904D01*
X293100380Y-95559714D02*
X292100380Y-95559714D01*
X292100380Y-95797809D01*
X292148000Y-95940666D01*
X292243238Y-96035904D01*
X292338476Y-96083523D01*
X292528952Y-96131142D01*
X292671809Y-96131142D01*
X292862285Y-96083523D01*
X292957523Y-96035904D01*
X293052761Y-95940666D01*
X293100380Y-95797809D01*
X293100380Y-95559714D01*
X292100380Y-96464476D02*
X292100380Y-97083523D01*
X292481333Y-96750190D01*
X292481333Y-96893047D01*
X292528952Y-96988285D01*
X292576571Y-97035904D01*
X292671809Y-97083523D01*
X292909904Y-97083523D01*
X293005142Y-97035904D01*
X293052761Y-96988285D01*
X293100380Y-96893047D01*
X293100380Y-96607333D01*
X293052761Y-96512095D01*
X293005142Y-96464476D01*
X292100380Y-97988285D02*
X292100380Y-97512095D01*
X292576571Y-97464476D01*
X292528952Y-97512095D01*
X292481333Y-97607333D01*
X292481333Y-97845428D01*
X292528952Y-97940666D01*
X292576571Y-97988285D01*
X292671809Y-98035904D01*
X292909904Y-98035904D01*
X293005142Y-97988285D01*
X293052761Y-97940666D01*
X293100380Y-97845428D01*
X293100380Y-97607333D01*
X293052761Y-97512095D01*
X293005142Y-97464476D01*
X299958380Y-157281714D02*
X298958380Y-157281714D01*
X298958380Y-157519809D01*
X299006000Y-157662666D01*
X299101238Y-157757904D01*
X299196476Y-157805523D01*
X299386952Y-157853142D01*
X299529809Y-157853142D01*
X299720285Y-157805523D01*
X299815523Y-157757904D01*
X299910761Y-157662666D01*
X299958380Y-157519809D01*
X299958380Y-157281714D01*
X298958380Y-158186476D02*
X298958380Y-158805523D01*
X299339333Y-158472190D01*
X299339333Y-158615047D01*
X299386952Y-158710285D01*
X299434571Y-158757904D01*
X299529809Y-158805523D01*
X299767904Y-158805523D01*
X299863142Y-158757904D01*
X299910761Y-158710285D01*
X299958380Y-158615047D01*
X299958380Y-158329333D01*
X299910761Y-158234095D01*
X299863142Y-158186476D01*
X299386952Y-159376952D02*
X299339333Y-159281714D01*
X299291714Y-159234095D01*
X299196476Y-159186476D01*
X299148857Y-159186476D01*
X299053619Y-159234095D01*
X299006000Y-159281714D01*
X298958380Y-159376952D01*
X298958380Y-159567428D01*
X299006000Y-159662666D01*
X299053619Y-159710285D01*
X299148857Y-159757904D01*
X299196476Y-159757904D01*
X299291714Y-159710285D01*
X299339333Y-159662666D01*
X299386952Y-159567428D01*
X299386952Y-159376952D01*
X299434571Y-159281714D01*
X299482190Y-159234095D01*
X299577428Y-159186476D01*
X299767904Y-159186476D01*
X299863142Y-159234095D01*
X299910761Y-159281714D01*
X299958380Y-159376952D01*
X299958380Y-159567428D01*
X299910761Y-159662666D01*
X299863142Y-159710285D01*
X299767904Y-159757904D01*
X299577428Y-159757904D01*
X299482190Y-159710285D01*
X299434571Y-159662666D01*
X299386952Y-159567428D01*
X385048380Y-161345714D02*
X384048380Y-161345714D01*
X384048380Y-161583809D01*
X384096000Y-161726666D01*
X384191238Y-161821904D01*
X384286476Y-161869523D01*
X384476952Y-161917142D01*
X384619809Y-161917142D01*
X384810285Y-161869523D01*
X384905523Y-161821904D01*
X385000761Y-161726666D01*
X385048380Y-161583809D01*
X385048380Y-161345714D01*
X384381714Y-162774285D02*
X385048380Y-162774285D01*
X384000761Y-162536190D02*
X384715047Y-162298095D01*
X384715047Y-162917142D01*
X384476952Y-163440952D02*
X384429333Y-163345714D01*
X384381714Y-163298095D01*
X384286476Y-163250476D01*
X384238857Y-163250476D01*
X384143619Y-163298095D01*
X384096000Y-163345714D01*
X384048380Y-163440952D01*
X384048380Y-163631428D01*
X384096000Y-163726666D01*
X384143619Y-163774285D01*
X384238857Y-163821904D01*
X384286476Y-163821904D01*
X384381714Y-163774285D01*
X384429333Y-163726666D01*
X384476952Y-163631428D01*
X384476952Y-163440952D01*
X384524571Y-163345714D01*
X384572190Y-163298095D01*
X384667428Y-163250476D01*
X384857904Y-163250476D01*
X384953142Y-163298095D01*
X385000761Y-163345714D01*
X385048380Y-163440952D01*
X385048380Y-163631428D01*
X385000761Y-163726666D01*
X384953142Y-163774285D01*
X384857904Y-163821904D01*
X384667428Y-163821904D01*
X384572190Y-163774285D01*
X384524571Y-163726666D01*
X384476952Y-163631428D01*
X102854380Y-54887904D02*
X101854380Y-54887904D01*
X101854380Y-55126000D01*
X101902000Y-55268857D01*
X101997238Y-55364095D01*
X102092476Y-55411714D01*
X102282952Y-55459333D01*
X102425809Y-55459333D01*
X102616285Y-55411714D01*
X102711523Y-55364095D01*
X102806761Y-55268857D01*
X102854380Y-55126000D01*
X102854380Y-54887904D01*
X101854380Y-55792666D02*
X101854380Y-56459333D01*
X102854380Y-56030761D01*
X91170380Y-159059714D02*
X90170380Y-159059714D01*
X90170380Y-159297809D01*
X90218000Y-159440666D01*
X90313238Y-159535904D01*
X90408476Y-159583523D01*
X90598952Y-159631142D01*
X90741809Y-159631142D01*
X90932285Y-159583523D01*
X91027523Y-159535904D01*
X91122761Y-159440666D01*
X91170380Y-159297809D01*
X91170380Y-159059714D01*
X91170380Y-160583523D02*
X91170380Y-160012095D01*
X91170380Y-160297809D02*
X90170380Y-160297809D01*
X90313238Y-160202571D01*
X90408476Y-160107333D01*
X90456095Y-160012095D01*
X91170380Y-161535904D02*
X91170380Y-160964476D01*
X91170380Y-161250190D02*
X90170380Y-161250190D01*
X90313238Y-161154952D01*
X90408476Y-161059714D01*
X90456095Y-160964476D01*
X160004380Y-95559714D02*
X159004380Y-95559714D01*
X159004380Y-95797809D01*
X159052000Y-95940666D01*
X159147238Y-96035904D01*
X159242476Y-96083523D01*
X159432952Y-96131142D01*
X159575809Y-96131142D01*
X159766285Y-96083523D01*
X159861523Y-96035904D01*
X159956761Y-95940666D01*
X160004380Y-95797809D01*
X160004380Y-95559714D01*
X160004380Y-97083523D02*
X160004380Y-96512095D01*
X160004380Y-96797809D02*
X159004380Y-96797809D01*
X159147238Y-96702571D01*
X159242476Y-96607333D01*
X159290095Y-96512095D01*
X160004380Y-97559714D02*
X160004380Y-97750190D01*
X159956761Y-97845428D01*
X159909142Y-97893047D01*
X159766285Y-97988285D01*
X159575809Y-98035904D01*
X159194857Y-98035904D01*
X159099619Y-97988285D01*
X159052000Y-97940666D01*
X159004380Y-97845428D01*
X159004380Y-97654952D01*
X159052000Y-97559714D01*
X159099619Y-97512095D01*
X159194857Y-97464476D01*
X159432952Y-97464476D01*
X159528190Y-97512095D01*
X159575809Y-97559714D01*
X159623428Y-97654952D01*
X159623428Y-97845428D01*
X159575809Y-97940666D01*
X159528190Y-97988285D01*
X159432952Y-98035904D01*
X274304380Y-54411714D02*
X273304380Y-54411714D01*
X273304380Y-54649809D01*
X273352000Y-54792666D01*
X273447238Y-54887904D01*
X273542476Y-54935523D01*
X273732952Y-54983142D01*
X273875809Y-54983142D01*
X274066285Y-54935523D01*
X274161523Y-54887904D01*
X274256761Y-54792666D01*
X274304380Y-54649809D01*
X274304380Y-54411714D01*
X273399619Y-55364095D02*
X273352000Y-55411714D01*
X273304380Y-55506952D01*
X273304380Y-55745047D01*
X273352000Y-55840285D01*
X273399619Y-55887904D01*
X273494857Y-55935523D01*
X273590095Y-55935523D01*
X273732952Y-55887904D01*
X274304380Y-55316476D01*
X274304380Y-55935523D01*
X274304380Y-56411714D02*
X274304380Y-56602190D01*
X274256761Y-56697428D01*
X274209142Y-56745047D01*
X274066285Y-56840285D01*
X273875809Y-56887904D01*
X273494857Y-56887904D01*
X273399619Y-56840285D01*
X273352000Y-56792666D01*
X273304380Y-56697428D01*
X273304380Y-56506952D01*
X273352000Y-56411714D01*
X273399619Y-56364095D01*
X273494857Y-56316476D01*
X273732952Y-56316476D01*
X273828190Y-56364095D01*
X273875809Y-56411714D01*
X273923428Y-56506952D01*
X273923428Y-56697428D01*
X273875809Y-56792666D01*
X273828190Y-56840285D01*
X273732952Y-56887904D01*
X399018380Y-166679714D02*
X398018380Y-166679714D01*
X398018380Y-166917809D01*
X398066000Y-167060666D01*
X398161238Y-167155904D01*
X398256476Y-167203523D01*
X398446952Y-167251142D01*
X398589809Y-167251142D01*
X398780285Y-167203523D01*
X398875523Y-167155904D01*
X398970761Y-167060666D01*
X399018380Y-166917809D01*
X399018380Y-166679714D01*
X398018380Y-168155904D02*
X398018380Y-167679714D01*
X398494571Y-167632095D01*
X398446952Y-167679714D01*
X398399333Y-167774952D01*
X398399333Y-168013047D01*
X398446952Y-168108285D01*
X398494571Y-168155904D01*
X398589809Y-168203523D01*
X398827904Y-168203523D01*
X398923142Y-168155904D01*
X398970761Y-168108285D01*
X399018380Y-168013047D01*
X399018380Y-167774952D01*
X398970761Y-167679714D01*
X398923142Y-167632095D01*
X398351714Y-169060666D02*
X399018380Y-169060666D01*
X397970761Y-168822571D02*
X398685047Y-168584476D01*
X398685047Y-169203523D01*
X70596380Y-178331904D02*
X69596380Y-178331904D01*
X69596380Y-178570000D01*
X69644000Y-178712857D01*
X69739238Y-178808095D01*
X69834476Y-178855714D01*
X70024952Y-178903333D01*
X70167809Y-178903333D01*
X70358285Y-178855714D01*
X70453523Y-178808095D01*
X70548761Y-178712857D01*
X70596380Y-178570000D01*
X70596380Y-178331904D01*
X69596380Y-179760476D02*
X69596380Y-179570000D01*
X69644000Y-179474761D01*
X69691619Y-179427142D01*
X69834476Y-179331904D01*
X70024952Y-179284285D01*
X70405904Y-179284285D01*
X70501142Y-179331904D01*
X70548761Y-179379523D01*
X70596380Y-179474761D01*
X70596380Y-179665238D01*
X70548761Y-179760476D01*
X70501142Y-179808095D01*
X70405904Y-179855714D01*
X70167809Y-179855714D01*
X70072571Y-179808095D01*
X70024952Y-179760476D01*
X69977333Y-179665238D01*
X69977333Y-179474761D01*
X70024952Y-179379523D01*
X70072571Y-179331904D01*
X70167809Y-179284285D01*
X444484380Y-157281714D02*
X443484380Y-157281714D01*
X443484380Y-157519809D01*
X443532000Y-157662666D01*
X443627238Y-157757904D01*
X443722476Y-157805523D01*
X443912952Y-157853142D01*
X444055809Y-157853142D01*
X444246285Y-157805523D01*
X444341523Y-157757904D01*
X444436761Y-157662666D01*
X444484380Y-157519809D01*
X444484380Y-157281714D01*
X443484380Y-158757904D02*
X443484380Y-158281714D01*
X443960571Y-158234095D01*
X443912952Y-158281714D01*
X443865333Y-158376952D01*
X443865333Y-158615047D01*
X443912952Y-158710285D01*
X443960571Y-158757904D01*
X444055809Y-158805523D01*
X444293904Y-158805523D01*
X444389142Y-158757904D01*
X444436761Y-158710285D01*
X444484380Y-158615047D01*
X444484380Y-158376952D01*
X444436761Y-158281714D01*
X444389142Y-158234095D01*
X443484380Y-159138857D02*
X443484380Y-159757904D01*
X443865333Y-159424571D01*
X443865333Y-159567428D01*
X443912952Y-159662666D01*
X443960571Y-159710285D01*
X444055809Y-159757904D01*
X444293904Y-159757904D01*
X444389142Y-159710285D01*
X444436761Y-159662666D01*
X444484380Y-159567428D01*
X444484380Y-159281714D01*
X444436761Y-159186476D01*
X444389142Y-159138857D01*
X74152380Y-116609904D02*
X73152380Y-116609904D01*
X73152380Y-116848000D01*
X73200000Y-116990857D01*
X73295238Y-117086095D01*
X73390476Y-117133714D01*
X73580952Y-117181333D01*
X73723809Y-117181333D01*
X73914285Y-117133714D01*
X74009523Y-117086095D01*
X74104761Y-116990857D01*
X74152380Y-116848000D01*
X74152380Y-116609904D01*
X73152380Y-117514666D02*
X73152380Y-118133714D01*
X73533333Y-117800380D01*
X73533333Y-117943238D01*
X73580952Y-118038476D01*
X73628571Y-118086095D01*
X73723809Y-118133714D01*
X73961904Y-118133714D01*
X74057142Y-118086095D01*
X74104761Y-118038476D01*
X74152380Y-117943238D01*
X74152380Y-117657523D01*
X74104761Y-117562285D01*
X74057142Y-117514666D01*
X164830380Y-54411714D02*
X163830380Y-54411714D01*
X163830380Y-54649809D01*
X163878000Y-54792666D01*
X163973238Y-54887904D01*
X164068476Y-54935523D01*
X164258952Y-54983142D01*
X164401809Y-54983142D01*
X164592285Y-54935523D01*
X164687523Y-54887904D01*
X164782761Y-54792666D01*
X164830380Y-54649809D01*
X164830380Y-54411714D01*
X164830380Y-55935523D02*
X164830380Y-55364095D01*
X164830380Y-55649809D02*
X163830380Y-55649809D01*
X163973238Y-55554571D01*
X164068476Y-55459333D01*
X164116095Y-55364095D01*
X163925619Y-56316476D02*
X163878000Y-56364095D01*
X163830380Y-56459333D01*
X163830380Y-56697428D01*
X163878000Y-56792666D01*
X163925619Y-56840285D01*
X164020857Y-56887904D01*
X164116095Y-56887904D01*
X164258952Y-56840285D01*
X164830380Y-56268857D01*
X164830380Y-56887904D01*
X164576380Y-157281714D02*
X163576380Y-157281714D01*
X163576380Y-157519809D01*
X163624000Y-157662666D01*
X163719238Y-157757904D01*
X163814476Y-157805523D01*
X164004952Y-157853142D01*
X164147809Y-157853142D01*
X164338285Y-157805523D01*
X164433523Y-157757904D01*
X164528761Y-157662666D01*
X164576380Y-157519809D01*
X164576380Y-157281714D01*
X163671619Y-158234095D02*
X163624000Y-158281714D01*
X163576380Y-158376952D01*
X163576380Y-158615047D01*
X163624000Y-158710285D01*
X163671619Y-158757904D01*
X163766857Y-158805523D01*
X163862095Y-158805523D01*
X164004952Y-158757904D01*
X164576380Y-158186476D01*
X164576380Y-158805523D01*
X163671619Y-159186476D02*
X163624000Y-159234095D01*
X163576380Y-159329333D01*
X163576380Y-159567428D01*
X163624000Y-159662666D01*
X163671619Y-159710285D01*
X163766857Y-159757904D01*
X163862095Y-159757904D01*
X164004952Y-159710285D01*
X164576380Y-159138857D01*
X164576380Y-159757904D01*
X302752380Y-116133714D02*
X301752380Y-116133714D01*
X301752380Y-116371809D01*
X301800000Y-116514666D01*
X301895238Y-116609904D01*
X301990476Y-116657523D01*
X302180952Y-116705142D01*
X302323809Y-116705142D01*
X302514285Y-116657523D01*
X302609523Y-116609904D01*
X302704761Y-116514666D01*
X302752380Y-116371809D01*
X302752380Y-116133714D01*
X301752380Y-117038476D02*
X301752380Y-117657523D01*
X302133333Y-117324190D01*
X302133333Y-117467047D01*
X302180952Y-117562285D01*
X302228571Y-117609904D01*
X302323809Y-117657523D01*
X302561904Y-117657523D01*
X302657142Y-117609904D01*
X302704761Y-117562285D01*
X302752380Y-117467047D01*
X302752380Y-117181333D01*
X302704761Y-117086095D01*
X302657142Y-117038476D01*
X301752380Y-118514666D02*
X301752380Y-118324190D01*
X301800000Y-118228952D01*
X301847619Y-118181333D01*
X301990476Y-118086095D01*
X302180952Y-118038476D01*
X302561904Y-118038476D01*
X302657142Y-118086095D01*
X302704761Y-118133714D01*
X302752380Y-118228952D01*
X302752380Y-118419428D01*
X302704761Y-118514666D01*
X302657142Y-118562285D01*
X302561904Y-118609904D01*
X302323809Y-118609904D01*
X302228571Y-118562285D01*
X302180952Y-118514666D01*
X302133333Y-118419428D01*
X302133333Y-118228952D01*
X302180952Y-118133714D01*
X302228571Y-118086095D01*
X302323809Y-118038476D01*
X176768380Y-177601714D02*
X175768380Y-177601714D01*
X175768380Y-177839809D01*
X175816000Y-177982666D01*
X175911238Y-178077904D01*
X176006476Y-178125523D01*
X176196952Y-178173142D01*
X176339809Y-178173142D01*
X176530285Y-178125523D01*
X176625523Y-178077904D01*
X176720761Y-177982666D01*
X176768380Y-177839809D01*
X176768380Y-177601714D01*
X176768380Y-179125523D02*
X176768380Y-178554095D01*
X176768380Y-178839809D02*
X175768380Y-178839809D01*
X175911238Y-178744571D01*
X176006476Y-178649333D01*
X176054095Y-178554095D01*
X175768380Y-179458857D02*
X175768380Y-180125523D01*
X176768380Y-179696952D01*
X255254380Y-177855714D02*
X254254380Y-177855714D01*
X254254380Y-178093809D01*
X254302000Y-178236666D01*
X254397238Y-178331904D01*
X254492476Y-178379523D01*
X254682952Y-178427142D01*
X254825809Y-178427142D01*
X255016285Y-178379523D01*
X255111523Y-178331904D01*
X255206761Y-178236666D01*
X255254380Y-178093809D01*
X255254380Y-177855714D01*
X254349619Y-178808095D02*
X254302000Y-178855714D01*
X254254380Y-178950952D01*
X254254380Y-179189047D01*
X254302000Y-179284285D01*
X254349619Y-179331904D01*
X254444857Y-179379523D01*
X254540095Y-179379523D01*
X254682952Y-179331904D01*
X255254380Y-178760476D01*
X255254380Y-179379523D01*
X254682952Y-179950952D02*
X254635333Y-179855714D01*
X254587714Y-179808095D01*
X254492476Y-179760476D01*
X254444857Y-179760476D01*
X254349619Y-179808095D01*
X254302000Y-179855714D01*
X254254380Y-179950952D01*
X254254380Y-180141428D01*
X254302000Y-180236666D01*
X254349619Y-180284285D01*
X254444857Y-180331904D01*
X254492476Y-180331904D01*
X254587714Y-180284285D01*
X254635333Y-180236666D01*
X254682952Y-180141428D01*
X254682952Y-179950952D01*
X254730571Y-179855714D01*
X254778190Y-179808095D01*
X254873428Y-179760476D01*
X255063904Y-179760476D01*
X255159142Y-179808095D01*
X255206761Y-179855714D01*
X255254380Y-179950952D01*
X255254380Y-180141428D01*
X255206761Y-180236666D01*
X255159142Y-180284285D01*
X255063904Y-180331904D01*
X254873428Y-180331904D01*
X254778190Y-180284285D01*
X254730571Y-180236666D01*
X254682952Y-180141428D01*
X312404380Y-98607714D02*
X311404380Y-98607714D01*
X311404380Y-98845809D01*
X311452000Y-98988666D01*
X311547238Y-99083904D01*
X311642476Y-99131523D01*
X311832952Y-99179142D01*
X311975809Y-99179142D01*
X312166285Y-99131523D01*
X312261523Y-99083904D01*
X312356761Y-98988666D01*
X312404380Y-98845809D01*
X312404380Y-98607714D01*
X311737714Y-100036285D02*
X312404380Y-100036285D01*
X311356761Y-99798190D02*
X312071047Y-99560095D01*
X312071047Y-100179142D01*
X311404380Y-100750571D02*
X311404380Y-100845809D01*
X311452000Y-100941047D01*
X311499619Y-100988666D01*
X311594857Y-101036285D01*
X311785333Y-101083904D01*
X312023428Y-101083904D01*
X312213904Y-101036285D01*
X312309142Y-100988666D01*
X312356761Y-100941047D01*
X312404380Y-100845809D01*
X312404380Y-100750571D01*
X312356761Y-100655333D01*
X312309142Y-100607714D01*
X312213904Y-100560095D01*
X312023428Y-100512476D01*
X311785333Y-100512476D01*
X311594857Y-100560095D01*
X311499619Y-100607714D01*
X311452000Y-100655333D01*
X311404380Y-100750571D01*
X444484380Y-136707714D02*
X443484380Y-136707714D01*
X443484380Y-136945809D01*
X443532000Y-137088666D01*
X443627238Y-137183904D01*
X443722476Y-137231523D01*
X443912952Y-137279142D01*
X444055809Y-137279142D01*
X444246285Y-137231523D01*
X444341523Y-137183904D01*
X444436761Y-137088666D01*
X444484380Y-136945809D01*
X444484380Y-136707714D01*
X443484380Y-138183904D02*
X443484380Y-137707714D01*
X443960571Y-137660095D01*
X443912952Y-137707714D01*
X443865333Y-137802952D01*
X443865333Y-138041047D01*
X443912952Y-138136285D01*
X443960571Y-138183904D01*
X444055809Y-138231523D01*
X444293904Y-138231523D01*
X444389142Y-138183904D01*
X444436761Y-138136285D01*
X444484380Y-138041047D01*
X444484380Y-137802952D01*
X444436761Y-137707714D01*
X444389142Y-137660095D01*
X443579619Y-138612476D02*
X443532000Y-138660095D01*
X443484380Y-138755333D01*
X443484380Y-138993428D01*
X443532000Y-139088666D01*
X443579619Y-139136285D01*
X443674857Y-139183904D01*
X443770095Y-139183904D01*
X443912952Y-139136285D01*
X444484380Y-138564857D01*
X444484380Y-139183904D01*
X155178380Y-136707714D02*
X154178380Y-136707714D01*
X154178380Y-136945809D01*
X154226000Y-137088666D01*
X154321238Y-137183904D01*
X154416476Y-137231523D01*
X154606952Y-137279142D01*
X154749809Y-137279142D01*
X154940285Y-137231523D01*
X155035523Y-137183904D01*
X155130761Y-137088666D01*
X155178380Y-136945809D01*
X155178380Y-136707714D01*
X155178380Y-138231523D02*
X155178380Y-137660095D01*
X155178380Y-137945809D02*
X154178380Y-137945809D01*
X154321238Y-137850571D01*
X154416476Y-137755333D01*
X154464095Y-137660095D01*
X154178380Y-139136285D02*
X154178380Y-138660095D01*
X154654571Y-138612476D01*
X154606952Y-138660095D01*
X154559333Y-138755333D01*
X154559333Y-138993428D01*
X154606952Y-139088666D01*
X154654571Y-139136285D01*
X154749809Y-139183904D01*
X154987904Y-139183904D01*
X155083142Y-139136285D01*
X155130761Y-139088666D01*
X155178380Y-138993428D01*
X155178380Y-138755333D01*
X155130761Y-138660095D01*
X155083142Y-138612476D01*
X74152380Y-137183904D02*
X73152380Y-137183904D01*
X73152380Y-137422000D01*
X73200000Y-137564857D01*
X73295238Y-137660095D01*
X73390476Y-137707714D01*
X73580952Y-137755333D01*
X73723809Y-137755333D01*
X73914285Y-137707714D01*
X74009523Y-137660095D01*
X74104761Y-137564857D01*
X74152380Y-137422000D01*
X74152380Y-137183904D01*
X73485714Y-138612476D02*
X74152380Y-138612476D01*
X73104761Y-138374380D02*
X73819047Y-138136285D01*
X73819047Y-138755333D01*
X425434380Y-116133714D02*
X424434380Y-116133714D01*
X424434380Y-116371809D01*
X424482000Y-116514666D01*
X424577238Y-116609904D01*
X424672476Y-116657523D01*
X424862952Y-116705142D01*
X425005809Y-116705142D01*
X425196285Y-116657523D01*
X425291523Y-116609904D01*
X425386761Y-116514666D01*
X425434380Y-116371809D01*
X425434380Y-116133714D01*
X424767714Y-117562285D02*
X425434380Y-117562285D01*
X424386761Y-117324190D02*
X425101047Y-117086095D01*
X425101047Y-117705142D01*
X424434380Y-118562285D02*
X424434380Y-118086095D01*
X424910571Y-118038476D01*
X424862952Y-118086095D01*
X424815333Y-118181333D01*
X424815333Y-118419428D01*
X424862952Y-118514666D01*
X424910571Y-118562285D01*
X425005809Y-118609904D01*
X425243904Y-118609904D01*
X425339142Y-118562285D01*
X425386761Y-118514666D01*
X425434380Y-118419428D01*
X425434380Y-118181333D01*
X425386761Y-118086095D01*
X425339142Y-118038476D01*
X335772380Y-54411714D02*
X334772380Y-54411714D01*
X334772380Y-54649809D01*
X334820000Y-54792666D01*
X334915238Y-54887904D01*
X335010476Y-54935523D01*
X335200952Y-54983142D01*
X335343809Y-54983142D01*
X335534285Y-54935523D01*
X335629523Y-54887904D01*
X335724761Y-54792666D01*
X335772380Y-54649809D01*
X335772380Y-54411714D01*
X334772380Y-55316476D02*
X334772380Y-55935523D01*
X335153333Y-55602190D01*
X335153333Y-55745047D01*
X335200952Y-55840285D01*
X335248571Y-55887904D01*
X335343809Y-55935523D01*
X335581904Y-55935523D01*
X335677142Y-55887904D01*
X335724761Y-55840285D01*
X335772380Y-55745047D01*
X335772380Y-55459333D01*
X335724761Y-55364095D01*
X335677142Y-55316476D01*
X335105714Y-56792666D02*
X335772380Y-56792666D01*
X334724761Y-56554571D02*
X335439047Y-56316476D01*
X335439047Y-56935523D01*
X336280380Y-135183714D02*
X335280380Y-135183714D01*
X335280380Y-135421809D01*
X335328000Y-135564666D01*
X335423238Y-135659904D01*
X335518476Y-135707523D01*
X335708952Y-135755142D01*
X335851809Y-135755142D01*
X336042285Y-135707523D01*
X336137523Y-135659904D01*
X336232761Y-135564666D01*
X336280380Y-135421809D01*
X336280380Y-135183714D01*
X335613714Y-136612285D02*
X336280380Y-136612285D01*
X335232761Y-136374190D02*
X335947047Y-136136095D01*
X335947047Y-136755142D01*
X335375619Y-137088476D02*
X335328000Y-137136095D01*
X335280380Y-137231333D01*
X335280380Y-137469428D01*
X335328000Y-137564666D01*
X335375619Y-137612285D01*
X335470857Y-137659904D01*
X335566095Y-137659904D01*
X335708952Y-137612285D01*
X336280380Y-137040857D01*
X336280380Y-137659904D01*
X240776380Y-157281714D02*
X239776380Y-157281714D01*
X239776380Y-157519809D01*
X239824000Y-157662666D01*
X239919238Y-157757904D01*
X240014476Y-157805523D01*
X240204952Y-157853142D01*
X240347809Y-157853142D01*
X240538285Y-157805523D01*
X240633523Y-157757904D01*
X240728761Y-157662666D01*
X240776380Y-157519809D01*
X240776380Y-157281714D01*
X239776380Y-158186476D02*
X239776380Y-158805523D01*
X240157333Y-158472190D01*
X240157333Y-158615047D01*
X240204952Y-158710285D01*
X240252571Y-158757904D01*
X240347809Y-158805523D01*
X240585904Y-158805523D01*
X240681142Y-158757904D01*
X240728761Y-158710285D01*
X240776380Y-158615047D01*
X240776380Y-158329333D01*
X240728761Y-158234095D01*
X240681142Y-158186476D01*
X239776380Y-159138857D02*
X239776380Y-159757904D01*
X240157333Y-159424571D01*
X240157333Y-159567428D01*
X240204952Y-159662666D01*
X240252571Y-159710285D01*
X240347809Y-159757904D01*
X240585904Y-159757904D01*
X240681142Y-159710285D01*
X240728761Y-159662666D01*
X240776380Y-159567428D01*
X240776380Y-159281714D01*
X240728761Y-159186476D01*
X240681142Y-159138857D01*
X226552380Y-116133714D02*
X225552380Y-116133714D01*
X225552380Y-116371809D01*
X225600000Y-116514666D01*
X225695238Y-116609904D01*
X225790476Y-116657523D01*
X225980952Y-116705142D01*
X226123809Y-116705142D01*
X226314285Y-116657523D01*
X226409523Y-116609904D01*
X226504761Y-116514666D01*
X226552380Y-116371809D01*
X226552380Y-116133714D01*
X225647619Y-117086095D02*
X225600000Y-117133714D01*
X225552380Y-117228952D01*
X225552380Y-117467047D01*
X225600000Y-117562285D01*
X225647619Y-117609904D01*
X225742857Y-117657523D01*
X225838095Y-117657523D01*
X225980952Y-117609904D01*
X226552380Y-117038476D01*
X226552380Y-117657523D01*
X225552380Y-118562285D02*
X225552380Y-118086095D01*
X226028571Y-118038476D01*
X225980952Y-118086095D01*
X225933333Y-118181333D01*
X225933333Y-118419428D01*
X225980952Y-118514666D01*
X226028571Y-118562285D01*
X226123809Y-118609904D01*
X226361904Y-118609904D01*
X226457142Y-118562285D01*
X226504761Y-118514666D01*
X226552380Y-118419428D01*
X226552380Y-118181333D01*
X226504761Y-118086095D01*
X226457142Y-118038476D01*
X336280380Y-116133714D02*
X335280380Y-116133714D01*
X335280380Y-116371809D01*
X335328000Y-116514666D01*
X335423238Y-116609904D01*
X335518476Y-116657523D01*
X335708952Y-116705142D01*
X335851809Y-116705142D01*
X336042285Y-116657523D01*
X336137523Y-116609904D01*
X336232761Y-116514666D01*
X336280380Y-116371809D01*
X336280380Y-116133714D01*
X335613714Y-117562285D02*
X336280380Y-117562285D01*
X335232761Y-117324190D02*
X335947047Y-117086095D01*
X335947047Y-117705142D01*
X336280380Y-118609904D02*
X336280380Y-118038476D01*
X336280380Y-118324190D02*
X335280380Y-118324190D01*
X335423238Y-118228952D01*
X335518476Y-118133714D01*
X335566095Y-118038476D01*
X444484380Y-95559714D02*
X443484380Y-95559714D01*
X443484380Y-95797809D01*
X443532000Y-95940666D01*
X443627238Y-96035904D01*
X443722476Y-96083523D01*
X443912952Y-96131142D01*
X444055809Y-96131142D01*
X444246285Y-96083523D01*
X444341523Y-96035904D01*
X444436761Y-95940666D01*
X444484380Y-95797809D01*
X444484380Y-95559714D01*
X443484380Y-97035904D02*
X443484380Y-96559714D01*
X443960571Y-96512095D01*
X443912952Y-96559714D01*
X443865333Y-96654952D01*
X443865333Y-96893047D01*
X443912952Y-96988285D01*
X443960571Y-97035904D01*
X444055809Y-97083523D01*
X444293904Y-97083523D01*
X444389142Y-97035904D01*
X444436761Y-96988285D01*
X444484380Y-96893047D01*
X444484380Y-96654952D01*
X444436761Y-96559714D01*
X444389142Y-96512095D01*
X443484380Y-97702571D02*
X443484380Y-97797809D01*
X443532000Y-97893047D01*
X443579619Y-97940666D01*
X443674857Y-97988285D01*
X443865333Y-98035904D01*
X444103428Y-98035904D01*
X444293904Y-97988285D01*
X444389142Y-97940666D01*
X444436761Y-97893047D01*
X444484380Y-97797809D01*
X444484380Y-97702571D01*
X444436761Y-97607333D01*
X444389142Y-97559714D01*
X444293904Y-97512095D01*
X444103428Y-97464476D01*
X443865333Y-97464476D01*
X443674857Y-97512095D01*
X443579619Y-97559714D01*
X443532000Y-97607333D01*
X443484380Y-97702571D01*
X359394380Y-177855714D02*
X358394380Y-177855714D01*
X358394380Y-178093809D01*
X358442000Y-178236666D01*
X358537238Y-178331904D01*
X358632476Y-178379523D01*
X358822952Y-178427142D01*
X358965809Y-178427142D01*
X359156285Y-178379523D01*
X359251523Y-178331904D01*
X359346761Y-178236666D01*
X359394380Y-178093809D01*
X359394380Y-177855714D01*
X358727714Y-179284285D02*
X359394380Y-179284285D01*
X358346761Y-179046190D02*
X359061047Y-178808095D01*
X359061047Y-179427142D01*
X359394380Y-179855714D02*
X359394380Y-180046190D01*
X359346761Y-180141428D01*
X359299142Y-180189047D01*
X359156285Y-180284285D01*
X358965809Y-180331904D01*
X358584857Y-180331904D01*
X358489619Y-180284285D01*
X358442000Y-180236666D01*
X358394380Y-180141428D01*
X358394380Y-179950952D01*
X358442000Y-179855714D01*
X358489619Y-179808095D01*
X358584857Y-179760476D01*
X358822952Y-179760476D01*
X358918190Y-179808095D01*
X358965809Y-179855714D01*
X359013428Y-179950952D01*
X359013428Y-180141428D01*
X358965809Y-180236666D01*
X358918190Y-180284285D01*
X358822952Y-180331904D01*
X425434380Y-157281714D02*
X424434380Y-157281714D01*
X424434380Y-157519809D01*
X424482000Y-157662666D01*
X424577238Y-157757904D01*
X424672476Y-157805523D01*
X424862952Y-157853142D01*
X425005809Y-157853142D01*
X425196285Y-157805523D01*
X425291523Y-157757904D01*
X425386761Y-157662666D01*
X425434380Y-157519809D01*
X425434380Y-157281714D01*
X424767714Y-158710285D02*
X425434380Y-158710285D01*
X424386761Y-158472190D02*
X425101047Y-158234095D01*
X425101047Y-158853142D01*
X424434380Y-159138857D02*
X424434380Y-159805523D01*
X425434380Y-159376952D01*
X98028380Y-136707714D02*
X97028380Y-136707714D01*
X97028380Y-136945809D01*
X97076000Y-137088666D01*
X97171238Y-137183904D01*
X97266476Y-137231523D01*
X97456952Y-137279142D01*
X97599809Y-137279142D01*
X97790285Y-137231523D01*
X97885523Y-137183904D01*
X97980761Y-137088666D01*
X98028380Y-136945809D01*
X98028380Y-136707714D01*
X98028380Y-138231523D02*
X98028380Y-137660095D01*
X98028380Y-137945809D02*
X97028380Y-137945809D01*
X97171238Y-137850571D01*
X97266476Y-137755333D01*
X97314095Y-137660095D01*
X97028380Y-138850571D02*
X97028380Y-138945809D01*
X97076000Y-139041047D01*
X97123619Y-139088666D01*
X97218857Y-139136285D01*
X97409333Y-139183904D01*
X97647428Y-139183904D01*
X97837904Y-139136285D01*
X97933142Y-139088666D01*
X97980761Y-139041047D01*
X98028380Y-138945809D01*
X98028380Y-138850571D01*
X97980761Y-138755333D01*
X97933142Y-138707714D01*
X97837904Y-138660095D01*
X97647428Y-138612476D01*
X97409333Y-138612476D01*
X97218857Y-138660095D01*
X97123619Y-138707714D01*
X97076000Y-138755333D01*
X97028380Y-138850571D01*
X309102380Y-138739714D02*
X308102380Y-138739714D01*
X308102380Y-138977809D01*
X308150000Y-139120666D01*
X308245238Y-139215904D01*
X308340476Y-139263523D01*
X308530952Y-139311142D01*
X308673809Y-139311142D01*
X308864285Y-139263523D01*
X308959523Y-139215904D01*
X309054761Y-139120666D01*
X309102380Y-138977809D01*
X309102380Y-138739714D01*
X308102380Y-139644476D02*
X308102380Y-140263523D01*
X308483333Y-139930190D01*
X308483333Y-140073047D01*
X308530952Y-140168285D01*
X308578571Y-140215904D01*
X308673809Y-140263523D01*
X308911904Y-140263523D01*
X309007142Y-140215904D01*
X309054761Y-140168285D01*
X309102380Y-140073047D01*
X309102380Y-139787333D01*
X309054761Y-139692095D01*
X309007142Y-139644476D01*
X308102380Y-140596857D02*
X308102380Y-141263523D01*
X309102380Y-140834952D01*
X336280380Y-156519714D02*
X335280380Y-156519714D01*
X335280380Y-156757809D01*
X335328000Y-156900666D01*
X335423238Y-156995904D01*
X335518476Y-157043523D01*
X335708952Y-157091142D01*
X335851809Y-157091142D01*
X336042285Y-157043523D01*
X336137523Y-156995904D01*
X336232761Y-156900666D01*
X336280380Y-156757809D01*
X336280380Y-156519714D01*
X335613714Y-157948285D02*
X336280380Y-157948285D01*
X335232761Y-157710190D02*
X335947047Y-157472095D01*
X335947047Y-158091142D01*
X335280380Y-158376857D02*
X335280380Y-158995904D01*
X335661333Y-158662571D01*
X335661333Y-158805428D01*
X335708952Y-158900666D01*
X335756571Y-158948285D01*
X335851809Y-158995904D01*
X336089904Y-158995904D01*
X336185142Y-158948285D01*
X336232761Y-158900666D01*
X336280380Y-158805428D01*
X336280380Y-158519714D01*
X336232761Y-158424476D01*
X336185142Y-158376857D01*
X236204380Y-95559714D02*
X235204380Y-95559714D01*
X235204380Y-95797809D01*
X235252000Y-95940666D01*
X235347238Y-96035904D01*
X235442476Y-96083523D01*
X235632952Y-96131142D01*
X235775809Y-96131142D01*
X235966285Y-96083523D01*
X236061523Y-96035904D01*
X236156761Y-95940666D01*
X236204380Y-95797809D01*
X236204380Y-95559714D01*
X235204380Y-96464476D02*
X235204380Y-97083523D01*
X235585333Y-96750190D01*
X235585333Y-96893047D01*
X235632952Y-96988285D01*
X235680571Y-97035904D01*
X235775809Y-97083523D01*
X236013904Y-97083523D01*
X236109142Y-97035904D01*
X236156761Y-96988285D01*
X236204380Y-96893047D01*
X236204380Y-96607333D01*
X236156761Y-96512095D01*
X236109142Y-96464476D01*
X235204380Y-97702571D02*
X235204380Y-97797809D01*
X235252000Y-97893047D01*
X235299619Y-97940666D01*
X235394857Y-97988285D01*
X235585333Y-98035904D01*
X235823428Y-98035904D01*
X236013904Y-97988285D01*
X236109142Y-97940666D01*
X236156761Y-97893047D01*
X236204380Y-97797809D01*
X236204380Y-97702571D01*
X236156761Y-97607333D01*
X236109142Y-97559714D01*
X236013904Y-97512095D01*
X235823428Y-97464476D01*
X235585333Y-97464476D01*
X235394857Y-97512095D01*
X235299619Y-97559714D01*
X235252000Y-97607333D01*
X235204380Y-97702571D01*
X425434380Y-95559714D02*
X424434380Y-95559714D01*
X424434380Y-95797809D01*
X424482000Y-95940666D01*
X424577238Y-96035904D01*
X424672476Y-96083523D01*
X424862952Y-96131142D01*
X425005809Y-96131142D01*
X425196285Y-96083523D01*
X425291523Y-96035904D01*
X425386761Y-95940666D01*
X425434380Y-95797809D01*
X425434380Y-95559714D01*
X424767714Y-96988285D02*
X425434380Y-96988285D01*
X424386761Y-96750190D02*
X425101047Y-96512095D01*
X425101047Y-97131142D01*
X424767714Y-97940666D02*
X425434380Y-97940666D01*
X424386761Y-97702571D02*
X425101047Y-97464476D01*
X425101047Y-98083523D01*
X425434380Y-136707714D02*
X424434380Y-136707714D01*
X424434380Y-136945809D01*
X424482000Y-137088666D01*
X424577238Y-137183904D01*
X424672476Y-137231523D01*
X424862952Y-137279142D01*
X425005809Y-137279142D01*
X425196285Y-137231523D01*
X425291523Y-137183904D01*
X425386761Y-137088666D01*
X425434380Y-136945809D01*
X425434380Y-136707714D01*
X424767714Y-138136285D02*
X425434380Y-138136285D01*
X424386761Y-137898190D02*
X425101047Y-137660095D01*
X425101047Y-138279142D01*
X424434380Y-139088666D02*
X424434380Y-138898190D01*
X424482000Y-138802952D01*
X424529619Y-138755333D01*
X424672476Y-138660095D01*
X424862952Y-138612476D01*
X425243904Y-138612476D01*
X425339142Y-138660095D01*
X425386761Y-138707714D01*
X425434380Y-138802952D01*
X425434380Y-138993428D01*
X425386761Y-139088666D01*
X425339142Y-139136285D01*
X425243904Y-139183904D01*
X425005809Y-139183904D01*
X424910571Y-139136285D01*
X424862952Y-139088666D01*
X424815333Y-138993428D01*
X424815333Y-138802952D01*
X424862952Y-138707714D01*
X424910571Y-138660095D01*
X425005809Y-138612476D01*
X68310380Y-161313904D02*
X67310380Y-161313904D01*
X67310380Y-161552000D01*
X67358000Y-161694857D01*
X67453238Y-161790095D01*
X67548476Y-161837714D01*
X67738952Y-161885333D01*
X67881809Y-161885333D01*
X68072285Y-161837714D01*
X68167523Y-161790095D01*
X68262761Y-161694857D01*
X68310380Y-161552000D01*
X68310380Y-161313904D01*
X67310380Y-162790095D02*
X67310380Y-162313904D01*
X67786571Y-162266285D01*
X67738952Y-162313904D01*
X67691333Y-162409142D01*
X67691333Y-162647238D01*
X67738952Y-162742476D01*
X67786571Y-162790095D01*
X67881809Y-162837714D01*
X68119904Y-162837714D01*
X68215142Y-162790095D01*
X68262761Y-162742476D01*
X68310380Y-162647238D01*
X68310380Y-162409142D01*
X68262761Y-162313904D01*
X68215142Y-162266285D01*
X174228380Y-136707714D02*
X173228380Y-136707714D01*
X173228380Y-136945809D01*
X173276000Y-137088666D01*
X173371238Y-137183904D01*
X173466476Y-137231523D01*
X173656952Y-137279142D01*
X173799809Y-137279142D01*
X173990285Y-137231523D01*
X174085523Y-137183904D01*
X174180761Y-137088666D01*
X174228380Y-136945809D01*
X174228380Y-136707714D01*
X173323619Y-137660095D02*
X173276000Y-137707714D01*
X173228380Y-137802952D01*
X173228380Y-138041047D01*
X173276000Y-138136285D01*
X173323619Y-138183904D01*
X173418857Y-138231523D01*
X173514095Y-138231523D01*
X173656952Y-138183904D01*
X174228380Y-137612476D01*
X174228380Y-138231523D01*
X174228380Y-139183904D02*
X174228380Y-138612476D01*
X174228380Y-138898190D02*
X173228380Y-138898190D01*
X173371238Y-138802952D01*
X173466476Y-138707714D01*
X173514095Y-138612476D01*
X74152380Y-54887904D02*
X73152380Y-54887904D01*
X73152380Y-55126000D01*
X73200000Y-55268857D01*
X73295238Y-55364095D01*
X73390476Y-55411714D01*
X73580952Y-55459333D01*
X73723809Y-55459333D01*
X73914285Y-55411714D01*
X74009523Y-55364095D01*
X74104761Y-55268857D01*
X74152380Y-55126000D01*
X74152380Y-54887904D01*
X74152380Y-56411714D02*
X74152380Y-55840285D01*
X74152380Y-56126000D02*
X73152380Y-56126000D01*
X73295238Y-56030761D01*
X73390476Y-55935523D01*
X73438095Y-55840285D01*
X442282000Y-63754000D02*
X438218000Y-63754000D01*
X438218000Y-62230000D02*
X442282000Y-62230000D01*
X437710000Y-64008000D02*
X437456000Y-63754000D01*
X442282000Y-62230000D02*
X442536000Y-61976000D01*
X443044000Y-62230000D02*
X443044000Y-63754000D01*
X442790000Y-61976000D02*
X443044000Y-62230000D01*
X442536000Y-64008000D02*
X442282000Y-63754000D01*
X438218000Y-63754000D02*
X437964000Y-64008000D01*
X437964000Y-61976000D02*
X438218000Y-62230000D01*
X443044000Y-62992000D02*
X443552000Y-62992000D01*
X442790000Y-64008000D02*
X442536000Y-64008000D01*
X442536000Y-61976000D02*
X442790000Y-61976000D01*
X437456000Y-62230000D02*
X437710000Y-61976000D01*
X436948000Y-62992000D02*
X437456000Y-62992000D01*
X437456000Y-63754000D02*
X437456000Y-62230000D01*
X437964000Y-64008000D02*
X437710000Y-64008000D01*
X443044000Y-63754000D02*
X442790000Y-64008000D01*
X437710000Y-61976000D02*
X437964000Y-61976000D01*
X59944000Y-142748000D02*
X59690000Y-143002000D01*
X64770000Y-141986000D02*
X65278000Y-141986000D01*
X64516000Y-140970000D02*
X64770000Y-141224000D01*
X64262000Y-140970000D02*
X64516000Y-140970000D01*
X59436000Y-140970000D02*
X59690000Y-140970000D01*
X64516000Y-143002000D02*
X64262000Y-143002000D01*
X64008000Y-141224000D02*
X64262000Y-140970000D01*
X59182000Y-141224000D02*
X59436000Y-140970000D01*
X64770000Y-141224000D02*
X64770000Y-142748000D01*
X58674000Y-141986000D02*
X59182000Y-141986000D01*
X59436000Y-143002000D02*
X59182000Y-142748000D01*
X59690000Y-143002000D02*
X59436000Y-143002000D01*
X59944000Y-141224000D02*
X64008000Y-141224000D01*
X64770000Y-142748000D02*
X64516000Y-143002000D01*
X59690000Y-140970000D02*
X59944000Y-141224000D01*
X59182000Y-142748000D02*
X59182000Y-141224000D01*
X64262000Y-143002000D02*
X64008000Y-142748000D01*
X64008000Y-142748000D02*
X59944000Y-142748000D01*
X373627500Y-61722000D02*
X373627500Y-63246000D01*
X368293500Y-61468000D02*
X368547500Y-61468000D01*
X373373500Y-63500000D02*
X373119500Y-63500000D01*
X373373500Y-61468000D02*
X373627500Y-61722000D01*
X373627500Y-62484000D02*
X374135500Y-62484000D01*
X368293500Y-63500000D02*
X368039500Y-63246000D01*
X373627500Y-63246000D02*
X373373500Y-63500000D01*
X367531500Y-62484000D02*
X368039500Y-62484000D01*
X368547500Y-61468000D02*
X368801500Y-61722000D01*
X368801500Y-61722000D02*
X372865500Y-61722000D01*
X368801500Y-63246000D02*
X368547500Y-63500000D01*
X372865500Y-61722000D02*
X373119500Y-61468000D01*
X373119500Y-61468000D02*
X373373500Y-61468000D01*
X373119500Y-63500000D02*
X372865500Y-63246000D01*
X368039500Y-63246000D02*
X368039500Y-61722000D01*
X372865500Y-63246000D02*
X368801500Y-63246000D01*
X368039500Y-61722000D02*
X368293500Y-61468000D01*
X368547500Y-63500000D02*
X368293500Y-63500000D01*
X467850000Y-64008000D02*
X467596000Y-64008000D01*
X467596000Y-61976000D02*
X467850000Y-61976000D01*
X467342000Y-62230000D02*
X467596000Y-61976000D01*
X463024000Y-61976000D02*
X463278000Y-62230000D01*
X468104000Y-63754000D02*
X467850000Y-64008000D01*
X463278000Y-63754000D02*
X463024000Y-64008000D01*
X463024000Y-64008000D02*
X462770000Y-64008000D01*
X462008000Y-62992000D02*
X462516000Y-62992000D01*
X463278000Y-62230000D02*
X467342000Y-62230000D01*
X467596000Y-64008000D02*
X467342000Y-63754000D01*
X462516000Y-63754000D02*
X462516000Y-62230000D01*
X467342000Y-63754000D02*
X463278000Y-63754000D01*
X468104000Y-62230000D02*
X468104000Y-63754000D01*
X468104000Y-62992000D02*
X468612000Y-62992000D01*
X462770000Y-64008000D02*
X462516000Y-63754000D01*
X467850000Y-61976000D02*
X468104000Y-62230000D01*
X462770000Y-61976000D02*
X463024000Y-61976000D01*
X462516000Y-62230000D02*
X462770000Y-61976000D01*
X414515000Y-100838000D02*
X415023000Y-100838000D01*
X415277000Y-99822000D02*
X415531000Y-99822000D01*
X420611000Y-101600000D02*
X420357000Y-101854000D01*
X420611000Y-100838000D02*
X421119000Y-100838000D01*
X415785000Y-100076000D02*
X419849000Y-100076000D01*
X420103000Y-99822000D02*
X420357000Y-99822000D01*
X419849000Y-101600000D02*
X415785000Y-101600000D01*
X420357000Y-99822000D02*
X420611000Y-100076000D01*
X420103000Y-101854000D02*
X419849000Y-101600000D01*
X415531000Y-101854000D02*
X415277000Y-101854000D01*
X420611000Y-100076000D02*
X420611000Y-101600000D01*
X419849000Y-100076000D02*
X420103000Y-99822000D01*
X415023000Y-101600000D02*
X415023000Y-100076000D01*
X415277000Y-101854000D02*
X415023000Y-101600000D01*
X420357000Y-101854000D02*
X420103000Y-101854000D01*
X415531000Y-99822000D02*
X415785000Y-100076000D01*
X415785000Y-101600000D02*
X415531000Y-101854000D01*
X415023000Y-100076000D02*
X415277000Y-99822000D01*
X418134000Y-62992000D02*
X418642000Y-62992000D01*
X413054000Y-61976000D02*
X413308000Y-62230000D01*
X418134000Y-63754000D02*
X417880000Y-64008000D01*
X412800000Y-64008000D02*
X412546000Y-63754000D01*
X413308000Y-63754000D02*
X413054000Y-64008000D01*
X412038000Y-62992000D02*
X412546000Y-62992000D01*
X413054000Y-64008000D02*
X412800000Y-64008000D01*
X412546000Y-62230000D02*
X412800000Y-61976000D01*
X412800000Y-61976000D02*
X413054000Y-61976000D01*
X417372000Y-62230000D02*
X417626000Y-61976000D01*
X417880000Y-64008000D02*
X417626000Y-64008000D01*
X417626000Y-64008000D02*
X417372000Y-63754000D01*
X417626000Y-61976000D02*
X417880000Y-61976000D01*
X417880000Y-61976000D02*
X418134000Y-62230000D01*
X412546000Y-63754000D02*
X412546000Y-62230000D01*
X418134000Y-62230000D02*
X418134000Y-63754000D01*
X413308000Y-62230000D02*
X417372000Y-62230000D01*
X417372000Y-63754000D02*
X413308000Y-63754000D01*
D11*
X153980000Y-118108000D02*
X153050000Y-118108000D01*
X150820000Y-118108000D02*
X150820000Y-114948000D01*
X150820000Y-118108000D02*
X151750000Y-118108000D01*
X153980000Y-118108000D02*
X153980000Y-116648000D01*
X217622000Y-97534000D02*
X218552000Y-97534000D01*
X220782000Y-97534000D02*
X219852000Y-97534000D01*
X217622000Y-97534000D02*
X217622000Y-94374000D01*
X220782000Y-97534000D02*
X220782000Y-96074000D01*
X222194000Y-159256000D02*
X223124000Y-159256000D01*
X225354000Y-159256000D02*
X224424000Y-159256000D01*
X222194000Y-159256000D02*
X222194000Y-156096000D01*
X225354000Y-159256000D02*
X225354000Y-157796000D01*
X250896000Y-138682000D02*
X251826000Y-138682000D01*
X250896000Y-138682000D02*
X250896000Y-135522000D01*
X254056000Y-138682000D02*
X253126000Y-138682000D01*
X254056000Y-138682000D02*
X254056000Y-137222000D01*
X141422000Y-97534000D02*
X141422000Y-94374000D01*
X141422000Y-97534000D02*
X142352000Y-97534000D01*
X144582000Y-97534000D02*
X144582000Y-96074000D01*
X144582000Y-97534000D02*
X143652000Y-97534000D01*
X84272000Y-97534000D02*
X85202000Y-97534000D01*
X87432000Y-97534000D02*
X86502000Y-97534000D01*
X87432000Y-97534000D02*
X87432000Y-96074000D01*
X84272000Y-97534000D02*
X84272000Y-94374000D01*
X93670000Y-118108000D02*
X93670000Y-114948000D01*
X93670000Y-118108000D02*
X94600000Y-118108000D01*
X96830000Y-118108000D02*
X96830000Y-116648000D01*
X96830000Y-118108000D02*
X95900000Y-118108000D01*
X235006000Y-138682000D02*
X234076000Y-138682000D01*
X231846000Y-138682000D02*
X231846000Y-135522000D01*
X231846000Y-138682000D02*
X232776000Y-138682000D01*
X235006000Y-138682000D02*
X235006000Y-137222000D01*
X65222000Y-97534000D02*
X65222000Y-94374000D01*
X68382000Y-97534000D02*
X68382000Y-96074000D01*
X68382000Y-97534000D02*
X67452000Y-97534000D01*
X65222000Y-97534000D02*
X66152000Y-97534000D01*
X149154000Y-159256000D02*
X149154000Y-157796000D01*
X145994000Y-159256000D02*
X145994000Y-156096000D01*
X149154000Y-159256000D02*
X148224000Y-159256000D01*
X145994000Y-159256000D02*
X146924000Y-159256000D01*
X444952000Y-118108000D02*
X444952000Y-114948000D01*
X448112000Y-118108000D02*
X447182000Y-118108000D01*
X444952000Y-118108000D02*
X445882000Y-118108000D01*
X448112000Y-118108000D02*
X448112000Y-116648000D01*
X192080000Y-56386000D02*
X192080000Y-54926000D01*
X192080000Y-56386000D02*
X191150000Y-56386000D01*
X188920000Y-56386000D02*
X188920000Y-53226000D01*
X188920000Y-56386000D02*
X189850000Y-56386000D01*
X249230000Y-118108000D02*
X249230000Y-116648000D01*
X246070000Y-118108000D02*
X247000000Y-118108000D01*
X249230000Y-118108000D02*
X248300000Y-118108000D01*
X246070000Y-118108000D02*
X246070000Y-114948000D01*
X378912000Y-182370000D02*
X378912000Y-179210000D01*
X378912000Y-182370000D02*
X379842000Y-182370000D01*
X382072000Y-182370000D02*
X381142000Y-182370000D01*
X382072000Y-182370000D02*
X382072000Y-180910000D01*
X173030000Y-118108000D02*
X173030000Y-116648000D01*
X169870000Y-118108000D02*
X170800000Y-118108000D01*
X173030000Y-118108000D02*
X172100000Y-118108000D01*
X169870000Y-118108000D02*
X169870000Y-114948000D01*
X254056000Y-56386000D02*
X253126000Y-56386000D01*
X250896000Y-56386000D02*
X251826000Y-56386000D01*
X250896000Y-56386000D02*
X250896000Y-53226000D01*
X254056000Y-56386000D02*
X254056000Y-54926000D01*
X363022000Y-56386000D02*
X363022000Y-54926000D01*
X359862000Y-56386000D02*
X359862000Y-53226000D01*
X359862000Y-56386000D02*
X360792000Y-56386000D01*
X363022000Y-56386000D02*
X362092000Y-56386000D01*
X293568000Y-97534000D02*
X293568000Y-94374000D01*
X293568000Y-97534000D02*
X294498000Y-97534000D01*
X296728000Y-97534000D02*
X296728000Y-96074000D01*
X296728000Y-97534000D02*
X295798000Y-97534000D01*
X300426000Y-159256000D02*
X301356000Y-159256000D01*
X300426000Y-159256000D02*
X300426000Y-156096000D01*
X303586000Y-159256000D02*
X302656000Y-159256000D01*
X303586000Y-159256000D02*
X303586000Y-157796000D01*
X385516000Y-163320000D02*
X385516000Y-160160000D01*
X388676000Y-163320000D02*
X388676000Y-161860000D01*
X388676000Y-163320000D02*
X387746000Y-163320000D01*
X385516000Y-163320000D02*
X386446000Y-163320000D01*
X103322000Y-56386000D02*
X103322000Y-53226000D01*
X106482000Y-56386000D02*
X105552000Y-56386000D01*
X103322000Y-56386000D02*
X104252000Y-56386000D01*
X106482000Y-56386000D02*
X106482000Y-54926000D01*
X94798000Y-161034000D02*
X94798000Y-159574000D01*
X91638000Y-161034000D02*
X91638000Y-157874000D01*
X91638000Y-161034000D02*
X92568000Y-161034000D01*
X94798000Y-161034000D02*
X93868000Y-161034000D01*
X160472000Y-97534000D02*
X160472000Y-94374000D01*
X160472000Y-97534000D02*
X161402000Y-97534000D01*
X163632000Y-97534000D02*
X162702000Y-97534000D01*
X163632000Y-97534000D02*
X163632000Y-96074000D01*
X277932000Y-56386000D02*
X277002000Y-56386000D01*
X277932000Y-56386000D02*
X277932000Y-54926000D01*
X274772000Y-56386000D02*
X275702000Y-56386000D01*
X274772000Y-56386000D02*
X274772000Y-53226000D01*
X402646000Y-168654000D02*
X401716000Y-168654000D01*
X399486000Y-168654000D02*
X400416000Y-168654000D01*
X402646000Y-168654000D02*
X402646000Y-167194000D01*
X399486000Y-168654000D02*
X399486000Y-165494000D01*
X71064000Y-179830000D02*
X71064000Y-176670000D01*
X74224000Y-179830000D02*
X73294000Y-179830000D01*
X74224000Y-179830000D02*
X74224000Y-178370000D01*
X71064000Y-179830000D02*
X71994000Y-179830000D01*
X444952000Y-159256000D02*
X445882000Y-159256000D01*
X448112000Y-159256000D02*
X448112000Y-157796000D01*
X448112000Y-159256000D02*
X447182000Y-159256000D01*
X444952000Y-159256000D02*
X444952000Y-156096000D01*
X74620000Y-118108000D02*
X75550000Y-118108000D01*
X77780000Y-118108000D02*
X76850000Y-118108000D01*
X74620000Y-118108000D02*
X74620000Y-114948000D01*
X77780000Y-118108000D02*
X77780000Y-116648000D01*
X168458000Y-56386000D02*
X167528000Y-56386000D01*
X165298000Y-56386000D02*
X166228000Y-56386000D01*
X165298000Y-56386000D02*
X165298000Y-53226000D01*
X168458000Y-56386000D02*
X168458000Y-54926000D01*
X168204000Y-159256000D02*
X168204000Y-157796000D01*
X165044000Y-159256000D02*
X165974000Y-159256000D01*
X165044000Y-159256000D02*
X165044000Y-156096000D01*
X168204000Y-159256000D02*
X167274000Y-159256000D01*
X306380000Y-118108000D02*
X306380000Y-116648000D01*
X303220000Y-118108000D02*
X304150000Y-118108000D01*
X303220000Y-118108000D02*
X303220000Y-114948000D01*
X306380000Y-118108000D02*
X305450000Y-118108000D01*
X180396000Y-179576000D02*
X179466000Y-179576000D01*
X180396000Y-179576000D02*
X180396000Y-178116000D01*
X177236000Y-179576000D02*
X178166000Y-179576000D01*
X177236000Y-179576000D02*
X177236000Y-176416000D01*
X258882000Y-179830000D02*
X258882000Y-178370000D01*
X255722000Y-179830000D02*
X255722000Y-176670000D01*
X258882000Y-179830000D02*
X257952000Y-179830000D01*
X255722000Y-179830000D02*
X256652000Y-179830000D01*
X316032000Y-100582000D02*
X316032000Y-99122000D01*
X316032000Y-100582000D02*
X315102000Y-100582000D01*
X312872000Y-100582000D02*
X312872000Y-97422000D01*
X312872000Y-100582000D02*
X313802000Y-100582000D01*
X444952000Y-138682000D02*
X444952000Y-135522000D01*
X448112000Y-138682000D02*
X447182000Y-138682000D01*
X448112000Y-138682000D02*
X448112000Y-137222000D01*
X444952000Y-138682000D02*
X445882000Y-138682000D01*
X158806000Y-138682000D02*
X157876000Y-138682000D01*
X155646000Y-138682000D02*
X156576000Y-138682000D01*
X158806000Y-138682000D02*
X158806000Y-137222000D01*
X155646000Y-138682000D02*
X155646000Y-135522000D01*
X77780000Y-138682000D02*
X76850000Y-138682000D01*
X77780000Y-138682000D02*
X77780000Y-137222000D01*
X74620000Y-138682000D02*
X75550000Y-138682000D01*
X74620000Y-138682000D02*
X74620000Y-135522000D01*
X425902000Y-118108000D02*
X426832000Y-118108000D01*
X425902000Y-118108000D02*
X425902000Y-114948000D01*
X429062000Y-118108000D02*
X428132000Y-118108000D01*
X429062000Y-118108000D02*
X429062000Y-116648000D01*
X336240000Y-56386000D02*
X336240000Y-53226000D01*
X339400000Y-56386000D02*
X339400000Y-54926000D01*
X339400000Y-56386000D02*
X338470000Y-56386000D01*
X336240000Y-56386000D02*
X337170000Y-56386000D01*
X336748000Y-137158000D02*
X336748000Y-133998000D01*
X339908000Y-137158000D02*
X339908000Y-135698000D01*
X336748000Y-137158000D02*
X337678000Y-137158000D01*
X339908000Y-137158000D02*
X338978000Y-137158000D01*
X241244000Y-159256000D02*
X242174000Y-159256000D01*
X241244000Y-159256000D02*
X241244000Y-156096000D01*
X244404000Y-159256000D02*
X244404000Y-157796000D01*
X244404000Y-159256000D02*
X243474000Y-159256000D01*
X230180000Y-118108000D02*
X230180000Y-116648000D01*
X227020000Y-118108000D02*
X227950000Y-118108000D01*
X227020000Y-118108000D02*
X227020000Y-114948000D01*
X230180000Y-118108000D02*
X229250000Y-118108000D01*
X339908000Y-118108000D02*
X338978000Y-118108000D01*
X336748000Y-118108000D02*
X337678000Y-118108000D01*
X339908000Y-118108000D02*
X339908000Y-116648000D01*
X336748000Y-118108000D02*
X336748000Y-114948000D01*
X444952000Y-97534000D02*
X444952000Y-94374000D01*
X448112000Y-97534000D02*
X448112000Y-96074000D01*
X448112000Y-97534000D02*
X447182000Y-97534000D01*
X444952000Y-97534000D02*
X445882000Y-97534000D01*
X363022000Y-179830000D02*
X363022000Y-178370000D01*
X359862000Y-179830000D02*
X359862000Y-176670000D01*
X363022000Y-179830000D02*
X362092000Y-179830000D01*
X359862000Y-179830000D02*
X360792000Y-179830000D01*
X425902000Y-159256000D02*
X425902000Y-156096000D01*
X429062000Y-159256000D02*
X428132000Y-159256000D01*
X429062000Y-159256000D02*
X429062000Y-157796000D01*
X425902000Y-159256000D02*
X426832000Y-159256000D01*
X101656000Y-138682000D02*
X101656000Y-137222000D01*
X98496000Y-138682000D02*
X98496000Y-135522000D01*
X101656000Y-138682000D02*
X100726000Y-138682000D01*
X98496000Y-138682000D02*
X99426000Y-138682000D01*
X312730000Y-140714000D02*
X311800000Y-140714000D01*
X309570000Y-140714000D02*
X310500000Y-140714000D01*
X309570000Y-140714000D02*
X309570000Y-137554000D01*
X312730000Y-140714000D02*
X312730000Y-139254000D01*
X336748000Y-158494000D02*
X337678000Y-158494000D01*
X339908000Y-158494000D02*
X339908000Y-157034000D01*
X336748000Y-158494000D02*
X336748000Y-155334000D01*
X339908000Y-158494000D02*
X338978000Y-158494000D01*
X239832000Y-97534000D02*
X238902000Y-97534000D01*
X239832000Y-97534000D02*
X239832000Y-96074000D01*
X236672000Y-97534000D02*
X236672000Y-94374000D01*
X236672000Y-97534000D02*
X237602000Y-97534000D01*
X429062000Y-97534000D02*
X428132000Y-97534000D01*
X425902000Y-97534000D02*
X425902000Y-94374000D01*
X425902000Y-97534000D02*
X426832000Y-97534000D01*
X429062000Y-97534000D02*
X429062000Y-96074000D01*
X429062000Y-138682000D02*
X429062000Y-137222000D01*
X429062000Y-138682000D02*
X428132000Y-138682000D01*
X425902000Y-138682000D02*
X426832000Y-138682000D01*
X425902000Y-138682000D02*
X425902000Y-135522000D01*
X68778000Y-162812000D02*
X68778000Y-159652000D01*
X71938000Y-162812000D02*
X71008000Y-162812000D01*
X71938000Y-162812000D02*
X71938000Y-161352000D01*
X68778000Y-162812000D02*
X69708000Y-162812000D01*
X174696000Y-138682000D02*
X174696000Y-135522000D01*
X177856000Y-138682000D02*
X176926000Y-138682000D01*
X177856000Y-138682000D02*
X177856000Y-137222000D01*
X174696000Y-138682000D02*
X175626000Y-138682000D01*
X74620000Y-56386000D02*
X75550000Y-56386000D01*
X77780000Y-56386000D02*
X76850000Y-56386000D01*
X77780000Y-56386000D02*
X77780000Y-54926000D01*
X74620000Y-56386000D02*
X74620000Y-53226000D01*
%LPC*%
D12*
X316706250Y-154200150D03*
D13*
X311626250Y-154200150D03*
D14*
X314166250Y-159280150D03*
D13*
X321786250Y-154200150D03*
D14*
X320516250Y-156740150D03*
D15*
X323791250Y-156740150D03*
X310864250Y-159280150D03*
D16*
X444150000Y-62992000D03*
D17*
X441600000Y-62992000D03*
D16*
X436350000Y-62992000D03*
D17*
X438900000Y-62992000D03*
D13*
X209867500Y-133640143D03*
D12*
X204787500Y-133640143D03*
D14*
X207327500Y-128560143D03*
D13*
X199707500Y-133640143D03*
D14*
X200977500Y-131100143D03*
D15*
X197702500Y-131100143D03*
X210629500Y-128560143D03*
D14*
X190500000Y-106330000D03*
X367023500Y-89980097D03*
D13*
X365753500Y-92520097D03*
X375913500Y-92520097D03*
D12*
X370833500Y-92520097D03*
D14*
X373373500Y-87440097D03*
D15*
X363748500Y-89980097D03*
X376675500Y-87440097D03*
D14*
X66680000Y-65300000D03*
D18*
X438975000Y-57900000D03*
D19*
X441515000Y-57900000D03*
D13*
X147320000Y-51400055D03*
D14*
X154940000Y-46320055D03*
D12*
X152400000Y-51400055D03*
D14*
X148590000Y-48860055D03*
D13*
X157480000Y-51400055D03*
D15*
X145315000Y-48860055D03*
X158242000Y-46320055D03*
D12*
X195262500Y-154200165D03*
D14*
X197802500Y-149120165D03*
D13*
X190182500Y-154200165D03*
X200342500Y-154200165D03*
D14*
X191452500Y-151660165D03*
D15*
X188177500Y-151660165D03*
X201104500Y-149120165D03*
D13*
X412737000Y-174760181D03*
X422897000Y-174760181D03*
D12*
X417817000Y-174760181D03*
D14*
X421627000Y-177300181D03*
X415277000Y-179840181D03*
D15*
X424902000Y-177300181D03*
X411975000Y-179840181D03*
D14*
X200190000Y-168330000D03*
D17*
X63326000Y-141986000D03*
D16*
X65876000Y-141986000D03*
X58076000Y-141986000D03*
D17*
X60626000Y-141986000D03*
D13*
X317023750Y-133640130D03*
D20*
X300005750Y-126655130D03*
D14*
X314483750Y-128560130D03*
D13*
X306863750Y-133640130D03*
D20*
X323881750Y-126655130D03*
D14*
X308133750Y-131100130D03*
D21*
X300005750Y-141895130D03*
D12*
X311943750Y-133640130D03*
D21*
X323881750Y-141895130D03*
D15*
X304858750Y-131100130D03*
X317785750Y-128560130D03*
D14*
X342260000Y-127280000D03*
X380360000Y-85690000D03*
D12*
X185737500Y-133640143D03*
D13*
X180657500Y-133640143D03*
D14*
X181927500Y-131100143D03*
D13*
X190817500Y-133640143D03*
D14*
X188277500Y-128560143D03*
D15*
X178652500Y-131100143D03*
X191579500Y-128560143D03*
D17*
X372183500Y-62484000D03*
D16*
X374733500Y-62484000D03*
X366933500Y-62484000D03*
D17*
X369483500Y-62484000D03*
D14*
X166690000Y-147640000D03*
D13*
X469887000Y-174760187D03*
D12*
X474967000Y-174760187D03*
D14*
X477507000Y-169680187D03*
D13*
X480047000Y-174760187D03*
D14*
X471157000Y-172220187D03*
D15*
X467882000Y-172220187D03*
X480809000Y-169680187D03*
D13*
X431787000Y-133640139D03*
D14*
X433057000Y-131100139D03*
D12*
X436867000Y-133640139D03*
D14*
X439407000Y-128560139D03*
D13*
X441947000Y-133640139D03*
D15*
X429782000Y-131100139D03*
X442709000Y-128560139D03*
D14*
X115252500Y-151660165D03*
D12*
X119062500Y-154200165D03*
D13*
X113982500Y-154200165D03*
D14*
X121602500Y-149120165D03*
D13*
X124142500Y-154200165D03*
D15*
X111977500Y-151660165D03*
X124904500Y-149120165D03*
D12*
X85725000Y-113080121D03*
D13*
X90805000Y-113080121D03*
D14*
X81915000Y-110540121D03*
D13*
X80645000Y-113080121D03*
D14*
X88265000Y-108000121D03*
D15*
X78640000Y-110540121D03*
X91567000Y-108000121D03*
D14*
X105727500Y-172220187D03*
D12*
X109537500Y-174760187D03*
D13*
X114617500Y-174760187D03*
D14*
X112077500Y-169680187D03*
D13*
X104457500Y-174760187D03*
D15*
X102452500Y-172220187D03*
X115379500Y-169680187D03*
D14*
X414007000Y-151660160D03*
X420357000Y-149120160D03*
D13*
X422897000Y-154200160D03*
D12*
X417817000Y-154200160D03*
D13*
X412737000Y-154200160D03*
D15*
X410732000Y-151660160D03*
X423659000Y-149120160D03*
D13*
X238442500Y-154200165D03*
X228282500Y-154200165D03*
D14*
X229552500Y-151660165D03*
X235902500Y-149120165D03*
D12*
X233362500Y-154200165D03*
D15*
X226277500Y-151660165D03*
X239204500Y-149120165D03*
D22*
X376433500Y-51400055D03*
X365233500Y-51400055D03*
D23*
X368333500Y-58900055D03*
D24*
X373333500Y-58900055D03*
X370833500Y-58900055D03*
X373333500Y-44400055D03*
X368333500Y-44400055D03*
D13*
X450837000Y-133640139D03*
D14*
X458457000Y-128560139D03*
D13*
X460997000Y-133640139D03*
D12*
X455917000Y-133640139D03*
D14*
X452107000Y-131100139D03*
D15*
X448832000Y-131100139D03*
X461759000Y-128560139D03*
D14*
X71596250Y-149120150D03*
D12*
X69056250Y-154200150D03*
D20*
X57118250Y-147215150D03*
D21*
X57118250Y-162455150D03*
D13*
X63976250Y-154200150D03*
X74136250Y-154200150D03*
D20*
X80994250Y-147215150D03*
D21*
X80994250Y-162455150D03*
D14*
X65246250Y-151660150D03*
D15*
X61971250Y-151660150D03*
X74898250Y-149120150D03*
D14*
X90870000Y-189180000D03*
X380360000Y-65090000D03*
X283700000Y-188980000D03*
D12*
X104775000Y-113080121D03*
D14*
X100965000Y-110540121D03*
X107315000Y-108000121D03*
D13*
X109855000Y-113080121D03*
X99695000Y-113080121D03*
D15*
X97690000Y-110540121D03*
X110617000Y-108000121D03*
D14*
X193040000Y-87440099D03*
X186690000Y-89980099D03*
D13*
X185420000Y-92520099D03*
X195580000Y-92520099D03*
D12*
X190500000Y-92520099D03*
D15*
X183415000Y-89980099D03*
X196342000Y-87440099D03*
D14*
X238210000Y-189010000D03*
D12*
X128587500Y-133640143D03*
D14*
X124777500Y-131100143D03*
D13*
X123507500Y-133640143D03*
X133667500Y-133640143D03*
D14*
X131127500Y-128560143D03*
D15*
X121502500Y-131100143D03*
X134429500Y-128560143D03*
D14*
X484610000Y-127460000D03*
D13*
X384803500Y-174760188D03*
X394963500Y-174760188D03*
D14*
X392423500Y-169680188D03*
D12*
X389883500Y-174760188D03*
D14*
X386073500Y-172220188D03*
D15*
X382798500Y-172220188D03*
X395725500Y-169680188D03*
D12*
X474967000Y-123360132D03*
D21*
X466712000Y-111422132D03*
D13*
X469887000Y-123360132D03*
D21*
X466712000Y-135298132D03*
D25*
X481952000Y-135298132D03*
D13*
X480047000Y-123360132D03*
D25*
X481952000Y-111422132D03*
D14*
X477507000Y-118280132D03*
X471157000Y-120820132D03*
D15*
X467882000Y-120820132D03*
X480809000Y-118280132D03*
D14*
X202565000Y-108000121D03*
D13*
X205105000Y-113080121D03*
D14*
X196215000Y-110540121D03*
D12*
X200025000Y-113080121D03*
D13*
X194945000Y-113080121D03*
D15*
X192940000Y-110540121D03*
X205867000Y-108000121D03*
D14*
X427350000Y-127400000D03*
X392423500Y-87440097D03*
D13*
X394963500Y-92520097D03*
D12*
X389883500Y-92520097D03*
D14*
X386073500Y-89980097D03*
D13*
X384803500Y-92520097D03*
D15*
X382798500Y-89980097D03*
X395725500Y-87440097D03*
D16*
X469210000Y-62992000D03*
D17*
X466660000Y-62992000D03*
D16*
X461410000Y-62992000D03*
D17*
X463960000Y-62992000D03*
D12*
X61912500Y-113080121D03*
D13*
X56832500Y-113080121D03*
D14*
X64452500Y-108000121D03*
X58102500Y-110540121D03*
D13*
X66992500Y-113080121D03*
D15*
X54827500Y-110540121D03*
X67754500Y-108000121D03*
D14*
X238130000Y-85660000D03*
D13*
X209232500Y-154200165D03*
D14*
X216852500Y-149120165D03*
D12*
X214312500Y-154200165D03*
D14*
X210502500Y-151660165D03*
D13*
X219392500Y-154200165D03*
D15*
X207227500Y-151660165D03*
X220154500Y-149120165D03*
D14*
X226377500Y-128560143D03*
D13*
X218757500Y-133640143D03*
X228917500Y-133640143D03*
D12*
X223837500Y-133640143D03*
D14*
X220027500Y-131100143D03*
D15*
X216752500Y-131100143D03*
X229679500Y-128560143D03*
D14*
X313320000Y-65040000D03*
X380360000Y-168380000D03*
X204800000Y-147580000D03*
X342260000Y-168330000D03*
X327660000Y-95060099D03*
D12*
X323850000Y-92520099D03*
D13*
X318770000Y-92520099D03*
X328930000Y-92520099D03*
D14*
X321310000Y-97600099D03*
D15*
X330935000Y-95060099D03*
X318008000Y-97600099D03*
D18*
X414065000Y-57880000D03*
D19*
X416605000Y-57880000D03*
D14*
X408280000Y-147700000D03*
D13*
X375913500Y-113080118D03*
X365753500Y-113080118D03*
D14*
X367023500Y-110540118D03*
D12*
X370833500Y-113080118D03*
D14*
X373373500Y-108000118D03*
D15*
X363748500Y-110540118D03*
X376675500Y-108000118D03*
D14*
X180980000Y-85670000D03*
D12*
X209550000Y-92520099D03*
D13*
X204470000Y-92520099D03*
D14*
X205740000Y-89980099D03*
X212090000Y-87440099D03*
D13*
X214630000Y-92520099D03*
D15*
X202465000Y-89980099D03*
X215392000Y-87440099D03*
D14*
X139065000Y-110540121D03*
D12*
X142875000Y-113080121D03*
D13*
X137795000Y-113080121D03*
D14*
X145415000Y-108000121D03*
D13*
X147955000Y-113080121D03*
D15*
X135790000Y-110540121D03*
X148717000Y-108000121D03*
D14*
X161970000Y-65120000D03*
X186690000Y-172220170D03*
X193040000Y-169680170D03*
D20*
X133350000Y-167775170D03*
D21*
X133350000Y-183015170D03*
D12*
X190500000Y-174760170D03*
D13*
X185420000Y-174760170D03*
X195580000Y-174760170D03*
D21*
X247650000Y-183015170D03*
D20*
X247650000Y-167775170D03*
D15*
X183415000Y-172220170D03*
X196342000Y-169680170D03*
D12*
X351783500Y-51400055D03*
D14*
X354323500Y-46320055D03*
D13*
X356863500Y-51400055D03*
D14*
X347973500Y-48860055D03*
D13*
X346703500Y-51400055D03*
D15*
X344698500Y-48860055D03*
X357625500Y-46320055D03*
D13*
X300355000Y-113080121D03*
X290195000Y-113080121D03*
D14*
X291465000Y-110540121D03*
D12*
X295275000Y-113080121D03*
D14*
X297815000Y-108000121D03*
D15*
X288190000Y-110540121D03*
X301117000Y-108000121D03*
D13*
X314007500Y-174760187D03*
D14*
X321627500Y-169680187D03*
D12*
X319087500Y-174760187D03*
D13*
X324167500Y-174760187D03*
D14*
X315277500Y-172220187D03*
D15*
X312002500Y-172220187D03*
X324929500Y-169680187D03*
D13*
X138430000Y-51400055D03*
D14*
X129540000Y-48860055D03*
D12*
X133350000Y-51400055D03*
D14*
X135890000Y-46320055D03*
D13*
X128270000Y-51400055D03*
D15*
X126265000Y-48860055D03*
X139192000Y-46320055D03*
D14*
X269240000Y-87440099D03*
X262890000Y-89980099D03*
D13*
X261620000Y-92520099D03*
D12*
X266700000Y-92520099D03*
D13*
X271780000Y-92520099D03*
D15*
X259615000Y-89980099D03*
X272542000Y-87440099D03*
D14*
X484610000Y-189200000D03*
X171460000Y-44480000D03*
D13*
X375913500Y-154200167D03*
D12*
X370833500Y-154200167D03*
D14*
X373373500Y-149120167D03*
D13*
X365753500Y-154200167D03*
D14*
X367023500Y-151660167D03*
D15*
X363748500Y-151660167D03*
X376675500Y-149120167D03*
D13*
X266382500Y-174760187D03*
D14*
X267652500Y-172220187D03*
D13*
X276542500Y-174760187D03*
D14*
X274002500Y-169680187D03*
D12*
X271462500Y-174760187D03*
D15*
X264377500Y-172220187D03*
X277304500Y-169680187D03*
D14*
X297497500Y-138720143D03*
D13*
X294957500Y-133640143D03*
D12*
X300037500Y-133640143D03*
D14*
X303847500Y-136180143D03*
D13*
X305117500Y-133640143D03*
D15*
X307122500Y-136180143D03*
X294195500Y-138720143D03*
D13*
X171767500Y-133640143D03*
D12*
X166687500Y-133640143D03*
D14*
X169227500Y-128560143D03*
X162877500Y-131100143D03*
D13*
X161607500Y-133640143D03*
D15*
X159602500Y-131100143D03*
X172529500Y-128560143D03*
D14*
X119070000Y-127420000D03*
X114310000Y-106470000D03*
X414007000Y-110540118D03*
D13*
X422897000Y-113080118D03*
D14*
X420357000Y-108000118D03*
D12*
X417817000Y-113080118D03*
D13*
X412737000Y-113080118D03*
D15*
X410732000Y-110540118D03*
X423659000Y-108000118D03*
D12*
X123825000Y-113080121D03*
D14*
X126365000Y-108000121D03*
D13*
X128905000Y-113080121D03*
D14*
X120015000Y-110540121D03*
D13*
X118745000Y-113080121D03*
D15*
X116740000Y-110540121D03*
X129667000Y-108000121D03*
D14*
X452107000Y-89980097D03*
D13*
X450837000Y-92520097D03*
D12*
X455917000Y-92520097D03*
D14*
X458457000Y-87440097D03*
D13*
X460997000Y-92520097D03*
D15*
X448832000Y-89980097D03*
X461759000Y-87440097D03*
D13*
X299720000Y-51400055D03*
D12*
X304800000Y-51400055D03*
D14*
X307340000Y-46320055D03*
D13*
X309880000Y-51400055D03*
D14*
X300990000Y-48860055D03*
D15*
X297715000Y-48860055D03*
X310642000Y-46320055D03*
D14*
X281940000Y-48860055D03*
D12*
X285750000Y-51400055D03*
D13*
X280670000Y-51400055D03*
D14*
X288290000Y-46320055D03*
D13*
X290830000Y-51400055D03*
D15*
X278665000Y-48860055D03*
X291592000Y-46320055D03*
D13*
X474967000Y-149120160D03*
D14*
X477507000Y-150390160D03*
D12*
X474967000Y-154200160D03*
D13*
X474967000Y-159280160D03*
D14*
X480047000Y-156740160D03*
D26*
X477507000Y-147115160D03*
X480047000Y-160042160D03*
D21*
X138080750Y-183015170D03*
D14*
X153828750Y-177300170D03*
D13*
X155098750Y-174760170D03*
D21*
X161956750Y-183015170D03*
D20*
X161956750Y-167775170D03*
X138080750Y-167775170D03*
D13*
X144938750Y-174760170D03*
D12*
X150018750Y-174760170D03*
D14*
X147478750Y-179840170D03*
D15*
X157103750Y-177300170D03*
X144176750Y-179840170D03*
D14*
X446390000Y-85800000D03*
D18*
X464035000Y-57900000D03*
D19*
X466575000Y-57900000D03*
D14*
X47620000Y-44730000D03*
D13*
X194945000Y-51400055D03*
D12*
X200025000Y-51400055D03*
D14*
X196215000Y-48860055D03*
X202565000Y-46320055D03*
D13*
X205105000Y-51400055D03*
D15*
X192940000Y-48860055D03*
X205867000Y-46320055D03*
D13*
X138430000Y-92520099D03*
D12*
X133350000Y-92520099D03*
D14*
X129540000Y-89980099D03*
D13*
X128270000Y-92520099D03*
D14*
X135890000Y-87440099D03*
D15*
X126265000Y-89980099D03*
X139192000Y-87440099D03*
D14*
X314350000Y-44430000D03*
D13*
X450837000Y-113080118D03*
D14*
X458457000Y-108000118D03*
D12*
X455917000Y-113080118D03*
D14*
X452107000Y-110540118D03*
D13*
X460997000Y-113080118D03*
D15*
X448832000Y-110540118D03*
X461759000Y-108000118D03*
D12*
X228600000Y-92520099D03*
D14*
X224790000Y-89980099D03*
X231140000Y-87440099D03*
D13*
X233680000Y-92520099D03*
X223520000Y-92520099D03*
D15*
X221515000Y-89980099D03*
X234442000Y-87440099D03*
D14*
X90490000Y-147810000D03*
X414007000Y-131100139D03*
X420357000Y-128560139D03*
D13*
X412737000Y-133640139D03*
D12*
X417817000Y-133640139D03*
D13*
X422897000Y-133640139D03*
D15*
X410732000Y-131100139D03*
X423659000Y-128560139D03*
D13*
X267017500Y-133640143D03*
D14*
X258127500Y-131100143D03*
X264477500Y-128560143D03*
D12*
X261937500Y-133640143D03*
D13*
X256857500Y-133640143D03*
D15*
X254852500Y-131100143D03*
X267779500Y-128560143D03*
D14*
X303371250Y-151660150D03*
D20*
X319119250Y-147215150D03*
D12*
X307181250Y-154200150D03*
D21*
X295243250Y-162455150D03*
X319119250Y-162455150D03*
D13*
X302101250Y-154200150D03*
D14*
X309721250Y-149120150D03*
D20*
X295243250Y-147215150D03*
D13*
X312261250Y-154200150D03*
D15*
X300096250Y-151660150D03*
X313023250Y-149120150D03*
D21*
X466712000Y-152542176D03*
D14*
X471157000Y-161940176D03*
D12*
X474967000Y-164480176D03*
D25*
X481952000Y-176418176D03*
D21*
X466712000Y-176418176D03*
D25*
X481952000Y-152542176D03*
D13*
X480047000Y-164480176D03*
D14*
X477507000Y-159400176D03*
D13*
X469887000Y-164480176D03*
D15*
X467882000Y-161940176D03*
X480809000Y-159400176D03*
D14*
X84772500Y-156740165D03*
D13*
X86042500Y-154200165D03*
D14*
X78422500Y-159280165D03*
D13*
X75882500Y-154200165D03*
D12*
X80962500Y-154200165D03*
D15*
X88047500Y-156740165D03*
X75120500Y-159280165D03*
D14*
X484610000Y-147830000D03*
D13*
X356863500Y-92520097D03*
D14*
X347973500Y-89980097D03*
X354323500Y-87440097D03*
D13*
X346703500Y-92520097D03*
D12*
X351783500Y-92520097D03*
D15*
X344698500Y-89980097D03*
X357625500Y-87440097D03*
D14*
X215265000Y-48860055D03*
X221615000Y-46320055D03*
D13*
X213995000Y-51400055D03*
D12*
X219075000Y-51400055D03*
D13*
X224155000Y-51400055D03*
D15*
X211990000Y-48860055D03*
X224917000Y-46320055D03*
D21*
X185705750Y-183015170D03*
D13*
X192563750Y-174760170D03*
D14*
X195103750Y-179840170D03*
D20*
X185705750Y-167775170D03*
D21*
X209581750Y-183015170D03*
D14*
X201453750Y-177300170D03*
D13*
X202723750Y-174760170D03*
D12*
X197643750Y-174760170D03*
D20*
X209581750Y-167775170D03*
D15*
X204728750Y-177300170D03*
X191801750Y-179840170D03*
D14*
X123820000Y-44560000D03*
X440677000Y-177300181D03*
X434327000Y-179840181D03*
D13*
X431787000Y-174760181D03*
D12*
X436867000Y-174760181D03*
D13*
X441947000Y-174760181D03*
D15*
X443952000Y-177300181D03*
X431025000Y-179840181D03*
D16*
X421717000Y-100838000D03*
D17*
X419167000Y-100838000D03*
X416467000Y-100838000D03*
D16*
X413917000Y-100838000D03*
D14*
X399300000Y-189070000D03*
D12*
X290512500Y-154200150D03*
D14*
X294322500Y-156740150D03*
D13*
X295592500Y-154200150D03*
X285432500Y-154200150D03*
D14*
X287972500Y-159280150D03*
D15*
X297597500Y-156740150D03*
X284670500Y-159280150D03*
D14*
X97790000Y-46320055D03*
D13*
X100330000Y-51400055D03*
X90170000Y-51400055D03*
D12*
X95250000Y-51400055D03*
D14*
X91440000Y-48860055D03*
D15*
X88165000Y-48860055D03*
X101092000Y-46320055D03*
D14*
X47730000Y-189240000D03*
D13*
X162242500Y-154200165D03*
D14*
X159702500Y-149120165D03*
D12*
X157162500Y-154200165D03*
D13*
X152082500Y-154200165D03*
D14*
X153352500Y-151660165D03*
D15*
X150077500Y-151660165D03*
X163004500Y-149120165D03*
D22*
X346183500Y-51400055D03*
X357383500Y-51400055D03*
D23*
X349283500Y-58900055D03*
D24*
X354283500Y-58900055D03*
X351783500Y-58900055D03*
X354283500Y-44400055D03*
X349283500Y-44400055D03*
D14*
X142960000Y-168420000D03*
D17*
X416690000Y-62992000D03*
D16*
X419240000Y-62992000D03*
D17*
X413990000Y-62992000D03*
D16*
X411440000Y-62992000D03*
D13*
X480047000Y-133640139D03*
D14*
X477507000Y-128560139D03*
D13*
X469887000Y-133640139D03*
D14*
X471157000Y-131100139D03*
D12*
X474967000Y-133640139D03*
D15*
X467882000Y-131100139D03*
X480809000Y-128560139D03*
D14*
X342260000Y-188990000D03*
X281010000Y-147630000D03*
D12*
X238125000Y-113080121D03*
D14*
X234315000Y-110540121D03*
D13*
X233045000Y-113080121D03*
D14*
X240665000Y-108000121D03*
D13*
X243205000Y-113080121D03*
D15*
X231040000Y-110540121D03*
X243967000Y-108000121D03*
D14*
X63341250Y-156740165D03*
D13*
X54451250Y-154200165D03*
D12*
X59531250Y-154200165D03*
D13*
X64611250Y-154200165D03*
D14*
X56991250Y-159280165D03*
D15*
X66616250Y-156740165D03*
X53689250Y-159280165D03*
D13*
X109220000Y-51400055D03*
D12*
X114300000Y-51400055D03*
D14*
X110490000Y-48860055D03*
D13*
X119380000Y-51400055D03*
D14*
X116840000Y-46320055D03*
D15*
X107215000Y-48860055D03*
X120142000Y-46320055D03*
D13*
X157480000Y-92520099D03*
D12*
X152400000Y-92520099D03*
D13*
X147320000Y-92520099D03*
D14*
X154940000Y-87440099D03*
X148590000Y-89980099D03*
D15*
X145315000Y-89980099D03*
X158242000Y-87440099D03*
D14*
X49990000Y-106590000D03*
D12*
X389883500Y-51400055D03*
D13*
X384803500Y-51400055D03*
D14*
X386073500Y-48860055D03*
X392423500Y-46320055D03*
D13*
X394963500Y-51400055D03*
D15*
X382798500Y-48860055D03*
X395725500Y-46320055D03*
D20*
X250063000Y-167775170D03*
D13*
X243205000Y-174760170D03*
D20*
X226187000Y-167775170D03*
D14*
X235585000Y-179840170D03*
D13*
X233045000Y-174760170D03*
D12*
X238125000Y-174760170D03*
D14*
X241935000Y-177300170D03*
D21*
X250063000Y-183015170D03*
X226187000Y-183015170D03*
D15*
X245210000Y-177300170D03*
X232283000Y-179840170D03*
D13*
X119380000Y-92520099D03*
D12*
X114300000Y-92520099D03*
D14*
X110490000Y-89980099D03*
X116840000Y-87440099D03*
D13*
X109220000Y-92520099D03*
D15*
X107215000Y-89980099D03*
X120142000Y-87440099D03*
D14*
X484610000Y-85840000D03*
X240665000Y-46320055D03*
D13*
X243205000Y-51400055D03*
X233045000Y-51400055D03*
D14*
X234315000Y-48860055D03*
D12*
X238125000Y-51400055D03*
D15*
X231040000Y-48860055D03*
X243967000Y-46320055D03*
D12*
X436867000Y-92520097D03*
D14*
X439407000Y-87440097D03*
D13*
X441947000Y-92520097D03*
X431787000Y-92520097D03*
D14*
X433057000Y-89980097D03*
D15*
X429782000Y-89980097D03*
X442709000Y-87440097D03*
D13*
X290830000Y-92520099D03*
D14*
X281940000Y-89980099D03*
D12*
X285750000Y-92520099D03*
D14*
X288290000Y-87440099D03*
D13*
X280670000Y-92520099D03*
D15*
X278665000Y-89980099D03*
X291592000Y-87440099D03*
D14*
X399630000Y-44480000D03*
D13*
X394963500Y-113080118D03*
D12*
X389883500Y-113080118D03*
D14*
X392423500Y-108000118D03*
D13*
X384803500Y-113080118D03*
D14*
X386073500Y-110540118D03*
D15*
X382798500Y-110540118D03*
X395725500Y-108000118D03*
D14*
X309580000Y-168330000D03*
D13*
X104457500Y-133640143D03*
D14*
X105727500Y-131100143D03*
D12*
X109537500Y-133640143D03*
D14*
X112077500Y-128560143D03*
D13*
X114617500Y-133640143D03*
D15*
X102452500Y-131100143D03*
X115379500Y-128560143D03*
D14*
X123830000Y-85790000D03*
X408300000Y-106420000D03*
D13*
X271145000Y-113080121D03*
D14*
X278765000Y-108000121D03*
D12*
X276225000Y-113080121D03*
D14*
X272415000Y-110540121D03*
D13*
X281305000Y-113080121D03*
D15*
X269140000Y-110540121D03*
X282067000Y-108000121D03*
D13*
X441947000Y-113080118D03*
X431787000Y-113080118D03*
D14*
X439407000Y-108000118D03*
X433057000Y-110540118D03*
D12*
X436867000Y-113080118D03*
D15*
X429782000Y-110540118D03*
X442709000Y-108000118D03*
D12*
X455917000Y-154200160D03*
D13*
X460997000Y-154200160D03*
D14*
X452107000Y-151660160D03*
D13*
X450837000Y-154200160D03*
D14*
X458457000Y-149120160D03*
D15*
X448832000Y-151660160D03*
X461759000Y-149120160D03*
D13*
X52070000Y-92520097D03*
D14*
X59690000Y-87440097D03*
D12*
X57150000Y-92520097D03*
D14*
X53340000Y-89980097D03*
D13*
X62230000Y-92520097D03*
D15*
X50065000Y-89980097D03*
X62992000Y-87440097D03*
D12*
X351783500Y-113080118D03*
D13*
X356863500Y-113080118D03*
D14*
X347973500Y-110540118D03*
X354323500Y-108000118D03*
D13*
X346703500Y-113080118D03*
D15*
X344698500Y-110540118D03*
X357625500Y-108000118D03*
D14*
X423532000Y-172220181D03*
D13*
X422262000Y-174760181D03*
D20*
X439280000Y-167775181D03*
X415404000Y-167775181D03*
D14*
X429882000Y-169680181D03*
D12*
X427342000Y-174760181D03*
D21*
X439280000Y-183015181D03*
D13*
X432422000Y-174760181D03*
D21*
X415404000Y-183015181D03*
D15*
X420257000Y-172220181D03*
X433184000Y-169680181D03*
D13*
X441947000Y-154200160D03*
X431787000Y-154200160D03*
D14*
X439407000Y-149120160D03*
D12*
X436867000Y-154200160D03*
D14*
X433057000Y-151660160D03*
D15*
X429782000Y-151660160D03*
X442709000Y-149120160D03*
D14*
X96202500Y-151660165D03*
D13*
X105092500Y-154200165D03*
D14*
X102552500Y-149120165D03*
D12*
X100012500Y-154200165D03*
D13*
X94932500Y-154200165D03*
D15*
X92927500Y-151660165D03*
X105854500Y-149120165D03*
D14*
X150177500Y-128560143D03*
D13*
X152717500Y-133640143D03*
X142557500Y-133640143D03*
D12*
X147637500Y-133640143D03*
D14*
X143827500Y-131100143D03*
D15*
X140552500Y-131100143D03*
X153479500Y-128560143D03*
D13*
X356863500Y-174760188D03*
X346703500Y-174760188D03*
D14*
X354323500Y-169680188D03*
X347973500Y-172220188D03*
D12*
X351783500Y-174760188D03*
D15*
X344698500Y-172220188D03*
X357625500Y-169680188D03*
D12*
X474967000Y-113080110D03*
D13*
X474967000Y-118160110D03*
D14*
X480047000Y-115620110D03*
X477507000Y-109270110D03*
D13*
X474967000Y-108000110D03*
D26*
X477507000Y-105995110D03*
X480047000Y-118922110D03*
D12*
X370833500Y-174760188D03*
D13*
X365753500Y-174760188D03*
X375913500Y-174760188D03*
D14*
X373373500Y-169680188D03*
X367023500Y-172220188D03*
D15*
X363748500Y-172220188D03*
X376675500Y-169680188D03*
D13*
X175895000Y-113080121D03*
D14*
X183515000Y-108000121D03*
D12*
X180975000Y-113080121D03*
D14*
X177165000Y-110540121D03*
D13*
X186055000Y-113080121D03*
D15*
X173890000Y-110540121D03*
X186817000Y-108000121D03*
D14*
X219120000Y-65050000D03*
D13*
X309880000Y-92520090D03*
D12*
X304800000Y-92520090D03*
D13*
X299720000Y-92520090D03*
D14*
X302260000Y-97600090D03*
X308610000Y-95060090D03*
D15*
X311885000Y-95060090D03*
X298958000Y-97600090D03*
D14*
X342260000Y-147600000D03*
D22*
X384283500Y-51400055D03*
X395483500Y-51400055D03*
D23*
X387383500Y-58900055D03*
D24*
X392383500Y-58900055D03*
X389883500Y-58900055D03*
X392383500Y-44400055D03*
X387383500Y-44400055D03*
D13*
X257492500Y-154200165D03*
D12*
X252412500Y-154200165D03*
D14*
X248602500Y-151660165D03*
X254952500Y-149120165D03*
D13*
X247332500Y-154200165D03*
D15*
X245327500Y-151660165D03*
X258254500Y-149120165D03*
D13*
X469887000Y-92520097D03*
D12*
X474967000Y-92520097D03*
D14*
X477507000Y-87440097D03*
X471157000Y-89980097D03*
D13*
X480047000Y-92520097D03*
D15*
X467882000Y-89980097D03*
X480809000Y-87440097D03*
D14*
X257190000Y-44450000D03*
X134302500Y-151660165D03*
D13*
X133032500Y-154200165D03*
X143192500Y-154200165D03*
D12*
X138112500Y-154200165D03*
D14*
X140652500Y-149120165D03*
D15*
X131027500Y-151660165D03*
X143954500Y-149120165D03*
D13*
X460997000Y-174760187D03*
D12*
X455917000Y-174760187D03*
D14*
X452107000Y-172220187D03*
D13*
X450837000Y-174760187D03*
D14*
X458457000Y-169680187D03*
D15*
X448832000Y-172220187D03*
X461759000Y-169680187D03*
D14*
X342260000Y-106340000D03*
X167070000Y-189010000D03*
D13*
X314007500Y-113080121D03*
D14*
X321627500Y-108000121D03*
X315277500Y-110540121D03*
D12*
X319087500Y-113080121D03*
D13*
X324167500Y-113080121D03*
D15*
X312002500Y-110540121D03*
X324929500Y-108000121D03*
D14*
X243290000Y-168340000D03*
X178752500Y-149120165D03*
D13*
X171132500Y-154200165D03*
D14*
X172402500Y-151660165D03*
D12*
X176212500Y-154200165D03*
D13*
X181292500Y-154200165D03*
D15*
X169127500Y-151660165D03*
X182054500Y-149120165D03*
D14*
X484610000Y-168580000D03*
D13*
X261620000Y-51400055D03*
D14*
X262890000Y-48860055D03*
X269240000Y-46320055D03*
D13*
X271780000Y-51400055D03*
D12*
X266700000Y-51400055D03*
D15*
X259615000Y-48860055D03*
X272542000Y-46320055D03*
D14*
X317658750Y-120820120D03*
D25*
X314483750Y-111422120D03*
D14*
X324008750Y-118280120D03*
D21*
X329723750Y-111422120D03*
X329723750Y-135298120D03*
D13*
X316388750Y-123360120D03*
X326548750Y-123360120D03*
D12*
X321468750Y-123360120D03*
D25*
X314483750Y-135298120D03*
D15*
X314383750Y-120820120D03*
X327310750Y-118280120D03*
D12*
X271462500Y-154200165D03*
D13*
X276542500Y-154200165D03*
X266382500Y-154200165D03*
D14*
X274002500Y-149120165D03*
X267652500Y-151660165D03*
D15*
X264377500Y-151660165D03*
X277304500Y-149120165D03*
D14*
X195270000Y-127260000D03*
D12*
X64293750Y-133640130D03*
D13*
X69373750Y-133640130D03*
X59213750Y-133640130D03*
D27*
X60483750Y-131100130D03*
X66833750Y-128560130D03*
D28*
X65563750Y-138720130D03*
D29*
X63023750Y-138720130D03*
D14*
X271470000Y-127240000D03*
D12*
X370833500Y-51400055D03*
D13*
X365753500Y-51400055D03*
X375913500Y-51400055D03*
D14*
X373373500Y-46320055D03*
X367023500Y-48860055D03*
D15*
X363748500Y-48860055D03*
X376675500Y-46320055D03*
D28*
X369563500Y-56480055D03*
D29*
X372103500Y-56480055D03*
D14*
X49970000Y-127500000D03*
X173990000Y-87440099D03*
D12*
X171450000Y-92520099D03*
D13*
X176530000Y-92520099D03*
D14*
X167640000Y-89980099D03*
D13*
X166370000Y-92520099D03*
D15*
X164365000Y-89980099D03*
X177292000Y-87440099D03*
D13*
X90170000Y-92520099D03*
D12*
X95250000Y-92520099D03*
D13*
X100330000Y-92520099D03*
D14*
X91440000Y-89980099D03*
X97790000Y-87440099D03*
D15*
X88165000Y-89980099D03*
X101092000Y-87440099D03*
D12*
X59531250Y-133640130D03*
D13*
X54451250Y-133640130D03*
X64611250Y-133640130D03*
D14*
X62071250Y-128560130D03*
X55721250Y-131100130D03*
D15*
X52446250Y-131100130D03*
X65373250Y-128560130D03*
D28*
X58261250Y-138720130D03*
D29*
X60801250Y-138720130D03*
D12*
X76200000Y-92520099D03*
D13*
X81280000Y-92520099D03*
D14*
X72390000Y-89980099D03*
X78740000Y-87440099D03*
D13*
X71120000Y-92520099D03*
D15*
X69115000Y-89980099D03*
X82042000Y-87440099D03*
D14*
X326390000Y-46320055D03*
D13*
X328930000Y-51400055D03*
X318770000Y-51400055D03*
D12*
X323850000Y-51400055D03*
D14*
X320040000Y-48860055D03*
D15*
X316765000Y-48860055D03*
X329692000Y-46320055D03*
D14*
X380360000Y-127300000D03*
D13*
X85407500Y-133640143D03*
D12*
X90487500Y-133640143D03*
D13*
X95567500Y-133640143D03*
D14*
X93027500Y-128560143D03*
X86677500Y-131100143D03*
D15*
X83402500Y-131100143D03*
X96329500Y-128560143D03*
D14*
X66680000Y-85890000D03*
X266750000Y-106310000D03*
X276310000Y-65040000D03*
X314340000Y-85650000D03*
D12*
X219075000Y-113080121D03*
D14*
X221615000Y-108000121D03*
X215265000Y-110540121D03*
D13*
X224155000Y-113080121D03*
X213995000Y-113080121D03*
D15*
X211990000Y-110540121D03*
X224917000Y-108000121D03*
D14*
X158115000Y-110540121D03*
D13*
X167005000Y-113080121D03*
D14*
X164465000Y-108000121D03*
D12*
X161925000Y-113080121D03*
D13*
X156845000Y-113080121D03*
D15*
X154840000Y-110540121D03*
X167767000Y-108000121D03*
D13*
X252730000Y-92520099D03*
D14*
X250190000Y-87440099D03*
X243840000Y-89980099D03*
D13*
X242570000Y-92520099D03*
D12*
X247650000Y-92520099D03*
D15*
X240565000Y-89980099D03*
X253492000Y-87440099D03*
D12*
X417817000Y-92520097D03*
D14*
X414007000Y-89980097D03*
D13*
X412737000Y-92520097D03*
X422897000Y-92520097D03*
D14*
X420357000Y-87440097D03*
D15*
X410732000Y-89980097D03*
X423659000Y-87440097D03*
D28*
X416547000Y-97600097D03*
D29*
X419087000Y-97600097D03*
D14*
X283527500Y-128560143D03*
X277177500Y-131100143D03*
D13*
X275907500Y-133640143D03*
X286067500Y-133640143D03*
D12*
X280987500Y-133640143D03*
D15*
X273902500Y-131100143D03*
X286829500Y-128560143D03*
D20*
X326263000Y-85535090D03*
D13*
X319405000Y-92520090D03*
D12*
X314325000Y-92520090D03*
D21*
X326263000Y-100775090D03*
D20*
X302387000Y-85535090D03*
D14*
X310515000Y-89980090D03*
D13*
X309245000Y-92520090D03*
D21*
X302387000Y-100775090D03*
D14*
X316865000Y-87440090D03*
D15*
X307240000Y-89980090D03*
X320167000Y-87440090D03*
D13*
X62230000Y-51400055D03*
D14*
X53340000Y-48860055D03*
D13*
X52070000Y-51400055D03*
D12*
X57150000Y-51400055D03*
D14*
X59690000Y-46320055D03*
D15*
X50065000Y-48860055D03*
X62992000Y-46320055D03*
D13*
X237807500Y-133640143D03*
D14*
X245427500Y-128560143D03*
D13*
X247967500Y-133640143D03*
D12*
X242887500Y-133640143D03*
D14*
X239077500Y-131100143D03*
D15*
X235802500Y-131100143D03*
X248729500Y-128560143D03*
D12*
X257175000Y-113080121D03*
D13*
X262255000Y-113080121D03*
D14*
X259715000Y-108000121D03*
D13*
X252095000Y-113080121D03*
D14*
X253365000Y-110540121D03*
D15*
X250090000Y-110540121D03*
X263017000Y-108000121D03*
D14*
X71780000Y-168560000D03*
D13*
X56832500Y-174760187D03*
D12*
X61912500Y-174760187D03*
D14*
X64452500Y-169680187D03*
X58102500Y-172220187D03*
D13*
X66992500Y-174760187D03*
D15*
X54827500Y-172220187D03*
X67754500Y-169680187D03*
D13*
X175895000Y-51400055D03*
D14*
X177165000Y-48860055D03*
X183515000Y-46320055D03*
D12*
X180975000Y-51400055D03*
D13*
X186055000Y-51400055D03*
D15*
X173890000Y-48860055D03*
X186817000Y-46320055D03*
D14*
X104790000Y-65230000D03*
D30*
X151450000Y-115848000D03*
X153350000Y-115848000D03*
X152400000Y-118848000D03*
X218252000Y-95274000D03*
X220152000Y-95274000D03*
X219202000Y-98274000D03*
X222824000Y-156996000D03*
X224724000Y-156996000D03*
X223774000Y-159996000D03*
X251526000Y-136422000D03*
X253426000Y-136422000D03*
X252476000Y-139422000D03*
X142052000Y-95274000D03*
X143952000Y-95274000D03*
X143002000Y-98274000D03*
X84902000Y-95274000D03*
X86802000Y-95274000D03*
X85852000Y-98274000D03*
X94300000Y-115848000D03*
X96200000Y-115848000D03*
X95250000Y-118848000D03*
X232476000Y-136422000D03*
X234376000Y-136422000D03*
X233426000Y-139422000D03*
X65852000Y-95274000D03*
X67752000Y-95274000D03*
X66802000Y-98274000D03*
X146624000Y-156996000D03*
X148524000Y-156996000D03*
X147574000Y-159996000D03*
X445582000Y-115848000D03*
X447482000Y-115848000D03*
X446532000Y-118848000D03*
X189550000Y-54126000D03*
X191450000Y-54126000D03*
X190500000Y-57126000D03*
X246700000Y-115848000D03*
X248600000Y-115848000D03*
X247650000Y-118848000D03*
X379542000Y-180110000D03*
X381442000Y-180110000D03*
X380492000Y-183110000D03*
X170500000Y-115848000D03*
X172400000Y-115848000D03*
X171450000Y-118848000D03*
X251526000Y-54126000D03*
X253426000Y-54126000D03*
X252476000Y-57126000D03*
X360492000Y-54126000D03*
X362392000Y-54126000D03*
X361442000Y-57126000D03*
X294198000Y-95274000D03*
X296098000Y-95274000D03*
X295148000Y-98274000D03*
X301056000Y-156996000D03*
X302956000Y-156996000D03*
X302006000Y-159996000D03*
X386146000Y-161060000D03*
X388046000Y-161060000D03*
X387096000Y-164060000D03*
X103952000Y-54126000D03*
X105852000Y-54126000D03*
X104902000Y-57126000D03*
X92268000Y-158774000D03*
X94168000Y-158774000D03*
X93218000Y-161774000D03*
X161102000Y-95274000D03*
X163002000Y-95274000D03*
X162052000Y-98274000D03*
X275402000Y-54126000D03*
X277302000Y-54126000D03*
X276352000Y-57126000D03*
X400116000Y-166394000D03*
X402016000Y-166394000D03*
X401066000Y-169394000D03*
X71694000Y-177570000D03*
X73594000Y-177570000D03*
X72644000Y-180570000D03*
X445582000Y-156996000D03*
X447482000Y-156996000D03*
X446532000Y-159996000D03*
X75250000Y-115848000D03*
X77150000Y-115848000D03*
X76200000Y-118848000D03*
X165928000Y-54126000D03*
X167828000Y-54126000D03*
X166878000Y-57126000D03*
X165674000Y-156996000D03*
X167574000Y-156996000D03*
X166624000Y-159996000D03*
X303850000Y-115848000D03*
X305750000Y-115848000D03*
X304800000Y-118848000D03*
X177866000Y-177316000D03*
X179766000Y-177316000D03*
X178816000Y-180316000D03*
X256352000Y-177570000D03*
X258252000Y-177570000D03*
X257302000Y-180570000D03*
X313502000Y-98322000D03*
X315402000Y-98322000D03*
X314452000Y-101322000D03*
X445582000Y-136422000D03*
X447482000Y-136422000D03*
X446532000Y-139422000D03*
X156276000Y-136422000D03*
X158176000Y-136422000D03*
X157226000Y-139422000D03*
X75250000Y-136422000D03*
X77150000Y-136422000D03*
X76200000Y-139422000D03*
X426532000Y-115848000D03*
X428432000Y-115848000D03*
X427482000Y-118848000D03*
X336870000Y-54126000D03*
X338770000Y-54126000D03*
X337820000Y-57126000D03*
X337378000Y-134898000D03*
X339278000Y-134898000D03*
X338328000Y-137898000D03*
X241874000Y-156996000D03*
X243774000Y-156996000D03*
X242824000Y-159996000D03*
X227650000Y-115848000D03*
X229550000Y-115848000D03*
X228600000Y-118848000D03*
X337378000Y-115848000D03*
X339278000Y-115848000D03*
X338328000Y-118848000D03*
X445582000Y-95274000D03*
X447482000Y-95274000D03*
X446532000Y-98274000D03*
X360492000Y-177570000D03*
X362392000Y-177570000D03*
X361442000Y-180570000D03*
X426532000Y-156996000D03*
X428432000Y-156996000D03*
X427482000Y-159996000D03*
X99126000Y-136422000D03*
X101026000Y-136422000D03*
X100076000Y-139422000D03*
X310200000Y-138454000D03*
X312100000Y-138454000D03*
X311150000Y-141454000D03*
X337378000Y-156234000D03*
X339278000Y-156234000D03*
X338328000Y-159234000D03*
X237302000Y-95274000D03*
X239202000Y-95274000D03*
X238252000Y-98274000D03*
X426532000Y-95274000D03*
X428432000Y-95274000D03*
X427482000Y-98274000D03*
X426532000Y-136422000D03*
X428432000Y-136422000D03*
X427482000Y-139422000D03*
X69408000Y-160552000D03*
X71308000Y-160552000D03*
X70358000Y-163552000D03*
X175326000Y-136422000D03*
X177226000Y-136422000D03*
X176276000Y-139422000D03*
X75250000Y-54126000D03*
X77150000Y-54126000D03*
X76200000Y-57126000D03*
M02*
