M48
; DRILL file {KiCad (6.0.1-0)} date Tuesday, March 21, 2023 at 08:52:17 AM
; FORMAT={-:-/ absolute / metric / decimal}
; #@! TF.CreationDate,2023-03-21T08:52:17-07:00
; #@! TF.GenerationSoftware,Kicad,Pcbnew,(6.0.1-0)
; #@! TF.FileFunction,NonPlated,1,2,NPTH
FMAT,2
METRIC
; #@! TA.AperFunction,NonPlated,NPTH,ComponentDrill
T1C1.500
; #@! TA.AperFunction,NonPlated,NPTH,ComponentDrill
T2C1.750
; #@! TA.AperFunction,NonPlated,NPTH,ComponentDrill
T3C3.000
; #@! TA.AperFunction,NonPlated,NPTH,ComponentDrill
T4C3.048
; #@! TA.AperFunction,NonPlated,NPTH,ComponentDrill
T5C3.988
%
G90
G05
T2
X52.07Y-51.4
X52.07Y-92.52
X54.451Y-133.64
X54.451Y-154.2
X56.832Y-113.08
X56.832Y-174.76
X59.214Y-133.64
X62.23Y-51.4
X62.23Y-92.52
X63.976Y-154.2
X64.611Y-133.64
X64.611Y-154.2
X66.992Y-113.08
X66.992Y-174.76
X69.374Y-133.64
X71.12Y-92.52
X74.136Y-154.2
X75.882Y-154.2
X80.645Y-113.08
X81.28Y-92.52
X85.407Y-133.64
X86.042Y-154.2
X90.17Y-51.4
X90.17Y-92.52
X90.805Y-113.08
X94.932Y-154.2
X95.567Y-133.64
X99.695Y-113.08
X100.33Y-51.4
X100.33Y-92.52
X104.457Y-133.64
X104.457Y-174.76
X105.093Y-154.2
X109.22Y-51.4
X109.22Y-92.52
X109.855Y-113.08
X113.983Y-154.2
X114.617Y-133.64
X114.617Y-174.76
X118.745Y-113.08
X119.38Y-51.4
X119.38Y-92.52
X123.507Y-133.64
X124.142Y-154.2
X128.27Y-51.4
X128.27Y-92.52
X128.905Y-113.08
X133.032Y-154.2
X133.667Y-133.64
X137.795Y-113.08
X138.43Y-51.4
X138.43Y-92.52
X142.558Y-133.64
X143.192Y-154.2
X144.939Y-174.76
X147.32Y-51.4
X147.32Y-92.52
X147.955Y-113.08
X152.082Y-154.2
X152.718Y-133.64
X155.099Y-174.76
X156.845Y-113.08
X157.48Y-51.4
X157.48Y-92.52
X161.607Y-133.64
X162.243Y-154.2
X166.37Y-92.52
X167.005Y-113.08
X171.132Y-154.2
X171.767Y-133.64
X175.895Y-51.4
X175.895Y-113.08
X176.53Y-92.52
X180.657Y-133.64
X181.292Y-154.2
X185.42Y-92.52
X185.42Y-174.76
X186.055Y-51.4
X186.055Y-113.08
X190.183Y-154.2
X190.817Y-133.64
X192.564Y-174.76
X194.945Y-51.4
X194.945Y-113.08
X195.58Y-92.52
X195.58Y-174.76
X199.707Y-133.64
X200.343Y-154.2
X202.724Y-174.76
X204.47Y-92.52
X205.105Y-51.4
X205.105Y-113.08
X209.232Y-154.2
X209.867Y-133.64
X213.995Y-51.4
X213.995Y-113.08
X214.63Y-92.52
X218.757Y-133.64
X219.392Y-154.2
X223.52Y-92.52
X224.155Y-51.4
X224.155Y-113.08
X228.282Y-154.2
X228.917Y-133.64
X233.045Y-51.4
X233.045Y-113.08
X233.045Y-174.76
X233.68Y-92.52
X237.807Y-133.64
X238.442Y-154.2
X242.57Y-92.52
X243.205Y-51.4
X243.205Y-113.08
X243.205Y-174.76
X247.332Y-154.2
X247.968Y-133.64
X252.095Y-113.08
X252.73Y-92.52
X256.858Y-133.64
X257.493Y-154.2
X261.62Y-51.4
X261.62Y-92.52
X262.255Y-113.08
X266.382Y-154.2
X266.382Y-174.76
X267.017Y-133.64
X271.145Y-113.08
X271.78Y-51.4
X271.78Y-92.52
X275.907Y-133.64
X276.542Y-154.2
X276.542Y-174.76
X280.67Y-51.4
X280.67Y-92.52
X281.305Y-113.08
X285.433Y-154.2
X286.067Y-133.64
X290.195Y-113.08
X290.83Y-51.4
X290.83Y-92.52
X294.957Y-133.64
X295.592Y-154.2
X299.72Y-51.4
X299.72Y-92.52
X300.355Y-113.08
X302.101Y-154.2
X305.118Y-133.64
X306.864Y-133.64
X309.245Y-92.52
X309.88Y-51.4
X309.88Y-92.52
X311.626Y-154.2
X312.261Y-154.2
X314.007Y-113.08
X314.007Y-174.76
X316.389Y-123.36
X317.024Y-133.64
X318.77Y-51.4
X318.77Y-92.52
X319.405Y-92.52
X321.786Y-154.2
X324.167Y-113.08
X324.167Y-174.76
X326.549Y-123.36
X328.93Y-51.4
X328.93Y-92.52
X346.703Y-51.4
X346.703Y-92.52
X346.703Y-113.08
X346.703Y-174.76
X356.863Y-51.4
X356.863Y-92.52
X356.863Y-113.08
X356.863Y-174.76
X365.753Y-51.4
X365.753Y-92.52
X365.753Y-113.08
X365.753Y-154.2
X365.753Y-174.76
X375.913Y-51.4
X375.913Y-92.52
X375.913Y-113.08
X375.913Y-154.2
X375.913Y-174.76
X384.803Y-51.4
X384.803Y-92.52
X384.803Y-113.08
X384.803Y-174.76
X394.964Y-51.4
X394.964Y-92.52
X394.964Y-113.08
X394.964Y-174.76
X412.737Y-92.52
X412.737Y-113.08
X412.737Y-133.64
X412.737Y-154.2
X412.737Y-174.76
X422.262Y-174.76
X422.897Y-92.52
X422.897Y-113.08
X422.897Y-133.64
X422.897Y-154.2
X422.897Y-174.76
X431.787Y-92.52
X431.787Y-113.08
X431.787Y-133.64
X431.787Y-154.2
X431.787Y-174.76
X432.422Y-174.76
X441.947Y-92.52
X441.947Y-113.08
X441.947Y-133.64
X441.947Y-154.2
X441.947Y-174.76
X450.837Y-92.52
X450.837Y-113.08
X450.837Y-133.64
X450.837Y-154.2
X450.837Y-174.76
X460.997Y-92.52
X460.997Y-113.08
X460.997Y-133.64
X460.997Y-154.2
X460.997Y-174.76
X469.887Y-92.52
X469.887Y-123.36
X469.887Y-133.64
X469.887Y-164.48
X469.887Y-174.76
X474.967Y-108.0
X474.967Y-118.16
X474.967Y-149.12
X474.967Y-159.28
X480.047Y-92.52
X480.047Y-123.36
X480.047Y-133.64
X480.047Y-164.48
X480.047Y-174.76
T3
X47.62Y-44.73
X47.73Y-189.24
X49.97Y-127.5
X49.99Y-106.59
X53.34Y-48.86
X53.34Y-89.98
X55.721Y-131.1
X56.991Y-159.28
X58.102Y-110.54
X58.102Y-172.22
X59.69Y-46.32
X59.69Y-87.44
X62.071Y-128.56
X63.341Y-156.74
X64.453Y-108.0
X64.453Y-169.68
X65.246Y-151.66
X66.68Y-65.3
X66.68Y-85.89
X71.596Y-149.12
X71.78Y-168.56
X72.39Y-89.98
X78.422Y-159.28
X78.74Y-87.44
X81.915Y-110.54
X84.772Y-156.74
X86.677Y-131.1
X88.265Y-108.0
X90.49Y-147.81
X90.87Y-189.18
X91.44Y-48.86
X91.44Y-89.98
X93.027Y-128.56
X96.203Y-151.66
X97.79Y-46.32
X97.79Y-87.44
X100.965Y-110.54
X102.552Y-149.12
X104.79Y-65.23
X105.727Y-131.1
X105.727Y-172.22
X107.315Y-108.0
X110.49Y-48.86
X110.49Y-89.98
X112.078Y-128.56
X112.078Y-169.68
X114.31Y-106.47
X115.252Y-151.66
X116.84Y-46.32
X116.84Y-87.44
X119.07Y-127.42
X120.015Y-110.54
X121.602Y-149.12
X123.82Y-44.56
X123.83Y-85.79
X124.777Y-131.1
X126.365Y-108.0
X129.54Y-48.86
X129.54Y-89.98
X131.127Y-128.56
X134.302Y-151.66
X135.89Y-46.32
X135.89Y-87.44
X139.065Y-110.54
X140.653Y-149.12
X142.96Y-168.42
X143.827Y-131.1
X145.415Y-108.0
X147.479Y-179.84
X148.59Y-48.86
X148.59Y-89.98
X150.177Y-128.56
X153.352Y-151.66
X153.829Y-177.3
X154.94Y-46.32
X154.94Y-87.44
X158.115Y-110.54
X159.702Y-149.12
X161.97Y-65.12
X162.877Y-131.1
X164.465Y-108.0
X166.69Y-147.64
X167.07Y-189.01
X167.64Y-89.98
X169.227Y-128.56
X171.46Y-44.48
X172.403Y-151.66
X173.99Y-87.44
X177.165Y-48.86
X177.165Y-110.54
X178.752Y-149.12
X180.98Y-85.67
X181.927Y-131.1
X183.515Y-46.32
X183.515Y-108.0
X186.69Y-89.98
X186.69Y-172.22
X188.278Y-128.56
X190.5Y-106.33
X191.452Y-151.66
X193.04Y-87.44
X193.04Y-169.68
X195.104Y-179.84
X195.27Y-127.26
X196.215Y-48.86
X196.215Y-110.54
X197.802Y-149.12
X200.19Y-168.33
X200.977Y-131.1
X201.454Y-177.3
X202.565Y-46.32
X202.565Y-108.0
X204.8Y-147.58
X205.74Y-89.98
X207.327Y-128.56
X210.502Y-151.66
X212.09Y-87.44
X215.265Y-48.86
X215.265Y-110.54
X216.852Y-149.12
X219.12Y-65.05
X220.028Y-131.1
X221.615Y-46.32
X221.615Y-108.0
X224.79Y-89.98
X226.377Y-128.56
X229.552Y-151.66
X231.14Y-87.44
X234.315Y-48.86
X234.315Y-110.54
X235.585Y-179.84
X235.903Y-149.12
X238.13Y-85.66
X238.21Y-189.01
X239.077Y-131.1
X240.665Y-46.32
X240.665Y-108.0
X241.935Y-177.3
X243.29Y-168.34
X243.84Y-89.98
X245.427Y-128.56
X248.602Y-151.66
X250.19Y-87.44
X253.365Y-110.54
X254.952Y-149.12
X257.19Y-44.45
X258.127Y-131.1
X259.715Y-108.0
X262.89Y-48.86
X262.89Y-89.98
X264.477Y-128.56
X266.75Y-106.31
X267.652Y-151.66
X267.652Y-172.22
X269.24Y-46.32
X269.24Y-87.44
X271.47Y-127.24
X272.415Y-110.54
X274.002Y-149.12
X274.002Y-169.68
X276.31Y-65.04
X277.178Y-131.1
X278.765Y-108.0
X281.01Y-147.63
X281.94Y-48.86
X281.94Y-89.98
X283.527Y-128.56
X283.7Y-188.98
X287.972Y-159.28
X288.29Y-46.32
X288.29Y-87.44
X291.465Y-110.54
X294.322Y-156.74
X297.498Y-138.72
X297.815Y-108.0
X300.99Y-48.86
X302.26Y-97.6
X303.371Y-151.66
X303.847Y-136.18
X307.34Y-46.32
X308.134Y-131.1
X308.61Y-95.06
X309.58Y-168.33
X309.721Y-149.12
X310.515Y-89.98
X313.32Y-65.04
X314.166Y-159.28
X314.34Y-85.65
X314.35Y-44.43
X314.484Y-128.56
X315.277Y-110.54
X315.277Y-172.22
X316.865Y-87.44
X317.659Y-120.82
X320.04Y-48.86
X320.516Y-156.74
X321.31Y-97.6
X321.627Y-108.0
X321.627Y-169.68
X324.009Y-118.28
X326.39Y-46.32
X327.66Y-95.06
X342.26Y-106.34
X342.26Y-127.28
X342.26Y-147.6
X342.26Y-168.33
X342.26Y-188.99
X347.974Y-48.86
X347.974Y-89.98
X347.974Y-110.54
X347.974Y-172.22
X354.323Y-46.32
X354.323Y-87.44
X354.323Y-108.0
X354.323Y-169.68
X367.023Y-48.86
X367.023Y-89.98
X367.023Y-110.54
X367.023Y-151.66
X367.023Y-172.22
X373.373Y-46.32
X373.373Y-87.44
X373.373Y-108.0
X373.373Y-149.12
X373.373Y-169.68
X380.36Y-65.09
X380.36Y-85.69
X380.36Y-127.3
X380.36Y-168.38
X386.073Y-48.86
X386.073Y-89.98
X386.073Y-110.54
X386.073Y-172.22
X392.423Y-46.32
X392.423Y-87.44
X392.423Y-108.0
X392.423Y-169.68
X399.3Y-189.07
X399.63Y-44.48
X408.28Y-147.7
X408.3Y-106.42
X414.007Y-89.98
X414.007Y-110.54
X414.007Y-131.1
X414.007Y-151.66
X415.277Y-179.84
X420.357Y-87.44
X420.357Y-108.0
X420.357Y-128.56
X420.357Y-149.12
X421.627Y-177.3
X423.532Y-172.22
X427.35Y-127.4
X429.882Y-169.68
X433.057Y-89.98
X433.057Y-110.54
X433.057Y-131.1
X433.057Y-151.66
X434.327Y-179.84
X439.407Y-87.44
X439.407Y-108.0
X439.407Y-128.56
X439.407Y-149.12
X440.677Y-177.3
X446.39Y-85.8
X452.107Y-89.98
X452.107Y-110.54
X452.107Y-131.1
X452.107Y-151.66
X452.107Y-172.22
X458.457Y-87.44
X458.457Y-108.0
X458.457Y-128.56
X458.457Y-149.12
X458.457Y-169.68
X471.157Y-89.98
X471.157Y-120.82
X471.157Y-131.1
X471.157Y-161.94
X471.157Y-172.22
X477.507Y-87.44
X477.507Y-109.27
X477.507Y-118.28
X477.507Y-128.56
X477.507Y-150.39
X477.507Y-159.4
X477.507Y-169.68
X480.047Y-115.62
X480.047Y-156.74
X484.61Y-85.84
X484.61Y-127.46
X484.61Y-147.83
X484.61Y-168.58
X484.61Y-189.2
T4
X57.118Y-147.215
X80.994Y-147.215
X133.35Y-167.775
X138.081Y-167.775
X161.957Y-167.775
X185.706Y-167.775
X209.582Y-167.775
X226.187Y-167.775
X247.65Y-167.775
X250.063Y-167.775
X295.243Y-147.215
X300.006Y-126.655
X302.387Y-85.535
X319.119Y-147.215
X323.882Y-126.655
X326.263Y-85.535
X415.404Y-167.775
X439.28Y-167.775
T5
X57.15Y-51.4
X57.15Y-92.52
X59.531Y-133.64
X59.531Y-154.2
X61.912Y-113.08
X61.912Y-174.76
X64.294Y-133.64
X69.056Y-154.2
X76.2Y-92.52
X80.962Y-154.2
X85.725Y-113.08
X90.487Y-133.64
X95.25Y-51.4
X95.25Y-92.52
X100.012Y-154.2
X104.775Y-113.08
X109.537Y-133.64
X109.537Y-174.76
X114.3Y-51.4
X114.3Y-92.52
X119.062Y-154.2
X123.825Y-113.08
X128.588Y-133.64
X133.35Y-51.4
X133.35Y-92.52
X138.112Y-154.2
X142.875Y-113.08
X147.637Y-133.64
X150.019Y-174.76
X152.4Y-51.4
X152.4Y-92.52
X157.162Y-154.2
X161.925Y-113.08
X166.688Y-133.64
X171.45Y-92.52
X176.213Y-154.2
X180.975Y-51.4
X180.975Y-113.08
X185.737Y-133.64
X190.5Y-92.52
X190.5Y-174.76
X195.262Y-154.2
X197.644Y-174.76
X200.025Y-51.4
X200.025Y-113.08
X204.787Y-133.64
X209.55Y-92.52
X214.312Y-154.2
X219.075Y-51.4
X219.075Y-113.08
X223.837Y-133.64
X228.6Y-92.52
X233.362Y-154.2
X238.125Y-51.4
X238.125Y-113.08
X238.125Y-174.76
X242.887Y-133.64
X247.65Y-92.52
X252.412Y-154.2
X257.175Y-113.08
X261.938Y-133.64
X266.7Y-51.4
X266.7Y-92.52
X271.462Y-154.2
X271.462Y-174.76
X276.225Y-113.08
X280.988Y-133.64
X285.75Y-51.4
X285.75Y-92.52
X290.512Y-154.2
X295.275Y-113.08
X300.037Y-133.64
X304.8Y-51.4
X304.8Y-92.52
X307.181Y-154.2
X311.944Y-133.64
X314.325Y-92.52
X316.706Y-154.2
X319.087Y-113.08
X319.087Y-174.76
X321.469Y-123.36
X323.85Y-51.4
X323.85Y-92.52
X351.784Y-51.4
X351.784Y-92.52
X351.784Y-113.08
X351.784Y-174.76
X370.833Y-51.4
X370.833Y-92.52
X370.833Y-113.08
X370.833Y-154.2
X370.833Y-174.76
X389.883Y-51.4
X389.883Y-92.52
X389.883Y-113.08
X389.883Y-174.76
X417.817Y-92.52
X417.817Y-113.08
X417.817Y-133.64
X417.817Y-154.2
X417.817Y-174.76
X427.342Y-174.76
X436.867Y-92.52
X436.867Y-113.08
X436.867Y-133.64
X436.867Y-154.2
X436.867Y-174.76
X455.917Y-92.52
X455.917Y-113.08
X455.917Y-133.64
X455.917Y-154.2
X455.917Y-174.76
X474.967Y-92.52
X474.967Y-113.08
X474.967Y-123.36
X474.967Y-133.64
X474.967Y-154.2
X474.967Y-164.48
X474.967Y-174.76
T1
X346.183Y-52.05G85X346.183Y-50.75
G05
X357.383Y-52.05G85X357.383Y-50.75
G05
X365.233Y-52.05G85X365.233Y-50.75
G05
X376.433Y-52.05G85X376.433Y-50.75
G05
X384.284Y-52.05G85X384.284Y-50.75
G05
X395.483Y-52.05G85X395.483Y-50.75
G05
T4
X314.484Y-111.222G85X314.484Y-111.622
G05
X314.484Y-135.098G85X314.484Y-135.498
G05
X467.982Y-111.622G85X467.982Y-111.222
G05
X467.982Y-135.498G85X467.982Y-135.098
G05
X467.982Y-152.742G85X467.982Y-152.342
G05
X467.982Y-176.618G85X467.982Y-176.218
G05
T5
X57.118Y-162.255G85X57.118Y-162.655
G05
X80.994Y-162.255G85X80.994Y-162.655
G05
X133.35Y-182.815G85X133.35Y-183.215
G05
X138.081Y-183.215G85X138.081Y-182.815
G05
X161.957Y-183.215G85X161.957Y-182.815
G05
X185.706Y-183.215G85X185.706Y-182.815
G05
X209.582Y-183.215G85X209.582Y-182.815
G05
X226.187Y-183.215G85X226.187Y-182.815
G05
X247.65Y-182.815G85X247.65Y-183.215
G05
X250.063Y-183.215G85X250.063Y-182.815
G05
X295.243Y-162.255G85X295.243Y-162.655
G05
X300.006Y-141.695G85X300.006Y-142.095
G05
X302.387Y-100.575G85X302.387Y-100.975
G05
X319.119Y-162.255G85X319.119Y-162.655
G05
X323.882Y-141.695G85X323.882Y-142.095
G05
X326.263Y-100.575G85X326.263Y-100.975
G05
X329.724Y-111.222G85X329.724Y-111.622
G05
X329.724Y-135.098G85X329.724Y-135.498
G05
X415.404Y-182.815G85X415.404Y-183.215
G05
X439.28Y-182.815G85X439.28Y-183.215
G05
X483.222Y-111.622G85X483.222Y-111.222
G05
X483.222Y-135.498G85X483.222Y-135.098
G05
X483.222Y-152.742G85X483.222Y-152.342
G05
X483.222Y-176.618G85X483.222Y-176.218
G05
T0
M30
