G04 #@! TF.GenerationSoftware,KiCad,Pcbnew,(6.0.1-0)*
G04 #@! TF.CreationDate,2023-04-15T21:23:19-07:00*
G04 #@! TF.ProjectId,pcb,7063622e-6b69-4636-9164-5f7063625858,rev?*
G04 #@! TF.SameCoordinates,Original*
G04 #@! TF.FileFunction,Soldermask,Bot*
G04 #@! TF.FilePolarity,Negative*
%FSLAX46Y46*%
G04 Gerber Fmt 4.6, Leading zero omitted, Abs format (unit mm)*
G04 Created by KiCad (PCBNEW (6.0.1-0)) date 2023-04-15 21:23:19*
%MOMM*%
%LPD*%
G01*
G04 APERTURE LIST*
%ADD10C,3.987800*%
%ADD11C,1.750000*%
%ADD12C,3.000000*%
%ADD13R,2.550000X2.500000*%
%ADD14C,1.600000*%
%ADD15R,1.500000X1.200000*%
%ADD16R,1.800000X1.800000*%
%ADD17C,1.800000*%
%ADD18C,3.048000*%
%ADD19O,3.987800X4.387800*%
%ADD20O,2.000000X3.200000*%
%ADD21R,2.000000X2.000000*%
%ADD22C,2.000000*%
%ADD23O,3.048000X3.448000*%
%ADD24R,2.500000X2.550000*%
%ADD25C,2.250000*%
%ADD26C,1.905000*%
%ADD27R,1.905000X1.905000*%
%ADD28R,0.800000X1.900000*%
G04 APERTURE END LIST*
D10*
X316706250Y-154200150D03*
D11*
X311626250Y-154200150D03*
D12*
X314166250Y-159280150D03*
D11*
X321786250Y-154200150D03*
D12*
X320516250Y-156740150D03*
D13*
X323791250Y-156740150D03*
X310864250Y-159280150D03*
D14*
X444150000Y-62992000D03*
D15*
X441600000Y-62992000D03*
D14*
X436350000Y-62992000D03*
D15*
X438900000Y-62992000D03*
D11*
X209867500Y-133640143D03*
D10*
X204787500Y-133640143D03*
D12*
X207327500Y-128560143D03*
D11*
X199707500Y-133640143D03*
D12*
X200977500Y-131100143D03*
D13*
X197702500Y-131100143D03*
X210629500Y-128560143D03*
D12*
X190500000Y-106330000D03*
X367023500Y-89980097D03*
D11*
X365753500Y-92520097D03*
X375913500Y-92520097D03*
D10*
X370833500Y-92520097D03*
D12*
X373373500Y-87440097D03*
D13*
X363748500Y-89980097D03*
X376675500Y-87440097D03*
D12*
X66680000Y-65300000D03*
D16*
X438975000Y-57900000D03*
D17*
X441515000Y-57900000D03*
D11*
X147320000Y-51400055D03*
D12*
X154940000Y-46320055D03*
D10*
X152400000Y-51400055D03*
D12*
X148590000Y-48860055D03*
D11*
X157480000Y-51400055D03*
D13*
X145315000Y-48860055D03*
X158242000Y-46320055D03*
D10*
X195262500Y-154200165D03*
D12*
X197802500Y-149120165D03*
D11*
X190182500Y-154200165D03*
X200342500Y-154200165D03*
D12*
X191452500Y-151660165D03*
D13*
X188177500Y-151660165D03*
X201104500Y-149120165D03*
D11*
X412737000Y-174760181D03*
X422897000Y-174760181D03*
D10*
X417817000Y-174760181D03*
D12*
X421627000Y-177300181D03*
X415277000Y-179840181D03*
D13*
X424902000Y-177300181D03*
X411975000Y-179840181D03*
D12*
X200190000Y-168330000D03*
D15*
X63326000Y-141986000D03*
D14*
X65876000Y-141986000D03*
X58076000Y-141986000D03*
D15*
X60626000Y-141986000D03*
D11*
X317023750Y-133640130D03*
D18*
X300005750Y-126655130D03*
D12*
X314483750Y-128560130D03*
D11*
X306863750Y-133640130D03*
D18*
X323881750Y-126655130D03*
D12*
X308133750Y-131100130D03*
D19*
X300005750Y-141895130D03*
D10*
X311943750Y-133640130D03*
D19*
X323881750Y-141895130D03*
D13*
X304858750Y-131100130D03*
X317785750Y-128560130D03*
D12*
X342260000Y-127280000D03*
X380360000Y-85690000D03*
D10*
X185737500Y-133640143D03*
D11*
X180657500Y-133640143D03*
D12*
X181927500Y-131100143D03*
D11*
X190817500Y-133640143D03*
D12*
X188277500Y-128560143D03*
D13*
X178652500Y-131100143D03*
X191579500Y-128560143D03*
D15*
X372183500Y-62484000D03*
D14*
X374733500Y-62484000D03*
X366933500Y-62484000D03*
D15*
X369483500Y-62484000D03*
D12*
X166690000Y-147640000D03*
D11*
X469887000Y-174760187D03*
D10*
X474967000Y-174760187D03*
D12*
X477507000Y-169680187D03*
D11*
X480047000Y-174760187D03*
D12*
X471157000Y-172220187D03*
D13*
X467882000Y-172220187D03*
X480809000Y-169680187D03*
D11*
X431787000Y-133640139D03*
D12*
X433057000Y-131100139D03*
D10*
X436867000Y-133640139D03*
D12*
X439407000Y-128560139D03*
D11*
X441947000Y-133640139D03*
D13*
X429782000Y-131100139D03*
X442709000Y-128560139D03*
D12*
X115252500Y-151660165D03*
D10*
X119062500Y-154200165D03*
D11*
X113982500Y-154200165D03*
D12*
X121602500Y-149120165D03*
D11*
X124142500Y-154200165D03*
D13*
X111977500Y-151660165D03*
X124904500Y-149120165D03*
D10*
X85725000Y-113080121D03*
D11*
X90805000Y-113080121D03*
D12*
X81915000Y-110540121D03*
D11*
X80645000Y-113080121D03*
D12*
X88265000Y-108000121D03*
D13*
X78640000Y-110540121D03*
X91567000Y-108000121D03*
D12*
X105727500Y-172220187D03*
D10*
X109537500Y-174760187D03*
D11*
X114617500Y-174760187D03*
D12*
X112077500Y-169680187D03*
D11*
X104457500Y-174760187D03*
D13*
X102452500Y-172220187D03*
X115379500Y-169680187D03*
D12*
X414007000Y-151660160D03*
X420357000Y-149120160D03*
D11*
X422897000Y-154200160D03*
D10*
X417817000Y-154200160D03*
D11*
X412737000Y-154200160D03*
D13*
X410732000Y-151660160D03*
X423659000Y-149120160D03*
D11*
X238442500Y-154200165D03*
X228282500Y-154200165D03*
D12*
X229552500Y-151660165D03*
X235902500Y-149120165D03*
D10*
X233362500Y-154200165D03*
D13*
X226277500Y-151660165D03*
X239204500Y-149120165D03*
D20*
X376433500Y-51400055D03*
X365233500Y-51400055D03*
D21*
X368333500Y-58900055D03*
D22*
X373333500Y-58900055D03*
X370833500Y-58900055D03*
X373333500Y-44400055D03*
X368333500Y-44400055D03*
D11*
X450837000Y-133640139D03*
D12*
X458457000Y-128560139D03*
D11*
X460997000Y-133640139D03*
D10*
X455917000Y-133640139D03*
D12*
X452107000Y-131100139D03*
D13*
X448832000Y-131100139D03*
X461759000Y-128560139D03*
D12*
X71596250Y-149120150D03*
D10*
X69056250Y-154200150D03*
D18*
X57118250Y-147215150D03*
D19*
X57118250Y-162455150D03*
D11*
X63976250Y-154200150D03*
X74136250Y-154200150D03*
D18*
X80994250Y-147215150D03*
D19*
X80994250Y-162455150D03*
D12*
X65246250Y-151660150D03*
D13*
X61971250Y-151660150D03*
X74898250Y-149120150D03*
D12*
X90870000Y-189180000D03*
X380360000Y-65090000D03*
X283700000Y-188980000D03*
D10*
X104775000Y-113080121D03*
D12*
X100965000Y-110540121D03*
X107315000Y-108000121D03*
D11*
X109855000Y-113080121D03*
X99695000Y-113080121D03*
D13*
X97690000Y-110540121D03*
X110617000Y-108000121D03*
D12*
X193040000Y-87440099D03*
X186690000Y-89980099D03*
D11*
X185420000Y-92520099D03*
X195580000Y-92520099D03*
D10*
X190500000Y-92520099D03*
D13*
X183415000Y-89980099D03*
X196342000Y-87440099D03*
D12*
X238210000Y-189010000D03*
D10*
X128587500Y-133640143D03*
D12*
X124777500Y-131100143D03*
D11*
X123507500Y-133640143D03*
X133667500Y-133640143D03*
D12*
X131127500Y-128560143D03*
D13*
X121502500Y-131100143D03*
X134429500Y-128560143D03*
D12*
X484610000Y-127460000D03*
D11*
X384803500Y-174760188D03*
X394963500Y-174760188D03*
D12*
X392423500Y-169680188D03*
D10*
X389883500Y-174760188D03*
D12*
X386073500Y-172220188D03*
D13*
X382798500Y-172220188D03*
X395725500Y-169680188D03*
D10*
X474967000Y-123360132D03*
D19*
X466712000Y-111422132D03*
D11*
X469887000Y-123360132D03*
D19*
X466712000Y-135298132D03*
D23*
X481952000Y-135298132D03*
D11*
X480047000Y-123360132D03*
D23*
X481952000Y-111422132D03*
D12*
X477507000Y-118280132D03*
X471157000Y-120820132D03*
D13*
X467882000Y-120820132D03*
X480809000Y-118280132D03*
D12*
X202565000Y-108000121D03*
D11*
X205105000Y-113080121D03*
D12*
X196215000Y-110540121D03*
D10*
X200025000Y-113080121D03*
D11*
X194945000Y-113080121D03*
D13*
X192940000Y-110540121D03*
X205867000Y-108000121D03*
D12*
X427350000Y-127400000D03*
X392423500Y-87440097D03*
D11*
X394963500Y-92520097D03*
D10*
X389883500Y-92520097D03*
D12*
X386073500Y-89980097D03*
D11*
X384803500Y-92520097D03*
D13*
X382798500Y-89980097D03*
X395725500Y-87440097D03*
D14*
X469210000Y-62992000D03*
D15*
X466660000Y-62992000D03*
D14*
X461410000Y-62992000D03*
D15*
X463960000Y-62992000D03*
D10*
X61912500Y-113080121D03*
D11*
X56832500Y-113080121D03*
D12*
X64452500Y-108000121D03*
X58102500Y-110540121D03*
D11*
X66992500Y-113080121D03*
D13*
X54827500Y-110540121D03*
X67754500Y-108000121D03*
D12*
X238130000Y-85660000D03*
D11*
X209232500Y-154200165D03*
D12*
X216852500Y-149120165D03*
D10*
X214312500Y-154200165D03*
D12*
X210502500Y-151660165D03*
D11*
X219392500Y-154200165D03*
D13*
X207227500Y-151660165D03*
X220154500Y-149120165D03*
D12*
X226377500Y-128560143D03*
D11*
X218757500Y-133640143D03*
X228917500Y-133640143D03*
D10*
X223837500Y-133640143D03*
D12*
X220027500Y-131100143D03*
D13*
X216752500Y-131100143D03*
X229679500Y-128560143D03*
D12*
X313320000Y-65040000D03*
X380360000Y-168380000D03*
X204800000Y-147580000D03*
X342260000Y-168330000D03*
X327660000Y-95060099D03*
D10*
X323850000Y-92520099D03*
D11*
X318770000Y-92520099D03*
X328930000Y-92520099D03*
D12*
X321310000Y-97600099D03*
D13*
X330935000Y-95060099D03*
X318008000Y-97600099D03*
D16*
X414065000Y-57880000D03*
D17*
X416605000Y-57880000D03*
D12*
X408280000Y-147700000D03*
D11*
X375913500Y-113080118D03*
X365753500Y-113080118D03*
D12*
X367023500Y-110540118D03*
D10*
X370833500Y-113080118D03*
D12*
X373373500Y-108000118D03*
D13*
X363748500Y-110540118D03*
X376675500Y-108000118D03*
D12*
X180980000Y-85670000D03*
D10*
X209550000Y-92520099D03*
D11*
X204470000Y-92520099D03*
D12*
X205740000Y-89980099D03*
X212090000Y-87440099D03*
D11*
X214630000Y-92520099D03*
D13*
X202465000Y-89980099D03*
X215392000Y-87440099D03*
D12*
X139065000Y-110540121D03*
D10*
X142875000Y-113080121D03*
D11*
X137795000Y-113080121D03*
D12*
X145415000Y-108000121D03*
D11*
X147955000Y-113080121D03*
D13*
X135790000Y-110540121D03*
X148717000Y-108000121D03*
D12*
X161970000Y-65120000D03*
X186690000Y-172220170D03*
X193040000Y-169680170D03*
D18*
X133350000Y-167775170D03*
D19*
X133350000Y-183015170D03*
D10*
X190500000Y-174760170D03*
D11*
X185420000Y-174760170D03*
X195580000Y-174760170D03*
D19*
X247650000Y-183015170D03*
D18*
X247650000Y-167775170D03*
D13*
X183415000Y-172220170D03*
X196342000Y-169680170D03*
D10*
X351783500Y-51400055D03*
D12*
X354323500Y-46320055D03*
D11*
X356863500Y-51400055D03*
D12*
X347973500Y-48860055D03*
D11*
X346703500Y-51400055D03*
D13*
X344698500Y-48860055D03*
X357625500Y-46320055D03*
D11*
X300355000Y-113080121D03*
X290195000Y-113080121D03*
D12*
X291465000Y-110540121D03*
D10*
X295275000Y-113080121D03*
D12*
X297815000Y-108000121D03*
D13*
X288190000Y-110540121D03*
X301117000Y-108000121D03*
D11*
X314007500Y-174760187D03*
D12*
X321627500Y-169680187D03*
D10*
X319087500Y-174760187D03*
D11*
X324167500Y-174760187D03*
D12*
X315277500Y-172220187D03*
D13*
X312002500Y-172220187D03*
X324929500Y-169680187D03*
D11*
X138430000Y-51400055D03*
D12*
X129540000Y-48860055D03*
D10*
X133350000Y-51400055D03*
D12*
X135890000Y-46320055D03*
D11*
X128270000Y-51400055D03*
D13*
X126265000Y-48860055D03*
X139192000Y-46320055D03*
D12*
X269240000Y-87440099D03*
X262890000Y-89980099D03*
D11*
X261620000Y-92520099D03*
D10*
X266700000Y-92520099D03*
D11*
X271780000Y-92520099D03*
D13*
X259615000Y-89980099D03*
X272542000Y-87440099D03*
D12*
X484610000Y-189200000D03*
X171460000Y-44480000D03*
D11*
X375913500Y-154200167D03*
D10*
X370833500Y-154200167D03*
D12*
X373373500Y-149120167D03*
D11*
X365753500Y-154200167D03*
D12*
X367023500Y-151660167D03*
D13*
X363748500Y-151660167D03*
X376675500Y-149120167D03*
D11*
X266382500Y-174760187D03*
D12*
X267652500Y-172220187D03*
D11*
X276542500Y-174760187D03*
D12*
X274002500Y-169680187D03*
D10*
X271462500Y-174760187D03*
D13*
X264377500Y-172220187D03*
X277304500Y-169680187D03*
D12*
X297497500Y-138720143D03*
D11*
X294957500Y-133640143D03*
D10*
X300037500Y-133640143D03*
D12*
X303847500Y-136180143D03*
D11*
X305117500Y-133640143D03*
D13*
X307122500Y-136180143D03*
X294195500Y-138720143D03*
D11*
X171767500Y-133640143D03*
D10*
X166687500Y-133640143D03*
D12*
X169227500Y-128560143D03*
X162877500Y-131100143D03*
D11*
X161607500Y-133640143D03*
D13*
X159602500Y-131100143D03*
X172529500Y-128560143D03*
D12*
X119070000Y-127420000D03*
X114310000Y-106470000D03*
X414007000Y-110540118D03*
D11*
X422897000Y-113080118D03*
D12*
X420357000Y-108000118D03*
D10*
X417817000Y-113080118D03*
D11*
X412737000Y-113080118D03*
D13*
X410732000Y-110540118D03*
X423659000Y-108000118D03*
D10*
X123825000Y-113080121D03*
D12*
X126365000Y-108000121D03*
D11*
X128905000Y-113080121D03*
D12*
X120015000Y-110540121D03*
D11*
X118745000Y-113080121D03*
D13*
X116740000Y-110540121D03*
X129667000Y-108000121D03*
D12*
X452107000Y-89980097D03*
D11*
X450837000Y-92520097D03*
D10*
X455917000Y-92520097D03*
D12*
X458457000Y-87440097D03*
D11*
X460997000Y-92520097D03*
D13*
X448832000Y-89980097D03*
X461759000Y-87440097D03*
D11*
X299720000Y-51400055D03*
D10*
X304800000Y-51400055D03*
D12*
X307340000Y-46320055D03*
D11*
X309880000Y-51400055D03*
D12*
X300990000Y-48860055D03*
D13*
X297715000Y-48860055D03*
X310642000Y-46320055D03*
D12*
X281940000Y-48860055D03*
D10*
X285750000Y-51400055D03*
D11*
X280670000Y-51400055D03*
D12*
X288290000Y-46320055D03*
D11*
X290830000Y-51400055D03*
D13*
X278665000Y-48860055D03*
X291592000Y-46320055D03*
D11*
X474967000Y-149120160D03*
D12*
X477507000Y-150390160D03*
D10*
X474967000Y-154200160D03*
D11*
X474967000Y-159280160D03*
D12*
X480047000Y-156740160D03*
D24*
X477507000Y-147115160D03*
X480047000Y-160042160D03*
D19*
X138080750Y-183015170D03*
D12*
X153828750Y-177300170D03*
D11*
X155098750Y-174760170D03*
D19*
X161956750Y-183015170D03*
D18*
X161956750Y-167775170D03*
X138080750Y-167775170D03*
D11*
X144938750Y-174760170D03*
D10*
X150018750Y-174760170D03*
D12*
X147478750Y-179840170D03*
D13*
X157103750Y-177300170D03*
X144176750Y-179840170D03*
D12*
X446390000Y-85800000D03*
D16*
X464035000Y-57900000D03*
D17*
X466575000Y-57900000D03*
D12*
X47620000Y-44730000D03*
D11*
X194945000Y-51400055D03*
D10*
X200025000Y-51400055D03*
D12*
X196215000Y-48860055D03*
X202565000Y-46320055D03*
D11*
X205105000Y-51400055D03*
D13*
X192940000Y-48860055D03*
X205867000Y-46320055D03*
D11*
X138430000Y-92520099D03*
D10*
X133350000Y-92520099D03*
D12*
X129540000Y-89980099D03*
D11*
X128270000Y-92520099D03*
D12*
X135890000Y-87440099D03*
D13*
X126265000Y-89980099D03*
X139192000Y-87440099D03*
D12*
X314350000Y-44430000D03*
D11*
X450837000Y-113080118D03*
D12*
X458457000Y-108000118D03*
D10*
X455917000Y-113080118D03*
D12*
X452107000Y-110540118D03*
D11*
X460997000Y-113080118D03*
D13*
X448832000Y-110540118D03*
X461759000Y-108000118D03*
D10*
X228600000Y-92520099D03*
D12*
X224790000Y-89980099D03*
X231140000Y-87440099D03*
D11*
X233680000Y-92520099D03*
X223520000Y-92520099D03*
D13*
X221515000Y-89980099D03*
X234442000Y-87440099D03*
D12*
X90490000Y-147810000D03*
X414007000Y-131100139D03*
X420357000Y-128560139D03*
D11*
X412737000Y-133640139D03*
D10*
X417817000Y-133640139D03*
D11*
X422897000Y-133640139D03*
D13*
X410732000Y-131100139D03*
X423659000Y-128560139D03*
D11*
X267017500Y-133640143D03*
D12*
X258127500Y-131100143D03*
X264477500Y-128560143D03*
D10*
X261937500Y-133640143D03*
D11*
X256857500Y-133640143D03*
D13*
X254852500Y-131100143D03*
X267779500Y-128560143D03*
D12*
X303371250Y-151660150D03*
D18*
X319119250Y-147215150D03*
D10*
X307181250Y-154200150D03*
D19*
X295243250Y-162455150D03*
X319119250Y-162455150D03*
D11*
X302101250Y-154200150D03*
D12*
X309721250Y-149120150D03*
D18*
X295243250Y-147215150D03*
D11*
X312261250Y-154200150D03*
D13*
X300096250Y-151660150D03*
X313023250Y-149120150D03*
D19*
X466712000Y-152542176D03*
D12*
X471157000Y-161940176D03*
D10*
X474967000Y-164480176D03*
D23*
X481952000Y-176418176D03*
D19*
X466712000Y-176418176D03*
D23*
X481952000Y-152542176D03*
D11*
X480047000Y-164480176D03*
D12*
X477507000Y-159400176D03*
D11*
X469887000Y-164480176D03*
D13*
X467882000Y-161940176D03*
X480809000Y-159400176D03*
D12*
X84772500Y-156740165D03*
D11*
X86042500Y-154200165D03*
D12*
X78422500Y-159280165D03*
D11*
X75882500Y-154200165D03*
D10*
X80962500Y-154200165D03*
D13*
X88047500Y-156740165D03*
X75120500Y-159280165D03*
D12*
X484610000Y-147830000D03*
D11*
X356863500Y-92520097D03*
D12*
X347973500Y-89980097D03*
X354323500Y-87440097D03*
D11*
X346703500Y-92520097D03*
D10*
X351783500Y-92520097D03*
D13*
X344698500Y-89980097D03*
X357625500Y-87440097D03*
D12*
X215265000Y-48860055D03*
X221615000Y-46320055D03*
D11*
X213995000Y-51400055D03*
D10*
X219075000Y-51400055D03*
D11*
X224155000Y-51400055D03*
D13*
X211990000Y-48860055D03*
X224917000Y-46320055D03*
D19*
X185705750Y-183015170D03*
D11*
X192563750Y-174760170D03*
D12*
X195103750Y-179840170D03*
D18*
X185705750Y-167775170D03*
D19*
X209581750Y-183015170D03*
D12*
X201453750Y-177300170D03*
D11*
X202723750Y-174760170D03*
D10*
X197643750Y-174760170D03*
D18*
X209581750Y-167775170D03*
D13*
X204728750Y-177300170D03*
X191801750Y-179840170D03*
D12*
X123820000Y-44560000D03*
X440677000Y-177300181D03*
X434327000Y-179840181D03*
D11*
X431787000Y-174760181D03*
D10*
X436867000Y-174760181D03*
D11*
X441947000Y-174760181D03*
D13*
X443952000Y-177300181D03*
X431025000Y-179840181D03*
D14*
X421717000Y-100838000D03*
D15*
X419167000Y-100838000D03*
X416467000Y-100838000D03*
D14*
X413917000Y-100838000D03*
D12*
X399300000Y-189070000D03*
D10*
X290512500Y-154200150D03*
D12*
X294322500Y-156740150D03*
D11*
X295592500Y-154200150D03*
X285432500Y-154200150D03*
D12*
X287972500Y-159280150D03*
D13*
X297597500Y-156740150D03*
X284670500Y-159280150D03*
D12*
X97790000Y-46320055D03*
D11*
X100330000Y-51400055D03*
X90170000Y-51400055D03*
D10*
X95250000Y-51400055D03*
D12*
X91440000Y-48860055D03*
D13*
X88165000Y-48860055D03*
X101092000Y-46320055D03*
D12*
X47730000Y-189240000D03*
D11*
X162242500Y-154200165D03*
D12*
X159702500Y-149120165D03*
D10*
X157162500Y-154200165D03*
D11*
X152082500Y-154200165D03*
D12*
X153352500Y-151660165D03*
D13*
X150077500Y-151660165D03*
X163004500Y-149120165D03*
D20*
X346183500Y-51400055D03*
X357383500Y-51400055D03*
D21*
X349283500Y-58900055D03*
D22*
X354283500Y-58900055D03*
X351783500Y-58900055D03*
X354283500Y-44400055D03*
X349283500Y-44400055D03*
D12*
X142960000Y-168420000D03*
D15*
X416690000Y-62992000D03*
D14*
X419240000Y-62992000D03*
D15*
X413990000Y-62992000D03*
D14*
X411440000Y-62992000D03*
D11*
X480047000Y-133640139D03*
D12*
X477507000Y-128560139D03*
D11*
X469887000Y-133640139D03*
D12*
X471157000Y-131100139D03*
D10*
X474967000Y-133640139D03*
D13*
X467882000Y-131100139D03*
X480809000Y-128560139D03*
D12*
X342260000Y-188990000D03*
X281010000Y-147630000D03*
D10*
X238125000Y-113080121D03*
D12*
X234315000Y-110540121D03*
D11*
X233045000Y-113080121D03*
D12*
X240665000Y-108000121D03*
D11*
X243205000Y-113080121D03*
D13*
X231040000Y-110540121D03*
X243967000Y-108000121D03*
D12*
X63341250Y-156740165D03*
D11*
X54451250Y-154200165D03*
D10*
X59531250Y-154200165D03*
D11*
X64611250Y-154200165D03*
D12*
X56991250Y-159280165D03*
D13*
X66616250Y-156740165D03*
X53689250Y-159280165D03*
D11*
X109220000Y-51400055D03*
D10*
X114300000Y-51400055D03*
D12*
X110490000Y-48860055D03*
D11*
X119380000Y-51400055D03*
D12*
X116840000Y-46320055D03*
D13*
X107215000Y-48860055D03*
X120142000Y-46320055D03*
D11*
X157480000Y-92520099D03*
D10*
X152400000Y-92520099D03*
D11*
X147320000Y-92520099D03*
D12*
X154940000Y-87440099D03*
X148590000Y-89980099D03*
D13*
X145315000Y-89980099D03*
X158242000Y-87440099D03*
D12*
X49990000Y-106590000D03*
D10*
X389883500Y-51400055D03*
D11*
X384803500Y-51400055D03*
D12*
X386073500Y-48860055D03*
X392423500Y-46320055D03*
D11*
X394963500Y-51400055D03*
D13*
X382798500Y-48860055D03*
X395725500Y-46320055D03*
D18*
X250063000Y-167775170D03*
D11*
X243205000Y-174760170D03*
D18*
X226187000Y-167775170D03*
D12*
X235585000Y-179840170D03*
D11*
X233045000Y-174760170D03*
D10*
X238125000Y-174760170D03*
D12*
X241935000Y-177300170D03*
D19*
X250063000Y-183015170D03*
X226187000Y-183015170D03*
D13*
X245210000Y-177300170D03*
X232283000Y-179840170D03*
D11*
X119380000Y-92520099D03*
D10*
X114300000Y-92520099D03*
D12*
X110490000Y-89980099D03*
X116840000Y-87440099D03*
D11*
X109220000Y-92520099D03*
D13*
X107215000Y-89980099D03*
X120142000Y-87440099D03*
D12*
X484610000Y-85840000D03*
X240665000Y-46320055D03*
D11*
X243205000Y-51400055D03*
X233045000Y-51400055D03*
D12*
X234315000Y-48860055D03*
D10*
X238125000Y-51400055D03*
D13*
X231040000Y-48860055D03*
X243967000Y-46320055D03*
D10*
X436867000Y-92520097D03*
D12*
X439407000Y-87440097D03*
D11*
X441947000Y-92520097D03*
X431787000Y-92520097D03*
D12*
X433057000Y-89980097D03*
D13*
X429782000Y-89980097D03*
X442709000Y-87440097D03*
D11*
X290830000Y-92520099D03*
D12*
X281940000Y-89980099D03*
D10*
X285750000Y-92520099D03*
D12*
X288290000Y-87440099D03*
D11*
X280670000Y-92520099D03*
D13*
X278665000Y-89980099D03*
X291592000Y-87440099D03*
D12*
X399630000Y-44480000D03*
D11*
X394963500Y-113080118D03*
D10*
X389883500Y-113080118D03*
D12*
X392423500Y-108000118D03*
D11*
X384803500Y-113080118D03*
D12*
X386073500Y-110540118D03*
D13*
X382798500Y-110540118D03*
X395725500Y-108000118D03*
D12*
X309580000Y-168330000D03*
D11*
X104457500Y-133640143D03*
D12*
X105727500Y-131100143D03*
D10*
X109537500Y-133640143D03*
D12*
X112077500Y-128560143D03*
D11*
X114617500Y-133640143D03*
D13*
X102452500Y-131100143D03*
X115379500Y-128560143D03*
D12*
X123830000Y-85790000D03*
X408300000Y-106420000D03*
D11*
X271145000Y-113080121D03*
D12*
X278765000Y-108000121D03*
D10*
X276225000Y-113080121D03*
D12*
X272415000Y-110540121D03*
D11*
X281305000Y-113080121D03*
D13*
X269140000Y-110540121D03*
X282067000Y-108000121D03*
D11*
X441947000Y-113080118D03*
X431787000Y-113080118D03*
D12*
X439407000Y-108000118D03*
X433057000Y-110540118D03*
D10*
X436867000Y-113080118D03*
D13*
X429782000Y-110540118D03*
X442709000Y-108000118D03*
D10*
X455917000Y-154200160D03*
D11*
X460997000Y-154200160D03*
D12*
X452107000Y-151660160D03*
D11*
X450837000Y-154200160D03*
D12*
X458457000Y-149120160D03*
D13*
X448832000Y-151660160D03*
X461759000Y-149120160D03*
D11*
X52070000Y-92520097D03*
D12*
X59690000Y-87440097D03*
D10*
X57150000Y-92520097D03*
D12*
X53340000Y-89980097D03*
D11*
X62230000Y-92520097D03*
D13*
X50065000Y-89980097D03*
X62992000Y-87440097D03*
D10*
X351783500Y-113080118D03*
D11*
X356863500Y-113080118D03*
D12*
X347973500Y-110540118D03*
X354323500Y-108000118D03*
D11*
X346703500Y-113080118D03*
D13*
X344698500Y-110540118D03*
X357625500Y-108000118D03*
D12*
X423532000Y-172220181D03*
D11*
X422262000Y-174760181D03*
D18*
X439280000Y-167775181D03*
X415404000Y-167775181D03*
D12*
X429882000Y-169680181D03*
D10*
X427342000Y-174760181D03*
D19*
X439280000Y-183015181D03*
D11*
X432422000Y-174760181D03*
D19*
X415404000Y-183015181D03*
D13*
X420257000Y-172220181D03*
X433184000Y-169680181D03*
D11*
X441947000Y-154200160D03*
X431787000Y-154200160D03*
D12*
X439407000Y-149120160D03*
D10*
X436867000Y-154200160D03*
D12*
X433057000Y-151660160D03*
D13*
X429782000Y-151660160D03*
X442709000Y-149120160D03*
D12*
X96202500Y-151660165D03*
D11*
X105092500Y-154200165D03*
D12*
X102552500Y-149120165D03*
D10*
X100012500Y-154200165D03*
D11*
X94932500Y-154200165D03*
D13*
X92927500Y-151660165D03*
X105854500Y-149120165D03*
D12*
X150177500Y-128560143D03*
D11*
X152717500Y-133640143D03*
X142557500Y-133640143D03*
D10*
X147637500Y-133640143D03*
D12*
X143827500Y-131100143D03*
D13*
X140552500Y-131100143D03*
X153479500Y-128560143D03*
D11*
X356863500Y-174760188D03*
X346703500Y-174760188D03*
D12*
X354323500Y-169680188D03*
X347973500Y-172220188D03*
D10*
X351783500Y-174760188D03*
D13*
X344698500Y-172220188D03*
X357625500Y-169680188D03*
D10*
X474967000Y-113080110D03*
D11*
X474967000Y-118160110D03*
D12*
X480047000Y-115620110D03*
X477507000Y-109270110D03*
D11*
X474967000Y-108000110D03*
D24*
X477507000Y-105995110D03*
X480047000Y-118922110D03*
D10*
X370833500Y-174760188D03*
D11*
X365753500Y-174760188D03*
X375913500Y-174760188D03*
D12*
X373373500Y-169680188D03*
X367023500Y-172220188D03*
D13*
X363748500Y-172220188D03*
X376675500Y-169680188D03*
D11*
X175895000Y-113080121D03*
D12*
X183515000Y-108000121D03*
D10*
X180975000Y-113080121D03*
D12*
X177165000Y-110540121D03*
D11*
X186055000Y-113080121D03*
D13*
X173890000Y-110540121D03*
X186817000Y-108000121D03*
D12*
X219120000Y-65050000D03*
D11*
X309880000Y-92520090D03*
D10*
X304800000Y-92520090D03*
D11*
X299720000Y-92520090D03*
D12*
X302260000Y-97600090D03*
X308610000Y-95060090D03*
D13*
X311885000Y-95060090D03*
X298958000Y-97600090D03*
D12*
X342260000Y-147600000D03*
D20*
X384283500Y-51400055D03*
X395483500Y-51400055D03*
D21*
X387383500Y-58900055D03*
D22*
X392383500Y-58900055D03*
X389883500Y-58900055D03*
X392383500Y-44400055D03*
X387383500Y-44400055D03*
D11*
X257492500Y-154200165D03*
D10*
X252412500Y-154200165D03*
D12*
X248602500Y-151660165D03*
X254952500Y-149120165D03*
D11*
X247332500Y-154200165D03*
D13*
X245327500Y-151660165D03*
X258254500Y-149120165D03*
D11*
X469887000Y-92520097D03*
D10*
X474967000Y-92520097D03*
D12*
X477507000Y-87440097D03*
X471157000Y-89980097D03*
D11*
X480047000Y-92520097D03*
D13*
X467882000Y-89980097D03*
X480809000Y-87440097D03*
D12*
X257190000Y-44450000D03*
X134302500Y-151660165D03*
D11*
X133032500Y-154200165D03*
X143192500Y-154200165D03*
D10*
X138112500Y-154200165D03*
D12*
X140652500Y-149120165D03*
D13*
X131027500Y-151660165D03*
X143954500Y-149120165D03*
D11*
X460997000Y-174760187D03*
D10*
X455917000Y-174760187D03*
D12*
X452107000Y-172220187D03*
D11*
X450837000Y-174760187D03*
D12*
X458457000Y-169680187D03*
D13*
X448832000Y-172220187D03*
X461759000Y-169680187D03*
D12*
X342260000Y-106340000D03*
X167070000Y-189010000D03*
D11*
X314007500Y-113080121D03*
D12*
X321627500Y-108000121D03*
X315277500Y-110540121D03*
D10*
X319087500Y-113080121D03*
D11*
X324167500Y-113080121D03*
D13*
X312002500Y-110540121D03*
X324929500Y-108000121D03*
D12*
X243290000Y-168340000D03*
X178752500Y-149120165D03*
D11*
X171132500Y-154200165D03*
D12*
X172402500Y-151660165D03*
D10*
X176212500Y-154200165D03*
D11*
X181292500Y-154200165D03*
D13*
X169127500Y-151660165D03*
X182054500Y-149120165D03*
D12*
X484610000Y-168580000D03*
D11*
X261620000Y-51400055D03*
D12*
X262890000Y-48860055D03*
X269240000Y-46320055D03*
D11*
X271780000Y-51400055D03*
D10*
X266700000Y-51400055D03*
D13*
X259615000Y-48860055D03*
X272542000Y-46320055D03*
D12*
X317658750Y-120820120D03*
D23*
X314483750Y-111422120D03*
D12*
X324008750Y-118280120D03*
D19*
X329723750Y-111422120D03*
X329723750Y-135298120D03*
D11*
X316388750Y-123360120D03*
X326548750Y-123360120D03*
D10*
X321468750Y-123360120D03*
D23*
X314483750Y-135298120D03*
D13*
X314383750Y-120820120D03*
X327310750Y-118280120D03*
D10*
X271462500Y-154200165D03*
D11*
X276542500Y-154200165D03*
X266382500Y-154200165D03*
D12*
X274002500Y-149120165D03*
X267652500Y-151660165D03*
D13*
X264377500Y-151660165D03*
X277304500Y-149120165D03*
D12*
X195270000Y-127260000D03*
D10*
X64293750Y-133640130D03*
D11*
X69373750Y-133640130D03*
X59213750Y-133640130D03*
D25*
X60483750Y-131100130D03*
X66833750Y-128560130D03*
D26*
X65563750Y-138720130D03*
D27*
X63023750Y-138720130D03*
D12*
X271470000Y-127240000D03*
D10*
X370833500Y-51400055D03*
D11*
X365753500Y-51400055D03*
X375913500Y-51400055D03*
D12*
X373373500Y-46320055D03*
X367023500Y-48860055D03*
D13*
X363748500Y-48860055D03*
X376675500Y-46320055D03*
D26*
X369563500Y-56480055D03*
D27*
X372103500Y-56480055D03*
D12*
X49970000Y-127500000D03*
X173990000Y-87440099D03*
D10*
X171450000Y-92520099D03*
D11*
X176530000Y-92520099D03*
D12*
X167640000Y-89980099D03*
D11*
X166370000Y-92520099D03*
D13*
X164365000Y-89980099D03*
X177292000Y-87440099D03*
D11*
X90170000Y-92520099D03*
D10*
X95250000Y-92520099D03*
D11*
X100330000Y-92520099D03*
D12*
X91440000Y-89980099D03*
X97790000Y-87440099D03*
D13*
X88165000Y-89980099D03*
X101092000Y-87440099D03*
D10*
X59531250Y-133640130D03*
D11*
X54451250Y-133640130D03*
X64611250Y-133640130D03*
D12*
X62071250Y-128560130D03*
X55721250Y-131100130D03*
D13*
X52446250Y-131100130D03*
X65373250Y-128560130D03*
D26*
X58261250Y-138720130D03*
D27*
X60801250Y-138720130D03*
D10*
X76200000Y-92520099D03*
D11*
X81280000Y-92520099D03*
D12*
X72390000Y-89980099D03*
X78740000Y-87440099D03*
D11*
X71120000Y-92520099D03*
D13*
X69115000Y-89980099D03*
X82042000Y-87440099D03*
D12*
X326390000Y-46320055D03*
D11*
X328930000Y-51400055D03*
X318770000Y-51400055D03*
D10*
X323850000Y-51400055D03*
D12*
X320040000Y-48860055D03*
D13*
X316765000Y-48860055D03*
X329692000Y-46320055D03*
D12*
X380360000Y-127300000D03*
D11*
X85407500Y-133640143D03*
D10*
X90487500Y-133640143D03*
D11*
X95567500Y-133640143D03*
D12*
X93027500Y-128560143D03*
X86677500Y-131100143D03*
D13*
X83402500Y-131100143D03*
X96329500Y-128560143D03*
D12*
X66680000Y-85890000D03*
X266750000Y-106310000D03*
X276310000Y-65040000D03*
X314340000Y-85650000D03*
D10*
X219075000Y-113080121D03*
D12*
X221615000Y-108000121D03*
X215265000Y-110540121D03*
D11*
X224155000Y-113080121D03*
X213995000Y-113080121D03*
D13*
X211990000Y-110540121D03*
X224917000Y-108000121D03*
D12*
X158115000Y-110540121D03*
D11*
X167005000Y-113080121D03*
D12*
X164465000Y-108000121D03*
D10*
X161925000Y-113080121D03*
D11*
X156845000Y-113080121D03*
D13*
X154840000Y-110540121D03*
X167767000Y-108000121D03*
D11*
X252730000Y-92520099D03*
D12*
X250190000Y-87440099D03*
X243840000Y-89980099D03*
D11*
X242570000Y-92520099D03*
D10*
X247650000Y-92520099D03*
D13*
X240565000Y-89980099D03*
X253492000Y-87440099D03*
D10*
X417817000Y-92520097D03*
D12*
X414007000Y-89980097D03*
D11*
X412737000Y-92520097D03*
X422897000Y-92520097D03*
D12*
X420357000Y-87440097D03*
D13*
X410732000Y-89980097D03*
X423659000Y-87440097D03*
D26*
X416547000Y-97600097D03*
D27*
X419087000Y-97600097D03*
D12*
X283527500Y-128560143D03*
X277177500Y-131100143D03*
D11*
X275907500Y-133640143D03*
X286067500Y-133640143D03*
D10*
X280987500Y-133640143D03*
D13*
X273902500Y-131100143D03*
X286829500Y-128560143D03*
D18*
X326263000Y-85535090D03*
D11*
X319405000Y-92520090D03*
D10*
X314325000Y-92520090D03*
D19*
X326263000Y-100775090D03*
D18*
X302387000Y-85535090D03*
D12*
X310515000Y-89980090D03*
D11*
X309245000Y-92520090D03*
D19*
X302387000Y-100775090D03*
D12*
X316865000Y-87440090D03*
D13*
X307240000Y-89980090D03*
X320167000Y-87440090D03*
D11*
X62230000Y-51400055D03*
D12*
X53340000Y-48860055D03*
D11*
X52070000Y-51400055D03*
D10*
X57150000Y-51400055D03*
D12*
X59690000Y-46320055D03*
D13*
X50065000Y-48860055D03*
X62992000Y-46320055D03*
D11*
X237807500Y-133640143D03*
D12*
X245427500Y-128560143D03*
D11*
X247967500Y-133640143D03*
D10*
X242887500Y-133640143D03*
D12*
X239077500Y-131100143D03*
D13*
X235802500Y-131100143D03*
X248729500Y-128560143D03*
D10*
X257175000Y-113080121D03*
D11*
X262255000Y-113080121D03*
D12*
X259715000Y-108000121D03*
D11*
X252095000Y-113080121D03*
D12*
X253365000Y-110540121D03*
D13*
X250090000Y-110540121D03*
X263017000Y-108000121D03*
D12*
X71780000Y-168560000D03*
D11*
X56832500Y-174760187D03*
D10*
X61912500Y-174760187D03*
D12*
X64452500Y-169680187D03*
X58102500Y-172220187D03*
D11*
X66992500Y-174760187D03*
D13*
X54827500Y-172220187D03*
X67754500Y-169680187D03*
D11*
X175895000Y-51400055D03*
D12*
X177165000Y-48860055D03*
X183515000Y-46320055D03*
D10*
X180975000Y-51400055D03*
D11*
X186055000Y-51400055D03*
D13*
X173890000Y-48860055D03*
X186817000Y-46320055D03*
D12*
X104790000Y-65230000D03*
D28*
X151450000Y-115848000D03*
X153350000Y-115848000D03*
X152400000Y-118848000D03*
X218252000Y-95274000D03*
X220152000Y-95274000D03*
X219202000Y-98274000D03*
X222824000Y-156996000D03*
X224724000Y-156996000D03*
X223774000Y-159996000D03*
X251526000Y-136422000D03*
X253426000Y-136422000D03*
X252476000Y-139422000D03*
X142052000Y-95274000D03*
X143952000Y-95274000D03*
X143002000Y-98274000D03*
X84902000Y-95274000D03*
X86802000Y-95274000D03*
X85852000Y-98274000D03*
X94300000Y-115848000D03*
X96200000Y-115848000D03*
X95250000Y-118848000D03*
X232476000Y-136422000D03*
X234376000Y-136422000D03*
X233426000Y-139422000D03*
X65852000Y-95274000D03*
X67752000Y-95274000D03*
X66802000Y-98274000D03*
X146624000Y-156996000D03*
X148524000Y-156996000D03*
X147574000Y-159996000D03*
X445582000Y-115848000D03*
X447482000Y-115848000D03*
X446532000Y-118848000D03*
X189550000Y-54126000D03*
X191450000Y-54126000D03*
X190500000Y-57126000D03*
X246700000Y-115848000D03*
X248600000Y-115848000D03*
X247650000Y-118848000D03*
X379542000Y-180110000D03*
X381442000Y-180110000D03*
X380492000Y-183110000D03*
X170500000Y-115848000D03*
X172400000Y-115848000D03*
X171450000Y-118848000D03*
X251526000Y-54126000D03*
X253426000Y-54126000D03*
X252476000Y-57126000D03*
X360492000Y-54126000D03*
X362392000Y-54126000D03*
X361442000Y-57126000D03*
X294198000Y-95274000D03*
X296098000Y-95274000D03*
X295148000Y-98274000D03*
X301056000Y-156996000D03*
X302956000Y-156996000D03*
X302006000Y-159996000D03*
X386146000Y-161060000D03*
X388046000Y-161060000D03*
X387096000Y-164060000D03*
X103952000Y-54126000D03*
X105852000Y-54126000D03*
X104902000Y-57126000D03*
X92268000Y-158774000D03*
X94168000Y-158774000D03*
X93218000Y-161774000D03*
X161102000Y-95274000D03*
X163002000Y-95274000D03*
X162052000Y-98274000D03*
X275402000Y-54126000D03*
X277302000Y-54126000D03*
X276352000Y-57126000D03*
X400116000Y-166394000D03*
X402016000Y-166394000D03*
X401066000Y-169394000D03*
X71694000Y-177570000D03*
X73594000Y-177570000D03*
X72644000Y-180570000D03*
X445582000Y-156996000D03*
X447482000Y-156996000D03*
X446532000Y-159996000D03*
X75250000Y-115848000D03*
X77150000Y-115848000D03*
X76200000Y-118848000D03*
X165928000Y-54126000D03*
X167828000Y-54126000D03*
X166878000Y-57126000D03*
X165674000Y-156996000D03*
X167574000Y-156996000D03*
X166624000Y-159996000D03*
X303850000Y-115848000D03*
X305750000Y-115848000D03*
X304800000Y-118848000D03*
X177866000Y-177316000D03*
X179766000Y-177316000D03*
X178816000Y-180316000D03*
X256352000Y-177570000D03*
X258252000Y-177570000D03*
X257302000Y-180570000D03*
X313502000Y-98322000D03*
X315402000Y-98322000D03*
X314452000Y-101322000D03*
X445582000Y-136422000D03*
X447482000Y-136422000D03*
X446532000Y-139422000D03*
X156276000Y-136422000D03*
X158176000Y-136422000D03*
X157226000Y-139422000D03*
X75250000Y-136422000D03*
X77150000Y-136422000D03*
X76200000Y-139422000D03*
X426532000Y-115848000D03*
X428432000Y-115848000D03*
X427482000Y-118848000D03*
X336870000Y-54126000D03*
X338770000Y-54126000D03*
X337820000Y-57126000D03*
X337378000Y-134898000D03*
X339278000Y-134898000D03*
X338328000Y-137898000D03*
X241874000Y-156996000D03*
X243774000Y-156996000D03*
X242824000Y-159996000D03*
X227650000Y-115848000D03*
X229550000Y-115848000D03*
X228600000Y-118848000D03*
X337378000Y-115848000D03*
X339278000Y-115848000D03*
X338328000Y-118848000D03*
X445582000Y-95274000D03*
X447482000Y-95274000D03*
X446532000Y-98274000D03*
X360492000Y-177570000D03*
X362392000Y-177570000D03*
X361442000Y-180570000D03*
X426532000Y-156996000D03*
X428432000Y-156996000D03*
X427482000Y-159996000D03*
X99126000Y-136422000D03*
X101026000Y-136422000D03*
X100076000Y-139422000D03*
X310200000Y-138454000D03*
X312100000Y-138454000D03*
X311150000Y-141454000D03*
X337378000Y-156234000D03*
X339278000Y-156234000D03*
X338328000Y-159234000D03*
X237302000Y-95274000D03*
X239202000Y-95274000D03*
X238252000Y-98274000D03*
X426532000Y-95274000D03*
X428432000Y-95274000D03*
X427482000Y-98274000D03*
X426532000Y-136422000D03*
X428432000Y-136422000D03*
X427482000Y-139422000D03*
X69408000Y-160552000D03*
X71308000Y-160552000D03*
X70358000Y-163552000D03*
X175326000Y-136422000D03*
X177226000Y-136422000D03*
X176276000Y-139422000D03*
X75250000Y-54126000D03*
X77150000Y-54126000D03*
X76200000Y-57126000D03*
M02*
