G04 #@! TF.GenerationSoftware,KiCad,Pcbnew,(6.0.1-0)*
G04 #@! TF.CreationDate,2023-04-19T14:24:50-07:00*
G04 #@! TF.ProjectId,pcb,7063622e-6b69-4636-9164-5f7063625858,rev?*
G04 #@! TF.SameCoordinates,Original*
G04 #@! TF.FileFunction,Soldermask,Top*
G04 #@! TF.FilePolarity,Negative*
%FSLAX46Y46*%
G04 Gerber Fmt 4.6, Leading zero omitted, Abs format (unit mm)*
G04 Created by KiCad (PCBNEW (6.0.1-0)) date 2023-04-19 14:24:50*
%MOMM*%
%LPD*%
G01*
G04 APERTURE LIST*
%ADD10C,3.987800*%
%ADD11C,1.750000*%
%ADD12C,3.000000*%
%ADD13C,1.600000*%
%ADD14R,1.800000X1.800000*%
%ADD15C,1.800000*%
%ADD16C,3.048000*%
%ADD17O,3.987800X4.387800*%
%ADD18O,2.000000X3.200000*%
%ADD19R,2.000000X2.000000*%
%ADD20C,2.000000*%
%ADD21O,3.048000X3.448000*%
%ADD22R,0.610000X2.000000*%
%ADD23R,2.680000X3.600000*%
G04 APERTURE END LIST*
D10*
X316706250Y-154200150D03*
D11*
X311626250Y-154200150D03*
D12*
X314166250Y-159280150D03*
D11*
X321786250Y-154200150D03*
D12*
X320516250Y-156740150D03*
D13*
X444150000Y-62992000D03*
X436350000Y-62992000D03*
D11*
X209867500Y-133640143D03*
D10*
X204787500Y-133640143D03*
D12*
X207327500Y-128560143D03*
D11*
X199707500Y-133640143D03*
D12*
X200977500Y-131100143D03*
X190500000Y-106330000D03*
X367023500Y-89980097D03*
D11*
X365753500Y-92520097D03*
X375913500Y-92520097D03*
D10*
X370833500Y-92520097D03*
D12*
X373373500Y-87440097D03*
X66680000Y-65300000D03*
D14*
X438975000Y-57900000D03*
D15*
X441515000Y-57900000D03*
D11*
X147320000Y-51400055D03*
D12*
X154940000Y-46320055D03*
D10*
X152400000Y-51400055D03*
D12*
X148590000Y-48860055D03*
D11*
X157480000Y-51400055D03*
D10*
X195262500Y-154200165D03*
D12*
X197802500Y-149120165D03*
D11*
X190182500Y-154200165D03*
X200342500Y-154200165D03*
D12*
X191452500Y-151660165D03*
D11*
X412737000Y-174760181D03*
X422897000Y-174760181D03*
D10*
X417817000Y-174760181D03*
D12*
X421627000Y-177300181D03*
X415277000Y-179840181D03*
X200190000Y-168330000D03*
D13*
X65876000Y-141986000D03*
X58076000Y-141986000D03*
D11*
X317023750Y-133640130D03*
D16*
X300005750Y-126655130D03*
D12*
X314483750Y-128560130D03*
D11*
X306863750Y-133640130D03*
D16*
X323881750Y-126655130D03*
D12*
X308133750Y-131100130D03*
D17*
X300005750Y-141895130D03*
D10*
X311943750Y-133640130D03*
D17*
X323881750Y-141895130D03*
D12*
X342260000Y-127280000D03*
X380360000Y-85690000D03*
D10*
X185737500Y-133640143D03*
D11*
X180657500Y-133640143D03*
D12*
X181927500Y-131100143D03*
D11*
X190817500Y-133640143D03*
D12*
X188277500Y-128560143D03*
D13*
X374733500Y-62484000D03*
X366933500Y-62484000D03*
D12*
X166690000Y-147640000D03*
D11*
X469887000Y-174760187D03*
D10*
X474967000Y-174760187D03*
D12*
X477507000Y-169680187D03*
D11*
X480047000Y-174760187D03*
D12*
X471157000Y-172220187D03*
D11*
X431787000Y-133640139D03*
D12*
X433057000Y-131100139D03*
D10*
X436867000Y-133640139D03*
D12*
X439407000Y-128560139D03*
D11*
X441947000Y-133640139D03*
D12*
X115252500Y-151660165D03*
D10*
X119062500Y-154200165D03*
D11*
X113982500Y-154200165D03*
D12*
X121602500Y-149120165D03*
D11*
X124142500Y-154200165D03*
D10*
X85725000Y-113080121D03*
D11*
X90805000Y-113080121D03*
D12*
X81915000Y-110540121D03*
D11*
X80645000Y-113080121D03*
D12*
X88265000Y-108000121D03*
X105727500Y-172220187D03*
D10*
X109537500Y-174760187D03*
D11*
X114617500Y-174760187D03*
D12*
X112077500Y-169680187D03*
D11*
X104457500Y-174760187D03*
D12*
X414007000Y-151660160D03*
X420357000Y-149120160D03*
D11*
X422897000Y-154200160D03*
D10*
X417817000Y-154200160D03*
D11*
X412737000Y-154200160D03*
X238442500Y-154200165D03*
X228282500Y-154200165D03*
D12*
X229552500Y-151660165D03*
X235902500Y-149120165D03*
D10*
X233362500Y-154200165D03*
D18*
X376433500Y-51400055D03*
X365233500Y-51400055D03*
D19*
X368333500Y-58900055D03*
D20*
X373333500Y-58900055D03*
X370833500Y-58900055D03*
X373333500Y-44400055D03*
X368333500Y-44400055D03*
D11*
X450837000Y-133640139D03*
D12*
X458457000Y-128560139D03*
D11*
X460997000Y-133640139D03*
D10*
X455917000Y-133640139D03*
D12*
X452107000Y-131100139D03*
X71596250Y-149120150D03*
D10*
X69056250Y-154200150D03*
D16*
X57118250Y-147215150D03*
D17*
X57118250Y-162455150D03*
D11*
X63976250Y-154200150D03*
X74136250Y-154200150D03*
D16*
X80994250Y-147215150D03*
D17*
X80994250Y-162455150D03*
D12*
X65246250Y-151660150D03*
X90870000Y-189180000D03*
X380360000Y-65090000D03*
X283700000Y-188980000D03*
D10*
X104775000Y-113080121D03*
D12*
X100965000Y-110540121D03*
X107315000Y-108000121D03*
D11*
X109855000Y-113080121D03*
X99695000Y-113080121D03*
D12*
X193040000Y-87440099D03*
X186690000Y-89980099D03*
D11*
X185420000Y-92520099D03*
X195580000Y-92520099D03*
D10*
X190500000Y-92520099D03*
D12*
X238210000Y-189010000D03*
D10*
X128587500Y-133640143D03*
D12*
X124777500Y-131100143D03*
D11*
X123507500Y-133640143D03*
X133667500Y-133640143D03*
D12*
X131127500Y-128560143D03*
X484610000Y-127460000D03*
D11*
X384803500Y-174760188D03*
X394963500Y-174760188D03*
D12*
X392423500Y-169680188D03*
D10*
X389883500Y-174760188D03*
D12*
X386073500Y-172220188D03*
D10*
X474967000Y-123360132D03*
D17*
X466712000Y-111422132D03*
D11*
X469887000Y-123360132D03*
D17*
X466712000Y-135298132D03*
D21*
X481952000Y-135298132D03*
D11*
X480047000Y-123360132D03*
D21*
X481952000Y-111422132D03*
D12*
X477507000Y-118280132D03*
X471157000Y-120820132D03*
X202565000Y-108000121D03*
D11*
X205105000Y-113080121D03*
D12*
X196215000Y-110540121D03*
D10*
X200025000Y-113080121D03*
D11*
X194945000Y-113080121D03*
D12*
X427350000Y-127400000D03*
X392423500Y-87440097D03*
D11*
X394963500Y-92520097D03*
D10*
X389883500Y-92520097D03*
D12*
X386073500Y-89980097D03*
D11*
X384803500Y-92520097D03*
D13*
X469210000Y-62992000D03*
X461410000Y-62992000D03*
D10*
X61912500Y-113080121D03*
D11*
X56832500Y-113080121D03*
D12*
X64452500Y-108000121D03*
X58102500Y-110540121D03*
D11*
X66992500Y-113080121D03*
D12*
X238130000Y-85660000D03*
D11*
X209232500Y-154200165D03*
D12*
X216852500Y-149120165D03*
D10*
X214312500Y-154200165D03*
D12*
X210502500Y-151660165D03*
D11*
X219392500Y-154200165D03*
D12*
X226377500Y-128560143D03*
D11*
X218757500Y-133640143D03*
X228917500Y-133640143D03*
D10*
X223837500Y-133640143D03*
D12*
X220027500Y-131100143D03*
X313320000Y-65040000D03*
X380360000Y-168380000D03*
X204800000Y-147580000D03*
X342260000Y-168330000D03*
X327660000Y-95060099D03*
D10*
X323850000Y-92520099D03*
D11*
X318770000Y-92520099D03*
X328930000Y-92520099D03*
D12*
X321310000Y-97600099D03*
D14*
X414065000Y-57880000D03*
D15*
X416605000Y-57880000D03*
D12*
X408280000Y-147700000D03*
D11*
X375913500Y-113080118D03*
X365753500Y-113080118D03*
D12*
X367023500Y-110540118D03*
D10*
X370833500Y-113080118D03*
D12*
X373373500Y-108000118D03*
X180980000Y-85670000D03*
D10*
X209550000Y-92520099D03*
D11*
X204470000Y-92520099D03*
D12*
X205740000Y-89980099D03*
X212090000Y-87440099D03*
D11*
X214630000Y-92520099D03*
D12*
X139065000Y-110540121D03*
D10*
X142875000Y-113080121D03*
D11*
X137795000Y-113080121D03*
D12*
X145415000Y-108000121D03*
D11*
X147955000Y-113080121D03*
D12*
X161970000Y-65120000D03*
X186690000Y-172220170D03*
X193040000Y-169680170D03*
D16*
X133350000Y-167775170D03*
D17*
X133350000Y-183015170D03*
D10*
X190500000Y-174760170D03*
D11*
X185420000Y-174760170D03*
X195580000Y-174760170D03*
D17*
X247650000Y-183015170D03*
D16*
X247650000Y-167775170D03*
D10*
X351783500Y-51400055D03*
D12*
X354323500Y-46320055D03*
D11*
X356863500Y-51400055D03*
D12*
X347973500Y-48860055D03*
D11*
X346703500Y-51400055D03*
X300355000Y-113080121D03*
X290195000Y-113080121D03*
D12*
X291465000Y-110540121D03*
D10*
X295275000Y-113080121D03*
D12*
X297815000Y-108000121D03*
D11*
X314007500Y-174760187D03*
D12*
X321627500Y-169680187D03*
D10*
X319087500Y-174760187D03*
D11*
X324167500Y-174760187D03*
D12*
X315277500Y-172220187D03*
D11*
X138430000Y-51400055D03*
D12*
X129540000Y-48860055D03*
D10*
X133350000Y-51400055D03*
D12*
X135890000Y-46320055D03*
D11*
X128270000Y-51400055D03*
D12*
X269240000Y-87440099D03*
X262890000Y-89980099D03*
D11*
X261620000Y-92520099D03*
D10*
X266700000Y-92520099D03*
D11*
X271780000Y-92520099D03*
D12*
X484610000Y-189200000D03*
X171460000Y-44480000D03*
D11*
X375913500Y-154200167D03*
D10*
X370833500Y-154200167D03*
D12*
X373373500Y-149120167D03*
D11*
X365753500Y-154200167D03*
D12*
X367023500Y-151660167D03*
D11*
X266382500Y-174760187D03*
D12*
X267652500Y-172220187D03*
D11*
X276542500Y-174760187D03*
D12*
X274002500Y-169680187D03*
D10*
X271462500Y-174760187D03*
D12*
X297497500Y-138720143D03*
D11*
X294957500Y-133640143D03*
D10*
X300037500Y-133640143D03*
D12*
X303847500Y-136180143D03*
D11*
X305117500Y-133640143D03*
X171767500Y-133640143D03*
D10*
X166687500Y-133640143D03*
D12*
X169227500Y-128560143D03*
X162877500Y-131100143D03*
D11*
X161607500Y-133640143D03*
D12*
X119070000Y-127420000D03*
X114310000Y-106470000D03*
X414007000Y-110540118D03*
D11*
X422897000Y-113080118D03*
D12*
X420357000Y-108000118D03*
D10*
X417817000Y-113080118D03*
D11*
X412737000Y-113080118D03*
D10*
X123825000Y-113080121D03*
D12*
X126365000Y-108000121D03*
D11*
X128905000Y-113080121D03*
D12*
X120015000Y-110540121D03*
D11*
X118745000Y-113080121D03*
D12*
X452107000Y-89980097D03*
D11*
X450837000Y-92520097D03*
D10*
X455917000Y-92520097D03*
D12*
X458457000Y-87440097D03*
D11*
X460997000Y-92520097D03*
X299720000Y-51400055D03*
D10*
X304800000Y-51400055D03*
D12*
X307340000Y-46320055D03*
D11*
X309880000Y-51400055D03*
D12*
X300990000Y-48860055D03*
X281940000Y-48860055D03*
D10*
X285750000Y-51400055D03*
D11*
X280670000Y-51400055D03*
D12*
X288290000Y-46320055D03*
D11*
X290830000Y-51400055D03*
X474967000Y-149120160D03*
D12*
X477507000Y-150390160D03*
D10*
X474967000Y-154200160D03*
D11*
X474967000Y-159280160D03*
D12*
X480047000Y-156740160D03*
D17*
X138080750Y-183015170D03*
D12*
X153828750Y-177300170D03*
D11*
X155098750Y-174760170D03*
D17*
X161956750Y-183015170D03*
D16*
X161956750Y-167775170D03*
X138080750Y-167775170D03*
D11*
X144938750Y-174760170D03*
D10*
X150018750Y-174760170D03*
D12*
X147478750Y-179840170D03*
X446390000Y-85800000D03*
D14*
X464035000Y-57900000D03*
D15*
X466575000Y-57900000D03*
D12*
X47620000Y-44730000D03*
D11*
X194945000Y-51400055D03*
D10*
X200025000Y-51400055D03*
D12*
X196215000Y-48860055D03*
X202565000Y-46320055D03*
D11*
X205105000Y-51400055D03*
X138430000Y-92520099D03*
D10*
X133350000Y-92520099D03*
D12*
X129540000Y-89980099D03*
D11*
X128270000Y-92520099D03*
D12*
X135890000Y-87440099D03*
X314350000Y-44430000D03*
D11*
X450837000Y-113080118D03*
D12*
X458457000Y-108000118D03*
D10*
X455917000Y-113080118D03*
D12*
X452107000Y-110540118D03*
D11*
X460997000Y-113080118D03*
D10*
X228600000Y-92520099D03*
D12*
X224790000Y-89980099D03*
X231140000Y-87440099D03*
D11*
X233680000Y-92520099D03*
X223520000Y-92520099D03*
D12*
X90490000Y-147810000D03*
X414007000Y-131100139D03*
X420357000Y-128560139D03*
D11*
X412737000Y-133640139D03*
D10*
X417817000Y-133640139D03*
D11*
X422897000Y-133640139D03*
X267017500Y-133640143D03*
D12*
X258127500Y-131100143D03*
X264477500Y-128560143D03*
D10*
X261937500Y-133640143D03*
D11*
X256857500Y-133640143D03*
D12*
X303371250Y-151660150D03*
D16*
X319119250Y-147215150D03*
D10*
X307181250Y-154200150D03*
D17*
X295243250Y-162455150D03*
X319119250Y-162455150D03*
D11*
X302101250Y-154200150D03*
D12*
X309721250Y-149120150D03*
D16*
X295243250Y-147215150D03*
D11*
X312261250Y-154200150D03*
D17*
X466712000Y-152542176D03*
D12*
X471157000Y-161940176D03*
D10*
X474967000Y-164480176D03*
D21*
X481952000Y-176418176D03*
D17*
X466712000Y-176418176D03*
D21*
X481952000Y-152542176D03*
D11*
X480047000Y-164480176D03*
D12*
X477507000Y-159400176D03*
D11*
X469887000Y-164480176D03*
D12*
X84772500Y-156740165D03*
D11*
X86042500Y-154200165D03*
D12*
X78422500Y-159280165D03*
D11*
X75882500Y-154200165D03*
D10*
X80962500Y-154200165D03*
D12*
X484610000Y-147830000D03*
D11*
X356863500Y-92520097D03*
D12*
X347973500Y-89980097D03*
X354323500Y-87440097D03*
D11*
X346703500Y-92520097D03*
D10*
X351783500Y-92520097D03*
D12*
X215265000Y-48860055D03*
X221615000Y-46320055D03*
D11*
X213995000Y-51400055D03*
D10*
X219075000Y-51400055D03*
D11*
X224155000Y-51400055D03*
D17*
X185705750Y-183015170D03*
D11*
X192563750Y-174760170D03*
D12*
X195103750Y-179840170D03*
D16*
X185705750Y-167775170D03*
D17*
X209581750Y-183015170D03*
D12*
X201453750Y-177300170D03*
D11*
X202723750Y-174760170D03*
D10*
X197643750Y-174760170D03*
D16*
X209581750Y-167775170D03*
D12*
X123820000Y-44560000D03*
X440677000Y-177300181D03*
X434327000Y-179840181D03*
D11*
X431787000Y-174760181D03*
D10*
X436867000Y-174760181D03*
D11*
X441947000Y-174760181D03*
D13*
X421717000Y-100838000D03*
X413917000Y-100838000D03*
D12*
X399300000Y-189070000D03*
D10*
X290512500Y-154200150D03*
D12*
X294322500Y-156740150D03*
D11*
X295592500Y-154200150D03*
X285432500Y-154200150D03*
D12*
X287972500Y-159280150D03*
X97790000Y-46320055D03*
D11*
X100330000Y-51400055D03*
X90170000Y-51400055D03*
D10*
X95250000Y-51400055D03*
D12*
X91440000Y-48860055D03*
X47730000Y-189240000D03*
D11*
X162242500Y-154200165D03*
D12*
X159702500Y-149120165D03*
D10*
X157162500Y-154200165D03*
D11*
X152082500Y-154200165D03*
D12*
X153352500Y-151660165D03*
D18*
X346183500Y-51400055D03*
X357383500Y-51400055D03*
D19*
X349283500Y-58900055D03*
D20*
X354283500Y-58900055D03*
X351783500Y-58900055D03*
X354283500Y-44400055D03*
X349283500Y-44400055D03*
D22*
X266912500Y-37780035D03*
X265912500Y-37780035D03*
X264912500Y-37780035D03*
X263912500Y-37780035D03*
X262912500Y-37780035D03*
X261912500Y-37780035D03*
X260912500Y-37780035D03*
X259912500Y-37780035D03*
X258912500Y-37780035D03*
X257912500Y-37780035D03*
X256912500Y-37780035D03*
X255912500Y-37780035D03*
X254912500Y-37780035D03*
X253912500Y-37780035D03*
X252912500Y-37780035D03*
X251912500Y-37780035D03*
X250912500Y-37780035D03*
X249912500Y-37780035D03*
X248912500Y-37780035D03*
X247912500Y-37780035D03*
X246912500Y-37780035D03*
X245912500Y-37780035D03*
X244912500Y-37780035D03*
X243912500Y-37780035D03*
X242912500Y-37780035D03*
X241912500Y-37780035D03*
X240912500Y-37780035D03*
X239912500Y-37780035D03*
X238912500Y-37780035D03*
X237912500Y-37780035D03*
D23*
X234922500Y-34980035D03*
X269902500Y-34980035D03*
D12*
X142960000Y-168420000D03*
D13*
X419240000Y-62992000D03*
X411440000Y-62992000D03*
D11*
X480047000Y-133640139D03*
D12*
X477507000Y-128560139D03*
D11*
X469887000Y-133640139D03*
D12*
X471157000Y-131100139D03*
D10*
X474967000Y-133640139D03*
D12*
X342260000Y-188990000D03*
X281010000Y-147630000D03*
D10*
X238125000Y-113080121D03*
D12*
X234315000Y-110540121D03*
D11*
X233045000Y-113080121D03*
D12*
X240665000Y-108000121D03*
D11*
X243205000Y-113080121D03*
D12*
X63341250Y-156740165D03*
D11*
X54451250Y-154200165D03*
D10*
X59531250Y-154200165D03*
D11*
X64611250Y-154200165D03*
D12*
X56991250Y-159280165D03*
D11*
X109220000Y-51400055D03*
D10*
X114300000Y-51400055D03*
D12*
X110490000Y-48860055D03*
D11*
X119380000Y-51400055D03*
D12*
X116840000Y-46320055D03*
D11*
X157480000Y-92520099D03*
D10*
X152400000Y-92520099D03*
D11*
X147320000Y-92520099D03*
D12*
X154940000Y-87440099D03*
X148590000Y-89980099D03*
X49990000Y-106590000D03*
D10*
X389883500Y-51400055D03*
D11*
X384803500Y-51400055D03*
D12*
X386073500Y-48860055D03*
X392423500Y-46320055D03*
D11*
X394963500Y-51400055D03*
D16*
X250063000Y-167775170D03*
D11*
X243205000Y-174760170D03*
D16*
X226187000Y-167775170D03*
D12*
X235585000Y-179840170D03*
D11*
X233045000Y-174760170D03*
D10*
X238125000Y-174760170D03*
D12*
X241935000Y-177300170D03*
D17*
X250063000Y-183015170D03*
X226187000Y-183015170D03*
D11*
X119380000Y-92520099D03*
D10*
X114300000Y-92520099D03*
D12*
X110490000Y-89980099D03*
X116840000Y-87440099D03*
D11*
X109220000Y-92520099D03*
D12*
X484610000Y-85840000D03*
X240665000Y-46320055D03*
D11*
X243205000Y-51400055D03*
X233045000Y-51400055D03*
D12*
X234315000Y-48860055D03*
D10*
X238125000Y-51400055D03*
X436867000Y-92520097D03*
D12*
X439407000Y-87440097D03*
D11*
X441947000Y-92520097D03*
X431787000Y-92520097D03*
D12*
X433057000Y-89980097D03*
D11*
X290830000Y-92520099D03*
D12*
X281940000Y-89980099D03*
D10*
X285750000Y-92520099D03*
D12*
X288290000Y-87440099D03*
D11*
X280670000Y-92520099D03*
D12*
X399630000Y-44480000D03*
D11*
X394963500Y-113080118D03*
D10*
X389883500Y-113080118D03*
D12*
X392423500Y-108000118D03*
D11*
X384803500Y-113080118D03*
D12*
X386073500Y-110540118D03*
X309580000Y-168330000D03*
D11*
X104457500Y-133640143D03*
D12*
X105727500Y-131100143D03*
D10*
X109537500Y-133640143D03*
D12*
X112077500Y-128560143D03*
D11*
X114617500Y-133640143D03*
D12*
X123830000Y-85790000D03*
X408300000Y-106420000D03*
D11*
X271145000Y-113080121D03*
D12*
X278765000Y-108000121D03*
D10*
X276225000Y-113080121D03*
D12*
X272415000Y-110540121D03*
D11*
X281305000Y-113080121D03*
X441947000Y-113080118D03*
X431787000Y-113080118D03*
D12*
X439407000Y-108000118D03*
X433057000Y-110540118D03*
D10*
X436867000Y-113080118D03*
X455917000Y-154200160D03*
D11*
X460997000Y-154200160D03*
D12*
X452107000Y-151660160D03*
D11*
X450837000Y-154200160D03*
D12*
X458457000Y-149120160D03*
D11*
X52070000Y-92520097D03*
D12*
X59690000Y-87440097D03*
D10*
X57150000Y-92520097D03*
D12*
X53340000Y-89980097D03*
D11*
X62230000Y-92520097D03*
D10*
X351783500Y-113080118D03*
D11*
X356863500Y-113080118D03*
D12*
X347973500Y-110540118D03*
X354323500Y-108000118D03*
D11*
X346703500Y-113080118D03*
D12*
X423532000Y-172220181D03*
D11*
X422262000Y-174760181D03*
D16*
X439280000Y-167775181D03*
X415404000Y-167775181D03*
D12*
X429882000Y-169680181D03*
D10*
X427342000Y-174760181D03*
D17*
X439280000Y-183015181D03*
D11*
X432422000Y-174760181D03*
D17*
X415404000Y-183015181D03*
D11*
X441947000Y-154200160D03*
X431787000Y-154200160D03*
D12*
X439407000Y-149120160D03*
D10*
X436867000Y-154200160D03*
D12*
X433057000Y-151660160D03*
X96202500Y-151660165D03*
D11*
X105092500Y-154200165D03*
D12*
X102552500Y-149120165D03*
D10*
X100012500Y-154200165D03*
D11*
X94932500Y-154200165D03*
D12*
X150177500Y-128560143D03*
D11*
X152717500Y-133640143D03*
X142557500Y-133640143D03*
D10*
X147637500Y-133640143D03*
D12*
X143827500Y-131100143D03*
D11*
X356863500Y-174760188D03*
X346703500Y-174760188D03*
D12*
X354323500Y-169680188D03*
X347973500Y-172220188D03*
D10*
X351783500Y-174760188D03*
X474967000Y-113080110D03*
D11*
X474967000Y-118160110D03*
D12*
X480047000Y-115620110D03*
X477507000Y-109270110D03*
D11*
X474967000Y-108000110D03*
D10*
X370833500Y-174760188D03*
D11*
X365753500Y-174760188D03*
X375913500Y-174760188D03*
D12*
X373373500Y-169680188D03*
X367023500Y-172220188D03*
D11*
X175895000Y-113080121D03*
D12*
X183515000Y-108000121D03*
D10*
X180975000Y-113080121D03*
D12*
X177165000Y-110540121D03*
D11*
X186055000Y-113080121D03*
D12*
X219120000Y-65050000D03*
D11*
X309880000Y-92520090D03*
D10*
X304800000Y-92520090D03*
D11*
X299720000Y-92520090D03*
D12*
X302260000Y-97600090D03*
X308610000Y-95060090D03*
X342260000Y-147600000D03*
D18*
X384283500Y-51400055D03*
X395483500Y-51400055D03*
D19*
X387383500Y-58900055D03*
D20*
X392383500Y-58900055D03*
X389883500Y-58900055D03*
X392383500Y-44400055D03*
X387383500Y-44400055D03*
D11*
X257492500Y-154200165D03*
D10*
X252412500Y-154200165D03*
D12*
X248602500Y-151660165D03*
X254952500Y-149120165D03*
D11*
X247332500Y-154200165D03*
X469887000Y-92520097D03*
D10*
X474967000Y-92520097D03*
D12*
X477507000Y-87440097D03*
X471157000Y-89980097D03*
D11*
X480047000Y-92520097D03*
D12*
X257190000Y-44450000D03*
X134302500Y-151660165D03*
D11*
X133032500Y-154200165D03*
X143192500Y-154200165D03*
D10*
X138112500Y-154200165D03*
D12*
X140652500Y-149120165D03*
D11*
X460997000Y-174760187D03*
D10*
X455917000Y-174760187D03*
D12*
X452107000Y-172220187D03*
D11*
X450837000Y-174760187D03*
D12*
X458457000Y-169680187D03*
X342260000Y-106340000D03*
X167070000Y-189010000D03*
D11*
X314007500Y-113080121D03*
D12*
X321627500Y-108000121D03*
X315277500Y-110540121D03*
D10*
X319087500Y-113080121D03*
D11*
X324167500Y-113080121D03*
D12*
X243290000Y-168340000D03*
X178752500Y-149120165D03*
D11*
X171132500Y-154200165D03*
D12*
X172402500Y-151660165D03*
D10*
X176212500Y-154200165D03*
D11*
X181292500Y-154200165D03*
D12*
X484610000Y-168580000D03*
D11*
X261620000Y-51400055D03*
D12*
X262890000Y-48860055D03*
X269240000Y-46320055D03*
D11*
X271780000Y-51400055D03*
D10*
X266700000Y-51400055D03*
D12*
X317658750Y-120820120D03*
D21*
X314483750Y-111422120D03*
D12*
X324008750Y-118280120D03*
D17*
X329723750Y-111422120D03*
X329723750Y-135298120D03*
D11*
X316388750Y-123360120D03*
X326548750Y-123360120D03*
D10*
X321468750Y-123360120D03*
D21*
X314483750Y-135298120D03*
D10*
X271462500Y-154200165D03*
D11*
X276542500Y-154200165D03*
X266382500Y-154200165D03*
D12*
X274002500Y-149120165D03*
X267652500Y-151660165D03*
X195270000Y-127260000D03*
D10*
X64293750Y-133640130D03*
D11*
X69373750Y-133640130D03*
X59213750Y-133640130D03*
D12*
X271470000Y-127240000D03*
D10*
X370833500Y-51400055D03*
D11*
X365753500Y-51400055D03*
X375913500Y-51400055D03*
D12*
X373373500Y-46320055D03*
X367023500Y-48860055D03*
X49970000Y-127500000D03*
X173990000Y-87440099D03*
D10*
X171450000Y-92520099D03*
D11*
X176530000Y-92520099D03*
D12*
X167640000Y-89980099D03*
D11*
X166370000Y-92520099D03*
X90170000Y-92520099D03*
D10*
X95250000Y-92520099D03*
D11*
X100330000Y-92520099D03*
D12*
X91440000Y-89980099D03*
X97790000Y-87440099D03*
D10*
X59531250Y-133640130D03*
D11*
X54451250Y-133640130D03*
X64611250Y-133640130D03*
D12*
X62071250Y-128560130D03*
X55721250Y-131100130D03*
D10*
X76200000Y-92520099D03*
D11*
X81280000Y-92520099D03*
D12*
X72390000Y-89980099D03*
X78740000Y-87440099D03*
D11*
X71120000Y-92520099D03*
D12*
X326390000Y-46320055D03*
D11*
X328930000Y-51400055D03*
X318770000Y-51400055D03*
D10*
X323850000Y-51400055D03*
D12*
X320040000Y-48860055D03*
X380360000Y-127300000D03*
D11*
X85407500Y-133640143D03*
D10*
X90487500Y-133640143D03*
D11*
X95567500Y-133640143D03*
D12*
X93027500Y-128560143D03*
X86677500Y-131100143D03*
X66680000Y-85890000D03*
X266750000Y-106310000D03*
X276310000Y-65040000D03*
X314340000Y-85650000D03*
D10*
X219075000Y-113080121D03*
D12*
X221615000Y-108000121D03*
X215265000Y-110540121D03*
D11*
X224155000Y-113080121D03*
X213995000Y-113080121D03*
D12*
X158115000Y-110540121D03*
D11*
X167005000Y-113080121D03*
D12*
X164465000Y-108000121D03*
D10*
X161925000Y-113080121D03*
D11*
X156845000Y-113080121D03*
X252730000Y-92520099D03*
D12*
X250190000Y-87440099D03*
X243840000Y-89980099D03*
D11*
X242570000Y-92520099D03*
D10*
X247650000Y-92520099D03*
X417817000Y-92520097D03*
D12*
X414007000Y-89980097D03*
D11*
X412737000Y-92520097D03*
X422897000Y-92520097D03*
D12*
X420357000Y-87440097D03*
X283527500Y-128560143D03*
X277177500Y-131100143D03*
D11*
X275907500Y-133640143D03*
X286067500Y-133640143D03*
D10*
X280987500Y-133640143D03*
D16*
X326263000Y-85535090D03*
D11*
X319405000Y-92520090D03*
D10*
X314325000Y-92520090D03*
D17*
X326263000Y-100775090D03*
D16*
X302387000Y-85535090D03*
D12*
X310515000Y-89980090D03*
D11*
X309245000Y-92520090D03*
D17*
X302387000Y-100775090D03*
D12*
X316865000Y-87440090D03*
D11*
X62230000Y-51400055D03*
D12*
X53340000Y-48860055D03*
D11*
X52070000Y-51400055D03*
D10*
X57150000Y-51400055D03*
D12*
X59690000Y-46320055D03*
D11*
X237807500Y-133640143D03*
D12*
X245427500Y-128560143D03*
D11*
X247967500Y-133640143D03*
D10*
X242887500Y-133640143D03*
D12*
X239077500Y-131100143D03*
D10*
X257175000Y-113080121D03*
D11*
X262255000Y-113080121D03*
D12*
X259715000Y-108000121D03*
D11*
X252095000Y-113080121D03*
D12*
X253365000Y-110540121D03*
X71780000Y-168560000D03*
D11*
X56832500Y-174760187D03*
D10*
X61912500Y-174760187D03*
D12*
X64452500Y-169680187D03*
X58102500Y-172220187D03*
D11*
X66992500Y-174760187D03*
X175895000Y-51400055D03*
D12*
X177165000Y-48860055D03*
X183515000Y-46320055D03*
D10*
X180975000Y-51400055D03*
D11*
X186055000Y-51400055D03*
D12*
X104790000Y-65230000D03*
M02*
