G04 #@! TF.GenerationSoftware,KiCad,Pcbnew,7.0.7*
G04 #@! TF.CreationDate,2023-09-16T21:04:52-07:00*
G04 #@! TF.ProjectId,pcb,7063622e-6b69-4636-9164-5f7063625858,rev?*
G04 #@! TF.SameCoordinates,Original*
G04 #@! TF.FileFunction,Legend,Bot*
G04 #@! TF.FilePolarity,Positive*
%FSLAX46Y46*%
G04 Gerber Fmt 4.6, Leading zero omitted, Abs format (unit mm)*
G04 Created by KiCad (PCBNEW 7.0.7) date 2023-09-16 21:04:52*
%MOMM*%
%LPD*%
G01*
G04 APERTURE LIST*
%ADD10C,0.150000*%
%ADD11C,0.120000*%
%ADD12C,3.987800*%
%ADD13C,1.750000*%
%ADD14C,3.000000*%
%ADD15R,2.550000X2.500000*%
%ADD16C,1.600000*%
%ADD17R,1.500000X1.200000*%
%ADD18R,1.800000X1.800000*%
%ADD19C,1.800000*%
%ADD20C,3.048000*%
%ADD21O,3.987800X4.387800*%
%ADD22O,2.000000X3.200000*%
%ADD23R,2.000000X2.000000*%
%ADD24C,2.000000*%
%ADD25O,3.048000X3.448000*%
%ADD26R,2.500000X2.550000*%
%ADD27C,2.250000*%
%ADD28C,1.905000*%
%ADD29R,1.905000X1.905000*%
%ADD30R,0.800000X1.900000*%
G04 APERTURE END LIST*
D10*
X434132556Y-63354295D02*
X434399223Y-62973342D01*
X434589699Y-63354295D02*
X434589699Y-62554295D01*
X434589699Y-62554295D02*
X434284937Y-62554295D01*
X434284937Y-62554295D02*
X434208747Y-62592390D01*
X434208747Y-62592390D02*
X434170652Y-62630485D01*
X434170652Y-62630485D02*
X434132556Y-62706676D01*
X434132556Y-62706676D02*
X434132556Y-62820961D01*
X434132556Y-62820961D02*
X434170652Y-62897152D01*
X434170652Y-62897152D02*
X434208747Y-62935247D01*
X434208747Y-62935247D02*
X434284937Y-62973342D01*
X434284937Y-62973342D02*
X434589699Y-62973342D01*
X433408747Y-62554295D02*
X433789699Y-62554295D01*
X433789699Y-62554295D02*
X433827795Y-62935247D01*
X433827795Y-62935247D02*
X433789699Y-62897152D01*
X433789699Y-62897152D02*
X433713509Y-62859057D01*
X433713509Y-62859057D02*
X433523033Y-62859057D01*
X433523033Y-62859057D02*
X433446842Y-62897152D01*
X433446842Y-62897152D02*
X433408747Y-62935247D01*
X433408747Y-62935247D02*
X433370652Y-63011438D01*
X433370652Y-63011438D02*
X433370652Y-63201914D01*
X433370652Y-63201914D02*
X433408747Y-63278104D01*
X433408747Y-63278104D02*
X433446842Y-63316200D01*
X433446842Y-63316200D02*
X433523033Y-63354295D01*
X433523033Y-63354295D02*
X433713509Y-63354295D01*
X433713509Y-63354295D02*
X433789699Y-63316200D01*
X433789699Y-63316200D02*
X433827795Y-63278104D01*
X441340238Y-55299580D02*
X441387857Y-55347200D01*
X441387857Y-55347200D02*
X441530714Y-55394819D01*
X441530714Y-55394819D02*
X441625952Y-55394819D01*
X441625952Y-55394819D02*
X441768809Y-55347200D01*
X441768809Y-55347200D02*
X441864047Y-55251961D01*
X441864047Y-55251961D02*
X441911666Y-55156723D01*
X441911666Y-55156723D02*
X441959285Y-54966247D01*
X441959285Y-54966247D02*
X441959285Y-54823390D01*
X441959285Y-54823390D02*
X441911666Y-54632914D01*
X441911666Y-54632914D02*
X441864047Y-54537676D01*
X441864047Y-54537676D02*
X441768809Y-54442438D01*
X441768809Y-54442438D02*
X441625952Y-54394819D01*
X441625952Y-54394819D02*
X441530714Y-54394819D01*
X441530714Y-54394819D02*
X441387857Y-54442438D01*
X441387857Y-54442438D02*
X441340238Y-54490057D01*
X440959285Y-55109104D02*
X440483095Y-55109104D01*
X441054523Y-55394819D02*
X440721190Y-54394819D01*
X440721190Y-54394819D02*
X440387857Y-55394819D01*
X440054523Y-55394819D02*
X440054523Y-54394819D01*
X440054523Y-54394819D02*
X439673571Y-54394819D01*
X439673571Y-54394819D02*
X439578333Y-54442438D01*
X439578333Y-54442438D02*
X439530714Y-54490057D01*
X439530714Y-54490057D02*
X439483095Y-54585295D01*
X439483095Y-54585295D02*
X439483095Y-54728152D01*
X439483095Y-54728152D02*
X439530714Y-54823390D01*
X439530714Y-54823390D02*
X439578333Y-54871009D01*
X439578333Y-54871009D02*
X439673571Y-54918628D01*
X439673571Y-54918628D02*
X440054523Y-54918628D01*
X438530714Y-55394819D02*
X439102142Y-55394819D01*
X438816428Y-55394819D02*
X438816428Y-54394819D01*
X438816428Y-54394819D02*
X438911666Y-54537676D01*
X438911666Y-54537676D02*
X439006904Y-54632914D01*
X439006904Y-54632914D02*
X439102142Y-54680533D01*
X55858556Y-142348295D02*
X56125223Y-141967342D01*
X56315699Y-142348295D02*
X56315699Y-141548295D01*
X56315699Y-141548295D02*
X56010937Y-141548295D01*
X56010937Y-141548295D02*
X55934747Y-141586390D01*
X55934747Y-141586390D02*
X55896652Y-141624485D01*
X55896652Y-141624485D02*
X55858556Y-141700676D01*
X55858556Y-141700676D02*
X55858556Y-141814961D01*
X55858556Y-141814961D02*
X55896652Y-141891152D01*
X55896652Y-141891152D02*
X55934747Y-141929247D01*
X55934747Y-141929247D02*
X56010937Y-141967342D01*
X56010937Y-141967342D02*
X56315699Y-141967342D01*
X55096652Y-142348295D02*
X55553795Y-142348295D01*
X55325223Y-142348295D02*
X55325223Y-141548295D01*
X55325223Y-141548295D02*
X55401414Y-141662580D01*
X55401414Y-141662580D02*
X55477604Y-141738771D01*
X55477604Y-141738771D02*
X55553795Y-141776866D01*
X364716056Y-62846295D02*
X364982723Y-62465342D01*
X365173199Y-62846295D02*
X365173199Y-62046295D01*
X365173199Y-62046295D02*
X364868437Y-62046295D01*
X364868437Y-62046295D02*
X364792247Y-62084390D01*
X364792247Y-62084390D02*
X364754152Y-62122485D01*
X364754152Y-62122485D02*
X364716056Y-62198676D01*
X364716056Y-62198676D02*
X364716056Y-62312961D01*
X364716056Y-62312961D02*
X364754152Y-62389152D01*
X364754152Y-62389152D02*
X364792247Y-62427247D01*
X364792247Y-62427247D02*
X364868437Y-62465342D01*
X364868437Y-62465342D02*
X365173199Y-62465342D01*
X364411295Y-62122485D02*
X364373199Y-62084390D01*
X364373199Y-62084390D02*
X364297009Y-62046295D01*
X364297009Y-62046295D02*
X364106533Y-62046295D01*
X364106533Y-62046295D02*
X364030342Y-62084390D01*
X364030342Y-62084390D02*
X363992247Y-62122485D01*
X363992247Y-62122485D02*
X363954152Y-62198676D01*
X363954152Y-62198676D02*
X363954152Y-62274866D01*
X363954152Y-62274866D02*
X363992247Y-62389152D01*
X363992247Y-62389152D02*
X364449390Y-62846295D01*
X364449390Y-62846295D02*
X363954152Y-62846295D01*
X459192556Y-63354295D02*
X459459223Y-62973342D01*
X459649699Y-63354295D02*
X459649699Y-62554295D01*
X459649699Y-62554295D02*
X459344937Y-62554295D01*
X459344937Y-62554295D02*
X459268747Y-62592390D01*
X459268747Y-62592390D02*
X459230652Y-62630485D01*
X459230652Y-62630485D02*
X459192556Y-62706676D01*
X459192556Y-62706676D02*
X459192556Y-62820961D01*
X459192556Y-62820961D02*
X459230652Y-62897152D01*
X459230652Y-62897152D02*
X459268747Y-62935247D01*
X459268747Y-62935247D02*
X459344937Y-62973342D01*
X459344937Y-62973342D02*
X459649699Y-62973342D01*
X458506842Y-62554295D02*
X458659223Y-62554295D01*
X458659223Y-62554295D02*
X458735414Y-62592390D01*
X458735414Y-62592390D02*
X458773509Y-62630485D01*
X458773509Y-62630485D02*
X458849699Y-62744771D01*
X458849699Y-62744771D02*
X458887795Y-62897152D01*
X458887795Y-62897152D02*
X458887795Y-63201914D01*
X458887795Y-63201914D02*
X458849699Y-63278104D01*
X458849699Y-63278104D02*
X458811604Y-63316200D01*
X458811604Y-63316200D02*
X458735414Y-63354295D01*
X458735414Y-63354295D02*
X458583033Y-63354295D01*
X458583033Y-63354295D02*
X458506842Y-63316200D01*
X458506842Y-63316200D02*
X458468747Y-63278104D01*
X458468747Y-63278104D02*
X458430652Y-63201914D01*
X458430652Y-63201914D02*
X458430652Y-63011438D01*
X458430652Y-63011438D02*
X458468747Y-62935247D01*
X458468747Y-62935247D02*
X458506842Y-62897152D01*
X458506842Y-62897152D02*
X458583033Y-62859057D01*
X458583033Y-62859057D02*
X458735414Y-62859057D01*
X458735414Y-62859057D02*
X458811604Y-62897152D01*
X458811604Y-62897152D02*
X458849699Y-62935247D01*
X458849699Y-62935247D02*
X458887795Y-63011438D01*
X417192142Y-55374819D02*
X417192142Y-54374819D01*
X417192142Y-54374819D02*
X416620714Y-55374819D01*
X416620714Y-55374819D02*
X416620714Y-54374819D01*
X416144523Y-54374819D02*
X416144523Y-55184342D01*
X416144523Y-55184342D02*
X416096904Y-55279580D01*
X416096904Y-55279580D02*
X416049285Y-55327200D01*
X416049285Y-55327200D02*
X415954047Y-55374819D01*
X415954047Y-55374819D02*
X415763571Y-55374819D01*
X415763571Y-55374819D02*
X415668333Y-55327200D01*
X415668333Y-55327200D02*
X415620714Y-55279580D01*
X415620714Y-55279580D02*
X415573095Y-55184342D01*
X415573095Y-55184342D02*
X415573095Y-54374819D01*
X415096904Y-55374819D02*
X415096904Y-54374819D01*
X415096904Y-54374819D02*
X414763571Y-55089104D01*
X414763571Y-55089104D02*
X414430238Y-54374819D01*
X414430238Y-54374819D02*
X414430238Y-55374819D01*
X413430238Y-55374819D02*
X414001666Y-55374819D01*
X413715952Y-55374819D02*
X413715952Y-54374819D01*
X413715952Y-54374819D02*
X413811190Y-54517676D01*
X413811190Y-54517676D02*
X413906428Y-54612914D01*
X413906428Y-54612914D02*
X414001666Y-54660533D01*
X467471666Y-55347200D02*
X467328809Y-55394819D01*
X467328809Y-55394819D02*
X467090714Y-55394819D01*
X467090714Y-55394819D02*
X466995476Y-55347200D01*
X466995476Y-55347200D02*
X466947857Y-55299580D01*
X466947857Y-55299580D02*
X466900238Y-55204342D01*
X466900238Y-55204342D02*
X466900238Y-55109104D01*
X466900238Y-55109104D02*
X466947857Y-55013866D01*
X466947857Y-55013866D02*
X466995476Y-54966247D01*
X466995476Y-54966247D02*
X467090714Y-54918628D01*
X467090714Y-54918628D02*
X467281190Y-54871009D01*
X467281190Y-54871009D02*
X467376428Y-54823390D01*
X467376428Y-54823390D02*
X467424047Y-54775771D01*
X467424047Y-54775771D02*
X467471666Y-54680533D01*
X467471666Y-54680533D02*
X467471666Y-54585295D01*
X467471666Y-54585295D02*
X467424047Y-54490057D01*
X467424047Y-54490057D02*
X467376428Y-54442438D01*
X467376428Y-54442438D02*
X467281190Y-54394819D01*
X467281190Y-54394819D02*
X467043095Y-54394819D01*
X467043095Y-54394819D02*
X466900238Y-54442438D01*
X465900238Y-55299580D02*
X465947857Y-55347200D01*
X465947857Y-55347200D02*
X466090714Y-55394819D01*
X466090714Y-55394819D02*
X466185952Y-55394819D01*
X466185952Y-55394819D02*
X466328809Y-55347200D01*
X466328809Y-55347200D02*
X466424047Y-55251961D01*
X466424047Y-55251961D02*
X466471666Y-55156723D01*
X466471666Y-55156723D02*
X466519285Y-54966247D01*
X466519285Y-54966247D02*
X466519285Y-54823390D01*
X466519285Y-54823390D02*
X466471666Y-54632914D01*
X466471666Y-54632914D02*
X466424047Y-54537676D01*
X466424047Y-54537676D02*
X466328809Y-54442438D01*
X466328809Y-54442438D02*
X466185952Y-54394819D01*
X466185952Y-54394819D02*
X466090714Y-54394819D01*
X466090714Y-54394819D02*
X465947857Y-54442438D01*
X465947857Y-54442438D02*
X465900238Y-54490057D01*
X464900238Y-55394819D02*
X465233571Y-54918628D01*
X465471666Y-55394819D02*
X465471666Y-54394819D01*
X465471666Y-54394819D02*
X465090714Y-54394819D01*
X465090714Y-54394819D02*
X464995476Y-54442438D01*
X464995476Y-54442438D02*
X464947857Y-54490057D01*
X464947857Y-54490057D02*
X464900238Y-54585295D01*
X464900238Y-54585295D02*
X464900238Y-54728152D01*
X464900238Y-54728152D02*
X464947857Y-54823390D01*
X464947857Y-54823390D02*
X464995476Y-54871009D01*
X464995476Y-54871009D02*
X465090714Y-54918628D01*
X465090714Y-54918628D02*
X465471666Y-54918628D01*
X463995476Y-55394819D02*
X464471666Y-55394819D01*
X464471666Y-55394819D02*
X464471666Y-54394819D01*
X463138333Y-55394819D02*
X463709761Y-55394819D01*
X463424047Y-55394819D02*
X463424047Y-54394819D01*
X463424047Y-54394819D02*
X463519285Y-54537676D01*
X463519285Y-54537676D02*
X463614523Y-54632914D01*
X463614523Y-54632914D02*
X463709761Y-54680533D01*
X411699556Y-101200295D02*
X411966223Y-100819342D01*
X412156699Y-101200295D02*
X412156699Y-100400295D01*
X412156699Y-100400295D02*
X411851937Y-100400295D01*
X411851937Y-100400295D02*
X411775747Y-100438390D01*
X411775747Y-100438390D02*
X411737652Y-100476485D01*
X411737652Y-100476485D02*
X411699556Y-100552676D01*
X411699556Y-100552676D02*
X411699556Y-100666961D01*
X411699556Y-100666961D02*
X411737652Y-100743152D01*
X411737652Y-100743152D02*
X411775747Y-100781247D01*
X411775747Y-100781247D02*
X411851937Y-100819342D01*
X411851937Y-100819342D02*
X412156699Y-100819342D01*
X411432890Y-100400295D02*
X410937652Y-100400295D01*
X410937652Y-100400295D02*
X411204318Y-100705057D01*
X411204318Y-100705057D02*
X411090033Y-100705057D01*
X411090033Y-100705057D02*
X411013842Y-100743152D01*
X411013842Y-100743152D02*
X410975747Y-100781247D01*
X410975747Y-100781247D02*
X410937652Y-100857438D01*
X410937652Y-100857438D02*
X410937652Y-101047914D01*
X410937652Y-101047914D02*
X410975747Y-101124104D01*
X410975747Y-101124104D02*
X411013842Y-101162200D01*
X411013842Y-101162200D02*
X411090033Y-101200295D01*
X411090033Y-101200295D02*
X411318604Y-101200295D01*
X411318604Y-101200295D02*
X411394795Y-101162200D01*
X411394795Y-101162200D02*
X411432890Y-101124104D01*
X409222556Y-63354295D02*
X409489223Y-62973342D01*
X409679699Y-63354295D02*
X409679699Y-62554295D01*
X409679699Y-62554295D02*
X409374937Y-62554295D01*
X409374937Y-62554295D02*
X409298747Y-62592390D01*
X409298747Y-62592390D02*
X409260652Y-62630485D01*
X409260652Y-62630485D02*
X409222556Y-62706676D01*
X409222556Y-62706676D02*
X409222556Y-62820961D01*
X409222556Y-62820961D02*
X409260652Y-62897152D01*
X409260652Y-62897152D02*
X409298747Y-62935247D01*
X409298747Y-62935247D02*
X409374937Y-62973342D01*
X409374937Y-62973342D02*
X409679699Y-62973342D01*
X408536842Y-62820961D02*
X408536842Y-63354295D01*
X408727318Y-62516200D02*
X408917795Y-63087628D01*
X408917795Y-63087628D02*
X408422556Y-63087628D01*
X150354819Y-116133714D02*
X149354819Y-116133714D01*
X149354819Y-116133714D02*
X149354819Y-116371809D01*
X149354819Y-116371809D02*
X149402438Y-116514666D01*
X149402438Y-116514666D02*
X149497676Y-116609904D01*
X149497676Y-116609904D02*
X149592914Y-116657523D01*
X149592914Y-116657523D02*
X149783390Y-116705142D01*
X149783390Y-116705142D02*
X149926247Y-116705142D01*
X149926247Y-116705142D02*
X150116723Y-116657523D01*
X150116723Y-116657523D02*
X150211961Y-116609904D01*
X150211961Y-116609904D02*
X150307200Y-116514666D01*
X150307200Y-116514666D02*
X150354819Y-116371809D01*
X150354819Y-116371809D02*
X150354819Y-116133714D01*
X150354819Y-117657523D02*
X150354819Y-117086095D01*
X150354819Y-117371809D02*
X149354819Y-117371809D01*
X149354819Y-117371809D02*
X149497676Y-117276571D01*
X149497676Y-117276571D02*
X149592914Y-117181333D01*
X149592914Y-117181333D02*
X149640533Y-117086095D01*
X149688152Y-118514666D02*
X150354819Y-118514666D01*
X149307200Y-118276571D02*
X150021485Y-118038476D01*
X150021485Y-118038476D02*
X150021485Y-118657523D01*
X217156819Y-95559714D02*
X216156819Y-95559714D01*
X216156819Y-95559714D02*
X216156819Y-95797809D01*
X216156819Y-95797809D02*
X216204438Y-95940666D01*
X216204438Y-95940666D02*
X216299676Y-96035904D01*
X216299676Y-96035904D02*
X216394914Y-96083523D01*
X216394914Y-96083523D02*
X216585390Y-96131142D01*
X216585390Y-96131142D02*
X216728247Y-96131142D01*
X216728247Y-96131142D02*
X216918723Y-96083523D01*
X216918723Y-96083523D02*
X217013961Y-96035904D01*
X217013961Y-96035904D02*
X217109200Y-95940666D01*
X217109200Y-95940666D02*
X217156819Y-95797809D01*
X217156819Y-95797809D02*
X217156819Y-95559714D01*
X216252057Y-96512095D02*
X216204438Y-96559714D01*
X216204438Y-96559714D02*
X216156819Y-96654952D01*
X216156819Y-96654952D02*
X216156819Y-96893047D01*
X216156819Y-96893047D02*
X216204438Y-96988285D01*
X216204438Y-96988285D02*
X216252057Y-97035904D01*
X216252057Y-97035904D02*
X216347295Y-97083523D01*
X216347295Y-97083523D02*
X216442533Y-97083523D01*
X216442533Y-97083523D02*
X216585390Y-97035904D01*
X216585390Y-97035904D02*
X217156819Y-96464476D01*
X217156819Y-96464476D02*
X217156819Y-97083523D01*
X216490152Y-97940666D02*
X217156819Y-97940666D01*
X216109200Y-97702571D02*
X216823485Y-97464476D01*
X216823485Y-97464476D02*
X216823485Y-98083523D01*
X221728819Y-157281714D02*
X220728819Y-157281714D01*
X220728819Y-157281714D02*
X220728819Y-157519809D01*
X220728819Y-157519809D02*
X220776438Y-157662666D01*
X220776438Y-157662666D02*
X220871676Y-157757904D01*
X220871676Y-157757904D02*
X220966914Y-157805523D01*
X220966914Y-157805523D02*
X221157390Y-157853142D01*
X221157390Y-157853142D02*
X221300247Y-157853142D01*
X221300247Y-157853142D02*
X221490723Y-157805523D01*
X221490723Y-157805523D02*
X221585961Y-157757904D01*
X221585961Y-157757904D02*
X221681200Y-157662666D01*
X221681200Y-157662666D02*
X221728819Y-157519809D01*
X221728819Y-157519809D02*
X221728819Y-157281714D01*
X220824057Y-158234095D02*
X220776438Y-158281714D01*
X220776438Y-158281714D02*
X220728819Y-158376952D01*
X220728819Y-158376952D02*
X220728819Y-158615047D01*
X220728819Y-158615047D02*
X220776438Y-158710285D01*
X220776438Y-158710285D02*
X220824057Y-158757904D01*
X220824057Y-158757904D02*
X220919295Y-158805523D01*
X220919295Y-158805523D02*
X221014533Y-158805523D01*
X221014533Y-158805523D02*
X221157390Y-158757904D01*
X221157390Y-158757904D02*
X221728819Y-158186476D01*
X221728819Y-158186476D02*
X221728819Y-158805523D01*
X220728819Y-159138857D02*
X220728819Y-159805523D01*
X220728819Y-159805523D02*
X221728819Y-159376952D01*
X250430819Y-136707714D02*
X249430819Y-136707714D01*
X249430819Y-136707714D02*
X249430819Y-136945809D01*
X249430819Y-136945809D02*
X249478438Y-137088666D01*
X249478438Y-137088666D02*
X249573676Y-137183904D01*
X249573676Y-137183904D02*
X249668914Y-137231523D01*
X249668914Y-137231523D02*
X249859390Y-137279142D01*
X249859390Y-137279142D02*
X250002247Y-137279142D01*
X250002247Y-137279142D02*
X250192723Y-137231523D01*
X250192723Y-137231523D02*
X250287961Y-137183904D01*
X250287961Y-137183904D02*
X250383200Y-137088666D01*
X250383200Y-137088666D02*
X250430819Y-136945809D01*
X250430819Y-136945809D02*
X250430819Y-136707714D01*
X249430819Y-137612476D02*
X249430819Y-138231523D01*
X249430819Y-138231523D02*
X249811771Y-137898190D01*
X249811771Y-137898190D02*
X249811771Y-138041047D01*
X249811771Y-138041047D02*
X249859390Y-138136285D01*
X249859390Y-138136285D02*
X249907009Y-138183904D01*
X249907009Y-138183904D02*
X250002247Y-138231523D01*
X250002247Y-138231523D02*
X250240342Y-138231523D01*
X250240342Y-138231523D02*
X250335580Y-138183904D01*
X250335580Y-138183904D02*
X250383200Y-138136285D01*
X250383200Y-138136285D02*
X250430819Y-138041047D01*
X250430819Y-138041047D02*
X250430819Y-137755333D01*
X250430819Y-137755333D02*
X250383200Y-137660095D01*
X250383200Y-137660095D02*
X250335580Y-137612476D01*
X249526057Y-138612476D02*
X249478438Y-138660095D01*
X249478438Y-138660095D02*
X249430819Y-138755333D01*
X249430819Y-138755333D02*
X249430819Y-138993428D01*
X249430819Y-138993428D02*
X249478438Y-139088666D01*
X249478438Y-139088666D02*
X249526057Y-139136285D01*
X249526057Y-139136285D02*
X249621295Y-139183904D01*
X249621295Y-139183904D02*
X249716533Y-139183904D01*
X249716533Y-139183904D02*
X249859390Y-139136285D01*
X249859390Y-139136285D02*
X250430819Y-138564857D01*
X250430819Y-138564857D02*
X250430819Y-139183904D01*
X140956819Y-95559714D02*
X139956819Y-95559714D01*
X139956819Y-95559714D02*
X139956819Y-95797809D01*
X139956819Y-95797809D02*
X140004438Y-95940666D01*
X140004438Y-95940666D02*
X140099676Y-96035904D01*
X140099676Y-96035904D02*
X140194914Y-96083523D01*
X140194914Y-96083523D02*
X140385390Y-96131142D01*
X140385390Y-96131142D02*
X140528247Y-96131142D01*
X140528247Y-96131142D02*
X140718723Y-96083523D01*
X140718723Y-96083523D02*
X140813961Y-96035904D01*
X140813961Y-96035904D02*
X140909200Y-95940666D01*
X140909200Y-95940666D02*
X140956819Y-95797809D01*
X140956819Y-95797809D02*
X140956819Y-95559714D01*
X140956819Y-97083523D02*
X140956819Y-96512095D01*
X140956819Y-96797809D02*
X139956819Y-96797809D01*
X139956819Y-96797809D02*
X140099676Y-96702571D01*
X140099676Y-96702571D02*
X140194914Y-96607333D01*
X140194914Y-96607333D02*
X140242533Y-96512095D01*
X139956819Y-97416857D02*
X139956819Y-98035904D01*
X139956819Y-98035904D02*
X140337771Y-97702571D01*
X140337771Y-97702571D02*
X140337771Y-97845428D01*
X140337771Y-97845428D02*
X140385390Y-97940666D01*
X140385390Y-97940666D02*
X140433009Y-97988285D01*
X140433009Y-97988285D02*
X140528247Y-98035904D01*
X140528247Y-98035904D02*
X140766342Y-98035904D01*
X140766342Y-98035904D02*
X140861580Y-97988285D01*
X140861580Y-97988285D02*
X140909200Y-97940666D01*
X140909200Y-97940666D02*
X140956819Y-97845428D01*
X140956819Y-97845428D02*
X140956819Y-97559714D01*
X140956819Y-97559714D02*
X140909200Y-97464476D01*
X140909200Y-97464476D02*
X140861580Y-97416857D01*
X83806819Y-96035905D02*
X82806819Y-96035905D01*
X82806819Y-96035905D02*
X82806819Y-96274000D01*
X82806819Y-96274000D02*
X82854438Y-96416857D01*
X82854438Y-96416857D02*
X82949676Y-96512095D01*
X82949676Y-96512095D02*
X83044914Y-96559714D01*
X83044914Y-96559714D02*
X83235390Y-96607333D01*
X83235390Y-96607333D02*
X83378247Y-96607333D01*
X83378247Y-96607333D02*
X83568723Y-96559714D01*
X83568723Y-96559714D02*
X83663961Y-96512095D01*
X83663961Y-96512095D02*
X83759200Y-96416857D01*
X83759200Y-96416857D02*
X83806819Y-96274000D01*
X83806819Y-96274000D02*
X83806819Y-96035905D01*
X83235390Y-97178762D02*
X83187771Y-97083524D01*
X83187771Y-97083524D02*
X83140152Y-97035905D01*
X83140152Y-97035905D02*
X83044914Y-96988286D01*
X83044914Y-96988286D02*
X82997295Y-96988286D01*
X82997295Y-96988286D02*
X82902057Y-97035905D01*
X82902057Y-97035905D02*
X82854438Y-97083524D01*
X82854438Y-97083524D02*
X82806819Y-97178762D01*
X82806819Y-97178762D02*
X82806819Y-97369238D01*
X82806819Y-97369238D02*
X82854438Y-97464476D01*
X82854438Y-97464476D02*
X82902057Y-97512095D01*
X82902057Y-97512095D02*
X82997295Y-97559714D01*
X82997295Y-97559714D02*
X83044914Y-97559714D01*
X83044914Y-97559714D02*
X83140152Y-97512095D01*
X83140152Y-97512095D02*
X83187771Y-97464476D01*
X83187771Y-97464476D02*
X83235390Y-97369238D01*
X83235390Y-97369238D02*
X83235390Y-97178762D01*
X83235390Y-97178762D02*
X83283009Y-97083524D01*
X83283009Y-97083524D02*
X83330628Y-97035905D01*
X83330628Y-97035905D02*
X83425866Y-96988286D01*
X83425866Y-96988286D02*
X83616342Y-96988286D01*
X83616342Y-96988286D02*
X83711580Y-97035905D01*
X83711580Y-97035905D02*
X83759200Y-97083524D01*
X83759200Y-97083524D02*
X83806819Y-97178762D01*
X83806819Y-97178762D02*
X83806819Y-97369238D01*
X83806819Y-97369238D02*
X83759200Y-97464476D01*
X83759200Y-97464476D02*
X83711580Y-97512095D01*
X83711580Y-97512095D02*
X83616342Y-97559714D01*
X83616342Y-97559714D02*
X83425866Y-97559714D01*
X83425866Y-97559714D02*
X83330628Y-97512095D01*
X83330628Y-97512095D02*
X83283009Y-97464476D01*
X83283009Y-97464476D02*
X83235390Y-97369238D01*
X93204819Y-116609905D02*
X92204819Y-116609905D01*
X92204819Y-116609905D02*
X92204819Y-116848000D01*
X92204819Y-116848000D02*
X92252438Y-116990857D01*
X92252438Y-116990857D02*
X92347676Y-117086095D01*
X92347676Y-117086095D02*
X92442914Y-117133714D01*
X92442914Y-117133714D02*
X92633390Y-117181333D01*
X92633390Y-117181333D02*
X92776247Y-117181333D01*
X92776247Y-117181333D02*
X92966723Y-117133714D01*
X92966723Y-117133714D02*
X93061961Y-117086095D01*
X93061961Y-117086095D02*
X93157200Y-116990857D01*
X93157200Y-116990857D02*
X93204819Y-116848000D01*
X93204819Y-116848000D02*
X93204819Y-116609905D01*
X93204819Y-117657524D02*
X93204819Y-117848000D01*
X93204819Y-117848000D02*
X93157200Y-117943238D01*
X93157200Y-117943238D02*
X93109580Y-117990857D01*
X93109580Y-117990857D02*
X92966723Y-118086095D01*
X92966723Y-118086095D02*
X92776247Y-118133714D01*
X92776247Y-118133714D02*
X92395295Y-118133714D01*
X92395295Y-118133714D02*
X92300057Y-118086095D01*
X92300057Y-118086095D02*
X92252438Y-118038476D01*
X92252438Y-118038476D02*
X92204819Y-117943238D01*
X92204819Y-117943238D02*
X92204819Y-117752762D01*
X92204819Y-117752762D02*
X92252438Y-117657524D01*
X92252438Y-117657524D02*
X92300057Y-117609905D01*
X92300057Y-117609905D02*
X92395295Y-117562286D01*
X92395295Y-117562286D02*
X92633390Y-117562286D01*
X92633390Y-117562286D02*
X92728628Y-117609905D01*
X92728628Y-117609905D02*
X92776247Y-117657524D01*
X92776247Y-117657524D02*
X92823866Y-117752762D01*
X92823866Y-117752762D02*
X92823866Y-117943238D01*
X92823866Y-117943238D02*
X92776247Y-118038476D01*
X92776247Y-118038476D02*
X92728628Y-118086095D01*
X92728628Y-118086095D02*
X92633390Y-118133714D01*
X231380819Y-136707714D02*
X230380819Y-136707714D01*
X230380819Y-136707714D02*
X230380819Y-136945809D01*
X230380819Y-136945809D02*
X230428438Y-137088666D01*
X230428438Y-137088666D02*
X230523676Y-137183904D01*
X230523676Y-137183904D02*
X230618914Y-137231523D01*
X230618914Y-137231523D02*
X230809390Y-137279142D01*
X230809390Y-137279142D02*
X230952247Y-137279142D01*
X230952247Y-137279142D02*
X231142723Y-137231523D01*
X231142723Y-137231523D02*
X231237961Y-137183904D01*
X231237961Y-137183904D02*
X231333200Y-137088666D01*
X231333200Y-137088666D02*
X231380819Y-136945809D01*
X231380819Y-136945809D02*
X231380819Y-136707714D01*
X230476057Y-137660095D02*
X230428438Y-137707714D01*
X230428438Y-137707714D02*
X230380819Y-137802952D01*
X230380819Y-137802952D02*
X230380819Y-138041047D01*
X230380819Y-138041047D02*
X230428438Y-138136285D01*
X230428438Y-138136285D02*
X230476057Y-138183904D01*
X230476057Y-138183904D02*
X230571295Y-138231523D01*
X230571295Y-138231523D02*
X230666533Y-138231523D01*
X230666533Y-138231523D02*
X230809390Y-138183904D01*
X230809390Y-138183904D02*
X231380819Y-137612476D01*
X231380819Y-137612476D02*
X231380819Y-138231523D01*
X230380819Y-139088666D02*
X230380819Y-138898190D01*
X230380819Y-138898190D02*
X230428438Y-138802952D01*
X230428438Y-138802952D02*
X230476057Y-138755333D01*
X230476057Y-138755333D02*
X230618914Y-138660095D01*
X230618914Y-138660095D02*
X230809390Y-138612476D01*
X230809390Y-138612476D02*
X231190342Y-138612476D01*
X231190342Y-138612476D02*
X231285580Y-138660095D01*
X231285580Y-138660095D02*
X231333200Y-138707714D01*
X231333200Y-138707714D02*
X231380819Y-138802952D01*
X231380819Y-138802952D02*
X231380819Y-138993428D01*
X231380819Y-138993428D02*
X231333200Y-139088666D01*
X231333200Y-139088666D02*
X231285580Y-139136285D01*
X231285580Y-139136285D02*
X231190342Y-139183904D01*
X231190342Y-139183904D02*
X230952247Y-139183904D01*
X230952247Y-139183904D02*
X230857009Y-139136285D01*
X230857009Y-139136285D02*
X230809390Y-139088666D01*
X230809390Y-139088666D02*
X230761771Y-138993428D01*
X230761771Y-138993428D02*
X230761771Y-138802952D01*
X230761771Y-138802952D02*
X230809390Y-138707714D01*
X230809390Y-138707714D02*
X230857009Y-138660095D01*
X230857009Y-138660095D02*
X230952247Y-138612476D01*
X64756819Y-96035905D02*
X63756819Y-96035905D01*
X63756819Y-96035905D02*
X63756819Y-96274000D01*
X63756819Y-96274000D02*
X63804438Y-96416857D01*
X63804438Y-96416857D02*
X63899676Y-96512095D01*
X63899676Y-96512095D02*
X63994914Y-96559714D01*
X63994914Y-96559714D02*
X64185390Y-96607333D01*
X64185390Y-96607333D02*
X64328247Y-96607333D01*
X64328247Y-96607333D02*
X64518723Y-96559714D01*
X64518723Y-96559714D02*
X64613961Y-96512095D01*
X64613961Y-96512095D02*
X64709200Y-96416857D01*
X64709200Y-96416857D02*
X64756819Y-96274000D01*
X64756819Y-96274000D02*
X64756819Y-96035905D01*
X63852057Y-96988286D02*
X63804438Y-97035905D01*
X63804438Y-97035905D02*
X63756819Y-97131143D01*
X63756819Y-97131143D02*
X63756819Y-97369238D01*
X63756819Y-97369238D02*
X63804438Y-97464476D01*
X63804438Y-97464476D02*
X63852057Y-97512095D01*
X63852057Y-97512095D02*
X63947295Y-97559714D01*
X63947295Y-97559714D02*
X64042533Y-97559714D01*
X64042533Y-97559714D02*
X64185390Y-97512095D01*
X64185390Y-97512095D02*
X64756819Y-96940667D01*
X64756819Y-96940667D02*
X64756819Y-97559714D01*
X145528819Y-157281714D02*
X144528819Y-157281714D01*
X144528819Y-157281714D02*
X144528819Y-157519809D01*
X144528819Y-157519809D02*
X144576438Y-157662666D01*
X144576438Y-157662666D02*
X144671676Y-157757904D01*
X144671676Y-157757904D02*
X144766914Y-157805523D01*
X144766914Y-157805523D02*
X144957390Y-157853142D01*
X144957390Y-157853142D02*
X145100247Y-157853142D01*
X145100247Y-157853142D02*
X145290723Y-157805523D01*
X145290723Y-157805523D02*
X145385961Y-157757904D01*
X145385961Y-157757904D02*
X145481200Y-157662666D01*
X145481200Y-157662666D02*
X145528819Y-157519809D01*
X145528819Y-157519809D02*
X145528819Y-157281714D01*
X145528819Y-158805523D02*
X145528819Y-158234095D01*
X145528819Y-158519809D02*
X144528819Y-158519809D01*
X144528819Y-158519809D02*
X144671676Y-158424571D01*
X144671676Y-158424571D02*
X144766914Y-158329333D01*
X144766914Y-158329333D02*
X144814533Y-158234095D01*
X144528819Y-159662666D02*
X144528819Y-159472190D01*
X144528819Y-159472190D02*
X144576438Y-159376952D01*
X144576438Y-159376952D02*
X144624057Y-159329333D01*
X144624057Y-159329333D02*
X144766914Y-159234095D01*
X144766914Y-159234095D02*
X144957390Y-159186476D01*
X144957390Y-159186476D02*
X145338342Y-159186476D01*
X145338342Y-159186476D02*
X145433580Y-159234095D01*
X145433580Y-159234095D02*
X145481200Y-159281714D01*
X145481200Y-159281714D02*
X145528819Y-159376952D01*
X145528819Y-159376952D02*
X145528819Y-159567428D01*
X145528819Y-159567428D02*
X145481200Y-159662666D01*
X145481200Y-159662666D02*
X145433580Y-159710285D01*
X145433580Y-159710285D02*
X145338342Y-159757904D01*
X145338342Y-159757904D02*
X145100247Y-159757904D01*
X145100247Y-159757904D02*
X145005009Y-159710285D01*
X145005009Y-159710285D02*
X144957390Y-159662666D01*
X144957390Y-159662666D02*
X144909771Y-159567428D01*
X144909771Y-159567428D02*
X144909771Y-159376952D01*
X144909771Y-159376952D02*
X144957390Y-159281714D01*
X144957390Y-159281714D02*
X145005009Y-159234095D01*
X145005009Y-159234095D02*
X145100247Y-159186476D01*
X444486819Y-116133714D02*
X443486819Y-116133714D01*
X443486819Y-116133714D02*
X443486819Y-116371809D01*
X443486819Y-116371809D02*
X443534438Y-116514666D01*
X443534438Y-116514666D02*
X443629676Y-116609904D01*
X443629676Y-116609904D02*
X443724914Y-116657523D01*
X443724914Y-116657523D02*
X443915390Y-116705142D01*
X443915390Y-116705142D02*
X444058247Y-116705142D01*
X444058247Y-116705142D02*
X444248723Y-116657523D01*
X444248723Y-116657523D02*
X444343961Y-116609904D01*
X444343961Y-116609904D02*
X444439200Y-116514666D01*
X444439200Y-116514666D02*
X444486819Y-116371809D01*
X444486819Y-116371809D02*
X444486819Y-116133714D01*
X443486819Y-117609904D02*
X443486819Y-117133714D01*
X443486819Y-117133714D02*
X443963009Y-117086095D01*
X443963009Y-117086095D02*
X443915390Y-117133714D01*
X443915390Y-117133714D02*
X443867771Y-117228952D01*
X443867771Y-117228952D02*
X443867771Y-117467047D01*
X443867771Y-117467047D02*
X443915390Y-117562285D01*
X443915390Y-117562285D02*
X443963009Y-117609904D01*
X443963009Y-117609904D02*
X444058247Y-117657523D01*
X444058247Y-117657523D02*
X444296342Y-117657523D01*
X444296342Y-117657523D02*
X444391580Y-117609904D01*
X444391580Y-117609904D02*
X444439200Y-117562285D01*
X444439200Y-117562285D02*
X444486819Y-117467047D01*
X444486819Y-117467047D02*
X444486819Y-117228952D01*
X444486819Y-117228952D02*
X444439200Y-117133714D01*
X444439200Y-117133714D02*
X444391580Y-117086095D01*
X444486819Y-118609904D02*
X444486819Y-118038476D01*
X444486819Y-118324190D02*
X443486819Y-118324190D01*
X443486819Y-118324190D02*
X443629676Y-118228952D01*
X443629676Y-118228952D02*
X443724914Y-118133714D01*
X443724914Y-118133714D02*
X443772533Y-118038476D01*
X188454819Y-54411714D02*
X187454819Y-54411714D01*
X187454819Y-54411714D02*
X187454819Y-54649809D01*
X187454819Y-54649809D02*
X187502438Y-54792666D01*
X187502438Y-54792666D02*
X187597676Y-54887904D01*
X187597676Y-54887904D02*
X187692914Y-54935523D01*
X187692914Y-54935523D02*
X187883390Y-54983142D01*
X187883390Y-54983142D02*
X188026247Y-54983142D01*
X188026247Y-54983142D02*
X188216723Y-54935523D01*
X188216723Y-54935523D02*
X188311961Y-54887904D01*
X188311961Y-54887904D02*
X188407200Y-54792666D01*
X188407200Y-54792666D02*
X188454819Y-54649809D01*
X188454819Y-54649809D02*
X188454819Y-54411714D01*
X188454819Y-55935523D02*
X188454819Y-55364095D01*
X188454819Y-55649809D02*
X187454819Y-55649809D01*
X187454819Y-55649809D02*
X187597676Y-55554571D01*
X187597676Y-55554571D02*
X187692914Y-55459333D01*
X187692914Y-55459333D02*
X187740533Y-55364095D01*
X187883390Y-56506952D02*
X187835771Y-56411714D01*
X187835771Y-56411714D02*
X187788152Y-56364095D01*
X187788152Y-56364095D02*
X187692914Y-56316476D01*
X187692914Y-56316476D02*
X187645295Y-56316476D01*
X187645295Y-56316476D02*
X187550057Y-56364095D01*
X187550057Y-56364095D02*
X187502438Y-56411714D01*
X187502438Y-56411714D02*
X187454819Y-56506952D01*
X187454819Y-56506952D02*
X187454819Y-56697428D01*
X187454819Y-56697428D02*
X187502438Y-56792666D01*
X187502438Y-56792666D02*
X187550057Y-56840285D01*
X187550057Y-56840285D02*
X187645295Y-56887904D01*
X187645295Y-56887904D02*
X187692914Y-56887904D01*
X187692914Y-56887904D02*
X187788152Y-56840285D01*
X187788152Y-56840285D02*
X187835771Y-56792666D01*
X187835771Y-56792666D02*
X187883390Y-56697428D01*
X187883390Y-56697428D02*
X187883390Y-56506952D01*
X187883390Y-56506952D02*
X187931009Y-56411714D01*
X187931009Y-56411714D02*
X187978628Y-56364095D01*
X187978628Y-56364095D02*
X188073866Y-56316476D01*
X188073866Y-56316476D02*
X188264342Y-56316476D01*
X188264342Y-56316476D02*
X188359580Y-56364095D01*
X188359580Y-56364095D02*
X188407200Y-56411714D01*
X188407200Y-56411714D02*
X188454819Y-56506952D01*
X188454819Y-56506952D02*
X188454819Y-56697428D01*
X188454819Y-56697428D02*
X188407200Y-56792666D01*
X188407200Y-56792666D02*
X188359580Y-56840285D01*
X188359580Y-56840285D02*
X188264342Y-56887904D01*
X188264342Y-56887904D02*
X188073866Y-56887904D01*
X188073866Y-56887904D02*
X187978628Y-56840285D01*
X187978628Y-56840285D02*
X187931009Y-56792666D01*
X187931009Y-56792666D02*
X187883390Y-56697428D01*
X245604819Y-116133714D02*
X244604819Y-116133714D01*
X244604819Y-116133714D02*
X244604819Y-116371809D01*
X244604819Y-116371809D02*
X244652438Y-116514666D01*
X244652438Y-116514666D02*
X244747676Y-116609904D01*
X244747676Y-116609904D02*
X244842914Y-116657523D01*
X244842914Y-116657523D02*
X245033390Y-116705142D01*
X245033390Y-116705142D02*
X245176247Y-116705142D01*
X245176247Y-116705142D02*
X245366723Y-116657523D01*
X245366723Y-116657523D02*
X245461961Y-116609904D01*
X245461961Y-116609904D02*
X245557200Y-116514666D01*
X245557200Y-116514666D02*
X245604819Y-116371809D01*
X245604819Y-116371809D02*
X245604819Y-116133714D01*
X244604819Y-117038476D02*
X244604819Y-117657523D01*
X244604819Y-117657523D02*
X244985771Y-117324190D01*
X244985771Y-117324190D02*
X244985771Y-117467047D01*
X244985771Y-117467047D02*
X245033390Y-117562285D01*
X245033390Y-117562285D02*
X245081009Y-117609904D01*
X245081009Y-117609904D02*
X245176247Y-117657523D01*
X245176247Y-117657523D02*
X245414342Y-117657523D01*
X245414342Y-117657523D02*
X245509580Y-117609904D01*
X245509580Y-117609904D02*
X245557200Y-117562285D01*
X245557200Y-117562285D02*
X245604819Y-117467047D01*
X245604819Y-117467047D02*
X245604819Y-117181333D01*
X245604819Y-117181333D02*
X245557200Y-117086095D01*
X245557200Y-117086095D02*
X245509580Y-117038476D01*
X245604819Y-118609904D02*
X245604819Y-118038476D01*
X245604819Y-118324190D02*
X244604819Y-118324190D01*
X244604819Y-118324190D02*
X244747676Y-118228952D01*
X244747676Y-118228952D02*
X244842914Y-118133714D01*
X244842914Y-118133714D02*
X244890533Y-118038476D01*
X378446819Y-180395714D02*
X377446819Y-180395714D01*
X377446819Y-180395714D02*
X377446819Y-180633809D01*
X377446819Y-180633809D02*
X377494438Y-180776666D01*
X377494438Y-180776666D02*
X377589676Y-180871904D01*
X377589676Y-180871904D02*
X377684914Y-180919523D01*
X377684914Y-180919523D02*
X377875390Y-180967142D01*
X377875390Y-180967142D02*
X378018247Y-180967142D01*
X378018247Y-180967142D02*
X378208723Y-180919523D01*
X378208723Y-180919523D02*
X378303961Y-180871904D01*
X378303961Y-180871904D02*
X378399200Y-180776666D01*
X378399200Y-180776666D02*
X378446819Y-180633809D01*
X378446819Y-180633809D02*
X378446819Y-180395714D01*
X377446819Y-181871904D02*
X377446819Y-181395714D01*
X377446819Y-181395714D02*
X377923009Y-181348095D01*
X377923009Y-181348095D02*
X377875390Y-181395714D01*
X377875390Y-181395714D02*
X377827771Y-181490952D01*
X377827771Y-181490952D02*
X377827771Y-181729047D01*
X377827771Y-181729047D02*
X377875390Y-181824285D01*
X377875390Y-181824285D02*
X377923009Y-181871904D01*
X377923009Y-181871904D02*
X378018247Y-181919523D01*
X378018247Y-181919523D02*
X378256342Y-181919523D01*
X378256342Y-181919523D02*
X378351580Y-181871904D01*
X378351580Y-181871904D02*
X378399200Y-181824285D01*
X378399200Y-181824285D02*
X378446819Y-181729047D01*
X378446819Y-181729047D02*
X378446819Y-181490952D01*
X378446819Y-181490952D02*
X378399200Y-181395714D01*
X378399200Y-181395714D02*
X378351580Y-181348095D01*
X377446819Y-182824285D02*
X377446819Y-182348095D01*
X377446819Y-182348095D02*
X377923009Y-182300476D01*
X377923009Y-182300476D02*
X377875390Y-182348095D01*
X377875390Y-182348095D02*
X377827771Y-182443333D01*
X377827771Y-182443333D02*
X377827771Y-182681428D01*
X377827771Y-182681428D02*
X377875390Y-182776666D01*
X377875390Y-182776666D02*
X377923009Y-182824285D01*
X377923009Y-182824285D02*
X378018247Y-182871904D01*
X378018247Y-182871904D02*
X378256342Y-182871904D01*
X378256342Y-182871904D02*
X378351580Y-182824285D01*
X378351580Y-182824285D02*
X378399200Y-182776666D01*
X378399200Y-182776666D02*
X378446819Y-182681428D01*
X378446819Y-182681428D02*
X378446819Y-182443333D01*
X378446819Y-182443333D02*
X378399200Y-182348095D01*
X378399200Y-182348095D02*
X378351580Y-182300476D01*
X169404819Y-116133714D02*
X168404819Y-116133714D01*
X168404819Y-116133714D02*
X168404819Y-116371809D01*
X168404819Y-116371809D02*
X168452438Y-116514666D01*
X168452438Y-116514666D02*
X168547676Y-116609904D01*
X168547676Y-116609904D02*
X168642914Y-116657523D01*
X168642914Y-116657523D02*
X168833390Y-116705142D01*
X168833390Y-116705142D02*
X168976247Y-116705142D01*
X168976247Y-116705142D02*
X169166723Y-116657523D01*
X169166723Y-116657523D02*
X169261961Y-116609904D01*
X169261961Y-116609904D02*
X169357200Y-116514666D01*
X169357200Y-116514666D02*
X169404819Y-116371809D01*
X169404819Y-116371809D02*
X169404819Y-116133714D01*
X168500057Y-117086095D02*
X168452438Y-117133714D01*
X168452438Y-117133714D02*
X168404819Y-117228952D01*
X168404819Y-117228952D02*
X168404819Y-117467047D01*
X168404819Y-117467047D02*
X168452438Y-117562285D01*
X168452438Y-117562285D02*
X168500057Y-117609904D01*
X168500057Y-117609904D02*
X168595295Y-117657523D01*
X168595295Y-117657523D02*
X168690533Y-117657523D01*
X168690533Y-117657523D02*
X168833390Y-117609904D01*
X168833390Y-117609904D02*
X169404819Y-117038476D01*
X169404819Y-117038476D02*
X169404819Y-117657523D01*
X168404819Y-118276571D02*
X168404819Y-118371809D01*
X168404819Y-118371809D02*
X168452438Y-118467047D01*
X168452438Y-118467047D02*
X168500057Y-118514666D01*
X168500057Y-118514666D02*
X168595295Y-118562285D01*
X168595295Y-118562285D02*
X168785771Y-118609904D01*
X168785771Y-118609904D02*
X169023866Y-118609904D01*
X169023866Y-118609904D02*
X169214342Y-118562285D01*
X169214342Y-118562285D02*
X169309580Y-118514666D01*
X169309580Y-118514666D02*
X169357200Y-118467047D01*
X169357200Y-118467047D02*
X169404819Y-118371809D01*
X169404819Y-118371809D02*
X169404819Y-118276571D01*
X169404819Y-118276571D02*
X169357200Y-118181333D01*
X169357200Y-118181333D02*
X169309580Y-118133714D01*
X169309580Y-118133714D02*
X169214342Y-118086095D01*
X169214342Y-118086095D02*
X169023866Y-118038476D01*
X169023866Y-118038476D02*
X168785771Y-118038476D01*
X168785771Y-118038476D02*
X168595295Y-118086095D01*
X168595295Y-118086095D02*
X168500057Y-118133714D01*
X168500057Y-118133714D02*
X168452438Y-118181333D01*
X168452438Y-118181333D02*
X168404819Y-118276571D01*
X250430819Y-54411714D02*
X249430819Y-54411714D01*
X249430819Y-54411714D02*
X249430819Y-54649809D01*
X249430819Y-54649809D02*
X249478438Y-54792666D01*
X249478438Y-54792666D02*
X249573676Y-54887904D01*
X249573676Y-54887904D02*
X249668914Y-54935523D01*
X249668914Y-54935523D02*
X249859390Y-54983142D01*
X249859390Y-54983142D02*
X250002247Y-54983142D01*
X250002247Y-54983142D02*
X250192723Y-54935523D01*
X250192723Y-54935523D02*
X250287961Y-54887904D01*
X250287961Y-54887904D02*
X250383200Y-54792666D01*
X250383200Y-54792666D02*
X250430819Y-54649809D01*
X250430819Y-54649809D02*
X250430819Y-54411714D01*
X249526057Y-55364095D02*
X249478438Y-55411714D01*
X249478438Y-55411714D02*
X249430819Y-55506952D01*
X249430819Y-55506952D02*
X249430819Y-55745047D01*
X249430819Y-55745047D02*
X249478438Y-55840285D01*
X249478438Y-55840285D02*
X249526057Y-55887904D01*
X249526057Y-55887904D02*
X249621295Y-55935523D01*
X249621295Y-55935523D02*
X249716533Y-55935523D01*
X249716533Y-55935523D02*
X249859390Y-55887904D01*
X249859390Y-55887904D02*
X250430819Y-55316476D01*
X250430819Y-55316476D02*
X250430819Y-55935523D01*
X249430819Y-56268857D02*
X249430819Y-56887904D01*
X249430819Y-56887904D02*
X249811771Y-56554571D01*
X249811771Y-56554571D02*
X249811771Y-56697428D01*
X249811771Y-56697428D02*
X249859390Y-56792666D01*
X249859390Y-56792666D02*
X249907009Y-56840285D01*
X249907009Y-56840285D02*
X250002247Y-56887904D01*
X250002247Y-56887904D02*
X250240342Y-56887904D01*
X250240342Y-56887904D02*
X250335580Y-56840285D01*
X250335580Y-56840285D02*
X250383200Y-56792666D01*
X250383200Y-56792666D02*
X250430819Y-56697428D01*
X250430819Y-56697428D02*
X250430819Y-56411714D01*
X250430819Y-56411714D02*
X250383200Y-56316476D01*
X250383200Y-56316476D02*
X250335580Y-56268857D01*
X359396819Y-54411714D02*
X358396819Y-54411714D01*
X358396819Y-54411714D02*
X358396819Y-54649809D01*
X358396819Y-54649809D02*
X358444438Y-54792666D01*
X358444438Y-54792666D02*
X358539676Y-54887904D01*
X358539676Y-54887904D02*
X358634914Y-54935523D01*
X358634914Y-54935523D02*
X358825390Y-54983142D01*
X358825390Y-54983142D02*
X358968247Y-54983142D01*
X358968247Y-54983142D02*
X359158723Y-54935523D01*
X359158723Y-54935523D02*
X359253961Y-54887904D01*
X359253961Y-54887904D02*
X359349200Y-54792666D01*
X359349200Y-54792666D02*
X359396819Y-54649809D01*
X359396819Y-54649809D02*
X359396819Y-54411714D01*
X358396819Y-55316476D02*
X358396819Y-55935523D01*
X358396819Y-55935523D02*
X358777771Y-55602190D01*
X358777771Y-55602190D02*
X358777771Y-55745047D01*
X358777771Y-55745047D02*
X358825390Y-55840285D01*
X358825390Y-55840285D02*
X358873009Y-55887904D01*
X358873009Y-55887904D02*
X358968247Y-55935523D01*
X358968247Y-55935523D02*
X359206342Y-55935523D01*
X359206342Y-55935523D02*
X359301580Y-55887904D01*
X359301580Y-55887904D02*
X359349200Y-55840285D01*
X359349200Y-55840285D02*
X359396819Y-55745047D01*
X359396819Y-55745047D02*
X359396819Y-55459333D01*
X359396819Y-55459333D02*
X359349200Y-55364095D01*
X359349200Y-55364095D02*
X359301580Y-55316476D01*
X359396819Y-56411714D02*
X359396819Y-56602190D01*
X359396819Y-56602190D02*
X359349200Y-56697428D01*
X359349200Y-56697428D02*
X359301580Y-56745047D01*
X359301580Y-56745047D02*
X359158723Y-56840285D01*
X359158723Y-56840285D02*
X358968247Y-56887904D01*
X358968247Y-56887904D02*
X358587295Y-56887904D01*
X358587295Y-56887904D02*
X358492057Y-56840285D01*
X358492057Y-56840285D02*
X358444438Y-56792666D01*
X358444438Y-56792666D02*
X358396819Y-56697428D01*
X358396819Y-56697428D02*
X358396819Y-56506952D01*
X358396819Y-56506952D02*
X358444438Y-56411714D01*
X358444438Y-56411714D02*
X358492057Y-56364095D01*
X358492057Y-56364095D02*
X358587295Y-56316476D01*
X358587295Y-56316476D02*
X358825390Y-56316476D01*
X358825390Y-56316476D02*
X358920628Y-56364095D01*
X358920628Y-56364095D02*
X358968247Y-56411714D01*
X358968247Y-56411714D02*
X359015866Y-56506952D01*
X359015866Y-56506952D02*
X359015866Y-56697428D01*
X359015866Y-56697428D02*
X358968247Y-56792666D01*
X358968247Y-56792666D02*
X358920628Y-56840285D01*
X358920628Y-56840285D02*
X358825390Y-56887904D01*
X293102819Y-95559714D02*
X292102819Y-95559714D01*
X292102819Y-95559714D02*
X292102819Y-95797809D01*
X292102819Y-95797809D02*
X292150438Y-95940666D01*
X292150438Y-95940666D02*
X292245676Y-96035904D01*
X292245676Y-96035904D02*
X292340914Y-96083523D01*
X292340914Y-96083523D02*
X292531390Y-96131142D01*
X292531390Y-96131142D02*
X292674247Y-96131142D01*
X292674247Y-96131142D02*
X292864723Y-96083523D01*
X292864723Y-96083523D02*
X292959961Y-96035904D01*
X292959961Y-96035904D02*
X293055200Y-95940666D01*
X293055200Y-95940666D02*
X293102819Y-95797809D01*
X293102819Y-95797809D02*
X293102819Y-95559714D01*
X292102819Y-96464476D02*
X292102819Y-97083523D01*
X292102819Y-97083523D02*
X292483771Y-96750190D01*
X292483771Y-96750190D02*
X292483771Y-96893047D01*
X292483771Y-96893047D02*
X292531390Y-96988285D01*
X292531390Y-96988285D02*
X292579009Y-97035904D01*
X292579009Y-97035904D02*
X292674247Y-97083523D01*
X292674247Y-97083523D02*
X292912342Y-97083523D01*
X292912342Y-97083523D02*
X293007580Y-97035904D01*
X293007580Y-97035904D02*
X293055200Y-96988285D01*
X293055200Y-96988285D02*
X293102819Y-96893047D01*
X293102819Y-96893047D02*
X293102819Y-96607333D01*
X293102819Y-96607333D02*
X293055200Y-96512095D01*
X293055200Y-96512095D02*
X293007580Y-96464476D01*
X292102819Y-97988285D02*
X292102819Y-97512095D01*
X292102819Y-97512095D02*
X292579009Y-97464476D01*
X292579009Y-97464476D02*
X292531390Y-97512095D01*
X292531390Y-97512095D02*
X292483771Y-97607333D01*
X292483771Y-97607333D02*
X292483771Y-97845428D01*
X292483771Y-97845428D02*
X292531390Y-97940666D01*
X292531390Y-97940666D02*
X292579009Y-97988285D01*
X292579009Y-97988285D02*
X292674247Y-98035904D01*
X292674247Y-98035904D02*
X292912342Y-98035904D01*
X292912342Y-98035904D02*
X293007580Y-97988285D01*
X293007580Y-97988285D02*
X293055200Y-97940666D01*
X293055200Y-97940666D02*
X293102819Y-97845428D01*
X293102819Y-97845428D02*
X293102819Y-97607333D01*
X293102819Y-97607333D02*
X293055200Y-97512095D01*
X293055200Y-97512095D02*
X293007580Y-97464476D01*
X299960819Y-157281714D02*
X298960819Y-157281714D01*
X298960819Y-157281714D02*
X298960819Y-157519809D01*
X298960819Y-157519809D02*
X299008438Y-157662666D01*
X299008438Y-157662666D02*
X299103676Y-157757904D01*
X299103676Y-157757904D02*
X299198914Y-157805523D01*
X299198914Y-157805523D02*
X299389390Y-157853142D01*
X299389390Y-157853142D02*
X299532247Y-157853142D01*
X299532247Y-157853142D02*
X299722723Y-157805523D01*
X299722723Y-157805523D02*
X299817961Y-157757904D01*
X299817961Y-157757904D02*
X299913200Y-157662666D01*
X299913200Y-157662666D02*
X299960819Y-157519809D01*
X299960819Y-157519809D02*
X299960819Y-157281714D01*
X298960819Y-158186476D02*
X298960819Y-158805523D01*
X298960819Y-158805523D02*
X299341771Y-158472190D01*
X299341771Y-158472190D02*
X299341771Y-158615047D01*
X299341771Y-158615047D02*
X299389390Y-158710285D01*
X299389390Y-158710285D02*
X299437009Y-158757904D01*
X299437009Y-158757904D02*
X299532247Y-158805523D01*
X299532247Y-158805523D02*
X299770342Y-158805523D01*
X299770342Y-158805523D02*
X299865580Y-158757904D01*
X299865580Y-158757904D02*
X299913200Y-158710285D01*
X299913200Y-158710285D02*
X299960819Y-158615047D01*
X299960819Y-158615047D02*
X299960819Y-158329333D01*
X299960819Y-158329333D02*
X299913200Y-158234095D01*
X299913200Y-158234095D02*
X299865580Y-158186476D01*
X299389390Y-159376952D02*
X299341771Y-159281714D01*
X299341771Y-159281714D02*
X299294152Y-159234095D01*
X299294152Y-159234095D02*
X299198914Y-159186476D01*
X299198914Y-159186476D02*
X299151295Y-159186476D01*
X299151295Y-159186476D02*
X299056057Y-159234095D01*
X299056057Y-159234095D02*
X299008438Y-159281714D01*
X299008438Y-159281714D02*
X298960819Y-159376952D01*
X298960819Y-159376952D02*
X298960819Y-159567428D01*
X298960819Y-159567428D02*
X299008438Y-159662666D01*
X299008438Y-159662666D02*
X299056057Y-159710285D01*
X299056057Y-159710285D02*
X299151295Y-159757904D01*
X299151295Y-159757904D02*
X299198914Y-159757904D01*
X299198914Y-159757904D02*
X299294152Y-159710285D01*
X299294152Y-159710285D02*
X299341771Y-159662666D01*
X299341771Y-159662666D02*
X299389390Y-159567428D01*
X299389390Y-159567428D02*
X299389390Y-159376952D01*
X299389390Y-159376952D02*
X299437009Y-159281714D01*
X299437009Y-159281714D02*
X299484628Y-159234095D01*
X299484628Y-159234095D02*
X299579866Y-159186476D01*
X299579866Y-159186476D02*
X299770342Y-159186476D01*
X299770342Y-159186476D02*
X299865580Y-159234095D01*
X299865580Y-159234095D02*
X299913200Y-159281714D01*
X299913200Y-159281714D02*
X299960819Y-159376952D01*
X299960819Y-159376952D02*
X299960819Y-159567428D01*
X299960819Y-159567428D02*
X299913200Y-159662666D01*
X299913200Y-159662666D02*
X299865580Y-159710285D01*
X299865580Y-159710285D02*
X299770342Y-159757904D01*
X299770342Y-159757904D02*
X299579866Y-159757904D01*
X299579866Y-159757904D02*
X299484628Y-159710285D01*
X299484628Y-159710285D02*
X299437009Y-159662666D01*
X299437009Y-159662666D02*
X299389390Y-159567428D01*
X385050819Y-161345714D02*
X384050819Y-161345714D01*
X384050819Y-161345714D02*
X384050819Y-161583809D01*
X384050819Y-161583809D02*
X384098438Y-161726666D01*
X384098438Y-161726666D02*
X384193676Y-161821904D01*
X384193676Y-161821904D02*
X384288914Y-161869523D01*
X384288914Y-161869523D02*
X384479390Y-161917142D01*
X384479390Y-161917142D02*
X384622247Y-161917142D01*
X384622247Y-161917142D02*
X384812723Y-161869523D01*
X384812723Y-161869523D02*
X384907961Y-161821904D01*
X384907961Y-161821904D02*
X385003200Y-161726666D01*
X385003200Y-161726666D02*
X385050819Y-161583809D01*
X385050819Y-161583809D02*
X385050819Y-161345714D01*
X384384152Y-162774285D02*
X385050819Y-162774285D01*
X384003200Y-162536190D02*
X384717485Y-162298095D01*
X384717485Y-162298095D02*
X384717485Y-162917142D01*
X384479390Y-163440952D02*
X384431771Y-163345714D01*
X384431771Y-163345714D02*
X384384152Y-163298095D01*
X384384152Y-163298095D02*
X384288914Y-163250476D01*
X384288914Y-163250476D02*
X384241295Y-163250476D01*
X384241295Y-163250476D02*
X384146057Y-163298095D01*
X384146057Y-163298095D02*
X384098438Y-163345714D01*
X384098438Y-163345714D02*
X384050819Y-163440952D01*
X384050819Y-163440952D02*
X384050819Y-163631428D01*
X384050819Y-163631428D02*
X384098438Y-163726666D01*
X384098438Y-163726666D02*
X384146057Y-163774285D01*
X384146057Y-163774285D02*
X384241295Y-163821904D01*
X384241295Y-163821904D02*
X384288914Y-163821904D01*
X384288914Y-163821904D02*
X384384152Y-163774285D01*
X384384152Y-163774285D02*
X384431771Y-163726666D01*
X384431771Y-163726666D02*
X384479390Y-163631428D01*
X384479390Y-163631428D02*
X384479390Y-163440952D01*
X384479390Y-163440952D02*
X384527009Y-163345714D01*
X384527009Y-163345714D02*
X384574628Y-163298095D01*
X384574628Y-163298095D02*
X384669866Y-163250476D01*
X384669866Y-163250476D02*
X384860342Y-163250476D01*
X384860342Y-163250476D02*
X384955580Y-163298095D01*
X384955580Y-163298095D02*
X385003200Y-163345714D01*
X385003200Y-163345714D02*
X385050819Y-163440952D01*
X385050819Y-163440952D02*
X385050819Y-163631428D01*
X385050819Y-163631428D02*
X385003200Y-163726666D01*
X385003200Y-163726666D02*
X384955580Y-163774285D01*
X384955580Y-163774285D02*
X384860342Y-163821904D01*
X384860342Y-163821904D02*
X384669866Y-163821904D01*
X384669866Y-163821904D02*
X384574628Y-163774285D01*
X384574628Y-163774285D02*
X384527009Y-163726666D01*
X384527009Y-163726666D02*
X384479390Y-163631428D01*
X102856819Y-54887905D02*
X101856819Y-54887905D01*
X101856819Y-54887905D02*
X101856819Y-55126000D01*
X101856819Y-55126000D02*
X101904438Y-55268857D01*
X101904438Y-55268857D02*
X101999676Y-55364095D01*
X101999676Y-55364095D02*
X102094914Y-55411714D01*
X102094914Y-55411714D02*
X102285390Y-55459333D01*
X102285390Y-55459333D02*
X102428247Y-55459333D01*
X102428247Y-55459333D02*
X102618723Y-55411714D01*
X102618723Y-55411714D02*
X102713961Y-55364095D01*
X102713961Y-55364095D02*
X102809200Y-55268857D01*
X102809200Y-55268857D02*
X102856819Y-55126000D01*
X102856819Y-55126000D02*
X102856819Y-54887905D01*
X101856819Y-55792667D02*
X101856819Y-56459333D01*
X101856819Y-56459333D02*
X102856819Y-56030762D01*
X91172819Y-159059714D02*
X90172819Y-159059714D01*
X90172819Y-159059714D02*
X90172819Y-159297809D01*
X90172819Y-159297809D02*
X90220438Y-159440666D01*
X90220438Y-159440666D02*
X90315676Y-159535904D01*
X90315676Y-159535904D02*
X90410914Y-159583523D01*
X90410914Y-159583523D02*
X90601390Y-159631142D01*
X90601390Y-159631142D02*
X90744247Y-159631142D01*
X90744247Y-159631142D02*
X90934723Y-159583523D01*
X90934723Y-159583523D02*
X91029961Y-159535904D01*
X91029961Y-159535904D02*
X91125200Y-159440666D01*
X91125200Y-159440666D02*
X91172819Y-159297809D01*
X91172819Y-159297809D02*
X91172819Y-159059714D01*
X91172819Y-160583523D02*
X91172819Y-160012095D01*
X91172819Y-160297809D02*
X90172819Y-160297809D01*
X90172819Y-160297809D02*
X90315676Y-160202571D01*
X90315676Y-160202571D02*
X90410914Y-160107333D01*
X90410914Y-160107333D02*
X90458533Y-160012095D01*
X91172819Y-161535904D02*
X91172819Y-160964476D01*
X91172819Y-161250190D02*
X90172819Y-161250190D01*
X90172819Y-161250190D02*
X90315676Y-161154952D01*
X90315676Y-161154952D02*
X90410914Y-161059714D01*
X90410914Y-161059714D02*
X90458533Y-160964476D01*
X160006819Y-95559714D02*
X159006819Y-95559714D01*
X159006819Y-95559714D02*
X159006819Y-95797809D01*
X159006819Y-95797809D02*
X159054438Y-95940666D01*
X159054438Y-95940666D02*
X159149676Y-96035904D01*
X159149676Y-96035904D02*
X159244914Y-96083523D01*
X159244914Y-96083523D02*
X159435390Y-96131142D01*
X159435390Y-96131142D02*
X159578247Y-96131142D01*
X159578247Y-96131142D02*
X159768723Y-96083523D01*
X159768723Y-96083523D02*
X159863961Y-96035904D01*
X159863961Y-96035904D02*
X159959200Y-95940666D01*
X159959200Y-95940666D02*
X160006819Y-95797809D01*
X160006819Y-95797809D02*
X160006819Y-95559714D01*
X160006819Y-97083523D02*
X160006819Y-96512095D01*
X160006819Y-96797809D02*
X159006819Y-96797809D01*
X159006819Y-96797809D02*
X159149676Y-96702571D01*
X159149676Y-96702571D02*
X159244914Y-96607333D01*
X159244914Y-96607333D02*
X159292533Y-96512095D01*
X160006819Y-97559714D02*
X160006819Y-97750190D01*
X160006819Y-97750190D02*
X159959200Y-97845428D01*
X159959200Y-97845428D02*
X159911580Y-97893047D01*
X159911580Y-97893047D02*
X159768723Y-97988285D01*
X159768723Y-97988285D02*
X159578247Y-98035904D01*
X159578247Y-98035904D02*
X159197295Y-98035904D01*
X159197295Y-98035904D02*
X159102057Y-97988285D01*
X159102057Y-97988285D02*
X159054438Y-97940666D01*
X159054438Y-97940666D02*
X159006819Y-97845428D01*
X159006819Y-97845428D02*
X159006819Y-97654952D01*
X159006819Y-97654952D02*
X159054438Y-97559714D01*
X159054438Y-97559714D02*
X159102057Y-97512095D01*
X159102057Y-97512095D02*
X159197295Y-97464476D01*
X159197295Y-97464476D02*
X159435390Y-97464476D01*
X159435390Y-97464476D02*
X159530628Y-97512095D01*
X159530628Y-97512095D02*
X159578247Y-97559714D01*
X159578247Y-97559714D02*
X159625866Y-97654952D01*
X159625866Y-97654952D02*
X159625866Y-97845428D01*
X159625866Y-97845428D02*
X159578247Y-97940666D01*
X159578247Y-97940666D02*
X159530628Y-97988285D01*
X159530628Y-97988285D02*
X159435390Y-98035904D01*
X274306819Y-54411714D02*
X273306819Y-54411714D01*
X273306819Y-54411714D02*
X273306819Y-54649809D01*
X273306819Y-54649809D02*
X273354438Y-54792666D01*
X273354438Y-54792666D02*
X273449676Y-54887904D01*
X273449676Y-54887904D02*
X273544914Y-54935523D01*
X273544914Y-54935523D02*
X273735390Y-54983142D01*
X273735390Y-54983142D02*
X273878247Y-54983142D01*
X273878247Y-54983142D02*
X274068723Y-54935523D01*
X274068723Y-54935523D02*
X274163961Y-54887904D01*
X274163961Y-54887904D02*
X274259200Y-54792666D01*
X274259200Y-54792666D02*
X274306819Y-54649809D01*
X274306819Y-54649809D02*
X274306819Y-54411714D01*
X273402057Y-55364095D02*
X273354438Y-55411714D01*
X273354438Y-55411714D02*
X273306819Y-55506952D01*
X273306819Y-55506952D02*
X273306819Y-55745047D01*
X273306819Y-55745047D02*
X273354438Y-55840285D01*
X273354438Y-55840285D02*
X273402057Y-55887904D01*
X273402057Y-55887904D02*
X273497295Y-55935523D01*
X273497295Y-55935523D02*
X273592533Y-55935523D01*
X273592533Y-55935523D02*
X273735390Y-55887904D01*
X273735390Y-55887904D02*
X274306819Y-55316476D01*
X274306819Y-55316476D02*
X274306819Y-55935523D01*
X274306819Y-56411714D02*
X274306819Y-56602190D01*
X274306819Y-56602190D02*
X274259200Y-56697428D01*
X274259200Y-56697428D02*
X274211580Y-56745047D01*
X274211580Y-56745047D02*
X274068723Y-56840285D01*
X274068723Y-56840285D02*
X273878247Y-56887904D01*
X273878247Y-56887904D02*
X273497295Y-56887904D01*
X273497295Y-56887904D02*
X273402057Y-56840285D01*
X273402057Y-56840285D02*
X273354438Y-56792666D01*
X273354438Y-56792666D02*
X273306819Y-56697428D01*
X273306819Y-56697428D02*
X273306819Y-56506952D01*
X273306819Y-56506952D02*
X273354438Y-56411714D01*
X273354438Y-56411714D02*
X273402057Y-56364095D01*
X273402057Y-56364095D02*
X273497295Y-56316476D01*
X273497295Y-56316476D02*
X273735390Y-56316476D01*
X273735390Y-56316476D02*
X273830628Y-56364095D01*
X273830628Y-56364095D02*
X273878247Y-56411714D01*
X273878247Y-56411714D02*
X273925866Y-56506952D01*
X273925866Y-56506952D02*
X273925866Y-56697428D01*
X273925866Y-56697428D02*
X273878247Y-56792666D01*
X273878247Y-56792666D02*
X273830628Y-56840285D01*
X273830628Y-56840285D02*
X273735390Y-56887904D01*
X399020819Y-166679714D02*
X398020819Y-166679714D01*
X398020819Y-166679714D02*
X398020819Y-166917809D01*
X398020819Y-166917809D02*
X398068438Y-167060666D01*
X398068438Y-167060666D02*
X398163676Y-167155904D01*
X398163676Y-167155904D02*
X398258914Y-167203523D01*
X398258914Y-167203523D02*
X398449390Y-167251142D01*
X398449390Y-167251142D02*
X398592247Y-167251142D01*
X398592247Y-167251142D02*
X398782723Y-167203523D01*
X398782723Y-167203523D02*
X398877961Y-167155904D01*
X398877961Y-167155904D02*
X398973200Y-167060666D01*
X398973200Y-167060666D02*
X399020819Y-166917809D01*
X399020819Y-166917809D02*
X399020819Y-166679714D01*
X398020819Y-168155904D02*
X398020819Y-167679714D01*
X398020819Y-167679714D02*
X398497009Y-167632095D01*
X398497009Y-167632095D02*
X398449390Y-167679714D01*
X398449390Y-167679714D02*
X398401771Y-167774952D01*
X398401771Y-167774952D02*
X398401771Y-168013047D01*
X398401771Y-168013047D02*
X398449390Y-168108285D01*
X398449390Y-168108285D02*
X398497009Y-168155904D01*
X398497009Y-168155904D02*
X398592247Y-168203523D01*
X398592247Y-168203523D02*
X398830342Y-168203523D01*
X398830342Y-168203523D02*
X398925580Y-168155904D01*
X398925580Y-168155904D02*
X398973200Y-168108285D01*
X398973200Y-168108285D02*
X399020819Y-168013047D01*
X399020819Y-168013047D02*
X399020819Y-167774952D01*
X399020819Y-167774952D02*
X398973200Y-167679714D01*
X398973200Y-167679714D02*
X398925580Y-167632095D01*
X398354152Y-169060666D02*
X399020819Y-169060666D01*
X397973200Y-168822571D02*
X398687485Y-168584476D01*
X398687485Y-168584476D02*
X398687485Y-169203523D01*
X70598819Y-178331905D02*
X69598819Y-178331905D01*
X69598819Y-178331905D02*
X69598819Y-178570000D01*
X69598819Y-178570000D02*
X69646438Y-178712857D01*
X69646438Y-178712857D02*
X69741676Y-178808095D01*
X69741676Y-178808095D02*
X69836914Y-178855714D01*
X69836914Y-178855714D02*
X70027390Y-178903333D01*
X70027390Y-178903333D02*
X70170247Y-178903333D01*
X70170247Y-178903333D02*
X70360723Y-178855714D01*
X70360723Y-178855714D02*
X70455961Y-178808095D01*
X70455961Y-178808095D02*
X70551200Y-178712857D01*
X70551200Y-178712857D02*
X70598819Y-178570000D01*
X70598819Y-178570000D02*
X70598819Y-178331905D01*
X69598819Y-179760476D02*
X69598819Y-179570000D01*
X69598819Y-179570000D02*
X69646438Y-179474762D01*
X69646438Y-179474762D02*
X69694057Y-179427143D01*
X69694057Y-179427143D02*
X69836914Y-179331905D01*
X69836914Y-179331905D02*
X70027390Y-179284286D01*
X70027390Y-179284286D02*
X70408342Y-179284286D01*
X70408342Y-179284286D02*
X70503580Y-179331905D01*
X70503580Y-179331905D02*
X70551200Y-179379524D01*
X70551200Y-179379524D02*
X70598819Y-179474762D01*
X70598819Y-179474762D02*
X70598819Y-179665238D01*
X70598819Y-179665238D02*
X70551200Y-179760476D01*
X70551200Y-179760476D02*
X70503580Y-179808095D01*
X70503580Y-179808095D02*
X70408342Y-179855714D01*
X70408342Y-179855714D02*
X70170247Y-179855714D01*
X70170247Y-179855714D02*
X70075009Y-179808095D01*
X70075009Y-179808095D02*
X70027390Y-179760476D01*
X70027390Y-179760476D02*
X69979771Y-179665238D01*
X69979771Y-179665238D02*
X69979771Y-179474762D01*
X69979771Y-179474762D02*
X70027390Y-179379524D01*
X70027390Y-179379524D02*
X70075009Y-179331905D01*
X70075009Y-179331905D02*
X70170247Y-179284286D01*
X444486819Y-157281714D02*
X443486819Y-157281714D01*
X443486819Y-157281714D02*
X443486819Y-157519809D01*
X443486819Y-157519809D02*
X443534438Y-157662666D01*
X443534438Y-157662666D02*
X443629676Y-157757904D01*
X443629676Y-157757904D02*
X443724914Y-157805523D01*
X443724914Y-157805523D02*
X443915390Y-157853142D01*
X443915390Y-157853142D02*
X444058247Y-157853142D01*
X444058247Y-157853142D02*
X444248723Y-157805523D01*
X444248723Y-157805523D02*
X444343961Y-157757904D01*
X444343961Y-157757904D02*
X444439200Y-157662666D01*
X444439200Y-157662666D02*
X444486819Y-157519809D01*
X444486819Y-157519809D02*
X444486819Y-157281714D01*
X443486819Y-158757904D02*
X443486819Y-158281714D01*
X443486819Y-158281714D02*
X443963009Y-158234095D01*
X443963009Y-158234095D02*
X443915390Y-158281714D01*
X443915390Y-158281714D02*
X443867771Y-158376952D01*
X443867771Y-158376952D02*
X443867771Y-158615047D01*
X443867771Y-158615047D02*
X443915390Y-158710285D01*
X443915390Y-158710285D02*
X443963009Y-158757904D01*
X443963009Y-158757904D02*
X444058247Y-158805523D01*
X444058247Y-158805523D02*
X444296342Y-158805523D01*
X444296342Y-158805523D02*
X444391580Y-158757904D01*
X444391580Y-158757904D02*
X444439200Y-158710285D01*
X444439200Y-158710285D02*
X444486819Y-158615047D01*
X444486819Y-158615047D02*
X444486819Y-158376952D01*
X444486819Y-158376952D02*
X444439200Y-158281714D01*
X444439200Y-158281714D02*
X444391580Y-158234095D01*
X443486819Y-159138857D02*
X443486819Y-159757904D01*
X443486819Y-159757904D02*
X443867771Y-159424571D01*
X443867771Y-159424571D02*
X443867771Y-159567428D01*
X443867771Y-159567428D02*
X443915390Y-159662666D01*
X443915390Y-159662666D02*
X443963009Y-159710285D01*
X443963009Y-159710285D02*
X444058247Y-159757904D01*
X444058247Y-159757904D02*
X444296342Y-159757904D01*
X444296342Y-159757904D02*
X444391580Y-159710285D01*
X444391580Y-159710285D02*
X444439200Y-159662666D01*
X444439200Y-159662666D02*
X444486819Y-159567428D01*
X444486819Y-159567428D02*
X444486819Y-159281714D01*
X444486819Y-159281714D02*
X444439200Y-159186476D01*
X444439200Y-159186476D02*
X444391580Y-159138857D01*
X74154819Y-116609905D02*
X73154819Y-116609905D01*
X73154819Y-116609905D02*
X73154819Y-116848000D01*
X73154819Y-116848000D02*
X73202438Y-116990857D01*
X73202438Y-116990857D02*
X73297676Y-117086095D01*
X73297676Y-117086095D02*
X73392914Y-117133714D01*
X73392914Y-117133714D02*
X73583390Y-117181333D01*
X73583390Y-117181333D02*
X73726247Y-117181333D01*
X73726247Y-117181333D02*
X73916723Y-117133714D01*
X73916723Y-117133714D02*
X74011961Y-117086095D01*
X74011961Y-117086095D02*
X74107200Y-116990857D01*
X74107200Y-116990857D02*
X74154819Y-116848000D01*
X74154819Y-116848000D02*
X74154819Y-116609905D01*
X73154819Y-117514667D02*
X73154819Y-118133714D01*
X73154819Y-118133714D02*
X73535771Y-117800381D01*
X73535771Y-117800381D02*
X73535771Y-117943238D01*
X73535771Y-117943238D02*
X73583390Y-118038476D01*
X73583390Y-118038476D02*
X73631009Y-118086095D01*
X73631009Y-118086095D02*
X73726247Y-118133714D01*
X73726247Y-118133714D02*
X73964342Y-118133714D01*
X73964342Y-118133714D02*
X74059580Y-118086095D01*
X74059580Y-118086095D02*
X74107200Y-118038476D01*
X74107200Y-118038476D02*
X74154819Y-117943238D01*
X74154819Y-117943238D02*
X74154819Y-117657524D01*
X74154819Y-117657524D02*
X74107200Y-117562286D01*
X74107200Y-117562286D02*
X74059580Y-117514667D01*
X164832819Y-54411714D02*
X163832819Y-54411714D01*
X163832819Y-54411714D02*
X163832819Y-54649809D01*
X163832819Y-54649809D02*
X163880438Y-54792666D01*
X163880438Y-54792666D02*
X163975676Y-54887904D01*
X163975676Y-54887904D02*
X164070914Y-54935523D01*
X164070914Y-54935523D02*
X164261390Y-54983142D01*
X164261390Y-54983142D02*
X164404247Y-54983142D01*
X164404247Y-54983142D02*
X164594723Y-54935523D01*
X164594723Y-54935523D02*
X164689961Y-54887904D01*
X164689961Y-54887904D02*
X164785200Y-54792666D01*
X164785200Y-54792666D02*
X164832819Y-54649809D01*
X164832819Y-54649809D02*
X164832819Y-54411714D01*
X164832819Y-55935523D02*
X164832819Y-55364095D01*
X164832819Y-55649809D02*
X163832819Y-55649809D01*
X163832819Y-55649809D02*
X163975676Y-55554571D01*
X163975676Y-55554571D02*
X164070914Y-55459333D01*
X164070914Y-55459333D02*
X164118533Y-55364095D01*
X163928057Y-56316476D02*
X163880438Y-56364095D01*
X163880438Y-56364095D02*
X163832819Y-56459333D01*
X163832819Y-56459333D02*
X163832819Y-56697428D01*
X163832819Y-56697428D02*
X163880438Y-56792666D01*
X163880438Y-56792666D02*
X163928057Y-56840285D01*
X163928057Y-56840285D02*
X164023295Y-56887904D01*
X164023295Y-56887904D02*
X164118533Y-56887904D01*
X164118533Y-56887904D02*
X164261390Y-56840285D01*
X164261390Y-56840285D02*
X164832819Y-56268857D01*
X164832819Y-56268857D02*
X164832819Y-56887904D01*
X164578819Y-157281714D02*
X163578819Y-157281714D01*
X163578819Y-157281714D02*
X163578819Y-157519809D01*
X163578819Y-157519809D02*
X163626438Y-157662666D01*
X163626438Y-157662666D02*
X163721676Y-157757904D01*
X163721676Y-157757904D02*
X163816914Y-157805523D01*
X163816914Y-157805523D02*
X164007390Y-157853142D01*
X164007390Y-157853142D02*
X164150247Y-157853142D01*
X164150247Y-157853142D02*
X164340723Y-157805523D01*
X164340723Y-157805523D02*
X164435961Y-157757904D01*
X164435961Y-157757904D02*
X164531200Y-157662666D01*
X164531200Y-157662666D02*
X164578819Y-157519809D01*
X164578819Y-157519809D02*
X164578819Y-157281714D01*
X163674057Y-158234095D02*
X163626438Y-158281714D01*
X163626438Y-158281714D02*
X163578819Y-158376952D01*
X163578819Y-158376952D02*
X163578819Y-158615047D01*
X163578819Y-158615047D02*
X163626438Y-158710285D01*
X163626438Y-158710285D02*
X163674057Y-158757904D01*
X163674057Y-158757904D02*
X163769295Y-158805523D01*
X163769295Y-158805523D02*
X163864533Y-158805523D01*
X163864533Y-158805523D02*
X164007390Y-158757904D01*
X164007390Y-158757904D02*
X164578819Y-158186476D01*
X164578819Y-158186476D02*
X164578819Y-158805523D01*
X163674057Y-159186476D02*
X163626438Y-159234095D01*
X163626438Y-159234095D02*
X163578819Y-159329333D01*
X163578819Y-159329333D02*
X163578819Y-159567428D01*
X163578819Y-159567428D02*
X163626438Y-159662666D01*
X163626438Y-159662666D02*
X163674057Y-159710285D01*
X163674057Y-159710285D02*
X163769295Y-159757904D01*
X163769295Y-159757904D02*
X163864533Y-159757904D01*
X163864533Y-159757904D02*
X164007390Y-159710285D01*
X164007390Y-159710285D02*
X164578819Y-159138857D01*
X164578819Y-159138857D02*
X164578819Y-159757904D01*
X302754819Y-116133714D02*
X301754819Y-116133714D01*
X301754819Y-116133714D02*
X301754819Y-116371809D01*
X301754819Y-116371809D02*
X301802438Y-116514666D01*
X301802438Y-116514666D02*
X301897676Y-116609904D01*
X301897676Y-116609904D02*
X301992914Y-116657523D01*
X301992914Y-116657523D02*
X302183390Y-116705142D01*
X302183390Y-116705142D02*
X302326247Y-116705142D01*
X302326247Y-116705142D02*
X302516723Y-116657523D01*
X302516723Y-116657523D02*
X302611961Y-116609904D01*
X302611961Y-116609904D02*
X302707200Y-116514666D01*
X302707200Y-116514666D02*
X302754819Y-116371809D01*
X302754819Y-116371809D02*
X302754819Y-116133714D01*
X301754819Y-117038476D02*
X301754819Y-117657523D01*
X301754819Y-117657523D02*
X302135771Y-117324190D01*
X302135771Y-117324190D02*
X302135771Y-117467047D01*
X302135771Y-117467047D02*
X302183390Y-117562285D01*
X302183390Y-117562285D02*
X302231009Y-117609904D01*
X302231009Y-117609904D02*
X302326247Y-117657523D01*
X302326247Y-117657523D02*
X302564342Y-117657523D01*
X302564342Y-117657523D02*
X302659580Y-117609904D01*
X302659580Y-117609904D02*
X302707200Y-117562285D01*
X302707200Y-117562285D02*
X302754819Y-117467047D01*
X302754819Y-117467047D02*
X302754819Y-117181333D01*
X302754819Y-117181333D02*
X302707200Y-117086095D01*
X302707200Y-117086095D02*
X302659580Y-117038476D01*
X301754819Y-118514666D02*
X301754819Y-118324190D01*
X301754819Y-118324190D02*
X301802438Y-118228952D01*
X301802438Y-118228952D02*
X301850057Y-118181333D01*
X301850057Y-118181333D02*
X301992914Y-118086095D01*
X301992914Y-118086095D02*
X302183390Y-118038476D01*
X302183390Y-118038476D02*
X302564342Y-118038476D01*
X302564342Y-118038476D02*
X302659580Y-118086095D01*
X302659580Y-118086095D02*
X302707200Y-118133714D01*
X302707200Y-118133714D02*
X302754819Y-118228952D01*
X302754819Y-118228952D02*
X302754819Y-118419428D01*
X302754819Y-118419428D02*
X302707200Y-118514666D01*
X302707200Y-118514666D02*
X302659580Y-118562285D01*
X302659580Y-118562285D02*
X302564342Y-118609904D01*
X302564342Y-118609904D02*
X302326247Y-118609904D01*
X302326247Y-118609904D02*
X302231009Y-118562285D01*
X302231009Y-118562285D02*
X302183390Y-118514666D01*
X302183390Y-118514666D02*
X302135771Y-118419428D01*
X302135771Y-118419428D02*
X302135771Y-118228952D01*
X302135771Y-118228952D02*
X302183390Y-118133714D01*
X302183390Y-118133714D02*
X302231009Y-118086095D01*
X302231009Y-118086095D02*
X302326247Y-118038476D01*
X176770819Y-177601714D02*
X175770819Y-177601714D01*
X175770819Y-177601714D02*
X175770819Y-177839809D01*
X175770819Y-177839809D02*
X175818438Y-177982666D01*
X175818438Y-177982666D02*
X175913676Y-178077904D01*
X175913676Y-178077904D02*
X176008914Y-178125523D01*
X176008914Y-178125523D02*
X176199390Y-178173142D01*
X176199390Y-178173142D02*
X176342247Y-178173142D01*
X176342247Y-178173142D02*
X176532723Y-178125523D01*
X176532723Y-178125523D02*
X176627961Y-178077904D01*
X176627961Y-178077904D02*
X176723200Y-177982666D01*
X176723200Y-177982666D02*
X176770819Y-177839809D01*
X176770819Y-177839809D02*
X176770819Y-177601714D01*
X176770819Y-179125523D02*
X176770819Y-178554095D01*
X176770819Y-178839809D02*
X175770819Y-178839809D01*
X175770819Y-178839809D02*
X175913676Y-178744571D01*
X175913676Y-178744571D02*
X176008914Y-178649333D01*
X176008914Y-178649333D02*
X176056533Y-178554095D01*
X175770819Y-179458857D02*
X175770819Y-180125523D01*
X175770819Y-180125523D02*
X176770819Y-179696952D01*
X255129819Y-174172714D02*
X254129819Y-174172714D01*
X254129819Y-174172714D02*
X254129819Y-174410809D01*
X254129819Y-174410809D02*
X254177438Y-174553666D01*
X254177438Y-174553666D02*
X254272676Y-174648904D01*
X254272676Y-174648904D02*
X254367914Y-174696523D01*
X254367914Y-174696523D02*
X254558390Y-174744142D01*
X254558390Y-174744142D02*
X254701247Y-174744142D01*
X254701247Y-174744142D02*
X254891723Y-174696523D01*
X254891723Y-174696523D02*
X254986961Y-174648904D01*
X254986961Y-174648904D02*
X255082200Y-174553666D01*
X255082200Y-174553666D02*
X255129819Y-174410809D01*
X255129819Y-174410809D02*
X255129819Y-174172714D01*
X254225057Y-175125095D02*
X254177438Y-175172714D01*
X254177438Y-175172714D02*
X254129819Y-175267952D01*
X254129819Y-175267952D02*
X254129819Y-175506047D01*
X254129819Y-175506047D02*
X254177438Y-175601285D01*
X254177438Y-175601285D02*
X254225057Y-175648904D01*
X254225057Y-175648904D02*
X254320295Y-175696523D01*
X254320295Y-175696523D02*
X254415533Y-175696523D01*
X254415533Y-175696523D02*
X254558390Y-175648904D01*
X254558390Y-175648904D02*
X255129819Y-175077476D01*
X255129819Y-175077476D02*
X255129819Y-175696523D01*
X254558390Y-176267952D02*
X254510771Y-176172714D01*
X254510771Y-176172714D02*
X254463152Y-176125095D01*
X254463152Y-176125095D02*
X254367914Y-176077476D01*
X254367914Y-176077476D02*
X254320295Y-176077476D01*
X254320295Y-176077476D02*
X254225057Y-176125095D01*
X254225057Y-176125095D02*
X254177438Y-176172714D01*
X254177438Y-176172714D02*
X254129819Y-176267952D01*
X254129819Y-176267952D02*
X254129819Y-176458428D01*
X254129819Y-176458428D02*
X254177438Y-176553666D01*
X254177438Y-176553666D02*
X254225057Y-176601285D01*
X254225057Y-176601285D02*
X254320295Y-176648904D01*
X254320295Y-176648904D02*
X254367914Y-176648904D01*
X254367914Y-176648904D02*
X254463152Y-176601285D01*
X254463152Y-176601285D02*
X254510771Y-176553666D01*
X254510771Y-176553666D02*
X254558390Y-176458428D01*
X254558390Y-176458428D02*
X254558390Y-176267952D01*
X254558390Y-176267952D02*
X254606009Y-176172714D01*
X254606009Y-176172714D02*
X254653628Y-176125095D01*
X254653628Y-176125095D02*
X254748866Y-176077476D01*
X254748866Y-176077476D02*
X254939342Y-176077476D01*
X254939342Y-176077476D02*
X255034580Y-176125095D01*
X255034580Y-176125095D02*
X255082200Y-176172714D01*
X255082200Y-176172714D02*
X255129819Y-176267952D01*
X255129819Y-176267952D02*
X255129819Y-176458428D01*
X255129819Y-176458428D02*
X255082200Y-176553666D01*
X255082200Y-176553666D02*
X255034580Y-176601285D01*
X255034580Y-176601285D02*
X254939342Y-176648904D01*
X254939342Y-176648904D02*
X254748866Y-176648904D01*
X254748866Y-176648904D02*
X254653628Y-176601285D01*
X254653628Y-176601285D02*
X254606009Y-176553666D01*
X254606009Y-176553666D02*
X254558390Y-176458428D01*
X312406819Y-98607714D02*
X311406819Y-98607714D01*
X311406819Y-98607714D02*
X311406819Y-98845809D01*
X311406819Y-98845809D02*
X311454438Y-98988666D01*
X311454438Y-98988666D02*
X311549676Y-99083904D01*
X311549676Y-99083904D02*
X311644914Y-99131523D01*
X311644914Y-99131523D02*
X311835390Y-99179142D01*
X311835390Y-99179142D02*
X311978247Y-99179142D01*
X311978247Y-99179142D02*
X312168723Y-99131523D01*
X312168723Y-99131523D02*
X312263961Y-99083904D01*
X312263961Y-99083904D02*
X312359200Y-98988666D01*
X312359200Y-98988666D02*
X312406819Y-98845809D01*
X312406819Y-98845809D02*
X312406819Y-98607714D01*
X311740152Y-100036285D02*
X312406819Y-100036285D01*
X311359200Y-99798190D02*
X312073485Y-99560095D01*
X312073485Y-99560095D02*
X312073485Y-100179142D01*
X311406819Y-100750571D02*
X311406819Y-100845809D01*
X311406819Y-100845809D02*
X311454438Y-100941047D01*
X311454438Y-100941047D02*
X311502057Y-100988666D01*
X311502057Y-100988666D02*
X311597295Y-101036285D01*
X311597295Y-101036285D02*
X311787771Y-101083904D01*
X311787771Y-101083904D02*
X312025866Y-101083904D01*
X312025866Y-101083904D02*
X312216342Y-101036285D01*
X312216342Y-101036285D02*
X312311580Y-100988666D01*
X312311580Y-100988666D02*
X312359200Y-100941047D01*
X312359200Y-100941047D02*
X312406819Y-100845809D01*
X312406819Y-100845809D02*
X312406819Y-100750571D01*
X312406819Y-100750571D02*
X312359200Y-100655333D01*
X312359200Y-100655333D02*
X312311580Y-100607714D01*
X312311580Y-100607714D02*
X312216342Y-100560095D01*
X312216342Y-100560095D02*
X312025866Y-100512476D01*
X312025866Y-100512476D02*
X311787771Y-100512476D01*
X311787771Y-100512476D02*
X311597295Y-100560095D01*
X311597295Y-100560095D02*
X311502057Y-100607714D01*
X311502057Y-100607714D02*
X311454438Y-100655333D01*
X311454438Y-100655333D02*
X311406819Y-100750571D01*
X444486819Y-136707714D02*
X443486819Y-136707714D01*
X443486819Y-136707714D02*
X443486819Y-136945809D01*
X443486819Y-136945809D02*
X443534438Y-137088666D01*
X443534438Y-137088666D02*
X443629676Y-137183904D01*
X443629676Y-137183904D02*
X443724914Y-137231523D01*
X443724914Y-137231523D02*
X443915390Y-137279142D01*
X443915390Y-137279142D02*
X444058247Y-137279142D01*
X444058247Y-137279142D02*
X444248723Y-137231523D01*
X444248723Y-137231523D02*
X444343961Y-137183904D01*
X444343961Y-137183904D02*
X444439200Y-137088666D01*
X444439200Y-137088666D02*
X444486819Y-136945809D01*
X444486819Y-136945809D02*
X444486819Y-136707714D01*
X443486819Y-138183904D02*
X443486819Y-137707714D01*
X443486819Y-137707714D02*
X443963009Y-137660095D01*
X443963009Y-137660095D02*
X443915390Y-137707714D01*
X443915390Y-137707714D02*
X443867771Y-137802952D01*
X443867771Y-137802952D02*
X443867771Y-138041047D01*
X443867771Y-138041047D02*
X443915390Y-138136285D01*
X443915390Y-138136285D02*
X443963009Y-138183904D01*
X443963009Y-138183904D02*
X444058247Y-138231523D01*
X444058247Y-138231523D02*
X444296342Y-138231523D01*
X444296342Y-138231523D02*
X444391580Y-138183904D01*
X444391580Y-138183904D02*
X444439200Y-138136285D01*
X444439200Y-138136285D02*
X444486819Y-138041047D01*
X444486819Y-138041047D02*
X444486819Y-137802952D01*
X444486819Y-137802952D02*
X444439200Y-137707714D01*
X444439200Y-137707714D02*
X444391580Y-137660095D01*
X443582057Y-138612476D02*
X443534438Y-138660095D01*
X443534438Y-138660095D02*
X443486819Y-138755333D01*
X443486819Y-138755333D02*
X443486819Y-138993428D01*
X443486819Y-138993428D02*
X443534438Y-139088666D01*
X443534438Y-139088666D02*
X443582057Y-139136285D01*
X443582057Y-139136285D02*
X443677295Y-139183904D01*
X443677295Y-139183904D02*
X443772533Y-139183904D01*
X443772533Y-139183904D02*
X443915390Y-139136285D01*
X443915390Y-139136285D02*
X444486819Y-138564857D01*
X444486819Y-138564857D02*
X444486819Y-139183904D01*
X155180819Y-136707714D02*
X154180819Y-136707714D01*
X154180819Y-136707714D02*
X154180819Y-136945809D01*
X154180819Y-136945809D02*
X154228438Y-137088666D01*
X154228438Y-137088666D02*
X154323676Y-137183904D01*
X154323676Y-137183904D02*
X154418914Y-137231523D01*
X154418914Y-137231523D02*
X154609390Y-137279142D01*
X154609390Y-137279142D02*
X154752247Y-137279142D01*
X154752247Y-137279142D02*
X154942723Y-137231523D01*
X154942723Y-137231523D02*
X155037961Y-137183904D01*
X155037961Y-137183904D02*
X155133200Y-137088666D01*
X155133200Y-137088666D02*
X155180819Y-136945809D01*
X155180819Y-136945809D02*
X155180819Y-136707714D01*
X155180819Y-138231523D02*
X155180819Y-137660095D01*
X155180819Y-137945809D02*
X154180819Y-137945809D01*
X154180819Y-137945809D02*
X154323676Y-137850571D01*
X154323676Y-137850571D02*
X154418914Y-137755333D01*
X154418914Y-137755333D02*
X154466533Y-137660095D01*
X154180819Y-139136285D02*
X154180819Y-138660095D01*
X154180819Y-138660095D02*
X154657009Y-138612476D01*
X154657009Y-138612476D02*
X154609390Y-138660095D01*
X154609390Y-138660095D02*
X154561771Y-138755333D01*
X154561771Y-138755333D02*
X154561771Y-138993428D01*
X154561771Y-138993428D02*
X154609390Y-139088666D01*
X154609390Y-139088666D02*
X154657009Y-139136285D01*
X154657009Y-139136285D02*
X154752247Y-139183904D01*
X154752247Y-139183904D02*
X154990342Y-139183904D01*
X154990342Y-139183904D02*
X155085580Y-139136285D01*
X155085580Y-139136285D02*
X155133200Y-139088666D01*
X155133200Y-139088666D02*
X155180819Y-138993428D01*
X155180819Y-138993428D02*
X155180819Y-138755333D01*
X155180819Y-138755333D02*
X155133200Y-138660095D01*
X155133200Y-138660095D02*
X155085580Y-138612476D01*
X74154819Y-137183905D02*
X73154819Y-137183905D01*
X73154819Y-137183905D02*
X73154819Y-137422000D01*
X73154819Y-137422000D02*
X73202438Y-137564857D01*
X73202438Y-137564857D02*
X73297676Y-137660095D01*
X73297676Y-137660095D02*
X73392914Y-137707714D01*
X73392914Y-137707714D02*
X73583390Y-137755333D01*
X73583390Y-137755333D02*
X73726247Y-137755333D01*
X73726247Y-137755333D02*
X73916723Y-137707714D01*
X73916723Y-137707714D02*
X74011961Y-137660095D01*
X74011961Y-137660095D02*
X74107200Y-137564857D01*
X74107200Y-137564857D02*
X74154819Y-137422000D01*
X74154819Y-137422000D02*
X74154819Y-137183905D01*
X73488152Y-138612476D02*
X74154819Y-138612476D01*
X73107200Y-138374381D02*
X73821485Y-138136286D01*
X73821485Y-138136286D02*
X73821485Y-138755333D01*
X425436819Y-116133714D02*
X424436819Y-116133714D01*
X424436819Y-116133714D02*
X424436819Y-116371809D01*
X424436819Y-116371809D02*
X424484438Y-116514666D01*
X424484438Y-116514666D02*
X424579676Y-116609904D01*
X424579676Y-116609904D02*
X424674914Y-116657523D01*
X424674914Y-116657523D02*
X424865390Y-116705142D01*
X424865390Y-116705142D02*
X425008247Y-116705142D01*
X425008247Y-116705142D02*
X425198723Y-116657523D01*
X425198723Y-116657523D02*
X425293961Y-116609904D01*
X425293961Y-116609904D02*
X425389200Y-116514666D01*
X425389200Y-116514666D02*
X425436819Y-116371809D01*
X425436819Y-116371809D02*
X425436819Y-116133714D01*
X424770152Y-117562285D02*
X425436819Y-117562285D01*
X424389200Y-117324190D02*
X425103485Y-117086095D01*
X425103485Y-117086095D02*
X425103485Y-117705142D01*
X424436819Y-118562285D02*
X424436819Y-118086095D01*
X424436819Y-118086095D02*
X424913009Y-118038476D01*
X424913009Y-118038476D02*
X424865390Y-118086095D01*
X424865390Y-118086095D02*
X424817771Y-118181333D01*
X424817771Y-118181333D02*
X424817771Y-118419428D01*
X424817771Y-118419428D02*
X424865390Y-118514666D01*
X424865390Y-118514666D02*
X424913009Y-118562285D01*
X424913009Y-118562285D02*
X425008247Y-118609904D01*
X425008247Y-118609904D02*
X425246342Y-118609904D01*
X425246342Y-118609904D02*
X425341580Y-118562285D01*
X425341580Y-118562285D02*
X425389200Y-118514666D01*
X425389200Y-118514666D02*
X425436819Y-118419428D01*
X425436819Y-118419428D02*
X425436819Y-118181333D01*
X425436819Y-118181333D02*
X425389200Y-118086095D01*
X425389200Y-118086095D02*
X425341580Y-118038476D01*
X335774819Y-54411714D02*
X334774819Y-54411714D01*
X334774819Y-54411714D02*
X334774819Y-54649809D01*
X334774819Y-54649809D02*
X334822438Y-54792666D01*
X334822438Y-54792666D02*
X334917676Y-54887904D01*
X334917676Y-54887904D02*
X335012914Y-54935523D01*
X335012914Y-54935523D02*
X335203390Y-54983142D01*
X335203390Y-54983142D02*
X335346247Y-54983142D01*
X335346247Y-54983142D02*
X335536723Y-54935523D01*
X335536723Y-54935523D02*
X335631961Y-54887904D01*
X335631961Y-54887904D02*
X335727200Y-54792666D01*
X335727200Y-54792666D02*
X335774819Y-54649809D01*
X335774819Y-54649809D02*
X335774819Y-54411714D01*
X334774819Y-55316476D02*
X334774819Y-55935523D01*
X334774819Y-55935523D02*
X335155771Y-55602190D01*
X335155771Y-55602190D02*
X335155771Y-55745047D01*
X335155771Y-55745047D02*
X335203390Y-55840285D01*
X335203390Y-55840285D02*
X335251009Y-55887904D01*
X335251009Y-55887904D02*
X335346247Y-55935523D01*
X335346247Y-55935523D02*
X335584342Y-55935523D01*
X335584342Y-55935523D02*
X335679580Y-55887904D01*
X335679580Y-55887904D02*
X335727200Y-55840285D01*
X335727200Y-55840285D02*
X335774819Y-55745047D01*
X335774819Y-55745047D02*
X335774819Y-55459333D01*
X335774819Y-55459333D02*
X335727200Y-55364095D01*
X335727200Y-55364095D02*
X335679580Y-55316476D01*
X335108152Y-56792666D02*
X335774819Y-56792666D01*
X334727200Y-56554571D02*
X335441485Y-56316476D01*
X335441485Y-56316476D02*
X335441485Y-56935523D01*
X336282819Y-135183714D02*
X335282819Y-135183714D01*
X335282819Y-135183714D02*
X335282819Y-135421809D01*
X335282819Y-135421809D02*
X335330438Y-135564666D01*
X335330438Y-135564666D02*
X335425676Y-135659904D01*
X335425676Y-135659904D02*
X335520914Y-135707523D01*
X335520914Y-135707523D02*
X335711390Y-135755142D01*
X335711390Y-135755142D02*
X335854247Y-135755142D01*
X335854247Y-135755142D02*
X336044723Y-135707523D01*
X336044723Y-135707523D02*
X336139961Y-135659904D01*
X336139961Y-135659904D02*
X336235200Y-135564666D01*
X336235200Y-135564666D02*
X336282819Y-135421809D01*
X336282819Y-135421809D02*
X336282819Y-135183714D01*
X335616152Y-136612285D02*
X336282819Y-136612285D01*
X335235200Y-136374190D02*
X335949485Y-136136095D01*
X335949485Y-136136095D02*
X335949485Y-136755142D01*
X335378057Y-137088476D02*
X335330438Y-137136095D01*
X335330438Y-137136095D02*
X335282819Y-137231333D01*
X335282819Y-137231333D02*
X335282819Y-137469428D01*
X335282819Y-137469428D02*
X335330438Y-137564666D01*
X335330438Y-137564666D02*
X335378057Y-137612285D01*
X335378057Y-137612285D02*
X335473295Y-137659904D01*
X335473295Y-137659904D02*
X335568533Y-137659904D01*
X335568533Y-137659904D02*
X335711390Y-137612285D01*
X335711390Y-137612285D02*
X336282819Y-137040857D01*
X336282819Y-137040857D02*
X336282819Y-137659904D01*
X240778819Y-157281714D02*
X239778819Y-157281714D01*
X239778819Y-157281714D02*
X239778819Y-157519809D01*
X239778819Y-157519809D02*
X239826438Y-157662666D01*
X239826438Y-157662666D02*
X239921676Y-157757904D01*
X239921676Y-157757904D02*
X240016914Y-157805523D01*
X240016914Y-157805523D02*
X240207390Y-157853142D01*
X240207390Y-157853142D02*
X240350247Y-157853142D01*
X240350247Y-157853142D02*
X240540723Y-157805523D01*
X240540723Y-157805523D02*
X240635961Y-157757904D01*
X240635961Y-157757904D02*
X240731200Y-157662666D01*
X240731200Y-157662666D02*
X240778819Y-157519809D01*
X240778819Y-157519809D02*
X240778819Y-157281714D01*
X239778819Y-158186476D02*
X239778819Y-158805523D01*
X239778819Y-158805523D02*
X240159771Y-158472190D01*
X240159771Y-158472190D02*
X240159771Y-158615047D01*
X240159771Y-158615047D02*
X240207390Y-158710285D01*
X240207390Y-158710285D02*
X240255009Y-158757904D01*
X240255009Y-158757904D02*
X240350247Y-158805523D01*
X240350247Y-158805523D02*
X240588342Y-158805523D01*
X240588342Y-158805523D02*
X240683580Y-158757904D01*
X240683580Y-158757904D02*
X240731200Y-158710285D01*
X240731200Y-158710285D02*
X240778819Y-158615047D01*
X240778819Y-158615047D02*
X240778819Y-158329333D01*
X240778819Y-158329333D02*
X240731200Y-158234095D01*
X240731200Y-158234095D02*
X240683580Y-158186476D01*
X239778819Y-159138857D02*
X239778819Y-159757904D01*
X239778819Y-159757904D02*
X240159771Y-159424571D01*
X240159771Y-159424571D02*
X240159771Y-159567428D01*
X240159771Y-159567428D02*
X240207390Y-159662666D01*
X240207390Y-159662666D02*
X240255009Y-159710285D01*
X240255009Y-159710285D02*
X240350247Y-159757904D01*
X240350247Y-159757904D02*
X240588342Y-159757904D01*
X240588342Y-159757904D02*
X240683580Y-159710285D01*
X240683580Y-159710285D02*
X240731200Y-159662666D01*
X240731200Y-159662666D02*
X240778819Y-159567428D01*
X240778819Y-159567428D02*
X240778819Y-159281714D01*
X240778819Y-159281714D02*
X240731200Y-159186476D01*
X240731200Y-159186476D02*
X240683580Y-159138857D01*
X226554819Y-116133714D02*
X225554819Y-116133714D01*
X225554819Y-116133714D02*
X225554819Y-116371809D01*
X225554819Y-116371809D02*
X225602438Y-116514666D01*
X225602438Y-116514666D02*
X225697676Y-116609904D01*
X225697676Y-116609904D02*
X225792914Y-116657523D01*
X225792914Y-116657523D02*
X225983390Y-116705142D01*
X225983390Y-116705142D02*
X226126247Y-116705142D01*
X226126247Y-116705142D02*
X226316723Y-116657523D01*
X226316723Y-116657523D02*
X226411961Y-116609904D01*
X226411961Y-116609904D02*
X226507200Y-116514666D01*
X226507200Y-116514666D02*
X226554819Y-116371809D01*
X226554819Y-116371809D02*
X226554819Y-116133714D01*
X225650057Y-117086095D02*
X225602438Y-117133714D01*
X225602438Y-117133714D02*
X225554819Y-117228952D01*
X225554819Y-117228952D02*
X225554819Y-117467047D01*
X225554819Y-117467047D02*
X225602438Y-117562285D01*
X225602438Y-117562285D02*
X225650057Y-117609904D01*
X225650057Y-117609904D02*
X225745295Y-117657523D01*
X225745295Y-117657523D02*
X225840533Y-117657523D01*
X225840533Y-117657523D02*
X225983390Y-117609904D01*
X225983390Y-117609904D02*
X226554819Y-117038476D01*
X226554819Y-117038476D02*
X226554819Y-117657523D01*
X225554819Y-118562285D02*
X225554819Y-118086095D01*
X225554819Y-118086095D02*
X226031009Y-118038476D01*
X226031009Y-118038476D02*
X225983390Y-118086095D01*
X225983390Y-118086095D02*
X225935771Y-118181333D01*
X225935771Y-118181333D02*
X225935771Y-118419428D01*
X225935771Y-118419428D02*
X225983390Y-118514666D01*
X225983390Y-118514666D02*
X226031009Y-118562285D01*
X226031009Y-118562285D02*
X226126247Y-118609904D01*
X226126247Y-118609904D02*
X226364342Y-118609904D01*
X226364342Y-118609904D02*
X226459580Y-118562285D01*
X226459580Y-118562285D02*
X226507200Y-118514666D01*
X226507200Y-118514666D02*
X226554819Y-118419428D01*
X226554819Y-118419428D02*
X226554819Y-118181333D01*
X226554819Y-118181333D02*
X226507200Y-118086095D01*
X226507200Y-118086095D02*
X226459580Y-118038476D01*
X336282819Y-116133714D02*
X335282819Y-116133714D01*
X335282819Y-116133714D02*
X335282819Y-116371809D01*
X335282819Y-116371809D02*
X335330438Y-116514666D01*
X335330438Y-116514666D02*
X335425676Y-116609904D01*
X335425676Y-116609904D02*
X335520914Y-116657523D01*
X335520914Y-116657523D02*
X335711390Y-116705142D01*
X335711390Y-116705142D02*
X335854247Y-116705142D01*
X335854247Y-116705142D02*
X336044723Y-116657523D01*
X336044723Y-116657523D02*
X336139961Y-116609904D01*
X336139961Y-116609904D02*
X336235200Y-116514666D01*
X336235200Y-116514666D02*
X336282819Y-116371809D01*
X336282819Y-116371809D02*
X336282819Y-116133714D01*
X335616152Y-117562285D02*
X336282819Y-117562285D01*
X335235200Y-117324190D02*
X335949485Y-117086095D01*
X335949485Y-117086095D02*
X335949485Y-117705142D01*
X336282819Y-118609904D02*
X336282819Y-118038476D01*
X336282819Y-118324190D02*
X335282819Y-118324190D01*
X335282819Y-118324190D02*
X335425676Y-118228952D01*
X335425676Y-118228952D02*
X335520914Y-118133714D01*
X335520914Y-118133714D02*
X335568533Y-118038476D01*
X444486819Y-95559714D02*
X443486819Y-95559714D01*
X443486819Y-95559714D02*
X443486819Y-95797809D01*
X443486819Y-95797809D02*
X443534438Y-95940666D01*
X443534438Y-95940666D02*
X443629676Y-96035904D01*
X443629676Y-96035904D02*
X443724914Y-96083523D01*
X443724914Y-96083523D02*
X443915390Y-96131142D01*
X443915390Y-96131142D02*
X444058247Y-96131142D01*
X444058247Y-96131142D02*
X444248723Y-96083523D01*
X444248723Y-96083523D02*
X444343961Y-96035904D01*
X444343961Y-96035904D02*
X444439200Y-95940666D01*
X444439200Y-95940666D02*
X444486819Y-95797809D01*
X444486819Y-95797809D02*
X444486819Y-95559714D01*
X443486819Y-97035904D02*
X443486819Y-96559714D01*
X443486819Y-96559714D02*
X443963009Y-96512095D01*
X443963009Y-96512095D02*
X443915390Y-96559714D01*
X443915390Y-96559714D02*
X443867771Y-96654952D01*
X443867771Y-96654952D02*
X443867771Y-96893047D01*
X443867771Y-96893047D02*
X443915390Y-96988285D01*
X443915390Y-96988285D02*
X443963009Y-97035904D01*
X443963009Y-97035904D02*
X444058247Y-97083523D01*
X444058247Y-97083523D02*
X444296342Y-97083523D01*
X444296342Y-97083523D02*
X444391580Y-97035904D01*
X444391580Y-97035904D02*
X444439200Y-96988285D01*
X444439200Y-96988285D02*
X444486819Y-96893047D01*
X444486819Y-96893047D02*
X444486819Y-96654952D01*
X444486819Y-96654952D02*
X444439200Y-96559714D01*
X444439200Y-96559714D02*
X444391580Y-96512095D01*
X443486819Y-97702571D02*
X443486819Y-97797809D01*
X443486819Y-97797809D02*
X443534438Y-97893047D01*
X443534438Y-97893047D02*
X443582057Y-97940666D01*
X443582057Y-97940666D02*
X443677295Y-97988285D01*
X443677295Y-97988285D02*
X443867771Y-98035904D01*
X443867771Y-98035904D02*
X444105866Y-98035904D01*
X444105866Y-98035904D02*
X444296342Y-97988285D01*
X444296342Y-97988285D02*
X444391580Y-97940666D01*
X444391580Y-97940666D02*
X444439200Y-97893047D01*
X444439200Y-97893047D02*
X444486819Y-97797809D01*
X444486819Y-97797809D02*
X444486819Y-97702571D01*
X444486819Y-97702571D02*
X444439200Y-97607333D01*
X444439200Y-97607333D02*
X444391580Y-97559714D01*
X444391580Y-97559714D02*
X444296342Y-97512095D01*
X444296342Y-97512095D02*
X444105866Y-97464476D01*
X444105866Y-97464476D02*
X443867771Y-97464476D01*
X443867771Y-97464476D02*
X443677295Y-97512095D01*
X443677295Y-97512095D02*
X443582057Y-97559714D01*
X443582057Y-97559714D02*
X443534438Y-97607333D01*
X443534438Y-97607333D02*
X443486819Y-97702571D01*
X359396819Y-177855714D02*
X358396819Y-177855714D01*
X358396819Y-177855714D02*
X358396819Y-178093809D01*
X358396819Y-178093809D02*
X358444438Y-178236666D01*
X358444438Y-178236666D02*
X358539676Y-178331904D01*
X358539676Y-178331904D02*
X358634914Y-178379523D01*
X358634914Y-178379523D02*
X358825390Y-178427142D01*
X358825390Y-178427142D02*
X358968247Y-178427142D01*
X358968247Y-178427142D02*
X359158723Y-178379523D01*
X359158723Y-178379523D02*
X359253961Y-178331904D01*
X359253961Y-178331904D02*
X359349200Y-178236666D01*
X359349200Y-178236666D02*
X359396819Y-178093809D01*
X359396819Y-178093809D02*
X359396819Y-177855714D01*
X358730152Y-179284285D02*
X359396819Y-179284285D01*
X358349200Y-179046190D02*
X359063485Y-178808095D01*
X359063485Y-178808095D02*
X359063485Y-179427142D01*
X359396819Y-179855714D02*
X359396819Y-180046190D01*
X359396819Y-180046190D02*
X359349200Y-180141428D01*
X359349200Y-180141428D02*
X359301580Y-180189047D01*
X359301580Y-180189047D02*
X359158723Y-180284285D01*
X359158723Y-180284285D02*
X358968247Y-180331904D01*
X358968247Y-180331904D02*
X358587295Y-180331904D01*
X358587295Y-180331904D02*
X358492057Y-180284285D01*
X358492057Y-180284285D02*
X358444438Y-180236666D01*
X358444438Y-180236666D02*
X358396819Y-180141428D01*
X358396819Y-180141428D02*
X358396819Y-179950952D01*
X358396819Y-179950952D02*
X358444438Y-179855714D01*
X358444438Y-179855714D02*
X358492057Y-179808095D01*
X358492057Y-179808095D02*
X358587295Y-179760476D01*
X358587295Y-179760476D02*
X358825390Y-179760476D01*
X358825390Y-179760476D02*
X358920628Y-179808095D01*
X358920628Y-179808095D02*
X358968247Y-179855714D01*
X358968247Y-179855714D02*
X359015866Y-179950952D01*
X359015866Y-179950952D02*
X359015866Y-180141428D01*
X359015866Y-180141428D02*
X358968247Y-180236666D01*
X358968247Y-180236666D02*
X358920628Y-180284285D01*
X358920628Y-180284285D02*
X358825390Y-180331904D01*
X425436819Y-157281714D02*
X424436819Y-157281714D01*
X424436819Y-157281714D02*
X424436819Y-157519809D01*
X424436819Y-157519809D02*
X424484438Y-157662666D01*
X424484438Y-157662666D02*
X424579676Y-157757904D01*
X424579676Y-157757904D02*
X424674914Y-157805523D01*
X424674914Y-157805523D02*
X424865390Y-157853142D01*
X424865390Y-157853142D02*
X425008247Y-157853142D01*
X425008247Y-157853142D02*
X425198723Y-157805523D01*
X425198723Y-157805523D02*
X425293961Y-157757904D01*
X425293961Y-157757904D02*
X425389200Y-157662666D01*
X425389200Y-157662666D02*
X425436819Y-157519809D01*
X425436819Y-157519809D02*
X425436819Y-157281714D01*
X424770152Y-158710285D02*
X425436819Y-158710285D01*
X424389200Y-158472190D02*
X425103485Y-158234095D01*
X425103485Y-158234095D02*
X425103485Y-158853142D01*
X424436819Y-159138857D02*
X424436819Y-159805523D01*
X424436819Y-159805523D02*
X425436819Y-159376952D01*
X98030819Y-136707714D02*
X97030819Y-136707714D01*
X97030819Y-136707714D02*
X97030819Y-136945809D01*
X97030819Y-136945809D02*
X97078438Y-137088666D01*
X97078438Y-137088666D02*
X97173676Y-137183904D01*
X97173676Y-137183904D02*
X97268914Y-137231523D01*
X97268914Y-137231523D02*
X97459390Y-137279142D01*
X97459390Y-137279142D02*
X97602247Y-137279142D01*
X97602247Y-137279142D02*
X97792723Y-137231523D01*
X97792723Y-137231523D02*
X97887961Y-137183904D01*
X97887961Y-137183904D02*
X97983200Y-137088666D01*
X97983200Y-137088666D02*
X98030819Y-136945809D01*
X98030819Y-136945809D02*
X98030819Y-136707714D01*
X98030819Y-138231523D02*
X98030819Y-137660095D01*
X98030819Y-137945809D02*
X97030819Y-137945809D01*
X97030819Y-137945809D02*
X97173676Y-137850571D01*
X97173676Y-137850571D02*
X97268914Y-137755333D01*
X97268914Y-137755333D02*
X97316533Y-137660095D01*
X97030819Y-138850571D02*
X97030819Y-138945809D01*
X97030819Y-138945809D02*
X97078438Y-139041047D01*
X97078438Y-139041047D02*
X97126057Y-139088666D01*
X97126057Y-139088666D02*
X97221295Y-139136285D01*
X97221295Y-139136285D02*
X97411771Y-139183904D01*
X97411771Y-139183904D02*
X97649866Y-139183904D01*
X97649866Y-139183904D02*
X97840342Y-139136285D01*
X97840342Y-139136285D02*
X97935580Y-139088666D01*
X97935580Y-139088666D02*
X97983200Y-139041047D01*
X97983200Y-139041047D02*
X98030819Y-138945809D01*
X98030819Y-138945809D02*
X98030819Y-138850571D01*
X98030819Y-138850571D02*
X97983200Y-138755333D01*
X97983200Y-138755333D02*
X97935580Y-138707714D01*
X97935580Y-138707714D02*
X97840342Y-138660095D01*
X97840342Y-138660095D02*
X97649866Y-138612476D01*
X97649866Y-138612476D02*
X97411771Y-138612476D01*
X97411771Y-138612476D02*
X97221295Y-138660095D01*
X97221295Y-138660095D02*
X97126057Y-138707714D01*
X97126057Y-138707714D02*
X97078438Y-138755333D01*
X97078438Y-138755333D02*
X97030819Y-138850571D01*
X309104819Y-138739714D02*
X308104819Y-138739714D01*
X308104819Y-138739714D02*
X308104819Y-138977809D01*
X308104819Y-138977809D02*
X308152438Y-139120666D01*
X308152438Y-139120666D02*
X308247676Y-139215904D01*
X308247676Y-139215904D02*
X308342914Y-139263523D01*
X308342914Y-139263523D02*
X308533390Y-139311142D01*
X308533390Y-139311142D02*
X308676247Y-139311142D01*
X308676247Y-139311142D02*
X308866723Y-139263523D01*
X308866723Y-139263523D02*
X308961961Y-139215904D01*
X308961961Y-139215904D02*
X309057200Y-139120666D01*
X309057200Y-139120666D02*
X309104819Y-138977809D01*
X309104819Y-138977809D02*
X309104819Y-138739714D01*
X308104819Y-139644476D02*
X308104819Y-140263523D01*
X308104819Y-140263523D02*
X308485771Y-139930190D01*
X308485771Y-139930190D02*
X308485771Y-140073047D01*
X308485771Y-140073047D02*
X308533390Y-140168285D01*
X308533390Y-140168285D02*
X308581009Y-140215904D01*
X308581009Y-140215904D02*
X308676247Y-140263523D01*
X308676247Y-140263523D02*
X308914342Y-140263523D01*
X308914342Y-140263523D02*
X309009580Y-140215904D01*
X309009580Y-140215904D02*
X309057200Y-140168285D01*
X309057200Y-140168285D02*
X309104819Y-140073047D01*
X309104819Y-140073047D02*
X309104819Y-139787333D01*
X309104819Y-139787333D02*
X309057200Y-139692095D01*
X309057200Y-139692095D02*
X309009580Y-139644476D01*
X308104819Y-140596857D02*
X308104819Y-141263523D01*
X308104819Y-141263523D02*
X309104819Y-140834952D01*
X336282819Y-156519714D02*
X335282819Y-156519714D01*
X335282819Y-156519714D02*
X335282819Y-156757809D01*
X335282819Y-156757809D02*
X335330438Y-156900666D01*
X335330438Y-156900666D02*
X335425676Y-156995904D01*
X335425676Y-156995904D02*
X335520914Y-157043523D01*
X335520914Y-157043523D02*
X335711390Y-157091142D01*
X335711390Y-157091142D02*
X335854247Y-157091142D01*
X335854247Y-157091142D02*
X336044723Y-157043523D01*
X336044723Y-157043523D02*
X336139961Y-156995904D01*
X336139961Y-156995904D02*
X336235200Y-156900666D01*
X336235200Y-156900666D02*
X336282819Y-156757809D01*
X336282819Y-156757809D02*
X336282819Y-156519714D01*
X335616152Y-157948285D02*
X336282819Y-157948285D01*
X335235200Y-157710190D02*
X335949485Y-157472095D01*
X335949485Y-157472095D02*
X335949485Y-158091142D01*
X335282819Y-158376857D02*
X335282819Y-158995904D01*
X335282819Y-158995904D02*
X335663771Y-158662571D01*
X335663771Y-158662571D02*
X335663771Y-158805428D01*
X335663771Y-158805428D02*
X335711390Y-158900666D01*
X335711390Y-158900666D02*
X335759009Y-158948285D01*
X335759009Y-158948285D02*
X335854247Y-158995904D01*
X335854247Y-158995904D02*
X336092342Y-158995904D01*
X336092342Y-158995904D02*
X336187580Y-158948285D01*
X336187580Y-158948285D02*
X336235200Y-158900666D01*
X336235200Y-158900666D02*
X336282819Y-158805428D01*
X336282819Y-158805428D02*
X336282819Y-158519714D01*
X336282819Y-158519714D02*
X336235200Y-158424476D01*
X336235200Y-158424476D02*
X336187580Y-158376857D01*
X236206819Y-95559714D02*
X235206819Y-95559714D01*
X235206819Y-95559714D02*
X235206819Y-95797809D01*
X235206819Y-95797809D02*
X235254438Y-95940666D01*
X235254438Y-95940666D02*
X235349676Y-96035904D01*
X235349676Y-96035904D02*
X235444914Y-96083523D01*
X235444914Y-96083523D02*
X235635390Y-96131142D01*
X235635390Y-96131142D02*
X235778247Y-96131142D01*
X235778247Y-96131142D02*
X235968723Y-96083523D01*
X235968723Y-96083523D02*
X236063961Y-96035904D01*
X236063961Y-96035904D02*
X236159200Y-95940666D01*
X236159200Y-95940666D02*
X236206819Y-95797809D01*
X236206819Y-95797809D02*
X236206819Y-95559714D01*
X235206819Y-96464476D02*
X235206819Y-97083523D01*
X235206819Y-97083523D02*
X235587771Y-96750190D01*
X235587771Y-96750190D02*
X235587771Y-96893047D01*
X235587771Y-96893047D02*
X235635390Y-96988285D01*
X235635390Y-96988285D02*
X235683009Y-97035904D01*
X235683009Y-97035904D02*
X235778247Y-97083523D01*
X235778247Y-97083523D02*
X236016342Y-97083523D01*
X236016342Y-97083523D02*
X236111580Y-97035904D01*
X236111580Y-97035904D02*
X236159200Y-96988285D01*
X236159200Y-96988285D02*
X236206819Y-96893047D01*
X236206819Y-96893047D02*
X236206819Y-96607333D01*
X236206819Y-96607333D02*
X236159200Y-96512095D01*
X236159200Y-96512095D02*
X236111580Y-96464476D01*
X235206819Y-97702571D02*
X235206819Y-97797809D01*
X235206819Y-97797809D02*
X235254438Y-97893047D01*
X235254438Y-97893047D02*
X235302057Y-97940666D01*
X235302057Y-97940666D02*
X235397295Y-97988285D01*
X235397295Y-97988285D02*
X235587771Y-98035904D01*
X235587771Y-98035904D02*
X235825866Y-98035904D01*
X235825866Y-98035904D02*
X236016342Y-97988285D01*
X236016342Y-97988285D02*
X236111580Y-97940666D01*
X236111580Y-97940666D02*
X236159200Y-97893047D01*
X236159200Y-97893047D02*
X236206819Y-97797809D01*
X236206819Y-97797809D02*
X236206819Y-97702571D01*
X236206819Y-97702571D02*
X236159200Y-97607333D01*
X236159200Y-97607333D02*
X236111580Y-97559714D01*
X236111580Y-97559714D02*
X236016342Y-97512095D01*
X236016342Y-97512095D02*
X235825866Y-97464476D01*
X235825866Y-97464476D02*
X235587771Y-97464476D01*
X235587771Y-97464476D02*
X235397295Y-97512095D01*
X235397295Y-97512095D02*
X235302057Y-97559714D01*
X235302057Y-97559714D02*
X235254438Y-97607333D01*
X235254438Y-97607333D02*
X235206819Y-97702571D01*
X425436819Y-95559714D02*
X424436819Y-95559714D01*
X424436819Y-95559714D02*
X424436819Y-95797809D01*
X424436819Y-95797809D02*
X424484438Y-95940666D01*
X424484438Y-95940666D02*
X424579676Y-96035904D01*
X424579676Y-96035904D02*
X424674914Y-96083523D01*
X424674914Y-96083523D02*
X424865390Y-96131142D01*
X424865390Y-96131142D02*
X425008247Y-96131142D01*
X425008247Y-96131142D02*
X425198723Y-96083523D01*
X425198723Y-96083523D02*
X425293961Y-96035904D01*
X425293961Y-96035904D02*
X425389200Y-95940666D01*
X425389200Y-95940666D02*
X425436819Y-95797809D01*
X425436819Y-95797809D02*
X425436819Y-95559714D01*
X424770152Y-96988285D02*
X425436819Y-96988285D01*
X424389200Y-96750190D02*
X425103485Y-96512095D01*
X425103485Y-96512095D02*
X425103485Y-97131142D01*
X424770152Y-97940666D02*
X425436819Y-97940666D01*
X424389200Y-97702571D02*
X425103485Y-97464476D01*
X425103485Y-97464476D02*
X425103485Y-98083523D01*
X425436819Y-136707714D02*
X424436819Y-136707714D01*
X424436819Y-136707714D02*
X424436819Y-136945809D01*
X424436819Y-136945809D02*
X424484438Y-137088666D01*
X424484438Y-137088666D02*
X424579676Y-137183904D01*
X424579676Y-137183904D02*
X424674914Y-137231523D01*
X424674914Y-137231523D02*
X424865390Y-137279142D01*
X424865390Y-137279142D02*
X425008247Y-137279142D01*
X425008247Y-137279142D02*
X425198723Y-137231523D01*
X425198723Y-137231523D02*
X425293961Y-137183904D01*
X425293961Y-137183904D02*
X425389200Y-137088666D01*
X425389200Y-137088666D02*
X425436819Y-136945809D01*
X425436819Y-136945809D02*
X425436819Y-136707714D01*
X424770152Y-138136285D02*
X425436819Y-138136285D01*
X424389200Y-137898190D02*
X425103485Y-137660095D01*
X425103485Y-137660095D02*
X425103485Y-138279142D01*
X424436819Y-139088666D02*
X424436819Y-138898190D01*
X424436819Y-138898190D02*
X424484438Y-138802952D01*
X424484438Y-138802952D02*
X424532057Y-138755333D01*
X424532057Y-138755333D02*
X424674914Y-138660095D01*
X424674914Y-138660095D02*
X424865390Y-138612476D01*
X424865390Y-138612476D02*
X425246342Y-138612476D01*
X425246342Y-138612476D02*
X425341580Y-138660095D01*
X425341580Y-138660095D02*
X425389200Y-138707714D01*
X425389200Y-138707714D02*
X425436819Y-138802952D01*
X425436819Y-138802952D02*
X425436819Y-138993428D01*
X425436819Y-138993428D02*
X425389200Y-139088666D01*
X425389200Y-139088666D02*
X425341580Y-139136285D01*
X425341580Y-139136285D02*
X425246342Y-139183904D01*
X425246342Y-139183904D02*
X425008247Y-139183904D01*
X425008247Y-139183904D02*
X424913009Y-139136285D01*
X424913009Y-139136285D02*
X424865390Y-139088666D01*
X424865390Y-139088666D02*
X424817771Y-138993428D01*
X424817771Y-138993428D02*
X424817771Y-138802952D01*
X424817771Y-138802952D02*
X424865390Y-138707714D01*
X424865390Y-138707714D02*
X424913009Y-138660095D01*
X424913009Y-138660095D02*
X425008247Y-138612476D01*
X68312819Y-161313905D02*
X67312819Y-161313905D01*
X67312819Y-161313905D02*
X67312819Y-161552000D01*
X67312819Y-161552000D02*
X67360438Y-161694857D01*
X67360438Y-161694857D02*
X67455676Y-161790095D01*
X67455676Y-161790095D02*
X67550914Y-161837714D01*
X67550914Y-161837714D02*
X67741390Y-161885333D01*
X67741390Y-161885333D02*
X67884247Y-161885333D01*
X67884247Y-161885333D02*
X68074723Y-161837714D01*
X68074723Y-161837714D02*
X68169961Y-161790095D01*
X68169961Y-161790095D02*
X68265200Y-161694857D01*
X68265200Y-161694857D02*
X68312819Y-161552000D01*
X68312819Y-161552000D02*
X68312819Y-161313905D01*
X67312819Y-162790095D02*
X67312819Y-162313905D01*
X67312819Y-162313905D02*
X67789009Y-162266286D01*
X67789009Y-162266286D02*
X67741390Y-162313905D01*
X67741390Y-162313905D02*
X67693771Y-162409143D01*
X67693771Y-162409143D02*
X67693771Y-162647238D01*
X67693771Y-162647238D02*
X67741390Y-162742476D01*
X67741390Y-162742476D02*
X67789009Y-162790095D01*
X67789009Y-162790095D02*
X67884247Y-162837714D01*
X67884247Y-162837714D02*
X68122342Y-162837714D01*
X68122342Y-162837714D02*
X68217580Y-162790095D01*
X68217580Y-162790095D02*
X68265200Y-162742476D01*
X68265200Y-162742476D02*
X68312819Y-162647238D01*
X68312819Y-162647238D02*
X68312819Y-162409143D01*
X68312819Y-162409143D02*
X68265200Y-162313905D01*
X68265200Y-162313905D02*
X68217580Y-162266286D01*
X174230819Y-136707714D02*
X173230819Y-136707714D01*
X173230819Y-136707714D02*
X173230819Y-136945809D01*
X173230819Y-136945809D02*
X173278438Y-137088666D01*
X173278438Y-137088666D02*
X173373676Y-137183904D01*
X173373676Y-137183904D02*
X173468914Y-137231523D01*
X173468914Y-137231523D02*
X173659390Y-137279142D01*
X173659390Y-137279142D02*
X173802247Y-137279142D01*
X173802247Y-137279142D02*
X173992723Y-137231523D01*
X173992723Y-137231523D02*
X174087961Y-137183904D01*
X174087961Y-137183904D02*
X174183200Y-137088666D01*
X174183200Y-137088666D02*
X174230819Y-136945809D01*
X174230819Y-136945809D02*
X174230819Y-136707714D01*
X173326057Y-137660095D02*
X173278438Y-137707714D01*
X173278438Y-137707714D02*
X173230819Y-137802952D01*
X173230819Y-137802952D02*
X173230819Y-138041047D01*
X173230819Y-138041047D02*
X173278438Y-138136285D01*
X173278438Y-138136285D02*
X173326057Y-138183904D01*
X173326057Y-138183904D02*
X173421295Y-138231523D01*
X173421295Y-138231523D02*
X173516533Y-138231523D01*
X173516533Y-138231523D02*
X173659390Y-138183904D01*
X173659390Y-138183904D02*
X174230819Y-137612476D01*
X174230819Y-137612476D02*
X174230819Y-138231523D01*
X174230819Y-139183904D02*
X174230819Y-138612476D01*
X174230819Y-138898190D02*
X173230819Y-138898190D01*
X173230819Y-138898190D02*
X173373676Y-138802952D01*
X173373676Y-138802952D02*
X173468914Y-138707714D01*
X173468914Y-138707714D02*
X173516533Y-138612476D01*
X74154819Y-54887905D02*
X73154819Y-54887905D01*
X73154819Y-54887905D02*
X73154819Y-55126000D01*
X73154819Y-55126000D02*
X73202438Y-55268857D01*
X73202438Y-55268857D02*
X73297676Y-55364095D01*
X73297676Y-55364095D02*
X73392914Y-55411714D01*
X73392914Y-55411714D02*
X73583390Y-55459333D01*
X73583390Y-55459333D02*
X73726247Y-55459333D01*
X73726247Y-55459333D02*
X73916723Y-55411714D01*
X73916723Y-55411714D02*
X74011961Y-55364095D01*
X74011961Y-55364095D02*
X74107200Y-55268857D01*
X74107200Y-55268857D02*
X74154819Y-55126000D01*
X74154819Y-55126000D02*
X74154819Y-54887905D01*
X74154819Y-56411714D02*
X74154819Y-55840286D01*
X74154819Y-56126000D02*
X73154819Y-56126000D01*
X73154819Y-56126000D02*
X73297676Y-56030762D01*
X73297676Y-56030762D02*
X73392914Y-55935524D01*
X73392914Y-55935524D02*
X73440533Y-55840286D01*
X442282000Y-63754000D02*
X438218000Y-63754000D01*
X438218000Y-62230000D02*
X442282000Y-62230000D01*
X437710000Y-64008000D02*
X437456000Y-63754000D01*
X442282000Y-62230000D02*
X442536000Y-61976000D01*
X443044000Y-62230000D02*
X443044000Y-63754000D01*
X442790000Y-61976000D02*
X443044000Y-62230000D01*
X442536000Y-64008000D02*
X442282000Y-63754000D01*
X438218000Y-63754000D02*
X437964000Y-64008000D01*
X437964000Y-61976000D02*
X438218000Y-62230000D01*
X443044000Y-62992000D02*
X443552000Y-62992000D01*
X442790000Y-64008000D02*
X442536000Y-64008000D01*
X442536000Y-61976000D02*
X442790000Y-61976000D01*
X437456000Y-62230000D02*
X437710000Y-61976000D01*
X436948000Y-62992000D02*
X437456000Y-62992000D01*
X437456000Y-63754000D02*
X437456000Y-62230000D01*
X437964000Y-64008000D02*
X437710000Y-64008000D01*
X443044000Y-63754000D02*
X442790000Y-64008000D01*
X437710000Y-61976000D02*
X437964000Y-61976000D01*
X59944000Y-142748000D02*
X59690000Y-143002000D01*
X64770000Y-141986000D02*
X65278000Y-141986000D01*
X64516000Y-140970000D02*
X64770000Y-141224000D01*
X64262000Y-140970000D02*
X64516000Y-140970000D01*
X59436000Y-140970000D02*
X59690000Y-140970000D01*
X64516000Y-143002000D02*
X64262000Y-143002000D01*
X64008000Y-141224000D02*
X64262000Y-140970000D01*
X59182000Y-141224000D02*
X59436000Y-140970000D01*
X64770000Y-141224000D02*
X64770000Y-142748000D01*
X58674000Y-141986000D02*
X59182000Y-141986000D01*
X59436000Y-143002000D02*
X59182000Y-142748000D01*
X59690000Y-143002000D02*
X59436000Y-143002000D01*
X59944000Y-141224000D02*
X64008000Y-141224000D01*
X64770000Y-142748000D02*
X64516000Y-143002000D01*
X59690000Y-140970000D02*
X59944000Y-141224000D01*
X59182000Y-142748000D02*
X59182000Y-141224000D01*
X64262000Y-143002000D02*
X64008000Y-142748000D01*
X64008000Y-142748000D02*
X59944000Y-142748000D01*
X373627500Y-61722000D02*
X373627500Y-63246000D01*
X368293500Y-61468000D02*
X368547500Y-61468000D01*
X373373500Y-63500000D02*
X373119500Y-63500000D01*
X373373500Y-61468000D02*
X373627500Y-61722000D01*
X373627500Y-62484000D02*
X374135500Y-62484000D01*
X368293500Y-63500000D02*
X368039500Y-63246000D01*
X373627500Y-63246000D02*
X373373500Y-63500000D01*
X367531500Y-62484000D02*
X368039500Y-62484000D01*
X368547500Y-61468000D02*
X368801500Y-61722000D01*
X368801500Y-61722000D02*
X372865500Y-61722000D01*
X368801500Y-63246000D02*
X368547500Y-63500000D01*
X372865500Y-61722000D02*
X373119500Y-61468000D01*
X373119500Y-61468000D02*
X373373500Y-61468000D01*
X373119500Y-63500000D02*
X372865500Y-63246000D01*
X368039500Y-63246000D02*
X368039500Y-61722000D01*
X372865500Y-63246000D02*
X368801500Y-63246000D01*
X368039500Y-61722000D02*
X368293500Y-61468000D01*
X368547500Y-63500000D02*
X368293500Y-63500000D01*
X467850000Y-64008000D02*
X467596000Y-64008000D01*
X467596000Y-61976000D02*
X467850000Y-61976000D01*
X467342000Y-62230000D02*
X467596000Y-61976000D01*
X463024000Y-61976000D02*
X463278000Y-62230000D01*
X468104000Y-63754000D02*
X467850000Y-64008000D01*
X463278000Y-63754000D02*
X463024000Y-64008000D01*
X463024000Y-64008000D02*
X462770000Y-64008000D01*
X462008000Y-62992000D02*
X462516000Y-62992000D01*
X463278000Y-62230000D02*
X467342000Y-62230000D01*
X467596000Y-64008000D02*
X467342000Y-63754000D01*
X462516000Y-63754000D02*
X462516000Y-62230000D01*
X467342000Y-63754000D02*
X463278000Y-63754000D01*
X468104000Y-62230000D02*
X468104000Y-63754000D01*
X468104000Y-62992000D02*
X468612000Y-62992000D01*
X462770000Y-64008000D02*
X462516000Y-63754000D01*
X467850000Y-61976000D02*
X468104000Y-62230000D01*
X462770000Y-61976000D02*
X463024000Y-61976000D01*
X462516000Y-62230000D02*
X462770000Y-61976000D01*
X414515000Y-100838000D02*
X415023000Y-100838000D01*
X415277000Y-99822000D02*
X415531000Y-99822000D01*
X420611000Y-101600000D02*
X420357000Y-101854000D01*
X420611000Y-100838000D02*
X421119000Y-100838000D01*
X415785000Y-100076000D02*
X419849000Y-100076000D01*
X420103000Y-99822000D02*
X420357000Y-99822000D01*
X419849000Y-101600000D02*
X415785000Y-101600000D01*
X420357000Y-99822000D02*
X420611000Y-100076000D01*
X420103000Y-101854000D02*
X419849000Y-101600000D01*
X415531000Y-101854000D02*
X415277000Y-101854000D01*
X420611000Y-100076000D02*
X420611000Y-101600000D01*
X419849000Y-100076000D02*
X420103000Y-99822000D01*
X415023000Y-101600000D02*
X415023000Y-100076000D01*
X415277000Y-101854000D02*
X415023000Y-101600000D01*
X420357000Y-101854000D02*
X420103000Y-101854000D01*
X415531000Y-99822000D02*
X415785000Y-100076000D01*
X415785000Y-101600000D02*
X415531000Y-101854000D01*
X415023000Y-100076000D02*
X415277000Y-99822000D01*
X418134000Y-62992000D02*
X418642000Y-62992000D01*
X413054000Y-61976000D02*
X413308000Y-62230000D01*
X418134000Y-63754000D02*
X417880000Y-64008000D01*
X412800000Y-64008000D02*
X412546000Y-63754000D01*
X413308000Y-63754000D02*
X413054000Y-64008000D01*
X412038000Y-62992000D02*
X412546000Y-62992000D01*
X413054000Y-64008000D02*
X412800000Y-64008000D01*
X412546000Y-62230000D02*
X412800000Y-61976000D01*
X412800000Y-61976000D02*
X413054000Y-61976000D01*
X417372000Y-62230000D02*
X417626000Y-61976000D01*
X417880000Y-64008000D02*
X417626000Y-64008000D01*
X417626000Y-64008000D02*
X417372000Y-63754000D01*
X417626000Y-61976000D02*
X417880000Y-61976000D01*
X417880000Y-61976000D02*
X418134000Y-62230000D01*
X412546000Y-63754000D02*
X412546000Y-62230000D01*
X418134000Y-62230000D02*
X418134000Y-63754000D01*
X413308000Y-62230000D02*
X417372000Y-62230000D01*
X417372000Y-63754000D02*
X413308000Y-63754000D01*
D11*
X153980000Y-118108000D02*
X153050000Y-118108000D01*
X150820000Y-118108000D02*
X150820000Y-114948000D01*
X150820000Y-118108000D02*
X151750000Y-118108000D01*
X153980000Y-118108000D02*
X153980000Y-116648000D01*
X217622000Y-97534000D02*
X218552000Y-97534000D01*
X220782000Y-97534000D02*
X219852000Y-97534000D01*
X217622000Y-97534000D02*
X217622000Y-94374000D01*
X220782000Y-97534000D02*
X220782000Y-96074000D01*
X222194000Y-159256000D02*
X223124000Y-159256000D01*
X225354000Y-159256000D02*
X224424000Y-159256000D01*
X222194000Y-159256000D02*
X222194000Y-156096000D01*
X225354000Y-159256000D02*
X225354000Y-157796000D01*
X254056000Y-138682000D02*
X253126000Y-138682000D01*
X250896000Y-138682000D02*
X251826000Y-138682000D01*
X254056000Y-138682000D02*
X254056000Y-137222000D01*
X250896000Y-138682000D02*
X250896000Y-135522000D01*
X141422000Y-97534000D02*
X141422000Y-94374000D01*
X144582000Y-97534000D02*
X144582000Y-96074000D01*
X141422000Y-97534000D02*
X142352000Y-97534000D01*
X144582000Y-97534000D02*
X143652000Y-97534000D01*
X87432000Y-97534000D02*
X86502000Y-97534000D01*
X84272000Y-97534000D02*
X84272000Y-94374000D01*
X84272000Y-97534000D02*
X85202000Y-97534000D01*
X87432000Y-97534000D02*
X87432000Y-96074000D01*
X93670000Y-118108000D02*
X94600000Y-118108000D01*
X96830000Y-118108000D02*
X95900000Y-118108000D01*
X93670000Y-118108000D02*
X93670000Y-114948000D01*
X96830000Y-118108000D02*
X96830000Y-116648000D01*
X231846000Y-138682000D02*
X232776000Y-138682000D01*
X235006000Y-138682000D02*
X235006000Y-137222000D01*
X231846000Y-138682000D02*
X231846000Y-135522000D01*
X235006000Y-138682000D02*
X234076000Y-138682000D01*
X65222000Y-97534000D02*
X66152000Y-97534000D01*
X68382000Y-97534000D02*
X67452000Y-97534000D01*
X68382000Y-97534000D02*
X68382000Y-96074000D01*
X65222000Y-97534000D02*
X65222000Y-94374000D01*
X149154000Y-159256000D02*
X149154000Y-157796000D01*
X145994000Y-159256000D02*
X146924000Y-159256000D01*
X149154000Y-159256000D02*
X148224000Y-159256000D01*
X145994000Y-159256000D02*
X145994000Y-156096000D01*
X448112000Y-118108000D02*
X447182000Y-118108000D01*
X444952000Y-118108000D02*
X444952000Y-114948000D01*
X444952000Y-118108000D02*
X445882000Y-118108000D01*
X448112000Y-118108000D02*
X448112000Y-116648000D01*
X192080000Y-56386000D02*
X191150000Y-56386000D01*
X192080000Y-56386000D02*
X192080000Y-54926000D01*
X188920000Y-56386000D02*
X188920000Y-53226000D01*
X188920000Y-56386000D02*
X189850000Y-56386000D01*
X246070000Y-118108000D02*
X246070000Y-114948000D01*
X249230000Y-118108000D02*
X248300000Y-118108000D01*
X246070000Y-118108000D02*
X247000000Y-118108000D01*
X249230000Y-118108000D02*
X249230000Y-116648000D01*
X382072000Y-182370000D02*
X382072000Y-180910000D01*
X378912000Y-182370000D02*
X379842000Y-182370000D01*
X378912000Y-182370000D02*
X378912000Y-179210000D01*
X382072000Y-182370000D02*
X381142000Y-182370000D01*
X169870000Y-118108000D02*
X170800000Y-118108000D01*
X173030000Y-118108000D02*
X173030000Y-116648000D01*
X169870000Y-118108000D02*
X169870000Y-114948000D01*
X173030000Y-118108000D02*
X172100000Y-118108000D01*
X250896000Y-56386000D02*
X251826000Y-56386000D01*
X254056000Y-56386000D02*
X254056000Y-54926000D01*
X250896000Y-56386000D02*
X250896000Y-53226000D01*
X254056000Y-56386000D02*
X253126000Y-56386000D01*
X359862000Y-56386000D02*
X359862000Y-53226000D01*
X363022000Y-56386000D02*
X363022000Y-54926000D01*
X363022000Y-56386000D02*
X362092000Y-56386000D01*
X359862000Y-56386000D02*
X360792000Y-56386000D01*
X296728000Y-97534000D02*
X295798000Y-97534000D01*
X296728000Y-97534000D02*
X296728000Y-96074000D01*
X293568000Y-97534000D02*
X294498000Y-97534000D01*
X293568000Y-97534000D02*
X293568000Y-94374000D01*
X300426000Y-159256000D02*
X301356000Y-159256000D01*
X303586000Y-159256000D02*
X302656000Y-159256000D01*
X303586000Y-159256000D02*
X303586000Y-157796000D01*
X300426000Y-159256000D02*
X300426000Y-156096000D01*
X385516000Y-163320000D02*
X385516000Y-160160000D01*
X388676000Y-163320000D02*
X387746000Y-163320000D01*
X385516000Y-163320000D02*
X386446000Y-163320000D01*
X388676000Y-163320000D02*
X388676000Y-161860000D01*
X106482000Y-56386000D02*
X105552000Y-56386000D01*
X103322000Y-56386000D02*
X104252000Y-56386000D01*
X106482000Y-56386000D02*
X106482000Y-54926000D01*
X103322000Y-56386000D02*
X103322000Y-53226000D01*
X94798000Y-161034000D02*
X94798000Y-159574000D01*
X94798000Y-161034000D02*
X93868000Y-161034000D01*
X91638000Y-161034000D02*
X92568000Y-161034000D01*
X91638000Y-161034000D02*
X91638000Y-157874000D01*
X163632000Y-97534000D02*
X163632000Y-96074000D01*
X163632000Y-97534000D02*
X162702000Y-97534000D01*
X160472000Y-97534000D02*
X160472000Y-94374000D01*
X160472000Y-97534000D02*
X161402000Y-97534000D01*
X274772000Y-56386000D02*
X275702000Y-56386000D01*
X277932000Y-56386000D02*
X277932000Y-54926000D01*
X274772000Y-56386000D02*
X274772000Y-53226000D01*
X277932000Y-56386000D02*
X277002000Y-56386000D01*
X399486000Y-168654000D02*
X399486000Y-165494000D01*
X402646000Y-168654000D02*
X402646000Y-167194000D01*
X402646000Y-168654000D02*
X401716000Y-168654000D01*
X399486000Y-168654000D02*
X400416000Y-168654000D01*
X74224000Y-179830000D02*
X73294000Y-179830000D01*
X74224000Y-179830000D02*
X74224000Y-178370000D01*
X71064000Y-179830000D02*
X71064000Y-176670000D01*
X71064000Y-179830000D02*
X71994000Y-179830000D01*
X448112000Y-159256000D02*
X448112000Y-157796000D01*
X448112000Y-159256000D02*
X447182000Y-159256000D01*
X444952000Y-159256000D02*
X445882000Y-159256000D01*
X444952000Y-159256000D02*
X444952000Y-156096000D01*
X74620000Y-118108000D02*
X75550000Y-118108000D01*
X74620000Y-118108000D02*
X74620000Y-114948000D01*
X77780000Y-118108000D02*
X77780000Y-116648000D01*
X77780000Y-118108000D02*
X76850000Y-118108000D01*
X168458000Y-56386000D02*
X168458000Y-54926000D01*
X165298000Y-56386000D02*
X166228000Y-56386000D01*
X168458000Y-56386000D02*
X167528000Y-56386000D01*
X165298000Y-56386000D02*
X165298000Y-53226000D01*
X168204000Y-159256000D02*
X168204000Y-157796000D01*
X165044000Y-159256000D02*
X165974000Y-159256000D01*
X165044000Y-159256000D02*
X165044000Y-156096000D01*
X168204000Y-159256000D02*
X167274000Y-159256000D01*
X306380000Y-118108000D02*
X306380000Y-116648000D01*
X303220000Y-118108000D02*
X304150000Y-118108000D01*
X306380000Y-118108000D02*
X305450000Y-118108000D01*
X303220000Y-118108000D02*
X303220000Y-114948000D01*
X180396000Y-179576000D02*
X179466000Y-179576000D01*
X180396000Y-179576000D02*
X180396000Y-178116000D01*
X177236000Y-179576000D02*
X178166000Y-179576000D01*
X177236000Y-179576000D02*
X177236000Y-176416000D01*
X258755000Y-176147000D02*
X257825000Y-176147000D01*
X258755000Y-176147000D02*
X258755000Y-174687000D01*
X255595000Y-176147000D02*
X255595000Y-172987000D01*
X255595000Y-176147000D02*
X256525000Y-176147000D01*
X316032000Y-100582000D02*
X315102000Y-100582000D01*
X316032000Y-100582000D02*
X316032000Y-99122000D01*
X312872000Y-100582000D02*
X312872000Y-97422000D01*
X312872000Y-100582000D02*
X313802000Y-100582000D01*
X448112000Y-138682000D02*
X448112000Y-137222000D01*
X444952000Y-138682000D02*
X444952000Y-135522000D01*
X448112000Y-138682000D02*
X447182000Y-138682000D01*
X444952000Y-138682000D02*
X445882000Y-138682000D01*
X155646000Y-138682000D02*
X155646000Y-135522000D01*
X158806000Y-138682000D02*
X158806000Y-137222000D01*
X155646000Y-138682000D02*
X156576000Y-138682000D01*
X158806000Y-138682000D02*
X157876000Y-138682000D01*
X74620000Y-138682000D02*
X74620000Y-135522000D01*
X77780000Y-138682000D02*
X76850000Y-138682000D01*
X74620000Y-138682000D02*
X75550000Y-138682000D01*
X77780000Y-138682000D02*
X77780000Y-137222000D01*
X429062000Y-118108000D02*
X429062000Y-116648000D01*
X425902000Y-118108000D02*
X425902000Y-114948000D01*
X429062000Y-118108000D02*
X428132000Y-118108000D01*
X425902000Y-118108000D02*
X426832000Y-118108000D01*
X339400000Y-56386000D02*
X339400000Y-54926000D01*
X336240000Y-56386000D02*
X337170000Y-56386000D01*
X336240000Y-56386000D02*
X336240000Y-53226000D01*
X339400000Y-56386000D02*
X338470000Y-56386000D01*
X339908000Y-137158000D02*
X338978000Y-137158000D01*
X339908000Y-137158000D02*
X339908000Y-135698000D01*
X336748000Y-137158000D02*
X337678000Y-137158000D01*
X336748000Y-137158000D02*
X336748000Y-133998000D01*
X244404000Y-159256000D02*
X243474000Y-159256000D01*
X241244000Y-159256000D02*
X242174000Y-159256000D01*
X241244000Y-159256000D02*
X241244000Y-156096000D01*
X244404000Y-159256000D02*
X244404000Y-157796000D01*
X230180000Y-118108000D02*
X229250000Y-118108000D01*
X227020000Y-118108000D02*
X227950000Y-118108000D01*
X230180000Y-118108000D02*
X230180000Y-116648000D01*
X227020000Y-118108000D02*
X227020000Y-114948000D01*
X339908000Y-118108000D02*
X338978000Y-118108000D01*
X339908000Y-118108000D02*
X339908000Y-116648000D01*
X336748000Y-118108000D02*
X337678000Y-118108000D01*
X336748000Y-118108000D02*
X336748000Y-114948000D01*
X444952000Y-97534000D02*
X444952000Y-94374000D01*
X448112000Y-97534000D02*
X447182000Y-97534000D01*
X444952000Y-97534000D02*
X445882000Y-97534000D01*
X448112000Y-97534000D02*
X448112000Y-96074000D01*
X363022000Y-179830000D02*
X363022000Y-178370000D01*
X359862000Y-179830000D02*
X360792000Y-179830000D01*
X359862000Y-179830000D02*
X359862000Y-176670000D01*
X363022000Y-179830000D02*
X362092000Y-179830000D01*
X425902000Y-159256000D02*
X425902000Y-156096000D01*
X425902000Y-159256000D02*
X426832000Y-159256000D01*
X429062000Y-159256000D02*
X429062000Y-157796000D01*
X429062000Y-159256000D02*
X428132000Y-159256000D01*
X98496000Y-138682000D02*
X98496000Y-135522000D01*
X98496000Y-138682000D02*
X99426000Y-138682000D01*
X101656000Y-138682000D02*
X100726000Y-138682000D01*
X101656000Y-138682000D02*
X101656000Y-137222000D01*
X309570000Y-140714000D02*
X310500000Y-140714000D01*
X309570000Y-140714000D02*
X309570000Y-137554000D01*
X312730000Y-140714000D02*
X312730000Y-139254000D01*
X312730000Y-140714000D02*
X311800000Y-140714000D01*
X336748000Y-158494000D02*
X336748000Y-155334000D01*
X336748000Y-158494000D02*
X337678000Y-158494000D01*
X339908000Y-158494000D02*
X339908000Y-157034000D01*
X339908000Y-158494000D02*
X338978000Y-158494000D01*
X239832000Y-97534000D02*
X238902000Y-97534000D01*
X236672000Y-97534000D02*
X237602000Y-97534000D01*
X236672000Y-97534000D02*
X236672000Y-94374000D01*
X239832000Y-97534000D02*
X239832000Y-96074000D01*
X425902000Y-97534000D02*
X426832000Y-97534000D01*
X429062000Y-97534000D02*
X428132000Y-97534000D01*
X429062000Y-97534000D02*
X429062000Y-96074000D01*
X425902000Y-97534000D02*
X425902000Y-94374000D01*
X429062000Y-138682000D02*
X428132000Y-138682000D01*
X425902000Y-138682000D02*
X426832000Y-138682000D01*
X425902000Y-138682000D02*
X425902000Y-135522000D01*
X429062000Y-138682000D02*
X429062000Y-137222000D01*
X68778000Y-162812000D02*
X69708000Y-162812000D01*
X71938000Y-162812000D02*
X71008000Y-162812000D01*
X71938000Y-162812000D02*
X71938000Y-161352000D01*
X68778000Y-162812000D02*
X68778000Y-159652000D01*
X174696000Y-138682000D02*
X174696000Y-135522000D01*
X174696000Y-138682000D02*
X175626000Y-138682000D01*
X177856000Y-138682000D02*
X177856000Y-137222000D01*
X177856000Y-138682000D02*
X176926000Y-138682000D01*
X77780000Y-56386000D02*
X77780000Y-54926000D01*
X77780000Y-56386000D02*
X76850000Y-56386000D01*
X74620000Y-56386000D02*
X75550000Y-56386000D01*
X74620000Y-56386000D02*
X74620000Y-53226000D01*
%LPC*%
D12*
X316706250Y-154200150D03*
D13*
X311626250Y-154200150D03*
D14*
X314166250Y-159280150D03*
D13*
X321786250Y-154200150D03*
D14*
X320516250Y-156740150D03*
D15*
X323791250Y-156740150D03*
X310864250Y-159280150D03*
D16*
X444150000Y-62992000D03*
D17*
X441600000Y-62992000D03*
D16*
X436350000Y-62992000D03*
D17*
X438900000Y-62992000D03*
D13*
X209867500Y-133640143D03*
D12*
X204787500Y-133640143D03*
D14*
X207327500Y-128560143D03*
D13*
X199707500Y-133640143D03*
D14*
X200977500Y-131100143D03*
D15*
X197702500Y-131100143D03*
X210629500Y-128560143D03*
D14*
X190500000Y-106330000D03*
X367023500Y-89980097D03*
D13*
X365753500Y-92520097D03*
X375913500Y-92520097D03*
D12*
X370833500Y-92520097D03*
D14*
X373373500Y-87440097D03*
D15*
X363748500Y-89980097D03*
X376675500Y-87440097D03*
D14*
X66680000Y-65300000D03*
D18*
X438975000Y-57900000D03*
D19*
X441515000Y-57900000D03*
D13*
X147320000Y-51400055D03*
D14*
X154940000Y-46320055D03*
D12*
X152400000Y-51400055D03*
D14*
X148590000Y-48860055D03*
D13*
X157480000Y-51400055D03*
D15*
X145315000Y-48860055D03*
X158242000Y-46320055D03*
D12*
X195262500Y-154200165D03*
D14*
X197802500Y-149120165D03*
D13*
X190182500Y-154200165D03*
X200342500Y-154200165D03*
D14*
X191452500Y-151660165D03*
D15*
X188177500Y-151660165D03*
X201104500Y-149120165D03*
D13*
X412737000Y-174760181D03*
X422897000Y-174760181D03*
D12*
X417817000Y-174760181D03*
D14*
X421627000Y-177300181D03*
X415277000Y-179840181D03*
D15*
X424902000Y-177300181D03*
X411975000Y-179840181D03*
D14*
X200190000Y-168330000D03*
D17*
X63326000Y-141986000D03*
D16*
X65876000Y-141986000D03*
X58076000Y-141986000D03*
D17*
X60626000Y-141986000D03*
D13*
X317023750Y-133640130D03*
D20*
X300005750Y-126655130D03*
D14*
X314483750Y-128560130D03*
D13*
X306863750Y-133640130D03*
D20*
X323881750Y-126655130D03*
D14*
X308133750Y-131100130D03*
D21*
X300005750Y-141895130D03*
D12*
X311943750Y-133640130D03*
D21*
X323881750Y-141895130D03*
D15*
X304858750Y-131100130D03*
X317785750Y-128560130D03*
D14*
X342260000Y-127280000D03*
X380360000Y-85690000D03*
D12*
X185737500Y-133640143D03*
D13*
X180657500Y-133640143D03*
D14*
X181927500Y-131100143D03*
D13*
X190817500Y-133640143D03*
D14*
X188277500Y-128560143D03*
D15*
X178652500Y-131100143D03*
X191579500Y-128560143D03*
D17*
X372183500Y-62484000D03*
D16*
X374733500Y-62484000D03*
X366933500Y-62484000D03*
D17*
X369483500Y-62484000D03*
D14*
X166690000Y-147640000D03*
D13*
X469887000Y-174760187D03*
D12*
X474967000Y-174760187D03*
D14*
X477507000Y-169680187D03*
D13*
X480047000Y-174760187D03*
D14*
X471157000Y-172220187D03*
D15*
X467882000Y-172220187D03*
X480809000Y-169680187D03*
D13*
X431787000Y-133640139D03*
D14*
X433057000Y-131100139D03*
D12*
X436867000Y-133640139D03*
D14*
X439407000Y-128560139D03*
D13*
X441947000Y-133640139D03*
D15*
X429782000Y-131100139D03*
X442709000Y-128560139D03*
D14*
X115252500Y-151660165D03*
D12*
X119062500Y-154200165D03*
D13*
X113982500Y-154200165D03*
D14*
X121602500Y-149120165D03*
D13*
X124142500Y-154200165D03*
D15*
X111977500Y-151660165D03*
X124904500Y-149120165D03*
D12*
X85725000Y-113080121D03*
D13*
X90805000Y-113080121D03*
D14*
X81915000Y-110540121D03*
D13*
X80645000Y-113080121D03*
D14*
X88265000Y-108000121D03*
D15*
X78640000Y-110540121D03*
X91567000Y-108000121D03*
D14*
X105727500Y-172220187D03*
D12*
X109537500Y-174760187D03*
D13*
X114617500Y-174760187D03*
D14*
X112077500Y-169680187D03*
D13*
X104457500Y-174760187D03*
D15*
X102452500Y-172220187D03*
X115379500Y-169680187D03*
D14*
X414007000Y-151660160D03*
X420357000Y-149120160D03*
D13*
X422897000Y-154200160D03*
D12*
X417817000Y-154200160D03*
D13*
X412737000Y-154200160D03*
D15*
X410732000Y-151660160D03*
X423659000Y-149120160D03*
D13*
X238442500Y-154200165D03*
X228282500Y-154200165D03*
D14*
X229552500Y-151660165D03*
X235902500Y-149120165D03*
D12*
X233362500Y-154200165D03*
D15*
X226277500Y-151660165D03*
X239204500Y-149120165D03*
D22*
X376433500Y-51400055D03*
X365233500Y-51400055D03*
D23*
X368333500Y-58900055D03*
D24*
X373333500Y-58900055D03*
X370833500Y-58900055D03*
X373333500Y-44400055D03*
X368333500Y-44400055D03*
D13*
X450837000Y-133640139D03*
D14*
X458457000Y-128560139D03*
D13*
X460997000Y-133640139D03*
D12*
X455917000Y-133640139D03*
D14*
X452107000Y-131100139D03*
D15*
X448832000Y-131100139D03*
X461759000Y-128560139D03*
D14*
X71596250Y-149120150D03*
D12*
X69056250Y-154200150D03*
D20*
X57118250Y-147215150D03*
D21*
X57118250Y-162455150D03*
D13*
X63976250Y-154200150D03*
X74136250Y-154200150D03*
D20*
X80994250Y-147215150D03*
D21*
X80994250Y-162455150D03*
D14*
X65246250Y-151660150D03*
D15*
X61971250Y-151660150D03*
X74898250Y-149120150D03*
D14*
X90870000Y-189180000D03*
X380360000Y-65090000D03*
X283700000Y-188980000D03*
D12*
X104775000Y-113080121D03*
D14*
X100965000Y-110540121D03*
X107315000Y-108000121D03*
D13*
X109855000Y-113080121D03*
X99695000Y-113080121D03*
D15*
X97690000Y-110540121D03*
X110617000Y-108000121D03*
D14*
X193040000Y-87440099D03*
X186690000Y-89980099D03*
D13*
X185420000Y-92520099D03*
X195580000Y-92520099D03*
D12*
X190500000Y-92520099D03*
D15*
X183415000Y-89980099D03*
X196342000Y-87440099D03*
D14*
X238210000Y-189010000D03*
D12*
X128587500Y-133640143D03*
D14*
X124777500Y-131100143D03*
D13*
X123507500Y-133640143D03*
X133667500Y-133640143D03*
D14*
X131127500Y-128560143D03*
D15*
X121502500Y-131100143D03*
X134429500Y-128560143D03*
D14*
X484610000Y-127460000D03*
D13*
X384803500Y-174760188D03*
X394963500Y-174760188D03*
D14*
X392423500Y-169680188D03*
D12*
X389883500Y-174760188D03*
D14*
X386073500Y-172220188D03*
D15*
X382798500Y-172220188D03*
X395725500Y-169680188D03*
D12*
X474967000Y-123360132D03*
D21*
X466712000Y-111422132D03*
D13*
X469887000Y-123360132D03*
D21*
X466712000Y-135298132D03*
D25*
X481952000Y-135298132D03*
D13*
X480047000Y-123360132D03*
D25*
X481952000Y-111422132D03*
D14*
X477507000Y-118280132D03*
X471157000Y-120820132D03*
D15*
X467882000Y-120820132D03*
X480809000Y-118280132D03*
D14*
X202565000Y-108000121D03*
D13*
X205105000Y-113080121D03*
D14*
X196215000Y-110540121D03*
D12*
X200025000Y-113080121D03*
D13*
X194945000Y-113080121D03*
D15*
X192940000Y-110540121D03*
X205867000Y-108000121D03*
D14*
X427350000Y-127400000D03*
X392423500Y-87440097D03*
D13*
X394963500Y-92520097D03*
D12*
X389883500Y-92520097D03*
D14*
X386073500Y-89980097D03*
D13*
X384803500Y-92520097D03*
D15*
X382798500Y-89980097D03*
X395725500Y-87440097D03*
D16*
X469210000Y-62992000D03*
D17*
X466660000Y-62992000D03*
D16*
X461410000Y-62992000D03*
D17*
X463960000Y-62992000D03*
D12*
X61912500Y-113080121D03*
D13*
X56832500Y-113080121D03*
D14*
X64452500Y-108000121D03*
X58102500Y-110540121D03*
D13*
X66992500Y-113080121D03*
D15*
X54827500Y-110540121D03*
X67754500Y-108000121D03*
D14*
X238130000Y-85660000D03*
D13*
X209232500Y-154200165D03*
D14*
X216852500Y-149120165D03*
D12*
X214312500Y-154200165D03*
D14*
X210502500Y-151660165D03*
D13*
X219392500Y-154200165D03*
D15*
X207227500Y-151660165D03*
X220154500Y-149120165D03*
D14*
X226377500Y-128560143D03*
D13*
X218757500Y-133640143D03*
X228917500Y-133640143D03*
D12*
X223837500Y-133640143D03*
D14*
X220027500Y-131100143D03*
D15*
X216752500Y-131100143D03*
X229679500Y-128560143D03*
D14*
X313320000Y-65040000D03*
X380360000Y-168380000D03*
X204800000Y-147580000D03*
X342260000Y-168330000D03*
X327660000Y-95060099D03*
D12*
X323850000Y-92520099D03*
D13*
X318770000Y-92520099D03*
X328930000Y-92520099D03*
D14*
X321310000Y-97600099D03*
D15*
X330935000Y-95060099D03*
X318008000Y-97600099D03*
D18*
X414065000Y-57880000D03*
D19*
X416605000Y-57880000D03*
D14*
X408280000Y-147700000D03*
D13*
X375913500Y-113080118D03*
X365753500Y-113080118D03*
D14*
X367023500Y-110540118D03*
D12*
X370833500Y-113080118D03*
D14*
X373373500Y-108000118D03*
D15*
X363748500Y-110540118D03*
X376675500Y-108000118D03*
D14*
X180980000Y-85670000D03*
D12*
X209550000Y-92520099D03*
D13*
X204470000Y-92520099D03*
D14*
X205740000Y-89980099D03*
X212090000Y-87440099D03*
D13*
X214630000Y-92520099D03*
D15*
X202465000Y-89980099D03*
X215392000Y-87440099D03*
D14*
X139065000Y-110540121D03*
D12*
X142875000Y-113080121D03*
D13*
X137795000Y-113080121D03*
D14*
X145415000Y-108000121D03*
D13*
X147955000Y-113080121D03*
D15*
X135790000Y-110540121D03*
X148717000Y-108000121D03*
D14*
X161970000Y-65120000D03*
X186690000Y-172220170D03*
X193040000Y-169680170D03*
D20*
X133350000Y-167775170D03*
D21*
X133350000Y-183015170D03*
D12*
X190500000Y-174760170D03*
D13*
X185420000Y-174760170D03*
X195580000Y-174760170D03*
D21*
X247650000Y-183015170D03*
D20*
X247650000Y-167775170D03*
D15*
X183415000Y-172220170D03*
X196342000Y-169680170D03*
D12*
X351783500Y-51400055D03*
D14*
X354323500Y-46320055D03*
D13*
X356863500Y-51400055D03*
D14*
X347973500Y-48860055D03*
D13*
X346703500Y-51400055D03*
D15*
X344698500Y-48860055D03*
X357625500Y-46320055D03*
D13*
X300355000Y-113080121D03*
X290195000Y-113080121D03*
D14*
X291465000Y-110540121D03*
D12*
X295275000Y-113080121D03*
D14*
X297815000Y-108000121D03*
D15*
X288190000Y-110540121D03*
X301117000Y-108000121D03*
D13*
X314007500Y-174760187D03*
D14*
X321627500Y-169680187D03*
D12*
X319087500Y-174760187D03*
D13*
X324167500Y-174760187D03*
D14*
X315277500Y-172220187D03*
D15*
X312002500Y-172220187D03*
X324929500Y-169680187D03*
D13*
X138430000Y-51400055D03*
D14*
X129540000Y-48860055D03*
D12*
X133350000Y-51400055D03*
D14*
X135890000Y-46320055D03*
D13*
X128270000Y-51400055D03*
D15*
X126265000Y-48860055D03*
X139192000Y-46320055D03*
D14*
X269240000Y-87440099D03*
X262890000Y-89980099D03*
D13*
X261620000Y-92520099D03*
D12*
X266700000Y-92520099D03*
D13*
X271780000Y-92520099D03*
D15*
X259615000Y-89980099D03*
X272542000Y-87440099D03*
D14*
X484610000Y-189200000D03*
X171460000Y-44480000D03*
D13*
X375913500Y-154200167D03*
D12*
X370833500Y-154200167D03*
D14*
X373373500Y-149120167D03*
D13*
X365753500Y-154200167D03*
D14*
X367023500Y-151660167D03*
D15*
X363748500Y-151660167D03*
X376675500Y-149120167D03*
D13*
X266382500Y-174760187D03*
D14*
X267652500Y-172220187D03*
D13*
X276542500Y-174760187D03*
D14*
X274002500Y-169680187D03*
D12*
X271462500Y-174760187D03*
D15*
X264377500Y-172220187D03*
X277304500Y-169680187D03*
D14*
X297497500Y-138720143D03*
D13*
X294957500Y-133640143D03*
D12*
X300037500Y-133640143D03*
D14*
X303847500Y-136180143D03*
D13*
X305117500Y-133640143D03*
D15*
X307122500Y-136180143D03*
X294195500Y-138720143D03*
D13*
X171767500Y-133640143D03*
D12*
X166687500Y-133640143D03*
D14*
X169227500Y-128560143D03*
X162877500Y-131100143D03*
D13*
X161607500Y-133640143D03*
D15*
X159602500Y-131100143D03*
X172529500Y-128560143D03*
D14*
X119070000Y-127420000D03*
X114310000Y-106470000D03*
X414007000Y-110540118D03*
D13*
X422897000Y-113080118D03*
D14*
X420357000Y-108000118D03*
D12*
X417817000Y-113080118D03*
D13*
X412737000Y-113080118D03*
D15*
X410732000Y-110540118D03*
X423659000Y-108000118D03*
D12*
X123825000Y-113080121D03*
D14*
X126365000Y-108000121D03*
D13*
X128905000Y-113080121D03*
D14*
X120015000Y-110540121D03*
D13*
X118745000Y-113080121D03*
D15*
X116740000Y-110540121D03*
X129667000Y-108000121D03*
D14*
X452107000Y-89980097D03*
D13*
X450837000Y-92520097D03*
D12*
X455917000Y-92520097D03*
D14*
X458457000Y-87440097D03*
D13*
X460997000Y-92520097D03*
D15*
X448832000Y-89980097D03*
X461759000Y-87440097D03*
D13*
X299720000Y-51400055D03*
D12*
X304800000Y-51400055D03*
D14*
X307340000Y-46320055D03*
D13*
X309880000Y-51400055D03*
D14*
X300990000Y-48860055D03*
D15*
X297715000Y-48860055D03*
X310642000Y-46320055D03*
D14*
X281940000Y-48860055D03*
D12*
X285750000Y-51400055D03*
D13*
X280670000Y-51400055D03*
D14*
X288290000Y-46320055D03*
D13*
X290830000Y-51400055D03*
D15*
X278665000Y-48860055D03*
X291592000Y-46320055D03*
D13*
X474967000Y-149120160D03*
D14*
X477507000Y-150390160D03*
D12*
X474967000Y-154200160D03*
D13*
X474967000Y-159280160D03*
D14*
X480047000Y-156740160D03*
D26*
X477507000Y-147115160D03*
X480047000Y-160042160D03*
D21*
X138080750Y-183015170D03*
D14*
X153828750Y-177300170D03*
D13*
X155098750Y-174760170D03*
D21*
X161956750Y-183015170D03*
D20*
X161956750Y-167775170D03*
X138080750Y-167775170D03*
D13*
X144938750Y-174760170D03*
D12*
X150018750Y-174760170D03*
D14*
X147478750Y-179840170D03*
D15*
X157103750Y-177300170D03*
X144176750Y-179840170D03*
D14*
X446390000Y-85800000D03*
D18*
X464035000Y-57900000D03*
D19*
X466575000Y-57900000D03*
D14*
X47620000Y-44730000D03*
D13*
X194945000Y-51400055D03*
D12*
X200025000Y-51400055D03*
D14*
X196215000Y-48860055D03*
X202565000Y-46320055D03*
D13*
X205105000Y-51400055D03*
D15*
X192940000Y-48860055D03*
X205867000Y-46320055D03*
D13*
X138430000Y-92520099D03*
D12*
X133350000Y-92520099D03*
D14*
X129540000Y-89980099D03*
D13*
X128270000Y-92520099D03*
D14*
X135890000Y-87440099D03*
D15*
X126265000Y-89980099D03*
X139192000Y-87440099D03*
D14*
X314350000Y-44430000D03*
D13*
X450837000Y-113080118D03*
D14*
X458457000Y-108000118D03*
D12*
X455917000Y-113080118D03*
D14*
X452107000Y-110540118D03*
D13*
X460997000Y-113080118D03*
D15*
X448832000Y-110540118D03*
X461759000Y-108000118D03*
D12*
X228600000Y-92520099D03*
D14*
X224790000Y-89980099D03*
X231140000Y-87440099D03*
D13*
X233680000Y-92520099D03*
X223520000Y-92520099D03*
D15*
X221515000Y-89980099D03*
X234442000Y-87440099D03*
D14*
X90490000Y-147810000D03*
X414007000Y-131100139D03*
X420357000Y-128560139D03*
D13*
X412737000Y-133640139D03*
D12*
X417817000Y-133640139D03*
D13*
X422897000Y-133640139D03*
D15*
X410732000Y-131100139D03*
X423659000Y-128560139D03*
D13*
X267017500Y-133640143D03*
D14*
X258127500Y-131100143D03*
X264477500Y-128560143D03*
D12*
X261937500Y-133640143D03*
D13*
X256857500Y-133640143D03*
D15*
X254852500Y-131100143D03*
X267779500Y-128560143D03*
D14*
X303371250Y-151660150D03*
D20*
X319119250Y-147215150D03*
D12*
X307181250Y-154200150D03*
D21*
X295243250Y-162455150D03*
X319119250Y-162455150D03*
D13*
X302101250Y-154200150D03*
D14*
X309721250Y-149120150D03*
D20*
X295243250Y-147215150D03*
D13*
X312261250Y-154200150D03*
D15*
X300096250Y-151660150D03*
X313023250Y-149120150D03*
D21*
X466712000Y-152542176D03*
D14*
X471157000Y-161940176D03*
D12*
X474967000Y-164480176D03*
D25*
X481952000Y-176418176D03*
D21*
X466712000Y-176418176D03*
D25*
X481952000Y-152542176D03*
D13*
X480047000Y-164480176D03*
D14*
X477507000Y-159400176D03*
D13*
X469887000Y-164480176D03*
D15*
X467882000Y-161940176D03*
X480809000Y-159400176D03*
D14*
X84772500Y-156740165D03*
D13*
X86042500Y-154200165D03*
D14*
X78422500Y-159280165D03*
D13*
X75882500Y-154200165D03*
D12*
X80962500Y-154200165D03*
D15*
X88047500Y-156740165D03*
X75120500Y-159280165D03*
D14*
X484610000Y-147830000D03*
D13*
X356863500Y-92520097D03*
D14*
X347973500Y-89980097D03*
X354323500Y-87440097D03*
D13*
X346703500Y-92520097D03*
D12*
X351783500Y-92520097D03*
D15*
X344698500Y-89980097D03*
X357625500Y-87440097D03*
D14*
X215265000Y-48860055D03*
X221615000Y-46320055D03*
D13*
X213995000Y-51400055D03*
D12*
X219075000Y-51400055D03*
D13*
X224155000Y-51400055D03*
D15*
X211990000Y-48860055D03*
X224917000Y-46320055D03*
D21*
X185705750Y-183015170D03*
D13*
X192563750Y-174760170D03*
D14*
X195103750Y-179840170D03*
D20*
X185705750Y-167775170D03*
D21*
X209581750Y-183015170D03*
D14*
X201453750Y-177300170D03*
D13*
X202723750Y-174760170D03*
D12*
X197643750Y-174760170D03*
D20*
X209581750Y-167775170D03*
D15*
X204728750Y-177300170D03*
X191801750Y-179840170D03*
D14*
X123820000Y-44560000D03*
X440677000Y-177300181D03*
X434327000Y-179840181D03*
D13*
X431787000Y-174760181D03*
D12*
X436867000Y-174760181D03*
D13*
X441947000Y-174760181D03*
D15*
X443952000Y-177300181D03*
X431025000Y-179840181D03*
D16*
X421717000Y-100838000D03*
D17*
X419167000Y-100838000D03*
X416467000Y-100838000D03*
D16*
X413917000Y-100838000D03*
D14*
X399300000Y-189070000D03*
D12*
X290512500Y-154200150D03*
D14*
X294322500Y-156740150D03*
D13*
X295592500Y-154200150D03*
X285432500Y-154200150D03*
D14*
X287972500Y-159280150D03*
D15*
X297597500Y-156740150D03*
X284670500Y-159280150D03*
D14*
X97790000Y-46320055D03*
D13*
X100330000Y-51400055D03*
X90170000Y-51400055D03*
D12*
X95250000Y-51400055D03*
D14*
X91440000Y-48860055D03*
D15*
X88165000Y-48860055D03*
X101092000Y-46320055D03*
D14*
X47730000Y-189240000D03*
D13*
X162242500Y-154200165D03*
D14*
X159702500Y-149120165D03*
D12*
X157162500Y-154200165D03*
D13*
X152082500Y-154200165D03*
D14*
X153352500Y-151660165D03*
D15*
X150077500Y-151660165D03*
X163004500Y-149120165D03*
D22*
X346183500Y-51400055D03*
X357383500Y-51400055D03*
D23*
X349283500Y-58900055D03*
D24*
X354283500Y-58900055D03*
X351783500Y-58900055D03*
X354283500Y-44400055D03*
X349283500Y-44400055D03*
D14*
X142960000Y-168420000D03*
D17*
X416690000Y-62992000D03*
D16*
X419240000Y-62992000D03*
D17*
X413990000Y-62992000D03*
D16*
X411440000Y-62992000D03*
D13*
X480047000Y-133640139D03*
D14*
X477507000Y-128560139D03*
D13*
X469887000Y-133640139D03*
D14*
X471157000Y-131100139D03*
D12*
X474967000Y-133640139D03*
D15*
X467882000Y-131100139D03*
X480809000Y-128560139D03*
D14*
X342260000Y-188990000D03*
X281010000Y-147630000D03*
D12*
X238125000Y-113080121D03*
D14*
X234315000Y-110540121D03*
D13*
X233045000Y-113080121D03*
D14*
X240665000Y-108000121D03*
D13*
X243205000Y-113080121D03*
D15*
X231040000Y-110540121D03*
X243967000Y-108000121D03*
D14*
X63341250Y-156740165D03*
D13*
X54451250Y-154200165D03*
D12*
X59531250Y-154200165D03*
D13*
X64611250Y-154200165D03*
D14*
X56991250Y-159280165D03*
D15*
X66616250Y-156740165D03*
X53689250Y-159280165D03*
D13*
X109220000Y-51400055D03*
D12*
X114300000Y-51400055D03*
D14*
X110490000Y-48860055D03*
D13*
X119380000Y-51400055D03*
D14*
X116840000Y-46320055D03*
D15*
X107215000Y-48860055D03*
X120142000Y-46320055D03*
D13*
X157480000Y-92520099D03*
D12*
X152400000Y-92520099D03*
D13*
X147320000Y-92520099D03*
D14*
X154940000Y-87440099D03*
X148590000Y-89980099D03*
D15*
X145315000Y-89980099D03*
X158242000Y-87440099D03*
D14*
X49990000Y-106590000D03*
D12*
X389883500Y-51400055D03*
D13*
X384803500Y-51400055D03*
D14*
X386073500Y-48860055D03*
X392423500Y-46320055D03*
D13*
X394963500Y-51400055D03*
D15*
X382798500Y-48860055D03*
X395725500Y-46320055D03*
D20*
X250063000Y-167775170D03*
D13*
X243205000Y-174760170D03*
D20*
X226187000Y-167775170D03*
D14*
X235585000Y-179840170D03*
D13*
X233045000Y-174760170D03*
D12*
X238125000Y-174760170D03*
D14*
X241935000Y-177300170D03*
D21*
X250063000Y-183015170D03*
X226187000Y-183015170D03*
D15*
X245210000Y-177300170D03*
X232283000Y-179840170D03*
D13*
X119380000Y-92520099D03*
D12*
X114300000Y-92520099D03*
D14*
X110490000Y-89980099D03*
X116840000Y-87440099D03*
D13*
X109220000Y-92520099D03*
D15*
X107215000Y-89980099D03*
X120142000Y-87440099D03*
D14*
X484610000Y-85840000D03*
X240665000Y-46320055D03*
D13*
X243205000Y-51400055D03*
X233045000Y-51400055D03*
D14*
X234315000Y-48860055D03*
D12*
X238125000Y-51400055D03*
D15*
X231040000Y-48860055D03*
X243967000Y-46320055D03*
D12*
X436867000Y-92520097D03*
D14*
X439407000Y-87440097D03*
D13*
X441947000Y-92520097D03*
X431787000Y-92520097D03*
D14*
X433057000Y-89980097D03*
D15*
X429782000Y-89980097D03*
X442709000Y-87440097D03*
D13*
X290830000Y-92520099D03*
D14*
X281940000Y-89980099D03*
D12*
X285750000Y-92520099D03*
D14*
X288290000Y-87440099D03*
D13*
X280670000Y-92520099D03*
D15*
X278665000Y-89980099D03*
X291592000Y-87440099D03*
D14*
X399630000Y-44480000D03*
D12*
X123825000Y-183015170D03*
X257175000Y-183015170D03*
D20*
X257175000Y-167775170D03*
X123825000Y-167775170D03*
D13*
X394963500Y-113080118D03*
D12*
X389883500Y-113080118D03*
D14*
X392423500Y-108000118D03*
D13*
X384803500Y-113080118D03*
D14*
X386073500Y-110540118D03*
D15*
X382798500Y-110540118D03*
X395725500Y-108000118D03*
D14*
X309580000Y-168330000D03*
D13*
X104457500Y-133640143D03*
D14*
X105727500Y-131100143D03*
D12*
X109537500Y-133640143D03*
D14*
X112077500Y-128560143D03*
D13*
X114617500Y-133640143D03*
D15*
X102452500Y-131100143D03*
X115379500Y-128560143D03*
D14*
X123830000Y-85790000D03*
X408300000Y-106420000D03*
D13*
X271145000Y-113080121D03*
D14*
X278765000Y-108000121D03*
D12*
X276225000Y-113080121D03*
D14*
X272415000Y-110540121D03*
D13*
X281305000Y-113080121D03*
D15*
X269140000Y-110540121D03*
X282067000Y-108000121D03*
D13*
X441947000Y-113080118D03*
X431787000Y-113080118D03*
D14*
X439407000Y-108000118D03*
X433057000Y-110540118D03*
D12*
X436867000Y-113080118D03*
D15*
X429782000Y-110540118D03*
X442709000Y-108000118D03*
D12*
X455917000Y-154200160D03*
D13*
X460997000Y-154200160D03*
D14*
X452107000Y-151660160D03*
D13*
X450837000Y-154200160D03*
D14*
X458457000Y-149120160D03*
D15*
X448832000Y-151660160D03*
X461759000Y-149120160D03*
D13*
X52070000Y-92520097D03*
D14*
X59690000Y-87440097D03*
D12*
X57150000Y-92520097D03*
D14*
X53340000Y-89980097D03*
D13*
X62230000Y-92520097D03*
D15*
X50065000Y-89980097D03*
X62992000Y-87440097D03*
D12*
X351783500Y-113080118D03*
D13*
X356863500Y-113080118D03*
D14*
X347973500Y-110540118D03*
X354323500Y-108000118D03*
D13*
X346703500Y-113080118D03*
D15*
X344698500Y-110540118D03*
X357625500Y-108000118D03*
D14*
X423532000Y-172220181D03*
D13*
X422262000Y-174760181D03*
D20*
X439280000Y-167775181D03*
X415404000Y-167775181D03*
D14*
X429882000Y-169680181D03*
D12*
X427342000Y-174760181D03*
D21*
X439280000Y-183015181D03*
D13*
X432422000Y-174760181D03*
D21*
X415404000Y-183015181D03*
D15*
X420257000Y-172220181D03*
X433184000Y-169680181D03*
D13*
X441947000Y-154200160D03*
X431787000Y-154200160D03*
D14*
X439407000Y-149120160D03*
D12*
X436867000Y-154200160D03*
D14*
X433057000Y-151660160D03*
D15*
X429782000Y-151660160D03*
X442709000Y-149120160D03*
D14*
X96202500Y-151660165D03*
D13*
X105092500Y-154200165D03*
D14*
X102552500Y-149120165D03*
D12*
X100012500Y-154200165D03*
D13*
X94932500Y-154200165D03*
D15*
X92927500Y-151660165D03*
X105854500Y-149120165D03*
D14*
X150177500Y-128560143D03*
D13*
X152717500Y-133640143D03*
X142557500Y-133640143D03*
D12*
X147637500Y-133640143D03*
D14*
X143827500Y-131100143D03*
D15*
X140552500Y-131100143D03*
X153479500Y-128560143D03*
D13*
X356863500Y-174760188D03*
X346703500Y-174760188D03*
D14*
X354323500Y-169680188D03*
X347973500Y-172220188D03*
D12*
X351783500Y-174760188D03*
D15*
X344698500Y-172220188D03*
X357625500Y-169680188D03*
D12*
X474967000Y-113080110D03*
D13*
X474967000Y-118160110D03*
D14*
X480047000Y-115620110D03*
X477507000Y-109270110D03*
D13*
X474967000Y-108000110D03*
D26*
X477507000Y-105995110D03*
X480047000Y-118922110D03*
D12*
X370833500Y-174760188D03*
D13*
X365753500Y-174760188D03*
X375913500Y-174760188D03*
D14*
X373373500Y-169680188D03*
X367023500Y-172220188D03*
D15*
X363748500Y-172220188D03*
X376675500Y-169680188D03*
D13*
X175895000Y-113080121D03*
D14*
X183515000Y-108000121D03*
D12*
X180975000Y-113080121D03*
D14*
X177165000Y-110540121D03*
D13*
X186055000Y-113080121D03*
D15*
X173890000Y-110540121D03*
X186817000Y-108000121D03*
D14*
X219120000Y-65050000D03*
D13*
X309880000Y-92520090D03*
D12*
X304800000Y-92520090D03*
D13*
X299720000Y-92520090D03*
D14*
X302260000Y-97600090D03*
X308610000Y-95060090D03*
D15*
X311885000Y-95060090D03*
X298958000Y-97600090D03*
D14*
X342260000Y-147600000D03*
D22*
X384283500Y-51400055D03*
X395483500Y-51400055D03*
D23*
X387383500Y-58900055D03*
D24*
X392383500Y-58900055D03*
X389883500Y-58900055D03*
X392383500Y-44400055D03*
X387383500Y-44400055D03*
D13*
X257492500Y-154200165D03*
D12*
X252412500Y-154200165D03*
D14*
X248602500Y-151660165D03*
X254952500Y-149120165D03*
D13*
X247332500Y-154200165D03*
D15*
X245327500Y-151660165D03*
X258254500Y-149120165D03*
D13*
X469887000Y-92520097D03*
D12*
X474967000Y-92520097D03*
D14*
X477507000Y-87440097D03*
X471157000Y-89980097D03*
D13*
X480047000Y-92520097D03*
D15*
X467882000Y-89980097D03*
X480809000Y-87440097D03*
D14*
X257190000Y-44450000D03*
X134302500Y-151660165D03*
D13*
X133032500Y-154200165D03*
X143192500Y-154200165D03*
D12*
X138112500Y-154200165D03*
D14*
X140652500Y-149120165D03*
D15*
X131027500Y-151660165D03*
X143954500Y-149120165D03*
D13*
X460997000Y-174760187D03*
D12*
X455917000Y-174760187D03*
D14*
X452107000Y-172220187D03*
D13*
X450837000Y-174760187D03*
D14*
X458457000Y-169680187D03*
D15*
X448832000Y-172220187D03*
X461759000Y-169680187D03*
D14*
X342260000Y-106340000D03*
X167070000Y-189010000D03*
D13*
X314007500Y-113080121D03*
D14*
X321627500Y-108000121D03*
X315277500Y-110540121D03*
D12*
X319087500Y-113080121D03*
D13*
X324167500Y-113080121D03*
D15*
X312002500Y-110540121D03*
X324929500Y-108000121D03*
D14*
X243290000Y-168340000D03*
X178752500Y-149120165D03*
D13*
X171132500Y-154200165D03*
D14*
X172402500Y-151660165D03*
D12*
X176212500Y-154200165D03*
D13*
X181292500Y-154200165D03*
D15*
X169127500Y-151660165D03*
X182054500Y-149120165D03*
D14*
X484610000Y-168580000D03*
D13*
X261620000Y-51400055D03*
D14*
X262890000Y-48860055D03*
X269240000Y-46320055D03*
D13*
X271780000Y-51400055D03*
D12*
X266700000Y-51400055D03*
D15*
X259615000Y-48860055D03*
X272542000Y-46320055D03*
D14*
X317658750Y-120820120D03*
D25*
X314483750Y-111422120D03*
D14*
X324008750Y-118280120D03*
D21*
X329723750Y-111422120D03*
X329723750Y-135298120D03*
D13*
X316388750Y-123360120D03*
X326548750Y-123360120D03*
D12*
X321468750Y-123360120D03*
D25*
X314483750Y-135298120D03*
D15*
X314383750Y-120820120D03*
X327310750Y-118280120D03*
D12*
X271462500Y-154200165D03*
D13*
X276542500Y-154200165D03*
X266382500Y-154200165D03*
D14*
X274002500Y-149120165D03*
X267652500Y-151660165D03*
D15*
X264377500Y-151660165D03*
X277304500Y-149120165D03*
D14*
X195270000Y-127260000D03*
D12*
X64293750Y-133640130D03*
D13*
X69373750Y-133640130D03*
X59213750Y-133640130D03*
D27*
X60483750Y-131100130D03*
X66833750Y-128560130D03*
D28*
X65563750Y-138720130D03*
D29*
X63023750Y-138720130D03*
D14*
X271470000Y-127240000D03*
D12*
X370833500Y-51400055D03*
D13*
X365753500Y-51400055D03*
X375913500Y-51400055D03*
D14*
X373373500Y-46320055D03*
X367023500Y-48860055D03*
D15*
X363748500Y-48860055D03*
X376675500Y-46320055D03*
D28*
X369563500Y-56480055D03*
D29*
X372103500Y-56480055D03*
D14*
X49970000Y-127500000D03*
X173990000Y-87440099D03*
D12*
X171450000Y-92520099D03*
D13*
X176530000Y-92520099D03*
D14*
X167640000Y-89980099D03*
D13*
X166370000Y-92520099D03*
D15*
X164365000Y-89980099D03*
X177292000Y-87440099D03*
D13*
X90170000Y-92520099D03*
D12*
X95250000Y-92520099D03*
D13*
X100330000Y-92520099D03*
D14*
X91440000Y-89980099D03*
X97790000Y-87440099D03*
D15*
X88165000Y-89980099D03*
X101092000Y-87440099D03*
D12*
X59531250Y-133640130D03*
D13*
X54451250Y-133640130D03*
X64611250Y-133640130D03*
D14*
X62071250Y-128560130D03*
X55721250Y-131100130D03*
D15*
X52446250Y-131100130D03*
X65373250Y-128560130D03*
D28*
X58261250Y-138720130D03*
D29*
X60801250Y-138720130D03*
D12*
X76200000Y-92520099D03*
D13*
X81280000Y-92520099D03*
D14*
X72390000Y-89980099D03*
X78740000Y-87440099D03*
D13*
X71120000Y-92520099D03*
D15*
X69115000Y-89980099D03*
X82042000Y-87440099D03*
D14*
X326390000Y-46320055D03*
D13*
X328930000Y-51400055D03*
X318770000Y-51400055D03*
D12*
X323850000Y-51400055D03*
D14*
X320040000Y-48860055D03*
D15*
X316765000Y-48860055D03*
X329692000Y-46320055D03*
D14*
X380360000Y-127300000D03*
D13*
X85407500Y-133640143D03*
D12*
X90487500Y-133640143D03*
D13*
X95567500Y-133640143D03*
D14*
X93027500Y-128560143D03*
X86677500Y-131100143D03*
D15*
X83402500Y-131100143D03*
X96329500Y-128560143D03*
D14*
X66680000Y-85890000D03*
X266750000Y-106310000D03*
X276310000Y-65040000D03*
X314340000Y-85650000D03*
D12*
X219075000Y-113080121D03*
D14*
X221615000Y-108000121D03*
X215265000Y-110540121D03*
D13*
X224155000Y-113080121D03*
X213995000Y-113080121D03*
D15*
X211990000Y-110540121D03*
X224917000Y-108000121D03*
D14*
X158115000Y-110540121D03*
D13*
X167005000Y-113080121D03*
D14*
X164465000Y-108000121D03*
D12*
X161925000Y-113080121D03*
D13*
X156845000Y-113080121D03*
D15*
X154840000Y-110540121D03*
X167767000Y-108000121D03*
D13*
X252730000Y-92520099D03*
D14*
X250190000Y-87440099D03*
X243840000Y-89980099D03*
D13*
X242570000Y-92520099D03*
D12*
X247650000Y-92520099D03*
D15*
X240565000Y-89980099D03*
X253492000Y-87440099D03*
D12*
X417817000Y-92520097D03*
D14*
X414007000Y-89980097D03*
D13*
X412737000Y-92520097D03*
X422897000Y-92520097D03*
D14*
X420357000Y-87440097D03*
D15*
X410732000Y-89980097D03*
X423659000Y-87440097D03*
D28*
X416547000Y-97600097D03*
D29*
X419087000Y-97600097D03*
D14*
X283527500Y-128560143D03*
X277177500Y-131100143D03*
D13*
X275907500Y-133640143D03*
X286067500Y-133640143D03*
D12*
X280987500Y-133640143D03*
D15*
X273902500Y-131100143D03*
X286829500Y-128560143D03*
D20*
X326263000Y-85535090D03*
D13*
X319405000Y-92520090D03*
D12*
X314325000Y-92520090D03*
D21*
X326263000Y-100775090D03*
D20*
X302387000Y-85535090D03*
D14*
X310515000Y-89980090D03*
D13*
X309245000Y-92520090D03*
D21*
X302387000Y-100775090D03*
D14*
X316865000Y-87440090D03*
D15*
X307240000Y-89980090D03*
X320167000Y-87440090D03*
D13*
X62230000Y-51400055D03*
D14*
X53340000Y-48860055D03*
D13*
X52070000Y-51400055D03*
D12*
X57150000Y-51400055D03*
D14*
X59690000Y-46320055D03*
D15*
X50065000Y-48860055D03*
X62992000Y-46320055D03*
D13*
X237807500Y-133640143D03*
D14*
X245427500Y-128560143D03*
D13*
X247967500Y-133640143D03*
D12*
X242887500Y-133640143D03*
D14*
X239077500Y-131100143D03*
D15*
X235802500Y-131100143D03*
X248729500Y-128560143D03*
D12*
X257175000Y-113080121D03*
D13*
X262255000Y-113080121D03*
D14*
X259715000Y-108000121D03*
D13*
X252095000Y-113080121D03*
D14*
X253365000Y-110540121D03*
D15*
X250090000Y-110540121D03*
X263017000Y-108000121D03*
D14*
X71780000Y-168560000D03*
D13*
X56832500Y-174760187D03*
D12*
X61912500Y-174760187D03*
D14*
X64452500Y-169680187D03*
X58102500Y-172220187D03*
D13*
X66992500Y-174760187D03*
D15*
X54827500Y-172220187D03*
X67754500Y-169680187D03*
D13*
X175895000Y-51400055D03*
D14*
X177165000Y-48860055D03*
X183515000Y-46320055D03*
D12*
X180975000Y-51400055D03*
D13*
X186055000Y-51400055D03*
D15*
X173890000Y-48860055D03*
X186817000Y-46320055D03*
D14*
X104790000Y-65230000D03*
D30*
X151450000Y-115848000D03*
X153350000Y-115848000D03*
X152400000Y-118848000D03*
X218252000Y-95274000D03*
X220152000Y-95274000D03*
X219202000Y-98274000D03*
X222824000Y-156996000D03*
X224724000Y-156996000D03*
X223774000Y-159996000D03*
X251526000Y-136422000D03*
X253426000Y-136422000D03*
X252476000Y-139422000D03*
X142052000Y-95274000D03*
X143952000Y-95274000D03*
X143002000Y-98274000D03*
X84902000Y-95274000D03*
X86802000Y-95274000D03*
X85852000Y-98274000D03*
X94300000Y-115848000D03*
X96200000Y-115848000D03*
X95250000Y-118848000D03*
X232476000Y-136422000D03*
X234376000Y-136422000D03*
X233426000Y-139422000D03*
X65852000Y-95274000D03*
X67752000Y-95274000D03*
X66802000Y-98274000D03*
X146624000Y-156996000D03*
X148524000Y-156996000D03*
X147574000Y-159996000D03*
X445582000Y-115848000D03*
X447482000Y-115848000D03*
X446532000Y-118848000D03*
X189550000Y-54126000D03*
X191450000Y-54126000D03*
X190500000Y-57126000D03*
X246700000Y-115848000D03*
X248600000Y-115848000D03*
X247650000Y-118848000D03*
X379542000Y-180110000D03*
X381442000Y-180110000D03*
X380492000Y-183110000D03*
X170500000Y-115848000D03*
X172400000Y-115848000D03*
X171450000Y-118848000D03*
X251526000Y-54126000D03*
X253426000Y-54126000D03*
X252476000Y-57126000D03*
X360492000Y-54126000D03*
X362392000Y-54126000D03*
X361442000Y-57126000D03*
X294198000Y-95274000D03*
X296098000Y-95274000D03*
X295148000Y-98274000D03*
X301056000Y-156996000D03*
X302956000Y-156996000D03*
X302006000Y-159996000D03*
X386146000Y-161060000D03*
X388046000Y-161060000D03*
X387096000Y-164060000D03*
X103952000Y-54126000D03*
X105852000Y-54126000D03*
X104902000Y-57126000D03*
X92268000Y-158774000D03*
X94168000Y-158774000D03*
X93218000Y-161774000D03*
X161102000Y-95274000D03*
X163002000Y-95274000D03*
X162052000Y-98274000D03*
X275402000Y-54126000D03*
X277302000Y-54126000D03*
X276352000Y-57126000D03*
X400116000Y-166394000D03*
X402016000Y-166394000D03*
X401066000Y-169394000D03*
X71694000Y-177570000D03*
X73594000Y-177570000D03*
X72644000Y-180570000D03*
X445582000Y-156996000D03*
X447482000Y-156996000D03*
X446532000Y-159996000D03*
X75250000Y-115848000D03*
X77150000Y-115848000D03*
X76200000Y-118848000D03*
X165928000Y-54126000D03*
X167828000Y-54126000D03*
X166878000Y-57126000D03*
X165674000Y-156996000D03*
X167574000Y-156996000D03*
X166624000Y-159996000D03*
X303850000Y-115848000D03*
X305750000Y-115848000D03*
X304800000Y-118848000D03*
X177866000Y-177316000D03*
X179766000Y-177316000D03*
X178816000Y-180316000D03*
X256225000Y-173887000D03*
X258125000Y-173887000D03*
X257175000Y-176887000D03*
X313502000Y-98322000D03*
X315402000Y-98322000D03*
X314452000Y-101322000D03*
X445582000Y-136422000D03*
X447482000Y-136422000D03*
X446532000Y-139422000D03*
X156276000Y-136422000D03*
X158176000Y-136422000D03*
X157226000Y-139422000D03*
X75250000Y-136422000D03*
X77150000Y-136422000D03*
X76200000Y-139422000D03*
X426532000Y-115848000D03*
X428432000Y-115848000D03*
X427482000Y-118848000D03*
X336870000Y-54126000D03*
X338770000Y-54126000D03*
X337820000Y-57126000D03*
X337378000Y-134898000D03*
X339278000Y-134898000D03*
X338328000Y-137898000D03*
X241874000Y-156996000D03*
X243774000Y-156996000D03*
X242824000Y-159996000D03*
X227650000Y-115848000D03*
X229550000Y-115848000D03*
X228600000Y-118848000D03*
X337378000Y-115848000D03*
X339278000Y-115848000D03*
X338328000Y-118848000D03*
X445582000Y-95274000D03*
X447482000Y-95274000D03*
X446532000Y-98274000D03*
X360492000Y-177570000D03*
X362392000Y-177570000D03*
X361442000Y-180570000D03*
X426532000Y-156996000D03*
X428432000Y-156996000D03*
X427482000Y-159996000D03*
X99126000Y-136422000D03*
X101026000Y-136422000D03*
X100076000Y-139422000D03*
X310200000Y-138454000D03*
X312100000Y-138454000D03*
X311150000Y-141454000D03*
X337378000Y-156234000D03*
X339278000Y-156234000D03*
X338328000Y-159234000D03*
X237302000Y-95274000D03*
X239202000Y-95274000D03*
X238252000Y-98274000D03*
X426532000Y-95274000D03*
X428432000Y-95274000D03*
X427482000Y-98274000D03*
X426532000Y-136422000D03*
X428432000Y-136422000D03*
X427482000Y-139422000D03*
X69408000Y-160552000D03*
X71308000Y-160552000D03*
X70358000Y-163552000D03*
X175326000Y-136422000D03*
X177226000Y-136422000D03*
X176276000Y-139422000D03*
X75250000Y-54126000D03*
X77150000Y-54126000D03*
X76200000Y-57126000D03*
%LPD*%
M02*
