M48
; DRILL file {KiCad (6.0.1-0)} date Tuesday, March 21, 2023 at 08:52:17 AM
; FORMAT={-:-/ absolute / metric / decimal}
; #@! TF.CreationDate,2023-03-21T08:52:17-07:00
; #@! TF.GenerationSoftware,Kicad,Pcbnew,(6.0.1-0)
; #@! TF.FileFunction,Plated,1,2,PTH
FMAT,2
METRIC
; #@! TA.AperFunction,Plated,PTH,ViaDrill
T1C0.400
; #@! TA.AperFunction,Plated,PTH,ComponentDrill
T2C0.900
; #@! TA.AperFunction,Plated,PTH,ComponentDrill
T3C1.000
; #@! TA.AperFunction,Plated,PTH,ComponentDrill
T4C1.040
; #@! TA.AperFunction,Plated,PTH,ComponentDrill
T5C1.470
%
G90
G05
T1
X50.038Y-48.768
X50.038Y-89.916
X52.324Y-131.064
X54.864Y-110.49
X54.864Y-172.212
X61.976Y-151.638
X66.548Y-156.718
X69.088Y-89.916
X78.486Y-110.49
X83.312Y-131.064
X87.376Y-141.421
X88.138Y-48.768
X88.138Y-89.916
X88.138Y-156.718
X92.964Y-151.638
X97.536Y-110.49
X102.362Y-131.064
X102.616Y-172.212
X107.188Y-48.768
X107.188Y-89.916
X112.014Y-151.638
X116.586Y-110.49
X120.396Y-136.652
X121.412Y-131.064
X126.238Y-48.768
X126.238Y-89.916
X131.064Y-151.638
X135.636Y-110.49
X140.462Y-131.064
X145.288Y-48.768
X145.288Y-89.916
X150.114Y-151.638
X154.686Y-110.49
X157.226Y-177.292
X159.512Y-131.064
X164.338Y-89.916
X166.89Y-57.138
X169.164Y-151.638
X173.99Y-48.768
X173.99Y-110.49
X178.562Y-131.064
X183.388Y-89.916
X183.388Y-172.212
X188.214Y-151.638
X190.5Y-57.15
X193.04Y-48.768
X193.04Y-110.49
X197.866Y-131.064
X202.438Y-89.916
X204.724Y-177.292
X207.264Y-151.638
X211.836Y-110.49
X212.09Y-48.768
X216.662Y-131.064
X219.202Y-98.274
X221.488Y-89.916
X223.762Y-160.008
X226.314Y-151.638
X228.588Y-118.86
X230.886Y-48.768
X230.886Y-110.49
X233.414Y-139.434
X235.712Y-131.064
X238.252Y-98.298
X238.912Y-39.98
X240.538Y-89.916
X242.824Y-160.02
X244.856Y-186.308
X245.364Y-151.638
X245.364Y-177.292
X245.868Y-83.562
X247.65Y-118.872
X249.936Y-110.49
X252.476Y-139.446
X254.762Y-131.064
X257.29Y-180.582
X259.08Y-62.738
X259.588Y-48.768
X259.588Y-89.916
X264.414Y-151.638
X264.414Y-172.212
X268.986Y-110.49
X269.748Y-38.354
X269.761Y-39.366
X273.812Y-131.064
X277.913Y-100.273
X278.638Y-48.768
X278.638Y-89.916
X288.036Y-110.49
X289.814Y-55.118
X294.195Y-138.72
X297.688Y-48.768
X297.688Y-156.718
X300.228Y-151.638
X304.8Y-131.064
X306.578Y-74.676
X307.086Y-136.144
X310.864Y-159.28
X311.912Y-94.996
X311.912Y-110.49
X311.912Y-172.212
X313.023Y-149.12
X314.452Y-120.904
X315.469Y-144.113
X316.738Y-48.768
X317.786Y-128.56
X318.008Y-97.6
X320.294Y-87.376
X323.85Y-156.718
X324.929Y-169.68
X325.12Y-164.942
X327.311Y-118.28
X337.82Y-48.006
X344.678Y-49.022
X344.678Y-89.916
X344.678Y-110.49
X344.678Y-172.212
X350.266Y-82.042
X351.375Y-82.079
X357.625Y-87.44
X357.625Y-108.0
X358.14Y-143.664
X359.156Y-130.906
X362.554Y-58.166
X363.003Y-57.15
X363.728Y-48.768
X363.728Y-89.916
X363.728Y-110.49
X363.728Y-151.638
X363.728Y-172.212
X376.675Y-108.0
X377.444Y-164.375
X382.778Y-48.768
X382.778Y-89.916
X382.778Y-110.49
X382.778Y-172.212
X391.668Y-152.908
X395.725Y-87.44
X395.725Y-108.0
X395.732Y-144.114
X401.32Y-128.778
X410.714Y-157.23
X410.718Y-89.916
X410.718Y-110.49
X410.718Y-131.064
X410.718Y-151.638
X420.37Y-172.212
X424.942Y-177.292
X429.768Y-89.916
X429.768Y-110.49
X429.768Y-131.064
X429.768Y-151.638
X431.025Y-179.84
X435.61Y-165.152
X441.452Y-37.63
X443.992Y-177.292
X448.818Y-89.916
X448.818Y-110.49
X448.818Y-131.064
X448.818Y-151.638
X448.818Y-172.212
X467.868Y-89.916
X467.868Y-120.904
X467.868Y-131.064
X467.868Y-162.052
X467.868Y-172.212
X477.52Y-105.918
X477.52Y-147.066
T2
X414.065Y-57.88
X416.605Y-57.88
X438.975Y-57.9
X441.515Y-57.9
X464.035Y-57.9
X466.575Y-57.9
T3
X58.076Y-141.986
X65.876Y-141.986
X349.284Y-44.4
X349.284Y-58.9
X351.784Y-58.9
X354.284Y-44.4
X354.284Y-58.9
X366.933Y-62.484
X368.333Y-44.4
X368.333Y-58.9
X370.833Y-58.9
X373.333Y-44.4
X373.333Y-58.9
X374.733Y-62.484
X387.383Y-44.4
X387.383Y-58.9
X389.883Y-58.9
X392.383Y-44.4
X392.383Y-58.9
X411.44Y-62.992
X413.917Y-100.838
X419.24Y-62.992
X421.717Y-100.838
X436.35Y-62.992
X444.15Y-62.992
X461.41Y-62.992
X469.21Y-62.992
T4
X58.261Y-138.72
X60.801Y-138.72
X63.024Y-138.72
X65.564Y-138.72
X369.563Y-56.48
X372.103Y-56.48
X416.547Y-97.6
X419.087Y-97.6
T5
X60.484Y-131.1
X66.834Y-128.56
T0
M30
